<svg width="81" height="80" viewBox="0 0 81 80" fill="none" xmlns="http://www.w3.org/2000/svg">
<path d="M4.5 9.77778C4.5 8.77585 4.89925 7.81496 5.60991 7.10649C6.32058 6.39801 7.28444 6 8.28947 6H31.0263L40.5 17.3333H72.7105C73.7156 17.3333 74.6794 17.7313 75.3901 18.4398C76.1008 19.1483 76.5 20.1092 76.5 21.1111V70.2222C76.5 71.2241 76.1008 72.185 75.3901 72.8935C74.6794 73.602 73.7156 74 72.7105 74H8.28947C7.28444 74 6.32058 73.602 5.60991 72.8935C4.89925 72.185 4.5 71.2241 4.5 70.2222V9.77778Z" stroke="#B4A064" stroke-width="3.89189" stroke-linejoin="round"/>
<path d="M49.5958 43.3994H31.4064C30.7785 43.3994 30.2695 43.9068 30.2695 44.5327V57.6427C30.2695 58.2686 30.7785 58.776 31.4064 58.776H49.5958C50.2237 58.776 50.7327 58.2686 50.7327 57.6427V44.5327C50.7327 43.9068 50.2237 43.3994 49.5958 43.3994Z" stroke="#B4A064" stroke-width="3.89189" stroke-linejoin="round"/>
<path d="M40.5016 48.903V52.303M34.8174 43.3997V38.8664C34.8174 35.7367 37.3622 33.1997 40.5016 33.1997C43.641 33.1997 46.1858 35.7367 46.1858 38.8664V43.3997H34.8174Z" stroke="#B4A064" stroke-width="3.89189" stroke-linecap="round" stroke-linejoin="round"/>
</svg>
