<svg width="81" height="80" viewBox="0 0 81 80" fill="none" xmlns="http://www.w3.org/2000/svg">
<path d="M70.5 4H10.5C8.9087 4 7.38258 4.63214 6.25736 5.75736C5.13214 6.88258 4.5 8.4087 4.5 10V70C4.5 71.5913 5.13214 73.1174 6.25736 74.2426C7.38258 75.3679 8.9087 76 10.5 76H70.5C72.0913 76 73.6174 75.3679 74.7426 74.2426C75.8679 73.1174 76.5 71.5913 76.5 70V10C76.5 8.4087 75.8679 6.88258 74.7426 5.75736C73.6174 4.63214 72.0913 4 70.5 4Z" stroke="#B4A064" stroke-width="3.89189" stroke-linecap="round" stroke-linejoin="round"/>
<path d="M76.5 63.9999L54.5 43.9999L34.5 61.9999L20.5 49.9999L4.5 61.9999M28.5 37.9999C31.1522 37.9999 33.6957 36.9463 35.5711 35.0709C37.4464 33.1956 38.5 30.652 38.5 27.9999C38.5 25.3477 37.4464 22.8042 35.5711 20.9288C33.6957 19.0534 31.1522 17.9999 28.5 17.9999C25.8478 17.9999 23.3043 19.0534 21.4289 20.9288C19.5536 22.8042 18.5 25.3477 18.5 27.9999C18.5 30.652 19.5536 33.1956 21.4289 35.0709C23.3043 36.9463 25.8478 37.9999 28.5 37.9999V37.9999Z" stroke="#B4A064" stroke-width="3.89189" stroke-linecap="round" stroke-linejoin="round"/>
</svg>
