<svg width="81" height="80" viewBox="0 0 81 80" fill="none" xmlns="http://www.w3.org/2000/svg">
<path d="M40.5 16V64M52.3462 20.3636H36.1923C33.6217 20.3636 31.1565 21.398 29.3388 23.2393C27.5212 25.0806 26.5 27.5779 26.5 30.1818C26.5 32.7858 27.5212 35.2831 29.3388 37.1243C31.1565 38.9656 33.6217 40 36.1923 40H44.8077C46.0805 40 47.3409 40.254 48.5168 40.7474C49.6927 41.2408 50.7612 41.964 51.6612 42.8757C52.5612 43.7874 53.2751 44.8697 53.7622 46.0609C54.2493 47.2521 54.5 48.5288 54.5 49.8182C54.5 51.1075 54.2493 52.3842 53.7622 53.5754C53.2751 54.7666 52.5612 55.849 51.6612 56.7607C50.7612 57.6724 49.6927 58.3956 48.5168 58.889C47.3409 59.3824 46.0805 59.6364 44.8077 59.6364H28.6538" stroke="#B4A064" stroke-width="4" stroke-linecap="round" stroke-linejoin="round"/>
<circle cx="40.5" cy="40" r="36" stroke="#B4A064" stroke-width="4"/>
</svg>
