<svg width="81" height="80" viewBox="0 0 81 80" fill="none" xmlns="http://www.w3.org/2000/svg">
<path d="M26.5005 76L40.5005 68.8L54.5005 76V41.6992C50.6543 45.2481 45.6674 47.2075 40.5005 47.2C35.3335 47.2075 30.3466 45.2481 26.5005 41.6992V76Z" stroke="#B4A064" stroke-width="3.89189" stroke-linecap="round" stroke-linejoin="round"/>
<path d="M61.5 25.6C61.5032 28.6395 60.8812 31.6453 59.6748 34.42C58.4683 37.1947 56.7048 39.6754 54.5 41.6992C50.6538 45.2481 45.667 47.2075 40.5 47.2C35.333 47.2075 30.3462 45.2481 26.5 41.6992C24.2952 39.6754 22.5317 37.1947 21.3252 34.42C20.1188 31.6453 19.4968 28.6395 19.5 25.6C19.5 13.6714 28.9028 4 40.5 4C52.0972 4 61.5 13.6714 61.5 25.6Z" stroke="#B4A064" stroke-width="3.89189" stroke-linecap="round" stroke-linejoin="round"/>
<path d="M40.499 34.5996V16.5996L36.999 18.3996M40.499 34.5996H43.999M40.499 34.5996H36.999" stroke="#B4A064" stroke-width="3.89189" stroke-linecap="round" stroke-linejoin="round"/>
</svg>
