<svg width="81" height="80" viewBox="0 0 81 80" fill="none" xmlns="http://www.w3.org/2000/svg">
<path d="M65.7008 32.8V22L51.3008 4H15.3008V32.8M15.3008 65.2V76H65.7008V65.2H15.3008Z" stroke="#B4A064" stroke-width="3.89189" stroke-linecap="round" stroke-linejoin="round"/>
<path d="M47.6992 4V22H65.6992" stroke="#B4A064" stroke-width="3.89189" stroke-linecap="round" stroke-linejoin="round"/>
<path d="M26.1001 18.3999H33.3001" stroke="#B4A064" stroke-width="3.89189" stroke-linecap="round"/>
<path d="M72.9 32.7999H8.1C6.11177 32.7999 4.5 34.4117 4.5 36.3999V61.5999C4.5 63.5882 6.11177 65.1999 8.1 65.1999H72.9C74.8882 65.1999 76.5 63.5882 76.5 61.5999V36.3999C76.5 34.4117 74.8882 32.7999 72.9 32.7999Z" stroke="#B4A064" stroke-width="3.89189" stroke-linejoin="round"/>
<path d="M15.3008 41.7999V56.1999" stroke="#B4A064" stroke-width="3.89189" stroke-linecap="round"/>
<path d="M15.3008 41.7999H18.9008C20.8103 41.7999 22.6417 42.5585 23.992 43.9088C25.3422 45.259 26.1008 47.0904 26.1008 48.9999C26.1008 50.9095 25.3422 52.7408 23.992 54.0911C22.6417 55.4414 20.8103 56.1999 18.9008 56.1999H15.3008" stroke="#B4A064" stroke-width="3.89189" stroke-linecap="round" stroke-linejoin="round"/>
<path d="M40.4991 56.1999C43.4815 56.1999 45.8991 52.9764 45.8991 48.9999C45.8991 45.0235 43.4815 41.7999 40.4991 41.7999C37.5168 41.7999 35.0991 45.0235 35.0991 48.9999C35.0991 52.9764 37.5168 56.1999 40.4991 56.1999Z" stroke="#B4A064" stroke-width="3.89189" stroke-linecap="round" stroke-linejoin="round"/>
<path d="M65.7009 41.7999H62.1009C60.1913 41.7999 58.36 42.5585 57.0097 43.9088C55.6594 45.259 54.9009 47.0904 54.9009 48.9999C54.9009 50.9095 55.6594 52.7408 57.0097 54.0911C58.36 55.4414 60.1913 56.1999 62.1009 56.1999H65.7009" stroke="#B4A064" stroke-width="3.89189" stroke-linecap="round" stroke-linejoin="round"/>
</svg>
