<svg width="81" height="80" viewBox="0 0 81 80" fill="none" xmlns="http://www.w3.org/2000/svg">
<path d="M27.7 61.6H40.3M65.5 4H15.1C14.1452 4 13.2295 4.37928 12.5544 5.05442C11.8793 5.72955 11.5 6.64522 11.5 7.6V72.4C11.5 73.3548 11.8793 74.2705 12.5544 74.9456C13.2295 75.6207 14.1452 76 15.1 76H65.5C66.4548 76 67.3705 75.6207 68.0456 74.9456C68.7207 74.2705 69.1 73.3548 69.1 72.4V7.6C69.1 6.64522 68.7207 5.72955 68.0456 5.05442C67.3705 4.37928 66.4548 4 65.5 4V4ZM27.7 50.8H52.9H27.7Z" stroke="#B4A064" stroke-width="3.89189" stroke-linecap="round" stroke-linejoin="round"/>
<path d="M51.1 20.2001L36.7 34.6001L29.5 27.4001" stroke="#B4A064" stroke-width="3.89189" stroke-linecap="round" stroke-linejoin="round"/>
</svg>
