<svg width="226" height="300" viewBox="0 0 226 300" fill="none" xmlns="http://www.w3.org/2000/svg">
<g clip-path="url(#clip0_1271_26282)">
<rect x="0.5" y="74.6477" width="225.352" height="225.352" rx="112.676" fill="white"/>
<path d="M135.417 73.2693C135.417 73.2693 139.995 84.2383 139.08 89.7319C138.164 95.2255 125.822 99.7853 123.99 100.701C122.159 101.616 112.564 97.4962 112.564 86.9851C112.564 76.4739 129.942 64.5894 135.417 73.2693Z" fill="white" stroke="#263238" stroke-width="1.83121" stroke-miterlimit="10" stroke-linecap="round" stroke-linejoin="round"/>
<path d="M78.5023 201.948C78.5023 201.948 74.5835 218.1 77.5318 225.425C80.4617 232.768 80.9561 244.506 81.4506 248.425C81.945 252.343 76.5612 285.122 74.6018 302.244C72.6424 319.366 64.3287 338.447 67.7531 350.68C71.1775 362.912 68.2475 407.429 69.2181 414.278C70.1886 421.126 72.148 427.005 73.613 427.975C75.078 428.946 80.4617 429.44 84.8566 427.481C89.2515 425.521 92.1998 410.853 93.1703 406.44C94.1409 402.045 98.0597 350.661 99.5246 342.842C100.99 335.023 105.403 299.79 105.403 299.79C105.403 299.79 109.322 328.65 108.333 336.488C107.362 344.307 103.938 359.488 105.403 373.185C106.868 386.883 109.322 437.772 109.322 437.772C109.322 437.772 113.717 440.226 116.17 440.226C118.624 440.226 137.211 427.499 139.17 423.104C141.13 418.709 139.17 410.872 139.17 410.872C139.17 410.872 142.595 333.082 146.019 306.657C149.443 280.233 141.624 208.321 141.624 208.321C141.624 208.321 102.967 217.111 78.5023 201.948Z" fill="#263238"/>
<path d="M104.925 293.93L98.571 258.203L87.8035 239.616" stroke="white" stroke-width="1.83121" stroke-miterlimit="10" stroke-linecap="round" stroke-linejoin="round"/>
<path d="M137.286 34.3743C137.286 34.3743 139.593 40.8385 139.593 44.0797C139.593 47.321 137.744 49.6283 138.202 51.9356C138.659 54.243 142.358 57.942 139.117 63.9484C135.876 69.9547 138.659 78.7446 134.026 80.5941C129.412 82.4436 124.321 82.4436 124.321 82.4436L122.929 92.6069L99.8193 85.2087V71.8043V66.7135C99.8193 66.7135 109.525 67.1713 113.224 62.5567C116.923 57.942 115.989 48.2183 117.838 41.7541C119.688 35.2899 127.086 31.1147 130.327 31.1147C133.569 31.1147 137.286 34.3743 137.286 34.3743Z" fill="white" stroke="#263238" stroke-width="1.83121" stroke-miterlimit="10" stroke-linecap="round" stroke-linejoin="round"/>
<path d="M143.914 26.0061C143.09 29.2657 140.929 32.1957 137.285 34.3748C132.671 37.1399 126.646 36.2243 126.646 38.5317C126.646 40.839 130.803 40.3812 129.411 46.3875C128.019 52.3939 123.862 56.093 123.862 56.093C123.862 56.093 128.019 61.1837 123.862 62.0993C119.706 63.015 118.772 69.0396 113.699 70.413C108.608 71.8048 103.994 75.5038 99.837 71.8048C95.6801 68.1057 82.2756 52.8517 80.4261 42.6885C78.5766 32.5253 88.7398 21.8859 88.7398 21.8859C88.7398 21.8859 88.282 15.8795 91.9811 13.5722C95.6801 11.2649 105.587 10.4775 106.521 6.77841C110.385 -8.60378 137.084 5.88114 141.753 14.0117C143.749 17.491 144.921 22.0324 143.914 26.0061Z" fill="#263238"/>
<path d="M88.7384 87.0768C88.7384 87.0768 80.15 92.8268 74.6014 102.532C69.0529 112.238 76.2495 157.34 78.099 169.353C79.9486 181.366 75.7917 201.253 79.0147 206.801C82.2559 212.35 92.8769 216.965 103.058 217.899C113.222 218.814 128.952 217.441 134.958 215.591C140.965 213.742 144.206 208.651 144.206 206.344C144.206 204.036 143.748 175.836 143.748 169.829C143.748 163.823 143.29 120.826 139.591 112.512C135.892 104.199 128.952 98.6501 123.403 95.8667C117.855 93.1015 97.0521 82.92 88.7384 87.0768Z" fill="#C6FF00" stroke="#263238" stroke-width="1.83121" stroke-miterlimit="10" stroke-linecap="round" stroke-linejoin="round"/>
<path d="M129.738 142.032C129.738 142.032 124.793 146.537 110.84 148.331" stroke="#263238" stroke-width="1.83121" stroke-miterlimit="10"/>
<path d="M119.777 161.296C118.404 162.706 116.92 163.969 115.345 164.977" stroke="#263238" stroke-width="1.83121" stroke-miterlimit="10"/>
<path d="M131.533 142.032C131.533 142.032 128.438 150.199 123.182 157.249" stroke="#263238" stroke-width="1.83121" stroke-miterlimit="10"/>
<path d="M129.281 191.95C115.785 209.933 95.5498 212.185 95.5498 212.185C95.5498 212.185 115.345 212.643 128.383 198.689" stroke="#263238" stroke-width="1.83121" stroke-miterlimit="10" stroke-linecap="round" stroke-linejoin="round"/>
<path d="M92.8949 79.2207C92.8949 79.2207 106.299 80.1363 115.089 85.2271C123.879 90.3178 129.885 95.3903 133.127 96.3242C136.368 97.2581 142.374 97.7159 140.525 98.1737C138.675 98.6315 136.368 99.0894 131.735 100.481C127.12 101.873 120.638 99.0894 110.932 94.4747C101.227 89.8601 90.5876 87.0766 88.738 87.0766C86.8885 87.0766 89.1959 79.2207 92.8949 79.2207Z" fill="#C6FF00" stroke="#263238" stroke-width="1.83121" stroke-miterlimit="10" stroke-linecap="round" stroke-linejoin="round"/>
<path d="M171.491 125.459C171.491 125.459 186.855 135.732 189.107 143.386" stroke="#263238" stroke-width="1.83121" stroke-miterlimit="10" stroke-linecap="round" stroke-linejoin="round"/>
<path d="M170.558 108.814L154.37 70.9075C154.37 70.9075 150.671 66.7507 147.43 64.9011C144.189 63.0516 146.514 60.2865 146.514 60.2865C146.514 60.2865 151.129 61.2021 151.129 59.3709C151.129 57.5397 150.671 51.515 150.213 50.1233C149.756 48.7316 148.364 47.8159 148.364 46.4242C148.364 45.0325 151.605 43.183 155.304 44.1169C159.003 45.0325 158.381 44.5197 158.381 44.5197C163.673 43.3478 164.68 44.4831 167.317 49.2077C169.441 53.0166 169.624 58.4553 169.624 60.7626C169.624 63.0699 166.859 70.0102 166.859 70.0102L186.746 108.374L170.558 108.814Z" fill="white" stroke="#263238" stroke-width="1.83121" stroke-miterlimit="10" stroke-linecap="round" stroke-linejoin="round"/>
<path d="M172.409 119.453C172.409 119.453 166.402 119.453 166.86 118.061C167.318 116.669 165.468 111.597 165.468 109.271C165.468 106.945 169.625 104.18 174.716 103.265C179.807 102.349 185.355 104.18 187.205 104.656C189.054 105.114 189.512 108.813 190.904 111.121C192.296 113.428 193.211 116.211 192.296 118.061C191.38 119.91 188.596 120.826 188.596 120.826L172.409 119.453Z" fill="#C6FF00" stroke="#263238" stroke-width="1.83121" stroke-miterlimit="10" stroke-linecap="round" stroke-linejoin="round"/>
<path d="M105.843 112.512C105.843 112.512 109.084 101.415 115.548 99.1076C122.013 96.8003 129.887 100.023 137.743 105.114C145.599 110.205 171.492 125.459 171.492 125.459L168.727 114.362C168.727 114.362 185.373 109.271 189.529 117.127C193.686 124.983 196.47 153.641 196.47 157.34C196.47 161.039 186.764 164.28 180.758 163.804C174.752 163.347 121.591 136.995 121.591 136.995" fill="#C6FF00"/>
<path d="M105.843 112.512C105.843 112.512 109.084 101.415 115.548 99.1076C122.013 96.8003 129.887 100.023 137.743 105.114C145.599 110.205 171.492 125.459 171.492 125.459L168.727 114.362C168.727 114.362 185.373 109.271 189.529 117.127C193.686 124.983 196.47 153.641 196.47 157.34C196.47 161.039 186.764 164.28 180.758 163.804C174.752 163.347 121.591 136.995 121.591 136.995" stroke="#263238" stroke-width="1.83121" stroke-miterlimit="10" stroke-linecap="round" stroke-linejoin="round"/>
<path d="M178.304 129.891C178.304 129.891 185.501 131.685 190.445 137.985" stroke="#263238" stroke-width="1.83121" stroke-miterlimit="10" stroke-linecap="round" stroke-linejoin="round"/>
</g>
<path d="M135.417 73.2696C135.417 73.2696 139.996 84.2385 139.08 89.7321C138.164 95.2258 125.822 99.7855 123.991 100.701C122.16 101.617 112.564 97.4965 112.564 86.9853C112.564 76.4742 129.942 64.5896 135.417 73.2696Z" fill="white" stroke="#263238" stroke-width="1.83121" stroke-miterlimit="10" stroke-linecap="round" stroke-linejoin="round"/>
<path d="M130.088 43.4756L155.835 40.4907C160.907 39.9047 165.485 43.6221 165.943 48.7129C166.419 53.9685 162.336 58.5282 157.062 58.6381L133.256 59.1325L130.088 43.4756Z" fill="#263238"/>
<path d="M133.128 38.0553C133.128 38.0553 138.621 36.2241 142.265 38.0553C145.928 39.8865 149.132 42.6334 148.675 44.4646C148.217 46.2958 145.47 45.838 141.808 46.2958C138.145 46.7536 134.208 49.299 133.439 47.3396C132.688 45.3802 133.128 38.0553 133.128 38.0553Z" fill="white" stroke="#263238" stroke-width="1.83121" stroke-miterlimit="10" stroke-linecap="round" stroke-linejoin="round"/>
<path d="M146.643 45.9661L172.554 45.3252C177.663 45.197 181.875 49.2989 181.875 54.4263C181.875 59.7002 177.407 63.8754 172.133 63.5091L148.382 61.8427L146.643 45.9661Z" fill="#263238"/>
<path d="M136.645 45.9661L149.866 46.2591C149.866 46.2591 152.503 48.017 152.796 51.8442C153.089 55.6715 151.624 61.2384 151.624 61.2384H137.524C137.524 61.2384 134.594 59.1874 133.403 55.3602C132.25 51.533 136.645 45.9661 136.645 45.9661Z" fill="#263238"/>
<path d="M104.926 293.931L98.5712 258.204L87.8037 239.617" stroke="white" stroke-width="1.83121" stroke-miterlimit="10" stroke-linecap="round" stroke-linejoin="round"/>
<path d="M137.286 34.3743C137.286 34.3743 139.594 40.8385 139.594 44.0797C139.594 47.321 137.744 49.6283 138.202 51.9356C138.66 54.243 142.359 57.942 139.117 63.9484C135.876 69.9547 138.66 78.7446 134.027 80.5941C129.412 82.4436 124.321 82.4436 124.321 82.4436L122.929 92.6069L99.8196 85.2087V71.8043V66.7135C99.8196 66.7135 109.525 67.1713 113.224 62.5567C116.923 57.942 115.989 48.2183 117.839 41.7541C119.688 35.2899 127.086 31.1147 130.328 31.1147C133.569 31.1147 137.286 34.3743 137.286 34.3743Z" fill="white" stroke="#263238" stroke-width="1.83121" stroke-miterlimit="10" stroke-linecap="round" stroke-linejoin="round"/>
<path d="M143.915 26.0061C143.09 29.2657 140.93 32.1957 137.286 34.3748C132.671 37.1399 126.646 36.2243 126.646 38.5317C126.646 40.839 130.803 40.3812 129.411 46.3875C128.02 52.3939 123.863 56.093 123.863 56.093C123.863 56.093 128.02 61.1837 123.863 62.0993C119.706 63.015 118.772 69.0396 113.699 70.413C108.609 71.8048 103.994 75.5038 99.8372 71.8048C95.6804 68.1057 82.2759 52.8517 80.4264 42.6885C78.5768 32.5253 88.7401 21.8859 88.7401 21.8859C88.7401 21.8859 88.2823 15.8795 91.9813 13.5722C95.6804 11.2649 105.587 10.4775 106.521 6.77841C110.385 -8.60378 137.084 5.88114 141.754 14.0117C143.75 17.491 144.922 22.0324 143.915 26.0061Z" fill="#263238"/>
<path d="M135.527 22.6187C135.527 22.6187 135.857 29.211 129.924 32.5072C123.991 35.8034 110.806 33.1664 106.191 39.4292C101.577 45.6919 104.873 55.5805 97.9509 57.2286" stroke="white" stroke-width="0.915606" stroke-miterlimit="10" stroke-linecap="round" stroke-linejoin="round"/>
<path d="M125.31 43.3838C125.31 43.3838 119.047 45.3615 116.41 49.3169C113.774 53.2723 112.455 62.5016 104.544 64.809" stroke="white" stroke-width="0.915606" stroke-miterlimit="10" stroke-linecap="round" stroke-linejoin="round"/>
<path d="M124.339 64.425C124.339 64.425 120.64 53.3279 115.549 56.1113C110.458 58.8764 114.633 67.2085 117.399 69.5158C120.164 71.8231 123.405 68.6002 123.405 68.6002" fill="white"/>
<path d="M124.339 64.425C124.339 64.425 120.64 53.3279 115.549 56.1113C110.458 58.8764 114.633 67.2085 117.399 69.5158C120.164 71.8231 123.405 68.6002 123.405 68.6002" stroke="#263238" stroke-width="1.83121" stroke-miterlimit="10" stroke-linecap="round" stroke-linejoin="round"/>
<path d="M88.7386 87.0768C88.7386 87.0768 80.1502 92.8268 74.6017 102.532C69.0531 112.238 76.2498 157.34 78.0993 169.353C79.9488 181.366 75.792 201.253 79.0149 206.801C82.2561 212.35 92.8772 216.965 103.059 217.899C113.222 218.814 128.952 217.441 134.958 215.591C140.965 213.742 144.206 208.651 144.206 206.344C144.206 204.036 143.748 175.836 143.748 169.829C143.748 163.823 143.29 120.826 139.591 112.512C135.892 104.199 128.952 98.6501 123.403 95.8667C117.855 93.1015 97.0523 82.92 88.7386 87.0768Z" fill="#FFC727" stroke="#263238" stroke-width="1.83121" stroke-miterlimit="10" stroke-linecap="round" stroke-linejoin="round"/>
<path d="M129.738 142.032C129.738 142.032 124.794 146.537 110.84 148.331" stroke="#263238" stroke-width="1.83121" stroke-miterlimit="10"/>
<path d="M119.777 161.296C118.404 162.706 116.921 163.97 115.346 164.977" stroke="#263238" stroke-width="1.83121" stroke-miterlimit="10"/>
<path d="M131.533 142.032C131.533 142.032 128.438 150.199 123.183 157.249" stroke="#263238" stroke-width="1.83121" stroke-miterlimit="10"/>
<path d="M129.281 191.95C115.785 209.933 95.55 212.185 95.55 212.185C95.55 212.185 115.345 212.643 128.384 198.689" stroke="#263238" stroke-width="1.83121" stroke-miterlimit="10" stroke-linecap="round" stroke-linejoin="round"/>
<path d="M92.8951 79.2209C92.8951 79.2209 106.3 80.1366 115.089 85.2273C123.879 90.3181 129.886 95.3905 133.127 96.3245C136.368 97.2584 142.375 97.7162 140.525 98.174C138.675 98.6318 136.368 99.0896 131.735 100.481C127.121 101.873 120.638 99.0896 110.933 94.4749C101.227 89.8603 90.5878 87.0768 88.7383 87.0768C86.8888 87.0768 89.1961 79.2209 92.8951 79.2209Z" fill="#FFC727" stroke="#263238" stroke-width="1.83121" stroke-miterlimit="10" stroke-linecap="round" stroke-linejoin="round"/>
<path d="M171.491 125.459C171.491 125.459 186.855 135.732 189.107 143.387" stroke="#263238" stroke-width="1.83121" stroke-miterlimit="10" stroke-linecap="round" stroke-linejoin="round"/>
<path d="M170.558 108.814L154.37 70.9075C154.37 70.9075 150.671 66.7507 147.43 64.9011C144.189 63.0516 146.514 60.2865 146.514 60.2865C146.514 60.2865 151.129 61.2021 151.129 59.3709C151.129 57.5397 150.671 51.515 150.214 50.1233C149.756 48.7316 148.364 47.8159 148.364 46.4242C148.364 45.0325 151.605 43.183 155.304 44.1169C159.003 45.0325 158.381 44.5197 158.381 44.5197C163.673 43.3478 164.68 44.4831 167.317 49.2077C169.441 53.0166 169.624 58.4553 169.624 60.7626C169.624 63.0699 166.859 70.0102 166.859 70.0102L186.746 108.374L170.558 108.814Z" fill="white" stroke="#263238" stroke-width="1.83121" stroke-miterlimit="10" stroke-linecap="round" stroke-linejoin="round"/>
<path d="M172.409 119.453C172.409 119.453 166.402 119.453 166.86 118.061C167.318 116.669 165.469 111.597 165.469 109.271C165.469 106.945 169.625 104.18 174.716 103.265C179.807 102.349 185.355 104.18 187.205 104.656C189.055 105.114 189.512 108.813 190.904 111.121C192.296 113.428 193.211 116.211 192.296 118.061C191.38 119.91 188.597 120.826 188.597 120.826L172.409 119.453Z" fill="#FFC727" stroke="#263238" stroke-width="1.83121" stroke-miterlimit="10" stroke-linecap="round" stroke-linejoin="round"/>
<path d="M105.843 112.512C105.843 112.512 109.085 101.415 115.549 99.1076C122.013 96.8003 129.887 100.023 137.743 105.114C145.599 110.205 171.492 125.459 171.492 125.459L168.727 114.362C168.727 114.362 185.373 109.271 189.53 117.127C193.687 124.983 196.47 153.641 196.47 157.34C196.47 161.039 186.765 164.28 180.758 163.804C174.752 163.347 121.592 136.995 121.592 136.995" fill="#FFC727"/>
<path d="M105.843 112.512C105.843 112.512 109.085 101.415 115.549 99.1076C122.013 96.8003 129.887 100.023 137.743 105.114C145.599 110.205 171.492 125.459 171.492 125.459L168.727 114.362C168.727 114.362 185.373 109.271 189.53 117.127C193.687 124.983 196.47 153.641 196.47 157.34C196.47 161.039 186.765 164.28 180.758 163.804C174.752 163.347 121.592 136.995 121.592 136.995" stroke="#263238" stroke-width="1.83121" stroke-miterlimit="10" stroke-linecap="round" stroke-linejoin="round"/>
<path d="M178.304 129.891C178.304 129.891 185.501 131.685 190.445 137.985" stroke="#263238" stroke-width="1.83121" stroke-miterlimit="10" stroke-linecap="round" stroke-linejoin="round"/>
<defs>
<clipPath id="clip0_1271_26282">
<rect x="0.5" y="74.6477" width="225.352" height="225.352" rx="112.676" fill="white"/>
</clipPath>
</defs>
</svg>
