<svg width="160" height="160" viewBox="0 0 160 160" fill="none" xmlns="http://www.w3.org/2000/svg">
<path d="M128.785 119.709H98.6714L83.6359 137.972C81.3612 140.735 77.119 140.664 74.9377 137.825L61.0175 119.708H31.2146C17.8414 119.708 7 108.828 7 95.4074V44.301C7 30.8801 17.8414 20 31.2146 20H128.785C142.159 20 153 30.8801 153 44.301V95.4084C153 108.829 142.159 119.709 128.785 119.709Z" fill="#19435D"/>
<path d="M107.592 76.1563L84.0795 96.7195C82.1264 98.4269 79.1897 98.4269 77.2377 96.7195L53.7255 76.1563C30.1594 55.5963 59.5063 25.3968 80.6591 49.5756C99.035 23.8833 128.996 55.8013 107.592 76.1563Z" fill="#356588"/>
<path d="M107.592 76.1563L84.0795 96.7195C82.1264 98.4269 79.1897 98.4269 77.2377 96.7195L53.7255 76.1563C30.1594 55.5963 59.5063 25.3968 80.6591 49.5756C99.035 23.8833 128.996 55.8013 107.592 76.1563Z" fill="white" fill-opacity="0.1"/>
</svg>
