<svg width="160" height="160" viewBox="0 0 160 160" fill="none" xmlns="http://www.w3.org/2000/svg">
<path d="M130.899 86.0143C130.899 85.9971 130.899 85.9799 130.899 85.9627C130.899 85.9455 130.899 85.9283 130.899 85.9111C130.899 84.6041 130.839 83.3143 130.744 82.0331C130.736 81.9041 130.727 81.7665 130.71 81.6376C128.535 54.6548 105.963 33.4332 78.4213 33.4332C50.8796 33.4332 28.308 54.6548 26.1325 81.6376C26.1239 81.7751 26.1153 81.9041 26.0981 82.0417C26.0035 83.3229 25.9434 84.6127 25.9434 85.9111C25.9434 85.9283 25.9434 85.9455 25.9434 85.9541C25.9434 85.9713 25.9434 85.9885 25.9434 86.0057C25.9434 87.3127 26.0035 88.6025 26.0981 89.8837C26.1067 90.0127 26.1153 90.1417 26.1239 90.2793C28.2994 117.262 50.871 138.492 78.4127 138.492C105.954 138.492 128.526 117.271 130.702 90.2879C130.71 90.1589 130.719 90.0213 130.736 89.8923C130.83 88.6111 130.899 87.3213 130.899 86.0143Z" fill="#19435D"/>
<path d="M32.9254 68.8169C36.2617 68.9115 34.3614 70.5109 34.499 73.1507C34.671 76.53 37.3968 75.9624 39.2283 78.1809C39.813 78.886 39.8302 79.7631 40.3547 80.5198C41.12 81.6118 42.298 82.0159 43.3987 82.678C45.256 83.7873 46.7006 86.1347 48.6611 86.857C53.6483 88.6885 48.3945 80.8465 48.6611 79.2558C48.8417 78.1723 49.6586 78.1637 49.22 77.1061C48.8159 76.1344 47.8442 75.9194 47.0359 75.971C46.4598 76.014 45.7461 77.2522 45.0238 76.7191C44.0608 76.0054 45.6258 75.1026 45.7805 74.5953C46.3395 72.6519 43.5277 71.2933 42.4958 72.9271C42.0487 73.6408 42.7882 75.5841 41.4468 75.1542C40.5525 74.8618 39.8646 71.8179 39.9506 71.001C40.3203 67.5443 42.8484 66.8994 45.9095 66.8736C48.042 66.8564 49.134 67.2175 49.5898 69.522C50.0283 71.7319 49.048 72.4542 50.9828 73.6924C53.141 75.0682 54.6028 74.1051 53.5366 71.4911C52.9949 70.1841 51.3611 68.4386 51.9802 66.865C52.2124 66.2631 53.1496 65.8418 53.5366 65.3516C54.2589 64.4316 53.5538 64.5433 54.663 63.8125C55.7206 63.116 56.7869 63.3137 57.2168 61.6542C57.5866 60.2268 57.0362 60.1666 58.1197 59.0918C60.2866 56.9335 61.9203 59.6163 63.9152 58.55C63.4939 57.8622 63.0897 57.0883 62.8748 56.2972C63.3477 55.7125 68.249 56.0908 65.4114 53.7434C67.1741 52.6943 66.8388 55.6781 68.3006 55.3771C70.2697 54.9644 66.942 53.1844 66.8732 52.8577C66.5808 51.4733 68.7649 51.4647 69.5646 51.9892C70.7082 52.7545 70.2525 55.0074 72.084 54.672C72.2904 56.2886 74.3025 55.7297 74.3111 54.4657C74.3111 53.2876 72.9095 53.5456 72.8837 52.1268C72.8665 50.6134 74.0703 50.6908 73.1932 49.2892C72.6171 48.3606 71.3101 48.9195 71.5423 47.3029C70.8286 47.2513 70.1837 48.4982 69.9343 47.8189C69.298 46.0389 68.5241 42.3587 66.1165 44.9641C65.1276 44.173 64.7235 42.7714 63.3907 42.7886C61.6366 42.8144 61.8515 44.8437 60.8455 46.0303C60.3897 46.5634 59.6073 46.8816 59.1601 47.4491C58.6614 48.0768 59.3063 48.8679 58.1283 49.0829C56.1506 49.444 56.7525 46.8042 57.0105 45.8755C54.0525 45.5488 55.0929 43.0294 57.406 42.9692C58.2745 42.9434 59.5471 43.6141 60.5015 42.9348C61.3614 42.3243 61.069 41.0173 62.2901 41.0259C62.5738 44.1902 64.8267 41.4386 66.2885 41.1978C66.1595 41.559 66.2971 42.2211 66.1595 42.5822C70.863 43.3045 66.2111 36.8211 69.4012 35.6431C71.4821 34.8778 71.8518 36.7265 71.7744 38.3431C71.6799 40.1918 71.7831 40.9915 72.8923 42.2469C74.0703 43.5883 75.2139 45.0501 76.349 42.608C76.5639 42.1523 76.4349 40.7851 76.6929 40.4927C77.1486 39.9682 78.5588 40.0886 79.2123 39.6071C81.4566 37.9475 80.098 35.1186 78.1117 33.4418C71.7486 33.4848 65.6522 34.6542 60.02 36.7695C59.7105 37.1306 59.4611 37.509 59.3751 37.9131C58.7646 38.0249 58.1197 38.0163 57.6381 37.7326C47.2939 42.2039 38.678 49.9169 33.063 59.5819C33.063 59.8828 33.0802 60.1666 33.1146 60.4074C33.1318 60.5278 33.2178 60.6997 33.2608 60.8201C33.4929 61.4564 34.0261 63.0128 33.9831 64.122C33.8799 65.7988 32.6417 67.2348 32.9254 68.8169Z" fill="#356588"/>
<path d="M130.899 85.9198C130.899 84.6128 130.839 83.3229 130.744 82.0417C130.736 81.9127 130.727 81.7752 130.71 81.6462C130.237 75.7475 128.784 70.1153 126.514 64.9303C126.514 64.9303 126.514 64.9217 126.505 64.9217C126.196 64.208 125.86 63.5029 125.525 62.8064C125.499 62.7462 125.465 62.6946 125.439 62.6344C125.121 61.9895 124.785 61.3618 124.442 60.7341C124.39 60.6395 124.338 60.5449 124.287 60.4504C123.96 59.8656 123.625 59.2809 123.272 58.7048C123.203 58.5844 123.135 58.4727 123.057 58.3523C122.722 57.802 122.369 57.2688 122.008 56.7357C121.922 56.6067 121.836 56.4778 121.75 56.3488C121.398 55.8329 121.028 55.3169 120.658 54.8096C120.563 54.6806 120.469 54.5516 120.374 54.4227C119.996 53.9153 119.6 53.4252 119.205 52.9351C119.11 52.8147 119.016 52.6943 118.913 52.5739C118.844 52.488 118.766 52.402 118.698 52.316C117.373 52.2644 116.307 52.9093 115.679 54.4313C115.267 55.4287 115.387 58.6446 114.003 58.9284C112.524 59.2293 111.311 51.009 108.362 55.5577C107.975 56.1596 108.181 56.9679 107.872 57.5354C107.433 58.3437 107.089 58.3265 106.487 58.636C107.407 56.8475 104.897 52.7115 107.476 52.8319C108.061 51.5679 107.141 50.2265 107.511 48.9109C108.224 46.3399 108.775 48.6443 109.334 49.7965C109.66 50.4672 111.045 53.0469 112.24 52.1526C113.117 51.4991 112.025 48.7303 112.077 47.8532C113.151 48.0338 113.444 49.53 114.579 49.7965C115.413 49.9943 116.049 50.0201 116.574 49.9255C116.531 49.8739 116.488 49.831 116.436 49.7794C115.585 48.8765 114.699 48.008 113.788 47.1739C113.779 47.1739 113.779 47.1653 113.771 47.1653C112.825 46.2969 111.836 45.4628 110.83 44.6717C110.813 44.6545 110.787 44.6373 110.77 44.6201C109.781 43.8462 108.766 43.1153 107.726 42.4103C107.64 42.3501 107.545 42.2899 107.459 42.2297C105.361 40.8281 103.16 39.5813 100.864 38.4892C100.795 38.4548 100.726 38.4205 100.657 38.3861C99.5225 37.8529 98.3702 37.3628 97.1922 36.9157C97.089 36.8727 96.9859 36.8383 96.8827 36.8039C94.5094 35.9096 92.0502 35.1787 89.5222 34.637C89.462 34.6198 89.3932 34.6112 89.333 34.594C89.419 34.938 89.4448 35.3593 89.3416 35.987C89.161 37.079 88.6021 36.8813 89.3416 37.9647C89.9263 38.8246 91.5257 39.0052 92.2566 39.7533C92.7295 40.2348 92.8499 40.8195 93.3314 41.3268C93.9505 41.9717 94.8878 42.1523 95.3779 42.9864C95.5929 43.3561 95.8938 43.6657 96.0486 44.044C94.9394 44.2676 93.2368 42.522 92.6005 43.5281C91.904 44.6201 93.8129 45.7982 94.0795 46.5806C94.3976 47.5437 93.4604 49.1602 95.1629 49.2806C96.7451 49.401 96.1862 47.5781 96.1002 46.6064C97.8887 46.3915 98.1037 47.8876 98.8432 48.8679C99.8406 50.1835 101.234 49.8739 102.248 50.88C104.338 52.9609 101.904 52.4106 100.984 52.4622C100.124 52.5137 99.7116 52.2386 99.0151 53.0555C98.1295 54.1045 98.6712 53.5284 99.1183 54.5258C99.4967 55.3857 100.408 58.0771 100.976 58.5844C101.388 58.9542 104.501 59.4529 105.49 59.3755C104.639 60.1322 104.217 60.9921 103.34 62.0411C101.629 64.0876 102.498 63.4943 102.807 65.8074C103.065 67.8023 101.457 68.43 100.933 70.1153C100.331 72.0586 101.827 74.3373 102.059 76.0828C102.283 77.7166 103.091 77.9487 103.753 79.23C104.269 80.2188 104.209 81.2421 104.94 82.3427C105.98 83.9163 108.594 86.728 110.787 86.4701C112.317 86.2895 111.698 84.9653 112.636 84.2946C113.624 83.5981 115.086 84.7159 114.992 82.721C115.576 82.7382 117.038 83.8045 117.511 83.6153C118.379 83.2713 118.035 81.6806 118.078 80.9239C120.383 80.537 119.979 83.6927 119.463 84.8449C119.205 85.4124 118.457 86.2379 118.422 86.8312C118.354 87.9061 119.05 87.6051 119.523 88.6198C120.366 90.4083 119.463 96.2812 118.465 97.8634C117.537 99.3424 115.181 99.9357 115.533 102.128C115.748 103.487 117.434 104.063 117.752 105.456C118.147 107.159 117.244 108.835 118.01 110.589C118.87 112.55 119.549 114.373 120.314 116.488C120.409 116.755 120.521 116.97 120.632 117.202C123.9 112.782 126.488 107.838 128.251 102.515C128.242 102.309 128.225 102.103 128.225 101.896C128.225 101.87 128.225 101.845 128.225 101.827C128.294 99.9873 128.999 99.2908 129.566 97.6828C129.592 97.614 129.609 97.5366 129.635 97.4678C130.151 95.1376 130.521 92.7471 130.719 90.3137C130.727 90.1847 130.736 90.0471 130.753 89.9182C130.848 88.6455 130.908 87.3643 130.908 86.0659C130.908 86.0573 130.908 86.0487 130.908 86.0315C130.908 86.0229 130.908 86.0057 130.908 85.9971C130.891 85.9541 130.899 85.937 130.899 85.9198Z" fill="#356588"/>
<path d="M88.0777 97.0723C87.2178 96.7111 86.014 97.3904 85.1713 96.9175C83.8643 96.1694 84.578 95.5675 82.9959 95.2493C82.007 95.0516 81.0869 95.5331 80.1239 95.3869C79.1178 95.2321 78.0688 93.9079 76.8134 93.9939C74.8701 92.4204 74.8185 90.4512 73.4943 88.4219C72.0755 86.2293 71.1984 86.9344 69.1863 86.986C67.2 87.0376 65.8672 85.0942 63.8981 84.6471C63.1586 84.4751 62.5567 84.5611 61.8602 84.5955C60.9316 84.6471 60.7166 84.7503 59.5386 84.5181C58.9367 84.3978 57.9564 84.5009 57.4061 84.329C57.3459 84.3118 56.7784 84.3892 56.5892 84.3376C56.2453 84.2516 56.4774 83.4175 55.9185 83.3745C55.222 83.3143 51.5933 85.2146 51.3182 85.7306C50.6733 86.9516 51.9373 87.4503 52.0663 88.4219C52.2125 89.5398 51.7739 89.6688 51.1978 90.4512C49.1599 93.1856 46.9759 97.4678 46.2106 100.77C45.7806 102.618 46.3309 103.083 47.079 104.605C47.9647 106.393 47.8357 108.345 48.6698 110.142C49.65 112.249 50.957 111.948 52.7198 113.126C54.2933 114.184 54.4051 115.56 54.6373 117.314C54.8093 118.664 55.0071 119.971 55.0243 121.355C55.0329 122.086 54.4739 122.37 54.7749 123.101C55.1876 124.107 56.615 124.588 57.3631 125.328C58.094 126.059 58.6357 126.961 59.4182 127.692C61.3271 129.489 63.5112 131.054 64.3367 133.677C64.6892 134.803 64.5086 135.672 64.328 136.583C66.0048 137.048 67.7074 137.435 69.4443 137.736C69.7023 137.779 69.8828 134.502 69.9946 134.167C70.4417 132.852 71.1898 132.628 72.1443 131.613C73.1847 130.521 73.0557 129.747 73.4427 128.286C74.4057 124.64 76.2373 124.322 79.2726 122.757C81.7662 121.475 83.7955 120.117 83.0647 117.322C82.2478 114.175 83.744 112.645 85.7045 110.271C87.7338 107.812 89.0408 104.734 89.4793 101.569C89.763 99.4971 89.5137 97.6656 88.0777 97.0723Z" fill="#356588"/>
<path d="M99.4186 51.2772C99.4186 52.438 98.4761 53.3764 97.3193 53.3764C96.1584 53.3764 95.22 52.434 95.22 51.2772C95.22 50.1163 96.1624 49.1779 97.3193 49.1779C98.4761 49.1779 99.4186 50.1163 99.4186 51.2772Z" fill="#19435D"/>
<path d="M131.546 63.2851L110.965 74.0686L132.327 68.6738L131.546 63.2851Z" fill="white"/>
<path d="M131.546 63.2851L110.965 74.0686L132.327 68.6738L131.546 63.2851Z" fill="#356588" fill-opacity="0.08"/>
<path d="M142.822 74.3875C148.995 73.3913 153.193 67.5791 152.196 61.4056C151.2 55.2321 145.388 51.0351 139.214 52.0313C133.041 53.0275 128.844 58.8396 129.84 65.0131C130.836 71.1866 136.649 75.3837 142.822 74.3875Z" fill="white"/>
<path d="M142.822 74.3875C148.995 73.3913 153.193 67.5791 152.196 61.4056C151.2 55.2321 145.388 51.0351 139.214 52.0313C133.041 53.0275 128.844 58.8396 129.84 65.0131C130.836 71.1866 136.649 75.3837 142.822 74.3875Z" fill="#356588" fill-opacity="0.08"/>
<path d="M144.221 59.8559C144.221 61.6728 142.788 63.1487 141.027 63.1487C139.26 63.1487 137.833 61.6728 137.833 59.8559C137.833 58.039 139.266 56.5632 141.027 56.5632C142.794 56.5632 144.221 58.039 144.221 59.8559Z" fill="#19435D"/>
<path d="M141.083 63.6509H140.971C137.84 63.6509 135.297 66.1934 135.297 69.3249V72.9401C136.984 73.9384 138.925 74.5461 141.027 74.5461C143.129 74.5461 145.07 73.9384 146.757 72.9401V69.3249C146.757 66.1872 144.214 63.6509 141.083 63.6509Z" fill="#19435D"/>
<path d="M34.8476 118.708L68.2478 98.5112L33.1499 113.419L34.8476 118.708Z" fill="white"/>
<path d="M34.8476 118.708L68.2478 98.5112L33.1499 113.419L34.8476 118.708Z" fill="#356588" fill-opacity="0.08"/>
<path d="M35.9501 116.375C35.9501 123.193 30.424 128.726 23.5992 128.726C16.7744 128.726 11.2483 123.199 11.2483 116.375C11.2483 109.557 16.7744 104.024 23.5992 104.024C30.424 104.024 35.9501 109.557 35.9501 116.375Z" fill="white"/>
<path d="M35.9501 116.375C35.9501 123.193 30.424 128.726 23.5992 128.726C16.7744 128.726 11.2483 123.199 11.2483 116.375C11.2483 109.557 16.7744 104.024 23.5992 104.024C30.424 104.024 35.9501 109.557 35.9501 116.375Z" fill="#356588" fill-opacity="0.08"/>
<path d="M27.0826 112.702C27.0826 114.684 25.5201 116.294 23.5991 116.294C21.6714 116.294 20.1157 114.684 20.1157 112.702C20.1157 110.72 21.6782 109.11 23.5991 109.11C25.5268 109.11 27.0826 110.72 27.0826 112.702Z" fill="#19435D"/>
<path d="M23.6601 116.841H23.5383C20.1226 116.841 17.3494 119.615 17.3494 123.03V126.974C19.1891 128.063 21.3062 128.726 23.5992 128.726C25.8922 128.726 28.0093 128.063 29.8491 126.974V123.03C29.8491 119.608 27.0826 116.841 23.6601 116.841Z" fill="#19435D"/>
<path d="M96.4492 122.901L74.2271 113.206L93.7695 126.082C94.5828 124.956 95.4761 123.882 96.4492 122.901Z" fill="white"/>
<path d="M96.4492 122.901L74.2271 113.206L93.7695 126.082C94.5828 124.956 95.4761 123.882 96.4492 122.901Z" fill="#356588" fill-opacity="0.08"/>
<path d="M103.871 141.296C111.195 141.296 117.132 135.359 117.132 128.036C117.132 120.712 111.195 114.775 103.871 114.775C96.5474 114.775 90.6104 120.712 90.6104 128.036C90.6104 135.359 96.5474 141.296 103.871 141.296Z" fill="white"/>
<path d="M103.871 141.296C111.195 141.296 117.132 135.359 117.132 128.036C117.132 120.712 111.195 114.775 103.871 114.775C96.5474 114.775 90.6104 120.712 90.6104 128.036C90.6104 135.359 96.5474 141.296 103.871 141.296Z" fill="#356588" fill-opacity="0.08"/>
<path d="M103.936 128.529H103.806C100.138 128.529 97.1609 131.507 97.1609 135.174V139.408C99.1362 140.577 101.409 141.289 103.871 141.289C106.333 141.289 108.606 140.577 110.581 139.408V135.174C110.581 131.507 107.611 128.529 103.936 128.529Z" fill="#356588"/>
<path d="M107.611 124.092C107.611 126.22 105.934 127.948 103.871 127.948C101.801 127.948 100.131 126.22 100.131 124.092C100.131 121.964 101.809 120.236 103.871 120.236C105.941 120.229 107.611 121.957 107.611 124.092Z" fill="#356588"/>
<path d="M117.89 32.8231L104.667 42.7453L119.665 36.609L117.89 32.8231Z" fill="white"/>
<path d="M117.89 32.8231L104.667 42.7453L119.665 36.609L117.89 32.8231Z" fill="#356588" fill-opacity="0.08"/>
<path d="M138.255 30.0609C138.255 36.1669 133.306 41.1219 127.194 41.1219C121.083 41.1219 116.134 36.1729 116.134 30.0609C116.134 23.955 121.089 19 127.194 19C133.3 19 138.255 23.949 138.255 30.0609Z" fill="white"/>
<path d="M138.255 30.0609C138.255 36.1669 133.306 41.1219 127.194 41.1219C121.083 41.1219 116.134 36.1729 116.134 30.0609C116.134 23.955 121.089 19 127.194 19C133.3 19 138.255 23.949 138.255 30.0609Z" fill="#356588" fill-opacity="0.08"/>
<path d="M130.314 26.7717C130.314 28.5526 128.915 29.9882 127.195 29.9882C125.468 29.9882 124.075 28.5465 124.075 26.7717C124.075 24.9969 125.474 23.5552 127.195 23.5552C128.921 23.5491 130.314 24.9908 130.314 26.7717Z" fill="#356588"/>
<path d="M127.249 30.4728H127.14C124.081 30.4728 121.597 32.9564 121.597 36.0154V39.5469C123.245 40.5222 125.141 41.1158 127.195 41.1158C129.248 41.1158 131.144 40.5222 132.792 39.5469V36.0154C132.792 32.9564 130.314 30.4728 127.249 30.4728Z" fill="#356588"/>
<path d="M56.4145 53.2177L28.3904 50.1965V44.1475L56.4145 53.2177Z" fill="white"/>
<path d="M56.4145 53.2177L28.3904 50.1965V44.1475L56.4145 53.2177Z" fill="#356588" fill-opacity="0.08"/>
<path d="M22.0212 55.285C28.415 54.0578 32.6034 47.8797 31.3762 41.4858C30.149 35.092 23.9709 30.9036 17.5771 32.1308C11.1832 33.358 6.99485 39.5361 8.22205 45.9299C9.44926 52.3238 15.6273 56.5122 22.0212 55.285Z" fill="white"/>
<path d="M22.0212 55.285C28.415 54.0578 32.6034 47.8797 31.3762 41.4858C30.149 35.092 23.9709 30.9036 17.5771 32.1308C11.1832 33.358 6.99485 39.5361 8.22205 45.9299C9.44926 52.3238 15.6273 56.5122 22.0212 55.285Z" fill="#356588" fill-opacity="0.08"/>
<path d="M23.1159 40.2031C23.1159 42.0946 21.6246 43.6311 19.7912 43.6311C17.9514 43.6311 16.4666 42.0946 16.4666 40.2031C16.4666 38.3116 17.9578 36.7751 19.7912 36.7751C21.6311 36.7751 23.1159 38.3116 23.1159 40.2031Z" fill="#356588"/>
<path d="M19.8493 44.154H19.7331C16.473 44.154 13.8262 46.8008 13.8262 50.0609V53.8246C15.5821 54.8639 17.6027 55.4966 19.7912 55.4966C21.9797 55.4966 24.0003 54.8639 25.7563 53.8246V50.0609C25.7563 46.7943 23.1094 44.154 19.8493 44.154Z" fill="#356588"/>
</svg>
