<svg width="75" height="75" viewBox="0 0 75 75" fill="none" xmlns="http://www.w3.org/2000/svg">
<rect width="75" height="75" rx="10" fill="#F4CC25"/>
<path fill-rule="evenodd" clip-rule="evenodd" d="M28.3229 49.3618L20.103 40.9795L22.4226 38.66L28.6082 42.5259L46.3917 23.9692L48.7113 25.5156L30.6572 49.2164C30.3851 49.5735 29.9713 49.7947 29.5232 49.8226C29.0752 49.8505 28.6371 49.6823 28.3229 49.3618Z" fill="white"/>
<path opacity="0.497489" fill-rule="evenodd" clip-rule="evenodd" d="M54.8967 30.9277H51.0308C50.6037 30.9277 50.2576 30.5816 50.2576 30.1545C50.2576 29.7275 50.6037 29.3813 51.0308 29.3813H54.8967C55.3238 29.3813 55.6699 29.7275 55.6699 30.1545C55.6699 30.5816 55.3238 30.9277 54.8967 30.9277Z" fill="white"/>
<path opacity="0.497489" fill-rule="evenodd" clip-rule="evenodd" d="M54.8968 37.8867H45.6184C45.1914 37.8867 44.8452 37.5406 44.8452 37.1135C44.8452 36.6865 45.1914 36.3403 45.6184 36.3403H54.8968C55.3238 36.3403 55.67 36.6865 55.67 37.1135C55.67 37.5406 55.3238 37.8867 54.8968 37.8867Z" fill="white"/>
<path opacity="0.497489" fill-rule="evenodd" clip-rule="evenodd" d="M54.8968 44.8455H40.2061C39.779 44.8455 39.4329 44.4993 39.4329 44.0723C39.4329 43.6452 39.779 43.2991 40.2061 43.2991H54.8968C55.3238 43.2991 55.67 43.6452 55.67 44.0723C55.67 44.4993 55.3238 44.8455 54.8968 44.8455Z" fill="white"/>
<path opacity="0.497489" fill-rule="evenodd" clip-rule="evenodd" d="M54.8968 51.8044H34.7937C34.3667 51.8044 34.0205 51.4583 34.0205 51.0313C34.0205 50.6042 34.3667 50.2581 34.7937 50.2581H54.8968C55.3238 50.2581 55.67 50.6042 55.67 51.0313C55.67 51.4583 55.3238 51.8044 54.8968 51.8044Z" fill="white"/>
</svg>
