<svg width="260" height="43" viewBox="0 0 260 43" fill="none" xmlns="http://www.w3.org/2000/svg">
<path d="M48.1484 11.0708H63.3848V13.3813H50.5601V21.2593H60.8167V23.5698H50.5601V34.0791H48.1484V11.0708ZM67.8791 34.0791V11.0708H70.2907V34.0791H67.8791ZM92.9018 11.0708H95.2981V34.0791H93.2155L79.4351 15.5153V34.0791H77.0241V11.0708H79.1067L92.9018 29.6507V11.0708ZM114.23 25.3668L109.908 14.5205L105.57 25.3668H114.23ZM115.201 27.6772H104.615L102.047 34.0791H99.4787L108.78 11.0708H111.019L120.321 34.0791H117.769L115.201 27.6772ZM140.381 11.0708H142.776V34.0791H140.694L126.914 15.5153V34.0791H124.502V11.0708H126.585L140.381 29.6507V11.0708ZM151.452 30.9504C149.207 28.6506 148.085 25.8588 148.085 22.575C148.085 19.2912 149.207 16.4993 151.452 14.1996C153.696 11.8998 156.421 10.75 159.626 10.75C160.763 10.75 161.854 10.9157 162.898 11.2474C163.942 11.5683 164.804 11.9586 165.482 12.4186C166.171 12.8786 166.771 13.3439 167.283 13.8145C167.805 14.2852 168.181 14.6863 168.41 15.0179L168.771 15.5153L167.158 16.9914C167.095 16.8845 167.001 16.7454 166.875 16.5743C166.75 16.3924 166.458 16.0768 165.999 15.6276C165.539 15.1783 165.038 14.7825 164.496 14.4403C163.963 14.0873 163.259 13.7664 162.382 13.4776C161.504 13.1888 160.586 13.0444 159.626 13.0444C157.057 13.0444 154.891 13.9589 153.127 15.7881C151.363 17.6172 150.481 19.8795 150.481 22.575C150.481 25.2705 151.363 27.5328 153.127 29.3619C154.891 31.191 157.057 32.1056 159.626 32.1056C160.586 32.1056 161.504 31.9719 162.382 31.7045C163.259 31.4263 163.984 31.0948 164.558 30.7097C165.143 30.3246 165.654 29.9449 166.093 29.5705C166.531 29.1854 166.845 28.8485 167.032 28.5597L167.329 28.1586L168.927 29.6507C168.843 29.7791 168.713 29.9502 168.535 30.1642C168.368 30.3674 167.988 30.7418 167.392 31.2873C166.808 31.8328 166.186 32.3195 165.529 32.7474C164.871 33.1753 164.005 33.5603 162.929 33.9026C161.865 34.2342 160.763 34.4 159.626 34.4C156.421 34.4 153.696 33.2501 151.452 30.9504ZM175.989 31.7847H189.299V34.0791H173.578V11.0708H188.971V13.3813H175.989V20.9384H186.403V23.2328H175.989V31.7847ZM212.553 21.7567C212.658 21.7995 212.788 21.8583 212.945 21.9332C213.101 22.0081 213.393 22.2113 213.822 22.5429C214.249 22.8745 214.625 23.2381 214.949 23.6339C215.273 24.0297 215.565 24.5806 215.826 25.2866C216.097 25.9818 216.233 26.7199 216.233 27.5007C216.233 29.4047 215.596 30.9771 214.323 32.2179C213.049 33.4587 211.389 34.0791 209.343 34.0791H200.198V11.0708H208.858C210.674 11.0708 212.167 11.6431 213.336 12.7876C214.516 13.9215 215.106 15.3228 215.106 16.9914C215.106 17.6653 215.022 18.291 214.855 18.8687C214.688 19.4355 214.474 19.8901 214.213 20.2325C213.952 20.5747 213.691 20.8689 213.43 21.1149C213.18 21.3502 212.971 21.5107 212.804 21.5963L212.553 21.7567ZM202.609 31.7847H209.343C210.69 31.7847 211.77 31.3835 212.584 30.5813C213.409 29.7791 213.822 28.7522 213.822 27.5007C213.822 26.2278 213.404 25.1475 212.569 24.2597C211.744 23.3612 210.669 22.9119 209.343 22.9119H202.609V31.7847ZM208.858 13.3813H202.609V20.7459H208.858C210.058 20.7459 210.998 20.4143 211.676 19.7511C212.365 19.0772 212.709 18.1573 212.709 16.9914C212.709 15.9217 212.365 15.0553 211.676 14.3921C210.998 13.7183 210.058 13.3813 208.858 13.3813ZM233.207 25.3668L228.886 14.5205L224.548 25.3668H233.207ZM234.178 27.6772H223.593L221.025 34.0791H218.456L227.758 11.0708H229.998L239.299 34.0791H236.746L234.178 27.6772ZM243.48 11.0708H252.452C254.436 11.0708 256.08 11.7287 257.385 13.0444C258.701 14.36 259.358 16.002 259.358 17.9701C259.358 18.9542 259.197 19.8527 258.873 20.6656C258.549 21.4786 258.163 22.115 257.714 22.575C257.265 23.0349 256.811 23.4254 256.351 23.7462C255.892 24.0671 255.506 24.281 255.193 24.388L254.707 24.5485L260 34.0791H257.276L252.296 24.8854H245.891V34.0791H243.48V11.0708ZM252.452 13.3813H245.891V22.575H252.452C253.82 22.575 254.911 22.1632 255.725 21.3395C256.539 20.5052 256.947 19.3874 256.947 17.9862C256.947 16.5743 256.539 15.4564 255.725 14.6328C254.911 13.7985 253.82 13.3813 252.452 13.3813Z" fill="#3398DC"/>
<rect y="17.2002" width="6.41975" height="25.8" fill="#3398DC"/>
<rect x="10.6995" y="8.6001" width="6.41975" height="25.8" fill="#3398DC"/>
<rect x="21.3992" width="6.41975" height="25.8" fill="#3398DC"/>
</svg>
