<svg width="25" height="25" viewBox="0 0 25 25" fill="none" xmlns="http://www.w3.org/2000/svg">
<path fill-rule="evenodd" clip-rule="evenodd" d="M11.4896 5.76961V21.6735C11.4896 22.237 11.9465 22.6939 12.51 22.6939C13.0736 22.6939 13.5304 22.237 13.5304 21.6735V5.76961L17.911 10.1501C18.3094 10.5486 18.9555 10.5486 19.354 10.1501C19.7525 9.75162 19.7525 9.10553 19.354 8.70703L13.232 2.58497C13.2318 2.58484 13.2317 2.58471 13.2316 2.58458C13.2305 2.58347 13.2294 2.58237 13.2282 2.58126C13.0439 2.39856 12.7901 2.28571 12.51 2.28571C12.3717 2.28571 12.2398 2.31325 12.1194 2.36314C12.0005 2.41237 11.8889 2.48508 11.7918 2.58126C11.7907 2.58237 11.7896 2.58347 11.7885 2.58458C11.7884 2.58471 11.7882 2.58484 11.7881 2.58497L5.66606 8.70703C5.26756 9.10553 5.26756 9.75162 5.66606 10.1501C6.06455 10.5486 6.71064 10.5486 7.10913 10.1501L11.4896 5.76961Z" fill="white"/>
</svg>