<svg width="80" height="70" viewBox="0 0 80 70" fill="none" xmlns="http://www.w3.org/2000/svg">
<path d="M45.0761 19.0944C49.3496 22.1641 59.7309 30.1025 65.3118 38.0799C66.1107 39.2164 66.7636 40.405 67.2705 41.6268C73.9815 36.9244 77.5916 32.1646 76.4151 28.5971C76.1029 27.6781 75.4785 26.8765 74.6003 26.2117C77.3128 27.1502 79.108 28.5579 79.752 30.4545C81.1397 34.6595 76.6152 40.3202 68.4138 45.7586C68.5313 46.5653 68.5901 47.377 68.5901 48.1886V48.2472C68.5901 48.7165 68.5706 49.1662 68.5315 49.6355C68.5315 49.6746 68.512 49.7332 68.512 49.7919C68.473 50.2025 68.434 50.5935 68.3559 51.0042L68.2974 51.2974C68.1218 52.1968 67.8876 53.0963 67.5558 53.9957C67.5169 54.0738 67.4779 54.1714 67.4389 54.2691L67.4388 54.2695C67.2827 54.6409 67.1461 54.9929 66.9704 55.3644C66.9314 55.4426 66.8924 55.5404 66.8534 55.6186L66.8531 55.6192C66.6385 56.0491 66.424 56.4791 66.1704 56.9091C66.1509 56.9482 66.1118 57.0068 66.0923 57.0459C65.8777 57.4174 65.6435 57.7889 65.3898 58.1604C65.3313 58.2582 65.2532 58.3755 65.1752 58.4732C64.9215 58.8252 64.6483 59.1967 64.3556 59.5486C64.3166 59.5877 64.2776 59.6464 64.2385 59.6855C63.9068 60.0765 63.5556 60.4676 63.1848 60.8587L62.9116 61.1324L62.9109 61.1331C62.5989 61.4457 62.3064 61.7388 61.9749 62.0318C61.8774 62.1296 61.7603 62.2273 61.6627 62.3251C61.2529 62.6966 60.8236 63.0485 60.3748 63.4005C60.3358 63.4396 60.2968 63.4592 60.2577 63.4983C59.848 63.8307 59.4187 64.1239 58.9698 64.4367C58.8332 64.5345 58.6966 64.6127 58.56 64.7105C58.1502 64.9842 57.7405 65.2384 57.3112 65.4926C57.1941 65.5513 57.0965 65.6295 56.9794 65.6881C56.4527 66.0009 55.887 66.2941 55.3213 66.5873L55.3208 66.5875C55.1842 66.6462 55.0476 66.7244 54.911 66.7831C54.4427 66.9982 53.9743 67.2132 53.4865 67.4283L52.9596 67.663C52.3352 67.9171 51.6912 68.1713 51.0278 68.4059C41.6417 71.7689 30.2652 69.5204 22.6354 64.3781C36.2257 62.5416 48.082 57.484 58.3017 51.4291C57.5797 51.8343 48.7786 55.302 44.4127 57.0069C22.4598 64.3 2.6924 64.2023 0.253192 56.8114C-0.39076 54.8952 0.214175 52.6858 1.83381 50.3199C1.52159 51.3953 1.48256 52.4121 1.79478 53.331C2.95985 56.8332 8.5064 58.4961 16.4546 58.3305C14.2909 55.031 13.4598 51.2656 14.6347 47.3088C14.8104 46.7417 15.0055 46.1551 15.2201 45.5685C15.2787 45.3926 15.3372 45.2362 15.3958 45.0797C15.5714 44.6105 15.7665 44.1412 15.9616 43.6719C16.0202 43.5351 16.0592 43.4178 16.1178 43.3004C16.3714 42.7334 16.6446 42.1664 16.9373 41.5994C17.0154 41.4821 17.0739 41.3452 17.152 41.2083C17.3862 40.7586 17.6203 40.3089 17.874 39.8592C17.9521 39.7224 18.0301 39.5659 18.1277 39.4095C18.4594 38.862 18.7716 38.3146 19.1229 37.7671C19.1424 37.728 19.1814 37.6889 19.2009 37.6498L19.2014 37.6491C19.533 37.141 19.8646 36.6328 20.1961 36.1442C20.2937 35.9878 20.4108 35.851 20.5083 35.6945L21.445 34.4041C21.5231 34.3063 21.5816 34.2085 21.6597 34.1108C22.0304 33.6024 22.4207 33.094 22.811 32.6052C22.9085 32.4879 23.0061 32.351 23.1037 32.2337C23.4159 31.8426 23.7281 31.4712 24.0403 31.0801C24.1379 30.9628 24.255 30.8259 24.3525 30.7086C24.7428 30.2393 25.1526 29.7701 25.5429 29.3204C25.6014 29.2813 25.6405 29.2226 25.699 29.164C26.0651 28.7586 26.4121 28.3722 26.7589 27.9861L26.7723 27.9713C26.8893 27.8344 26.9869 27.7171 27.104 27.5998C27.4552 27.2283 27.787 26.8763 28.1187 26.5244L28.2943 26.3484C28.6846 25.9574 29.0749 25.5468 29.4456 25.1753L29.7383 24.882C30.031 24.5691 30.3237 24.2758 30.6164 24.0021L30.8701 23.7479C31.2214 23.396 31.5726 23.0636 31.9044 22.7508C31.9629 22.7117 32.0019 22.653 32.0604 22.6139C32.3487 22.3443 32.618 22.0938 32.887 21.8435L32.8995 21.8318L33.0166 21.7145C33.5045 21.2648 33.9533 20.8737 34.3631 20.5022C34.4216 20.4435 34.4606 20.4044 34.5192 20.3653C34.6168 20.2676 34.7143 20.1894 34.8119 20.1112C34.9094 20.0329 34.9875 19.9547 35.0851 19.8765L36.4901 18.6838L36.5096 18.6642C36.451 18.4883 36.4315 18.2927 36.4706 18.0777C36.4901 17.9212 36.5486 17.7648 36.6071 17.6084C36.6071 17.5693 36.6266 17.5303 36.6461 17.4912L36.6462 17.4911C36.7047 17.3542 36.7828 17.2173 36.8608 17.0805C36.8803 17.0609 36.8998 17.0219 36.9194 17.0023C36.9779 16.9436 37.0169 16.8654 37.0755 16.8068C37.056 16.7481 37.0169 16.709 36.9974 16.6503C36.9389 16.533 36.8999 16.4157 36.8608 16.318C36.8608 16.2788 36.8413 16.2593 36.8413 16.2202L36.8413 16.22C36.8218 16.1418 36.8023 16.0637 36.8023 15.9855V15.9074C36.7828 15.8096 36.7828 15.7314 36.8023 15.6336C36.8218 15.6141 36.8218 15.5945 36.8218 15.575V15.5749L36.8218 15.5749C36.8413 15.4967 36.8608 15.4185 36.8803 15.3599C36.8803 15.3208 36.8999 15.3012 36.8999 15.2817C36.9194 15.2035 36.9584 15.1252 36.9974 15.0666L37.0169 15.047C37.056 14.9688 37.1145 14.9101 37.173 14.8319L37.2316 14.7733C37.2706 14.7146 37.3292 14.656 37.3877 14.6169L37.4462 14.5582C37.5048 14.4996 37.6023 14.4409 37.6804 14.3823C37.6999 14.3823 37.6999 14.3627 37.7194 14.3627C37.7194 14.3627 37.739 14.3431 37.7585 14.3431C37.7194 14.2845 37.6609 14.2063 37.6219 14.1281C37.4462 13.8543 37.2511 13.5806 37.0364 13.3068C36.0803 12.0946 34.8704 11.1169 33.6215 10.1784L33.5589 10.1308C32.3687 9.22696 31.1477 8.29969 30.2847 7.08915C29.4651 5.93555 29.0358 4.54733 29.309 3.19821V3.19835C29.309 3.27649 29.309 3.33509 29.3285 3.41326C29.3285 3.23728 29.3285 3.04174 29.3676 2.84622C29.8554 0.441253 31.0653 4.35177 33.4264 2.6116C35.7876 0.871419 36.4901 -1.57266 40.627 1.37978C44.7639 4.31266 45.3298 3.66743 46.4811 2.6116C47.6324 1.55576 49.5447 1.57535 49.974 2.70939C50.7546 3.94121 50.5009 5.60314 49.7399 6.83495C49.6423 6.99137 49.5447 7.14782 49.4472 7.28468C49.2715 7.51931 49.0764 7.73439 48.8813 7.94946C48.8618 7.98857 48.8227 8.0081 48.8032 8.0472L48.802 8.04843C48.6072 8.24354 48.4125 8.4387 48.1983 8.63381C48.1592 8.65337 48.1202 8.69245 48.0812 8.73155C47.8862 8.92698 47.6716 9.10287 47.4571 9.27875L47.4567 9.27902C47.4177 9.31813 47.3592 9.35723 47.3202 9.39633C47.1055 9.5723 46.9104 9.72874 46.6957 9.90472C45.5834 10.8237 44.4516 11.8013 43.8077 13.1113C43.7296 13.2677 43.6516 13.4633 43.5735 13.6393C43.515 13.7566 43.476 13.8543 43.4369 13.9521C43.7296 14.1085 43.9833 14.2845 44.198 14.5387C44.5102 14.9297 44.6858 15.4381 44.5687 15.9074C44.5492 15.9465 44.5492 15.966 44.5297 16.0051C45.1932 16.8263 45.3688 18.0581 44.8224 18.9184C44.92 18.9771 44.998 19.0357 45.0761 19.0944Z" fill="url(#paint0_linear_321_16310)"/>
<path d="M36.3238 48.3796L36.5959 47.0674C35.2388 46.7292 33.9525 46.1256 33.0784 45.5061C32.7665 45.2849 32.6709 44.8633 32.8446 44.5224L33.4313 43.3693C33.6465 42.9465 34.1822 42.8155 34.574 43.0839C35.4444 43.6815 36.5564 44.2412 37.826 44.5042C39.1439 44.7775 40.2187 44.5344 40.4089 43.6182C40.58 42.7916 39.9229 42.1434 38.1931 41.2725C35.7277 40.0164 34.0877 38.4883 34.5646 36.1874C34.9948 34.1101 36.8427 32.8389 39.5659 32.9605L39.8381 31.6476C39.9257 31.2249 40.3392 30.9538 40.7612 31.0412L41.5319 31.2013C41.9546 31.2888 42.2257 31.7023 42.1383 32.1243L41.8939 33.3026C43.1498 33.6156 44.0259 34.0232 44.7045 34.4319C45.0522 34.641 45.1728 35.0868 44.9893 35.449L44.4482 36.5159C44.2399 36.9273 43.7246 37.0694 43.3349 36.8226C42.7144 36.4285 41.8176 35.9659 40.5799 35.7096C39.0165 35.3857 38.4353 35.9408 38.315 36.5212C38.1668 37.2363 39.0034 37.9219 40.9059 38.9685C43.6291 40.4412 44.5854 41.8973 44.1362 44.0642C43.7242 46.0524 41.88 47.5338 38.9285 47.3878L38.6239 48.8563C38.5364 49.279 38.1228 49.5501 37.7009 49.4627L36.9294 49.3025C36.5074 49.2151 36.2364 48.8016 36.3238 48.3796Z" fill="white"/>
<defs>
<linearGradient id="paint0_linear_321_16310" x1="40.2097" y1="43.9059" x2="48.0652" y2="141.425" gradientUnits="userSpaceOnUse">
<stop stop-color="#50E7B7"/>
<stop offset="0.9964" stop-color="#323992"/>
</linearGradient>
</defs>
</svg>
