<svg width="110" height="90" viewBox="0 0 110 90" fill="none" xmlns="http://www.w3.org/2000/svg">
<g clip-path="url(#clip0_2626_28214)">
<path d="M103.537 65.5703L83.1983 56.2414L62.3361 36.4343L62.3082 36.4036L41.8355 13.9328L20.6597 16.3319L1.6167 1.99045L2.97602 0.177872L21.2993 13.9775L42.728 11.5498L63.9511 34.8452L84.4817 54.3367L104.478 63.5092L103.537 65.5703Z" fill="#F2543C"/>
<path d="M104.074 61.529L106.851 66.2671L101.643 66.3635L104.074 61.529Z" fill="#F2543C"/>
<path d="M10.7977 11.0121H0.113281V89.5192H10.7977V11.0121Z" fill="#F2543C"/>
<path d="M35.1973 25.5889H24.5129V89.5193H35.1973V25.5889Z" fill="#F2543C"/>
<path d="M59.5962 38.7098H48.9119V89.5192H59.5962V38.7098Z" fill="#F2543C"/>
<path d="M48.912 82.9385C48.8842 82.9383 48.8576 82.9272 48.8379 82.9074C48.8182 82.8877 48.8071 82.861 48.8069 82.8331V46.5578C48.8098 46.5321 48.8221 46.5084 48.8414 46.4912C48.8606 46.474 48.8855 46.4645 48.9113 46.4645C48.9371 46.4645 48.962 46.474 48.9813 46.4912C49.0005 46.5084 49.0128 46.5321 49.0158 46.5578V82.8331C49.0158 82.8608 49.0049 82.8874 48.9855 82.9072C48.9661 82.9269 48.9397 82.9382 48.912 82.9385Z" fill="white" fill-opacity="0.4"/>
<path d="M83.9961 60.74H73.3118V89.5192H83.9961V60.74Z" fill="#F2543C"/>
<path d="M108.396 76.147H97.7119V89.5193H108.396V76.147Z" fill="#F2543C"/>
<path d="M59.5966 83.9705C59.5827 83.9705 59.569 83.9678 59.5562 83.9624C59.5434 83.9571 59.5318 83.9492 59.522 83.9394C59.5122 83.9295 59.5045 83.9178 59.4992 83.9049C59.494 83.8921 59.4913 83.8783 59.4914 83.8644V38.8069L51.8831 38.7301C51.8553 38.7295 51.8288 38.718 51.8093 38.698C51.7899 38.678 51.7791 38.6511 51.7793 38.6232C51.7798 38.5954 51.7912 38.5688 51.811 38.5493C51.8308 38.5297 51.8574 38.5187 51.8852 38.5185L59.7018 38.5981V83.8644C59.7018 83.8924 59.6908 83.9193 59.6711 83.9392C59.6513 83.9591 59.6246 83.9703 59.5966 83.9705Z" fill="white" fill-opacity="0.4"/>
<path d="M73.2517 69.8972C73.2238 69.897 73.1972 69.8859 73.1775 69.8661C73.1578 69.8464 73.1467 69.8197 73.1465 69.7918V60.6507L78.5921 60.555C78.606 60.5547 78.6197 60.5571 78.6327 60.5621C78.6456 60.5671 78.6574 60.5746 78.6673 60.5842C78.6773 60.5938 78.6853 60.6053 78.6908 60.6181C78.6963 60.6308 78.6993 60.6445 78.6994 60.6584C78.6998 60.6863 78.6892 60.7132 78.6699 60.7333C78.6506 60.7535 78.6242 60.7652 78.5963 60.7659L73.3569 60.8581V69.7918C73.3569 69.8197 73.3458 69.8466 73.3261 69.8663C73.3064 69.8861 73.2796 69.8972 73.2517 69.8972Z" fill="white" fill-opacity="0.4"/>
<path d="M83.9968 89.6247C83.9689 89.6247 83.9421 89.6136 83.9224 89.5938C83.9027 89.574 83.8916 89.5472 83.8916 89.5193V74.1508C83.8946 74.1251 83.9068 74.1014 83.9261 74.0841C83.9454 74.0669 83.9703 74.0574 83.9961 74.0574C84.0219 74.0574 84.0467 74.0669 84.066 74.0841C84.0853 74.1014 84.0976 74.1251 84.1005 74.1508V89.5193C84.1003 89.5469 84.0894 89.5734 84.07 89.5931C84.0506 89.6128 84.0243 89.6242 83.9968 89.6247Z" fill="white" fill-opacity="0.4"/>
<path d="M108.396 87.0839C108.368 87.0837 108.342 87.0725 108.322 87.0528C108.302 87.0331 108.291 87.0064 108.291 86.9784V76.2524H97.8172V79.962C97.8142 79.9877 97.8019 80.0114 97.7827 80.0286C97.7634 80.0458 97.7385 80.0554 97.7127 80.0554C97.6869 80.0554 97.662 80.0458 97.6427 80.0286C97.6234 80.0114 97.6111 79.9877 97.6082 79.962V76.0415H108.503V86.9784C108.503 86.9924 108.5 87.0062 108.495 87.019C108.489 87.0318 108.481 87.0435 108.471 87.0533C108.462 87.0631 108.45 87.0708 108.437 87.0761C108.424 87.0813 108.41 87.084 108.396 87.0839Z" fill="white" fill-opacity="0.4"/>
<path d="M35.1963 39.297C35.1685 39.2968 35.1418 39.2857 35.1221 39.2659C35.1024 39.2462 35.0913 39.2195 35.0911 39.1916V25.6929L28.9996 25.5805H25.1397C25.125 25.5822 25.1101 25.5808 25.0959 25.5763C25.0818 25.5718 25.0687 25.5644 25.0577 25.5545C25.0466 25.5446 25.0377 25.5325 25.0317 25.5189C25.0256 25.5053 25.0225 25.4906 25.0225 25.4758C25.0225 25.4609 25.0256 25.4462 25.0317 25.4326C25.0377 25.4191 25.0466 25.4069 25.0577 25.397C25.0687 25.3872 25.0818 25.3797 25.0959 25.3752C25.1101 25.3708 25.125 25.3693 25.1397 25.371H29.0017L35.3015 25.4869V39.193C35.3011 39.2207 35.2899 39.2472 35.2702 39.2666C35.2505 39.2861 35.224 39.297 35.1963 39.297Z" fill="white" fill-opacity="0.4"/>
<path d="M0.130647 30.8332C0.102801 30.833 0.0761568 30.8218 0.0564662 30.8021C0.0367756 30.7824 0.0256225 30.7556 0.0254399 30.7277L0.00732422 10.885H6.33713C6.35187 10.8833 6.3668 10.8848 6.38095 10.8892C6.39509 10.8937 6.40813 10.9012 6.4192 10.911C6.43028 10.9209 6.43914 10.9331 6.44521 10.9466C6.45128 10.9602 6.45443 10.9749 6.45443 10.9898C6.45443 11.0046 6.45128 11.0193 6.44521 11.0329C6.43914 11.0465 6.43028 11.0586 6.4192 11.0685C6.40813 11.0784 6.39509 11.0858 6.38095 11.0903C6.3668 11.0948 6.35187 11.0962 6.33713 11.0945H0.217738L0.235854 30.7263C0.235854 30.7402 0.233129 30.7539 0.227842 30.7667C0.222555 30.7795 0.214818 30.7911 0.205049 30.8009C0.195279 30.8107 0.183674 30.8184 0.17091 30.8237C0.158145 30.829 0.144463 30.8318 0.130647 30.8318V30.8332Z" fill="white" fill-opacity="0.4"/>
<path d="M10.797 74.9572C10.7692 74.957 10.7425 74.9458 10.7229 74.9261C10.7032 74.9063 10.692 74.8796 10.6919 74.8517V13.6465C10.6902 13.6317 10.6916 13.6168 10.6961 13.6026C10.7005 13.5884 10.7079 13.5753 10.7178 13.5642C10.7277 13.5531 10.7398 13.5443 10.7533 13.5382C10.7668 13.5321 10.7815 13.5289 10.7963 13.5289C10.8111 13.5289 10.8258 13.5321 10.8393 13.5382C10.8529 13.5443 10.865 13.5531 10.8748 13.5642C10.8847 13.5753 10.8921 13.5884 10.8966 13.6026C10.901 13.6168 10.9025 13.6317 10.9008 13.6465V74.8503C10.901 74.8642 10.8984 74.8779 10.8933 74.8908C10.8882 74.9036 10.8806 74.9154 10.871 74.9253C10.8613 74.9352 10.8498 74.9431 10.8372 74.9486C10.8245 74.9541 10.8108 74.957 10.797 74.9572Z" fill="white" fill-opacity="0.4"/>
<path d="M0.112478 89.6247C0.0846457 89.6245 0.0580152 89.6133 0.0383347 89.5936C0.0186542 89.5738 0.00750673 89.5471 0.00732422 89.5192V79.173C0.0102881 79.1473 0.0225769 79.1236 0.041837 79.1064C0.061097 79.0892 0.0859844 79.0797 0.111781 79.0797C0.137577 79.0797 0.162481 79.0892 0.181741 79.1064C0.201001 79.1236 0.213273 79.1473 0.216237 79.173V89.5192C0.216061 89.5469 0.205118 89.5734 0.185736 89.5931C0.166355 89.6128 0.140067 89.6241 0.112478 89.6247Z" fill="white" fill-opacity="0.4"/>
<path d="M115.303 89.8222H-11.2458C-11.3956 89.8222 -11.5168 89.6728 -11.5168 89.4892C-11.5168 89.3049 -11.3956 89.1555 -11.2458 89.1555H115.303C115.453 89.1555 115.574 89.3049 115.574 89.4892C115.574 89.6714 115.453 89.8222 115.303 89.8222Z" fill="white" fill-opacity="0.4"/>
</g>
<defs>
<clipPath id="clip0_2626_28214">
<rect width="110" height="90" fill="white"/>
</clipPath>
</defs>
</svg>
