<svg width="80" height="80" viewBox="0 0 80 80" fill="none" xmlns="http://www.w3.org/2000/svg">
<path fill-rule="evenodd" clip-rule="evenodd" d="M0 64.7999C0 62.5908 1.79086 60.7999 4 60.7999H12.0027H17.6033C17.6011 60.6669 17.6 60.5336 17.6 60.4C17.6 55.8498 18.8877 51.6003 21.1187 47.9962C22.6823 45.4702 24.7092 43.2611 27.0809 41.4877C27.653 41.0599 28.2451 40.6574 28.8557 40.282C32.447 38.0737 36.6748 36.8 41.2 36.8C43.2349 36.8 45.2097 37.0576 47.0935 37.5419C57.2757 40.1595 64.8 49.401 64.8 60.4C64.8 60.5336 64.7989 60.6669 64.7967 60.7999H70.3973H76C78.2091 60.7999 80 62.5908 80 64.7999V74.3999C80 76.6091 78.2091 78.3999 76 78.3999H4C1.79086 78.3999 0 76.6091 0 74.3999V64.7999ZM38.2572 52.1205C36.9399 52.1205 35.7444 53.2644 35.7444 54.8241C35.7444 55.8883 35.9735 56.3733 36.1747 56.6301C36.3904 56.9052 36.7538 57.1507 37.4727 57.406L39.6 58.145V52.1205H38.2572ZM48.7728 62.1951C49.5521 63.1891 49.8848 64.4531 49.8848 65.9753C49.8848 66.1179 49.8798 66.2595 49.87 66.3999C49.6604 69.4016 47.2475 71.8789 44.172 71.8789H42.8V72.7999H55.3313C56.9543 70.9518 58.2205 68.7826 59.0223 66.3999C59.616 64.6357 59.955 62.7545 59.9958 60.7999C59.9986 60.667 60 60.5337 60 60.4C60 50.9064 52.9631 43.0563 43.8207 41.7812C42.9642 41.6618 42.0893 41.6 41.2 41.6C35.2 41.6 29.8565 44.4108 26.4144 48.7873C23.8999 51.9844 22.4 56.0171 22.4 60.4C22.4 60.5337 22.4014 60.667 22.4042 60.7999C22.445 62.7545 22.784 64.6357 23.3777 66.3999C24.1795 68.7826 25.4458 70.9518 27.0688 72.7999H39.6V71.8789H38.8508C35.6491 71.8789 33.1101 69.4612 32.6273 66.3999C32.5727 66.0538 32.5444 65.6994 32.5444 65.3393C32.5444 64.4556 33.2607 63.7393 34.1444 63.7393C35.028 63.7393 35.7444 64.4556 35.7444 65.3393C35.7444 65.7145 35.7996 66.0702 35.9008 66.3999C36.3189 67.7621 37.5211 68.6789 38.8508 68.6789H39.6V66.3999V61.5326L37.491 60.7999L36.4083 60.4238C35.4554 60.0861 34.4207 59.5794 33.6563 58.6043C32.8771 57.6103 32.5444 56.3463 32.5444 54.8241C32.5444 51.635 35.0377 48.9205 38.2572 48.9205H39.6V47.68C39.6 46.7964 40.3163 46.08 41.2 46.08C42.0837 46.08 42.8 46.7964 42.8 47.68V48.9205H43.5784C47.1421 48.9205 49.8848 51.9159 49.8848 55.4601C49.8848 56.3438 49.1684 57.0601 48.2848 57.0601C47.4011 57.0601 46.6848 56.3438 46.6848 55.4601C46.6848 53.5347 45.2299 52.1205 43.5784 52.1205H42.8V59.2567L46.0209 60.3756C46.3511 60.4926 46.691 60.6299 47.0262 60.7999C47.6583 61.1206 48.2733 61.5578 48.7728 62.1951ZM46.6848 65.9753C46.6848 64.911 46.4557 64.4261 46.2544 64.1693C46.0387 63.8942 45.6753 63.6487 44.9564 63.3934L42.8 62.6443V66.3999V68.6789H44.172C45.3665 68.6789 46.4609 67.7383 46.6545 66.3999C46.6744 66.2624 46.6848 66.1206 46.6848 65.9753ZM5.6 66.3999V72.7999H14.756H21.1163C19.903 70.839 18.9689 68.6872 18.3695 66.3999H12.617H5.6ZM74.4 72.7999V66.3999H69.783H64.0305C63.4311 68.6872 62.497 70.839 61.2837 72.7999H67.644H74.4Z" fill="#EDB96F"/>
<path d="M27.1304 2.40006C14.3241 2.44646 3.95376 12.8632 4.00016 25.6695C4.03157 34.3389 8.81551 41.892 15.876 45.8527C17.5895 42.8764 19.8126 40.2305 22.4261 38.0344C19.6991 37.0821 17.7345 34.4078 17.7345 31.2607C17.7345 30.3095 18.5233 29.5207 19.4745 29.5207C20.4256 29.5207 21.2144 30.3095 21.2144 31.2607C21.2144 33.2791 22.7456 34.9262 24.6248 34.9262H25.46V27.0847L21.9568 25.8319C20.1472 25.2055 17.7113 23.8599 17.7113 19.7071C17.7113 16.1344 20.5184 13.2576 23.952 13.2576H25.46V11.912C25.46 10.9608 26.2488 10.172 27.2 10.172C28.1512 10.172 28.94 10.9608 28.94 11.912V13.2576H29.7752C33.58 13.2576 36.6655 16.4592 36.6655 20.4031C36.6655 21.3543 35.8767 22.1431 34.9255 22.1431C33.9744 22.1431 33.1856 21.3543 33.1856 20.4031C33.1856 18.3848 31.6544 16.7376 29.7752 16.7376H28.94V24.5791L32.4432 25.8319C34.192 26.4373 36.5258 27.7143 36.6806 31.5477C38.1535 31.3188 39.6629 31.2 41.2 31.2C44.0465 31.2 46.7979 31.6073 49.399 32.3668C50.0578 30.2045 50.4085 27.9086 50.3998 25.5303C50.3534 12.724 39.9367 2.37686 27.1304 2.40006Z" fill="#EDB96F"/>
<path d="M21.2144 19.7303C21.2144 21.7487 21.9336 22.1431 23.1168 22.5607L25.46 23.3727V16.7376H23.952C22.444 16.7376 21.2144 18.0832 21.2144 19.7303Z" fill="#EDB96F"/>
<path d="M33.2088 31.9567C33.2088 29.9383 32.4896 29.5439 31.3064 29.1263L28.9632 28.3143V33.88C30.3187 33.2535 31.7303 32.7279 33.1885 32.3128C33.2019 32.1959 33.2088 32.077 33.2088 31.9567Z" fill="#EDB96F"/>
</svg>
