<svg width="196" height="106" viewBox="0 0 196 106" fill="none" xmlns="http://www.w3.org/2000/svg">
<path fill-rule="evenodd" clip-rule="evenodd" d="M143.339 105C143.775 101.729 144 98.3906 144 95C144 53.5786 110.421 20 69 20C27.5786 20 -6 53.5786 -6 95C-6 98.3906 -5.77501 101.729 -5.33914 105H143.339Z" fill="white"/>
<path d="M153.55 65H148.121L145.5 65.8352L141 67.7143L136.011 70.8462L131.835 73.7692L131 75.4396L136.637 84L151.67 74.1868L153.5 73.5L155.429 72.5L155.846 71.8901L155.429 71.0549L156.681 70L157.517 69.5934L157.099 68.7582L156.264 68.3407L156.473 67.7143L157.517 66.6703C157.684 66.5033 157.725 66.044 157.725 65.8352L156.681 65.4176L153.55 65Z" fill="white"/>
<path d="M86.2937 16.8197L85.6039 12.4513L82.8449 9.92216L78.4765 6.93323L76.8671 5.32381L75.2576 5.78364L65.3712 9.46233L58.7036 11.7615L53.6454 14.2906L50.1966 20.7283L49.5069 23.0275L50.6564 25.7865L52.9556 27.3959C53.1855 28.8521 53.6454 31.8103 53.6454 31.9943V44.1799C53.6454 44.3638 53.0323 47.0156 52.7257 48.3184L52.9556 50.8475L56.1745 53.6065C57.1708 55.2926 59.2554 58.7107 59.6232 58.8946C59.9911 59.0786 65.6011 65.7155 68.3601 69.011L75.4876 50.8475L75.2576 37.0525L79.6261 36.1328L83.7646 34.7533L85.1441 27.8557L85.8339 22.1078L86.2937 16.8197Z" fill="white"/>
<path d="M51.5418 136.657C43.1905 136.395 34.8198 136.978 26.4939 136.168C23.2736 135.818 19.6107 136.796 16.6954 135.103C13.6545 135.172 14.9312 128.419 14.9148 126.417C15.2243 121.243 15.6892 116.076 16.507 110.957C16.513 110.919 16.5175 110.883 16.5235 110.846C16.522 110.855 16.5205 110.863 16.519 110.871C16.5399 110.727 16.5623 110.582 16.5833 110.437C16.5833 110.433 16.5833 110.428 16.5848 110.424C16.5848 110.425 16.5848 110.428 16.5848 110.43C16.5878 110.401 16.5937 110.37 16.5982 110.34C16.5982 110.34 16.5982 110.34 16.5982 110.341C16.9107 106.955 17.8197 103.698 18.5537 100.392C19.0366 97.0163 19.9725 93.7376 20.4943 90.3739C20.7948 86.4338 22.2719 82.749 23.6055 79.0673C24.8404 75.7707 25.8406 72.3532 27.8903 69.4403C29.4347 66.7454 31.145 64.0819 33.4279 61.9468C33.3876 61.9857 33.3487 62.0245 33.3098 62.0633C36.6901 58.2218 40.7835 55.076 45.1685 52.4513C47.0119 51.5077 49.9197 48.1394 50.3069 52.2124C50.7375 59.661 52.6377 66.9694 52.6945 74.4598C53.9534 73.879 55.2062 73.2833 56.3424 72.4831C57.2514 71.744 58.2695 72.7996 57.8898 73.788C57.7448 78.7791 58.2501 83.8449 58.1335 88.8689C58.3279 94.5095 58.3024 100.165 58.7719 105.792C59.4282 110.91 60.3058 115.993 60.998 121.105C61.0398 121.243 61.0533 121.39 61.0414 121.533C65.3889 120.855 69.7649 120.857 74.1544 120.845C75.3818 121.002 79.9447 120.261 80.13 121.617C80.154 121.602 80.1779 121.588 80.2033 121.573C80.1988 121.406 80.2317 121.24 80.296 121.091C76.5449 117.972 76.0067 114.54 76.0247 109.9C75.9619 106.543 75.8019 103.19 75.7675 99.8336C75.6778 88.9465 75.9978 78.0207 77.8098 67.2635C77.8023 67.3098 77.7948 67.3575 77.7888 67.4038C78.2732 62.6381 79.7428 58.0501 80.2302 53.2859C80.2736 50.8836 80.2825 47.3974 83.6015 49.6429C84.5001 50.1446 85.6198 49.9788 86.5572 50.47C96.8999 54.2205 100.316 62.4799 104.706 71.6634C107.824 78.9344 111.217 90.3647 113.18 98.1209C113.464 97.7581 115.61 95.2142 115.893 94.8514C115.872 94.8783 115.851 94.9052 115.83 94.932C120.061 89.0122 124.063 82.9103 128.846 77.4115C129.638 76.3768 130.549 75.4467 131.398 74.4598C132.207 73.2803 133.131 73.8029 133.88 74.7151C133.848 74.6867 133.818 74.6584 133.787 74.63C135.998 76.6814 138.761 78.1476 140.557 80.6394C142.07 82.1055 140.806 83.5597 139.752 84.8154C138.022 87.2176 136.735 89.8812 134.956 92.2521C134.958 92.2491 134.959 92.2461 134.961 92.2431C131.174 98.1973 126.587 103.587 122.673 109.467C121.22 111.652 119.448 113.599 117.949 115.751C115.811 118.286 113.046 120.252 109.058 119.176C104.813 117.698 103.853 112.951 101.976 109.381C99.7061 104.474 97.8044 99.3902 94.8951 94.8066C94.8951 94.8081 94.8966 94.8081 94.8966 94.8096C94.8472 94.723 94.7994 94.6364 94.7531 94.5498C93.8067 96.2504 92.0261 97.3716 91.159 99.1199C91.1799 102.924 91.4281 106.734 91.3219 110.543C91.3219 110.495 91.3234 110.449 91.3234 110.403C91.0543 113.847 91.4161 117.435 90.7553 120.802C90.3053 121.454 89.4023 121.157 88.7295 121.266C86.0474 121.687 83.3205 121.96 80.6683 122.49C80.5965 123.099 80.441 123.699 80.3663 124.31C80.3722 124.273 80.3782 124.234 80.3827 124.197C79.846 126.218 80.8133 135.762 77.8426 135.361C73.8284 135.278 69.8636 135.965 65.8673 136.205C61.0982 136.483 56.3185 136.56 51.5418 136.657ZM40.2378 96.6998C38.6456 104.605 38.1687 112.693 36.6273 120.59C38.7353 120.598 40.8358 120.146 42.9095 119.806C42.8347 115.237 41.836 110.771 41.3606 106.245C41.3651 106.283 41.3696 106.322 41.3741 106.361C40.9241 102.697 40.8254 99.008 40.4935 95.3307C40.4083 95.789 40.3231 96.2444 40.2378 96.6998Z" fill="#4263a3"/>
<path d="M74.5374 32.0164C73.8138 31.9268 73.5147 31.249 73.1813 30.6951C72.6072 30.4323 73.2725 29.5858 73.6478 30.3248C74.0799 31.3998 75.7035 31.8432 76.4375 30.8533C77.1701 29.5813 77.2972 32.4479 74.5374 32.0164Z" fill="#231F20"/>
<path d="M66.7497 22.8613C65.902 22.9076 62.4828 21.2055 63.3589 20.2037C63.3425 20.0738 63.4725 19.926 63.6071 19.9783C64.9407 19.0093 66.5299 18.5047 68.1819 18.7376C69.3496 18.8033 70.4021 19.3183 71.4337 19.8215C72.1483 20.1694 71.6534 21.1144 71.1735 21.4534C71.187 21.4429 71.2004 21.4339 71.2139 21.4235C69.9072 22.3432 68.3628 22.9449 66.7497 22.8613ZM67.1175 22.0282C68.5004 21.9819 70.1883 21.5788 71.1077 20.5038C70.0597 19.9842 69.0027 19.4214 67.8037 19.3885C67.8186 19.39 67.8336 19.3915 67.847 19.393C67.092 19.3378 66.3296 19.3601 65.594 19.5483C65.6075 19.5453 65.6194 19.5423 65.6329 19.5393C65.0244 19.6976 64.4653 20.0007 63.8971 20.2634C64.4937 21.0428 65.3742 21.6669 66.3251 21.9237C66.3206 21.9222 66.3176 21.9222 66.3131 21.9207C66.5778 21.9834 66.8454 22.0446 67.1175 22.0282Z" fill="#231F20"/>
<path d="M68.0277 21.6952C66.9258 21.0861 67.7346 19.1049 68.9322 19.4468C70.351 20.1649 69.6005 22.4597 68.0277 21.6952ZM68.4926 20.8263C68.542 20.783 68.5898 20.7352 68.6182 20.6755C68.5973 20.6815 68.5779 20.6904 68.5584 20.6994C68.548 20.7457 68.5225 20.789 68.4837 20.8188C68.4867 20.8218 68.4896 20.8233 68.4926 20.8263Z" fill="#231F20"/>
<path d="M80.9523 21.946C80.2063 21.9177 79.387 21.8176 78.8398 21.2548C78.6126 20.9472 78.2523 20.7307 78.0789 20.3948C77.9593 20.0544 78.2717 19.599 78.65 19.702C79.0611 18.9256 79.9925 18.6957 80.7819 18.4912C80.7685 18.4942 80.755 18.4972 80.7416 18.5001C82.1125 18.1642 84.6212 18.0567 85.2416 19.5363C84.4717 21.1249 82.7344 22.1715 80.9523 21.946ZM81.0675 21.0353C82.4623 21.1726 83.6868 20.677 84.5763 19.5856C83.3265 18.8047 81.8225 18.9137 80.4366 19.2183C80.4396 19.2183 80.4426 19.2168 80.4455 19.2153C80.4321 19.2183 80.4186 19.2213 80.4052 19.2243C80.4126 19.2228 80.4201 19.2213 80.4276 19.2198C79.9088 19.3661 79.2944 19.4766 78.9864 19.9648C79.4528 20.7008 80.1869 21.104 81.0675 21.0353Z" fill="#231F20"/>
<path d="M82.419 21.2666C80.8403 21.189 80.8821 19.2242 82.5013 19.3332C83.8528 19.3317 83.6973 21.3099 82.419 21.2666ZM82.5267 20.4111C82.5282 20.4111 82.5297 20.4111 82.5312 20.4111C82.5222 20.3917 82.5147 20.3723 82.5102 20.3514C82.4489 20.3424 82.3876 20.3305 82.3264 20.332C82.3204 20.3484 82.3144 20.3648 82.3084 20.3813C82.3802 20.3947 82.4534 20.4141 82.5267 20.4111Z" fill="#231F20"/>
<path d="M78.1866 20.5709C77.5213 20.2663 79.4155 18.515 79.6368 19.3436C79.6592 19.8766 78.8743 19.8289 78.6157 20.2215C78.674 20.4664 78.3899 20.5858 78.1866 20.5709Z" fill="#231F20"/>
<path d="M61.6306 18.7882C61.3988 18.0014 62.5201 18.1358 62.9611 17.8611C64.9436 16.8533 67.1801 16.8234 69.3539 16.8563C70.5021 16.9698 72.1751 16.6368 72.942 17.6625C73.0766 18.1552 72.5399 18.4389 72.1512 18.1448C69.5722 17.8671 66.8527 18.0179 64.2723 18.3493C63.5577 18.4225 62.1852 19.278 61.6306 18.7882Z" fill="#231F20"/>
<path d="M77.9069 17.9776C75.9065 16.0113 85.4599 16.0516 85.5451 17.3893C85.3986 18.0418 84.6092 17.4356 84.201 17.3908C82.2022 17.0638 80.1375 17.4565 78.2224 18.0253C78.2298 18.0238 78.2373 18.0223 78.2448 18.0209C78.1282 18.0433 78.0145 18.0373 77.9069 17.9776Z" fill="#231F20"/>
<path d="M62.4527 22.1685C62.3869 21.7266 62.9371 21.7325 63.2226 21.5907C63.2211 21.5907 63.2196 21.5922 63.2181 21.5922C63.3632 21.534 63.5067 21.4713 63.6427 21.3936C63.6412 21.3951 63.6397 21.3951 63.6382 21.3966C63.6607 21.3832 63.6831 21.3712 63.7055 21.3578C63.6951 21.3638 63.6846 21.3697 63.6741 21.3742C64.5771 20.6531 64.8537 21.634 64.2407 21.5982C63.8027 21.7848 62.7891 22.8195 62.4527 22.1685Z" fill="#231F20"/>
<path d="M63.4756 22.8656C63.2603 22.3968 63.9944 22.3088 64.2336 22.0475C64.2321 22.049 64.2306 22.0505 64.2276 22.052C64.2351 22.046 64.244 22.04 64.2515 22.034C64.247 22.037 64.2425 22.04 64.2381 22.043C64.4279 21.9071 65.0439 21.2383 64.9766 21.8414C64.6761 22.1371 63.9061 23.1971 63.4756 22.8656Z" fill="#231F20"/>
<path d="M64.7222 23.3719C64.643 23.2047 64.7192 23.0121 64.8687 22.918L64.8673 22.9195C65.1065 22.7911 65.2575 22.5478 65.2978 22.2835C65.2963 22.2969 65.2933 22.3089 65.2918 22.3223C65.2335 22.0327 65.6387 21.7744 65.7703 22.1118C65.8674 22.5851 65.2694 23.9004 64.7222 23.3719Z" fill="#231F20"/>
<path d="M83.228 22.6896C83.0635 22.4029 82.5448 21.9505 82.8318 21.628C83.1368 21.5295 83.3356 22.1207 83.5913 22.2775C83.8066 22.4985 83.4702 22.9329 83.228 22.6896Z" fill="#231F20"/>
<path d="M84.3761 22.1744C84.0546 21.9206 83.0634 21.4593 83.5134 20.989C83.9096 20.8815 84.2355 21.4428 84.6272 21.5458C84.6242 21.5444 84.6213 21.5429 84.6183 21.5414C84.9621 21.6907 84.7304 22.2983 84.3761 22.1744Z" fill="#231F20"/>
<path d="M84.7979 21.316C84.5004 21.1025 83.9368 20.0798 84.6993 20.2754C84.6903 20.2694 84.6813 20.262 84.6708 20.2575C84.7366 20.2903 84.774 20.353 84.786 20.4217C84.9056 20.5665 85.064 20.6681 85.2165 20.777C85.5454 21.0234 85.1194 21.6325 84.7979 21.316Z" fill="#231F20"/>
<path d="M96.0583 135.491C94.8832 135.369 93.9547 134.483 92.8813 134.046C90.3308 133.562 87.6621 134.159 85.0772 134.185C85.0787 134.185 85.0802 134.185 85.0816 134.185C84.2698 134.248 83.4625 134.342 82.6507 134.401C82.6821 134.4 82.712 134.397 82.7419 134.395C82.6567 134.401 82.57 134.409 82.4848 134.415C82.5147 134.413 82.5461 134.41 82.576 134.409C81.5758 134.409 77.7814 135.466 79.0925 133.331C79.2286 133.213 79.4409 133.12 79.6247 133.168C80.8477 133.326 82.0751 132.953 83.3041 132.953C83.2742 132.955 83.2442 132.958 83.2143 132.959C86.4257 132.744 89.6954 132.534 92.9007 132.841C94.2119 133.14 95.1852 134.631 96.5651 134.516C96.8551 133.514 94.5244 131.718 94.2822 130.705C94.4945 128.628 98.3576 132.368 99.4012 132.543C99.3832 132.534 99.3638 132.526 99.3459 132.517C99.8871 132.71 100.623 133.111 101.134 132.669C100.528 131.692 99.6822 130.797 98.7822 130.076C98.2649 129.698 97.5458 129.451 97.2618 128.841C97.0734 126.105 103.214 131.145 104.531 130.905C103.629 128.992 101.292 128.332 99.9977 126.838C99.8243 124.182 106.12 129.006 107.621 128.252C106.51 126.017 104.145 124.403 101.938 123.311C101.962 123.323 101.988 123.334 102.012 123.344C94.6215 120.073 86.5184 122.98 78.8623 122.626C78.7576 122.751 78.5737 122.732 78.4482 122.648C74.7195 122.681 70.9401 122.405 67.2129 122.723C64.9778 122.963 62.6515 122.813 60.4464 122.4C59.5777 122.363 59.9141 121.321 59.7018 120.737C58.298 111.028 58.0902 101.18 57.4144 91.401C57.1872 85.4305 56.2632 79.5226 55.7669 73.5789C54.4512 74.3493 51.2489 77.5145 51.3969 74.0552C51.3969 71.9231 51.2533 69.7956 51.0485 67.6725C50.3907 62.4664 48.7925 57.3856 48.9525 52.0929C34.8766 57.3588 27.394 69.7433 22.8281 83.3716C22.4095 84.6197 22.0073 85.8754 21.7158 87.1594C21.5992 89.1675 19.9546 89.1451 18.4312 88.5658C13.6276 86.81 13.0371 81.7442 15.1899 77.622C15.9898 76.1036 17.1365 74.7882 17.9019 73.2474C18.3146 72.2725 17.9572 71.202 18.0574 70.1853C18.337 68.8445 18.5448 67.2336 19.6123 66.2795C20.9982 61.7781 28.0279 61.4138 27.086 56.9004C27.089 56.9288 27.092 56.9571 27.0964 56.9855C25.5281 49.4279 31.616 45.4057 36.9876 41.6209C37.7546 40.7296 37.7456 39.4695 37.9983 38.3766C38.2868 37.0105 38.7249 35.6727 39.3782 34.4365C41.1648 30.9205 44.735 28.6332 46.2405 24.9678C46.233 24.9842 46.2255 25.0007 46.218 25.0186C47.5516 21.5294 47.9702 17.7192 49.9048 14.4615C55.3677 3.54304 65.1273 -0.774755 76.8858 2.59946C76.8754 2.59498 76.8664 2.5905 76.8559 2.58602C76.8559 2.58602 76.85 2.58453 76.847 2.58453C76.9382 2.6129 76.992 2.70248 76.9935 2.79803C81.214 4.72103 86.6395 7.36815 87.0865 12.5653C87.3182 13.0879 86.9983 13.7135 86.9564 14.2599C87.7413 14.4122 88.7983 14.024 89.4248 14.5824C89.9047 14.6929 89.8314 15.3199 89.8464 15.7022C89.8464 15.6947 89.8464 15.6872 89.8464 15.6813C89.8464 15.6992 89.8464 15.7171 89.8464 15.7365C89.8464 15.7335 89.8464 15.7305 89.8464 15.729C89.8224 16.7921 89.9196 17.864 89.7462 18.9166C89.7492 18.8927 89.7537 18.8688 89.7567 18.845C89.7417 21.2383 88.5591 23.6614 86.1282 24.3915C85.7081 26.8371 85.3672 29.311 85.575 31.7984C86.028 33.1794 86.786 34.5515 86.5513 36.0788C86.1117 38.1571 84.6182 39.8576 84.1473 41.9314C83.3564 44.5547 89.4905 44.0456 90.4369 49.3532C90.9034 49.9594 91.1889 50.6805 91.4954 51.3748C91.8079 52.0451 92.8125 53.4725 91.5537 53.7143C90.5909 53.3575 89.6729 52.7887 88.7086 52.3885C86.0968 51.4046 83.3893 50.6745 80.6399 50.1774C82.5162 55.9971 82.5446 62.1409 83.319 68.1458C84.213 75.4646 84.1682 74.1865 78.6619 70.566C79.6831 74.7166 79.6083 78.9985 79.5515 83.2432C79.5515 83.2029 79.553 83.1626 79.5545 83.1222C79.553 83.2447 79.55 83.3671 79.547 83.4895C79.547 83.4821 79.547 83.4746 79.547 83.4671C79.1957 90.0379 79.6442 96.5848 79.9477 103.145C80.0792 109.257 80.1181 115.383 80.7819 121.466C83.4655 120.885 86.2239 120.888 88.9523 120.794C91.7421 120.67 94.5602 120.297 97.3306 120.803C106.293 121.242 114.124 132.601 103.559 128.31C104.462 129.032 106.438 130.763 104.963 131.798C103.388 132.211 101.917 130.906 100.494 130.393C101.022 131.094 101.904 131.68 101.977 132.619C101.905 133.71 100.555 133.964 99.6972 133.637C99.7106 133.64 99.7241 133.644 99.7376 133.649C98.4578 133.323 97.3784 132.544 96.2437 131.905C97.1646 132.955 98.4862 135.488 96.0583 135.491ZM52.56 74.3523C52.563 74.1836 52.566 74.0134 52.569 73.8417C52.566 74.0089 52.5615 74.1776 52.5585 74.3448C52.5585 74.3433 52.5585 74.3403 52.5585 74.3388C52.557 74.3448 52.5585 74.3478 52.56 74.3523ZM51.5882 21.8041C48.8822 26.1473 54.2494 25.6247 54.1926 27.1984C54.4557 31.1325 54.4453 35.074 54.5529 39.0141C54.4946 42.5092 55.0896 46.3508 53.7635 49.6264C55.0642 51.1075 56.6908 52.2646 57.9272 53.7979C61.2731 58.2322 64.2258 62.9665 67.8902 67.1515C68.6362 64.2804 69.7709 61.5288 70.8249 58.7607C71.8535 55.3283 73.1826 52.0347 74.6463 48.768C74.1723 48.1708 74.6507 47.1809 74.567 46.4463C74.6238 42.9616 74.7718 39.453 74.5431 35.9758C74.5461 36.0027 74.5491 36.0296 74.5521 36.0564C74.4086 35.4861 74.6911 34.7844 75.3773 34.9053C85.4943 35.0233 83.2398 33.4063 85.1355 24.7468C85.1325 24.7722 85.128 24.7961 85.125 24.823C85.1325 24.7692 85.1415 24.714 85.1474 24.6602C82.8062 25.2589 79.7758 25.1589 78.194 23.0747C78.348 24.2765 78.8159 25.4247 78.9475 26.6176C78.2867 28.2733 75.8303 27.2043 74.8003 26.428C74.8167 26.4384 74.8316 26.4489 74.8481 26.4608C74.2067 26.2369 73.8135 25.4247 74.5341 25.0245C75.2757 24.599 76.9038 27.5761 78.3704 26.6086C78.1372 25.5979 77.7679 24.6229 77.5825 23.5972C77.587 23.6136 77.5915 23.6301 77.596 23.648C77.4106 22.9537 77.2656 22.2505 77.1101 21.5488V21.5503C77.1086 21.5458 77.1101 21.5428 77.1071 21.5384C77.1071 21.5369 77.1056 21.5339 77.1056 21.5324V21.5339C77.1041 21.5294 77.1041 21.5234 77.1026 21.5189C77.0996 21.5115 77.0981 21.504 77.0966 21.4965C77.0966 21.501 77.0981 21.5055 77.0996 21.5115C76.8231 20.4544 76.5614 19.378 76.0785 18.3911C75.8244 18.3478 75.5672 18.2881 75.3086 18.3C75.6449 23.2777 71.1957 27.603 66.2352 27.2148C66.2441 27.2148 66.2531 27.2163 66.2621 27.2178C66.2426 27.2163 66.2232 27.2133 66.2038 27.2133C66.1963 27.2133 66.1888 27.2118 66.1813 27.2118C66.1828 27.2118 66.1843 27.2118 66.1858 27.2118C62.7039 26.6012 60.4673 23.1299 59.6854 19.905C59.1098 20.0543 58.5267 20.1782 57.9466 20.3096C57.975 20.3036 58.002 20.2962 58.0304 20.2902C56.468 20.6769 54.8923 21.0143 53.3195 21.3517C53.2821 21.4249 53.1804 21.4682 53.1072 21.4189C53.0848 21.4189 53.0608 21.4204 53.0384 21.4219C53.0474 21.4219 53.0549 21.4204 53.0638 21.4204C52.6333 21.4622 52.2042 21.5234 51.7766 21.5802C51.7138 21.6533 51.6495 21.728 51.5882 21.8041ZM67.6375 15.3856C65.22 15.2976 62.9042 15.7395 60.5405 16.156C60.7573 20.341 62.9461 26.3265 67.9873 26.0428C72.8029 25.4799 75.5612 20.6366 74.117 16.1381C72.0195 15.5021 69.8188 15.3438 67.6375 15.3856ZM77.584 17.7894C77.5481 18.0119 77.4764 18.2388 77.2985 18.3836C77.4809 22.9119 81.2035 24.5587 85.2656 23.6301C85.4136 21.6832 85.6513 19.7438 85.6692 17.7864C85.5287 17.6147 85.5451 17.3534 85.6692 17.1773C85.6662 16.6577 85.6707 16.1426 85.6782 15.623C83.0335 15.7514 80.3603 15.9694 77.75 16.4009C77.7365 16.5114 77.7216 16.6204 77.7066 16.7308C77.7096 16.7085 77.7141 16.6861 77.7171 16.6637C77.7006 16.7741 77.6842 16.8831 77.6677 16.9936C77.6722 16.9623 77.6767 16.9309 77.6827 16.8996C77.6393 17.1952 77.6304 17.4953 77.584 17.7894ZM88.4694 18.2388C87.8669 18.4538 87.2525 18.6329 86.629 18.7763C86.5618 20.3275 86.3121 21.8608 86.2194 23.4091C86.7471 23.2389 87.2031 22.9239 87.6367 22.5879C87.6217 22.5999 87.6053 22.6118 87.5903 22.6238C87.9447 22.3894 88.1764 22.0415 88.3752 21.6742C88.9912 20.5858 88.7684 19.2824 88.897 18.085C88.7535 18.1313 88.6129 18.188 88.4694 18.2388ZM62.5095 12.1055C60.6856 12.2413 59.497 13.8598 57.7732 14.3346C55.5815 14.9691 55.0313 17.3519 54.3346 19.2466C55.9851 18.733 57.5759 18.0238 59.2772 17.667C59.2817 16.8383 58.5327 15.3662 59.8065 15.1751C60.6153 14.5734 61.6678 14.5376 62.6381 14.4913C62.6276 14.4913 62.6157 14.4928 62.6052 14.4943C65.7403 14.2136 69.137 14.0225 72.2063 14.4988C74.7001 14.984 75.3998 14.9168 75.3205 17.7476C75.7018 17.5908 76.1114 17.552 76.5031 17.4341C76.3775 15.2005 77.2491 15.0019 79.248 14.9109C81.3755 14.7287 83.4984 14.4689 85.6259 14.2823C85.5571 13.9105 85.5122 13.5328 85.4644 13.1581C82.5132 10.081 77.7201 11.677 76.2235 7.54581C74.419 9.00598 72.2467 9.95256 70.0849 10.7633C70.1118 10.7528 70.1372 10.7424 70.1641 10.7319C67.7511 11.8069 65.1483 12.3399 62.5095 12.1055ZM76.8813 18.5598C76.8828 18.5434 76.8843 18.5269 76.8858 18.5105C76.8754 18.5105 76.8634 18.509 76.853 18.509C76.8619 18.5255 76.8724 18.5434 76.8813 18.5598ZM86.6724 15.8037C86.6769 16.1516 86.6784 16.4994 86.6784 16.8458C87.393 16.8219 88.1614 16.4427 88.8462 16.5577C88.8387 16.3053 88.8312 16.053 88.8148 15.8007C88.0987 15.7753 87.3855 15.7051 86.6709 15.6544C86.6709 15.7037 86.6709 15.7544 86.6724 15.8037Z" fill="#231F20"/>
<path d="M40.4805 95.4516C40.3777 95.4458 40.3692 95.2055 40.3739 95.0447C40.3739 92.915 40.2994 90.7874 40.3117 88.6577C40.3117 88.6635 40.3117 88.6694 40.3117 88.6771C40.3126 88.6345 40.3126 88.5899 40.3126 88.5473C40.3126 88.5628 40.3126 88.5763 40.3126 88.5918C40.3126 88.5473 40.3136 88.5027 40.3136 88.4562C40.3136 88.4775 40.3136 88.4988 40.3126 88.5201C40.3947 87.84 40.1749 86.4932 40.5861 86.2549C40.9879 86.313 40.5918 89.396 40.6898 90.1847C40.6898 90.1808 40.6898 90.177 40.6898 90.175C40.6842 90.8455 40.6766 91.516 40.67 92.1884C40.67 92.1806 40.67 92.1729 40.67 92.1651C40.67 92.1671 40.67 92.1709 40.67 92.1729C40.67 92.1651 40.67 92.1593 40.67 92.1515C40.67 92.169 40.67 92.1864 40.67 92.2039C40.67 92.1961 40.67 92.1864 40.67 92.1787C40.67 92.2116 40.6691 92.2446 40.6691 92.2756C40.6691 92.2717 40.6691 92.2698 40.6691 92.2659C40.6682 92.3453 40.6672 92.4248 40.6672 92.5042C40.6672 92.5023 40.6672 92.5004 40.6672 92.4984C40.6672 92.5081 40.6672 92.5178 40.6672 92.5275C40.6672 92.5255 40.6672 92.5217 40.6672 92.5197C40.6672 92.5294 40.6672 92.541 40.6672 92.5507C40.6672 92.5488 40.6672 92.5469 40.6672 92.5449C40.5965 93.2774 40.7691 95.0602 40.4805 95.4516Z" fill="white"/>
<path d="M95.0358 92.1445C94.0954 91.7429 95.3632 89.8871 95.2077 89.0615C95.2077 89.0689 95.2077 89.0764 95.2077 89.0854C95.1823 86.0172 94.2823 82.967 92.7289 80.3273C91.7288 78.4641 91.9246 76.3186 92.0532 74.2851C92.104 74.0268 91.9784 73.131 92.4314 73.3997C92.5436 74.5419 92.5122 75.7333 92.6437 76.8889C92.6422 76.877 92.6407 76.865 92.6393 76.8531C92.7589 78.3162 93.3584 79.6495 94.1851 80.8454C94.9386 82.6549 95.7489 84.5093 95.9792 86.4711C96.0913 87.7461 96.3335 89.066 95.9612 90.3186C95.6876 90.8874 95.8685 92.1221 95.0358 92.1445Z" fill="white"/>
<path d="M57.3907 72.1845C55.921 71.6619 58.9904 70.4317 59.3596 69.9449C60.2881 69.1745 61.2583 68.4654 62.3049 67.8637C62.7683 67.6591 63.4112 66.6887 63.8582 67.3546C64.1064 68.3758 61.9356 68.9939 61.2793 69.5806C60.1281 70.4033 58.9844 71.2289 57.7465 71.9202C57.6882 72.068 57.5551 72.1889 57.3907 72.1845Z" fill="white"/>
<path d="M76.5481 69.0462C74.7256 68.3385 72.8524 67.7592 71.0075 67.1112C70.6427 67.2665 70.4767 66.614 70.8415 66.514C71.3872 66.5558 71.9254 66.8096 72.4652 66.9306C73.9243 67.5278 75.6586 67.6487 76.9787 68.4833C77.1162 68.7505 76.8576 69.1522 76.5481 69.0462Z" fill="white"/>
<path d="M70.4199 119.476C70.0028 112.969 69.5842 106.446 69.8682 99.9247C69.8682 99.9277 69.8682 99.9292 69.8682 99.9322C69.8682 99.9202 69.8682 99.9068 69.8682 99.8949C69.8682 99.8979 69.8682 99.8993 69.8682 99.9023C70.1059 91.7923 69.1969 83.7285 68.9353 75.6319C68.8217 73.2311 68.439 70.8527 68.2341 68.4609C69.031 66.9963 68.9218 70.8214 69.0654 71.2021C69.0639 71.1887 69.0624 71.1752 69.0609 71.1618C69.0968 71.4798 69.1327 71.7993 69.1685 72.1188C69.167 72.1054 69.1655 72.0919 69.164 72.0785C69.7845 82.2086 70.7473 92.3566 70.2375 102.514C70.2375 102.509 70.2375 102.505 70.2375 102.5C70.2375 102.512 70.2375 102.524 70.2375 102.536C70.2375 102.535 70.2375 102.533 70.2375 102.532C70.1298 107.185 70.3511 111.836 70.6038 116.482C70.535 116.827 71.1943 120.498 70.4199 119.476Z" fill="white"/>
<path d="M36.5242 47.8454C36.128 46.9496 38.4243 45.7417 39.0418 45.1983C41.7867 43.0931 42.6299 42.0406 42.6748 38.4991C42.7809 34.2575 47.0552 34.4799 47.6219 30.6787C47.6204 30.6921 47.6189 30.7041 47.6174 30.716C47.7071 30.0516 47.8042 29.3828 47.9956 28.7378C47.9926 28.7497 47.9896 28.7602 47.9851 28.7721C48.0016 28.7169 48.0165 28.6601 48.033 28.6049C48.03 28.6168 48.027 28.6273 48.024 28.6393C48.5742 26.5296 49.8016 27.8196 48.8941 27.8778C48.8627 27.8883 48.8358 27.9107 48.8104 27.9301C48.8104 27.9301 48.8104 27.9301 48.8119 27.9286C48.8089 27.9316 48.8059 27.9331 48.8029 27.936C48.8044 27.9345 48.8059 27.9331 48.8089 27.9316C48.8029 27.9375 48.797 27.9435 48.791 27.9495C48.8029 27.9375 48.8134 27.9271 48.8284 27.9181C48.3559 28.4676 48.3215 29.2753 48.1705 29.9591C48.172 29.9516 48.172 29.9456 48.1735 29.9382C48.172 29.9501 48.1705 29.9621 48.169 29.974C48.169 29.971 48.1705 29.968 48.1705 29.965C48.0584 31.6223 47.4066 33.3557 46.0266 34.3635C46.0311 34.3605 46.0356 34.3575 46.0401 34.3545C45.9952 34.3888 45.9504 34.4217 45.907 34.456C45.9085 34.4545 45.9115 34.4531 45.913 34.4516C45.8891 34.4695 45.8652 34.4874 45.8427 34.5053C45.8547 34.4963 45.8667 34.4874 45.8771 34.4784C41.5281 36.8419 45.2283 42.0107 41.1379 44.5772C39.9403 45.7343 38.3556 46.3658 37.1625 47.5154C36.9816 47.6737 36.7963 48.0335 36.5242 47.8454Z" fill="white"/>
<path d="M41.2411 51.0807C40.7627 50.8642 41.1319 50.2834 41.1305 49.9012C41.1275 49.9236 41.1245 49.9445 41.1215 49.9669C41.5446 45.7775 46.9297 45.0026 46.849 40.5101C46.9776 39.1754 47.2706 37.857 48.2364 36.8657C48.3111 36.7657 48.4487 36.7089 48.5578 36.7955C48.8299 37.0926 48.341 37.3927 48.199 37.6376C47.3573 38.6692 47.5786 40.0831 47.3543 41.3149C47.3573 41.2984 47.3588 41.2805 47.3618 41.2641C47.3498 41.3403 47.3394 41.4179 47.3274 41.494C47.3274 41.491 47.3289 41.4881 47.3289 41.4866C47.3857 45.3669 42.4326 46.4031 41.9333 50.0132C41.8481 50.4118 41.8346 51.2121 41.2411 51.0807Z" fill="white"/>
<path d="M35.6617 56.3914C34.9202 56.2361 35.729 54.5565 35.7021 53.9921C35.8815 52.9515 36.0878 51.8317 36.8892 51.0733C36.8877 51.0748 36.8847 51.0778 36.8832 51.0793C36.8907 51.0718 36.8966 51.0658 36.9041 51.0584C36.9026 51.0598 36.9011 51.0613 36.8996 51.0628C37.1388 50.9105 37.5186 50.3014 37.7952 50.5985C37.8804 50.7792 37.7084 50.9001 37.5739 50.9837C35.575 52.1483 36.789 55.7927 35.6617 56.3914Z" fill="white"/>
<path d="M30.0912 55.1223C30.0209 53.2725 30.4545 51.3495 31.8927 50.0774C31.9959 49.9655 32.1708 49.9326 32.2814 50.0535C32.5386 50.7 31.4322 51.0778 31.2319 51.6615C31.2319 51.66 31.2334 51.66 31.2334 51.6585C30.6548 52.6753 30.6982 53.8876 30.755 55.0193C30.8013 55.4583 30.1211 55.621 30.0912 55.1223Z" fill="white"/>
<path d="M22.6248 71.3723C21.7712 71.1379 22.6428 69.7419 22.8072 69.2C23.8672 66.9739 26.1576 65.9825 27.9218 64.4552C27.9098 64.4671 27.8964 64.4806 27.8844 64.4925C27.9128 64.4641 27.9412 64.4358 27.9696 64.4074C27.9666 64.4089 27.9651 64.4119 27.9621 64.4134C27.992 64.3835 28.0219 64.3536 28.0518 64.3238C28.0474 64.3283 28.0429 64.3327 28.0399 64.3357C28.0533 64.3223 28.0683 64.3074 28.0817 64.2939C28.0698 64.3059 28.0578 64.3178 28.0444 64.3298C28.6588 63.7505 28.8726 62.9129 29.1118 62.132C29.1118 62.1335 29.1103 62.135 29.1103 62.1365C29.1133 62.1231 29.1178 62.1096 29.1223 62.0977C29.1193 62.1052 29.1178 62.1111 29.1163 62.1186C29.4198 61.614 29.218 59.9492 29.7039 59.8522C30.0986 60.3882 29.4736 62.6352 29.2942 63.3712C28.297 66.4663 24.0048 66.9903 23.2094 70.2914C23.0614 70.6646 23.1616 71.335 22.6248 71.3723Z" fill="white"/>
<path d="M19.1249 79.2957C18.9604 78.6895 19.6735 75.5886 20.4809 75.9155C20.6289 76.0335 20.6199 76.25 20.5287 76.3978C20.0862 77.1816 19.7887 78.1043 19.8305 79.0106C19.829 78.9926 19.8261 78.9732 19.8246 78.9553C20.0189 79.4405 19.2819 79.9004 19.1249 79.2957Z" fill="white"/>
<path d="M77.6155 43.9381C77.4884 42.687 77.9743 41.4343 78.4273 40.2877C78.8415 39.3814 79.7998 38.7051 79.731 37.6197C79.7594 37.3614 79.7071 36.9374 80.0659 36.9165C80.2318 36.9165 80.3305 37.0762 80.3185 37.23C80.4456 38.7842 79.1509 39.792 78.7712 41.191C78.5559 42.0047 78.3137 42.8423 78.4109 43.6903C78.529 44.1994 77.7441 44.5353 77.6155 43.9381Z" fill="white"/>
<path d="M81.7944 46.4329C80.4742 44.9937 80.401 43.0946 80.9272 41.2925C81.0513 40.3519 81.9065 40.2623 81.6299 41.0312C81.6329 41.0282 81.6344 41.0252 81.6374 41.0223C81.1485 42.2853 80.8779 44.0262 81.8826 45.1042C81.8706 45.0892 81.8601 45.0758 81.8497 45.0624C81.887 45.1101 81.9244 45.1579 81.9618 45.2057C81.9588 45.2027 81.9573 45.1982 81.9543 45.1952C82.1248 45.4117 82.2967 45.6282 82.4641 45.8492C82.7676 46.2538 82.1337 46.9017 81.7944 46.4329Z" fill="white"/>
<path d="M84.889 47.5811C84.877 47.5512 84.8651 47.5229 84.8546 47.4945C84.8591 47.5049 84.8636 47.5154 84.868 47.5259C84.8636 47.5124 84.8576 47.5005 84.8531 47.4885C84.8546 47.4915 84.8561 47.4945 84.8576 47.4975C84.8531 47.487 84.8486 47.4766 84.8456 47.4661C84.8456 47.4676 84.8471 47.4691 84.8471 47.4706C84.8322 47.4348 84.8187 47.3989 84.8022 47.3646C84.5047 47.169 84.9278 46.7435 85.1282 47.0555C85.496 47.29 85.2582 47.9842 84.889 47.5811Z" fill="white"/>
<path d="M78.9131 47.3331C78.9176 46.9733 78.6814 46.3119 79.1179 46.1507C79.6023 46.1805 79.2839 46.8658 79.4274 47.1734C79.5081 47.5018 78.9908 47.7168 78.9131 47.3331Z" fill="white"/>
<path d="M59.2922 9.64209C59.2384 8.34616 62.1896 6.94571 63.287 6.54409C63.7893 6.46794 64.4576 5.57214 64.8687 6.10365C65.0736 7.30403 61.4914 7.52948 60.7245 8.49695C60.7335 8.48949 60.7439 8.48202 60.7529 8.47455C60.3896 8.76271 60.0039 9.03444 59.6929 9.38231C59.6989 9.37335 59.7064 9.36589 59.7123 9.35693C59.6914 9.3838 59.669 9.40919 59.654 9.43905C59.7064 9.63612 59.4238 9.84066 59.2922 9.64209Z" fill="white"/>
<path d="M62.5996 9.63014C62.2751 9.09862 64.9154 7.91914 65.3818 7.57724C65.5672 7.44884 65.8573 7.36822 65.947 7.64592C66.1996 8.1834 63.6102 8.95828 63.1303 9.37483C63.1378 9.37035 63.1467 9.36587 63.1542 9.36139C62.9614 9.42111 62.8074 9.74211 62.5996 9.63014Z" fill="white"/>
<path d="M66.5225 9.54209C66.8185 8.97325 67.7544 8.7493 68.2448 8.28049C68.3703 8.19688 68.5363 8.2372 68.6021 8.37455C68.7396 8.93145 67.8501 9.03447 67.5241 9.33158C67.2431 9.41369 66.651 10.0482 66.5225 9.54209Z" fill="white"/>
<path d="M80.4935 7.42638C80.1137 7.1024 79.3901 6.86799 79.3542 6.3111C79.3812 6.09162 79.7146 6.0528 79.7355 6.29617C80.0106 6.68136 80.9913 6.72168 80.8358 7.29499C80.782 7.41593 80.6176 7.50103 80.4935 7.42638Z" fill="white"/>
<path d="M78.8341 9.16887C78.4753 8.90163 77.7891 8.1148 78.4708 7.84158C78.8192 7.82814 78.8416 8.41341 79.2378 8.57465C79.5577 8.81801 79.1795 9.43015 78.8341 9.16887Z" fill="white"/>
<path d="M146.031 84.172C145.174 83.8523 144.349 83.3983 143.487 83.1122C142.63 82.6859 140.421 82.519 140.403 81.3521C141.819 77.3699 143.972 73.8205 146.207 70.2359C144.839 69.9835 147.209 68.367 147.585 67.9927C148.681 67.0756 151.193 67.3327 151.34 65.4849L151.339 65.4846C150.645 64.9596 148.074 65.7334 147.124 65.9654C145.048 66.5607 143.189 67.1974 141.365 68.4792L141.384 68.4642C140.588 68.9878 139.808 69.5203 139.001 70.0392L139.013 70.029C139.009 70.0319 139.004 70.0348 139 70.0377C139.006 70.0338 139.01 70.0309 139.016 70.027C137.795 70.7877 135.51 72.6344 134.346 73.4893C133.842 73.7377 133.465 74.3687 132.9 74.4333C131.235 73.7197 140.633 67.4733 141.879 66.9122C143.015 66.267 144.429 65.7899 145.659 65.3096C146.543 64.9175 147.396 64.6753 148.402 64.449C148.641 64.3922 148.883 64.3358 149.124 64.2844C149.334 64.2238 149.597 64.0948 149.772 64.2785C149.783 64.2769 149.804 64.2725 149.815 64.2721C150.753 62.0199 152.199 59.8478 153.178 57.6414C153.667 56.8674 154.037 55.2171 154.754 54.7755C155.15 54.64 155.596 54.8685 155.982 54.9686C156.104 54.6108 156.263 54.2634 156.412 53.9164L156.411 53.9161C156.987 52.5907 157.618 51.3721 158.189 50.0045C158.768 49.1161 160.447 49.9561 161.073 50.5051C161.637 51.6431 159.344 54.8007 158.978 56.1554C160.73 56.8041 159.969 57.8089 159.373 59.0749C158.4 60.946 157.563 63.1516 156.495 65.0385C159.08 64.9981 158.364 66.8482 156.719 67.7986C159.016 68.3064 157.753 70.166 156.208 70.696C157.269 71.8035 155.674 72.7799 154.754 73.1619C154.197 73.4105 152.69 74.3351 152.984 73.0125C153.629 72.2462 154.906 72.2303 155.668 71.5644C153.551 69.6354 156.45 70.3329 157.219 69.0358L157.218 69.0355L157.22 69.0168L157.219 69.0166C156.81 68.5328 155.942 68.7332 155.485 68.337C155.022 67.3079 157.124 66.9271 157.446 66.0907C157.116 65.7418 156.581 65.7192 156.12 65.7508C155.203 67.6327 154.498 69.6135 153.509 71.4543C151.994 74.2961 150.421 77.0961 148.989 79.9838L148.999 79.9615C148.962 80.0332 148.885 80.18 148.847 80.2526L148.858 80.2293C148.538 80.8673 148.172 81.5017 147.805 82.1373C147.37 82.892 147.104 84.5362 146.031 84.172Z" fill="#231F20"/>
<path d="M163.195 52.0753C162.299 51.9698 161.401 52.0163 160.502 51.9887C160.544 51.9924 160.586 51.9962 160.629 52C159.862 51.8606 158.608 51.7175 158.475 50.7772C154.534 49.7251 150.857 47.2682 148.444 43.9726C145.9 40.5202 143.75 36.6948 142.731 32.5054C142.739 32.5405 142.748 32.5757 142.757 32.6108C137.134 11.0134 160.092 -6.28918 179.893 2.20517C179.883 2.20141 179.874 2.19639 179.864 2.19262C185.823 4.68092 190.565 9.66881 193.178 15.5242C194.303 17.8167 195.354 20.2158 195.595 22.7832C196.764 33.1695 190.385 43.5006 181.56 48.6743C176.046 51.9887 169.487 52.5511 163.195 52.0753ZM167.613 50.388C174.569 50.8588 181.535 48.0453 186.42 43.1164C186.415 43.1214 186.41 43.1265 186.405 43.1315C189.147 40.4561 191.21 37.1757 192.718 33.6704C192.702 33.7056 192.687 33.742 192.672 33.7772C193.608 31.4345 194.214 28.9274 194.352 26.4064C194.352 26.4215 194.352 26.4378 194.351 26.4529C194.351 26.4165 194.352 26.3788 194.353 26.3424C194.353 26.355 194.352 26.3675 194.352 26.3801C194.354 26.2445 194.357 26.1089 194.361 25.9746C194.359 25.9946 194.359 26.0147 194.359 26.0336C194.528 22.4354 193.516 18.9554 191.816 15.8067C190.666 13.3008 189.194 10.9632 187.244 8.9984C178.689 -0.698675 162.824 -0.833008 152.965 6.96583C143.964 13.5544 140.526 26.6801 145.929 36.5843C149.147 43.0398 152.144 46.7748 158.903 49.7125C159.555 49.1501 160.289 49.8331 160.944 50.0289C163.163 50.2097 165.379 50.4508 167.613 50.388Z" fill="#231F20"/>
<path d="M164.719 48.1835C164.066 48.1295 158.994 47.5093 159.204 46.8954C154.314 45.2193 151.299 40.8014 149.343 36.2416C147.708 32.3359 146.371 28.1553 146.693 23.878C146.693 23.883 146.693 23.8893 146.693 23.8943C146.923 14.84 154.281 7.21946 162.609 4.5077C170.436 1.95663 180.189 4.9358 185.322 11.3599C185.318 11.3549 185.314 11.3511 185.312 11.3461C188.286 14.8576 190.084 19.4751 189.939 24.0964C189.939 24.0826 189.939 24.0676 189.939 24.0538C189.938 24.1278 189.937 24.2006 189.935 24.2747C189.935 24.2609 189.935 24.2458 189.937 24.232C189.85 26.7454 189.46 29.2915 188.522 31.6354C188.524 31.6329 188.525 31.6304 188.525 31.6279C188.519 31.6429 188.512 31.6567 188.506 31.6718C188.507 31.6668 188.51 31.663 188.511 31.658C188.5 31.6856 188.487 31.712 188.476 31.7396C188.477 31.7371 188.478 31.7333 188.48 31.7308C188.473 31.7459 188.467 31.7597 188.461 31.7748C188.462 31.7722 188.462 31.771 188.463 31.7685C186.325 36.8781 183.384 42.2703 178.225 44.8302C174.001 46.7409 169.417 48.3718 164.719 48.1835ZM165.107 47.4465C166.81 47.449 168.526 47.3574 170.183 46.9406C170.173 46.9431 170.162 46.9456 170.152 46.9481C172.275 46.4409 174.343 45.7491 176.402 45.0335C176.39 45.0386 176.377 45.0436 176.366 45.0473C176.446 45.016 176.523 44.9846 176.605 44.9532C176.598 44.9557 176.591 44.9582 176.584 44.9607C176.618 44.9482 176.652 44.9344 176.685 44.9205C176.679 44.9231 176.674 44.9243 176.669 44.9268C177.459 44.6017 178.23 44.2288 178.979 43.817C178.977 43.8183 178.976 43.8195 178.973 43.8208C184.251 40.6495 187.981 33.2235 189.108 27.3142C189.107 27.3292 189.104 27.343 189.102 27.3581C189.264 26.2709 189.385 25.1749 189.392 24.0738C189.392 24.0877 189.392 24.1027 189.392 24.1165C189.506 20.0828 188.055 16.0088 185.6 12.8238C185.601 12.825 185.601 12.8263 185.602 12.8263C185.593 12.815 185.583 12.8024 185.574 12.7911C185.577 12.7949 185.579 12.7987 185.583 12.8024C181.72 7.49441 175.317 4.67467 168.868 4.28674C168.882 4.28799 168.896 4.28925 168.91 4.2905C168.056 4.23401 167.197 4.20388 166.344 4.26916C166.345 4.26916 166.346 4.26916 166.347 4.26916C164.594 4.41731 162.895 4.94459 161.252 5.55474C161.26 5.55223 161.267 5.54846 161.276 5.54595C159.186 6.37078 157.232 7.55969 155.417 8.87791C155.419 8.8754 155.422 8.87414 155.424 8.87163C152.956 10.7448 150.978 13.2192 149.381 15.8569C149.382 15.8557 149.382 15.8544 149.383 15.8544C148.089 18.3578 147.244 21.1738 147.202 24.001C147.202 23.9872 147.202 23.9747 147.204 23.9609C146.886 27.7762 148.081 31.4559 149.39 34.995C149.39 34.9937 149.389 34.9937 149.389 34.9925C149.988 36.3835 150.624 37.7632 151.342 39.0965C151.34 39.0928 151.337 39.0877 151.335 39.084C151.341 39.0953 151.347 39.1053 151.353 39.1166C151.35 39.1103 151.347 39.1053 151.343 39.099C153.212 42.1899 155.166 44.5175 158.588 45.9312C159.04 46.235 160.627 46.3869 160.643 46.9117C162.122 47.1377 163.608 47.385 165.107 47.4465Z" fill="#231F20"/>
</svg>
