<svg width="270" height="222" viewBox="0 0 270 222" fill="none" xmlns="http://www.w3.org/2000/svg">
<g clip-path="url(#clip0_88_2863)">
<path d="M0 9.99999C0 4.47715 4.47715 0 10 0H260C265.523 0 270 4.47715 270 10V212C270 217.523 265.523 222 260 222H9.99999C4.47715 222 0 217.523 0 212V9.99999Z" fill="#001D42"/>
<path fill-rule="evenodd" clip-rule="evenodd" d="M20.852 -12.6248C20.5594 -12.3861 18.521 -8.948 18.4877 -8.63714C18.4379 -8.17311 18.6647 -7.99293 20.7299 -6.85622C22.6696 -5.78848 22.7032 -5.77417 23.0444 -5.86559C23.5461 -6.00001 23.7796 -6.40409 23.6453 -6.90526C23.5509 -7.25746 23.5204 -7.28358 22.5568 -7.83611L21.5653 -8.40459L22.1255 -8.55318C23.3625 -8.8812 25.4517 -9.02641 26.9224 -8.88662C31.4049 -8.46043 35.261 -6.29839 37.8157 -2.7788C39.5123 -0.441578 40.47 2.52788 40.4843 5.49476C40.4981 8.37177 39.5242 11.4729 37.8738 13.8067C37.1405 14.8437 37.1155 15.2956 37.7724 15.6411C37.9938 15.7576 38.1457 15.774 38.3926 15.7078C38.7798 15.6041 38.9423 15.4183 39.7322 14.1761C42.9727 9.07973 43.1315 2.72158 40.147 -2.44363C36.8269 -8.18982 30.2865 -11.3696 23.4736 -10.5497C22.9991 -10.4927 22.4188 -10.395 22.1841 -10.3328C21.3079 -10.1003 21.3 -10.1164 21.8384 -11.0363C22.2811 -11.7926 22.3118 -11.8819 22.2325 -12.178C22.0705 -12.7825 21.3363 -13.0202 20.852 -12.6248ZM12.006 -4.10354C11.7854 -3.98858 11.4949 -3.60721 10.8435 -2.57757C8.85402 0.567015 8.03595 4.09136 8.41968 7.86433C8.53795 9.02806 9.11563 11.1892 9.61229 12.3262C12.2832 18.4417 18.4062 22.3128 25.2695 22.2252C26.1629 22.2137 27.8578 22.0298 28.4034 21.885C29.3016 21.6466 29.3089 21.6605 28.7689 22.5834C28.3286 23.3355 28.2957 23.43 28.3735 23.7203C28.5379 24.3338 29.2282 24.5702 29.7278 24.1841C30.0335 23.9477 32.0836 20.5192 32.1196 20.1842C32.1693 19.7201 31.9425 19.5399 29.8774 18.4032C27.9376 17.3355 27.904 17.3212 27.5628 17.4126C27.0612 17.547 26.8277 17.9511 26.9619 18.4523C27.0563 18.8045 27.0869 18.8306 28.0505 19.3831L29.0419 19.9516L28.4925 20.0988C28.1903 20.1798 27.5405 20.2956 27.0485 20.3562C20.5274 21.1587 14.4863 18.0175 11.5664 12.3059C11.185 11.56 11.0757 11.245 10.6609 9.697C10.2461 8.14902 10.1833 7.82158 10.1406 6.98497C9.97214 3.68554 10.8664 0.444779 12.6606 -2.14739C13.2713 -3.02976 13.3996 -3.383 13.231 -3.71801C13.0266 -4.12417 12.4149 -4.31668 12.006 -4.10354ZM21.2048 -2.81634C20.0513 -2.28023 18.7428 -1.30701 17.8848 -0.347068C17.3617 0.238277 16.5318 1.56287 16.2022 2.33891C15.8745 3.11048 15.5617 4.44323 15.499 5.33577C15.3612 7.29523 15.9501 9.46306 17.0606 11.0853C17.9073 12.3219 18.8303 13.1775 20.1346 13.9347C21.5647 14.7648 22.9767 15.1872 24.6191 15.2764C26.6568 15.3872 28.9066 14.7931 30.604 13.6961C32.7753 12.2928 34.3528 10.0687 34.8929 7.64897C35.4448 5.17623 34.9688 2.60598 33.5685 0.497842C31.6496 -2.3911 28.0966 -4.04048 24.5231 -3.70122C23.6325 -3.61664 21.9771 -3.17523 21.2048 -2.81634ZM25.2601 -2.01348C26.8451 -2.02698 27.9898 -1.73688 29.3647 -0.973441C30.7567 -0.200545 31.5804 0.599126 32.3788 1.95274C32.8481 2.74849 33.3456 4.51352 33.3524 5.40763C33.3643 6.96553 33.0169 8.21842 32.1933 9.58729C31.1199 11.3713 29.7251 12.4869 27.7549 13.1371C24.5262 14.2026 20.923 13.1563 18.8658 10.5557C18.2026 9.71734 17.8795 9.04546 17.5634 7.84752C17.2332 6.59689 17.1896 6.02686 17.3378 4.90025C17.5929 2.96025 18.7821 0.920258 20.3553 -0.276206C21.4228 -1.08799 22.2043 -1.45095 23.585 -1.77636C24.2454 -1.93193 24.7933 -2.00958 25.2601 -2.01348Z" fill="white" fill-opacity="0.08"/>
<path d="M29.196 6.56233C28.7194 4.78376 27.2832 4.62201 25.8005 4.71165L25.0163 4.76576C23.8585 4.85205 23.6909 4.56653 23.5803 4.15385C23.4368 3.61834 23.8513 3.16424 24.6894 2.93968C25.6819 2.67374 26.0651 3.08652 26.2674 3.41948L26.2855 3.44679C26.4947 3.72834 26.8351 3.83851 27.1971 3.74153C27.2908 3.71642 27.3713 3.68004 27.431 3.65086C27.7995 3.47223 27.9901 3.10148 27.8955 2.74827C27.872 2.66066 27.8323 2.57822 27.7766 2.50263C27.4122 1.93863 26.5926 1.11681 24.9835 1.31022L24.6998 0.251504C24.4636 -0.630323 23.0316 -0.246626 23.2679 0.635201L23.5533 1.70024C21.956 2.39752 21.6357 3.65402 21.8909 4.60612C22.355 6.33846 23.7351 6.48631 25.0219 6.40202L25.8722 6.35118C27.0804 6.26877 27.36 6.5033 27.5002 7.02632C27.6714 7.66546 27.2133 8.19655 26.2742 8.44819C25.055 8.77487 24.6646 8.31191 24.3391 7.76204C24.1538 7.4591 23.7888 7.32977 23.4087 7.43162C23.3258 7.45383 23.2621 7.48226 23.1855 7.51698L23.1626 7.52794C22.7936 7.72328 22.6099 8.09255 22.7047 8.44651C22.7227 8.5138 22.7504 8.56772 22.7729 8.61125L22.7994 8.66087C23.1307 9.19001 23.8584 10.3445 25.8806 10.1037L26.1775 11.2118C26.2957 11.653 26.7174 11.7876 27.0734 11.6922C27.4293 11.5968 27.7277 11.2693 27.6094 10.8281L27.3177 9.73942C28.8116 9.13097 29.5587 7.90974 29.1976 6.56211" fill="white" fill-opacity="0.08"/>
<path fill-rule="evenodd" clip-rule="evenodd" d="M-7.12017 54.9163C-7.41277 55.1551 -9.45115 58.5931 -9.48454 58.904C-9.53427 59.368 -9.30749 59.5482 -7.24231 60.6849C-5.30256 61.7527 -5.26898 61.767 -4.92778 61.6756C-4.42612 61.5411 -4.1926 61.1371 -4.32689 60.6359C-4.42126 60.2837 -4.45182 60.2576 -5.41544 59.705L-6.40689 59.1366L-5.84668 58.988C-4.60967 58.66 -2.52053 58.5147 -1.04975 58.6545C3.43269 59.0807 7.28879 61.2428 9.84352 64.7624C11.5401 67.0996 12.4978 70.069 12.5121 73.0359C12.526 75.9129 11.552 79.014 9.90161 81.3478C9.16827 82.3848 9.1433 82.8368 9.80015 83.1822C10.0216 83.2988 10.1736 83.3151 10.4204 83.249C10.8076 83.1452 10.9701 82.9594 11.76 81.7172C15.0005 76.6209 15.1593 70.2627 12.1748 65.0975C8.85472 59.3513 2.31427 56.1716 -4.49854 56.9914C-4.97311 57.0485 -5.5534 57.1462 -5.78809 57.2084C-6.66432 57.4408 -6.6722 57.4248 -6.13382 56.5048C-5.69114 55.7486 -5.66036 55.6593 -5.73972 55.3632C-5.90169 54.7587 -6.63591 54.521 -7.12017 54.9163ZM-15.9662 63.4376C-16.1867 63.5526 -16.4773 63.9339 -17.1287 64.9636C-19.1182 68.1082 -19.9362 71.6325 -19.5525 75.4055C-19.4342 76.5692 -18.8566 78.7303 -18.3599 79.8674C-15.689 85.9829 -9.56603 89.854 -2.70267 89.7663C-1.8093 89.7549 -0.114433 89.571 0.431211 89.4261C1.32943 89.1878 1.33672 89.2017 0.796675 90.1245C0.356373 90.8766 0.32354 90.9712 0.401304 91.2614C0.565702 91.875 1.25603 92.1114 1.75555 91.7253C2.0613 91.4889 4.11144 88.0603 4.1474 87.7253C4.19713 87.2613 3.97036 87.0811 1.90518 85.9444C-0.0345764 84.8766 -0.0681458 84.8623 -0.409349 84.9538C-0.911016 85.0882 -1.14455 85.4922 -1.01026 85.9934C-0.915886 86.3456 -0.885328 86.3717 0.0782909 86.9243L1.06975 87.4928L0.520308 87.64C0.218124 87.7209 -0.431641 87.8367 -0.923708 87.8973C-7.44474 88.6999 -13.4859 85.5586 -16.4058 79.847C-16.7872 79.1011 -16.8965 78.7862 -17.3113 77.2382C-17.7261 75.6902 -17.7889 75.3627 -17.8316 74.5261C-18.0001 71.2267 -17.1058 67.9859 -15.3116 65.3938C-14.7009 64.5114 -14.5726 64.1582 -14.7412 63.8232C-14.9456 63.417 -15.5573 63.2245 -15.9662 63.4376ZM-6.76741 64.7248C-7.92093 65.2609 -9.22939 66.2341 -10.0874 67.1941C-10.6105 67.7794 -11.4404 69.1041 -11.77 69.8801C-12.0977 70.6517 -12.4105 71.9844 -12.4732 72.8769C-12.611 74.8364 -12.0221 77.0042 -10.9116 78.6264C-10.0649 79.863 -9.14189 80.7186 -7.83755 81.4758C-6.40751 82.3059 -4.99549 82.7284 -3.35306 82.8176C-1.31541 82.9284 0.934366 82.3343 2.63179 81.2373C4.80314 79.8339 6.38056 77.6099 6.92067 75.1901C7.47258 72.7174 6.99663 70.1471 5.59628 68.039C3.67735 65.15 0.124445 63.5007 -3.44905 63.84C-4.33968 63.9245 -5.99515 64.3659 -6.76741 64.7248ZM-2.71207 65.5277C-1.12707 65.5142 0.0175838 65.8043 1.39255 66.5677C2.78448 67.3406 3.60816 68.1403 4.40655 69.4939C4.87592 70.2897 5.37338 72.0547 5.3802 72.9488C5.39211 74.5067 5.04468 75.7596 4.22116 77.1284C3.14771 78.9125 1.75287 80.028 -0.217272 80.6783C-3.44602 81.7438 -7.04917 80.6975 -9.10639 78.0969C-9.76958 77.2585 -10.0927 76.5866 -10.4088 75.3887C-10.739 74.138 -10.7826 73.568 -10.6344 72.4414C-10.3793 70.5014 -9.1901 68.4614 -7.61689 67.2649C-6.54941 66.4532 -5.76789 66.0902 -4.38724 65.7648C-3.72682 65.6092 -3.17889 65.5316 -2.71207 65.5277Z" fill="white" fill-opacity="0.08"/>
<path d="M1.22381 74.1035C0.74725 72.3249 -0.688961 72.1632 -2.17171 72.2528L-2.95586 72.3069C-4.11371 72.3932 -4.28133 72.1077 -4.39191 71.695C-4.5354 71.1595 -4.12085 70.7054 -3.28276 70.4809C-2.29027 70.2149 -1.90711 70.6277 -1.70481 70.9606L-1.68672 70.9879C-1.47748 71.2695 -1.13708 71.3797 -0.775133 71.2827C-0.68141 71.2576 -0.600857 71.2212 -0.541155 71.192C-0.172716 71.0134 0.0179062 70.6427 -0.0767384 70.2895C-0.100212 70.2018 -0.139906 70.1194 -0.195574 70.0438C-0.56003 69.4798 -1.37964 68.658 -2.98868 68.8514L-3.27236 67.7927C-3.50864 66.9108 -4.94056 67.2945 -4.70427 68.1764L-4.4189 69.2414C-6.01616 69.9387 -6.33645 71.1952 -6.08133 72.1473C-5.61715 73.8796 -4.23709 74.0275 -2.95029 73.9432L-2.10002 73.8924C-0.891834 73.81 -0.612144 74.0444 -0.472002 74.5675C-0.300745 75.2066 -0.758877 75.7377 -1.69803 75.9894C-2.91719 76.316 -3.30758 75.8531 -3.63304 75.3032C-3.8184 75.0002 -4.1834 74.8709 -4.56351 74.9728C-4.64641 74.995 -4.71003 75.0234 -4.78668 75.0581L-4.80965 75.0691C-5.17858 75.2644 -5.36235 75.6337 -5.2675 75.9877C-5.24947 76.055 -5.22178 76.1089 -5.19934 76.1524L-5.17278 76.202C-4.84148 76.7312 -4.11378 77.8857 -2.0916 77.6449L-1.79468 78.753C-1.67646 79.1942 -1.25476 79.3287 -0.898806 79.2333C-0.542852 79.138 -0.244532 78.8105 -0.362749 78.3693L-0.654482 77.2806C0.839413 76.6721 1.5865 75.4509 1.2254 74.1033" fill="white" fill-opacity="0.08"/>
<path fill-rule="evenodd" clip-rule="evenodd" d="M78.8472 31.8815C78.5546 32.1202 76.5163 35.5583 76.4829 35.8691C76.4331 36.3331 76.6599 36.5133 78.7251 37.65C80.6648 38.7178 80.6984 38.7321 81.0396 38.6407C81.5413 38.5062 81.7748 38.1022 81.6405 37.601C81.5462 37.2488 81.5156 37.2227 80.552 36.6701L79.5605 36.1017L80.1207 35.9531C81.3577 35.6251 83.4469 35.4798 84.9176 35.6196C89.4001 36.0458 93.2562 38.2079 95.8109 41.7275C97.5075 44.0647 98.4652 47.0341 98.4795 50.001C98.4933 52.878 97.5194 55.9791 95.869 58.313C95.1357 59.35 95.1107 59.8019 95.7676 60.1474C95.989 60.2639 96.1409 60.2802 96.3878 60.2141C96.775 60.1103 96.9375 59.9245 97.7274 58.6823C100.968 53.586 101.127 47.2278 98.1422 42.0626C94.8221 36.3164 88.2817 33.1367 81.4689 33.9565C80.9943 34.0136 80.414 34.1113 80.1793 34.1735C79.3031 34.4059 79.2952 34.3899 79.8336 33.4699C80.2763 32.7137 80.3071 32.6244 80.2277 32.3282C80.0657 31.7238 79.3315 31.4861 78.8472 31.8815ZM70.0012 40.4027C69.7807 40.5177 69.4901 40.899 68.8387 41.9287C66.8492 45.0732 66.0312 48.5976 66.4149 52.3706C66.5332 53.5343 67.1108 55.6954 67.6075 56.8325C70.2785 62.948 76.4014 66.8191 83.2647 66.7314C84.1581 66.72 85.853 66.5361 86.3986 66.3912C87.2968 66.1529 87.3041 66.1668 86.7641 67.0896C86.3238 67.8418 86.2909 67.9363 86.3687 68.2265C86.5331 68.8401 87.2234 69.0765 87.723 68.6904C88.0287 68.454 90.0788 65.0255 90.1148 64.6904C90.1645 64.2264 89.9378 64.0462 87.8726 62.9095C85.9328 61.8418 85.8992 61.8275 85.558 61.9189C85.0564 62.0533 84.8229 62.4574 84.9572 62.9585C85.0515 63.3107 85.0821 63.3368 86.0457 63.8894L87.0372 64.4578L86.4877 64.6051C86.1855 64.686 85.5358 64.8019 85.0437 64.8624C78.5227 65.665 72.4815 62.5237 69.5616 56.8121C69.1803 56.0662 69.0709 55.7513 68.6561 54.2033C68.2413 52.6553 68.1785 52.3278 68.1358 51.4912C67.9673 48.1918 68.8616 44.951 70.6558 42.3589C71.2665 41.4765 71.3948 41.1233 71.2262 40.7882C71.0219 40.3821 70.4101 40.1896 70.0012 40.4027ZM79.2 41.6899C78.0465 42.226 76.738 43.1992 75.88 44.1592C75.3569 44.7445 74.527 46.0691 74.1974 46.8452C73.8697 47.6167 73.5569 48.9495 73.4942 49.842C73.3564 51.8015 73.9453 53.9693 75.0558 55.5915C75.9025 56.8281 76.8255 57.6837 78.1299 58.4409C79.5599 59.271 80.9719 59.6935 82.6143 59.7827C84.652 59.8935 86.9018 59.2994 88.5992 58.2024C90.7705 56.799 92.3479 54.575 92.8881 52.1552C93.44 49.6825 92.964 47.1122 91.5637 45.0041C89.6448 42.1151 86.0918 40.4658 82.5183 40.805C81.6277 40.8896 79.9722 41.331 79.2 41.6899ZM83.2553 42.4928C84.8403 42.4793 85.985 42.7694 87.3599 43.5328C88.7519 44.3057 89.5756 45.1054 90.374 46.459C90.8433 47.2547 91.3408 49.0198 91.3476 49.9139C91.3595 51.4718 91.0121 52.7247 90.1886 54.0935C89.1151 55.8776 87.7203 56.9931 85.7501 57.6434C82.5214 58.7089 78.9182 57.6626 76.861 55.0619C76.1978 54.2236 75.8747 53.5517 75.5585 52.3538C75.2284 51.1032 75.1848 50.5331 75.333 49.4065C75.5881 47.4665 76.7773 45.4265 78.3505 44.2301C79.418 43.4183 80.1995 43.0553 81.5802 42.7299C82.2406 42.5743 82.7885 42.4967 83.2553 42.4928Z" fill="white" fill-opacity="0.08"/>
<path d="M87.1912 51.0686C86.7146 49.29 85.2785 49.1283 83.7957 49.2179L83.0116 49.272C81.8537 49.3583 81.6861 49.0728 81.5755 48.6601C81.432 48.1246 81.8465 47.6705 82.6846 47.4459C83.6771 47.18 84.0603 47.5928 84.2626 47.9257L84.2807 47.9531C84.4899 48.2346 84.8303 48.3447 85.1923 48.2478C85.286 48.2227 85.3665 48.1863 85.4262 48.1571C85.7947 47.9785 85.9853 47.6077 85.8907 47.2545C85.8672 47.1669 85.8275 47.0845 85.7718 47.0089C85.4074 46.4449 84.5878 45.6231 82.9787 45.8165L82.695 44.7578C82.4588 43.8759 81.0268 44.2596 81.2631 45.1414L81.5485 46.2065C79.9512 46.9038 79.631 48.1603 79.8861 49.1124C80.3502 50.8447 81.7303 50.9926 83.0171 50.9083L83.8674 50.8574C85.0756 50.775 85.3552 51.0096 85.4954 51.5326C85.6666 52.1717 85.2085 52.7028 84.2694 52.9545C83.0502 53.2811 82.6598 52.8182 82.3344 52.2683C82.149 51.9654 81.784 51.836 81.4039 51.9379C81.321 51.9601 81.2574 51.9885 81.1807 52.0232L81.1577 52.0342C80.7888 52.2296 80.6051 52.5988 80.6999 52.9528C80.7179 53.0201 80.7456 53.074 80.7681 53.1175L80.7946 53.1671C81.1259 53.6963 81.8536 54.8508 83.8758 54.61L84.1727 55.7181C84.2909 56.1593 84.7126 56.2938 85.0686 56.1984C85.4245 56.1031 85.7229 55.7756 85.6046 55.3344L85.3129 54.2457C86.8068 53.6372 87.5539 52.416 87.1928 51.0684" fill="white" fill-opacity="0.08"/>
<path fill-rule="evenodd" clip-rule="evenodd" d="M164.815 8.84654C164.522 9.08529 162.484 12.5233 162.45 12.8342C162.401 13.2982 162.627 13.4784 164.692 14.6151C166.632 15.6829 166.666 15.6972 167.007 15.6058C167.509 15.4713 167.742 15.0673 167.608 14.5661C167.514 14.2139 167.483 14.1878 166.519 13.6352L165.528 13.0668L166.088 12.9182C167.325 12.5901 169.414 12.4449 170.885 12.5847C175.367 13.0109 179.224 15.173 181.778 18.6925C183.475 21.0298 184.433 23.9992 184.447 26.9661C184.461 29.8431 183.487 32.9442 181.836 35.278C181.103 36.315 181.078 36.767 181.735 37.1124C181.956 37.229 182.108 37.2453 182.355 37.1791C182.742 37.0754 182.905 36.8896 183.695 35.6474C186.935 30.5511 187.094 24.1929 184.11 19.0277C180.79 13.2815 174.249 10.1018 167.436 10.9216C166.962 10.9787 166.381 11.0764 166.147 11.1386C165.27 11.3711 165.263 11.3549 165.801 10.435C166.244 9.67876 166.274 9.58952 166.195 9.29335C166.033 8.68888 165.299 8.45118 164.815 8.84654ZM155.969 17.3678C155.748 17.4828 155.457 17.8641 154.806 18.8938C152.817 22.0384 151.999 25.5627 152.382 29.3357C152.501 30.4994 153.078 32.6605 153.575 33.7976C156.246 39.9131 162.369 43.7842 169.232 43.6965C170.125 43.6851 171.82 43.5012 172.366 43.3563C173.264 43.118 173.272 43.1319 172.731 44.0547C172.291 44.8069 172.258 44.9014 172.336 45.1916C172.5 45.8051 173.191 46.0416 173.69 45.6555C173.996 45.4191 176.046 41.9905 176.082 41.6555C176.132 41.1915 175.905 41.0113 173.84 39.8746C171.9 38.8068 171.867 38.7925 171.525 38.884C171.024 39.0184 170.79 39.4224 170.925 39.9236C171.019 40.2758 171.049 40.3019 172.013 40.8545L173.005 41.423L172.455 41.5702C172.153 41.6511 171.503 41.767 171.011 41.8275C164.49 42.6301 158.449 39.4888 155.529 33.7772C155.148 33.0313 155.038 32.7164 154.624 31.1684C154.209 29.6204 154.146 29.2929 154.103 28.4563C153.935 25.1569 154.829 21.9161 156.623 19.324C157.234 18.4416 157.362 18.0884 157.194 17.7534C156.989 17.3472 156.378 17.1547 155.969 17.3678ZM165.167 18.655C164.014 19.1911 162.705 20.1643 161.847 21.1243C161.324 21.7096 160.494 23.0343 160.165 23.8103C159.837 24.5819 159.524 25.9146 159.462 26.8071C159.324 28.7666 159.913 30.9344 161.023 32.5566C161.87 33.7932 162.793 34.6488 164.097 35.406C165.527 36.2361 166.939 36.6586 168.582 36.7478C170.619 36.8586 172.869 36.2645 174.567 35.1675C176.738 33.7641 178.315 31.5401 178.855 29.1203C179.407 26.6476 178.931 24.0773 177.531 21.9692C175.612 19.0802 172.059 17.4309 168.486 17.7702C167.595 17.8547 165.94 18.2961 165.167 18.655ZM169.223 19.4579C170.808 19.4444 171.952 19.7345 173.327 20.4979C174.719 21.2708 175.543 22.0705 176.341 23.4241C176.811 24.2199 177.308 25.9849 177.315 26.879C177.327 28.4369 176.979 29.6898 176.156 31.0586C175.082 32.8427 173.688 33.9582 171.717 34.6085C168.489 35.674 164.886 34.6277 162.828 32.0271C162.165 31.1887 161.842 30.5168 161.526 29.3189C161.196 28.0682 161.152 27.4982 161.3 26.3716C161.555 24.4316 162.745 22.3916 164.318 21.1951C165.385 20.3834 166.167 20.0204 167.548 19.695C168.208 19.5394 168.756 19.4618 169.223 19.4579Z" fill="white" fill-opacity="0.08"/>
<path d="M173.159 28.0337C172.682 26.2551 171.246 26.0934 169.763 26.183L168.979 26.2371C167.821 26.3234 167.653 26.0379 167.543 25.6252C167.399 25.0897 167.814 24.6356 168.652 24.4111C169.645 24.1451 170.028 24.5579 170.23 24.8908L170.248 24.9181C170.457 25.1997 170.798 25.3099 171.16 25.2129C171.253 25.1878 171.334 25.1514 171.394 25.1222C171.762 24.9436 171.953 24.5729 171.858 24.2196C171.835 24.132 171.795 24.0496 171.739 23.974C171.375 23.41 170.555 22.5882 168.946 22.7816L168.662 21.7229C168.426 20.841 166.994 21.2247 167.23 22.1065L167.516 23.1716C165.919 23.8689 165.598 25.1254 165.853 26.0775C166.318 27.8098 167.698 27.9577 168.984 27.8734L169.835 27.8226C171.043 27.7401 171.323 27.9746 171.463 28.4977C171.634 29.1368 171.176 29.6679 170.237 29.9196C169.018 30.2462 168.627 29.7833 168.302 29.2334C168.116 28.9305 167.751 28.8011 167.371 28.903C167.288 28.9252 167.225 28.9536 167.148 28.9884L167.125 28.9993C166.756 29.1946 166.572 29.5639 166.667 29.9179C166.685 29.9851 166.713 30.0391 166.735 30.0826L166.762 30.1322C167.093 30.6614 167.821 31.8159 169.843 31.5751L170.14 32.6832C170.258 33.1244 170.68 33.2589 171.036 33.1635C171.392 33.0681 171.69 32.7407 171.572 32.2995L171.28 31.2108C172.774 30.6023 173.521 29.3811 173.16 28.0335" fill="white" fill-opacity="0.08"/>
<path fill-rule="evenodd" clip-rule="evenodd" d="M250.782 -14.1883C250.489 -13.9496 248.451 -10.5115 248.418 -10.2007C248.368 -9.73665 248.595 -9.55647 250.66 -8.41976C252.6 -7.35201 252.633 -7.3377 252.974 -7.42913C253.476 -7.56355 253.71 -7.96762 253.575 -8.4688C253.481 -8.821 253.45 -8.84712 252.487 -9.39965L251.495 -9.96813L252.056 -10.1167C253.293 -10.4447 255.382 -10.59 256.852 -10.4502C261.335 -10.024 265.191 -7.86192 267.746 -4.34234C269.442 -2.00512 270.4 0.964342 270.414 3.93122C270.428 6.80823 269.454 9.90932 267.804 12.2431C267.07 13.2801 267.045 13.7321 267.702 14.0776C267.924 14.1941 268.076 14.2104 268.323 14.1443C268.71 14.0405 268.872 13.8547 269.662 12.6125C272.903 7.5162 273.061 1.15805 270.077 -4.00716C266.757 -9.75336 260.216 -12.9331 253.404 -12.1132C252.929 -12.0562 252.349 -11.9585 252.114 -11.8963C251.238 -11.6639 251.23 -11.6799 251.768 -12.5999C252.211 -13.3561 252.242 -13.4454 252.162 -13.7416C252.001 -14.346 251.266 -14.5837 250.782 -14.1883ZM241.936 -5.66708C241.715 -5.55212 241.425 -5.17078 240.773 -4.14114C238.784 -0.996553 237.966 2.52782 238.35 6.30079C238.468 7.46453 239.046 9.62563 239.542 10.7627C242.213 16.8782 248.336 20.7493 255.2 20.6616C256.093 20.6502 257.788 20.4663 258.333 20.3214C259.232 20.0831 259.239 20.097 258.699 21.0198C258.259 21.772 258.226 21.8665 258.303 22.1567C258.468 22.7703 259.158 23.0067 259.658 22.6206C259.964 22.3842 262.014 18.9557 262.05 18.6206C262.099 18.1566 261.873 17.9764 259.807 16.8397C257.868 15.772 257.834 15.7576 257.493 15.8491C256.991 15.9835 256.758 16.3876 256.892 16.8887C256.986 17.2409 257.017 17.2671 257.98 17.8196L258.972 18.388L258.422 18.5353C258.12 18.6163 257.471 18.732 256.978 18.7926C250.457 19.5952 244.416 16.4539 241.496 10.7423C241.115 9.99641 241.006 9.68145 240.591 8.13346C240.176 6.58548 240.113 6.25804 240.071 5.42143C239.902 2.122 240.796 -1.11876 242.591 -3.71093C243.201 -4.5933 243.33 -4.94654 243.161 -5.28155C242.957 -5.68771 242.345 -5.88022 241.936 -5.66708ZM251.135 -4.37987C249.981 -3.84376 248.673 -2.87055 247.815 -1.91061C247.292 -1.32526 246.462 -0.000664711 246.132 0.775369C245.804 1.54694 245.492 2.87969 245.429 3.77223C245.291 5.73169 245.88 7.89949 246.991 9.52171C247.837 10.7583 248.76 11.6139 250.065 12.3711C251.495 13.2012 252.907 13.6237 254.549 13.7129C256.587 13.8237 258.837 13.2296 260.534 12.1326C262.705 10.7292 264.283 8.50519 264.823 6.08543C265.375 3.61269 264.899 1.04241 263.498 -1.06573C261.58 -3.95467 258.027 -5.60402 254.453 -5.26476C253.562 -5.18018 251.907 -4.73877 251.135 -4.37987ZM255.19 -3.57702C256.775 -3.59052 257.92 -3.30042 259.295 -2.53698C260.687 -1.76408 261.51 -0.964413 262.309 0.389199C262.778 1.18495 263.276 2.94998 263.282 3.8441C263.294 5.40199 262.947 6.65488 262.123 8.02375C261.05 9.80781 259.655 10.9233 257.685 11.5736C254.456 12.6391 250.853 11.5928 248.796 8.99214C248.133 8.1538 247.809 7.48192 247.493 6.28398C247.163 5.03335 247.12 4.46332 247.268 3.33671C247.523 1.39671 248.712 -0.64328 250.285 -1.83974C251.353 -2.65153 252.134 -3.01448 253.515 -3.3399C254.175 -3.49547 254.723 -3.57312 255.19 -3.57702Z" fill="white" fill-opacity="0.08"/>
<path d="M259.126 4.99879C258.649 3.22022 257.213 3.05847 255.73 3.14811L254.946 3.20222C253.788 3.28852 253.621 3.00299 253.51 2.59031C253.367 2.0548 253.781 1.6007 254.619 1.37614C255.612 1.1102 255.995 1.52298 256.197 1.85594L256.215 1.88325C256.425 2.1648 256.765 2.27497 257.127 2.17799C257.221 2.15288 257.301 2.1165 257.361 2.08732C257.729 1.90869 257.92 1.53795 257.825 1.18473C257.802 1.09713 257.762 1.01468 257.707 0.939095C257.342 0.375093 256.523 -0.446725 254.914 -0.253318L254.63 -1.31203C254.394 -2.19386 252.962 -1.81016 253.198 -0.928336L253.483 0.136697C251.886 0.833981 251.566 2.09048 251.821 3.04258C252.285 4.77492 253.665 4.92277 254.952 4.83848L255.802 4.78764C257.01 4.70523 257.29 4.93976 257.43 5.46278C257.601 6.10192 257.143 6.63301 256.204 6.88465C254.985 7.21133 254.595 6.74838 254.269 6.1985C254.084 5.89556 253.719 5.76624 253.339 5.86808C253.256 5.8903 253.192 5.91872 253.115 5.95344L253.093 5.9644C252.724 6.15974 252.54 6.52901 252.635 6.88298C252.653 6.95027 252.68 7.00418 252.703 7.04771L252.729 7.09733C253.061 7.62647 253.788 8.78095 255.811 8.54017L256.108 9.6483C256.226 10.0895 256.647 10.224 257.003 10.1286C257.359 10.0333 257.658 9.70579 257.539 9.2646L257.248 8.17588C258.742 7.56743 259.489 6.3462 259.128 4.99858" fill="white" fill-opacity="0.08"/>
<path fill-rule="evenodd" clip-rule="evenodd" d="M50.875 99.4226C50.5824 99.6613 48.5441 103.099 48.5107 103.41C48.4609 103.874 48.6877 104.054 50.7529 105.191C52.6927 106.259 52.7262 106.273 53.0674 106.182C53.5691 106.047 53.8026 105.643 53.6683 105.142C53.574 104.79 53.5434 104.764 52.5798 104.211L51.5883 103.643L52.1485 103.494C53.3855 103.166 55.4747 103.021 56.9454 103.161C61.4279 103.587 65.284 105.749 67.8387 109.269C69.5353 111.606 70.493 114.575 70.5073 117.542C70.5211 120.419 69.5472 123.52 67.8968 125.854C67.1635 126.891 67.1385 127.343 67.7954 127.689C68.0168 127.805 68.1687 127.821 68.4156 127.755C68.8028 127.651 68.9653 127.466 69.7552 126.223C72.9957 121.127 73.1545 114.769 70.17 109.604C66.8499 103.858 60.3095 100.678 53.4967 101.498C53.0221 101.555 52.4418 101.652 52.2071 101.715C51.3309 101.947 51.323 101.931 51.8614 101.011C52.3041 100.255 52.3349 100.166 52.2555 99.8694C52.0935 99.2649 51.3593 99.0272 50.875 99.4226ZM42.029 107.944C41.8085 108.059 41.5179 108.44 40.8665 109.47C38.877 112.614 38.059 116.139 38.4427 119.912C38.561 121.076 39.1386 123.237 39.6353 124.374C42.3063 130.489 48.4292 134.36 55.2925 134.273C56.1859 134.261 57.8808 134.077 58.4264 133.932C59.3246 133.694 59.3319 133.708 58.7919 134.631C58.3516 135.383 58.3187 135.477 58.3965 135.768C58.5609 136.381 59.2512 136.618 59.7508 136.232C60.0565 135.995 62.1067 132.567 62.1426 132.232C62.1923 131.768 61.9656 131.587 59.9004 130.451C57.9606 129.383 57.927 129.369 57.5858 129.46C57.0842 129.594 56.8507 129.998 56.985 130.5C57.0793 130.852 57.1099 130.878 58.0735 131.431L59.065 131.999L58.5155 132.146C58.2133 132.227 57.5636 132.343 57.0715 132.404C50.5505 133.206 44.5093 130.065 41.5894 124.353C41.2081 123.607 41.0987 123.292 40.6839 121.744C40.2691 120.196 40.2064 119.869 40.1637 119.032C39.9951 115.733 40.8894 112.492 42.6836 109.9C43.2943 109.018 43.4226 108.664 43.254 108.329C43.0497 107.923 42.438 107.731 42.029 107.944ZM51.2278 109.231C50.0743 109.767 48.7658 110.74 47.9079 111.7C47.3847 112.286 46.5548 113.61 46.2252 114.386C45.8975 115.158 45.5847 116.491 45.522 117.383C45.3842 119.343 45.9731 121.51 47.0836 123.133C47.9303 124.369 48.8533 125.225 50.1577 125.982C51.5877 126.812 52.9997 127.235 54.6422 127.324C56.6798 127.435 58.9296 126.841 60.627 125.744C62.7984 124.34 64.3758 122.116 64.9159 119.696C65.4678 117.224 64.9918 114.653 63.5915 112.545C61.6726 109.656 58.1196 108.007 54.5461 108.346C53.6555 108.431 52 108.872 51.2278 109.231ZM55.2831 110.034C56.8681 110.02 58.0128 110.311 59.3878 111.074C60.7797 111.847 61.6034 112.647 62.4018 114C62.8711 114.796 63.3686 116.561 63.3754 117.455C63.3873 119.013 63.0399 120.266 62.2164 121.635C61.1429 123.419 59.7481 124.534 57.7779 125.185C54.5492 126.25 50.946 125.204 48.8888 122.603C48.2256 121.765 47.9025 121.093 47.5864 119.895C47.2562 118.644 47.2126 118.074 47.3608 116.948C47.6159 115.008 48.8051 112.968 50.3783 111.771C51.4458 110.959 52.2273 110.596 53.608 110.271C54.2684 110.115 54.8163 110.038 55.2831 110.034Z" fill="white" fill-opacity="0.08"/>
<path d="M59.219 118.61C58.7424 116.831 57.3063 116.669 55.8235 116.759L55.0394 116.813C53.8815 116.899 53.7139 116.614 53.6033 116.201C53.4598 115.666 53.8744 115.212 54.7124 114.987C55.7049 114.721 56.0881 115.134 56.2904 115.467L56.3085 115.494C56.5177 115.776 56.8581 115.886 57.2201 115.789C57.3138 115.764 57.3943 115.727 57.454 115.698C57.8225 115.52 58.0131 115.149 57.9185 114.796C57.895 114.708 57.8553 114.626 57.7996 114.55C57.4352 113.986 56.6156 113.164 55.0065 113.358L54.7229 112.299C54.4866 111.417 53.0546 111.801 53.2909 112.683L53.5763 113.748C51.979 114.445 51.6588 115.701 51.9139 116.654C52.378 118.386 53.7581 118.534 55.0449 118.449L55.8952 118.399C57.1034 118.316 57.383 118.551 57.5232 119.074C57.6945 119.713 57.2363 120.244 56.2972 120.496C55.078 120.822 54.6876 120.359 54.3622 119.809C54.1768 119.507 53.8118 119.377 53.4317 119.479C53.3488 119.501 53.2852 119.53 53.2085 119.564L53.1856 119.575C52.8166 119.771 52.6329 120.14 52.7277 120.494C52.7457 120.561 52.7734 120.615 52.7959 120.659L52.8224 120.708C53.1537 121.237 53.8814 122.392 55.9036 122.151L56.2005 123.259C56.3187 123.7 56.7404 123.835 57.0964 123.74C57.4523 123.644 57.7507 123.317 57.6324 122.876L57.3407 121.787C58.8346 121.178 59.5817 119.957 59.2206 118.61" fill="white" fill-opacity="0.08"/>
<path fill-rule="evenodd" clip-rule="evenodd" d="M136.842 76.3877C136.55 76.6264 134.511 80.0645 134.478 80.3754C134.428 80.8394 134.655 81.0196 136.72 82.1563C138.66 83.224 138.694 83.2384 139.035 83.1469C139.536 83.0125 139.77 82.6084 139.636 82.1073C139.541 81.7551 139.511 81.729 138.547 81.1764L137.556 80.6079L138.116 80.4593C139.353 80.1313 141.442 79.9861 142.913 80.1259C147.395 80.5521 151.251 82.7141 153.806 86.2337C155.503 88.5709 156.46 91.5404 156.475 94.5073C156.489 97.3843 155.515 100.485 153.864 102.819C153.131 103.856 153.106 104.308 153.763 104.654C153.984 104.77 154.136 104.786 154.383 104.72C154.77 104.617 154.933 104.431 155.723 103.189C158.963 98.0922 159.122 91.7341 156.137 86.5689C152.817 80.8227 146.277 77.6429 139.464 78.4628C138.989 78.5198 138.409 78.6176 138.174 78.6798C137.298 78.9122 137.29 78.8961 137.829 77.9762C138.271 77.2199 138.302 77.1307 138.223 76.8345C138.061 76.23 137.327 75.9923 136.842 76.3877ZM127.996 84.909C127.776 85.0239 127.485 85.4053 126.834 86.4349C124.844 89.5795 124.026 93.1039 124.41 96.8769C124.528 98.0406 125.106 100.202 125.603 101.339C128.274 107.454 134.397 111.325 141.26 111.238C142.153 111.226 143.848 111.042 144.394 110.897C145.292 110.659 145.299 110.673 144.759 111.596C144.319 112.348 144.286 112.443 144.364 112.733C144.528 113.346 145.219 113.583 145.718 113.197C146.024 112.96 148.074 109.532 148.11 109.197C148.16 108.733 147.933 108.552 145.868 107.416C143.928 106.348 143.894 106.334 143.553 106.425C143.052 106.56 142.818 106.964 142.952 107.465C143.047 107.817 143.077 107.843 144.041 108.396L145.032 108.964L144.483 109.111C144.181 109.192 143.531 109.308 143.039 109.369C136.518 110.171 130.477 107.03 127.557 101.318C127.175 100.573 127.066 100.257 126.651 98.7095C126.237 97.1615 126.174 96.8341 126.131 95.9975C125.963 92.698 126.857 89.4573 128.651 86.8651C129.262 85.9828 129.39 85.6295 129.221 85.2945C129.017 84.8884 128.405 84.6958 127.996 84.909ZM137.195 86.1962C136.042 86.7323 134.733 87.7055 133.875 88.6654C133.352 89.2508 132.522 90.5754 132.193 91.3514C131.865 92.123 131.552 93.4557 131.489 94.3483C131.352 96.3077 131.94 98.4756 133.051 100.098C133.898 101.334 134.821 102.19 136.125 102.947C137.555 103.777 138.967 104.2 140.61 104.289C142.647 104.4 144.897 103.806 146.594 102.709C148.766 101.305 150.343 99.0813 150.883 96.6615C151.435 94.1888 150.959 91.6185 149.559 89.5103C147.64 86.6214 144.087 84.972 140.514 85.3113C139.623 85.3959 137.967 85.8373 137.195 86.1962ZM141.251 86.999C142.836 86.9855 143.98 87.2757 145.355 88.0391C146.747 88.812 147.571 89.6116 148.369 90.9652C148.839 91.761 149.336 93.526 149.343 94.4201C149.355 95.978 149.007 97.2309 148.184 98.5998C147.11 100.384 145.715 101.499 143.745 102.15C140.517 103.215 136.913 102.169 134.856 99.5682C134.193 98.7299 133.87 98.058 133.554 96.86C133.224 95.6094 133.18 95.0394 133.328 93.9128C133.583 91.9728 134.772 89.9328 136.346 88.7363C137.413 87.9245 138.195 87.5615 139.575 87.2361C140.236 87.0806 140.784 87.0029 141.251 86.999Z" fill="white" fill-opacity="0.08"/>
<path d="M145.186 95.5749C144.71 93.7963 143.274 93.6345 141.791 93.7241L141.007 93.7783C139.849 93.8646 139.681 93.579 139.571 93.1663C139.427 92.6308 139.842 92.1767 140.68 91.9522C141.672 91.6862 142.055 92.099 142.258 92.432L142.276 92.4593C142.485 92.7409 142.826 92.851 143.187 92.7541C143.281 92.7289 143.362 92.6925 143.421 92.6634C143.79 92.4847 143.981 92.114 143.886 91.7608C143.862 91.6732 143.823 91.5907 143.767 91.5152C143.403 90.9512 142.583 90.1293 140.974 90.3227L140.69 89.264C140.454 88.3822 139.022 88.7659 139.258 89.6477L139.544 90.7127C137.946 91.41 137.626 92.6665 137.881 93.6186C138.345 95.351 139.725 95.4988 141.012 95.4145L141.863 95.3637C143.071 95.2813 143.35 95.5158 143.491 96.0388C143.662 96.678 143.204 97.2091 142.265 97.4607C141.045 97.7874 140.655 97.3244 140.33 96.7746C140.144 96.4716 139.779 96.3423 139.399 96.4441C139.316 96.4663 139.253 96.4948 139.176 96.5295L139.153 96.5404C138.784 96.7358 138.6 97.105 138.695 97.459C138.713 97.5263 138.741 97.5802 138.763 97.6237L138.79 97.6734C139.121 98.2025 139.849 99.357 141.871 99.1162L142.168 100.224C142.286 100.666 142.708 100.8 143.064 100.705C143.42 100.609 143.718 100.282 143.6 99.8407L143.308 98.7519C144.802 98.1435 145.549 96.9222 145.188 95.5746" fill="white" fill-opacity="0.08"/>
<path fill-rule="evenodd" clip-rule="evenodd" d="M222.81 53.3528C222.517 53.5916 220.479 57.0296 220.445 57.3405C220.396 57.8045 220.622 57.9847 222.688 59.1214C224.627 60.1891 224.661 60.2034 225.002 60.112C225.504 59.9776 225.737 59.5735 225.603 59.0723C225.509 58.7202 225.478 58.694 224.515 58.1415L223.523 57.5731L224.083 57.4244C225.32 57.0964 227.409 56.9512 228.88 57.091C233.363 57.5172 237.219 59.6792 239.773 63.1988C241.47 65.536 242.428 68.5055 242.442 71.4724C242.456 74.3494 241.482 77.4505 239.832 79.7843C239.098 80.8213 239.073 81.2732 239.73 81.6187C239.952 81.7352 240.104 81.7516 240.35 81.6854C240.738 81.5817 240.9 81.3959 241.69 80.1537C244.931 75.0574 245.089 68.6992 242.105 63.534C238.785 57.7878 232.244 54.6081 225.431 55.4279C224.957 55.485 224.377 55.5826 224.142 55.6449C223.266 55.8773 223.258 55.8612 223.796 54.9413C224.239 54.185 224.27 54.0958 224.19 53.7996C224.028 53.1951 223.294 52.9574 222.81 53.3528ZM213.964 61.8741C213.743 61.989 213.453 62.3704 212.801 63.4C210.812 66.5446 209.994 70.069 210.377 73.8419C210.496 75.0057 211.073 77.1668 211.57 78.3039C214.241 84.4193 220.364 88.2904 227.227 88.2028C228.121 88.1914 229.816 88.0074 230.361 87.8626C231.259 87.6242 231.267 87.6381 230.727 88.5609C230.286 89.3131 230.254 89.4076 230.331 89.6978C230.496 90.3114 231.186 90.5479 231.686 90.1618C231.991 89.9254 234.041 86.4968 234.077 86.1618C234.127 85.6977 233.9 85.5176 231.835 84.3809C229.895 83.3131 229.862 83.2988 229.521 83.3902C229.019 83.5246 228.785 83.9287 228.92 84.4299C229.014 84.7821 229.045 84.8082 230.008 85.3607L231 85.9292L230.45 86.0764C230.148 86.1574 229.498 86.2732 229.006 86.3338C222.485 87.1363 216.444 83.9951 213.524 78.2835C213.143 77.5376 213.033 77.2226 212.619 75.6746C212.204 74.1266 212.141 73.7992 212.098 72.9626C211.93 69.6631 212.824 66.4224 214.618 63.8302C215.229 62.9479 215.357 62.5946 215.189 62.2596C214.984 61.8534 214.373 61.6609 213.964 61.8741ZM223.163 63.1613C222.009 63.6974 220.701 64.6706 219.843 65.6305C219.319 66.2159 218.49 67.5405 218.16 68.3165C217.832 69.0881 217.52 70.4208 217.457 71.3134C217.319 73.2728 217.908 75.4407 219.018 77.0629C219.865 78.2995 220.788 79.1551 222.092 79.9123C223.522 80.7424 224.935 81.1649 226.577 81.2541C228.615 81.3648 230.864 80.7707 232.562 79.6738C234.733 78.2704 236.311 76.0464 236.851 73.6266C237.403 71.1539 236.927 68.5836 235.526 66.4755C233.607 63.5865 230.054 61.9371 226.481 62.2764C225.59 62.361 223.935 62.8024 223.163 63.1613ZM227.218 63.9642C228.803 63.9507 229.948 64.2407 231.323 65.0042C232.714 65.7771 233.538 66.5768 234.337 67.9304C234.806 68.7261 235.303 70.4911 235.31 71.3852C235.322 72.9431 234.975 74.196 234.151 75.5649C233.078 77.349 231.683 78.4645 229.713 79.1147C226.484 80.1802 222.881 79.1339 220.824 76.5333C220.16 75.695 219.837 75.0231 219.521 73.8251C219.191 72.5745 219.147 72.0045 219.296 70.8779C219.551 68.9379 220.74 66.8979 222.313 65.7014C223.381 64.8896 224.162 64.5267 225.543 64.2013C226.203 64.0457 226.751 63.9681 227.218 63.9642Z" fill="white" fill-opacity="0.08"/>
<path d="M231.154 72.5399C230.677 70.7614 229.241 70.5996 227.758 70.6893L226.974 70.7434C225.816 70.8297 225.649 70.5441 225.538 70.1315C225.395 69.596 225.809 69.1419 226.647 68.9173C227.64 68.6514 228.023 69.0641 228.225 69.3971L228.243 69.4244C228.453 69.706 228.793 69.8161 229.155 69.7191C229.249 69.694 229.329 69.6577 229.389 69.6285C229.757 69.4498 229.948 69.0791 229.853 68.7259C229.83 68.6383 229.79 68.5558 229.734 68.4802C229.37 67.9162 228.55 67.0944 226.941 67.2878L226.658 66.2291C226.421 65.3473 224.989 65.731 225.226 66.6128L225.511 67.6778C223.914 68.3751 223.594 69.6317 223.849 70.5838C224.313 72.3161 225.693 72.4639 226.98 72.3796L227.83 72.3288C229.038 72.2464 229.318 72.4809 229.458 73.0039C229.629 73.6431 229.171 74.1742 228.232 74.4258C227.013 74.7525 226.622 74.2895 226.297 73.7396C226.112 73.4367 225.747 73.3074 225.366 73.4092C225.284 73.4314 225.22 73.4599 225.143 73.4946L225.12 73.5055C224.751 73.7009 224.568 74.0702 224.662 74.4241C224.68 74.4914 224.708 74.5453 224.731 74.5889L224.757 74.6385C225.088 75.1676 225.816 76.3221 227.838 76.0814L228.135 77.1894C228.254 77.6306 228.675 77.7652 229.031 77.6698C229.387 77.5744 229.685 77.247 229.567 76.8058L229.275 75.717C230.769 75.1086 231.516 73.8874 231.155 72.5397" fill="white" fill-opacity="0.08"/>
<path fill-rule="evenodd" clip-rule="evenodd" d="M22.9028 166.964C22.6102 167.203 20.5719 170.641 20.5385 170.951C20.4887 171.415 20.7155 171.596 22.7807 172.732C24.7205 173.8 24.754 173.814 25.0952 173.723C25.5969 173.589 25.8304 173.184 25.6961 172.683C25.6017 172.331 25.5712 172.305 24.6076 171.752L23.6161 171.184L24.1763 171.035C25.4133 170.707 27.5025 170.562 28.9733 170.702C33.4557 171.128 37.3118 173.29 39.8665 176.81C41.5631 179.147 42.5209 182.116 42.5351 185.083C42.549 187.96 41.575 191.061 39.9246 193.395C39.1913 194.432 39.1663 194.884 39.8232 195.23C40.0446 195.346 40.1966 195.363 40.4434 195.296C40.8306 195.193 40.9931 195.007 41.783 193.765C45.0236 188.668 45.1823 182.31 42.1978 177.145C38.8777 171.399 32.3373 168.219 25.5245 169.039C25.0499 169.096 24.4696 169.194 24.2349 169.256C23.3587 169.488 23.3508 169.472 23.8892 168.552C24.3319 167.796 24.3627 167.707 24.2833 167.411C24.1213 166.806 23.3871 166.568 22.9028 166.964ZM14.0568 175.485C13.8363 175.6 13.5457 175.981 12.8943 177.011C10.9049 180.156 10.0868 183.68 10.4705 187.453C10.5888 188.617 11.1664 190.778 11.6631 191.915C14.3341 198.03 20.457 201.901 27.3203 201.814C28.2137 201.802 29.9086 201.618 30.4542 201.474C31.3524 201.235 31.3597 201.249 30.8197 202.172C30.3794 202.924 30.3466 203.019 30.4243 203.309C30.5887 203.922 31.279 204.159 31.7786 203.773C32.0843 203.536 34.1345 200.108 34.1704 199.773C34.2201 199.309 33.9934 199.128 31.9282 197.992C29.9884 196.924 29.9549 196.91 29.6137 197.001C29.112 197.136 28.8785 197.54 29.0128 198.041C29.1071 198.393 29.1377 198.419 30.1013 198.972L31.0928 199.54L30.5433 199.687C30.2411 199.768 29.5914 199.884 29.0993 199.945C22.5783 200.747 16.5371 197.606 13.6172 191.894C13.2359 191.148 13.1265 190.834 12.7117 189.286C12.2969 187.738 12.2342 187.41 12.1915 186.574C12.0229 183.274 12.9172 180.033 14.7114 177.441C15.3221 176.559 15.4504 176.206 15.2818 175.871C15.0775 175.464 14.4658 175.272 14.0568 175.485ZM23.2556 176.772C22.1021 177.308 20.7936 178.282 19.9357 179.241C19.4125 179.827 18.5827 181.151 18.253 181.927C17.9253 182.699 17.6125 184.032 17.5498 184.924C17.412 186.884 18.0009 189.052 19.1114 190.674C19.9581 191.91 20.8811 192.766 22.1855 193.523C23.6155 194.353 25.0275 194.776 26.67 194.865C28.7076 194.976 30.9574 194.382 32.6548 193.285C34.8262 191.881 36.4036 189.657 36.9437 187.238C37.4956 184.765 37.0196 182.195 35.6193 180.086C33.7004 177.197 30.1474 175.548 26.5739 175.887C25.6833 175.972 24.0279 176.413 23.2556 176.772ZM27.3109 177.575C28.8959 177.562 30.0406 177.852 31.4156 178.615C32.8075 179.388 33.6312 180.188 34.4296 181.541C34.8989 182.337 35.3964 184.102 35.4032 184.996C35.4151 186.554 35.0677 187.807 34.2442 189.176C33.1707 190.96 31.7759 192.075 29.8057 192.726C26.577 193.791 22.9738 192.745 20.9166 190.144C20.2534 189.306 19.9303 188.634 19.6142 187.436C19.284 186.185 19.2404 185.615 19.3886 184.489C19.6437 182.549 20.8329 180.509 22.4061 179.312C23.4736 178.501 24.2551 178.138 25.6358 177.812C26.2962 177.657 26.8441 177.579 27.3109 177.575Z" fill="white" fill-opacity="0.08"/>
<path d="M31.2468 186.151C30.7702 184.372 29.3341 184.211 27.8513 184.3L27.0672 184.354C25.9093 184.441 25.7417 184.155 25.6311 183.742C25.4876 183.207 25.9022 182.753 26.7402 182.528C27.7327 182.262 28.1159 182.675 28.3182 183.008L28.3363 183.035C28.5455 183.317 28.8859 183.427 29.2479 183.33C29.3416 183.305 29.4222 183.269 29.4819 183.239C29.8503 183.061 30.0409 182.69 29.9463 182.337C29.9228 182.249 29.8831 182.167 29.8274 182.091C29.463 181.527 28.6434 180.705 27.0343 180.899L26.7507 179.84C26.5144 178.958 25.0825 179.342 25.3187 180.224L25.6041 181.289C24.0068 181.986 23.6866 183.243 23.9417 184.195C24.4059 185.927 25.7859 186.075 27.0727 185.991L27.923 185.94C29.1312 185.857 29.4109 186.092 29.551 186.615C29.7223 187.254 29.2641 187.785 28.325 188.037C27.1058 188.363 26.7154 187.9 26.39 187.351C26.2046 187.048 25.8396 186.918 25.4595 187.02C25.3766 187.042 25.313 187.071 25.2363 187.106L25.2134 187.116C24.8444 187.312 24.6607 187.681 24.7555 188.035C24.7735 188.102 24.8012 188.156 24.8237 188.2L24.8502 188.249C25.1815 188.779 25.9092 189.933 27.9314 189.692L28.2283 190.8C28.3465 191.242 28.7682 191.376 29.1242 191.281C29.4801 191.185 29.7785 190.858 29.6603 190.417L29.3685 189.328C30.8624 188.72 31.6095 187.498 31.2484 186.151" fill="white" fill-opacity="0.08"/>
<path fill-rule="evenodd" clip-rule="evenodd" d="M108.87 143.929C108.578 144.168 106.539 147.606 106.506 147.917C106.456 148.381 106.683 148.561 108.748 149.697C110.688 150.765 110.721 150.78 111.063 150.688C111.564 150.554 111.798 150.15 111.664 149.648C111.569 149.296 111.539 149.27 110.575 148.718L109.584 148.149L110.144 148C111.381 147.672 113.47 147.527 114.941 147.667C119.423 148.093 123.279 150.255 125.834 153.775C127.531 156.112 128.488 159.082 128.503 162.048C128.516 164.925 127.542 168.026 125.892 170.36C125.159 171.397 125.134 171.849 125.791 172.195C126.012 172.311 126.164 172.328 126.411 172.261C126.798 172.158 126.96 171.972 127.75 170.73C130.991 165.633 131.15 159.275 128.165 154.11C124.845 148.364 118.305 145.184 111.492 146.004C111.017 146.061 110.437 146.159 110.202 146.221C109.326 146.453 109.318 146.437 109.857 145.517C110.299 144.761 110.33 144.672 110.251 144.376C110.089 143.771 109.354 143.534 108.87 143.929ZM100.024 152.45C99.8037 152.565 99.5131 152.946 98.8617 153.976C96.8722 157.121 96.0542 160.645 96.4379 164.418C96.5562 165.582 97.1338 167.743 97.6305 168.88C100.301 174.995 106.424 178.867 113.288 178.779C114.181 178.767 115.876 178.583 116.422 178.439C117.32 178.2 117.327 178.214 116.787 179.137C116.347 179.889 116.314 179.984 116.392 180.274C116.556 180.887 117.246 181.124 117.746 180.738C118.052 180.501 120.102 177.073 120.138 176.738C120.188 176.274 119.961 176.094 117.896 174.957C115.956 173.889 115.922 173.875 115.581 173.966C115.079 174.101 114.846 174.505 114.98 175.006C115.075 175.358 115.105 175.384 116.069 175.937L117.06 176.505L116.511 176.652C116.209 176.733 115.559 176.849 115.067 176.91C108.546 177.712 102.504 174.571 99.5846 168.86C99.2032 168.114 99.0939 167.799 98.6791 166.251C98.2643 164.703 98.2015 164.375 98.1588 163.539C97.9903 160.239 98.8846 156.998 100.679 154.406C101.289 153.524 101.418 153.171 101.249 152.836C101.045 152.43 100.433 152.237 100.024 152.45ZM109.223 153.737C108.069 154.273 106.761 155.247 105.903 156.207C105.38 156.792 104.55 158.117 104.22 158.893C103.893 159.664 103.58 160.997 103.517 161.889C103.379 163.849 103.968 166.017 105.079 167.639C105.925 168.876 106.849 169.731 108.153 170.488C109.583 171.318 110.995 171.741 112.637 171.83C114.675 171.941 116.925 171.347 118.622 170.25C120.794 168.846 122.371 166.622 122.911 164.203C123.463 161.73 122.987 159.16 121.587 157.051C119.668 154.163 116.115 152.513 112.541 152.852C111.651 152.937 109.995 153.378 109.223 153.737ZM113.278 154.54C114.863 154.527 116.008 154.817 117.383 155.58C118.775 156.353 119.599 157.153 120.397 158.506C120.866 159.302 121.364 161.067 121.371 161.961C121.383 163.519 121.035 164.772 120.212 166.141C119.138 167.925 117.743 169.041 115.773 169.691C112.544 170.756 108.941 169.71 106.884 167.109C106.221 166.271 105.898 165.599 105.582 164.401C105.251 163.151 105.208 162.581 105.356 161.454C105.611 159.514 106.8 157.474 108.374 156.277C109.441 155.466 110.223 155.103 111.603 154.777C112.264 154.622 112.811 154.544 113.278 154.54Z" fill="white" fill-opacity="0.08"/>
<path d="M117.214 163.116C116.738 161.337 115.301 161.176 113.819 161.265L113.035 161.319C111.877 161.406 111.709 161.12 111.598 160.707C111.455 160.172 111.87 159.718 112.708 159.493C113.7 159.227 114.083 159.64 114.286 159.973L114.304 160C114.513 160.282 114.853 160.392 115.215 160.295C115.309 160.27 115.39 160.234 115.449 160.204C115.818 160.026 116.008 159.655 115.914 159.302C115.89 159.214 115.85 159.132 115.795 159.056C115.43 158.492 114.611 157.67 113.002 157.864L112.718 156.805C112.482 155.923 111.05 156.307 111.286 157.189L111.572 158.254C109.974 158.951 109.654 160.208 109.909 161.16C110.373 162.892 111.753 163.04 113.04 162.956L113.89 162.905C115.099 162.822 115.378 163.057 115.518 163.58C115.69 164.219 115.232 164.75 114.292 165.002C113.073 165.329 112.683 164.866 112.357 164.316C112.172 164.013 111.807 163.883 111.427 163.985C111.344 164.007 111.28 164.036 111.204 164.071L111.181 164.082C110.812 164.277 110.628 164.646 110.723 165C110.741 165.067 110.769 165.121 110.791 165.165L110.818 165.215C111.149 165.744 111.877 166.898 113.899 166.657L114.196 167.765C114.314 168.207 114.736 168.341 115.092 168.246C115.448 168.15 115.746 167.823 115.628 167.382L115.336 166.293C116.83 165.685 117.577 164.463 117.216 163.116" fill="white" fill-opacity="0.08"/>
<path fill-rule="evenodd" clip-rule="evenodd" d="M194.838 120.894C194.545 121.133 192.507 124.571 192.473 124.882C192.424 125.346 192.65 125.526 194.715 126.663C196.655 127.73 196.689 127.745 197.03 127.653C197.532 127.519 197.765 127.115 197.631 126.613C197.537 126.261 197.506 126.235 196.542 125.683L195.551 125.114L196.111 124.966C197.348 124.638 199.437 124.492 200.908 124.632C205.39 125.058 209.247 127.22 211.801 130.74C213.498 133.077 214.456 136.047 214.47 139.014C214.484 141.891 213.51 144.992 211.859 147.325C211.126 148.362 211.101 148.814 211.758 149.16C211.979 149.276 212.131 149.293 212.378 149.227C212.765 149.123 212.928 148.937 213.718 147.695C216.958 142.599 217.117 136.24 214.133 131.075C210.813 125.329 204.272 122.149 197.459 122.969C196.985 123.026 196.404 123.124 196.17 123.186C195.293 123.418 195.286 123.402 195.824 122.482C196.267 121.726 196.297 121.637 196.218 121.341C196.056 120.736 195.322 120.499 194.838 120.894ZM185.992 129.415C185.771 129.53 185.48 129.912 184.829 130.941C182.84 134.086 182.022 137.61 182.405 141.383C182.524 142.547 183.101 144.708 183.598 145.845C186.269 151.96 192.392 155.832 199.255 155.744C200.148 155.732 201.843 155.549 202.389 155.404C203.287 155.165 203.294 155.179 202.754 156.102C202.314 156.854 202.281 156.949 202.359 157.239C202.523 157.853 203.214 158.089 203.713 157.703C204.019 157.467 206.069 154.038 206.105 153.703C206.155 153.239 205.928 153.059 203.863 151.922C201.923 150.854 201.89 150.84 201.548 150.931C201.047 151.066 200.813 151.47 200.948 151.971C201.042 152.323 201.072 152.349 202.036 152.902L203.028 153.47L202.478 153.618C202.176 153.699 201.526 153.814 201.034 153.875C194.513 154.677 188.472 151.536 185.552 145.825C185.171 145.079 185.061 144.764 184.647 143.216C184.232 141.668 184.169 141.34 184.126 140.504C183.958 137.204 184.852 133.964 186.646 131.371C187.257 130.489 187.385 130.136 187.217 129.801C187.012 129.395 186.401 129.202 185.992 129.415ZM195.19 130.702C194.037 131.239 192.728 132.212 191.87 133.172C191.347 133.757 190.517 135.082 190.188 135.858C189.86 136.629 189.547 137.962 189.485 138.855C189.347 140.814 189.936 142.982 191.046 144.604C191.893 145.841 192.816 146.696 194.12 147.453C195.55 148.284 196.962 148.706 198.605 148.795C200.642 148.906 202.892 148.312 204.59 147.215C206.761 145.812 208.338 143.588 208.878 141.168C209.43 138.695 208.954 136.125 207.554 134.017C205.635 131.128 202.082 129.478 198.509 129.818C197.618 129.902 195.963 130.344 195.19 130.702ZM199.246 131.505C200.831 131.492 201.975 131.782 203.35 132.545C204.742 133.318 205.566 134.118 206.364 135.472C206.834 136.267 207.331 138.032 207.338 138.926C207.35 140.484 207.002 141.737 206.179 143.106C205.105 144.89 203.711 146.006 201.741 146.656C198.512 147.721 194.909 146.675 192.851 144.074C192.188 143.236 191.865 142.564 191.549 141.366C191.219 140.116 191.175 139.546 191.323 138.419C191.578 136.479 192.768 134.439 194.341 133.243C195.408 132.431 196.19 132.068 197.571 131.742C198.231 131.587 198.779 131.509 199.246 131.505Z" fill="white" fill-opacity="0.08"/>
<path d="M203.182 140.081C202.705 138.303 201.269 138.141 199.786 138.23L199.002 138.285C197.844 138.371 197.676 138.085 197.566 137.673C197.422 137.137 197.837 136.683 198.675 136.458C199.668 136.193 200.051 136.605 200.253 136.938L200.271 136.966C200.48 137.247 200.821 137.357 201.183 137.26C201.276 137.235 201.357 137.199 201.417 137.17C201.785 136.991 201.976 136.62 201.881 136.267C201.858 136.179 201.818 136.097 201.762 136.021C201.398 135.457 200.578 134.636 198.969 134.829L198.685 133.77C198.449 132.888 197.017 133.272 197.254 134.154L197.539 135.219C195.942 135.916 195.621 137.173 195.876 138.125C196.341 139.857 197.721 140.005 199.008 139.921L199.858 139.87C201.066 139.788 201.346 140.022 201.486 140.545C201.657 141.184 201.199 141.715 200.26 141.967C199.041 142.294 198.65 141.831 198.325 141.281C198.139 140.978 197.774 140.848 197.394 140.95C197.311 140.973 197.248 141.001 197.171 141.036L197.148 141.047C196.779 141.242 196.595 141.611 196.69 141.965C196.708 142.033 196.736 142.087 196.758 142.13L196.785 142.18C197.116 142.709 197.844 143.863 199.866 143.622L200.163 144.731C200.281 145.172 200.703 145.306 201.059 145.211C201.415 145.116 201.713 144.788 201.595 144.347L201.303 143.258C202.797 142.65 203.544 141.429 203.183 140.081" fill="white" fill-opacity="0.08"/>
<path fill-rule="evenodd" clip-rule="evenodd" d="M280.805 97.859C280.512 98.0978 278.474 101.536 278.441 101.847C278.391 102.311 278.618 102.491 280.683 103.628C282.623 104.695 282.656 104.71 282.997 104.618C283.499 104.484 283.733 104.08 283.598 103.579C283.504 103.226 283.473 103.2 282.51 102.648L281.518 102.079L282.079 101.931C283.316 101.603 285.405 101.457 286.875 101.597C291.358 102.023 295.214 104.185 297.769 107.705C299.465 110.042 300.423 113.012 300.437 115.979C300.451 118.856 299.477 121.957 297.827 124.291C297.094 125.328 297.068 125.779 297.725 126.125C297.947 126.242 298.099 126.258 298.346 126.192C298.733 126.088 298.895 125.902 299.685 124.66C302.926 119.564 303.085 113.205 300.1 108.04C296.78 102.294 290.239 99.1143 283.427 99.9342C282.952 99.9912 282.372 100.089 282.137 100.151C281.261 100.384 281.253 100.367 281.791 99.4475C282.234 98.6913 282.265 98.602 282.185 98.3059C282.024 97.7014 281.289 97.4637 280.805 97.859ZM271.959 106.38C271.738 106.495 271.448 106.877 270.797 107.906C268.807 111.051 267.989 114.575 268.373 118.348C268.491 119.512 269.069 121.673 269.565 122.81C272.236 128.926 278.359 132.797 285.223 132.709C286.116 132.698 287.811 132.514 288.356 132.369C289.255 132.13 289.262 132.144 288.722 133.067C288.282 133.819 288.249 133.914 288.326 134.204C288.491 134.818 289.181 135.054 289.681 134.668C289.987 134.432 292.037 131.003 292.073 130.668C292.122 130.204 291.896 130.024 289.83 128.887C287.891 127.819 287.857 127.805 287.516 127.896C287.014 128.031 286.781 128.435 286.915 128.936C287.009 129.288 287.04 129.314 288.003 129.867L288.995 130.435L288.445 130.583C288.143 130.664 287.494 130.779 287.001 130.84C280.48 131.643 274.439 128.501 271.519 122.79C271.138 122.044 271.029 121.729 270.614 120.181C270.199 118.633 270.136 118.305 270.094 117.469C269.925 114.169 270.819 110.929 272.614 108.336C273.224 107.454 273.353 107.101 273.184 106.766C272.98 106.36 272.368 106.167 271.959 106.38ZM281.158 107.668C280.004 108.204 278.696 109.177 277.838 110.137C277.315 110.722 276.485 112.047 276.155 112.823C275.827 113.594 275.515 114.927 275.452 115.82C275.314 117.779 275.903 119.947 277.014 121.569C277.86 122.806 278.783 123.661 280.088 124.419C281.518 125.249 282.93 125.671 284.572 125.76C286.61 125.871 288.86 125.277 290.557 124.18C292.728 122.777 294.306 120.553 294.846 118.133C295.398 115.66 294.922 113.09 293.521 110.982C291.603 108.093 288.05 106.443 284.476 106.783C283.586 106.867 281.93 107.309 281.158 107.668ZM285.213 108.47C286.798 108.457 287.943 108.747 289.318 109.51C290.71 110.283 291.533 111.083 292.332 112.437C292.801 113.232 293.299 114.997 293.305 115.892C293.317 117.449 292.97 118.702 292.146 120.071C291.073 121.855 289.678 122.971 287.708 123.621C284.479 124.686 280.876 123.64 278.819 121.04C278.156 120.201 277.832 119.529 277.516 118.331C277.186 117.081 277.143 116.511 277.291 115.384C277.546 113.444 278.735 111.404 280.308 110.208C281.376 109.396 282.157 109.033 283.538 108.707C284.198 108.552 284.746 108.474 285.213 108.47Z" fill="white" fill-opacity="0.08"/>
<path d="M289.149 117.046C288.672 115.268 287.236 115.106 285.753 115.196L284.969 115.25C283.811 115.336 283.644 115.05 283.533 114.638C283.39 114.102 283.804 113.648 284.642 113.424C285.635 113.158 286.018 113.57 286.22 113.903L286.238 113.931C286.448 114.212 286.788 114.322 287.15 114.225C287.244 114.2 287.324 114.164 287.384 114.135C287.752 113.956 287.943 113.585 287.848 113.232C287.825 113.145 287.785 113.062 287.73 112.987C287.365 112.423 286.546 111.601 284.937 111.794L284.653 110.735C284.417 109.854 282.985 110.237 283.221 111.119L283.506 112.184C281.909 112.881 281.589 114.138 281.844 115.09C282.308 116.822 283.688 116.97 284.975 116.886L285.825 116.835C287.033 116.753 287.313 116.987 287.453 117.51C287.624 118.149 287.166 118.68 286.227 118.932C285.008 119.259 284.618 118.796 284.292 118.246C284.107 117.943 283.742 117.814 283.362 117.915C283.279 117.938 283.215 117.966 283.138 118.001L283.116 118.012C282.747 118.207 282.563 118.576 282.658 118.93C282.676 118.998 282.703 119.052 282.726 119.095L282.752 119.145C283.084 119.674 283.811 120.828 285.834 120.588L286.131 121.696C286.249 122.137 286.67 122.271 287.026 122.176C287.382 122.081 287.681 121.753 287.562 121.312L287.271 120.223C288.765 119.615 289.512 118.394 289.151 117.046" fill="white" fill-opacity="0.08"/>
<path fill-rule="evenodd" clip-rule="evenodd" d="M80.898 211.47C80.6054 211.709 78.5671 215.147 78.5337 215.458C78.4839 215.922 78.7107 216.102 80.7759 217.239C82.7157 218.306 82.7492 218.321 83.0904 218.229C83.5921 218.095 83.8256 217.691 83.6913 217.19C83.597 216.837 83.5664 216.811 82.6028 216.259L81.6113 215.69L82.1715 215.542C83.4086 215.214 85.4977 215.068 86.9685 215.208C91.4509 215.634 95.307 217.796 97.8617 221.316C99.5583 223.653 100.516 226.623 100.53 229.59C100.544 232.467 99.5702 235.568 97.9198 237.901C97.1865 238.938 97.1615 239.39 97.8184 239.736C98.0398 239.852 98.1917 239.869 98.4386 239.803C98.8258 239.699 98.9883 239.513 99.7782 238.271C103.019 233.175 103.177 226.816 100.193 221.651C96.8729 215.905 90.3325 212.725 83.5197 213.545C83.0451 213.602 82.4648 213.7 82.2301 213.762C81.3539 213.995 81.346 213.978 81.8844 213.059C82.3271 212.302 82.3579 212.213 82.2785 211.917C82.1165 211.312 81.3823 211.075 80.898 211.47ZM72.052 219.991C71.8315 220.106 71.5409 220.488 70.8895 221.517C68.9 224.662 68.082 228.186 68.4657 231.959C68.584 233.123 69.1617 235.284 69.6583 236.421C72.3293 242.536 78.4522 246.408 85.3155 246.32C86.2089 246.309 87.9038 246.125 88.4494 245.98C89.3476 245.741 89.3549 245.755 88.8149 246.678C88.3746 247.43 88.3417 247.525 88.4195 247.815C88.5839 248.429 89.2743 248.665 89.7738 248.279C90.0795 248.043 92.1297 244.614 92.1656 244.279C92.2153 243.815 91.9886 243.635 89.9234 242.498C87.9836 241.43 87.9501 241.416 87.6089 241.507C87.1072 241.642 86.8737 242.046 87.008 242.547C87.1023 242.899 87.1329 242.925 88.0965 243.478L89.088 244.046L88.5385 244.194C88.2363 244.275 87.5866 244.39 87.0945 244.451C80.5735 245.254 74.5323 242.112 71.6124 236.401C71.2311 235.655 71.1217 235.34 70.7069 233.792C70.2921 232.244 70.2294 231.916 70.1866 231.08C70.0181 227.78 70.9124 224.54 72.7066 221.947C73.3173 221.065 73.4456 220.712 73.2771 220.377C73.0727 219.971 72.461 219.778 72.052 219.991ZM81.2508 221.278C80.0973 221.815 78.7888 222.788 77.9309 223.748C77.4077 224.333 76.5779 225.658 76.2482 226.434C75.9205 227.205 75.6077 228.538 75.545 229.431C75.4072 231.39 75.9961 233.558 77.1066 235.18C77.9533 236.417 78.8763 237.272 80.1807 238.029C81.6107 238.86 83.0227 239.282 84.6652 239.371C86.7028 239.482 88.9526 238.888 90.65 237.791C92.8214 236.388 94.3988 234.164 94.9389 231.744C95.4908 229.271 95.0148 226.701 93.6145 224.593C91.6956 221.704 88.1427 220.054 84.5692 220.394C83.6785 220.478 82.0231 220.92 81.2508 221.278ZM85.3061 222.081C86.8911 222.068 88.0358 222.358 89.4108 223.121C90.8027 223.894 91.6264 224.694 92.4248 226.048C92.8941 226.843 93.3916 228.608 93.3984 229.502C93.4103 231.06 93.0629 232.313 92.2394 233.682C91.1659 235.466 89.7711 236.582 87.8009 237.232C84.5722 238.297 80.969 237.251 78.9118 234.65C78.2486 233.812 77.9255 233.14 77.6094 231.942C77.2792 230.692 77.2356 230.122 77.3838 228.995C77.6389 227.055 78.8281 225.015 80.4013 223.819C81.4688 223.007 82.2503 222.644 83.631 222.318C84.2914 222.163 84.8393 222.085 85.3061 222.081Z" fill="white" fill-opacity="0.08"/>
<path d="M89.242 230.657C88.7655 228.879 87.3293 228.717 85.8465 228.806L85.0624 228.861C83.9045 228.947 83.7369 228.661 83.6263 228.249C83.4828 227.713 83.8974 227.259 84.7355 227.035C85.728 226.769 86.1111 227.181 86.3134 227.514L86.3315 227.542C86.5407 227.823 86.8811 227.933 87.2431 227.836C87.3368 227.811 87.4174 227.775 87.4771 227.746C87.8455 227.567 88.0361 227.196 87.9415 226.843C87.918 226.756 87.8783 226.673 87.8226 226.597C87.4582 226.033 86.6386 225.212 85.0295 225.405L84.7459 224.346C84.5096 223.465 83.0777 223.848 83.3139 224.73L83.5993 225.795C82.0021 226.492 81.6818 227.749 81.9369 228.701C82.4011 230.433 83.7811 230.581 85.0679 230.497L85.9182 230.446C87.1264 230.364 87.4061 230.598 87.5462 231.121C87.7175 231.76 87.2593 232.291 86.3202 232.543C85.101 232.87 84.7106 232.407 84.3852 231.857C84.1998 231.554 83.8348 231.425 83.4547 231.526C83.3718 231.549 83.3082 231.577 83.2315 231.612L83.2086 231.623C82.8396 231.818 82.6559 232.187 82.7507 232.541C82.7687 232.609 82.7964 232.662 82.8189 232.706L82.8454 232.756C83.1767 233.285 83.9044 234.439 85.9266 234.199L86.2235 235.307C86.3418 235.748 86.7635 235.882 87.1194 235.787C87.4753 235.692 87.7737 235.364 87.6555 234.923L87.3637 233.834C88.8576 233.226 89.6047 232.005 89.2436 230.657" fill="white" fill-opacity="0.08"/>
<path fill-rule="evenodd" clip-rule="evenodd" d="M166.865 188.435C166.573 188.674 164.534 192.112 164.501 192.423C164.451 192.887 164.678 193.067 166.743 194.204C168.683 195.271 168.717 195.286 169.058 195.194C169.559 195.06 169.793 194.656 169.659 194.155C169.564 193.802 169.534 193.776 168.57 193.224L167.579 192.655L168.139 192.507C169.376 192.179 171.465 192.034 172.936 192.173C177.418 192.6 181.274 194.762 183.829 198.281C185.526 200.618 186.483 203.588 186.498 206.555C186.512 209.432 185.538 212.533 183.887 214.867C183.154 215.904 183.129 216.356 183.786 216.701C184.007 216.818 184.159 216.834 184.406 216.768C184.793 216.664 184.956 216.478 185.746 215.236C188.986 210.14 189.145 203.782 186.16 198.616C182.84 192.87 176.3 189.69 169.487 190.51C169.012 190.567 168.432 190.665 168.198 190.727C167.321 190.96 167.313 190.944 167.852 190.024C168.294 189.267 168.325 189.178 168.246 188.882C168.084 188.277 167.35 188.04 166.865 188.435ZM158.019 196.956C157.799 197.071 157.508 197.453 156.857 198.482C154.867 201.627 154.049 205.151 154.433 208.924C154.551 210.088 155.129 212.249 155.626 213.386C158.297 219.502 164.42 223.373 171.283 223.285C172.176 223.274 173.871 223.09 174.417 222.945C175.315 222.707 175.322 222.72 174.782 223.643C174.342 224.395 174.309 224.49 174.387 224.78C174.551 225.394 175.242 225.63 175.741 225.244C176.047 225.008 178.097 221.579 178.133 221.244C178.183 220.78 177.956 220.6 175.891 219.463C173.951 218.395 173.917 218.381 173.576 218.473C173.075 218.607 172.841 219.011 172.975 219.512C173.07 219.864 173.1 219.891 174.064 220.443L175.055 221.012L174.506 221.159C174.204 221.24 173.554 221.355 173.062 221.416C166.541 222.219 160.5 219.077 157.58 213.366C157.198 212.62 157.089 212.305 156.674 210.757C156.26 209.209 156.197 208.882 156.154 208.045C155.986 204.745 156.88 201.505 158.674 198.913C159.285 198.03 159.413 197.677 159.244 197.342C159.04 196.936 158.428 196.743 158.019 196.956ZM167.218 198.244C166.065 198.78 164.756 199.753 163.898 200.713C163.375 201.298 162.545 202.623 162.216 203.399C161.888 204.17 161.575 205.503 161.512 206.396C161.375 208.355 161.963 210.523 163.074 212.145C163.921 213.382 164.844 214.237 166.148 214.995C167.578 215.825 168.99 216.247 170.633 216.336C172.67 216.447 174.92 215.853 176.617 214.756C178.789 213.353 180.366 211.129 180.906 208.709C181.458 206.236 180.982 203.666 179.582 201.558C177.663 198.669 174.11 197.019 170.537 197.359C169.646 197.443 167.99 197.885 167.218 198.244ZM171.274 199.046C172.859 199.033 174.003 199.323 175.378 200.086C176.77 200.859 177.594 201.659 178.392 203.013C178.862 203.808 179.359 205.573 179.366 206.468C179.378 208.025 179.03 209.278 178.207 210.647C177.133 212.431 175.738 213.547 173.768 214.197C170.54 215.263 166.936 214.216 164.879 211.616C164.216 210.777 163.893 210.105 163.577 208.907C163.247 207.657 163.203 207.087 163.351 205.96C163.606 204.02 164.796 201.98 166.369 200.784C167.436 199.972 168.218 199.609 169.598 199.284C170.259 199.128 170.807 199.05 171.274 199.046Z" fill="white" fill-opacity="0.08"/>
<path d="M175.209 207.622C174.733 205.844 173.297 205.682 171.814 205.772L171.03 205.826C169.872 205.912 169.704 205.626 169.594 205.214C169.45 204.678 169.865 204.224 170.703 204C171.695 203.734 172.078 204.146 172.281 204.479L172.299 204.507C172.508 204.788 172.849 204.898 173.21 204.801C173.304 204.776 173.385 204.74 173.444 204.711C173.813 204.532 174.004 204.161 173.909 203.808C173.885 203.721 173.846 203.638 173.79 203.563C173.426 202.999 172.606 202.177 170.997 202.37L170.713 201.311C170.477 200.43 169.045 200.813 169.281 201.695L169.567 202.76C167.969 203.457 167.649 204.714 167.904 205.666C168.368 207.398 169.749 207.546 171.035 207.462L171.886 207.411C173.094 207.329 173.373 207.563 173.514 208.086C173.685 208.725 173.227 209.256 172.288 209.508C171.068 209.835 170.678 209.372 170.353 208.822C170.167 208.519 169.802 208.39 169.422 208.492C169.339 208.514 169.276 208.542 169.199 208.577L169.176 208.588C168.807 208.783 168.623 209.152 168.718 209.506C168.736 209.574 168.764 209.628 168.786 209.671L168.813 209.721C169.144 210.25 169.872 211.404 171.894 211.164L172.191 212.272C172.309 212.713 172.731 212.848 173.087 212.752C173.443 212.657 173.741 212.329 173.623 211.888L173.331 210.799C174.825 210.191 175.572 208.97 175.211 207.622" fill="white" fill-opacity="0.08"/>
<path fill-rule="evenodd" clip-rule="evenodd" d="M252.833 165.4C252.54 165.639 250.502 169.077 250.468 169.388C250.419 169.852 250.646 170.032 252.711 171.169C254.65 172.237 254.684 172.251 255.025 172.159C255.527 172.025 255.76 171.621 255.626 171.12C255.532 170.768 255.501 170.741 254.538 170.189L253.546 169.62L254.106 169.472C255.343 169.144 257.432 168.999 258.903 169.138C263.386 169.565 267.242 171.727 269.797 175.246C271.493 177.583 272.451 180.553 272.465 183.52C272.479 186.397 271.505 189.498 269.855 191.832C269.121 192.869 269.096 193.321 269.753 193.666C269.975 193.783 270.127 193.799 270.373 193.733C270.761 193.629 270.923 193.443 271.713 192.201C274.954 187.105 275.112 180.747 272.128 175.581C268.808 169.835 262.267 166.655 255.454 167.475C254.98 167.532 254.4 167.63 254.165 167.692C253.289 167.925 253.281 167.909 253.819 166.989C254.262 166.232 254.293 166.143 254.213 165.847C254.051 165.243 253.317 165.005 252.833 165.4ZM243.987 173.921C243.766 174.036 243.476 174.418 242.824 175.447C240.835 178.592 240.017 182.116 240.401 185.889C240.519 187.053 241.096 189.214 241.593 190.351C244.264 196.467 250.387 200.338 257.25 200.25C258.144 200.239 259.839 200.055 260.384 199.91C261.282 199.672 261.29 199.686 260.75 200.608C260.309 201.361 260.277 201.455 260.354 201.745C260.519 202.359 261.209 202.595 261.709 202.209C262.014 201.973 264.064 198.544 264.1 198.209C264.15 197.745 263.923 197.565 261.858 196.428C259.918 195.361 259.885 195.346 259.544 195.438C259.042 195.572 258.808 195.976 258.943 196.477C259.037 196.829 259.068 196.856 260.031 197.408L261.023 197.977L260.473 198.124C260.171 198.205 259.521 198.321 259.029 198.381C252.508 199.184 246.467 196.042 243.547 190.331C243.166 189.585 243.057 189.27 242.642 187.722C242.227 186.174 242.164 185.847 242.121 185.01C241.953 181.711 242.847 178.47 244.641 175.878C245.252 174.995 245.38 174.642 245.212 174.307C245.007 173.901 244.396 173.708 243.987 173.921ZM253.186 175.209C252.032 175.745 250.724 176.718 249.866 177.678C249.342 178.263 248.513 179.588 248.183 180.364C247.855 181.135 247.543 182.468 247.48 183.361C247.342 185.32 247.931 187.488 249.041 189.11C249.888 190.347 250.811 191.202 252.115 191.96C253.546 192.79 254.958 193.212 256.6 193.301C258.638 193.412 260.887 192.818 262.585 191.721C264.756 190.318 266.334 188.094 266.874 185.674C267.426 183.201 266.95 180.631 265.549 178.523C263.63 175.634 260.077 173.985 256.504 174.324C255.613 174.408 253.958 174.85 253.186 175.209ZM257.241 176.012C258.826 175.998 259.971 176.288 261.346 177.052C262.738 177.824 263.561 178.624 264.36 179.978C264.829 180.773 265.326 182.539 265.333 183.433C265.345 184.991 264.998 186.243 264.174 187.612C263.101 189.396 261.706 190.512 259.736 191.162C256.507 192.228 252.904 191.181 250.847 188.581C250.183 187.742 249.86 187.07 249.544 185.873C249.214 184.622 249.17 184.052 249.319 182.925C249.574 180.985 250.763 178.945 252.336 177.749C253.404 176.937 254.185 176.574 255.566 176.249C256.226 176.093 256.774 176.015 257.241 176.012Z" fill="white" fill-opacity="0.08"/>
<path d="M261.177 184.587C260.7 182.809 259.264 182.647 257.781 182.737L256.997 182.791C255.839 182.877 255.672 182.592 255.561 182.179C255.418 181.643 255.832 181.189 256.67 180.965C257.663 180.699 258.046 181.112 258.248 181.444L258.266 181.472C258.476 181.753 258.816 181.863 259.178 181.767C259.272 181.741 259.352 181.705 259.412 181.676C259.78 181.497 259.971 181.126 259.876 180.773C259.853 180.686 259.813 180.603 259.757 180.528C259.393 179.964 258.573 179.142 256.964 179.335L256.681 178.277C256.444 177.395 255.012 177.778 255.249 178.66L255.534 179.725C253.937 180.423 253.617 181.679 253.872 182.631C254.336 184.363 255.716 184.511 257.003 184.427L257.853 184.376C259.061 184.294 259.341 184.528 259.481 185.051C259.652 185.691 259.194 186.222 258.255 186.473C257.036 186.8 256.645 186.337 256.32 185.787C256.135 185.484 255.77 185.355 255.389 185.457C255.307 185.479 255.243 185.507 255.166 185.542L255.143 185.553C254.774 185.748 254.591 186.118 254.685 186.472C254.704 186.539 254.731 186.593 254.754 186.636L254.78 186.686C255.112 187.215 255.839 188.37 257.861 188.129L258.158 189.237C258.277 189.678 258.698 189.813 259.054 189.717C259.41 189.622 259.708 189.294 259.59 188.853L259.299 187.764C260.792 187.156 261.539 185.935 261.178 184.587" fill="white" fill-opacity="0.08"/>
</g>
<defs>
<clipPath id="clip0_88_2863">
<path d="M0 9.99999C0 4.47715 4.47715 0 10 0H260C265.523 0 270 4.47715 270 10V212C270 217.523 265.523 222 260 222H9.99999C4.47715 222 0 217.523 0 212V9.99999Z" fill="white"/>
</clipPath>
</defs>
</svg>
