<svg width="270" height="222" viewBox="0 0 270 222" fill="none" xmlns="http://www.w3.org/2000/svg">
<g clip-path="url(#clip0_308_16657)">
<path d="M0 9.99999C0 4.47715 4.47715 0 10 0H260C265.523 0 270 4.47715 270 10V212C270 217.523 265.523 222 260 222H9.99999C4.47715 222 0 217.523 0 212V9.99999Z" fill="#000532"/>
<g opacity="0.16" filter="url(#filter0_f_308_16657)">
<g opacity="0.8" filter="url(#filter1_f_308_16657)">
<circle cx="37.8439" cy="32.5501" r="22.1526" transform="rotate(-15 37.8439 32.5501)" fill="url(#paint0_linear_308_16657)"/>
</g>
<path d="M35.8001 13.2937C39.4349 14.6665 48.3566 18.3446 53.8618 22.9679C54.6488 23.6258 55.3417 24.3489 55.9367 25.1235C59.8247 20.4868 61.49 16.4019 59.969 14.0822C59.5707 13.4864 58.9721 13.0339 58.2187 12.7276C60.3327 12.8786 61.8823 13.5396 62.704 14.7693C64.4975 17.5033 62.3523 22.4055 57.5419 27.8519C57.7799 28.4049 57.9769 28.9726 58.132 29.5515L58.1432 29.5933C58.2329 29.928 58.305 30.2525 58.3668 30.5947C58.3743 30.6226 58.3716 30.6681 58.3828 30.7099C58.4334 31.0103 58.4803 31.2966 58.5031 31.6044L58.5174 31.8248C58.564 32.4999 58.5689 33.1862 58.5042 33.8911C58.4913 33.9541 58.4822 34.0311 58.4731 34.108L58.473 34.1087C58.4327 34.4035 58.4025 34.6807 58.3482 34.9792C58.3353 35.0424 58.3262 35.1196 58.3133 35.1829L58.3132 35.1832C58.2424 35.5309 58.1715 35.8787 58.0728 36.2338C58.0664 36.2655 58.0497 36.3147 58.0433 36.3464C57.9612 36.6523 57.8651 36.9621 57.7552 37.2755C57.7321 37.3565 57.6989 37.4551 57.6619 37.5397C57.5482 37.8392 57.4244 38.1564 57.2828 38.4634C57.2625 38.4987 57.2459 38.548 57.2255 38.5834C57.0636 38.9257 56.8878 39.2717 56.6981 39.6215L56.5556 39.8689L56.5553 39.8695C56.3925 40.1521 56.2399 40.4171 56.0594 40.6895C56.0085 40.7779 55.9437 40.87 55.8928 40.9584C55.6715 41.3017 55.4325 41.6347 55.1797 41.9715C55.1593 42.0069 55.1352 42.0283 55.1149 42.0636C54.8861 42.379 54.6359 42.6703 54.3756 42.9792C54.2969 43.075 54.2144 43.1569 54.1356 43.2528C53.8957 43.5263 53.652 43.7859 53.3943 44.0493C53.322 44.1135 53.2674 44.1879 53.1951 44.2521C52.8792 44.5759 52.5317 44.8932 52.1842 45.2104L52.184 45.2106C52.0977 45.2786 52.0153 45.3605 51.929 45.4284C51.6361 45.6713 51.3432 45.9142 51.0363 46.1609L50.7054 46.4289C50.3086 46.7296 49.8978 47.0339 49.4694 47.3281C43.4175 51.5206 34.8734 52.0911 28.4486 49.8815C37.791 45.9742 45.281 40.1009 51.4131 33.829C50.9755 34.2561 45.3609 38.4115 42.5726 40.4619C28.3084 49.8593 14.1905 53.5675 11.0382 48.7621C10.2127 47.5184 10.2219 45.8269 10.925 43.8299C10.9078 44.6566 11.0743 45.3893 11.4726 45.9851C12.9729 48.2604 17.2468 48.3864 22.8843 46.7492C20.7104 44.8093 19.398 42.2825 19.4798 39.2357C19.4967 38.7977 19.5238 38.342 19.5648 37.8826C19.5729 37.7459 19.5848 37.6231 19.5966 37.5004C19.6322 37.1321 19.6817 36.7601 19.7312 36.3881C19.7468 36.2793 19.7522 36.1882 19.7716 36.0933C19.8441 35.6404 19.9306 35.1837 20.031 34.7234C20.0643 34.6248 20.0799 34.5159 20.1094 34.4034C20.1905 34.0379 20.2715 33.6724 20.3665 33.3032C20.3961 33.1906 20.4218 33.0641 20.4615 32.9339C20.5935 32.48 20.7116 32.0299 20.8575 31.5723C20.8639 31.5406 20.8843 31.5053 20.8907 31.4737L20.8909 31.4731C21.0303 31.0473 21.1697 30.6215 21.3128 30.2096C21.3525 30.0794 21.4099 29.9594 21.4495 29.8292L21.871 28.7298C21.908 28.6451 21.9311 28.5642 21.9681 28.4795C22.1354 28.0461 22.3165 27.6089 22.5015 27.1856C22.5487 27.0833 22.5921 26.9671 22.6393 26.8647C22.7872 26.5261 22.9389 26.2015 23.0869 25.8629C23.134 25.7606 23.1914 25.6406 23.2386 25.5383C23.4272 25.129 23.6298 24.716 23.8223 24.3206C23.8565 24.2815 23.8732 24.2323 23.9037 24.1792C24.0878 23.8192 24.2619 23.4765 24.4359 23.134L24.4413 23.1234C24.4986 23.0034 24.5458 22.9011 24.6069 22.795C24.7864 22.4629 24.9558 22.1485 25.1251 21.8341L25.2168 21.675C25.4204 21.3215 25.6203 20.954 25.8137 20.6182L25.9665 20.3531C26.1154 20.074 26.2682 19.8088 26.4246 19.5577L26.557 19.3279C26.7402 19.0097 26.9273 18.7055 27.1041 18.419C27.1384 18.3799 27.155 18.3306 27.1892 18.2915C27.3428 18.045 27.4865 17.8156 27.6301 17.5864L27.6383 17.5733L27.6994 17.4673C27.9614 17.0533 28.2067 16.6886 28.428 16.3453C28.4586 16.2922 28.4789 16.2569 28.5132 16.2178C28.5641 16.1295 28.6188 16.055 28.6734 15.9806C28.7281 15.9062 28.7688 15.8355 28.8234 15.761L29.5976 14.6418L29.6078 14.6241C29.5324 14.5098 29.4811 14.3741 29.4678 14.2132C29.4519 14.0979 29.4637 13.9752 29.4756 13.8524C29.4681 13.8245 29.4745 13.7929 29.481 13.7613L29.481 13.7613C29.4966 13.6525 29.5261 13.5399 29.5556 13.4274C29.5658 13.4097 29.5723 13.3781 29.5824 13.3604C29.613 13.3074 29.6259 13.2441 29.6564 13.1911C29.6313 13.153 29.596 13.1325 29.5708 13.0944C29.5067 13.0219 29.4564 12.9458 29.4099 12.8835C29.4024 12.8556 29.3848 12.8453 29.3773 12.8175L29.3773 12.8174C29.3484 12.7654 29.3195 12.7133 29.3046 12.6576L29.2897 12.6018C29.2571 12.5358 29.2421 12.48 29.2373 12.4066C29.2475 12.3889 29.2438 12.3749 29.2401 12.361L29.24 12.361C29.239 12.3015 29.238 12.242 29.2407 12.1964C29.2332 12.1685 29.2434 12.1508 29.2397 12.1369C29.2387 12.0774 29.2515 12.0141 29.2682 11.9648L29.2783 11.9472C29.2912 11.8839 29.3218 11.8309 29.3486 11.7639L29.3791 11.7109C29.3958 11.6616 29.4263 11.6086 29.4606 11.5695L29.4911 11.5165C29.5217 11.4634 29.5801 11.403 29.6245 11.3462C29.6384 11.3425 29.6347 11.3285 29.6486 11.3248C29.6486 11.3248 29.6588 11.3071 29.6727 11.3034C29.6337 11.269 29.577 11.2244 29.5342 11.1761C29.3566 11.0144 29.1651 10.8564 28.9597 10.7022C28.046 10.0203 26.9962 9.55423 25.9261 9.1235L25.8723 9.10152C24.8506 8.68431 23.8025 8.25628 22.9557 7.55778C22.1506 6.8916 21.5791 5.98349 21.5161 4.969L21.5161 4.96912C21.5311 5.02484 21.5423 5.06664 21.5711 5.11866C21.5375 4.99315 21.5001 4.85368 21.4906 4.70676C21.3789 2.89816 22.9892 5.45615 24.3408 3.7637C25.6923 2.07125 25.7262 0.193736 29.2412 1.50895C32.7524 2.81022 33.0327 2.24186 33.6521 1.26874C34.2715 0.29562 35.6392 -0.055893 36.1622 0.670929C36.9543 1.40035 37.091 2.63422 36.7836 3.65827L36.7836 3.65835C36.7439 3.78854 36.7042 3.91874 36.6608 4.03498C36.5803 4.2359 36.4823 4.42659 36.3842 4.61729C36.3778 4.64891 36.3536 4.6703 36.3472 4.70192L36.3465 4.70304C36.2449 4.87942 36.1433 5.05584 36.0278 5.23594C36.0037 5.25735 35.9834 5.29268 35.963 5.32803C35.8612 5.50471 35.7418 5.67118 35.6224 5.83764L35.6223 5.83786C35.6019 5.87321 35.5676 5.91228 35.5473 5.94763C35.4278 6.11417 35.3185 6.26305 35.199 6.42959C34.5813 7.29762 33.9609 8.21121 33.752 9.26866C33.7262 9.39514 33.7079 9.54955 33.6858 9.68998C33.6665 9.78484 33.6573 9.86204 33.6482 9.93923C33.8869 9.99485 34.1014 10.0719 34.3031 10.2121C34.6005 10.4314 34.823 10.7604 34.8291 11.1175C34.8227 11.1491 34.8264 11.1631 34.82 11.1947C35.4501 11.6536 35.8108 12.4986 35.5855 13.2167C35.6663 13.2399 35.7332 13.2668 35.8001 13.2937Z" fill="url(#paint1_linear_308_16657)"/>
<path d="M35.1544 35.8543L35.0976 34.8664C34.0651 34.8845 33.0322 34.6998 32.2904 34.425C32.0256 34.3268 31.8769 34.0444 31.9357 33.7681L32.1337 32.8335C32.2064 32.4908 32.5634 32.295 32.8942 32.4115C33.6293 32.6714 34.5294 32.8581 35.4851 32.8031C36.4774 32.7461 37.1976 32.3673 37.1581 31.6775C37.1222 31.0552 36.5296 30.7185 35.1294 30.4279C33.1308 30.0031 31.6691 29.2266 31.5695 27.4943C31.4793 25.9305 32.5544 24.6706 34.52 24.2369L34.4632 23.2484C34.4449 22.9302 34.688 22.6578 35.0057 22.6395L35.586 22.6064C35.9043 22.588 36.1766 22.8312 36.1949 23.1489L36.2458 24.036C37.2014 24.0192 37.9042 24.1425 38.4663 24.3043C38.7543 24.387 38.9255 24.6819 38.8638 24.9754L38.6818 25.8397C38.6118 26.1729 38.2714 26.3728 37.9464 26.2712C37.4285 26.1088 36.7004 25.9502 35.7686 26.004C34.5916 26.0717 34.2832 26.5787 34.3083 27.0157C34.3392 27.554 35.067 27.8832 36.624 28.2661C38.8478 28.796 39.8081 29.6518 39.9019 31.2833C39.988 32.7801 38.9557 34.1891 36.8226 34.6491L36.8861 35.7548C36.9044 36.073 36.6612 36.3453 36.3436 36.3636L35.7627 36.3968C35.445 36.4151 35.1727 36.172 35.1544 35.8543Z" fill="white"/>
</g>
<g opacity="0.2" filter="url(#filter2_f_308_16657)">
<g opacity="0.8" filter="url(#filter3_f_308_16657)">
<circle cx="239.033" cy="119.017" r="27.7533" transform="rotate(30 239.033 119.017)" fill="url(#paint2_linear_308_16657)"/>
</g>
<path d="M254.281 100.148C256.285 104.584 260.93 115.746 261.712 124.719C261.826 125.999 261.799 127.253 261.64 128.466C269.192 127.803 274.286 125.66 274.994 122.257C275.169 121.377 275.039 120.445 274.643 119.507C276.382 121.513 277.169 123.471 276.808 125.289C275.975 129.3 269.731 131.742 260.645 132.305C260.366 133.006 260.038 133.684 259.662 134.334L259.635 134.381C259.418 134.757 259.194 135.108 258.946 135.466C258.928 135.497 258.885 135.535 258.858 135.582C258.637 135.893 258.425 136.188 258.172 136.481L257.99 136.689C257.433 137.328 256.829 137.941 256.148 138.508C256.08 138.552 256.004 138.613 255.927 138.673L255.927 138.673C255.63 138.898 255.358 139.117 255.046 139.334C254.978 139.378 254.902 139.439 254.834 139.483L254.834 139.483C254.463 139.729 254.092 139.974 253.69 140.201C253.656 140.223 253.598 140.252 253.564 140.275C253.22 140.473 252.861 140.662 252.486 140.843C252.394 140.894 252.277 140.952 252.169 140.994C251.803 141.159 251.412 141.33 251.015 141.476C250.966 141.49 250.907 141.519 250.858 141.532C250.411 141.692 249.949 141.843 249.471 141.984L249.126 142.077L249.125 142.078C248.73 142.184 248.36 142.283 247.959 142.365C247.836 142.398 247.697 142.422 247.573 142.455C247.073 142.563 246.567 142.647 246.044 142.721C245.995 142.734 245.955 142.732 245.905 142.745C245.423 142.822 244.944 142.858 244.439 142.901C244.285 142.917 244.139 142.916 243.984 142.931C243.529 142.961 243.083 142.975 242.622 142.98C242.501 142.973 242.387 142.991 242.266 142.983C241.699 142.99 241.11 142.964 240.521 142.937L240.521 142.937C240.384 142.921 240.239 142.92 240.102 142.904C239.627 142.859 239.153 142.815 238.662 142.762L238.132 142.706C237.514 142.621 236.88 142.527 236.24 142.408C227.165 140.761 219.091 133.697 215.356 126.048C227.094 130.863 238.932 132.295 249.921 132.171C249.155 132.162 240.5 130.869 236.213 130.215C215.252 125.904 199.46 116.682 200.924 109.633C201.295 107.8 202.802 106.309 205.193 105.163C204.446 105.88 203.944 106.677 203.769 107.557C203.083 110.902 206.757 114.8 213.202 118.344C212.995 114.699 214.07 111.298 216.842 108.672C217.245 108.299 217.673 107.919 218.116 107.548C218.244 107.434 218.364 107.336 218.483 107.238C218.841 106.943 219.214 106.657 219.587 106.372C219.698 106.289 219.783 106.213 219.884 106.146C220.35 105.809 220.831 105.481 221.328 105.163C221.444 105.105 221.555 105.022 221.681 104.949C222.076 104.697 222.472 104.445 222.883 104.202C223.009 104.128 223.144 104.039 223.294 103.959C223.813 103.674 224.317 103.379 224.851 103.103C224.885 103.081 224.934 103.068 224.968 103.045L224.969 103.045C225.469 102.791 225.97 102.538 226.462 102.299C226.612 102.219 226.769 102.164 226.92 102.084L228.267 101.483C228.375 101.441 228.467 101.389 228.575 101.347C229.107 101.111 229.655 100.885 230.194 100.674C230.326 100.625 230.468 100.56 230.6 100.511C231.031 100.342 231.453 100.189 231.884 100.02C232.017 99.9715 232.174 99.916 232.306 99.8671C232.836 99.6717 233.381 99.4853 233.902 99.3055C233.967 99.3013 234.025 99.2724 234.099 99.2524C234.581 99.0965 235.039 98.9471 235.497 98.7978L235.511 98.7933C235.668 98.7378 235.8 98.6889 235.948 98.6491C236.402 98.514 236.83 98.3854 237.259 98.2569L237.481 98.1972C237.974 98.0644 238.477 97.916 238.946 97.7898L239.316 97.6903C239.695 97.575 240.066 97.4754 240.427 97.3915L240.747 97.3052C241.192 97.1857 241.627 97.0819 242.037 96.9847C242.102 96.9804 242.161 96.9515 242.226 96.9472C242.58 96.8648 242.911 96.7888 243.242 96.7129L243.26 96.7088L243.408 96.6689C244.007 96.5343 244.547 96.4286 245.047 96.3205C245.121 96.3006 245.171 96.2873 245.236 96.2831C245.359 96.2499 245.473 96.2323 245.588 96.2148C245.702 96.1973 245.801 96.1707 245.915 96.1532L247.592 95.8475L247.617 95.8409C247.652 95.6728 247.726 95.5071 247.857 95.3529C247.945 95.2366 248.064 95.1384 248.184 95.0401C248.202 95.0088 248.235 94.9865 248.269 94.9642L248.269 94.9642C248.379 94.8816 248.505 94.808 248.631 94.7345C248.656 94.7278 248.689 94.7056 248.714 94.6989C248.788 94.679 248.856 94.6344 248.93 94.6145C248.941 94.5585 248.928 94.5091 248.939 94.453C248.947 94.332 248.97 94.2199 248.984 94.1236C249.002 94.0922 248.995 94.0675 249.013 94.0362L249.013 94.0361C249.034 93.9644 249.054 93.8928 249.091 93.8302L249.127 93.7675C249.156 93.6802 249.193 93.6175 249.253 93.5482C249.278 93.5416 249.287 93.5259 249.296 93.5102C249.348 93.4566 249.4 93.403 249.443 93.365C249.461 93.3337 249.485 93.3271 249.494 93.3114C249.546 93.2578 249.614 93.2131 249.672 93.1842L249.697 93.1776C249.764 93.133 249.838 93.113 249.921 93.0774L249.995 93.0575C250.054 93.0286 250.128 93.0087 250.193 93.0044L250.267 92.9845C250.341 92.9646 250.446 92.9627 250.536 92.9519C250.551 92.9609 250.56 92.9452 250.576 92.9542C250.576 92.9542 250.601 92.9476 250.616 92.9566C250.612 92.8916 250.602 92.8018 250.606 92.7211C250.592 92.4206 250.563 92.111 250.517 91.7924C250.312 90.3789 249.795 89.036 249.228 87.7064L249.2 87.6393C248.665 86.3646 248.115 85.057 247.984 83.6879C247.861 82.3846 248.159 81.0738 249.002 80.1193L249.002 80.1195C248.966 80.1821 248.939 80.229 248.918 80.3006C249 80.1597 249.09 80.003 249.212 79.8644C250.715 78.1633 249.876 81.8559 252.572 81.5539C255.269 81.2519 256.962 79.6187 258.911 83.8976C260.869 88.1609 261.62 87.9057 263.031 87.5924C264.442 87.279 265.965 88.1793 265.784 89.2864C265.84 90.6343 264.868 91.8485 263.688 92.4834L263.688 92.4834C263.538 92.5636 263.387 92.6437 263.246 92.7083C262.997 92.815 262.741 92.8971 262.485 92.9791C262.451 93.0014 262.411 92.999 262.377 93.0213L262.376 93.0217C262.13 93.088 261.883 93.1542 261.621 93.2115C261.581 93.2091 261.532 93.2223 261.482 93.2356C261.236 93.302 260.982 93.3437 260.729 93.3853L260.729 93.3854C260.679 93.3987 260.614 93.4029 260.565 93.4162C260.312 93.4579 260.083 93.493 259.83 93.5347C258.513 93.7564 257.155 94.0161 256.033 94.7678C255.898 94.857 255.745 94.9776 255.601 95.0825C255.5 95.1494 255.423 95.2097 255.347 95.2699C255.509 95.5306 255.631 95.789 255.685 96.0919C255.754 96.5496 255.66 97.0381 255.349 97.3599C255.315 97.3822 255.306 97.3979 255.273 97.4202C255.424 98.385 254.995 99.4531 254.159 99.8896C254.211 99.9818 254.246 100.065 254.281 100.148Z" fill="url(#paint3_linear_308_16657)"/>
<path d="M233.723 119.562L234.548 118.636C233.617 117.738 232.866 116.659 232.452 115.759C232.305 115.437 232.423 115.055 232.72 114.862L233.723 114.21C234.091 113.971 234.581 114.113 234.771 114.51C235.192 115.391 235.824 116.354 236.719 117.152C237.649 117.98 238.622 118.283 239.199 117.637C239.718 117.054 239.491 116.23 238.508 114.733C237.114 112.586 236.507 110.603 237.953 108.98C239.259 107.515 241.327 107.351 243.453 108.708L244.278 107.782C244.544 107.484 245.001 107.458 245.298 107.723L245.842 108.208C246.14 108.474 246.166 108.931 245.901 109.228L245.16 110.059C246.021 110.891 246.535 111.623 246.889 112.264C247.071 112.592 246.961 113.005 246.647 113.211L245.72 113.815C245.363 114.048 244.884 113.924 244.686 113.546C244.371 112.943 243.867 112.158 242.994 111.38C241.891 110.397 241.169 110.573 240.804 110.982C240.354 111.487 240.707 112.423 241.747 114.141C243.248 116.581 243.341 118.19 241.978 119.718C240.729 121.121 238.566 121.454 236.269 119.972L235.346 121.008C235.08 121.306 234.623 121.332 234.326 121.067L233.782 120.581C233.484 120.316 233.458 119.86 233.723 119.562Z" fill="white"/>
</g>
</g>
<defs>
<filter id="filter0_f_308_16657" x="8.40771" y="-1.71619" width="56.9247" height="58.4243" filterUnits="userSpaceOnUse" color-interpolation-filters="sRGB">
<feFlood flood-opacity="0" result="BackgroundImageFix"/>
<feBlend mode="normal" in="SourceGraphic" in2="BackgroundImageFix" result="shape"/>
<feGaussianBlur stdDeviation="1" result="effect1_foregroundBlur_308_16657"/>
</filter>
<filter id="filter1_f_308_16657" x="-58.1561" y="-63.4498" width="192" height="192" filterUnits="userSpaceOnUse" color-interpolation-filters="sRGB">
<feFlood flood-opacity="0" result="BackgroundImageFix"/>
<feBlend mode="normal" in="SourceGraphic" in2="BackgroundImageFix" result="shape"/>
<feGaussianBlur stdDeviation="36.9209" result="effect1_foregroundBlur_308_16657"/>
</filter>
<filter id="filter2_f_308_16657" x="196.83" y="75.4146" width="84.0636" height="75.3607" filterUnits="userSpaceOnUse" color-interpolation-filters="sRGB">
<feFlood flood-opacity="0" result="BackgroundImageFix"/>
<feBlend mode="normal" in="SourceGraphic" in2="BackgroundImageFix" result="shape"/>
<feGaussianBlur stdDeviation="2" result="effect1_foregroundBlur_308_16657"/>
</filter>
<filter id="filter3_f_308_16657" x="118.764" y="-1.25141" width="240.538" height="240.538" filterUnits="userSpaceOnUse" color-interpolation-filters="sRGB">
<feFlood flood-opacity="0" result="BackgroundImageFix"/>
<feBlend mode="normal" in="SourceGraphic" in2="BackgroundImageFix" result="shape"/>
<feGaussianBlur stdDeviation="46.2555" result="effect1_foregroundBlur_308_16657"/>
</filter>
<linearGradient id="paint0_linear_308_16657" x1="37.96" y1="38.1869" x2="43.6311" y2="99.7883" gradientUnits="userSpaceOnUse">
<stop stop-color="#50E7B7"/>
<stop offset="0.9964" stop-color="#323992"/>
</linearGradient>
<linearGradient id="paint1_linear_308_16657" x1="37.071" y1="31.9207" x2="61.3116" y2="99.9759" gradientUnits="userSpaceOnUse">
<stop stop-color="#50E7B7"/>
<stop offset="0.9964" stop-color="#323992"/>
</linearGradient>
<linearGradient id="paint2_linear_308_16657" x1="239.178" y1="126.079" x2="246.283" y2="203.255" gradientUnits="userSpaceOnUse">
<stop stop-color="#50E7B7"/>
<stop offset="0.9964" stop-color="#323992"/>
</linearGradient>
<linearGradient id="paint3_linear_308_16657" x1="238.906" y1="117.775" x2="200.091" y2="199.538" gradientUnits="userSpaceOnUse">
<stop stop-color="#50E7B7"/>
<stop offset="0.9964" stop-color="#323992"/>
</linearGradient>
<clipPath id="clip0_308_16657">
<path d="M0 9.99999C0 4.47715 4.47715 0 10 0H260C265.523 0 270 4.47715 270 10V212C270 217.523 265.523 222 260 222H9.99999C4.47715 222 0 217.523 0 212V9.99999Z" fill="white"/>
</clipPath>
</defs>
</svg>
