<svg width="1110" height="110" viewBox="0 0 1110 110" fill="none" xmlns="http://www.w3.org/2000/svg">
<g clip-path="url(#clip0_308_16667)">
<path d="M0 10C0 4.47715 4.47715 0 10 0H1100C1105.52 0 1110 4.47715 1110 10V100C1110 105.523 1105.52 110 1100 110H9.99999C4.47715 110 0 105.523 0 100V10Z" fill="#000532"/>
<g opacity="0.16" filter="url(#filter0_f_308_16667)">
<g opacity="0.8" filter="url(#filter1_f_308_16667)">
<circle cx="282.844" cy="100.55" r="22.1526" transform="rotate(-15 282.844 100.55)" fill="url(#paint0_linear_308_16667)"/>
</g>
<path d="M280.8 81.2937C284.435 82.6665 293.357 86.3446 298.862 90.9679C299.649 91.6258 300.342 92.3489 300.937 93.1235C304.825 88.4868 306.49 84.4019 304.969 82.0822C304.571 81.4864 303.972 81.0339 303.219 80.7276C305.333 80.8786 306.882 81.5396 307.704 82.7693C309.498 85.5033 307.352 90.4055 302.542 95.8519C302.78 96.4049 302.977 96.9726 303.132 97.5515L303.143 97.5933C303.233 97.928 303.305 98.2525 303.367 98.5947C303.374 98.6226 303.372 98.6681 303.383 98.7099C303.433 99.0103 303.48 99.2966 303.503 99.6044L303.517 99.8248C303.564 100.5 303.569 101.186 303.504 101.891C303.491 101.954 303.482 102.031 303.473 102.108L303.473 102.109C303.433 102.404 303.402 102.681 303.348 102.979C303.335 103.042 303.326 103.12 303.313 103.183L303.313 103.183C303.242 103.531 303.171 103.879 303.073 104.234C303.066 104.265 303.05 104.315 303.043 104.346C302.961 104.652 302.865 104.962 302.755 105.276C302.732 105.356 302.699 105.455 302.662 105.54C302.548 105.839 302.424 106.156 302.283 106.463C302.262 106.499 302.246 106.548 302.226 106.583C302.064 106.926 301.888 107.272 301.698 107.622L301.556 107.869L301.555 107.869C301.393 108.152 301.24 108.417 301.059 108.69C301.008 108.778 300.944 108.87 300.893 108.958C300.671 109.302 300.433 109.635 300.18 109.972C300.159 110.007 300.135 110.028 300.115 110.064C299.886 110.379 299.636 110.67 299.376 110.979C299.297 111.075 299.214 111.157 299.136 111.253C298.896 111.526 298.652 111.786 298.394 112.049C298.322 112.113 298.267 112.188 298.195 112.252C297.879 112.576 297.532 112.893 297.184 113.21L297.184 113.211C297.098 113.279 297.015 113.36 296.929 113.428C296.636 113.671 296.343 113.914 296.036 114.161L295.705 114.429C295.309 114.73 294.898 115.034 294.469 115.328C288.417 119.521 279.873 120.091 273.449 117.881C282.791 113.974 290.281 108.101 296.413 101.829C295.975 102.256 290.361 106.411 287.573 108.462C273.308 117.859 259.191 121.567 256.038 116.762C255.213 115.518 255.222 113.827 255.925 111.83C255.908 112.657 256.074 113.389 256.473 113.985C257.973 116.26 262.247 116.386 267.884 114.749C265.71 112.809 264.398 110.282 264.48 107.236C264.497 106.798 264.524 106.342 264.565 105.883C264.573 105.746 264.585 105.623 264.597 105.5C264.632 105.132 264.682 104.76 264.731 104.388C264.747 104.279 264.752 104.188 264.772 104.093C264.844 103.64 264.931 103.184 265.031 102.723C265.064 102.625 265.08 102.516 265.109 102.403C265.19 102.038 265.272 101.672 265.367 101.303C265.396 101.191 265.422 101.064 265.462 100.934C265.593 100.48 265.712 100.03 265.857 99.5723C265.864 99.5406 265.884 99.5053 265.891 99.4737L265.891 99.4731C266.03 99.0473 266.17 98.6215 266.313 98.2096C266.353 98.0794 266.41 97.9594 266.45 97.8292L266.871 96.7298C266.908 96.6451 266.931 96.5642 266.968 96.4795C267.135 96.0461 267.317 95.6089 267.501 95.1856C267.549 95.0833 267.592 94.9671 267.639 94.8647C267.787 94.5261 267.939 94.2015 268.087 93.8629C268.134 93.7606 268.191 93.6406 268.239 93.5383C268.427 93.129 268.63 92.716 268.822 92.3206C268.857 92.2815 268.873 92.2323 268.904 92.1792C269.088 91.8192 269.262 91.4765 269.436 91.134L269.441 91.1234C269.499 91.0034 269.546 90.9011 269.607 90.795C269.786 90.4629 269.956 90.1485 270.125 89.8341L270.217 89.675C270.42 89.3215 270.62 88.954 270.814 88.6182L270.966 88.3531C271.115 88.074 271.268 87.8088 271.425 87.5577L271.557 87.3279C271.74 87.0097 271.927 86.7055 272.104 86.419C272.138 86.3799 272.155 86.3306 272.189 86.2915C272.343 86.045 272.487 85.8156 272.63 85.5864L272.638 85.5733L272.699 85.4673C272.961 85.0533 273.207 84.6886 273.428 84.3453C273.459 84.2922 273.479 84.2569 273.513 84.2178C273.564 84.1295 273.619 84.055 273.673 83.9806C273.728 83.9062 273.769 83.8355 273.823 83.761L274.598 82.6418L274.608 82.6241C274.532 82.5098 274.481 82.3741 274.468 82.2132C274.452 82.0979 274.464 81.9752 274.476 81.8524C274.468 81.8245 274.475 81.7929 274.481 81.7613L274.481 81.7613C274.497 81.6525 274.526 81.5399 274.556 81.4274C274.566 81.4097 274.572 81.3781 274.582 81.3604C274.613 81.3074 274.626 81.2441 274.656 81.1911C274.631 81.153 274.596 81.1325 274.571 81.0944C274.507 81.0219 274.456 80.9458 274.41 80.8835C274.402 80.8556 274.385 80.8453 274.377 80.8175L274.377 80.8174C274.348 80.7654 274.32 80.7133 274.305 80.6576L274.29 80.6018C274.257 80.5358 274.242 80.48 274.237 80.4066C274.248 80.3889 274.244 80.3749 274.24 80.361L274.24 80.361C274.239 80.3015 274.238 80.242 274.241 80.1964C274.233 80.1685 274.243 80.1508 274.24 80.1369C274.239 80.0774 274.252 80.0141 274.268 79.9648L274.278 79.9472C274.291 79.8839 274.322 79.8309 274.349 79.7639L274.379 79.7109C274.396 79.6616 274.426 79.6086 274.461 79.5695L274.491 79.5165C274.522 79.4634 274.58 79.403 274.625 79.3462C274.638 79.3425 274.635 79.3285 274.649 79.3248C274.649 79.3248 274.659 79.3071 274.673 79.3034C274.634 79.269 274.577 79.2244 274.534 79.1761C274.357 79.0144 274.165 78.8564 273.96 78.7022C273.046 78.0203 271.996 77.5542 270.926 77.1235L270.872 77.1015C269.851 76.6843 268.803 76.2563 267.956 75.5578C267.151 74.8916 266.579 73.9835 266.516 72.969L266.516 72.9691C266.531 73.0248 266.542 73.0666 266.571 73.1187C266.537 72.9931 266.5 72.8537 266.491 72.7068C266.379 70.8982 267.989 73.4561 269.341 71.7637C270.692 70.0712 270.726 68.1937 274.241 69.509C277.752 70.8102 278.033 70.2419 278.652 69.2687C279.271 68.2956 280.639 67.9441 281.162 68.6709C281.954 69.4004 282.091 70.6342 281.784 71.6583L281.784 71.6583C281.744 71.7885 281.704 71.9187 281.661 72.035C281.58 72.2359 281.482 72.4266 281.384 72.6173C281.378 72.6489 281.354 72.6703 281.347 72.7019L281.347 72.703C281.245 72.8794 281.143 73.0558 281.028 73.2359C281.004 73.2573 280.983 73.2927 280.963 73.328C280.861 73.5047 280.742 73.6712 280.622 73.8376L280.622 73.8379C280.602 73.8732 280.568 73.9123 280.547 73.9476C280.428 74.1142 280.318 74.263 280.199 74.4296C279.581 75.2976 278.961 76.2112 278.752 77.2687C278.726 77.3951 278.708 77.5495 278.686 77.69C278.667 77.7848 278.657 77.862 278.648 77.9392C278.887 77.9949 279.101 78.0719 279.303 78.2121C279.601 78.4314 279.823 78.7604 279.829 79.1175C279.823 79.1491 279.826 79.1631 279.82 79.1947C280.45 79.6536 280.811 80.4986 280.586 81.2167C280.666 81.2399 280.733 81.2668 280.8 81.2937Z" fill="url(#paint1_linear_308_16667)"/>
<path d="M280.154 103.854L280.098 102.866C279.065 102.884 278.032 102.7 277.29 102.425C277.026 102.327 276.877 102.044 276.936 101.768L277.134 100.833C277.206 100.491 277.563 100.295 277.894 100.412C278.629 100.671 279.529 100.858 280.485 100.803C281.477 100.746 282.198 100.367 282.158 99.6775C282.122 99.0552 281.53 98.7185 280.129 98.4279C278.131 98.0031 276.669 97.2266 276.569 95.4943C276.479 93.9305 277.554 92.6706 279.52 92.2369L279.463 91.2484C279.445 90.9302 279.688 90.6578 280.006 90.6395L280.586 90.6064C280.904 90.588 281.177 90.8312 281.195 91.1489L281.246 92.036C282.201 92.0192 282.904 92.1425 283.466 92.3043C283.754 92.387 283.926 92.6819 283.864 92.9754L283.682 93.8397C283.612 94.1729 283.271 94.3728 282.946 94.2712C282.428 94.1088 281.7 93.9502 280.769 94.004C279.592 94.0717 279.283 94.5787 279.308 95.0157C279.339 95.554 280.067 95.8832 281.624 96.2661C283.848 96.796 284.808 97.6518 284.902 99.2833C284.988 100.78 283.956 102.189 281.823 102.649L281.886 103.755C281.904 104.073 281.661 104.345 281.344 104.364L280.763 104.397C280.445 104.415 280.173 104.172 280.154 103.854Z" fill="white"/>
</g>
<g opacity="0.16" filter="url(#filter2_f_308_16667)">
<g opacity="0.8" filter="url(#filter3_f_308_16667)">
<circle cx="860.726" cy="93.066" r="29.703" transform="rotate(-15 860.726 93.066)" fill="url(#paint2_linear_308_16667)"/>
</g>
<path d="M857.985 67.2464C862.859 69.087 874.821 74.0187 882.203 80.2179C883.258 81.1 884.187 82.0695 884.985 83.1081C890.198 76.8911 892.431 71.4139 890.392 68.3036C889.858 67.5047 889.055 66.898 888.045 66.4873C890.88 66.6898 892.957 67.5761 894.059 69.2249C896.464 72.8907 893.587 79.4639 887.137 86.7666C887.457 87.508 887.721 88.2691 887.929 89.0453L887.944 89.1014C888.064 89.5502 888.161 89.9854 888.244 90.4441C888.254 90.4815 888.25 90.5426 888.265 90.5987C888.333 91.0014 888.396 91.3854 888.426 91.7981L888.446 92.0935C888.508 92.9987 888.515 93.9189 888.428 94.8641C888.411 94.9489 888.398 95.0524 888.386 95.1559C888.332 95.5512 888.291 95.9228 888.219 96.3231C888.201 96.4079 888.189 96.5114 888.172 96.5962L888.172 96.5964C888.077 97.0627 887.982 97.529 887.849 98.0053C887.841 98.0477 887.818 98.1138 887.81 98.1562C887.7 98.5665 887.571 98.9818 887.424 99.4021C887.393 99.5106 887.348 99.6428 887.298 99.7563C887.146 100.158 886.98 100.583 886.79 100.995C886.763 101.042 886.741 101.108 886.713 101.156C886.496 101.615 886.261 102.079 886.006 102.548L885.815 102.879L885.815 102.88C885.596 103.259 885.392 103.614 885.15 103.98C885.081 104.098 884.995 104.222 884.926 104.34C884.63 104.8 884.309 105.247 883.97 105.699C883.943 105.746 883.911 105.775 883.883 105.822C883.577 106.245 883.241 106.636 882.892 107.05C882.786 107.178 882.676 107.288 882.57 107.417C882.249 107.783 881.922 108.131 881.576 108.485C881.479 108.571 881.406 108.67 881.309 108.757C880.885 109.191 880.42 109.616 879.954 110.042L879.953 110.042C879.838 110.133 879.727 110.243 879.612 110.334C879.219 110.659 878.826 110.985 878.415 111.316L877.971 111.675C877.439 112.078 876.888 112.486 876.314 112.881C868.199 118.502 856.743 119.267 848.128 116.305C860.655 111.066 870.698 103.19 878.92 94.7809C878.333 95.3534 870.805 100.925 867.066 103.675C847.94 116.275 829.01 121.247 824.784 114.804C823.677 113.136 823.689 110.868 824.632 108.19C824.609 109.299 824.832 110.281 825.366 111.08C827.378 114.131 833.108 114.3 840.667 112.105C837.752 109.504 835.993 106.116 836.102 102.03C836.125 101.443 836.161 100.832 836.216 100.216C836.227 100.033 836.243 99.8681 836.259 99.7036C836.307 99.2098 836.373 98.711 836.439 98.2122C836.46 98.0663 836.468 97.9441 836.494 97.8169C836.591 97.2096 836.707 96.5973 836.841 95.98C836.886 95.8478 836.907 95.7019 836.947 95.551C837.055 95.0609 837.164 94.5709 837.291 94.0758C837.331 93.9249 837.365 93.7553 837.419 93.5807C837.596 92.9721 837.754 92.3685 837.95 91.7549C837.958 91.7125 837.986 91.6651 837.994 91.6227L837.994 91.6222C838.181 91.0512 838.368 90.4801 838.56 89.9278C838.613 89.7532 838.69 89.5924 838.744 89.4178L839.309 87.9436C839.358 87.8301 839.389 87.7216 839.439 87.6081C839.663 87.0269 839.906 86.4407 840.154 85.8732C840.217 85.736 840.275 85.5801 840.339 85.4429C840.537 84.9889 840.741 84.5536 840.939 84.0996C841.002 83.9624 841.079 83.8015 841.142 83.6643C841.395 83.1155 841.667 82.5617 841.925 82.0316C841.971 81.9792 841.993 81.9132 842.034 81.8421C842.281 81.3593 842.514 80.8997 842.748 80.4404L842.755 80.4263C842.832 80.2655 842.895 80.1282 842.977 79.986C843.218 79.5408 843.445 79.1192 843.672 78.6976L843.795 78.4843C844.068 78.0103 844.336 77.5176 844.595 77.0673L844.8 76.7118C845 76.3376 845.204 75.9821 845.414 75.6453L845.592 75.3372C845.837 74.9106 846.088 74.5027 846.325 74.1185C846.371 74.0661 846.394 74 846.44 73.9476C846.646 73.6165 846.839 73.3082 847.032 73.0003L847.042 72.9846L847.123 72.8424C847.475 72.2873 847.804 71.7983 848.101 71.338C848.141 71.2669 848.169 71.2195 848.215 71.1671C848.283 71.0486 848.356 70.9488 848.43 70.849C848.503 70.7492 848.557 70.6544 848.631 70.5546L849.669 69.0539L849.682 69.0302C849.581 68.8769 849.513 68.6949 849.495 68.4792C849.473 68.3246 849.489 68.1601 849.505 67.9955C849.495 67.9581 849.504 67.9157 849.512 67.8733L849.512 67.8733C849.533 67.7274 849.573 67.5764 849.612 67.4255C849.626 67.4018 849.635 67.3595 849.648 67.3358C849.689 67.2647 849.707 67.1799 849.748 67.1088C849.714 67.0577 849.667 67.0303 849.633 66.9792C849.547 66.882 849.479 66.7798 849.417 66.6963C849.407 66.6589 849.383 66.6452 849.373 66.6078L849.373 66.6077C849.335 66.5379 849.296 66.4682 849.276 66.3934L849.256 66.3186C849.212 66.2301 849.192 66.1553 849.186 66.0568C849.199 66.0331 849.194 66.0144 849.189 65.9957C849.188 65.9159 849.187 65.8362 849.19 65.7751C849.18 65.7377 849.194 65.7139 849.189 65.6952C849.187 65.6154 849.205 65.5306 849.227 65.4645L849.241 65.4409C849.258 65.3561 849.299 65.2849 849.335 65.1951L849.376 65.124C849.398 65.0579 849.439 64.9869 849.485 64.9345L849.526 64.8634C849.567 64.7923 849.645 64.7112 849.705 64.6351C849.723 64.6301 849.718 64.6113 849.737 64.6063C849.737 64.6063 849.751 64.5826 849.769 64.5776C849.717 64.5315 849.641 64.4718 849.584 64.407C849.346 64.1902 849.089 63.9784 848.813 63.7716C847.588 62.8573 846.181 62.2323 844.746 61.6548L844.674 61.6253C843.304 61.0659 841.898 60.492 840.763 59.5554C839.684 58.6622 838.917 57.4445 838.833 56.0843L838.833 56.0844C838.853 56.1591 838.868 56.2152 838.907 56.2849C838.861 56.1166 838.811 55.9296 838.799 55.7326C838.649 53.3076 840.808 56.7374 842.62 54.4681C844.432 52.1988 844.478 49.6814 849.191 51.4449C853.899 53.1897 854.275 52.4276 855.105 51.1228C855.936 49.818 857.77 49.3467 858.471 50.3212C859.533 51.2993 859.716 52.9537 859.304 54.3268C859.251 54.5014 859.198 54.676 859.139 54.8319C859.031 55.1013 858.9 55.357 858.768 55.6127C858.76 55.6551 858.727 55.6838 858.719 55.7262L858.718 55.7277C858.582 55.9642 858.445 56.2007 858.291 56.4422C858.258 56.4709 858.231 56.5183 858.204 56.5657C858.067 56.8025 857.907 57.0257 857.747 57.2489L857.747 57.2493C857.72 57.2967 857.674 57.3491 857.646 57.3965C857.486 57.6198 857.34 57.8194 857.179 58.0427C856.351 59.2066 855.519 60.4315 855.239 61.8494C855.204 62.019 855.18 62.226 855.15 62.4143C855.124 62.5415 855.112 62.645 855.1 62.7485C855.42 62.8231 855.708 62.9264 855.978 63.1145C856.377 63.4084 856.675 63.8496 856.683 64.3284C856.675 64.3708 856.68 64.3895 856.671 64.4319C857.516 65.0473 858 66.1803 857.698 67.1431C857.806 67.1742 857.896 67.2103 857.985 67.2464Z" fill="url(#paint3_linear_308_16667)"/>
<path d="M857.12 97.4965L857.044 96.1719C855.659 96.1962 854.274 95.9485 853.28 95.5801C852.925 95.4484 852.725 95.0698 852.804 94.6992L853.07 93.4461C853.167 92.9866 853.646 92.7241 854.089 92.8804C855.075 93.2288 856.282 93.4792 857.563 93.4054C858.894 93.329 859.86 92.8211 859.807 91.8961C859.758 91.0617 858.964 90.6102 857.086 90.2206C854.407 89.651 852.447 88.6098 852.313 86.2872C852.192 84.1903 853.634 82.501 856.269 81.9195L856.193 80.5941C856.169 80.1674 856.495 79.8022 856.921 79.7777L857.699 79.7332C858.125 79.7086 858.491 80.0347 858.515 80.4606L858.583 81.6501C859.865 81.6276 860.807 81.7929 861.561 82.0098C861.947 82.1208 862.176 82.5162 862.094 82.9097L861.85 84.0686C861.756 84.5154 861.299 84.7834 860.864 84.6472C860.169 84.4293 859.193 84.2167 857.943 84.2888C856.365 84.3797 855.952 85.0594 855.985 85.6454C856.027 86.3672 857.003 86.8085 859.09 87.3219C862.072 88.0325 863.36 89.18 863.486 91.3675C863.601 93.3745 862.217 95.2638 859.357 95.8806L859.442 97.3631C859.466 97.7897 859.14 98.1549 858.714 98.1795L857.936 98.224C857.51 98.2485 857.144 97.9225 857.12 97.4965Z" fill="white"/>
</g>
<g opacity="0.16" filter="url(#filter4_f_308_16667)">
<g opacity="0.8" filter="url(#filter5_f_308_16667)">
<circle cx="576.725" cy="22.0174" r="27.7533" transform="rotate(30 576.725 22.0174)" fill="url(#paint4_linear_308_16667)"/>
</g>
<path d="M591.973 3.14797C593.977 7.58408 598.622 18.746 599.403 27.7187C599.518 28.9987 599.491 30.253 599.332 31.4664C606.884 30.8031 611.978 28.6596 612.685 25.2572C612.86 24.3766 612.731 23.4455 612.335 22.5067C614.074 24.5132 614.861 26.4715 614.499 28.2888C613.666 32.2997 607.423 34.742 598.337 35.3054C598.058 36.0061 597.729 36.6836 597.354 37.3338L597.327 37.3808C597.11 37.7568 596.886 38.1081 596.638 38.466C596.62 38.4973 596.577 38.5352 596.55 38.5822C596.329 38.8932 596.116 39.1884 595.864 39.4812L595.681 39.6891C595.125 40.3285 594.521 40.9408 593.839 41.5079C593.772 41.5524 593.696 41.6126 593.619 41.6728L593.619 41.6731C593.322 41.8985 593.05 42.1173 592.737 42.3337C592.67 42.3783 592.593 42.4386 592.526 42.4832L592.525 42.4834C592.155 42.7287 591.784 42.9739 591.382 43.2011C591.348 43.2235 591.29 43.2524 591.256 43.2747C590.912 43.473 590.553 43.6623 590.178 43.8426C590.085 43.8939 589.969 43.9518 589.861 43.994C589.495 44.1586 589.104 44.3299 588.707 44.4764C588.657 44.4897 588.599 44.5187 588.55 44.5319C588.103 44.6918 587.641 44.8426 587.163 44.9844L586.817 45.0774L586.817 45.0776C586.422 45.1837 586.052 45.2832 585.651 45.3647C585.527 45.3979 585.388 45.4221 585.265 45.4553C584.765 45.5633 584.258 45.6467 583.736 45.7211C583.687 45.7344 583.646 45.732 583.597 45.7453C583.115 45.822 582.635 45.8584 582.131 45.9014C581.976 45.9166 581.831 45.9161 581.676 45.9312C581.221 45.961 580.775 45.9751 580.314 45.9801C580.193 45.973 580.078 45.9905 579.957 45.9833C579.391 45.9903 578.802 45.9635 578.213 45.9367L578.213 45.9367C578.076 45.9205 577.93 45.92 577.794 45.9038C577.319 45.8595 576.844 45.8152 576.354 45.7618L575.823 45.7061C575.206 45.6209 574.572 45.5267 573.932 45.4078C564.857 43.7605 556.782 36.6969 553.048 29.0478C564.786 33.8627 576.624 35.2949 587.612 35.1711C586.846 35.1617 578.191 33.869 573.905 33.2154C552.943 28.904 537.152 19.6822 538.616 12.6326C538.987 10.7996 540.493 9.30925 542.885 8.16297C542.138 8.88012 541.636 9.67665 541.461 10.5573C540.775 13.9021 544.449 17.7999 550.893 21.3437C550.686 17.6994 551.762 14.2983 554.534 11.6716C554.937 11.2986 555.364 10.9189 555.808 10.5482C555.936 10.4343 556.055 10.3361 556.174 10.2378C556.532 9.94311 556.906 9.6574 557.279 9.3717C557.389 9.28913 557.475 9.21319 557.576 9.14628C558.041 8.80934 558.523 8.48143 559.019 8.16254C559.136 8.10466 559.246 8.02206 559.372 7.94851C559.768 7.69653 560.163 7.44461 560.575 7.20166C560.701 7.12811 560.835 7.03887 560.986 6.95868C561.505 6.67351 562.008 6.37932 562.543 6.10318C562.577 6.08087 562.626 6.06759 562.66 6.04529L562.66 6.04507C563.161 5.7913 563.662 5.53752 564.153 5.29941C564.304 5.21922 564.461 5.16374 564.612 5.08355L565.959 4.48293C566.067 4.44071 566.159 4.38947 566.267 4.34725C566.799 4.11146 567.347 3.88467 567.885 3.67357C568.018 3.62471 568.159 3.56017 568.292 3.51132C568.723 3.34244 569.145 3.18923 569.576 3.02035C569.708 2.97149 569.865 2.91599 569.998 2.86713C570.527 2.6717 571.073 2.4853 571.594 2.30554C571.658 2.30128 571.717 2.27236 571.791 2.25245C572.273 2.09654 572.731 1.94713 573.189 1.7978L573.202 1.79331C573.36 1.73781 573.492 1.68894 573.64 1.64911C574.093 1.51395 574.522 1.38545 574.95 1.25693L575.173 1.19718C575.666 1.06441 576.169 0.915953 576.638 0.789818L577.008 0.690254C577.387 0.575009 577.757 0.475406 578.118 0.391489L578.439 0.30517C578.883 0.185673 579.318 0.0818853 579.729 -0.0153072C579.794 -0.0195595 579.852 -0.048527 579.917 -0.0527783C580.272 -0.135207 580.603 -0.211214 580.933 -0.287123L580.951 -0.291231L581.099 -0.331061C581.698 -0.465701 582.239 -0.571434 582.739 -0.679518C582.813 -0.699433 582.862 -0.712674 582.927 -0.716926C583.051 -0.750118 583.165 -0.76766 583.279 -0.78519C583.394 -0.802719 583.492 -0.829266 583.607 -0.846796L585.284 -1.15249L585.309 -1.15914C585.343 -1.3272 585.418 -1.49286 585.549 -1.64712C585.637 -1.76341 585.756 -1.86165 585.875 -1.95989C585.893 -1.9912 585.927 -2.01349 585.961 -2.03578L585.961 -2.03582C586.071 -2.11839 586.197 -2.19198 586.323 -2.26553C586.347 -2.27216 586.381 -2.29444 586.406 -2.30107C586.48 -2.32099 586.547 -2.36561 586.621 -2.38552C586.633 -2.44154 586.62 -2.49094 586.631 -2.54697C586.638 -2.66803 586.661 -2.78006 586.675 -2.87643C586.694 -2.90776 586.687 -2.93248 586.705 -2.96381L586.705 -2.96393C586.726 -3.03557 586.746 -3.10721 586.782 -3.16983L586.818 -3.23246C586.848 -3.31981 586.884 -3.38249 586.945 -3.45179C586.97 -3.45843 586.979 -3.4741 586.988 -3.48976C587.04 -3.5434 587.091 -3.59701 587.134 -3.63497C587.152 -3.6663 587.177 -3.67295 587.186 -3.68861C587.238 -3.74225 587.305 -3.78688 587.364 -3.81582L587.388 -3.82243C587.456 -3.86703 587.53 -3.88698 587.613 -3.92256L587.687 -3.94247C587.745 -3.97141 587.819 -3.99131 587.884 -3.99556L587.958 -4.01547C588.032 -4.03539 588.138 -4.03725 588.227 -4.04814C588.243 -4.03912 588.252 -4.05479 588.268 -4.04577C588.268 -4.04577 588.292 -4.05242 588.308 -4.04339C588.304 -4.10844 588.293 -4.19816 588.298 -4.27887C588.284 -4.57941 588.254 -4.88901 588.209 -5.2076C588.004 -6.62111 587.487 -7.96398 586.92 -9.29357L586.892 -9.3607C586.356 -10.6354 585.807 -11.943 585.676 -13.3121C585.553 -14.6154 585.851 -15.9262 586.694 -16.8807L586.694 -16.8805C586.658 -16.8179 586.63 -16.771 586.61 -16.6994C586.691 -16.8403 586.782 -16.997 586.903 -17.1356C588.407 -18.8367 587.567 -15.1441 590.264 -15.4461C592.96 -15.7481 594.654 -17.3813 596.602 -13.1024C598.56 -8.83911 599.312 -9.09428 600.723 -9.40764C602.134 -9.721 603.657 -8.82074 603.476 -7.7136C603.532 -6.36567 602.56 -5.15151 601.38 -4.51664L601.38 -4.51662C601.23 -4.43644 601.079 -4.35625 600.938 -4.29174C600.688 -4.18499 600.433 -4.10294 600.177 -4.02089C600.143 -3.99858 600.103 -4.001 600.069 -3.97869L600.067 -3.97829C599.821 -3.91204 599.575 -3.84577 599.313 -3.78853C599.273 -3.79091 599.223 -3.77765 599.174 -3.76438C598.927 -3.69801 598.674 -3.65633 598.421 -3.61465L598.42 -3.61461C598.371 -3.60133 598.306 -3.59707 598.257 -3.5838C598.003 -3.5421 597.775 -3.50703 597.521 -3.46534C596.205 -3.24358 594.846 -2.98387 593.724 -2.23219C593.589 -2.14297 593.436 -2.0224 593.292 -1.91752C593.191 -1.85061 593.115 -1.79033 593.038 -1.73006C593.2 -1.46935 593.322 -1.21105 593.377 -0.908115C593.446 -0.450399 593.352 0.0381454 593.041 0.359946C593.007 0.382249 592.998 0.397891 592.964 0.420196C593.116 1.38501 592.687 2.45312 591.851 2.88965C591.902 2.98177 591.938 3.06487 591.973 3.14797Z" fill="url(#paint5_linear_308_16667)"/>
<path d="M571.415 22.5619L572.24 21.6364C571.309 20.7377 570.558 19.6592 570.144 18.7585C569.996 18.437 570.115 18.0551 570.412 17.8623L571.415 17.2098C571.783 16.9707 572.273 17.1135 572.463 17.5098C572.884 18.3912 573.516 19.354 574.411 20.1519C575.34 20.9805 576.314 21.2829 576.89 20.6368C577.41 20.0537 577.183 19.2304 576.2 17.7326C574.806 15.5858 574.199 13.603 575.645 11.9802C576.951 10.5149 579.019 10.3512 581.145 11.7082L581.97 10.7823C582.236 10.4841 582.692 10.4583 582.99 10.7235L583.533 11.2082C583.832 11.4739 583.857 11.9305 583.592 12.2282L582.851 13.0591C583.713 13.8908 584.226 14.6226 584.581 15.2639C584.763 15.5923 584.653 16.0053 584.339 16.2106L583.412 16.815C583.054 17.0482 582.576 16.9237 582.378 16.5458C582.063 15.9431 581.558 15.1576 580.685 14.3798C579.583 13.3971 578.86 13.573 578.495 13.9824C578.046 14.4867 578.399 15.423 579.439 17.1415C580.94 19.581 581.032 21.1899 579.67 22.7182C578.42 24.1205 576.258 24.4543 573.96 22.9721L573.037 24.0078C572.772 24.3059 572.315 24.3318 572.017 24.0666L571.473 23.5814C571.176 23.3162 571.15 22.8595 571.415 22.5619Z" fill="white"/>
</g>
</g>
<defs>
<filter id="filter0_f_308_16667" x="253.408" y="66.2838" width="56.9247" height="58.4243" filterUnits="userSpaceOnUse" color-interpolation-filters="sRGB">
<feFlood flood-opacity="0" result="BackgroundImageFix"/>
<feBlend mode="normal" in="SourceGraphic" in2="BackgroundImageFix" result="shape"/>
<feGaussianBlur stdDeviation="1" result="effect1_foregroundBlur_308_16667"/>
</filter>
<filter id="filter1_f_308_16667" x="186.844" y="4.55025" width="192" height="192" filterUnits="userSpaceOnUse" color-interpolation-filters="sRGB">
<feFlood flood-opacity="0" result="BackgroundImageFix"/>
<feBlend mode="normal" in="SourceGraphic" in2="BackgroundImageFix" result="shape"/>
<feGaussianBlur stdDeviation="36.9209" result="effect1_foregroundBlur_308_16667"/>
</filter>
<filter id="filter2_f_308_16667" x="821.257" y="47.1206" width="76.3267" height="78.3375" filterUnits="userSpaceOnUse" color-interpolation-filters="sRGB">
<feFlood flood-opacity="0" result="BackgroundImageFix"/>
<feBlend mode="normal" in="SourceGraphic" in2="BackgroundImageFix" result="shape"/>
<feGaussianBlur stdDeviation="1.34084" result="effect1_foregroundBlur_308_16667"/>
</filter>
<filter id="filter3_f_308_16667" x="732.005" y="-35.6542" width="257.441" height="257.441" filterUnits="userSpaceOnUse" color-interpolation-filters="sRGB">
<feFlood flood-opacity="0" result="BackgroundImageFix"/>
<feBlend mode="normal" in="SourceGraphic" in2="BackgroundImageFix" result="shape"/>
<feGaussianBlur stdDeviation="49.505" result="effect1_foregroundBlur_308_16667"/>
</filter>
<filter id="filter4_f_308_16667" x="534.522" y="-21.5854" width="84.0636" height="75.3607" filterUnits="userSpaceOnUse" color-interpolation-filters="sRGB">
<feFlood flood-opacity="0" result="BackgroundImageFix"/>
<feBlend mode="normal" in="SourceGraphic" in2="BackgroundImageFix" result="shape"/>
<feGaussianBlur stdDeviation="2" result="effect1_foregroundBlur_308_16667"/>
</filter>
<filter id="filter5_f_308_16667" x="456.456" y="-98.2514" width="240.538" height="240.538" filterUnits="userSpaceOnUse" color-interpolation-filters="sRGB">
<feFlood flood-opacity="0" result="BackgroundImageFix"/>
<feBlend mode="normal" in="SourceGraphic" in2="BackgroundImageFix" result="shape"/>
<feGaussianBlur stdDeviation="46.2555" result="effect1_foregroundBlur_308_16667"/>
</filter>
<linearGradient id="paint0_linear_308_16667" x1="282.96" y1="106.187" x2="288.631" y2="167.788" gradientUnits="userSpaceOnUse">
<stop stop-color="#50E7B7"/>
<stop offset="0.9964" stop-color="#323992"/>
</linearGradient>
<linearGradient id="paint1_linear_308_16667" x1="282.071" y1="99.9207" x2="306.312" y2="167.976" gradientUnits="userSpaceOnUse">
<stop stop-color="#50E7B7"/>
<stop offset="0.9964" stop-color="#323992"/>
</linearGradient>
<linearGradient id="paint2_linear_308_16667" x1="860.881" y1="100.624" x2="868.485" y2="183.222" gradientUnits="userSpaceOnUse">
<stop stop-color="#50E7B7"/>
<stop offset="0.9964" stop-color="#323992"/>
</linearGradient>
<linearGradient id="paint3_linear_308_16667" x1="859.689" y1="92.2222" x2="892.192" y2="183.473" gradientUnits="userSpaceOnUse">
<stop stop-color="#50E7B7"/>
<stop offset="0.9964" stop-color="#323992"/>
</linearGradient>
<linearGradient id="paint4_linear_308_16667" x1="576.87" y1="29.0793" x2="583.975" y2="106.255" gradientUnits="userSpaceOnUse">
<stop stop-color="#50E7B7"/>
<stop offset="0.9964" stop-color="#323992"/>
</linearGradient>
<linearGradient id="paint5_linear_308_16667" x1="576.598" y1="20.7752" x2="537.783" y2="102.538" gradientUnits="userSpaceOnUse">
<stop stop-color="#50E7B7"/>
<stop offset="0.9964" stop-color="#323992"/>
</linearGradient>
<clipPath id="clip0_308_16667">
<path d="M0 10C0 4.47715 4.47715 0 10 0H1100C1105.52 0 1110 4.47715 1110 10V100C1110 105.523 1105.52 110 1100 110H9.99999C4.47715 110 0 105.523 0 100V10Z" fill="white"/>
</clipPath>
</defs>
</svg>
