<svg width="60" height="60" viewBox="0 0 60 60" fill="none" xmlns="http://www.w3.org/2000/svg">
<path d="M40.475 5H19.525C10.425 5 5 10.425 5 19.525V40.475C5 49.575 10.425 55 19.525 55H40.475C49.575 55 55 49.575 55 40.475V19.525C55 10.425 49.575 5 40.475 5ZM24.925 37.25L19.3 42.875C18.925 43.25 18.45 43.425 17.975 43.425C17.5 43.425 17 43.25 16.65 42.875L14.775 41C14.025 40.275 14.025 39.075 14.775 38.35C15.5 37.625 16.675 37.625 17.425 38.35L17.975 38.9L22.275 34.6C23 33.875 24.175 33.875 24.925 34.6C25.65 35.325 25.65 36.525 24.925 37.25ZM24.925 19.75L19.3 25.375C18.925 25.75 18.45 25.925 17.975 25.925C17.5 25.925 17 25.75 16.65 25.375L14.775 23.5C14.025 22.775 14.025 21.575 14.775 20.85C15.5 20.125 16.675 20.125 17.425 20.85L17.975 21.4L22.275 17.1C23 16.375 24.175 16.375 24.925 17.1C25.65 17.825 25.65 19.025 24.925 19.75ZM43.9 41.55H30.775C29.75 41.55 28.9 40.7 28.9 39.675C28.9 38.65 29.75 37.8 30.775 37.8H43.9C44.95 37.8 45.775 38.65 45.775 39.675C45.775 40.7 44.95 41.55 43.9 41.55ZM43.9 24.05H30.775C29.75 24.05 28.9 23.2 28.9 22.175C28.9 21.15 29.75 20.3 30.775 20.3H43.9C44.95 20.3 45.775 21.15 45.775 22.175C45.775 23.2 44.95 24.05 43.9 24.05Z" fill="#1FA84F"/>
</svg>
