<svg width="60" height="60" viewBox="0 0 60 60" fill="none" xmlns="http://www.w3.org/2000/svg">
<path d="M54.1754 17.375C52.5754 11.95 48.0504 7.425 42.6254 5.825C38.5004 4.625 35.6504 4.725 33.6754 6.2C31.3004 7.975 31.0254 11.175 31.0254 13.45V19.675C31.0254 25.825 33.8254 28.95 39.3254 28.95H46.5004C48.7504 28.95 51.9754 28.675 53.7504 26.3C55.2754 24.35 55.4004 21.5 54.1754 17.375Z" fill="#1FA84F"/>
<path d="M47.2745 33.3999C46.6245 32.6499 45.6745 32.2249 44.6995 32.2249H35.7495C31.3495 32.2249 27.7745 28.6499 27.7745 24.2499V15.2999C27.7745 14.3249 27.3495 13.3749 26.5995 12.7249C25.8745 12.0749 24.8745 11.7749 23.9245 11.8999C18.0495 12.6499 12.6495 15.8749 9.1245 20.7249C5.5745 25.5999 4.2745 31.5499 5.3995 37.4999C7.0245 46.0999 13.8995 52.9749 22.5245 54.5999C23.8995 54.8749 25.2745 54.9999 26.6495 54.9999C31.1745 54.9999 35.5495 53.5999 39.2745 50.8749C44.1245 47.3499 47.3495 41.9499 48.0995 36.0749C48.2245 35.0999 47.9245 34.1249 47.2745 33.3999Z" fill="#1FA84F"/>
</svg>
