<svg width="60" height="60" viewBox="0 0 60 60" fill="none" xmlns="http://www.w3.org/2000/svg">
<path d="M29.9992 11.625C18.0492 11.625 8.32422 21.35 8.32422 33.3C8.32422 45.25 18.0492 55 29.9992 55C41.9492 55 51.6742 45.275 51.6742 33.325C51.6742 21.375 41.9492 11.625 29.9992 11.625ZM31.8742 32.5C31.8742 33.525 31.0242 34.375 29.9992 34.375C28.9742 34.375 28.1242 33.525 28.1242 32.5V20C28.1242 18.975 28.9742 18.125 29.9992 18.125C31.0242 18.125 31.8742 18.975 31.8742 20V32.5Z" fill="#1FA84F"/>
<path d="M37.2246 8.625H22.7746C21.7746 8.625 20.9746 7.825 20.9746 6.825C20.9746 5.825 21.7746 5 22.7746 5H37.2246C38.2246 5 39.0246 5.8 39.0246 6.8C39.0246 7.8 38.2246 8.625 37.2246 8.625Z" fill="#1FA84F"/>
</svg>
