<svg width="60" height="60" viewBox="0 0 60 60" fill="none" xmlns="http://www.w3.org/2000/svg">
<path d="M37.125 9.875V19.375H33.375V9.875C33.375 9.2 32.775 8.875 32.375 8.875C32.25 8.875 32.125 8.9 32 8.95L12.175 16.425C10.85 16.925 10 18.175 10 19.6V21.275C7.725 22.975 6.25 25.7 6.25 28.775V19.6C6.25 16.625 8.075 13.975 10.85 12.925L30.7 5.425C31.25 5.225 31.825 5.125 32.375 5.125C34.875 5.125 37.125 7.15 37.125 9.875Z" fill="#1FA84F"/>
<path d="M53.7497 36.25V38.75C53.7497 39.425 53.2247 39.975 52.5247 40H48.8747C47.5497 40 46.3497 39.025 46.2497 37.725C46.1747 36.95 46.4747 36.225 46.9747 35.725C47.4247 35.25 48.0497 35 48.7247 35H52.4997C53.2247 35.025 53.7497 35.575 53.7497 36.25Z" fill="#1FA84F"/>
<path d="M12.5 37.5C10.15 37.5 7.975 38.325 6.25 39.7C3.95 41.525 2.5 44.35 2.5 47.5C2.5 49.375 3.025 51.15 3.95 52.65C5.675 55.55 8.85 57.5 12.5 57.5C15.025 57.5 17.325 56.575 19.075 55C19.85 54.35 20.525 53.55 21.05 52.65C21.975 51.15 22.5 49.375 22.5 47.5C22.5 41.975 18.025 37.5 12.5 37.5ZM8.55 46.15C7.825 45.425 7.825 44.225 8.55 43.5C9.3 42.775 10.475 42.775 11.225 43.5L12.525 44.825L13.775 43.55C14.525 42.825 15.7 42.825 16.45 43.55C17.175 44.3 17.175 45.475 16.45 46.225L15.175 47.475L16.5 48.775C17.225 49.525 17.225 50.7 16.5 51.45C16.125 51.8 15.65 51.975 15.175 51.975C14.7 51.975 14.225 51.8 13.85 51.45L12.525 50.125L11.15 51.5C10.775 51.875 10.3 52.05 9.825 52.05C9.35 52.05 8.875 51.875 8.5 51.5C7.775 50.775 7.775 49.575 8.5 48.85L9.875 47.475L8.55 46.15Z" fill="#1FA84F"/>
<path d="M48.7 32.375H51.25C52.625 32.375 53.75 31.25 53.75 29.875V28.775C53.75 23.6 49.525 19.375 44.35 19.375H15.65C13.525 19.375 11.575 20.075 10 21.275C7.725 22.975 6.25 25.7 6.25 28.775V33.225C6.25 34.175 7.25 34.775 8.15 34.475C9.55 34 11.025 33.75 12.5 33.75C20.075 33.75 26.25 39.925 26.25 47.5C26.25 49.3 25.775 51.275 25.025 53.025C24.625 53.925 25.25 55 26.225 55H44.35C49.525 55 53.75 50.775 53.75 45.6V45.125C53.75 43.75 52.625 42.625 51.25 42.625H49.075C46.675 42.625 44.375 41.15 43.75 38.825C43.25 36.925 43.85 35.075 45.1 33.875C46.025 32.925 47.3 32.375 48.7 32.375ZM35 31.875H22.5C21.475 31.875 20.625 31.025 20.625 30C20.625 28.975 21.475 28.125 22.5 28.125H35C36.025 28.125 36.875 28.975 36.875 30C36.875 31.025 36.025 31.875 35 31.875Z" fill="#1FA84F"/>
</svg>
