<svg width="64" height="64" viewBox="0 0 64 64" fill="none" xmlns="http://www.w3.org/2000/svg">
<rect width="64" height="64" fill="#2480FE"/>
<path d="M29.334 18.6667V29.3334L33.334 25.3334L37.334 29.3334V18.6667" stroke="white" stroke-width="2" stroke-linecap="round" stroke-linejoin="round"/>
<path d="M21.334 42.0001V22.0001C21.334 21.116 21.6852 20.2682 22.3103 19.6431C22.9354 19.0179 23.7833 18.6667 24.6673 18.6667H41.334C41.6876 18.6667 42.0267 18.8072 42.2768 19.0573C42.5268 19.3073 42.6673 19.6465 42.6673 20.0001V44.0001C42.6673 44.3537 42.5268 44.6928 42.2768 44.9429C42.0267 45.1929 41.6876 45.3334 41.334 45.3334H24.6673C23.7833 45.3334 22.9354 44.9822 22.3103 44.3571C21.6852 43.732 21.334 42.8841 21.334 42.0001ZM21.334 42.0001C21.334 41.116 21.6852 40.2682 22.3103 39.6431C22.9354 39.0179 23.7833 38.6667 24.6673 38.6667H42.6673" stroke="white" stroke-width="2" stroke-linecap="round" stroke-linejoin="round"/>
</svg>
