<svg width="64" height="64" viewBox="0 0 64 64" fill="none" xmlns="http://www.w3.org/2000/svg">
<rect width="64" height="64" fill="#2480FE"/>
<path d="M31.9993 45.3334C39.3631 45.3334 45.3327 39.3639 45.3327 32.0001C45.3327 24.6363 39.3631 18.6667 31.9993 18.6667C24.6356 18.6667 18.666 24.6363 18.666 32.0001C18.666 39.3639 24.6356 45.3334 31.9993 45.3334Z" stroke="white" stroke-width="2" stroke-linecap="round" stroke-linejoin="round"/>
<path d="M37.3327 26.6667H29.3327C28.6254 26.6667 27.9472 26.9477 27.4471 27.4478C26.947 27.9479 26.666 28.6262 26.666 29.3334C26.666 30.0407 26.947 30.7189 27.4471 31.219C27.9472 31.7191 28.6254 32.0001 29.3327 32.0001H34.666C35.3733 32.0001 36.0515 32.281 36.5516 32.7811C37.0517 33.2812 37.3327 33.9595 37.3327 34.6667C37.3327 35.374 37.0517 36.0523 36.5516 36.5524C36.0515 37.0525 35.3733 37.3334 34.666 37.3334H26.666" stroke="white" stroke-width="2" stroke-linecap="round" stroke-linejoin="round"/>
<path d="M32 40V24" stroke="white" stroke-width="2" stroke-linecap="round" stroke-linejoin="round"/>
</svg>
