<svg width="64" height="64" viewBox="0 0 64 64" fill="none" xmlns="http://www.w3.org/2000/svg">
<rect width="64" height="64" fill="#2480FE"/>
<path d="M32 43.9999V25.3333" stroke="white" stroke-width="2" stroke-linecap="round" stroke-linejoin="round"/>
<path d="M37.334 31.9999L40.0007 34.6666L45.334 29.3333" stroke="white" stroke-width="2" stroke-linecap="round" stroke-linejoin="round"/>
<path d="M45.3327 24V21.3333C45.3327 20.9797 45.1922 20.6406 44.9422 20.3905C44.6921 20.1405 44.353 20 43.9993 20H37.3327C35.9182 20 34.5616 20.5619 33.5614 21.5621C32.5613 22.5623 31.9993 23.9188 31.9993 25.3333C31.9993 23.9188 31.4374 22.5623 30.4373 21.5621C29.4371 20.5619 28.0805 20 26.666 20H19.9993C19.6457 20 19.3066 20.1405 19.0565 20.3905C18.8065 20.6406 18.666 20.9797 18.666 21.3333V38.6667C18.666 39.0203 18.8065 39.3594 19.0565 39.6095C19.3066 39.8595 19.6457 40 19.9993 40H27.9993C29.0602 40 30.0776 40.4214 30.8278 41.1716C31.5779 41.9217 31.9993 42.9391 31.9993 44C31.9993 42.9391 32.4208 41.9217 33.1709 41.1716C33.9211 40.4214 34.9385 40 35.9993 40H43.9993C44.353 40 44.6921 39.8595 44.9422 39.6095C45.1922 39.3594 45.3327 39.0203 45.3327 38.6667V36.9333" stroke="white" stroke-width="2" stroke-linecap="round" stroke-linejoin="round"/>
</svg>
