<svg width="64" height="64" viewBox="0 0 64 64" fill="none" xmlns="http://www.w3.org/2000/svg">
<rect width="64" height="64" fill="#2480FE"/>
<path d="M27.334 36.0001H36.6673M27.334 40.0001H32.0007M41.334 18.6667H22.6673C22.3137 18.6667 21.9746 18.8072 21.7245 19.0573C21.4745 19.3073 21.334 19.6465 21.334 20.0001V44.0001C21.334 44.3537 21.4745 44.6928 21.7245 44.9429C21.9746 45.1929 22.3137 45.3334 22.6673 45.3334H41.334C41.6876 45.3334 42.0267 45.1929 42.2768 44.9429C42.5268 44.6928 42.6673 44.3537 42.6673 44.0001V20.0001C42.6673 19.6465 42.5268 19.3073 42.2768 19.0573C42.0267 18.8072 41.6876 18.6667 41.334 18.6667Z" stroke="white" stroke-width="2" stroke-linecap="round" stroke-linejoin="round"/>
<path d="M36 24.6667L30.6667 30.0001L28 27.3334" stroke="white" stroke-width="2" stroke-linecap="round" stroke-linejoin="round"/>
</svg>
