<svg width="1920" height="524" viewBox="0 0 1920 524" fill="none" xmlns="http://www.w3.org/2000/svg">
<g clip-path="url(#clip0_3557_33614)">
<rect width="1920" height="524" fill="#F5F6F8"/>
<mask id="mask0_3557_33614" style="mask-type:luminance" maskUnits="userSpaceOnUse" x="0" y="-374" width="1920" height="1098">
<path d="M1920 -374H0V723.143H1920V-374Z" fill="white"/>
</mask>
<g mask="url(#mask0_3557_33614)">
<g opacity="0.5">
<path d="M35.2786 25.4444C35.2389 25.4444 35.2389 25.4444 35.1992 25.4444C35.1992 25.4048 35.1992 25.4048 35.1992 25.3651C35.2389 25.3651 35.2389 25.3651 35.2786 25.3651C35.3183 25.4048 35.3183 25.4444 35.2786 25.4444Z" fill="#2480FE" fill-opacity="0.2"/>
<path d="M67.4602 12.1508C67.4205 12.1508 67.3809 12.1508 67.3809 12.1508C67.3809 12.1111 67.3809 12.0714 67.4206 12.0714C67.4602 12.0714 67.4999 12.0714 67.4999 12.0714C67.4999 12.1111 67.4999 12.1508 67.4602 12.1508Z" fill="#2480FE" fill-opacity="0.2"/>
<path d="M62.9363 102.786C62.8966 102.825 62.8569 102.786 62.8172 102.746C62.7775 102.706 62.8172 102.667 62.8569 102.627C62.8966 102.587 62.9363 102.627 62.9759 102.667C63.0156 102.706 62.9759 102.746 62.9363 102.786Z" fill="#2480FE" fill-opacity="0.2"/>
<path d="M95.3171 84.7699C95.2774 84.8096 95.2378 84.7699 95.1981 84.7302C95.1584 84.6905 95.1981 84.6508 95.2378 84.6111C95.2774 84.5715 95.3171 84.6111 95.3568 84.6508C95.3965 84.6905 95.3965 84.7302 95.3171 84.7699Z" fill="#2480FE" fill-opacity="0.2"/>
<path d="M128.532 61.1191C128.492 61.1588 128.453 61.1191 128.413 61.0794C128.373 61.0397 128.413 61 128.453 60.9604C128.492 60.9207 128.532 60.9603 128.572 61C128.572 61.0397 128.572 61.1191 128.532 61.1191Z" fill="#2480FE" fill-opacity="0.2"/>
<path d="M162.46 31.873C162.42 31.9127 162.341 31.873 162.341 31.8333C162.301 31.7936 162.341 31.7143 162.38 31.7143C162.42 31.6746 162.499 31.7143 162.499 31.754C162.499 31.7937 162.499 31.873 162.46 31.873Z" fill="#2480FE" fill-opacity="0.2"/>
<path d="M87.8178 175.246C87.7781 175.286 87.6987 175.246 87.659 175.206C87.6193 175.167 87.659 175.087 87.6987 175.048C87.7384 175.008 87.8177 175.048 87.8574 175.087C87.8971 175.167 87.8971 175.246 87.8178 175.246Z" fill="#2480FE" fill-opacity="0.2"/>
<path d="M121.072 152.23C120.993 152.27 120.914 152.27 120.874 152.19C120.834 152.111 120.874 152.032 120.914 151.992C120.993 151.952 121.072 151.952 121.112 152.032C121.152 152.111 121.152 152.19 121.072 152.23Z" fill="#2480FE" fill-opacity="0.2"/>
<path d="M155.436 123.341C155.356 123.381 155.277 123.341 155.237 123.302C155.197 123.222 155.237 123.143 155.277 123.103C155.356 123.063 155.436 123.103 155.475 123.143C155.515 123.222 155.515 123.302 155.436 123.341Z" fill="#2480FE" fill-opacity="0.2"/>
<path d="M190.674 88.8175C190.594 88.8572 190.515 88.8571 190.475 88.7778C190.436 88.6984 190.436 88.6191 190.515 88.5794C190.594 88.5397 190.674 88.5397 190.713 88.619C190.793 88.6984 190.753 88.7778 190.674 88.8175Z" fill="#2480FE" fill-opacity="0.2"/>
<path d="M226.508 49.0556C226.428 49.0953 226.349 49.0953 226.309 49.0159C226.27 48.9365 226.27 48.8571 226.349 48.8175C226.428 48.7778 226.508 48.8175 226.547 48.8572C226.587 48.9365 226.587 49.0159 226.508 49.0556Z" fill="#2480FE" fill-opacity="0.2"/>
<path d="M262.5 4.76985C262.42 4.80954 262.341 4.80953 262.301 4.73016C262.262 4.6508 262.262 4.57145 262.341 4.53177C262.42 4.49209 262.5 4.4921 262.54 4.57146C262.619 4.65083 262.579 4.73017 262.5 4.76985Z" fill="#2480FE" fill-opacity="0.2"/>
<path d="M110.833 242.627C110.753 242.667 110.634 242.667 110.555 242.548C110.515 242.468 110.515 242.349 110.634 242.27C110.714 242.23 110.833 242.23 110.912 242.349C110.952 242.429 110.912 242.548 110.833 242.627Z" fill="#2480FE" fill-opacity="0.2"/>
<path d="M145.516 214.373C145.437 214.413 145.278 214.413 145.239 214.294C145.199 214.214 145.199 214.056 145.318 214.016C145.397 213.976 145.556 213.976 145.596 214.095C145.675 214.175 145.635 214.294 145.516 214.373Z" fill="#2480FE" fill-opacity="0.2"/>
<path d="M181.507 180.167C181.388 180.246 181.269 180.206 181.19 180.087C181.11 179.968 181.15 179.849 181.269 179.77C181.388 179.69 181.507 179.73 181.587 179.849C181.666 179.968 181.626 180.127 181.507 180.167Z" fill="#2480FE" fill-opacity="0.2"/>
<path d="M218.453 140.444C218.333 140.524 218.214 140.484 218.135 140.365C218.056 140.246 218.095 140.127 218.214 140.048C218.333 139.968 218.453 140.008 218.532 140.127C218.572 140.246 218.572 140.405 218.453 140.444Z" fill="#2480FE" fill-opacity="0.2"/>
<path d="M255.872 95.8413C255.753 95.9206 255.634 95.8809 255.555 95.7619C255.476 95.6428 255.515 95.5238 255.634 95.4444C255.753 95.3651 255.872 95.4048 255.952 95.5238C255.991 95.6429 255.952 95.7619 255.872 95.8413Z" fill="#2480FE" fill-opacity="0.2"/>
<path d="M293.253 47.2698C293.134 47.3492 292.976 47.3095 292.936 47.1905C292.856 47.0714 292.896 46.9127 293.015 46.873C293.134 46.7937 293.293 46.8333 293.333 46.9524C293.372 47.0317 293.333 47.1905 293.253 47.2698Z" fill="#2480FE" fill-opacity="0.2"/>
<path d="M132.777 304.571C132.658 304.651 132.5 304.611 132.42 304.492C132.341 304.373 132.381 304.214 132.5 304.135C132.619 304.055 132.777 304.095 132.857 304.214C132.936 304.333 132.896 304.492 132.777 304.571Z" fill="#2480FE" fill-opacity="0.2"/>
<path d="M169.404 270.96C169.285 271.04 169.127 271 169.047 270.881C168.968 270.762 169.007 270.603 169.127 270.524C169.246 270.444 169.404 270.484 169.484 270.603C169.563 270.722 169.523 270.881 169.404 270.96Z" fill="#2480FE" fill-opacity="0.2"/>
<path d="M207.421 231.556C207.301 231.635 207.103 231.595 207.024 231.476C206.944 231.357 206.984 231.159 207.103 231.079C207.222 231 207.421 231.04 207.5 231.159C207.579 231.278 207.54 231.476 207.421 231.556Z" fill="#2480FE" fill-opacity="0.2"/>
<path d="M246.231 186.833C246.112 186.913 245.914 186.873 245.834 186.754C245.755 186.635 245.795 186.437 245.914 186.357C246.033 186.278 246.231 186.317 246.31 186.437C246.39 186.595 246.35 186.754 246.231 186.833Z" fill="#2480FE" fill-opacity="0.2"/>
<path d="M285.317 137.746C285.198 137.825 285 137.786 284.92 137.667C284.841 137.548 284.881 137.349 285 137.27C285.119 137.191 285.317 137.23 285.396 137.349C285.515 137.468 285.476 137.667 285.317 137.746Z" fill="#2480FE" fill-opacity="0.2"/>
<path d="M324.087 85.3254C323.928 85.4048 323.77 85.3651 323.651 85.246C323.532 85.127 323.611 84.9286 323.73 84.8095C323.889 84.7301 324.048 84.7698 324.167 84.8889C324.286 85.0476 324.246 85.2063 324.087 85.3254Z" fill="#2480FE" fill-opacity="0.2"/>
<path d="M361.984 31C361.825 31.0794 361.627 31.0397 361.547 30.8809C361.468 30.7222 361.508 30.5238 361.667 30.4444C361.825 30.3651 362.024 30.4048 362.103 30.5635C362.182 30.7222 362.143 30.9206 361.984 31Z" fill="#2480FE" fill-opacity="0.2"/>
<path d="M193.374 322.111C193.215 322.23 192.977 322.151 192.858 321.992C192.739 321.833 192.818 321.595 192.977 321.476C193.136 321.357 193.374 321.436 193.493 321.595C193.612 321.754 193.572 321.992 193.374 322.111Z" fill="#2480FE" fill-opacity="0.2"/>
<path d="M233.651 277.548C233.493 277.667 233.254 277.587 233.135 277.429C233.016 277.27 233.096 277.032 233.254 276.913C233.413 276.794 233.651 276.873 233.77 277.032C233.85 277.23 233.81 277.468 233.651 277.548Z" fill="#2480FE" fill-opacity="0.2"/>
<path d="M274.483 228.182C274.325 228.302 274.087 228.222 273.967 228.063C273.848 227.905 273.928 227.667 274.087 227.548C274.245 227.429 274.483 227.508 274.602 227.667C274.721 227.865 274.682 228.063 274.483 228.182Z" fill="#2480FE" fill-opacity="0.2"/>
<path d="M315.237 175.008C315.079 175.127 314.84 175.048 314.721 174.889C314.602 174.73 314.682 174.492 314.84 174.373C314.999 174.254 315.237 174.333 315.356 174.492C315.475 174.651 315.436 174.889 315.237 175.008Z" fill="#2480FE" fill-opacity="0.2"/>
<path d="M355.278 119.373C355.08 119.492 354.842 119.413 354.762 119.254C354.643 119.056 354.723 118.817 354.881 118.738C355.08 118.619 355.318 118.698 355.397 118.857C355.516 119.016 355.477 119.254 355.278 119.373Z" fill="#2480FE" fill-opacity="0.2"/>
<path d="M394.087 62.9445C393.889 63.0635 393.651 62.9841 393.532 62.8254C393.413 62.627 393.492 62.3889 393.651 62.2698C393.849 62.1508 394.087 62.2302 394.207 62.3889C394.326 62.5873 394.246 62.8254 394.087 62.9445Z" fill="#2480FE" fill-opacity="0.2"/>
<path d="M431.349 7.70634C431.151 7.82539 430.913 7.74603 430.794 7.5873C430.675 7.38889 430.754 7.15079 430.913 7.03175C431.071 6.9127 431.349 6.99206 431.468 7.15079C431.587 7.3492 431.508 7.5873 431.349 7.70634Z" fill="#2480FE" fill-opacity="0.2"/>
<path d="M218.016 367.865C217.818 367.984 217.54 367.944 217.381 367.706C217.262 367.508 217.302 367.23 217.54 367.071C217.739 366.952 218.016 366.992 218.175 367.23C218.294 367.429 218.254 367.706 218.016 367.865Z" fill="#2480FE" fill-opacity="0.2"/>
<path d="M260.675 318.421C260.476 318.54 260.198 318.5 260.04 318.262C259.881 318.024 259.96 317.786 260.198 317.627C260.397 317.508 260.675 317.548 260.833 317.786C260.952 318.024 260.873 318.302 260.675 318.421Z" fill="#2480FE" fill-opacity="0.2"/>
<path d="M303.532 264.73C303.334 264.849 303.016 264.809 302.897 264.571C302.778 264.373 302.818 264.056 303.056 263.936C303.254 263.817 303.572 263.857 303.691 264.095C303.81 264.333 303.73 264.611 303.532 264.73Z" fill="#2480FE" fill-opacity="0.2"/>
<path d="M345.794 208.063C345.595 208.183 345.278 208.143 345.159 207.905C345.04 207.706 345.079 207.389 345.317 207.27C345.556 207.151 345.833 207.19 345.952 207.429C346.071 207.627 346.032 207.905 345.794 208.063Z" fill="#2480FE" fill-opacity="0.2"/>
<path d="M386.906 149.968C386.668 150.127 386.39 150.048 386.231 149.809C386.072 149.571 386.152 149.294 386.39 149.135C386.628 148.976 386.906 149.056 387.064 149.294C387.223 149.532 387.144 149.81 386.906 149.968Z" fill="#2480FE" fill-opacity="0.2"/>
<path d="M426.388 92.3889C426.15 92.5476 425.872 92.4683 425.713 92.2302C425.555 91.9921 425.634 91.7143 425.872 91.5556C426.11 91.3968 426.388 91.4762 426.547 91.7143C426.666 91.9524 426.586 92.2302 426.388 92.3889Z" fill="#2480FE" fill-opacity="0.2"/>
<path d="M464.007 37.5476C463.769 37.7064 463.491 37.627 463.333 37.3889C463.174 37.1508 463.253 36.873 463.491 36.7143C463.729 36.5556 464.007 36.6349 464.166 36.873C464.285 37.1111 464.245 37.3889 464.007 37.5476Z" fill="#2480FE" fill-opacity="0.2"/>
<path d="M243.77 408.46C243.492 408.619 243.135 408.54 242.936 408.262C242.778 407.984 242.857 407.627 243.135 407.429C243.413 407.27 243.77 407.349 243.968 407.627C244.127 407.905 244.047 408.302 243.77 408.46Z" fill="#2480FE" fill-opacity="0.2"/>
<path d="M288.809 354.492C288.531 354.651 288.134 354.571 287.975 354.294C287.817 354.016 287.896 353.619 288.174 353.46C288.452 353.302 288.848 353.381 289.007 353.659C289.166 353.936 289.087 354.333 288.809 354.492Z" fill="#2480FE" fill-opacity="0.2"/>
<path d="M333.492 296.992C333.215 297.151 332.818 297.071 332.659 296.794C332.5 296.516 332.58 296.119 332.857 295.96C333.135 295.802 333.532 295.881 333.691 296.159C333.85 296.436 333.77 296.794 333.492 296.992Z" fill="#2480FE" fill-opacity="0.2"/>
<path d="M377.103 237.508C376.786 237.706 376.389 237.587 376.19 237.309C375.992 236.992 376.111 236.595 376.389 236.397C376.706 236.198 377.103 236.317 377.301 236.595C377.54 236.913 377.42 237.309 377.103 237.508Z" fill="#2480FE" fill-opacity="0.2"/>
<path d="M419.009 177.825C418.691 178.024 418.294 177.905 418.136 177.627C417.937 177.31 418.056 176.913 418.334 176.754C418.652 176.556 419.048 176.675 419.207 176.952C419.405 177.23 419.326 177.627 419.009 177.825Z" fill="#2480FE" fill-opacity="0.2"/>
<path d="M458.848 120.206C458.531 120.405 458.134 120.286 457.975 120.008C457.777 119.69 457.896 119.294 458.174 119.135C458.491 118.936 458.888 119.056 459.047 119.333C459.245 119.651 459.166 120.048 458.848 120.206Z" fill="#2480FE" fill-opacity="0.2"/>
<path d="M496.627 67.1905C496.31 67.3889 495.873 67.3095 495.675 66.9524C495.476 66.6349 495.556 66.1984 495.913 66C496.23 65.8016 496.667 65.8809 496.865 66.2381C497.024 66.5555 496.944 66.9921 496.627 67.1905Z" fill="#2480FE" fill-opacity="0.2"/>
<path d="M532.619 20.0873C532.302 20.2857 531.865 20.2064 531.667 19.8492C531.468 19.5318 531.548 19.0952 531.905 18.8968C532.222 18.6984 532.659 18.7778 532.857 19.1349C533.016 19.4524 532.937 19.8889 532.619 20.0873Z" fill="#2480FE" fill-opacity="0.2"/>
<path d="M270.873 444.175C270.556 444.373 270.119 444.294 269.921 443.937C269.722 443.619 269.802 443.183 270.159 442.984C270.476 442.786 270.913 442.865 271.111 443.222C271.27 443.54 271.191 443.976 270.873 444.175Z" fill="#2480FE" fill-opacity="0.2"/>
<path d="M318.134 386.119C317.777 386.317 317.34 386.238 317.102 385.881C316.904 385.524 316.983 385.087 317.34 384.849C317.698 384.651 318.134 384.73 318.372 385.087C318.61 385.445 318.491 385.881 318.134 386.119Z" fill="#2480FE" fill-opacity="0.2"/>
<path d="M364.444 325.405C364.087 325.603 363.65 325.524 363.452 325.167C363.254 324.81 363.333 324.373 363.69 324.175C364.047 323.976 364.484 324.056 364.682 324.413C364.881 324.73 364.801 325.167 364.444 325.405Z" fill="#2480FE" fill-opacity="0.2"/>
<path d="M409.048 263.897C408.691 264.135 408.255 264.016 408.016 263.659C407.818 263.302 407.897 262.865 408.255 262.627C408.612 262.429 409.048 262.508 409.286 262.865C409.485 263.222 409.405 263.698 409.048 263.897Z" fill="#2480FE" fill-opacity="0.2"/>
<path d="M451.389 203.817C451.032 204.056 450.555 203.936 450.317 203.579C450.079 203.222 450.198 202.746 450.555 202.508C450.912 202.27 451.389 202.389 451.627 202.746C451.865 203.103 451.786 203.579 451.389 203.817Z" fill="#2480FE" fill-opacity="0.2"/>
<path d="M491.309 147.508C490.951 147.746 490.475 147.627 490.237 147.27C489.999 146.913 490.118 146.436 490.475 146.198C490.832 145.96 491.309 146.079 491.547 146.436C491.785 146.833 491.666 147.309 491.309 147.508Z" fill="#2480FE" fill-opacity="0.2"/>
<path d="M529.008 97.1508C528.651 97.3889 528.135 97.2698 527.936 96.9127C527.698 96.5556 527.817 96.0397 528.174 95.8413C528.532 95.6032 529.047 95.7222 529.246 96.0794C529.484 96.4365 529.365 96.9127 529.008 97.1508Z" fill="#2480FE" fill-opacity="0.2"/>
<path d="M564.999 52.627C564.603 52.8651 564.087 52.746 563.849 52.3492C563.611 51.9524 563.73 51.4365 564.127 51.1984C564.523 50.9603 565.039 51.0794 565.277 51.4762C565.515 51.873 565.396 52.3889 564.999 52.627Z" fill="#2480FE" fill-opacity="0.2"/>
<path d="M599.841 13.5794C599.445 13.8175 598.929 13.6984 598.691 13.3016C598.452 12.9048 598.571 12.3889 598.968 12.1508C599.365 11.9127 599.881 12.0317 600.119 12.4286C600.357 12.8254 600.238 13.3413 599.841 13.5794Z" fill="#2480FE" fill-opacity="0.2"/>
<path d="M299.484 475.524C299.087 475.762 298.571 475.643 298.333 475.246C298.095 474.849 298.214 474.333 298.611 474.095C299.008 473.857 299.524 473.976 299.762 474.373C300 474.77 299.881 475.286 299.484 475.524Z" fill="#2480FE" fill-opacity="0.2"/>
<path d="M348.73 413.857C348.333 414.095 347.817 413.976 347.579 413.579C347.341 413.183 347.46 412.667 347.857 412.429C348.254 412.19 348.77 412.309 349.008 412.706C349.246 413.063 349.087 413.579 348.73 413.857Z" fill="#2480FE" fill-opacity="0.2"/>
<path d="M396.27 350.722C395.873 350.96 395.317 350.841 395.079 350.444C394.841 350.048 394.96 349.492 395.357 349.254C395.754 349.016 396.309 349.135 396.547 349.532C396.786 349.929 396.666 350.484 396.27 350.722Z" fill="#2480FE" fill-opacity="0.2"/>
<path d="M441.468 288.302C441.031 288.579 440.476 288.421 440.237 288.024C439.96 287.587 440.118 287.032 440.515 286.794C440.952 286.516 441.507 286.675 441.745 287.071C442.023 287.508 441.864 288.064 441.468 288.302Z" fill="#2480FE" fill-opacity="0.2"/>
<path d="M483.89 229.016C483.493 229.294 482.937 229.135 482.659 228.738C482.382 228.341 482.54 227.786 482.937 227.508C483.374 227.23 483.889 227.389 484.167 227.786C484.445 228.222 484.286 228.778 483.89 229.016Z" fill="#2480FE" fill-opacity="0.2"/>
<path d="M523.572 175.524C523.136 175.802 522.58 175.643 522.302 175.206C522.024 174.77 522.183 174.214 522.62 173.936C523.056 173.659 523.612 173.817 523.89 174.254C524.167 174.69 524.009 175.246 523.572 175.524Z" fill="#2480FE" fill-opacity="0.2"/>
<path d="M561.072 128.143C560.636 128.421 560.041 128.302 559.763 127.825C559.485 127.389 559.604 126.794 560.08 126.516C560.517 126.238 561.112 126.357 561.39 126.833C561.668 127.27 561.549 127.865 561.072 128.143Z" fill="#2480FE" fill-opacity="0.2"/>
<path d="M597.024 86.4365C596.587 86.7143 595.992 86.5556 595.714 86.1191C595.436 85.6826 595.555 85.0873 596.031 84.8095C596.468 84.5318 597.063 84.6905 597.341 85.127C597.619 85.5635 597.46 86.1588 597.024 86.4365Z" fill="#2480FE" fill-opacity="0.2"/>
<path d="M631.826 50.0873C631.39 50.3651 630.794 50.2064 630.517 49.7699C630.239 49.3333 630.358 48.7381 630.834 48.4603C631.271 48.1825 631.866 48.3016 632.144 48.7778C632.421 49.254 632.302 49.8095 631.826 50.0873Z" fill="#2480FE" fill-opacity="0.2"/>
<path d="M665.872 18.8175C665.396 19.0952 664.761 18.9762 664.484 18.5C664.206 18.0238 664.325 17.3889 664.801 17.1111C665.277 16.8333 665.912 16.9524 666.19 17.4286C666.507 17.9048 666.349 18.5397 665.872 18.8175Z" fill="#2480FE" fill-opacity="0.2"/>
<path d="M329.603 503.024C329.127 503.302 328.531 503.183 328.214 502.706C327.936 502.23 328.055 501.635 328.531 501.317C329.008 501.04 329.603 501.159 329.92 501.635C330.198 502.111 330.079 502.706 329.603 503.024Z" fill="#2480FE" fill-opacity="0.2"/>
<path d="M380.396 438.46C379.92 438.738 379.324 438.619 379.007 438.143C378.729 437.667 378.848 437.071 379.324 436.754C379.801 436.476 380.396 436.595 380.713 437.071C381.031 437.548 380.872 438.183 380.396 438.46Z" fill="#2480FE" fill-opacity="0.2"/>
<path d="M428.73 373.897C428.254 374.175 427.658 374.056 427.341 373.579C427.063 373.103 427.182 372.508 427.658 372.19C428.135 371.913 428.73 372.032 429.047 372.508C429.325 373.024 429.206 373.619 428.73 373.897Z" fill="#2480FE" fill-opacity="0.2"/>
<path d="M474.087 311.873C473.571 312.19 472.936 312.032 472.619 311.516C472.301 311 472.46 310.365 472.976 310.048C473.492 309.73 474.126 309.889 474.444 310.405C474.722 310.921 474.563 311.556 474.087 311.873Z" fill="#2480FE" fill-opacity="0.2"/>
<path d="M516.151 255.048C515.635 255.365 515 255.206 514.683 254.691C514.366 254.175 514.524 253.54 515.04 253.222C515.556 252.905 516.191 253.064 516.508 253.579C516.826 254.095 516.667 254.77 516.151 255.048Z" fill="#2480FE" fill-opacity="0.2"/>
<path d="M555.397 205.008C554.921 205.325 554.247 205.167 553.929 204.651C553.612 204.175 553.77 203.5 554.286 203.183C554.762 202.865 555.437 203.024 555.754 203.54C556.072 204.056 555.913 204.73 555.397 205.008Z" fill="#2480FE" fill-opacity="0.2"/>
<path d="M592.659 160.96C592.183 161.278 591.508 161.119 591.191 160.603C590.873 160.127 591.032 159.452 591.548 159.135C592.024 158.817 592.699 158.976 593.016 159.492C593.294 160.008 593.135 160.643 592.659 160.96Z" fill="#2480FE" fill-opacity="0.2"/>
<path d="M628.453 122.587C627.937 122.905 627.223 122.746 626.906 122.23C626.588 121.714 626.747 121 627.263 120.683C627.779 120.365 628.493 120.524 628.81 121.04C629.128 121.595 628.969 122.27 628.453 122.587Z" fill="#2480FE" fill-opacity="0.2"/>
<path d="M663.096 89.492C662.58 89.8095 661.866 89.6508 661.548 89.1349C661.231 88.619 661.39 87.9048 661.905 87.5873C662.421 87.2698 663.136 87.4286 663.453 87.9444C663.81 88.4603 663.651 89.1349 663.096 89.492Z" fill="#2480FE" fill-opacity="0.2"/>
<path d="M696.945 61.2778C696.43 61.5952 695.715 61.4365 695.398 60.9206C695.08 60.4048 695.239 59.6905 695.755 59.373C696.271 59.0555 696.985 59.2143 697.303 59.7301C697.62 60.246 697.461 60.9603 696.945 61.2778Z" fill="#2480FE" fill-opacity="0.2"/>
<path d="M730.159 37.5873C729.643 37.9048 728.929 37.746 728.572 37.2302C728.254 36.7143 728.413 36 728.929 35.6429C729.445 35.3254 730.159 35.4842 730.516 36C730.834 36.5556 730.675 37.2699 730.159 37.5873Z" fill="#2480FE" fill-opacity="0.2"/>
<path d="M762.818 17.9841C762.263 18.3413 761.548 18.1429 761.191 17.5873C760.834 17.0318 761.032 16.3175 761.588 15.9603C762.144 15.6032 762.858 15.8016 763.215 16.3571C763.532 16.9524 763.374 17.6667 762.818 17.9841Z" fill="#2480FE" fill-opacity="0.2"/>
<path d="M363.096 522.667C362.541 523.024 361.787 522.825 361.429 522.27C361.072 521.714 361.271 520.96 361.826 520.603C362.382 520.246 363.136 520.444 363.493 521C363.85 521.556 363.652 522.31 363.096 522.667Z" fill="#2480FE" fill-opacity="0.2"/>
<path d="M414.602 456.556C414.007 456.913 413.253 456.754 412.896 456.159C412.539 455.563 412.697 454.809 413.293 454.452C413.888 454.095 414.642 454.254 414.999 454.849C415.356 455.444 415.197 456.198 414.602 456.556Z" fill="#2480FE" fill-opacity="0.2"/>
<path d="M462.897 392.111C462.302 392.468 461.548 392.31 461.191 391.714C460.834 391.119 460.992 390.365 461.588 390.008C462.183 389.651 462.937 389.81 463.294 390.405C463.651 391 463.492 391.754 462.897 392.111Z" fill="#2480FE" fill-opacity="0.2"/>
<path d="M507.618 332.151C507.023 332.508 506.23 332.349 505.872 331.754C505.515 331.159 505.674 330.365 506.269 330.008C506.865 329.651 507.658 329.81 508.015 330.405C508.412 331 508.214 331.754 507.618 332.151Z" fill="#2480FE" fill-opacity="0.2"/>
<path d="M548.849 279.294C548.254 279.651 547.46 279.492 547.103 278.897C546.746 278.302 546.905 277.508 547.5 277.151C548.095 276.794 548.889 276.952 549.246 277.548C549.603 278.143 549.444 278.937 548.849 279.294Z" fill="#2480FE" fill-opacity="0.2"/>
<path d="M587.461 233.222C586.866 233.619 586.033 233.421 585.675 232.786C585.279 232.19 585.477 231.357 586.112 231C586.707 230.603 587.54 230.802 587.898 231.437C588.294 232.032 588.096 232.825 587.461 233.222Z" fill="#2480FE" fill-opacity="0.2"/>
<path d="M624.206 193.222C623.571 193.619 622.777 193.421 622.381 192.786C621.984 192.151 622.182 191.357 622.817 190.96C623.452 190.564 624.246 190.762 624.642 191.397C625.039 192.032 624.841 192.825 624.206 193.222Z" fill="#2480FE" fill-opacity="0.2"/>
<path d="M659.524 158.937C658.889 159.333 658.096 159.135 657.699 158.5C657.302 157.865 657.5 157.071 658.135 156.675C658.77 156.278 659.564 156.476 659.961 157.111C660.358 157.746 660.159 158.54 659.524 158.937Z" fill="#2480FE" fill-opacity="0.2"/>
<path d="M693.729 129.968C693.094 130.365 692.301 130.167 691.904 129.532C691.507 128.897 691.706 128.103 692.34 127.706C692.975 127.31 693.769 127.508 694.166 128.143C694.563 128.778 694.364 129.571 693.729 129.968Z" fill="#2480FE" fill-opacity="0.2"/>
<path d="M727.143 105.921C726.469 106.317 725.635 106.119 725.199 105.484C724.802 104.81 725 103.976 725.635 103.54C726.31 103.143 727.143 103.341 727.58 103.976C728.016 104.651 727.818 105.524 727.143 105.921Z" fill="#2480FE" fill-opacity="0.2"/>
<path d="M759.762 86.1984C759.088 86.5953 758.255 86.3968 757.818 85.7619C757.421 85.0873 757.62 84.254 758.255 83.8175C758.929 83.4206 759.762 83.619 760.199 84.254C760.635 84.9286 760.437 85.8016 759.762 86.1984Z" fill="#2480FE" fill-opacity="0.2"/>
<path d="M791.747 70.4048C791.072 70.8016 790.239 70.6032 789.802 69.9682C789.406 69.2936 789.604 68.4603 790.239 68.0238C790.913 67.627 791.747 67.8254 792.183 68.4603C792.62 69.1349 792.421 70.0079 791.747 70.4048Z" fill="#2480FE" fill-opacity="0.2"/>
<path d="M794.961 2.03174C794.405 2.38888 793.691 2.19047 793.334 1.63492C792.977 1.07936 793.175 0.365092 793.731 0.00794898C794.286 -0.349194 795 -0.150787 795.358 0.404768C795.675 0.960324 795.516 1.67459 794.961 2.03174Z" fill="#2480FE" fill-opacity="0.2"/>
<path d="M451.706 466.794C451.031 467.19 450.198 466.992 449.761 466.357C449.365 465.683 449.563 464.849 450.198 464.413C450.872 464.016 451.706 464.214 452.142 464.849C452.539 465.524 452.341 466.397 451.706 466.794Z" fill="#2480FE" fill-opacity="0.2"/>
<path d="M498.928 404.294C498.293 404.69 497.42 404.492 497.023 403.857C496.626 403.222 496.825 402.349 497.46 401.952C498.095 401.556 498.968 401.754 499.364 402.389C499.761 403.024 499.563 403.897 498.928 404.294Z" fill="#2480FE" fill-opacity="0.2"/>
<path d="M542.302 348.222C541.627 348.619 540.754 348.421 540.357 347.746C539.961 347.071 540.159 346.198 540.834 345.802C541.508 345.405 542.381 345.603 542.778 346.278C543.175 346.952 542.976 347.825 542.302 348.222Z" fill="#2480FE" fill-opacity="0.2"/>
<path d="M582.342 300.087C581.668 300.524 580.755 300.286 580.318 299.611C579.882 298.936 580.12 298.024 580.795 297.587C581.469 297.151 582.382 297.389 582.818 298.063C583.255 298.738 583.017 299.651 582.342 300.087Z" fill="#2480FE" fill-opacity="0.2"/>
<path d="M619.959 258.698C619.285 259.135 618.372 258.897 617.936 258.222C617.499 257.548 617.737 256.635 618.412 256.198C619.086 255.762 619.999 256 620.435 256.675C620.872 257.349 620.674 258.262 619.959 258.698Z" fill="#2480FE" fill-opacity="0.2"/>
<path d="M655.832 223.698C655.158 224.135 654.245 223.897 653.809 223.222C653.372 222.548 653.61 221.635 654.285 221.198C654.959 220.762 655.872 221 656.309 221.675C656.745 222.389 656.507 223.302 655.832 223.698Z" fill="#2480FE" fill-opacity="0.2"/>
<path d="M690.317 194.69C689.603 195.127 688.69 194.929 688.254 194.214C687.817 193.5 688.015 192.587 688.73 192.151C689.444 191.714 690.357 191.913 690.793 192.627C691.269 193.302 691.031 194.254 690.317 194.69Z" fill="#2480FE" fill-opacity="0.2"/>
<path d="M723.731 171.079C723.016 171.516 722.024 171.317 721.588 170.563C721.151 169.849 721.35 168.857 722.104 168.421C722.818 167.984 723.81 168.183 724.246 168.936C724.683 169.651 724.485 170.603 723.731 171.079Z" fill="#2480FE" fill-opacity="0.2"/>
<path d="M756.19 152.23C755.475 152.667 754.483 152.468 754.047 151.714C753.61 151 753.809 150.008 754.563 149.571C755.277 149.135 756.269 149.333 756.706 150.087C757.142 150.841 756.904 151.794 756.19 152.23Z" fill="#2480FE" fill-opacity="0.2"/>
<path d="M787.778 137.706C787.024 138.183 786.072 137.944 785.596 137.19C785.119 136.436 785.357 135.484 786.111 135.008C786.865 134.532 787.818 134.77 788.294 135.524C788.77 136.278 788.532 137.27 787.778 137.706Z" fill="#2480FE" fill-opacity="0.2"/>
<path d="M818.571 126.873C817.817 127.349 816.865 127.111 816.389 126.357C815.912 125.603 816.151 124.651 816.904 124.175C817.658 123.698 818.611 123.936 819.087 124.69C819.524 125.444 819.325 126.397 818.571 126.873Z" fill="#2480FE" fill-opacity="0.2"/>
<path d="M823.095 58.0238C822.42 58.4206 821.587 58.2222 821.15 57.5873C820.753 56.9127 820.952 56.0794 821.587 55.6429C822.261 55.246 823.095 55.4445 823.531 56.0794C823.968 56.754 823.769 57.627 823.095 58.0238Z" fill="#2480FE" fill-opacity="0.2"/>
<path d="M490.119 473.064C489.405 473.5 488.413 473.302 487.976 472.548C487.54 471.833 487.738 470.841 488.492 470.405C489.207 469.968 490.199 470.167 490.635 470.921C491.072 471.675 490.834 472.627 490.119 473.064Z" fill="#2480FE" fill-opacity="0.2"/>
<path d="M535.596 414.254C534.882 414.69 533.89 414.492 533.453 413.738C533.017 413.024 533.215 412.032 533.969 411.595C534.683 411.159 535.675 411.357 536.112 412.111C536.548 412.825 536.35 413.778 535.596 414.254Z" fill="#2480FE" fill-opacity="0.2"/>
<path d="M577.261 363.341C576.507 363.817 575.515 363.579 575.039 362.825C574.563 362.071 574.801 361.079 575.555 360.603C576.309 360.127 577.301 360.365 577.777 361.119C578.253 361.873 578.015 362.865 577.261 363.341Z" fill="#2480FE" fill-opacity="0.2"/>
<path d="M615.912 320.365C615.119 320.841 614.127 320.603 613.65 319.849C613.174 319.056 613.412 318.063 614.166 317.587C614.96 317.111 615.952 317.349 616.428 318.103C616.944 318.897 616.706 319.889 615.912 320.365Z" fill="#2480FE" fill-opacity="0.2"/>
<path d="M652.301 284.651C651.547 285.127 650.515 284.889 650.039 284.135C649.563 283.381 649.801 282.349 650.555 281.873C651.309 281.397 652.341 281.635 652.817 282.389C653.333 283.182 653.094 284.175 652.301 284.651Z" fill="#2480FE" fill-opacity="0.2"/>
<path d="M686.984 255.683C686.23 256.159 685.199 255.921 684.723 255.167C684.246 254.413 684.484 253.381 685.238 252.905C685.992 252.429 687.024 252.667 687.5 253.421C688.016 254.175 687.778 255.206 686.984 255.683Z" fill="#2480FE" fill-opacity="0.2"/>
<path d="M720.358 232.865C719.524 233.381 718.493 233.103 717.977 232.31C717.461 231.476 717.739 230.444 718.532 229.929C719.366 229.413 720.397 229.69 720.913 230.484C721.39 231.278 721.151 232.349 720.358 232.865Z" fill="#2480FE" fill-opacity="0.2"/>
<path d="M752.459 215.405C751.626 215.921 750.594 215.643 750.078 214.849C749.562 214.016 749.84 212.984 750.634 212.468C751.467 211.952 752.499 212.23 753.015 213.024C753.491 213.857 753.253 214.929 752.459 215.405Z" fill="#2480FE" fill-opacity="0.2"/>
<path d="M783.451 202.746C782.618 203.262 781.586 202.984 781.071 202.19C780.555 201.357 780.832 200.325 781.626 199.809C782.459 199.294 783.491 199.571 784.007 200.365C784.523 201.159 784.285 202.23 783.451 202.746Z" fill="#2480FE" fill-opacity="0.2"/>
<path d="M813.412 194.095C812.619 194.611 811.547 194.333 811.031 193.54C810.516 192.746 810.793 191.675 811.587 191.159C812.381 190.643 813.452 190.921 813.968 191.714C814.484 192.548 814.246 193.619 813.412 194.095Z" fill="#2480FE" fill-opacity="0.2"/>
<path d="M842.42 188.936C841.547 189.452 840.436 189.214 839.92 188.341C839.404 187.468 839.642 186.357 840.515 185.841C841.388 185.325 842.499 185.563 843.015 186.436C843.531 187.27 843.293 188.381 842.42 188.936Z" fill="#2480FE" fill-opacity="0.2"/>
<path d="M848.611 119.175C847.857 119.651 846.826 119.413 846.35 118.659C845.873 117.905 846.111 116.873 846.865 116.397C847.619 115.921 848.651 116.159 849.127 116.913C849.603 117.706 849.365 118.698 848.611 119.175Z" fill="#2480FE" fill-opacity="0.2"/>
<path d="M853.889 48.6587C853.175 49.0952 852.262 48.8968 851.826 48.1826C851.389 47.4683 851.588 46.5556 852.302 46.119C853.016 45.6825 853.929 45.881 854.366 46.5952C854.802 47.3095 854.564 48.2222 853.889 48.6587Z" fill="#2480FE" fill-opacity="0.2"/>
<path d="M528.531 478.778C527.737 479.294 526.666 479.016 526.19 478.222C525.674 477.429 525.952 476.357 526.745 475.881C527.539 475.365 528.61 475.643 529.087 476.436C529.602 477.23 529.325 478.302 528.531 478.778Z" fill="#2480FE" fill-opacity="0.2"/>
<path d="M571.985 424.968C571.151 425.484 570.08 425.206 569.604 424.413C569.088 423.579 569.366 422.508 570.159 422.032C570.993 421.516 572.064 421.794 572.54 422.587C573.056 423.381 572.818 424.452 571.985 424.968Z" fill="#2480FE" fill-opacity="0.2"/>
<path d="M611.865 379.81C611.032 380.325 609.921 380.087 609.365 379.214C608.85 378.381 609.088 377.27 609.961 376.714C610.794 376.198 611.905 376.436 612.461 377.309C612.977 378.183 612.699 379.294 611.865 379.81Z" fill="#2480FE" fill-opacity="0.2"/>
<path d="M648.928 342.944C648.095 343.46 646.983 343.222 646.428 342.349C645.912 341.516 646.15 340.405 647.023 339.849C647.856 339.333 648.968 339.571 649.523 340.444C650.039 341.278 649.761 342.389 648.928 342.944Z" fill="#2480FE" fill-opacity="0.2"/>
<path d="M683.85 313.778C682.977 314.294 681.866 314.056 681.35 313.183C680.834 312.309 681.072 311.198 681.945 310.683C682.818 310.167 683.929 310.405 684.445 311.278C684.961 312.111 684.723 313.222 683.85 313.778Z" fill="#2480FE" fill-opacity="0.2"/>
<path d="M717.024 291.556C716.151 292.071 715.039 291.833 714.524 290.96C714.008 290.087 714.246 288.976 715.119 288.46C715.992 287.944 717.103 288.183 717.619 289.056C718.174 289.889 717.897 291 717.024 291.556Z" fill="#2480FE" fill-opacity="0.2"/>
<path d="M748.77 275.563C747.897 276.119 746.706 275.841 746.151 274.968C745.595 274.095 745.873 272.905 746.746 272.349C747.619 271.794 748.809 272.071 749.365 272.944C749.92 273.817 749.643 275.008 748.77 275.563Z" fill="#2480FE" fill-opacity="0.2"/>
<path d="M779.088 264.889C778.215 265.444 777.024 265.167 776.469 264.294C775.913 263.421 776.191 262.23 777.064 261.675C777.937 261.119 779.128 261.397 779.683 262.27C780.239 263.183 779.961 264.333 779.088 264.889Z" fill="#2480FE" fill-opacity="0.2"/>
<path d="M808.095 258.817C807.182 259.373 805.992 259.095 805.436 258.183C804.88 257.27 805.158 256.079 806.071 255.524C806.984 254.968 808.174 255.246 808.73 256.159C809.246 257.071 808.968 258.262 808.095 258.817Z" fill="#2480FE" fill-opacity="0.2"/>
<path d="M835.755 256.397C834.842 256.952 833.652 256.675 833.096 255.762C832.541 254.849 832.818 253.659 833.731 253.103C834.644 252.548 835.834 252.825 836.39 253.738C836.945 254.651 836.668 255.841 835.755 256.397Z" fill="#2480FE" fill-opacity="0.2"/>
<path d="M862.182 256.913C861.23 257.508 860.039 257.19 859.444 256.278C858.849 255.325 859.166 254.135 860.079 253.54C861.031 252.944 862.222 253.262 862.817 254.175C863.412 255.087 863.134 256.317 862.182 256.913Z" fill="#2480FE" fill-opacity="0.2"/>
<path d="M870.397 186.317C869.524 186.833 868.413 186.595 867.897 185.722C867.381 184.849 867.619 183.738 868.492 183.222C869.365 182.706 870.476 182.944 870.992 183.817C871.508 184.651 871.23 185.762 870.397 186.317Z" fill="#2480FE" fill-opacity="0.2"/>
<path d="M877.816 113.937C877.063 114.413 876.031 114.175 875.555 113.421C875.078 112.667 875.316 111.635 876.07 111.159C876.824 110.683 877.856 110.921 878.332 111.675C878.809 112.468 878.57 113.46 877.816 113.937Z" fill="#2480FE" fill-opacity="0.2"/>
<path d="M884.008 41.5952C883.334 42.0317 882.421 41.7937 881.984 41.1191C881.548 40.4445 881.786 39.5318 882.461 39.0952C883.135 38.6587 884.048 38.8968 884.484 39.5715C884.921 40.2461 884.683 41.1587 884.008 41.5952Z" fill="#2480FE" fill-opacity="0.2"/>
<path d="M566.151 486.754C565.238 487.349 564.008 487.032 563.413 486.119C562.817 485.206 563.135 483.976 564.048 483.381C564.96 482.786 566.19 483.103 566.786 484.016C567.381 484.968 567.063 486.159 566.151 486.754Z" fill="#2480FE" fill-opacity="0.2"/>
<path d="M607.54 438.778C606.548 439.373 605.278 439.095 604.643 438.103C604.008 437.111 604.326 435.841 605.318 435.206C606.31 434.611 607.58 434.889 608.214 435.881C608.849 436.873 608.532 438.183 607.54 438.778Z" fill="#2480FE" fill-opacity="0.2"/>
<path d="M645.516 400.048C644.524 400.643 643.255 400.365 642.62 399.373C641.985 398.381 642.302 397.111 643.294 396.476C644.286 395.841 645.556 396.159 646.191 397.151C646.786 398.143 646.469 399.413 645.516 400.048Z" fill="#2480FE" fill-opacity="0.2"/>
<path d="M680.793 370.048C679.801 370.643 678.531 370.365 677.936 369.373C677.341 368.381 677.619 367.111 678.611 366.516C679.603 365.921 680.872 366.198 681.468 367.19C682.063 368.182 681.785 369.452 680.793 370.048Z" fill="#2480FE" fill-opacity="0.2"/>
<path d="M714.007 348.063C713.015 348.698 711.706 348.381 711.071 347.389C710.436 346.397 710.753 345.087 711.745 344.452C712.737 343.817 714.047 344.135 714.682 345.127C715.277 346.159 714.999 347.468 714.007 348.063Z" fill="#2480FE" fill-opacity="0.2"/>
<path d="M745.318 333.103C744.326 333.738 743.016 333.421 742.381 332.429C741.746 331.436 742.064 330.127 743.056 329.492C744.048 328.857 745.357 329.175 745.992 330.167C746.627 331.159 746.31 332.468 745.318 333.103Z" fill="#2480FE" fill-opacity="0.2"/>
<path d="M774.96 324.333C773.928 324.968 772.579 324.651 771.944 323.619C771.309 322.587 771.627 321.238 772.658 320.603C773.69 319.968 775.039 320.286 775.674 321.317C776.309 322.309 775.992 323.698 774.96 324.333Z" fill="#2480FE" fill-opacity="0.2"/>
<path d="M802.897 320.603C801.866 321.238 800.516 320.921 799.882 319.889C799.247 318.857 799.564 317.508 800.596 316.873C801.628 316.238 802.977 316.555 803.612 317.587C804.247 318.619 803.929 319.968 802.897 320.603Z" fill="#2480FE" fill-opacity="0.2"/>
<path d="M829.166 321.119C828.135 321.754 826.746 321.436 826.071 320.405C825.436 319.373 825.754 317.984 826.785 317.309C827.817 316.675 829.206 316.992 829.881 318.024C830.555 319.095 830.238 320.444 829.166 321.119Z" fill="#2480FE" fill-opacity="0.2"/>
<path d="M853.809 324.73C852.777 325.365 851.388 325.048 850.714 324.016C850.079 322.984 850.396 321.595 851.428 320.921C852.46 320.286 853.849 320.603 854.523 321.635C855.198 322.706 854.88 324.095 853.809 324.73Z" fill="#2480FE" fill-opacity="0.2"/>
<path d="M876.945 330.484C875.913 331.119 874.524 330.802 873.889 329.77C873.254 328.738 873.572 327.349 874.604 326.714C875.635 326.079 877.024 326.397 877.659 327.429C878.294 328.5 877.977 329.849 876.945 330.484Z" fill="#2480FE" fill-opacity="0.2"/>
<path d="M887.381 259.373C886.429 259.968 885.238 259.651 884.643 258.738C884.048 257.786 884.365 256.595 885.278 256C886.23 255.405 887.421 255.722 888.016 256.635C888.611 257.548 888.334 258.778 887.381 259.373Z" fill="#2480FE" fill-opacity="0.2"/>
<path d="M897.42 185.603C896.547 186.119 895.436 185.881 894.92 185.008C894.404 184.135 894.642 183.024 895.515 182.508C896.388 181.992 897.499 182.23 898.015 183.103C898.531 183.936 898.253 185.087 897.42 185.603Z" fill="#2480FE" fill-opacity="0.2"/>
<path d="M906.27 110.603C905.516 111.079 904.484 110.841 904.008 110.087C903.532 109.333 903.77 108.302 904.524 107.825C905.278 107.349 906.309 107.587 906.785 108.341C907.301 109.135 907.063 110.127 906.27 110.603Z" fill="#2480FE" fill-opacity="0.2"/>
<path d="M913.493 36.4365C912.818 36.873 911.905 36.6746 911.469 35.9603C911.032 35.2857 911.27 34.373 911.945 33.9365C912.62 33.5 913.532 33.6984 913.969 34.4127C914.405 35.0873 914.207 36 913.493 36.4365Z" fill="#2480FE" fill-opacity="0.2"/>
<path d="M602.302 498.698C601.27 499.333 599.921 499.016 599.286 497.984C598.651 496.952 598.968 495.603 600 494.968C601.032 494.333 602.381 494.651 603.016 495.683C603.651 496.714 603.334 498.063 602.302 498.698Z" fill="#2480FE" fill-opacity="0.2"/>
<path d="M641.509 457.19C640.477 457.825 639.128 457.508 638.493 456.476C637.858 455.444 638.175 454.095 639.207 453.46C640.239 452.825 641.588 453.143 642.223 454.175C642.858 455.206 642.541 456.556 641.509 457.19Z" fill="#2480FE" fill-opacity="0.2"/>
<path d="M677.54 425.722C676.469 426.397 675.08 426.04 674.405 425.008C673.73 423.937 674.088 422.548 675.119 421.873C676.151 421.198 677.58 421.556 678.254 422.587C678.929 423.659 678.572 425.048 677.54 425.722Z" fill="#2480FE" fill-opacity="0.2"/>
<path d="M710.914 403.222C709.842 403.897 708.414 403.579 707.739 402.468C707.064 401.397 707.382 399.968 708.493 399.294C709.564 398.619 710.993 398.937 711.668 400.048C712.303 401.119 711.985 402.548 710.914 403.222Z" fill="#2480FE" fill-opacity="0.2"/>
<path d="M741.984 388.698C740.912 389.373 739.484 389.056 738.809 387.944C738.135 386.873 738.452 385.444 739.563 384.77C740.635 384.095 742.063 384.413 742.738 385.524C743.412 386.595 743.055 388.024 741.984 388.698Z" fill="#2480FE" fill-opacity="0.2"/>
<path d="M770.992 381.119C769.92 381.794 768.492 381.476 767.817 380.365C767.143 379.294 767.46 377.865 768.571 377.19C769.643 376.516 771.071 376.833 771.746 377.944C772.381 379.056 772.063 380.444 770.992 381.119Z" fill="#2480FE" fill-opacity="0.2"/>
<path d="M797.936 379.452C796.825 380.127 795.396 379.809 794.721 378.698C794.047 377.587 794.364 376.159 795.475 375.484C796.586 374.81 798.015 375.127 798.69 376.238C799.364 377.31 799.047 378.778 797.936 379.452Z" fill="#2480FE" fill-opacity="0.2"/>
<path d="M822.858 382.508C821.707 383.222 820.239 382.865 819.524 381.714C818.81 380.564 819.167 379.095 820.318 378.381C821.469 377.667 822.937 378.024 823.651 379.175C824.366 380.325 824.009 381.794 822.858 382.508Z" fill="#2480FE" fill-opacity="0.2"/>
<path d="M845.715 389.095C844.564 389.81 843.096 389.452 842.382 388.302C841.668 387.151 842.025 385.683 843.175 384.968C844.326 384.254 845.795 384.611 846.509 385.762C847.223 386.873 846.866 388.381 845.715 389.095Z" fill="#2480FE" fill-opacity="0.2"/>
<path d="M866.627 398.064C865.476 398.778 864.008 398.421 863.294 397.27C862.58 396.119 862.937 394.651 864.088 393.937C865.238 393.222 866.707 393.579 867.421 394.73C868.135 395.881 867.778 397.349 866.627 398.064Z" fill="#2480FE" fill-opacity="0.2"/>
<path d="M884.564 408.778C885.923 408.778 887.024 407.676 887.024 406.317C887.024 404.959 885.923 403.857 884.564 403.857C883.205 403.857 882.104 404.959 882.104 406.317C882.104 407.676 883.205 408.778 884.564 408.778Z" fill="#2480FE" fill-opacity="0.2"/>
<path d="M898.73 337.508C897.659 338.183 896.23 337.865 895.555 336.754C894.881 335.683 895.198 334.254 896.309 333.579C897.381 332.905 898.809 333.222 899.484 334.333C900.159 335.444 899.801 336.833 898.73 337.508Z" fill="#2480FE" fill-opacity="0.2"/>
<path d="M911.548 262.984C910.595 263.579 909.365 263.302 908.77 262.349C908.175 261.397 908.452 260.167 909.405 259.571C910.357 258.976 911.587 259.254 912.182 260.206C912.778 261.159 912.5 262.389 911.548 262.984Z" fill="#2480FE" fill-opacity="0.2"/>
<path d="M923.57 186.119C922.697 186.635 921.586 186.397 921.07 185.524C920.555 184.651 920.793 183.54 921.666 183.024C922.539 182.508 923.65 182.746 924.166 183.619C924.682 184.452 924.443 185.563 923.57 186.119Z" fill="#2480FE" fill-opacity="0.2"/>
<path d="M934.127 108.659C933.334 109.175 932.262 108.897 931.746 108.103C931.23 107.31 931.508 106.238 932.302 105.722C933.096 105.206 934.167 105.484 934.683 106.278C935.159 107.071 934.921 108.143 934.127 108.659Z" fill="#2480FE" fill-opacity="0.2"/>
<path d="M942.46 32.7063C941.746 33.1429 940.794 32.9444 940.357 32.2301C939.921 31.5159 940.119 30.5635 940.833 30.127C941.548 29.6905 942.5 29.8889 942.936 30.6032C943.413 31.3175 943.175 32.2698 942.46 32.7063Z" fill="#2480FE" fill-opacity="0.2"/>
<path d="M636.705 516.079C635.555 516.794 634.086 516.437 633.372 515.286C632.658 514.135 633.015 512.667 634.166 511.952C635.317 511.238 636.785 511.595 637.499 512.746C638.174 513.897 637.856 515.405 636.705 516.079Z" fill="#2480FE" fill-opacity="0.2"/>
<path d="M673.69 482.071C672.539 482.786 671.071 482.429 670.356 481.278C669.642 480.127 669.999 478.659 671.15 477.944C672.301 477.23 673.769 477.587 674.483 478.738C675.158 479.849 674.841 481.357 673.69 482.071Z" fill="#2480FE" fill-opacity="0.2"/>
<path d="M707.5 458.143C706.35 458.857 704.881 458.5 704.167 457.349C703.453 456.198 703.81 454.73 704.961 454.016C706.111 453.302 707.58 453.659 708.294 454.81C708.969 455.921 708.651 457.429 707.5 458.143Z" fill="#2480FE" fill-opacity="0.2"/>
<path d="M738.652 443.341C737.461 444.095 735.874 443.698 735.159 442.508C734.406 441.317 734.802 439.73 735.993 439.016C737.183 438.262 738.771 438.659 739.485 439.849C740.239 441.04 739.842 442.587 738.652 443.341Z" fill="#2480FE" fill-opacity="0.2"/>
<path d="M767.263 436.318C766.072 437.071 764.485 436.675 763.771 435.484C763.017 434.294 763.414 432.706 764.604 431.992C765.795 431.238 767.382 431.635 768.096 432.825C768.811 434.016 768.453 435.564 767.263 436.318Z" fill="#2480FE" fill-opacity="0.2"/>
<path d="M793.372 435.881C792.182 436.635 790.594 436.238 789.88 435.048C789.126 433.857 789.523 432.27 790.714 431.556C791.904 430.802 793.491 431.198 794.206 432.389C794.92 433.579 794.563 435.167 793.372 435.881Z" fill="#2480FE" fill-opacity="0.2"/>
<path d="M817.025 440.841C815.834 441.595 814.247 441.198 813.533 440.008C812.779 438.817 813.175 437.23 814.366 436.516C815.556 435.762 817.144 436.159 817.858 437.349C818.572 438.54 818.215 440.087 817.025 440.841Z" fill="#2480FE" fill-opacity="0.2"/>
<path d="M838.214 449.889C837.024 450.643 835.437 450.286 834.683 449.055C833.929 447.865 834.286 446.278 835.516 445.524C836.706 444.77 838.294 445.127 839.048 446.357C839.802 447.548 839.405 449.135 838.214 449.889Z" fill="#2480FE" fill-opacity="0.2"/>
<path d="M857.023 461.675C855.832 462.429 854.245 462.071 853.491 460.841C852.737 459.651 853.094 458.063 854.325 457.31C855.515 456.556 857.102 456.913 857.856 458.143C858.571 459.333 858.213 460.921 857.023 461.675Z" fill="#2480FE" fill-opacity="0.2"/>
<path d="M873.65 475.087C872.42 475.881 870.753 475.484 869.999 474.214C869.206 472.984 869.602 471.317 870.872 470.563C872.102 469.77 873.769 470.167 874.523 471.437C875.317 472.667 874.92 474.333 873.65 475.087Z" fill="#2480FE" fill-opacity="0.2"/>
<path d="M888.492 488.738C887.262 489.532 885.595 489.135 884.841 487.865C884.047 486.635 884.444 484.968 885.714 484.214C886.944 483.421 888.611 483.817 889.365 485.087C890.119 486.317 889.722 487.944 888.492 488.738Z" fill="#2480FE" fill-opacity="0.2"/>
<path d="M903.61 418.897C902.459 419.611 900.952 419.254 900.237 418.103C899.523 416.952 899.88 415.444 901.031 414.73C902.182 414.016 903.69 414.373 904.404 415.524C905.118 416.675 904.761 418.183 903.61 418.897Z" fill="#2480FE" fill-opacity="0.2"/>
<path d="M919.404 344.69C918.332 345.365 916.904 345.048 916.229 343.936C915.555 342.865 915.872 341.436 916.983 340.762C918.055 340.087 919.483 340.405 920.158 341.516C920.832 342.627 920.475 344.055 919.404 344.69Z" fill="#2480FE" fill-opacity="0.2"/>
<path d="M934.841 266.913C933.888 267.508 932.658 267.23 932.063 266.278C931.467 265.325 931.745 264.095 932.698 263.5C933.65 262.905 934.88 263.183 935.475 264.135C936.071 265.087 935.793 266.317 934.841 266.913Z" fill="#2480FE" fill-opacity="0.2"/>
<path d="M949.088 187.19C948.215 187.746 947.024 187.468 946.469 186.595C945.913 185.722 946.191 184.532 947.064 183.976C947.937 183.421 949.128 183.698 949.683 184.571C950.239 185.444 949.961 186.635 949.088 187.19Z" fill="#2480FE" fill-opacity="0.2"/>
<path d="M961.27 107.31C960.476 107.825 959.405 107.548 958.889 106.754C958.373 105.96 958.651 104.889 959.444 104.373C960.238 103.857 961.31 104.135 961.825 104.929C962.341 105.762 962.103 106.833 961.27 107.31Z" fill="#2480FE" fill-opacity="0.2"/>
<path d="M970.872 29.8095C970.158 30.246 969.206 30.0477 968.769 29.3334C968.333 28.6191 968.531 27.6667 969.245 27.2302C969.96 26.7937 970.912 26.9921 971.349 27.7064C971.785 28.4207 971.587 29.3333 970.872 29.8095Z" fill="#2480FE" fill-opacity="0.2"/>
<path d="M703.532 514.095C702.302 514.849 700.675 514.492 699.921 513.262C699.167 512.032 699.524 510.405 700.754 509.651C701.984 508.897 703.611 509.254 704.365 510.484C705.119 511.714 704.762 513.341 703.532 514.095Z" fill="#2480FE" fill-opacity="0.2"/>
<path d="M734.961 497.944C733.691 498.738 732.064 498.341 731.271 497.071C730.477 495.802 730.874 494.175 732.144 493.381C733.414 492.587 735.041 492.984 735.834 494.254C736.628 495.524 736.191 497.151 734.961 497.944Z" fill="#2480FE" fill-opacity="0.2"/>
<path d="M763.413 490.524C762.183 491.278 760.556 490.921 759.763 489.69C759.009 488.46 759.366 486.833 760.596 486.04C761.826 485.286 763.453 485.643 764.247 486.873C765.04 488.103 764.644 489.73 763.413 490.524Z" fill="#2480FE" fill-opacity="0.2"/>
<path d="M789.007 490.524C787.777 491.278 786.15 490.921 785.356 489.69C784.602 488.46 784.96 486.833 786.19 486.04C787.42 485.286 789.047 485.643 789.841 486.873C790.634 488.143 790.237 489.77 789.007 490.524Z" fill="#2480FE" fill-opacity="0.2"/>
<path d="M811.746 496.714C810.476 497.508 808.77 497.111 807.976 495.841C807.182 494.571 807.579 492.865 808.849 492.071C810.119 491.278 811.825 491.675 812.619 492.944C813.412 494.214 813.016 495.921 811.746 496.714Z" fill="#2480FE" fill-opacity="0.2"/>
<path d="M831.548 507.508C830.238 508.302 828.532 507.905 827.699 506.595C826.905 505.286 827.302 503.579 828.611 502.746C829.921 501.952 831.627 502.349 832.461 503.659C833.254 504.968 832.818 506.675 831.548 507.508Z" fill="#2480FE" fill-opacity="0.2"/>
<path d="M848.452 521.476C847.143 522.27 845.436 521.873 844.603 520.563C843.809 519.254 844.206 517.548 845.516 516.714C846.825 515.921 848.532 516.317 849.365 517.627C850.159 518.976 849.762 520.683 848.452 521.476Z" fill="#2480FE" fill-opacity="0.2"/>
<path d="M902.023 501.516C900.793 502.31 899.126 501.913 898.372 500.643C897.579 499.413 897.976 497.746 899.245 496.992C900.476 496.198 902.142 496.595 902.896 497.865C903.65 499.095 903.293 500.762 902.023 501.516Z" fill="#2480FE" fill-opacity="0.2"/>
<path d="M920.517 428.659C919.326 429.413 917.779 429.016 917.025 427.825C916.271 426.635 916.668 425.087 917.858 424.333C919.049 423.579 920.596 423.976 921.35 425.167C922.064 426.357 921.707 427.905 920.517 428.659Z" fill="#2480FE" fill-opacity="0.2"/>
<path d="M939.405 351.238C938.293 351.913 936.865 351.595 936.19 350.484C935.516 349.373 935.833 347.944 936.944 347.27C938.055 346.595 939.484 346.913 940.158 348.024C940.833 349.095 940.516 350.563 939.405 351.238Z" fill="#2480FE" fill-opacity="0.2"/>
<path d="M957.62 270.444C956.628 271.04 955.358 270.762 954.723 269.77C954.088 268.778 954.406 267.508 955.398 266.873C956.39 266.278 957.66 266.556 958.295 267.548C958.89 268.54 958.612 269.81 957.62 270.444Z" fill="#2480FE" fill-opacity="0.2"/>
<path d="M974.087 188.024C973.174 188.579 971.984 188.302 971.428 187.389C970.873 186.476 971.15 185.286 972.063 184.73C972.976 184.175 974.166 184.452 974.722 185.365C975.277 186.278 975 187.468 974.087 188.024Z" fill="#2480FE" fill-opacity="0.2"/>
<path d="M988.016 106.079C987.222 106.595 986.151 106.317 985.635 105.524C985.119 104.73 985.397 103.659 986.191 103.143C986.984 102.627 988.056 102.905 988.571 103.698C989.087 104.492 988.81 105.603 988.016 106.079Z" fill="#2480FE" fill-opacity="0.2"/>
<path d="M998.809 27.2698C998.055 27.746 997.102 27.508 996.666 26.754C996.19 26 996.428 25.0476 997.182 24.6111C997.936 24.1349 998.888 24.373 999.325 25.127C999.801 25.8413 999.563 26.7937 998.809 27.2698Z" fill="#2480FE" fill-opacity="0.2"/>
<path d="M915.04 512.468C913.77 513.262 912.103 512.865 911.31 511.595C910.516 510.325 910.913 508.659 912.183 507.865C913.453 507.071 915.119 507.468 915.913 508.738C916.707 510.008 916.31 511.675 915.04 512.468Z" fill="#2480FE" fill-opacity="0.2"/>
<path d="M937.064 436.556C935.873 437.31 934.326 436.913 933.572 435.722C932.818 434.532 933.214 432.984 934.405 432.23C935.595 431.476 937.143 431.873 937.897 433.064C938.611 434.254 938.254 435.841 937.064 436.556Z" fill="#2480FE" fill-opacity="0.2"/>
<path d="M959.207 356.159C958.096 356.833 956.667 356.516 955.993 355.405C955.318 354.294 955.636 352.865 956.747 352.19C957.858 351.516 959.287 351.833 959.961 352.944C960.636 354.055 960.318 355.484 959.207 356.159Z" fill="#2480FE" fill-opacity="0.2"/>
<path d="M980.159 272.627C979.167 273.222 977.897 272.944 977.262 271.952C976.667 270.96 976.945 269.69 977.937 269.056C978.929 268.46 980.199 268.738 980.834 269.73C981.468 270.722 981.151 272.032 980.159 272.627Z" fill="#2480FE" fill-opacity="0.2"/>
<path d="M998.89 187.944C997.977 188.5 996.786 188.222 996.231 187.309C995.675 186.397 995.953 185.206 996.866 184.651C997.779 184.095 998.969 184.373 999.525 185.286C1000.08 186.198 999.802 187.389 998.89 187.944Z" fill="#2480FE" fill-opacity="0.2"/>
<path d="M1014.44 104.373C1013.65 104.889 1012.58 104.611 1012.06 103.817C1011.55 103.024 1011.82 101.952 1012.62 101.437C1013.41 100.921 1014.48 101.198 1015 101.992C1015.52 102.825 1015.28 103.857 1014.44 104.373Z" fill="#2480FE" fill-opacity="0.2"/>
<path d="M1026.67 23.8571C1025.91 24.3333 1024.96 24.0953 1024.52 23.3413C1024.05 22.5873 1024.29 21.6349 1025.04 21.1984C1025.79 20.7222 1026.75 20.9603 1027.18 21.7143C1027.62 22.4286 1027.42 23.4206 1026.67 23.8571Z" fill="#2480FE" fill-opacity="0.2"/>
<path d="M928.372 520.643C927.063 521.476 925.356 521.04 924.523 519.73C923.69 518.421 924.126 516.714 925.436 515.881C926.745 515.048 928.452 515.484 929.285 516.794C930.079 518.103 929.682 519.81 928.372 520.643Z" fill="#2480FE" fill-opacity="0.2"/>
<path d="M954.008 441.873C952.778 442.627 951.191 442.27 950.437 441.04C949.683 439.809 950.04 438.222 951.27 437.468C952.5 436.714 954.087 437.071 954.841 438.302C955.595 439.532 955.238 441.119 954.008 441.873Z" fill="#2480FE" fill-opacity="0.2"/>
<path d="M979.444 358.817C978.293 359.532 976.825 359.175 976.11 358.024C975.396 356.873 975.753 355.405 976.904 354.69C978.055 353.976 979.523 354.333 980.237 355.484C980.912 356.595 980.555 358.103 979.444 358.817Z" fill="#2480FE" fill-opacity="0.2"/>
<path d="M1003.02 272.865C1002.02 273.46 1000.75 273.183 1000.12 272.19C999.524 271.198 999.802 269.929 1000.79 269.294C1001.79 268.698 1003.06 268.976 1003.69 269.968C1004.33 270.96 1004.01 272.23 1003.02 272.865Z" fill="#2480FE" fill-opacity="0.2"/>
<path d="M1024.05 185.762C1023.14 186.317 1021.94 186.04 1021.39 185.127C1020.83 184.214 1021.11 183.024 1022.02 182.468C1022.94 181.913 1024.13 182.19 1024.68 183.103C1025.24 184.016 1024.96 185.206 1024.05 185.762Z" fill="#2480FE" fill-opacity="0.2"/>
<path d="M1041.87 99.0953C1040.99 99.6111 1039.88 99.373 1039.33 98.5C1038.81 97.627 1039.05 96.5159 1039.92 95.9603C1040.79 95.4445 1041.91 95.6825 1042.46 96.5556C1043.02 97.4286 1042.74 98.5794 1041.87 99.0953Z" fill="#2480FE" fill-opacity="0.2"/>
<path d="M1055.87 15.246C1055.12 15.7222 1054.09 15.4841 1053.61 14.7302C1053.14 13.9762 1053.37 12.9445 1054.13 12.4683C1054.88 11.9921 1055.91 12.2302 1056.39 12.9841C1056.87 13.7778 1056.63 14.7698 1055.87 15.246Z" fill="#2480FE" fill-opacity="0.2"/>
<path d="M942.937 525.008C941.627 525.841 939.921 525.405 939.087 524.095C938.254 522.786 938.691 521.079 940 520.246C941.31 519.413 943.016 519.849 943.849 521.159C944.643 522.468 944.246 524.214 942.937 525.008Z" fill="#2480FE" fill-opacity="0.2"/>
<path d="M972.223 443.619C970.993 444.373 969.405 444.016 968.651 442.786C967.897 441.555 968.255 439.968 969.485 439.214C970.715 438.46 972.302 438.817 973.056 440.048C973.81 441.278 973.413 442.905 972.223 443.619Z" fill="#2480FE" fill-opacity="0.2"/>
<path d="M1000.99 357.667C999.842 358.381 998.373 358.024 997.659 356.873C996.945 355.722 997.302 354.254 998.453 353.54C999.604 352.825 1001.07 353.183 1001.79 354.333C1002.46 355.484 1002.14 356.992 1000.99 357.667Z" fill="#2480FE" fill-opacity="0.2"/>
<path d="M1027.9 268.103C1026.91 268.738 1025.6 268.421 1024.96 267.429C1024.33 266.436 1024.64 265.127 1025.64 264.492C1026.63 263.857 1027.94 264.175 1028.57 265.167C1029.21 266.159 1028.89 267.468 1027.9 268.103Z" fill="#2480FE" fill-opacity="0.2"/>
<path d="M1051.63 177.389C1050.67 177.984 1049.44 177.667 1048.89 176.754C1048.29 175.802 1048.61 174.571 1049.52 174.016C1050.48 173.421 1051.71 173.738 1052.26 174.651C1052.86 175.603 1052.54 176.833 1051.63 177.389Z" fill="#2480FE" fill-opacity="0.2"/>
<path d="M1071.23 87.8651C1070.36 88.381 1069.25 88.1429 1068.69 87.2699C1068.17 86.3968 1068.41 85.2857 1069.28 84.7302C1070.16 84.2143 1071.27 84.4524 1071.82 85.3254C1072.34 86.1984 1072.06 87.3492 1071.23 87.8651Z" fill="#2480FE" fill-opacity="0.2"/>
<path d="M1086.39 1.87304C1085.63 2.34923 1084.6 2.11112 1084.13 1.35715C1083.65 0.60318 1083.89 -0.428565 1084.64 -0.904755C1085.4 -1.38095 1086.43 -1.14283 1086.9 -0.388863C1087.42 0.365106 1087.18 1.39685 1086.39 1.87304Z" fill="#2480FE" fill-opacity="0.2"/>
<path d="M960.238 524.452C958.928 525.286 957.222 524.849 956.388 523.54C955.555 522.23 955.991 520.524 957.301 519.69C958.61 518.857 960.317 519.294 961.15 520.603C961.944 521.913 961.547 523.659 960.238 524.452Z" fill="#2480FE" fill-opacity="0.2"/>
<path d="M994.008 439.214C992.738 440.008 991.111 439.611 990.318 438.341C989.524 437.071 989.921 435.444 991.191 434.651C992.461 433.857 994.087 434.254 994.881 435.524C995.675 436.794 995.278 438.46 994.008 439.214Z" fill="#2480FE" fill-opacity="0.2"/>
<path d="M1026.55 349.214C1025.4 349.929 1023.93 349.571 1023.21 348.421C1022.5 347.27 1022.86 345.802 1024.01 345.087C1025.16 344.373 1026.63 344.73 1027.34 345.881C1028.02 347.032 1027.66 348.5 1026.55 349.214Z" fill="#2480FE" fill-opacity="0.2"/>
<path d="M1056.11 256.556C1055.08 257.19 1053.69 256.873 1053.06 255.841C1052.42 254.809 1052.74 253.421 1053.77 252.786C1054.8 252.151 1056.19 252.468 1056.83 253.5C1057.46 254.532 1057.14 255.881 1056.11 256.556Z" fill="#2480FE" fill-opacity="0.2"/>
<path d="M1081.51 163.421C1080.56 164.016 1079.33 163.698 1078.77 162.786C1078.21 161.873 1078.49 160.603 1079.4 160.048C1080.36 159.452 1081.59 159.77 1082.14 160.682C1082.74 161.595 1082.42 162.865 1081.51 163.421Z" fill="#2480FE" fill-opacity="0.2"/>
<path d="M1102.14 72.2302C1101.27 72.7461 1100.16 72.508 1099.6 71.6349C1099.09 70.7619 1099.33 69.6508 1100.2 69.0953C1101.07 68.5794 1102.18 68.8175 1102.74 69.6905C1103.29 70.5635 1103.02 71.6746 1102.14 72.2302Z" fill="#2480FE" fill-opacity="0.2"/>
<path d="M983.491 515.762C982.182 516.595 980.475 516.159 979.642 514.849C978.809 513.54 979.245 511.794 980.555 511C981.864 510.167 983.571 510.603 984.404 511.913C985.198 513.222 984.801 514.929 983.491 515.762Z" fill="#2480FE" fill-opacity="0.2"/>
<path d="M1020.95 427.032C1019.68 427.825 1018.01 427.429 1017.26 426.159C1016.47 424.889 1016.86 423.222 1018.13 422.468C1019.4 421.675 1021.07 422.071 1021.82 423.341C1022.62 424.571 1022.22 426.238 1020.95 427.032Z" fill="#2480FE" fill-opacity="0.2"/>
<path d="M1055.95 334.254C1054.8 334.968 1053.29 334.611 1052.54 333.46C1051.83 332.309 1052.18 330.802 1053.33 330.048C1054.48 329.333 1055.99 329.69 1056.75 330.841C1057.46 332.032 1057.1 333.54 1055.95 334.254Z" fill="#2480FE" fill-opacity="0.2"/>
<path d="M1087.02 239.571C1085.99 240.206 1084.6 239.889 1083.97 238.857C1083.33 237.825 1083.65 236.436 1084.68 235.802C1085.71 235.167 1087.1 235.484 1087.74 236.516C1088.37 237.587 1088.05 238.937 1087.02 239.571Z" fill="#2480FE" fill-opacity="0.2"/>
<path d="M1113.29 145.246C1112.34 145.841 1111.07 145.563 1110.48 144.571C1109.88 143.619 1110.16 142.349 1111.11 141.754C1112.06 141.159 1113.33 141.436 1113.93 142.429C1114.52 143.421 1114.25 144.651 1113.29 145.246Z" fill="#2480FE" fill-opacity="0.2"/>
<path d="M1134.37 53.381C1133.49 53.9365 1132.3 53.6587 1131.75 52.7857C1131.19 51.9127 1131.47 50.7222 1132.34 50.1667C1133.21 49.6111 1134.41 49.8889 1134.96 50.7619C1135.56 51.6746 1135.28 52.8254 1134.37 53.381Z" fill="#2480FE" fill-opacity="0.2"/>
<path d="M1012.58 499.889C1011.23 500.722 1009.48 500.325 1008.65 498.976C1007.82 497.627 1008.22 495.881 1009.56 495.048C1010.91 494.214 1012.66 494.611 1013.49 495.96C1014.33 497.31 1013.89 499.056 1012.58 499.889Z" fill="#2480FE" fill-opacity="0.2"/>
<path d="M1052.26 408.659C1050.99 409.452 1049.33 409.056 1048.57 407.786C1047.78 406.516 1048.17 404.849 1049.44 404.095C1050.71 403.302 1052.38 403.698 1053.14 404.968C1053.93 406.198 1053.53 407.865 1052.26 408.659Z" fill="#2480FE" fill-opacity="0.2"/>
<path d="M1088.61 314.214C1087.42 314.968 1085.83 314.571 1085.12 313.381C1084.36 312.19 1084.76 310.603 1085.95 309.889C1087.14 309.135 1088.73 309.532 1089.44 310.722C1090.16 311.913 1089.8 313.5 1088.61 314.214Z" fill="#2480FE" fill-opacity="0.2"/>
<path d="M1120.16 218.5C1119.13 219.135 1117.74 218.817 1117.1 217.786C1116.47 216.754 1116.79 215.365 1117.82 214.73C1118.85 214.095 1120.24 214.413 1120.87 215.444C1121.51 216.516 1121.19 217.865 1120.16 218.5Z" fill="#2480FE" fill-opacity="0.2"/>
<path d="M1146.55 123.937C1145.56 124.532 1144.25 124.254 1143.65 123.262C1143.06 122.27 1143.33 120.96 1144.33 120.365C1145.32 119.77 1146.63 120.048 1147.22 121.04C1147.82 121.992 1147.54 123.302 1146.55 123.937Z" fill="#2480FE" fill-opacity="0.2"/>
<path d="M1167.46 32.1111C1166.59 32.6667 1165.4 32.3889 1164.84 31.5159C1164.29 30.6429 1164.56 29.4524 1165.44 28.8968C1166.31 28.3413 1167.5 28.6191 1168.06 29.4921C1168.65 30.3651 1168.37 31.5556 1167.46 32.1111Z" fill="#2480FE" fill-opacity="0.2"/>
<path d="M1046.51 478.302C1045.12 479.175 1043.29 478.738 1042.42 477.349C1041.55 475.96 1041.98 474.135 1043.37 473.262C1044.76 472.389 1046.59 472.825 1047.46 474.214C1048.33 475.603 1047.9 477.429 1046.51 478.302Z" fill="#2480FE" fill-opacity="0.2"/>
<path d="M1087.18 385.365C1085.91 386.159 1084.21 385.762 1083.41 384.492C1082.62 383.222 1083.02 381.516 1084.29 380.722C1085.56 379.929 1087.26 380.325 1088.06 381.595C1088.89 382.905 1088.49 384.571 1087.18 385.365Z" fill="#2480FE" fill-opacity="0.2"/>
<path d="M1123.69 290.087C1122.5 290.841 1120.91 290.444 1120.2 289.254C1119.44 288.063 1119.84 286.476 1121.03 285.762C1122.22 285.008 1123.81 285.405 1124.52 286.595C1125.28 287.786 1124.92 289.333 1123.69 290.087Z" fill="#2480FE" fill-opacity="0.2"/>
<path d="M1154.96 194.254C1153.93 194.889 1152.54 194.571 1151.91 193.54C1151.27 192.508 1151.59 191.119 1152.62 190.484C1153.65 189.849 1155.04 190.167 1155.67 191.198C1156.35 192.27 1156.03 193.619 1154.96 194.254Z" fill="#2480FE" fill-opacity="0.2"/>
<path d="M1180.83 100.127C1179.84 100.722 1178.53 100.444 1177.94 99.4524C1177.34 98.4603 1177.62 97.1508 1178.61 96.5555C1179.6 95.9603 1180.91 96.2381 1181.51 97.2302C1182.14 98.2222 1181.82 99.4921 1180.83 100.127Z" fill="#2480FE" fill-opacity="0.2"/>
<path d="M1201.27 9.01588C1200.4 9.57144 1199.21 9.29365 1198.65 8.42064C1198.1 7.54762 1198.37 6.35716 1199.25 5.8016C1200.12 5.24605 1201.31 5.52383 1201.86 6.39685C1202.42 7.26986 1202.14 8.46033 1201.27 9.01588Z" fill="#2480FE" fill-opacity="0.2"/>
<path d="M1084.25 451.873C1082.86 452.746 1081.03 452.309 1080.16 450.921C1079.28 449.532 1079.72 447.706 1081.11 446.833C1082.5 445.96 1084.32 446.397 1085.2 447.786C1086.07 449.175 1085.63 451 1084.25 451.873Z" fill="#2480FE" fill-opacity="0.2"/>
<path d="M1124.88 358.103C1123.61 358.897 1121.9 358.5 1121.11 357.23C1120.32 355.96 1120.71 354.254 1121.98 353.46C1123.25 352.667 1124.96 353.063 1125.75 354.333C1126.55 355.643 1126.15 357.309 1124.88 358.103Z" fill="#2480FE" fill-opacity="0.2"/>
<path d="M1160.71 262.786C1159.52 263.54 1157.94 263.183 1157.18 261.952C1156.43 260.762 1156.79 259.175 1158.02 258.421C1159.21 257.667 1160.79 258.024 1161.55 259.254C1162.3 260.444 1161.94 262.032 1160.71 262.786Z" fill="#2480FE" fill-opacity="0.2"/>
<path d="M1191.15 167.667C1190.04 168.341 1188.61 168.024 1187.9 166.913C1187.22 165.802 1187.54 164.373 1188.65 163.659C1189.76 162.984 1191.19 163.302 1191.91 164.413C1192.58 165.524 1192.22 166.952 1191.15 167.667Z" fill="#2480FE" fill-opacity="0.2"/>
<path d="M1215.95 74.4127C1214.96 75.008 1213.65 74.7302 1213.06 73.7381C1212.46 72.746 1212.74 71.4365 1213.73 70.8413C1214.72 70.2461 1216.03 70.5238 1216.63 71.5159C1217.26 72.5079 1216.94 73.8175 1215.95 74.4127Z" fill="#2480FE" fill-opacity="0.2"/>
<path d="M1081.23 512.865C1079.76 513.778 1077.82 513.341 1076.9 511.873C1075.99 510.405 1076.43 508.46 1077.9 507.548C1079.36 506.635 1081.31 507.071 1082.22 508.54C1083.13 510.008 1082.7 511.952 1081.23 512.865Z" fill="#2480FE" fill-opacity="0.2"/>
<path d="M1125.04 421.595C1123.65 422.468 1121.83 422.032 1120.95 420.643C1120.08 419.254 1120.52 417.429 1121.91 416.556C1123.29 415.683 1125.12 416.119 1125.99 417.508C1126.87 418.936 1126.43 420.762 1125.04 421.595Z" fill="#2480FE" fill-opacity="0.2"/>
<path d="M1164.72 327.746C1163.41 328.579 1161.67 328.143 1160.83 326.833C1160 325.524 1160.44 323.778 1161.75 322.944C1163.06 322.111 1164.8 322.548 1165.64 323.857C1166.43 325.167 1166.03 326.913 1164.72 327.746Z" fill="#2480FE" fill-opacity="0.2"/>
<path d="M1199.21 232.905C1198.02 233.659 1196.43 233.302 1195.67 232.071C1194.92 230.881 1195.28 229.294 1196.51 228.54C1197.7 227.786 1199.29 228.143 1200.04 229.373C1200.75 230.563 1200.4 232.151 1199.21 232.905Z" fill="#2480FE" fill-opacity="0.2"/>
<path d="M1228.17 138.897C1227.06 139.571 1225.63 139.254 1224.92 138.143C1224.25 137.032 1224.56 135.603 1225.67 134.889C1226.79 134.214 1228.21 134.532 1228.93 135.643C1229.64 136.754 1229.29 138.222 1228.17 138.897Z" fill="#2480FE" fill-opacity="0.2"/>
<path d="M1251.75 47.1111C1250.75 47.7064 1249.45 47.4286 1248.85 46.4365C1248.25 45.4445 1248.53 44.135 1249.52 43.5397C1250.52 42.9445 1251.83 43.2222 1252.42 44.2143C1253.06 45.2064 1252.74 46.4762 1251.75 47.1111Z" fill="#2480FE" fill-opacity="0.2"/>
<path d="M1123.81 480.405C1125.61 480.405 1127.06 478.948 1127.06 477.151C1127.06 475.354 1125.61 473.897 1123.81 473.897C1122.01 473.897 1120.55 475.354 1120.55 477.151C1120.55 478.948 1122.01 480.405 1123.81 480.405Z" fill="#2480FE" fill-opacity="0.2"/>
<path d="M1168.06 388.143C1166.67 389.016 1164.84 388.579 1163.97 387.191C1163.1 385.802 1163.53 383.976 1164.92 383.103C1166.31 382.23 1168.13 382.667 1169.01 384.056C1169.88 385.444 1169.44 387.27 1168.06 388.143Z" fill="#2480FE" fill-opacity="0.2"/>
<path d="M1206.07 294.651C1204.76 295.484 1203.02 295.048 1202.18 293.738C1201.35 292.429 1201.79 290.683 1203.1 289.849C1204.41 289.016 1206.15 289.452 1206.98 290.762C1207.82 292.071 1207.42 293.817 1206.07 294.651Z" fill="#2480FE" fill-opacity="0.2"/>
<path d="M1238.85 200.96C1237.58 201.754 1235.91 201.357 1235.12 200.087C1234.32 198.817 1234.72 197.151 1235.99 196.357C1237.26 195.563 1238.93 195.96 1239.72 197.23C1240.48 198.5 1240.12 200.167 1238.85 200.96Z" fill="#2480FE" fill-opacity="0.2"/>
<path d="M1266.03 108.302C1264.92 108.976 1263.49 108.659 1262.78 107.548C1262.1 106.437 1262.42 105.008 1263.53 104.294C1264.64 103.619 1266.07 103.937 1266.79 105.048C1267.5 106.198 1267.14 107.627 1266.03 108.302Z" fill="#2480FE" fill-opacity="0.2"/>
<path d="M1288.21 18.2222C1287.18 18.8571 1285.83 18.5397 1285.2 17.5079C1284.56 16.4762 1284.88 15.127 1285.91 14.4921C1286.94 13.8572 1288.29 14.1746 1288.93 15.2063C1289.56 16.2381 1289.25 17.5873 1288.21 18.2222Z" fill="#2480FE" fill-opacity="0.2"/>
<path d="M1172.1 443.698C1170.6 444.651 1168.57 444.175 1167.62 442.667C1166.67 441.159 1167.14 439.135 1168.65 438.183C1170.16 437.23 1172.18 437.706 1173.13 439.214C1174.09 440.722 1173.61 442.786 1172.1 443.698Z" fill="#2480FE" fill-opacity="0.2"/>
<path d="M1212.82 352.071C1211.35 352.984 1209.44 352.548 1208.53 351.079C1207.62 349.611 1208.05 347.706 1209.52 346.794C1210.99 345.881 1212.9 346.317 1213.81 347.786C1214.72 349.254 1214.28 351.198 1212.82 352.071Z" fill="#2480FE" fill-opacity="0.2"/>
<path d="M1248.65 259.254C1247.34 260.087 1245.59 259.651 1244.76 258.341C1243.93 257.032 1244.36 255.286 1245.67 254.452C1246.98 253.619 1248.73 254.056 1249.56 255.365C1250.4 256.675 1249.96 258.421 1248.65 259.254Z" fill="#2480FE" fill-opacity="0.2"/>
<path d="M1279.29 166.873C1278.02 167.667 1276.35 167.27 1275.56 166C1274.76 164.73 1275.16 163.063 1276.43 162.27C1277.7 161.476 1279.37 161.873 1280.16 163.143C1280.95 164.413 1280.56 166.079 1279.29 166.873Z" fill="#2480FE" fill-opacity="0.2"/>
<path d="M1304.68 75.9603C1303.53 76.6746 1302.02 76.3175 1301.35 75.1667C1300.63 74.0159 1300.99 72.5079 1302.14 71.8333C1303.29 71.1191 1304.8 71.4762 1305.48 72.627C1306.15 73.7381 1305.83 75.246 1304.68 75.9603Z" fill="#2480FE" fill-opacity="0.2"/>
<path d="M1177.7 494.214C1176.03 495.246 1173.81 494.73 1172.78 493.063C1171.75 491.397 1172.26 489.175 1173.93 488.143C1175.6 487.111 1177.82 487.627 1178.85 489.294C1179.88 490.96 1179.36 493.182 1177.7 494.214Z" fill="#2480FE" fill-opacity="0.2"/>
<path d="M1220.32 404.73C1218.81 405.683 1216.79 405.206 1215.83 403.698C1214.88 402.19 1215.36 400.167 1216.87 399.214C1218.37 398.262 1220.4 398.738 1221.35 400.246C1222.3 401.794 1221.83 403.778 1220.32 404.73Z" fill="#2480FE" fill-opacity="0.2"/>
<path d="M1258.73 313.5C1257.26 314.413 1255.36 313.976 1254.44 312.508C1253.53 311.04 1253.97 309.135 1255.44 308.222C1256.91 307.309 1258.81 307.746 1259.72 309.214C1260.64 310.682 1260.2 312.587 1258.73 313.5Z" fill="#2480FE" fill-opacity="0.2"/>
<path d="M1292.18 221.754C1290.79 222.587 1289.01 222.19 1288.18 220.802C1287.34 219.413 1287.74 217.627 1289.13 216.794C1290.52 215.96 1292.3 216.357 1293.14 217.746C1293.97 219.095 1293.57 220.921 1292.18 221.754Z" fill="#2480FE" fill-opacity="0.2"/>
<path d="M1320.56 130.762C1319.29 131.556 1317.62 131.159 1316.83 129.889C1316.03 128.619 1316.43 126.952 1317.7 126.159C1318.97 125.365 1320.63 125.762 1321.43 127.032C1322.18 128.302 1321.79 129.968 1320.56 130.762Z" fill="#2480FE" fill-opacity="0.2"/>
<path d="M1344.05 41.3968C1342.9 42.1111 1341.39 41.754 1340.71 40.6032C1340 39.4524 1340.36 37.9444 1341.51 37.2698C1342.66 36.5556 1344.17 36.9127 1344.84 38.0635C1345.52 39.1746 1345.16 40.6825 1344.05 41.3968Z" fill="#2480FE" fill-opacity="0.2"/>
<path d="M1229.44 452.825C1227.78 453.857 1225.56 453.341 1224.52 451.675C1223.49 450.008 1224.01 447.786 1225.67 446.754C1227.34 445.722 1229.56 446.238 1230.6 447.905C1231.67 449.571 1231.15 451.794 1229.44 452.825Z" fill="#2480FE" fill-opacity="0.2"/>
<path d="M1269.68 363.262C1268.18 364.214 1266.15 363.738 1265.2 362.23C1264.25 360.722 1264.72 358.698 1266.23 357.746C1267.74 356.794 1269.76 357.27 1270.71 358.778C1271.67 360.286 1271.19 362.349 1269.68 363.262Z" fill="#2480FE" fill-opacity="0.2"/>
<path d="M1305.52 272.627C1304.05 273.54 1302.14 273.103 1301.23 271.635C1300.32 270.167 1300.75 268.262 1302.22 267.349C1303.69 266.436 1305.6 266.873 1306.51 268.341C1307.42 269.849 1306.94 271.754 1305.52 272.627Z" fill="#2480FE" fill-opacity="0.2"/>
<path d="M1336.47 181.992C1335.08 182.825 1333.29 182.429 1332.46 181.04C1331.63 179.651 1332.02 177.865 1333.41 177.032C1334.8 176.198 1336.59 176.595 1337.42 177.984C1338.25 179.333 1337.82 181.159 1336.47 181.992Z" fill="#2480FE" fill-opacity="0.2"/>
<path d="M1362.58 92.3095C1361.31 93.1032 1359.64 92.7064 1358.85 91.4365C1358.06 90.1667 1358.45 88.5 1359.72 87.7063C1360.99 86.9127 1362.66 87.3095 1363.45 88.5794C1364.25 89.8889 1363.85 91.5555 1362.58 92.3095Z" fill="#2480FE" fill-opacity="0.2"/>
<path d="M1384.29 4.17462C1383.13 4.8889 1381.63 4.53177 1380.95 3.38098C1380.24 2.23019 1380.59 0.722234 1381.75 0.0476307C1382.9 -0.666655 1384.4 -0.309494 1385.08 0.8413C1385.75 1.95241 1385.44 3.46033 1384.29 4.17462Z" fill="#2480FE" fill-opacity="0.2"/>
<path d="M1240.63 496.278C1238.89 497.349 1236.59 496.833 1235.52 495.087C1234.44 493.341 1234.96 491.04 1236.71 489.968C1238.45 488.897 1240.75 489.413 1241.83 491.159C1242.94 492.905 1242.38 495.167 1240.63 496.278Z" fill="#2480FE" fill-opacity="0.2"/>
<path d="M1282.26 408.897C1280.59 409.929 1278.37 409.413 1277.34 407.746C1276.31 406.079 1276.82 403.857 1278.49 402.825C1280.16 401.794 1282.38 402.309 1283.41 403.976C1284.44 405.682 1283.93 407.865 1282.26 408.897Z" fill="#2480FE" fill-opacity="0.2"/>
<path d="M1319.84 319.452C1318.33 320.405 1316.31 319.929 1315.36 318.421C1314.4 316.913 1314.88 314.889 1316.39 313.937C1317.9 312.984 1319.92 313.46 1320.87 314.968C1321.83 316.476 1321.35 318.5 1319.84 319.452Z" fill="#2480FE" fill-opacity="0.2"/>
<path d="M1353.02 229.492C1351.55 230.405 1349.64 229.968 1348.73 228.5C1347.82 227.032 1348.25 225.127 1349.72 224.214C1351.19 223.302 1353.1 223.738 1354.01 225.206C1354.92 226.635 1354.48 228.579 1353.02 229.492Z" fill="#2480FE" fill-opacity="0.2"/>
<path d="M1381.51 139.81C1380.12 140.683 1378.25 140.246 1377.38 138.857C1376.51 137.468 1376.94 135.603 1378.33 134.73C1379.72 133.857 1381.59 134.294 1382.46 135.683C1383.37 137.111 1382.94 138.937 1381.51 139.81Z" fill="#2480FE" fill-opacity="0.2"/>
<path d="M1405.59 51.1191C1404.29 51.9524 1402.54 51.5159 1401.75 50.2064C1400.91 48.8969 1401.35 47.1508 1402.66 46.3572C1403.97 45.5238 1405.71 45.9603 1406.51 47.2699C1407.3 48.5397 1406.9 50.2857 1405.59 51.1191Z" fill="#2480FE" fill-opacity="0.2"/>
<path d="M1296.63 450.405C1294.88 451.476 1292.58 450.96 1291.51 449.214C1290.44 447.468 1290.95 445.167 1292.7 444.095C1294.44 443.024 1296.75 443.54 1297.82 445.286C1298.89 447.032 1298.37 449.294 1296.63 450.405Z" fill="#2480FE" fill-opacity="0.2"/>
<path d="M1335.64 362.587C1333.97 363.619 1331.75 363.103 1330.72 361.436C1329.68 359.77 1330.2 357.548 1331.87 356.516C1333.53 355.484 1335.75 356 1336.79 357.667C1337.82 359.373 1337.3 361.556 1335.64 362.587Z" fill="#2480FE" fill-opacity="0.2"/>
<path d="M1370.6 273.421C1369.01 274.413 1366.87 273.937 1365.87 272.31C1364.88 270.722 1365.36 268.579 1366.98 267.587C1368.57 266.595 1370.71 267.071 1371.71 268.698C1372.7 270.325 1372.22 272.429 1370.6 273.421Z" fill="#2480FE" fill-opacity="0.2"/>
<path d="M1401.15 183.817C1399.64 184.77 1397.66 184.294 1396.71 182.786C1395.75 181.278 1396.23 179.294 1397.74 178.341C1399.25 177.389 1401.23 177.865 1402.18 179.373C1403.14 180.881 1402.66 182.865 1401.15 183.817Z" fill="#2480FE" fill-opacity="0.2"/>
<path d="M1427.34 94.5714C1425.95 95.4445 1424.09 95.008 1423.21 93.6191C1422.34 92.2302 1422.78 90.3651 1424.17 89.4921C1425.56 88.6191 1427.42 89.0556 1428.29 90.4445C1429.17 91.873 1428.77 93.6984 1427.34 94.5714Z" fill="#2480FE" fill-opacity="0.2"/>
<path d="M1449.52 6.11906C1448.22 6.95239 1446.47 6.51587 1445.68 5.20635C1444.84 3.89683 1445.28 2.15079 1446.59 1.35714C1447.9 0.523805 1449.64 0.960326 1450.44 2.26985C1451.27 3.57937 1450.83 5.32541 1449.52 6.11906Z" fill="#2480FE" fill-opacity="0.2"/>
<path d="M1313.1 488.46C1311.19 489.651 1308.69 489.056 1307.5 487.151C1306.31 485.246 1306.91 482.746 1308.81 481.556C1310.72 480.365 1313.22 480.96 1314.41 482.865C1315.6 484.77 1315 487.27 1313.1 488.46Z" fill="#2480FE" fill-opacity="0.2"/>
<path d="M1353.02 402.23C1351.23 403.341 1348.85 402.786 1347.74 401C1346.63 399.214 1347.18 396.833 1348.97 395.722C1350.75 394.611 1353.14 395.167 1354.25 396.952C1355.36 398.738 1354.8 401.119 1353.02 402.23Z" fill="#2480FE" fill-opacity="0.2"/>
<path d="M1389.4 313.976C1387.66 315.048 1385.4 314.532 1384.32 312.786C1383.25 311.04 1383.77 308.778 1385.52 307.706C1387.26 306.635 1389.52 307.151 1390.59 308.897C1391.67 310.643 1391.15 312.905 1389.4 313.976Z" fill="#2480FE" fill-opacity="0.2"/>
<path d="M1421.71 224.611C1420.12 225.603 1417.98 225.127 1416.98 223.5C1415.99 221.913 1416.47 219.77 1418.1 218.778C1419.68 217.786 1421.83 218.262 1422.82 219.889C1423.81 221.516 1423.33 223.619 1421.71 224.611Z" fill="#2480FE" fill-opacity="0.2"/>
<path d="M1449.88 135.048C1448.37 136 1446.39 135.524 1445.44 134.016C1444.48 132.508 1444.96 130.524 1446.47 129.571C1447.98 128.619 1449.96 129.095 1450.91 130.603C1451.87 132.111 1451.39 134.095 1449.88 135.048Z" fill="#2480FE" fill-opacity="0.2"/>
<path d="M1474.09 45.6825C1472.66 46.5952 1470.75 46.119 1469.84 44.6905C1468.93 43.2619 1469.41 41.3571 1470.83 40.4444C1472.26 39.5317 1474.17 40.0079 1475.08 41.4365C1475.99 42.8651 1475.52 44.7698 1474.09 45.6825Z" fill="#2480FE" fill-opacity="0.2"/>
<path d="M1331.51 523.222C1329.52 524.452 1326.94 523.857 1325.71 521.873C1324.48 519.889 1325.08 517.309 1327.06 516.079C1329.05 514.849 1331.63 515.444 1332.86 517.429C1334.09 519.413 1333.49 521.992 1331.51 523.222Z" fill="#2480FE" fill-opacity="0.2"/>
<path d="M1371.94 438.778C1370.04 439.968 1367.54 439.373 1366.35 437.468C1365.16 435.564 1365.75 433.063 1367.66 431.873C1369.56 430.683 1372.06 431.278 1373.25 433.183C1374.4 435.087 1373.85 437.627 1371.94 438.778Z" fill="#2480FE" fill-opacity="0.2"/>
<path d="M1409.44 351.635C1407.62 352.786 1405.2 352.191 1404.09 350.365C1402.94 348.54 1403.53 346.119 1405.36 345.008C1407.18 343.857 1409.6 344.452 1410.71 346.278C1411.83 348.103 1411.27 350.484 1409.44 351.635Z" fill="#2480FE" fill-opacity="0.2"/>
<path d="M1443.29 262.706C1441.55 263.778 1439.29 263.262 1438.22 261.516C1437.14 259.77 1437.66 257.508 1439.41 256.437C1441.15 255.365 1443.41 255.881 1444.49 257.627C1445.56 259.333 1445.04 261.635 1443.29 262.706Z" fill="#2480FE" fill-opacity="0.2"/>
<path d="M1473.21 172.786C1471.63 173.778 1469.48 173.302 1468.49 171.675C1467.5 170.087 1467.98 167.944 1469.6 166.952C1471.19 165.96 1473.33 166.436 1474.33 168.063C1475.28 169.69 1474.8 171.794 1473.21 172.786Z" fill="#2480FE" fill-opacity="0.2"/>
<path d="M1499.25 82.508C1497.74 83.4603 1495.75 82.9841 1494.8 81.4762C1493.85 79.9683 1494.32 77.9841 1495.83 77.0317C1497.34 76.0794 1499.32 76.5556 1500.28 78.0635C1501.23 79.5714 1500.75 81.5556 1499.25 82.508Z" fill="#2480FE" fill-opacity="0.2"/>
<path d="M1392.3 472.786C1390.32 474.016 1387.7 473.421 1386.47 471.436C1385.24 469.452 1385.83 466.833 1387.82 465.603C1389.8 464.373 1392.42 464.968 1393.65 466.952C1394.88 468.976 1394.29 471.556 1392.3 472.786Z" fill="#2480FE" fill-opacity="0.2"/>
<path d="M1430.56 386.833C1428.65 388.024 1426.15 387.429 1424.96 385.524C1423.77 383.619 1424.36 381.119 1426.27 379.929C1428.17 378.738 1430.67 379.333 1431.86 381.238C1433.02 383.143 1432.46 385.643 1430.56 386.833Z" fill="#2480FE" fill-opacity="0.2"/>
<path d="M1465.67 298.5C1463.85 299.651 1461.43 299.056 1460.32 297.23C1459.21 295.405 1459.76 292.984 1461.59 291.873C1463.41 290.722 1465.83 291.317 1466.94 293.143C1468.06 294.968 1467.5 297.349 1465.67 298.5Z" fill="#2480FE" fill-opacity="0.2"/>
<path d="M1495.28 209.056C1497.32 209.056 1498.97 207.403 1498.97 205.365C1498.97 203.327 1497.32 201.675 1495.28 201.675C1493.24 201.675 1491.59 203.327 1491.59 205.365C1491.59 207.403 1493.24 209.056 1495.28 209.056Z" fill="#2480FE" fill-opacity="0.2"/>
<path d="M1525 117.349C1523.41 118.341 1521.27 117.865 1520.28 116.238C1519.29 114.651 1519.76 112.508 1521.39 111.516C1522.98 110.524 1525.12 111 1526.11 112.627C1527.1 114.254 1526.59 116.357 1525 117.349Z" fill="#2480FE" fill-opacity="0.2"/>
<path d="M1549.25 25.3254C1547.7 26.2778 1545.68 25.8016 1544.72 24.254C1543.77 22.7064 1544.25 20.6826 1545.79 19.7302C1547.34 18.7778 1549.37 19.254 1550.32 20.8016C1551.23 22.3492 1550.75 24.373 1549.25 25.3254Z" fill="#2480FE" fill-opacity="0.2"/>
<path d="M1414.01 504.81C1411.9 506.119 1409.17 505.484 1407.86 503.381C1406.55 501.278 1407.18 498.54 1409.29 497.23C1411.39 495.921 1414.13 496.556 1415.44 498.659C1416.75 500.762 1416.11 503.54 1414.01 504.81Z" fill="#2480FE" fill-opacity="0.2"/>
<path d="M1452.58 420.167C1450.59 421.397 1447.98 420.802 1446.75 418.817C1445.51 416.833 1446.11 414.214 1448.09 412.984C1450.08 411.754 1452.7 412.349 1453.93 414.333C1455.2 416.357 1454.56 418.936 1452.58 420.167Z" fill="#2480FE" fill-opacity="0.2"/>
<path d="M1488.69 332.548C1486.79 333.738 1484.29 333.143 1483.09 331.238C1481.9 329.333 1482.5 326.833 1484.4 325.643C1486.31 324.452 1488.81 325.048 1490 326.952C1491.19 328.857 1490.63 331.357 1488.69 332.548Z" fill="#2480FE" fill-opacity="0.2"/>
<path d="M1521.67 242.667C1519.84 243.817 1517.42 243.262 1516.27 241.397C1515.12 239.571 1515.67 237.151 1517.54 236C1519.37 234.849 1521.79 235.405 1522.94 237.27C1524.09 239.095 1523.53 241.516 1521.67 242.667Z" fill="#2480FE" fill-opacity="0.2"/>
<path d="M1551.15 150.96C1549.41 152.071 1547.06 151.516 1545.99 149.77C1544.88 148.024 1545.44 145.683 1547.18 144.611C1548.93 143.5 1551.27 144.056 1552.34 145.802C1553.49 147.548 1552.94 149.849 1551.15 150.96Z" fill="#2480FE" fill-opacity="0.2"/>
<path d="M1577.14 57.508C1575.48 58.5397 1573.33 58.0238 1572.3 56.3572C1571.27 54.6905 1571.79 52.5079 1573.45 51.5159C1575.12 50.4841 1577.3 51 1578.29 52.6667C1579.29 54.2937 1578.77 56.4762 1577.14 57.508Z" fill="#2480FE" fill-opacity="0.2"/>
<path d="M1475.44 452.111C1473.33 453.421 1470.6 452.786 1469.29 450.683C1467.98 448.579 1468.61 445.841 1470.71 444.532C1472.82 443.222 1475.56 443.857 1476.87 445.96C1478.18 448.063 1477.54 450.802 1475.44 452.111Z" fill="#2480FE" fill-opacity="0.2"/>
<path d="M1512.22 365.444C1510.2 366.714 1507.54 366.079 1506.31 364.056C1505.04 362.032 1505.67 359.373 1507.7 358.143C1509.72 356.873 1512.38 357.508 1513.61 359.532C1514.84 361.556 1514.25 364.175 1512.22 365.444Z" fill="#2480FE" fill-opacity="0.2"/>
<path d="M1546.31 275.762C1544.4 276.952 1541.9 276.357 1540.71 274.452C1539.52 272.548 1540.12 270.048 1542.02 268.857C1543.93 267.667 1546.43 268.262 1547.62 270.167C1548.81 272.071 1548.21 274.571 1546.31 275.762Z" fill="#2480FE" fill-opacity="0.2"/>
<path d="M1577.3 183.619C1575.48 184.77 1573.06 184.214 1571.9 182.349C1570.75 180.524 1571.31 178.103 1573.17 176.952C1575 175.802 1577.42 176.357 1578.57 178.222C1579.72 180.087 1579.17 182.508 1577.3 183.619Z" fill="#2480FE" fill-opacity="0.2"/>
<path d="M1605.16 89.0555C1603.33 90.1667 1600.95 89.6111 1599.84 87.8254C1598.73 86 1599.28 83.6191 1601.07 82.5079C1602.9 81.3968 1605.28 81.9524 1606.39 83.7381C1607.54 85.5238 1606.98 87.9047 1605.16 89.0555Z" fill="#2480FE" fill-opacity="0.2"/>
<path d="M1498.81 482.786C1496.63 484.135 1493.77 483.46 1492.46 481.278C1491.11 479.095 1491.79 476.238 1493.93 474.929C1496.11 473.579 1498.97 474.254 1500.28 476.437C1501.67 478.619 1500.99 481.436 1498.81 482.786Z" fill="#2480FE" fill-opacity="0.2"/>
<path d="M1535.95 397.429C1533.85 398.738 1531.11 398.103 1529.8 396C1528.49 393.897 1529.13 391.159 1531.23 389.849C1533.33 388.54 1536.07 389.175 1537.38 391.278C1538.69 393.341 1538.06 396.119 1535.95 397.429Z" fill="#2480FE" fill-opacity="0.2"/>
<path d="M1570.99 308.381C1568.97 309.651 1566.31 309.016 1565.08 306.992C1563.81 304.968 1564.44 302.31 1566.47 301.079C1568.49 299.81 1571.15 300.444 1572.38 302.468C1573.61 304.492 1572.98 307.151 1570.99 308.381Z" fill="#2480FE" fill-opacity="0.2"/>
<path d="M1603.53 216.04C1601.55 217.27 1598.89 216.675 1597.66 214.651C1596.43 212.667 1597.02 210.008 1599.05 208.778C1601.03 207.548 1603.69 208.143 1604.92 210.167C1606.15 212.151 1605.52 214.77 1603.53 216.04Z" fill="#2480FE" fill-opacity="0.2"/>
<path d="M1633.06 120.048C1631.15 121.238 1628.65 120.643 1627.5 118.738C1626.31 116.833 1626.91 114.373 1628.81 113.183C1630.72 111.992 1633.22 112.587 1634.37 114.492C1635.52 116.357 1634.92 118.857 1633.06 120.048Z" fill="#2480FE" fill-opacity="0.2"/>
<path d="M1659.13 21.119C1657.3 22.2302 1654.92 21.6746 1653.81 19.8889C1652.7 18.0635 1653.25 15.6825 1655.04 14.5714C1656.86 13.4603 1659.25 14.0159 1660.36 15.8016C1661.47 17.5873 1660.95 20.0079 1659.13 21.119Z" fill="#2480FE" fill-opacity="0.2"/>
<path d="M1522.74 512.31C1520.56 513.659 1517.7 512.984 1516.39 510.802C1515.04 508.619 1515.71 505.762 1517.9 504.452C1520.08 503.103 1522.94 503.778 1524.25 505.96C1525.55 508.103 1524.88 510.96 1522.74 512.31Z" fill="#2480FE" fill-opacity="0.2"/>
<path d="M1559.84 428.659C1557.66 430.008 1554.8 429.333 1553.49 427.151C1552.14 424.968 1552.82 422.111 1554.96 420.802C1557.14 419.452 1560 420.127 1561.31 422.309C1562.7 424.452 1562.02 427.309 1559.84 428.659Z" fill="#2480FE" fill-opacity="0.2"/>
<path d="M1595.79 340.405C1593.65 341.754 1590.79 341.079 1589.44 338.936C1588.1 336.794 1588.77 333.937 1590.91 332.587C1593.06 331.238 1595.91 331.913 1597.26 334.056C1598.61 336.238 1597.94 339.095 1595.79 340.405Z" fill="#2480FE" fill-opacity="0.2"/>
<path d="M1629.64 247.468C1627.62 248.738 1624.96 248.103 1623.73 246.079C1622.5 244.056 1623.09 241.397 1625.12 240.167C1627.14 238.936 1629.8 239.532 1631.03 241.556C1632.3 243.54 1631.67 246.198 1629.64 247.468Z" fill="#2480FE" fill-opacity="0.2"/>
<path d="M1660.83 150.921C1658.85 152.151 1656.19 151.556 1654.96 149.532C1653.73 147.548 1654.33 144.889 1656.35 143.659C1658.33 142.429 1660.99 143.024 1662.22 145.048C1663.45 147.032 1662.82 149.651 1660.83 150.921Z" fill="#2480FE" fill-opacity="0.2"/>
<path d="M1688.33 50.9206C1686.43 52.1111 1683.97 51.5159 1682.78 49.6111C1681.59 47.7064 1682.18 45.2064 1684.09 44.0556C1685.99 42.8651 1688.49 43.4603 1689.64 45.3651C1690.83 47.2302 1690.24 49.7302 1688.33 50.9206Z" fill="#2480FE" fill-opacity="0.2"/>
<path d="M1584.33 458.54C1582.14 459.889 1579.29 459.214 1577.98 457.032C1576.63 454.849 1577.3 451.992 1579.48 450.683C1581.67 449.333 1584.52 450.008 1585.83 452.19C1587.14 454.333 1586.47 457.19 1584.33 458.54Z" fill="#2480FE" fill-opacity="0.2"/>
<path d="M1621.07 370.841C1618.89 372.19 1616.03 371.516 1614.72 369.333C1613.37 367.151 1614.05 364.294 1616.23 362.984C1618.41 361.635 1621.27 362.31 1622.58 364.492C1623.89 366.675 1623.25 369.492 1621.07 370.841Z" fill="#2480FE" fill-opacity="0.2"/>
<path d="M1656.19 278.262C1654.05 279.611 1651.19 278.936 1649.84 276.794C1648.49 274.651 1649.17 271.794 1651.31 270.444C1653.45 269.095 1656.31 269.77 1657.66 271.913C1659.01 274.056 1658.37 276.913 1656.19 278.262Z" fill="#2480FE" fill-opacity="0.2"/>
<path d="M1688.53 181.357C1686.43 182.667 1683.69 182.032 1682.42 179.929C1681.11 177.825 1681.75 175.087 1683.85 173.817C1685.95 172.508 1688.69 173.143 1689.96 175.246C1691.27 177.31 1690.64 180.048 1688.53 181.357Z" fill="#2480FE" fill-opacity="0.2"/>
<path d="M1717.38 80.9207C1715.4 82.1508 1712.74 81.5556 1711.51 79.5318C1710.28 77.508 1710.87 74.8889 1712.9 73.6588C1714.92 72.4286 1717.54 73.0238 1718.77 75.0476C1720 77.0318 1719.37 79.6508 1717.38 80.9207Z" fill="#2480FE" fill-opacity="0.2"/>
<path d="M1610.4 486.159C1608.22 487.508 1605.36 486.833 1604.05 484.651C1602.7 482.468 1603.37 479.611 1605.56 478.302C1607.74 476.952 1610.6 477.627 1611.91 479.809C1613.25 481.952 1612.58 484.81 1610.4 486.159Z" fill="#2480FE" fill-opacity="0.2"/>
<path d="M1647.42 399.413C1645.24 400.762 1642.38 400.087 1641.07 397.905C1639.72 395.722 1640.4 392.865 1642.58 391.556C1644.76 390.206 1647.62 390.881 1648.93 393.063C1650.28 395.206 1649.6 398.063 1647.42 399.413Z" fill="#2480FE" fill-opacity="0.2"/>
<path d="M1683.21 307.429C1681.03 308.778 1678.17 308.103 1676.86 305.921C1675.52 303.738 1676.19 300.881 1678.37 299.571C1680.56 298.222 1683.41 298.897 1684.72 301.079C1686.07 303.222 1685.4 306.079 1683.21 307.429Z" fill="#2480FE" fill-opacity="0.2"/>
<path d="M1716.55 210.921C1714.37 212.27 1711.51 211.595 1710.2 209.413C1708.85 207.23 1709.52 204.373 1711.71 203.063C1713.89 201.714 1716.75 202.389 1718.06 204.571C1719.37 206.714 1718.69 209.571 1716.55 210.921Z" fill="#2480FE" fill-opacity="0.2"/>
<path d="M1746.31 110.524C1744.21 111.833 1741.47 111.198 1740.2 109.095C1738.89 106.992 1739.52 104.254 1741.63 102.984C1743.73 101.675 1746.47 102.31 1747.74 104.413C1749.05 106.476 1748.41 109.214 1746.31 110.524Z" fill="#2480FE" fill-opacity="0.2"/>
<path d="M1772.06 6.9127C1770.08 8.14286 1767.42 7.54763 1766.19 5.52382C1764.96 3.53969 1765.56 0.880948 1767.58 -0.349211C1769.56 -1.57937 1772.22 -0.984138 1773.45 1.03967C1774.68 3.0238 1774.09 5.68254 1772.06 6.9127Z" fill="#2480FE" fill-opacity="0.2"/>
<path d="M1638.85 510.841C1636.67 512.19 1633.81 511.516 1632.5 509.333C1631.15 507.151 1631.83 504.294 1634.01 502.984C1636.19 501.635 1639.05 502.31 1640.36 504.492C1641.67 506.635 1641.03 509.492 1638.85 510.841Z" fill="#2480FE" fill-opacity="0.2"/>
<path d="M1675.52 425.484C1673.33 426.833 1670.48 426.159 1669.17 423.976C1667.82 421.794 1668.49 418.936 1670.68 417.627C1672.86 416.278 1675.72 416.952 1677.02 419.135C1678.33 421.278 1677.66 424.135 1675.52 425.484Z" fill="#2480FE" fill-opacity="0.2"/>
<path d="M1711.43 334.492C1709.25 335.841 1706.39 335.167 1705.08 333.024C1703.73 330.841 1704.41 327.984 1706.59 326.675C1708.77 325.325 1711.63 326 1712.94 328.143C1714.25 330.286 1713.57 333.143 1711.43 334.492Z" fill="#2480FE" fill-opacity="0.2"/>
<path d="M1745.12 238.738C1742.94 240.087 1740.08 239.413 1738.77 237.23C1737.42 235.048 1738.09 232.19 1740.28 230.881C1742.46 229.532 1745.32 230.206 1746.63 232.389C1747.98 234.532 1747.3 237.389 1745.12 238.738Z" fill="#2480FE" fill-opacity="0.2"/>
<path d="M1775.63 139.016C1773.45 140.365 1770.59 139.69 1769.28 137.508C1767.94 135.325 1768.61 132.468 1770.79 131.159C1772.98 129.809 1775.83 130.484 1777.14 132.667C1778.49 134.809 1777.82 137.667 1775.63 139.016Z" fill="#2480FE" fill-opacity="0.2"/>
<path d="M1802.1 35.8413C1800 37.1508 1797.26 36.5159 1795.99 34.4127C1794.68 32.3095 1795.32 29.5714 1797.42 28.3016C1799.52 26.9921 1802.26 27.627 1803.53 29.7302C1804.84 31.8333 1804.17 34.5714 1802.1 35.8413Z" fill="#2480FE" fill-opacity="0.2"/>
<path d="M1669.44 532.905C1667.26 534.254 1664.4 533.579 1663.1 531.436C1661.75 529.254 1662.42 526.397 1664.6 525.087C1666.79 523.738 1669.64 524.413 1670.95 526.556C1672.26 528.738 1671.59 531.556 1669.44 532.905Z" fill="#2480FE" fill-opacity="0.2"/>
<path d="M1705.91 448.302C1703.73 449.651 1700.87 448.976 1699.56 446.794C1698.22 444.611 1698.89 441.754 1701.07 440.444C1703.25 439.095 1706.11 439.77 1707.42 441.952C1708.73 444.135 1708.1 446.992 1705.91 448.302Z" fill="#2480FE" fill-opacity="0.2"/>
<path d="M1741.35 358.738C1739.17 360.087 1736.31 359.413 1735 357.23C1733.65 355.048 1734.33 352.19 1736.51 350.881C1738.69 349.532 1741.55 350.206 1742.86 352.389C1744.17 354.571 1743.49 357.389 1741.35 358.738Z" fill="#2480FE" fill-opacity="0.2"/>
<path d="M1775 264.135C1772.82 265.484 1769.96 264.81 1768.65 262.627C1767.3 260.444 1767.98 257.587 1770.16 256.278C1772.34 254.929 1775.2 255.603 1776.51 257.786C1777.82 259.968 1777.14 262.786 1775 264.135Z" fill="#2480FE" fill-opacity="0.2"/>
<path d="M1805.68 165.405C1803.49 166.754 1800.64 166.079 1799.33 163.897C1797.98 161.714 1798.65 158.857 1800.83 157.548C1803.02 156.238 1805.87 156.873 1807.18 159.056C1808.53 161.198 1807.86 164.056 1805.68 165.405Z" fill="#2480FE" fill-opacity="0.2"/>
<path d="M1832.58 63.2619C1830.4 64.6111 1827.54 63.9365 1826.23 61.754C1824.88 59.5715 1825.56 56.7143 1827.7 55.4048C1829.88 54.0556 1832.74 54.7302 1834.05 56.9127C1835.4 59.0953 1834.76 61.9127 1832.58 63.2619Z" fill="#2480FE" fill-opacity="0.2"/>
<path d="M1738.37 468.46C1736.19 469.809 1733.33 469.135 1732.02 466.952C1730.67 464.77 1731.35 461.913 1733.53 460.603C1735.71 459.254 1738.57 459.929 1739.88 462.111C1741.19 464.294 1740.52 467.111 1738.37 468.46Z" fill="#2480FE" fill-opacity="0.2"/>
<path d="M1773.53 379.571C1771.35 380.921 1768.49 380.246 1767.18 378.063C1765.83 375.881 1766.51 373.024 1768.69 371.714C1770.87 370.365 1773.73 371.04 1775.04 373.222C1776.39 375.365 1775.72 378.222 1773.53 379.571Z" fill="#2480FE" fill-opacity="0.2"/>
<path d="M1806.59 286.437C1804.4 287.786 1801.55 287.111 1800.24 284.968C1798.89 282.786 1799.56 279.929 1801.75 278.619C1803.93 277.27 1806.79 277.944 1808.1 280.087C1809.44 282.23 1808.77 285.087 1806.59 286.437Z" fill="#2480FE" fill-opacity="0.2"/>
<path d="M1837.02 188.976C1834.84 190.325 1831.99 189.651 1830.68 187.468C1829.33 185.286 1830 182.429 1832.18 181.119C1834.37 179.77 1837.22 180.444 1838.53 182.627C1839.84 184.77 1839.17 187.627 1837.02 188.976Z" fill="#2480FE" fill-opacity="0.2"/>
<path d="M1863.85 88.1032C1861.67 89.4524 1858.81 88.7778 1857.5 86.5953C1856.15 84.4127 1856.83 81.5556 1859.01 80.2461C1861.19 78.8969 1864.05 79.5715 1865.36 81.754C1866.71 83.8969 1866.03 86.754 1863.85 88.1032Z" fill="#2480FE" fill-opacity="0.2"/>
<path d="M1770.52 489.016C1768.33 490.365 1765.48 489.69 1764.17 487.508C1762.82 485.325 1763.49 482.468 1765.64 481.159C1767.82 479.809 1770.68 480.484 1771.98 482.667C1773.33 484.809 1772.7 487.667 1770.52 489.016Z" fill="#2480FE" fill-opacity="0.2"/>
<path d="M1807.58 397.667C1805.4 399.016 1802.54 398.341 1801.23 396.159C1799.88 393.976 1800.56 391.119 1802.74 389.81C1804.92 388.46 1807.78 389.135 1809.09 391.317C1810.4 393.46 1809.76 396.317 1807.58 397.667Z" fill="#2480FE" fill-opacity="0.2"/>
<path d="M1840.32 305.008C1838.14 306.357 1835.28 305.682 1833.97 303.5C1832.62 301.317 1833.29 298.46 1835.48 297.151C1837.66 295.802 1840.52 296.476 1841.83 298.659C1843.17 300.802 1842.5 303.659 1840.32 305.008Z" fill="#2480FE" fill-opacity="0.2"/>
<path d="M1870.04 209.056C1867.86 210.405 1865 209.73 1863.69 207.548C1862.34 205.365 1863.02 202.508 1865.2 201.198C1867.38 199.849 1870.24 200.524 1871.55 202.706C1872.86 204.889 1872.22 207.706 1870.04 209.056Z" fill="#2480FE" fill-opacity="0.2"/>
<path d="M1896.47 109.651C1894.29 111 1891.43 110.325 1890.12 108.143C1888.77 105.96 1889.44 103.103 1891.63 101.794C1893.81 100.444 1896.67 101.119 1897.98 103.302C1899.29 105.444 1898.61 108.302 1896.47 109.651Z" fill="#2480FE" fill-opacity="0.2"/>
<path d="M1918.89 7.66668C1916.71 9.01589 1913.85 8.34127 1912.54 6.15873C1911.19 3.97619 1911.87 1.11905 1914.01 -0.190474C1916.19 -1.53968 1919.05 -0.865066 1920.36 1.27779C1921.71 3.50001 1921.03 6.35716 1918.89 7.66668Z" fill="#2480FE" fill-opacity="0.2"/>
<path d="M1802.26 510.048C1800.08 511.397 1797.22 510.722 1795.91 508.54C1794.56 506.357 1795.24 503.5 1797.42 502.19C1799.6 500.841 1802.46 501.516 1803.77 503.698C1805.12 505.841 1804.44 508.698 1802.26 510.048Z" fill="#2480FE" fill-opacity="0.2"/>
<path d="M1840.99 416.635C1838.81 417.984 1835.95 417.309 1834.64 415.127C1833.29 412.944 1833.97 410.087 1836.15 408.778C1838.33 407.429 1841.19 408.103 1842.5 410.286C1843.85 412.429 1843.17 415.286 1840.99 416.635Z" fill="#2480FE" fill-opacity="0.2"/>
<path d="M1875.6 320.96C1873.41 322.309 1870.56 321.635 1869.25 319.452C1867.9 317.27 1868.57 314.413 1870.75 313.103C1872.94 311.794 1875.79 312.429 1877.1 314.611C1878.41 316.794 1877.78 319.611 1875.6 320.96Z" fill="#2480FE" fill-opacity="0.2"/>
<path d="M1904.96 225.286C1902.78 226.635 1899.92 225.96 1898.61 223.778C1897.26 221.595 1897.94 218.738 1900.12 217.429C1902.3 216.079 1905.16 216.754 1906.47 218.936C1907.82 221.119 1907.14 223.936 1904.96 225.286Z" fill="#2480FE" fill-opacity="0.2"/>
<path d="M1833.53 531.635C1831.35 532.984 1828.49 532.31 1827.18 530.127C1825.83 527.944 1826.51 525.087 1828.69 523.778C1830.87 522.429 1833.73 523.103 1835.04 525.286C1836.39 527.429 1835.72 530.286 1833.53 531.635Z" fill="#2480FE" fill-opacity="0.2"/>
<path d="M1873.65 436.794C1871.47 438.143 1868.61 437.468 1867.3 435.286C1865.95 433.103 1866.63 430.246 1868.81 428.937C1870.99 427.587 1873.85 428.262 1875.16 430.444C1876.47 432.587 1875.83 435.444 1873.65 436.794Z" fill="#2480FE" fill-opacity="0.2"/>
<path d="M1909.96 338.46C1907.78 339.81 1904.92 339.135 1903.61 336.992C1902.26 334.809 1902.94 331.952 1905.12 330.643C1907.3 329.294 1910.16 329.968 1911.47 332.151C1912.82 334.254 1912.14 337.111 1909.96 338.46Z" fill="#2480FE" fill-opacity="0.2"/>
<path d="M1905.32 458.341C1903.14 459.69 1900.28 459.016 1898.97 456.873C1897.62 454.691 1898.29 451.833 1900.48 450.524C1902.66 449.175 1905.52 449.849 1906.83 451.992C1908.17 454.135 1907.5 456.992 1905.32 458.341Z" fill="#2480FE" fill-opacity="0.2"/>
</g>
</g>
</g>
<defs>
<clipPath id="clip0_3557_33614">
<rect width="1920" height="524" fill="white"/>
</clipPath>
</defs>
</svg>
