<svg width="350" height="380" viewBox="0 0 350 380" fill="none" xmlns="http://www.w3.org/2000/svg">
<g clip-path="url(#clip0_3468_15912)">
<g filter="url(#filter0_f_3468_15912)">
<path d="M318.907 366.813C324.333 369.845 324.37 374.731 318.981 377.726C313.555 380.758 304.784 380.758 299.321 377.726L31.0929 229.114C25.6667 226.083 25.6297 221.197 31.0188 218.201C36.445 215.17 45.2161 215.17 50.6795 218.201L318.907 366.813Z" fill="#1E1B1C" fill-opacity="0.1"/>
</g>
<path d="M316.267 185.467L315.746 366.998C315.746 367.176 315.746 367.354 315.709 367.533C315.672 367.747 315.672 367.889 315.635 368.032C315.598 368.246 315.561 368.353 315.523 368.495C315.449 368.674 315.412 368.816 315.375 368.923C315.3 369.102 315.226 369.209 315.152 369.316C315.077 369.458 315.003 369.53 314.929 369.601C314.78 369.744 314.743 369.815 314.668 369.851C314.483 369.993 314.408 370.065 314.297 370.1L318.571 367.711C318.683 367.64 318.757 367.604 318.868 367.533C319.017 367.426 319.091 367.354 319.128 367.283C319.277 367.14 319.351 367.033 319.389 366.962C319.5 366.819 319.574 366.712 319.612 366.57C319.686 366.463 319.686 366.356 319.723 366.284C319.835 365.963 319.872 365.856 319.872 365.785C319.946 365.464 319.946 365.393 319.946 365.321C319.983 365 319.983 364.929 319.983 364.858C319.983 364.786 319.983 364.715 319.983 364.608L320.504 183.042L316.267 185.467Z" fill="#F4EEE9"/>
<path d="M314.262 370.421C314.151 370.421 314.039 370.35 313.965 370.279C313.891 370.136 313.928 369.922 314.076 369.851C314.151 369.815 314.262 369.744 314.337 369.672C314.448 369.565 314.522 369.53 314.56 369.458C314.671 369.316 314.745 369.244 314.783 369.173C314.894 369.03 314.931 368.923 315.006 368.816C315.08 368.674 315.117 368.567 315.154 368.46L315.489 368.495L315.191 368.389C315.229 368.282 315.266 368.139 315.303 368.032C315.34 367.854 315.377 367.711 315.377 367.568C315.414 367.354 315.414 367.176 315.414 367.033L315.935 185.503C315.935 185.396 316.009 185.289 316.083 185.218L320.358 182.828C320.469 182.757 320.581 182.757 320.692 182.828C320.804 182.9 320.841 183.006 320.841 183.113L320.32 364.644C320.32 364.751 320.32 364.822 320.32 364.893C320.32 364.965 320.32 365.072 320.32 365.143C320.283 365.464 320.283 365.571 320.246 365.642C320.172 365.999 320.135 366.07 320.135 366.177C320.023 366.534 319.986 366.605 319.949 366.712C319.874 366.891 319.8 367.033 319.726 367.14L319.428 366.998L319.689 367.176C319.614 367.283 319.54 367.354 319.466 367.461C319.317 367.64 319.243 367.675 319.168 367.747C318.982 367.889 318.871 367.996 318.759 368.032L314.485 370.421C314.374 370.421 314.337 370.421 314.262 370.421ZM316.604 185.646L316.083 366.998C316.083 367.176 316.084 367.39 316.046 367.568C316.009 367.782 316.009 367.961 315.972 368.103C315.935 368.317 315.898 368.46 315.86 368.602C315.786 368.781 315.749 368.888 315.712 368.959L318.388 367.461C318.462 367.426 318.574 367.354 318.648 367.283C318.759 367.176 318.834 367.14 318.871 367.069C318.982 366.926 319.057 366.855 319.131 366.784C319.243 366.641 319.28 366.534 319.317 366.427C319.354 366.32 319.391 366.249 319.428 366.177C319.54 365.856 319.54 365.785 319.577 365.714L319.912 365.678L319.577 365.607L319.912 365.571L319.577 365.5C319.614 365.393 319.614 365.321 319.614 365.25C319.651 364.965 319.651 364.893 319.651 364.822C319.651 364.751 319.651 364.679 319.651 364.608L320.172 183.613L316.604 185.646Z" fill="#231F20"/>
<path d="M39.0181 27.083L34.7441 29.4726L316.277 185.467L320.551 183.078L39.0181 27.083Z" fill="#F4EEE9"/>
<path d="M316.276 185.753C316.127 185.717 34.5568 29.7223 34.5568 29.7223C34.4453 29.6509 34.4082 29.5439 34.4082 29.437C34.4082 29.33 34.4825 29.223 34.5568 29.1516L38.831 26.7621C38.9425 26.6908 39.0541 26.6908 39.1656 26.7621L320.698 182.757C320.81 182.828 320.847 182.935 320.847 183.042C320.847 183.149 320.773 183.256 320.698 183.328L316.424 185.717C316.387 185.753 316.35 185.753 316.276 185.753ZM35.4118 29.4727L316.276 185.075L319.881 183.078L39.0168 27.4754L35.4118 29.4727Z" fill="#231F20"/>
<path d="M34.7352 29.4725L34.2148 211.003C34.2148 214.07 36.4448 217.85 39.2694 219.384L310.693 369.744C313.481 371.277 315.748 370.065 315.785 366.962L316.305 185.432L34.7352 29.4725Z" fill="white"/>
<path d="M312.926 370.742C312.182 370.742 311.328 370.493 310.473 370.029L39.049 219.669C36.1501 218.064 33.8457 214.177 33.8457 211.003L34.3661 29.4726C34.3661 29.3656 34.4406 29.2586 34.5149 29.1872C34.6264 29.1159 34.7378 29.1159 34.8493 29.1872L316.382 185.182C316.494 185.253 316.531 185.36 316.531 185.467L316.011 366.998C316.011 368.602 315.416 369.815 314.375 370.386C313.966 370.635 313.483 370.742 312.926 370.742ZM35.0722 30.0075L34.5519 211.003C34.5519 213.963 36.7447 217.601 39.4206 219.099L310.845 369.458C312.108 370.136 313.26 370.279 314.115 369.815C314.97 369.351 315.416 368.353 315.416 366.962L315.936 185.61L35.0722 30.0075Z" fill="#231F20"/>
<path d="M320.585 168.884C320.585 168.812 320.585 168.741 320.585 168.705C320.547 168.456 320.547 168.384 320.547 168.313C320.547 168.242 320.51 168.17 320.51 168.099C320.51 168.028 320.473 167.956 320.473 167.885C320.473 167.814 320.436 167.742 320.436 167.671C320.362 167.386 320.324 167.279 320.324 167.207C320.213 166.886 320.176 166.779 320.139 166.708C319.99 166.316 319.953 166.244 319.916 166.173C319.804 165.959 319.767 165.852 319.73 165.781C319.693 165.709 319.655 165.674 319.655 165.603C319.581 165.496 319.544 165.388 319.47 165.281C319.321 164.996 319.209 164.854 319.098 164.711C318.949 164.497 318.875 164.39 318.801 164.283C318.764 164.247 318.726 164.176 318.689 164.14C318.615 164.069 318.578 163.998 318.503 163.926C318.429 163.855 318.392 163.784 318.318 163.748C318.243 163.677 318.206 163.605 318.132 163.57C317.983 163.391 317.909 163.356 317.872 163.32C317.834 163.284 317.76 163.249 317.723 163.177C317.574 163.035 317.5 162.963 317.426 162.928C317.165 162.714 317.091 162.678 317.054 162.642C316.831 162.464 316.757 162.428 316.682 162.393C316.608 162.357 316.571 162.321 316.496 162.286C316.459 162.25 43.177 10.856 43.177 10.856C42.9912 10.749 42.917 10.7133 42.8799 10.7133C41.4304 10.321 41.3931 10.321 41.3187 10.321C41.0214 10.321 40.9471 10.3567 40.8727 10.3567C40.7241 10.3924 40.6497 10.3923 40.5754 10.428C40.4639 10.4637 40.3525 10.535 40.241 10.5707L35.9668 12.9602C36.0783 12.8888 36.1899 12.8531 36.2642 12.8175C36.3385 12.7818 36.4129 12.7819 36.5244 12.7462C36.673 12.7105 36.7845 12.7105 36.8959 12.7105C37.0446 12.7105 37.1562 12.7105 37.2677 12.7105C37.4164 12.7105 37.5278 12.7462 37.6393 12.7818C37.788 12.8175 37.8994 12.8532 38.0481 12.8888C38.1968 12.9245 38.3456 12.9958 38.4571 13.0315C38.6058 13.1028 38.7544 13.1742 38.9031 13.2455L312.185 164.64C312.334 164.711 312.445 164.818 312.594 164.889C312.742 164.996 312.854 165.068 313.003 165.175C313.151 165.317 313.3 165.389 313.412 165.496C313.56 165.638 313.672 165.745 313.746 165.816C313.895 165.959 313.969 166.03 314.043 166.137C314.081 166.209 314.155 166.244 314.192 166.316C314.267 166.387 314.341 166.494 314.415 166.565C314.452 166.601 314.489 166.672 314.527 166.708C314.601 166.815 314.712 166.922 314.787 167.065C314.935 167.279 315.047 167.457 315.121 167.6C315.27 167.849 315.307 167.956 315.381 168.063C315.418 168.135 315.456 168.17 315.456 168.242C315.493 168.349 315.567 168.42 315.604 168.527C315.716 168.741 315.753 168.884 315.79 168.991C315.865 169.205 315.939 169.347 315.976 169.49C316.05 169.704 316.087 169.847 316.125 169.989C316.162 170.203 316.199 170.346 316.236 170.488C316.273 170.667 316.273 170.809 316.31 170.952C316.31 171.13 316.348 171.309 316.348 171.451L316.273 190.282L320.547 187.893L320.622 169.062C320.585 168.991 320.585 168.955 320.585 168.884Z" fill="#231F20"/>
<path d="M316.271 190.603C316.011 190.496 315.937 190.389 315.937 190.282L316.011 171.451C316.011 171.309 316.011 171.166 316.011 171.023C316.011 170.845 315.974 170.702 315.937 170.56C315.9 170.417 315.862 170.239 315.862 170.096C315.825 169.918 315.788 169.775 315.751 169.632C315.677 169.418 315.639 169.312 315.602 169.169L315.862 168.955L315.565 169.062C315.528 168.955 315.454 168.848 315.417 168.705C315.342 168.527 315.305 168.456 315.268 168.384L315.156 168.17C315.119 168.063 315.045 167.992 315.008 167.885L314.933 167.707C314.859 167.564 314.747 167.421 314.673 167.279L314.896 167.029L314.636 167.207C314.562 167.1 314.488 166.993 314.413 166.886L314.302 166.744C314.227 166.637 314.153 166.565 314.116 166.494L313.967 166.351C313.893 166.244 313.818 166.209 313.781 166.137C313.633 165.959 313.521 165.888 313.447 165.781L313.633 165.495L313.41 165.709C313.298 165.602 313.187 165.531 313.075 165.424C312.926 165.317 312.815 165.21 312.666 165.139C312.518 165.032 312.369 164.96 312.258 164.889L38.9753 13.4951C38.8638 13.4237 38.7152 13.3524 38.6037 13.3167C38.4551 13.2454 38.3437 13.2098 38.2322 13.1741C38.0835 13.1384 37.9719 13.1028 37.8976 13.0671C37.7489 13.0315 37.6745 13.0315 37.563 13.0315C37.4515 13.0315 37.3402 13.0315 37.2658 13.0315C37.1172 13.0315 37.0427 13.0315 36.9312 13.0671C36.8197 13.1028 36.7454 13.1028 36.671 13.1385C36.5967 13.1741 36.4852 13.2098 36.4108 13.2454C36.2622 13.3168 36.0392 13.2811 35.9649 13.1385C35.8905 12.9958 35.9278 12.7818 36.0765 12.7105L40.3504 10.321C40.4619 10.2496 40.5736 10.214 40.7222 10.1426C40.8337 10.107 40.9081 10.0713 41.0196 10.0713C41.1683 10.0357 41.2797 10.0357 41.354 10C41.6513 10 41.7256 10 41.8 10C42.0601 10.0357 42.1344 10.0356 42.2087 10.0356L42.2459 10.3567L42.3204 10.0356C42.469 10.0713 42.5434 10.0713 42.5805 10.107C42.8035 10.1783 42.8778 10.214 42.9521 10.214C43.0264 10.2496 43.0636 10.2497 43.1379 10.2853C43.2122 10.321 43.6211 10.5349 43.6211 10.5349L316.903 161.929L317.498 162.321C317.572 162.357 317.646 162.428 317.684 162.464C317.721 162.5 317.572 162.785 317.572 162.785L317.832 162.571C317.981 162.678 318.055 162.749 318.13 162.821L318.501 163.142L318.353 163.427L318.576 163.213C318.687 163.356 318.724 163.391 318.762 163.427L318.985 163.677C319.059 163.748 319.096 163.819 319.133 163.891L319.319 164.105C319.393 164.212 319.505 164.354 319.579 164.461C319.728 164.711 319.839 164.854 319.951 164.996C320.1 165.281 320.174 165.353 320.211 165.46L320.36 165.745C320.397 165.816 320.434 165.888 320.471 165.923L320.731 166.53L320.434 166.708L320.731 166.601C320.768 166.708 320.806 166.779 320.843 166.886C320.88 166.958 320.545 167.065 320.545 167.065L320.88 166.993C320.954 167.207 320.954 167.279 320.991 167.35L321.029 167.564C321.029 167.635 321.066 167.707 321.066 167.778L321.103 167.992L321.177 168.42C321.177 168.491 320.843 168.598 320.843 168.598L321.177 168.563V168.991L321.14 187.821C321.14 187.928 321.066 188.035 320.991 188.107L316.717 190.496C316.383 190.567 316.346 190.603 316.271 190.603ZM37.6002 12.3895C37.8975 12.4608 38.0463 12.4965 38.1578 12.5322C38.3064 12.6035 38.4551 12.6391 38.6037 12.7105C38.7896 12.7818 38.9382 12.8531 39.0497 12.9244L312.332 164.319C312.481 164.39 312.629 164.497 312.778 164.568C312.927 164.675 313.075 164.782 313.187 164.854C313.372 164.996 313.484 165.103 313.595 165.21C313.744 165.353 313.855 165.46 313.967 165.531C314.116 165.674 314.153 165.745 314.227 165.816L314.413 166.03C314.488 166.102 314.562 166.209 314.599 166.28L314.748 166.458C314.822 166.565 314.933 166.708 315.008 166.815C315.156 167.065 315.268 167.207 315.379 167.35C315.528 167.635 315.602 167.707 315.639 167.814L315.751 167.992C315.825 168.135 315.863 168.206 315.9 168.277C316.011 168.527 316.048 168.634 316.085 168.741C316.16 168.991 316.234 169.133 316.271 169.276C316.346 169.49 316.383 169.632 316.42 169.811C316.457 170.025 316.494 170.203 316.531 170.346C316.569 170.524 316.569 170.667 316.606 170.845C316.606 171.059 316.643 171.202 316.643 171.38L316.606 189.676L320.211 187.678L320.248 169.026C320.248 168.848 320.248 168.67 320.248 168.67L320.583 168.563L320.248 168.598C320.248 168.527 320.174 168.099 320.174 168.099C320.137 167.849 320.099 167.778 320.099 167.707C320.025 167.421 320.025 167.35 319.988 167.279C319.951 167.136 320.248 166.993 320.248 166.993L319.914 167.029C319.877 166.922 319.839 166.851 319.839 166.779C319.765 166.637 319.654 166.351 319.654 166.351C319.542 166.102 319.505 166.03 319.468 165.995L319.356 165.745C319.319 165.638 319.245 165.567 319.208 165.495L319.096 165.317C319.022 165.174 318.91 165.032 318.836 164.889L319.059 164.64L318.799 164.818C318.724 164.711 318.65 164.604 318.576 164.497L318.39 164.283C318.353 164.247 318.316 164.176 318.278 164.14L317.944 163.784L318.093 163.498L317.87 163.712C317.795 163.641 317.572 163.427 317.572 163.427C317.535 163.391 317.684 163.07 317.684 163.07L317.461 163.32C317.386 163.249 317.312 163.213 317.238 163.142C316.977 162.963 316.94 162.892 316.866 162.856C316.68 162.714 316.346 162.535 316.346 162.535L43.0265 11.1056L42.6547 10.9272C42.2831 10.7846 42.3204 10.4637 42.3204 10.4637L42.2087 10.749C41.9114 10.6776 41.9116 10.3567 41.9116 10.3567L41.8372 10.6776C41.354 10.642 41.2426 10.321 41.2426 10.321V10.6419L41.131 10.321V10.6419C41.0567 10.6419 40.9824 10.642 40.908 10.6776C40.7965 10.7133 40.7222 10.7133 40.6478 10.749C40.5363 10.7846 40.462 10.8203 40.3876 10.856L37.6002 12.3895Z" fill="#231F20"/>
<path d="M312.226 164.604L38.9437 13.2098C36.6766 11.9616 34.8183 12.9602 34.8183 15.4567L34.7441 34.2873L316.277 190.282L316.351 171.451C316.351 168.919 314.493 165.852 312.226 164.604Z" fill="#1FA84F"/>
<path d="M316.276 190.603C316.127 190.567 34.5568 34.5726 34.5568 34.5726C34.4453 34.5013 34.4082 34.3943 34.4082 34.2873L34.4454 15.4567C34.4454 14.1371 34.9285 13.1385 35.8205 12.6392C36.7125 12.1399 37.8647 12.2469 39.0912 12.9245L312.373 164.319C314.752 165.638 316.647 168.812 316.647 171.416L316.573 190.246C316.573 190.353 316.499 190.46 316.424 190.532C316.387 190.567 316.35 190.603 316.276 190.603ZM35.0772 34.109L315.941 189.711L315.978 171.416C315.978 169.026 314.232 166.066 312.039 164.854L38.7566 13.4595C37.7531 12.8889 36.8239 12.8175 36.1549 13.1742C35.4859 13.5308 35.1144 14.3511 35.1144 15.4567L35.0772 34.109Z" fill="#231F20"/>
<path d="M318.149 165.486L316.121 166.459L316.42 167.033L318.448 166.061L318.149 165.486Z" fill="#C92727"/>
<path d="M50.2753 26.0131C53.0256 27.5467 55.2182 31.2201 55.2182 34.2515C55.2182 37.283 52.9884 38.4955 50.2381 36.962C47.4878 35.4284 45.2949 31.755 45.2949 28.7236C45.3321 25.6921 47.5622 24.4796 50.2753 26.0131Z" fill="#231F20"/>
<path d="M52.4664 37.925C51.7231 37.925 50.9053 37.6753 50.0877 37.2117C47.2631 35.6425 44.959 31.8264 44.959 28.7236C44.959 27.1544 45.5537 25.9775 46.5943 25.4068C47.635 24.8362 49.01 24.9433 50.4595 25.7279C53.2841 27.2971 55.5884 31.1131 55.5884 34.2159C55.5884 35.7851 54.9938 36.962 53.9531 37.5683C53.5071 37.818 53.0239 37.925 52.4664 37.925ZM48.0436 25.6565C47.6348 25.6565 47.226 25.7635 46.9287 25.9418C46.111 26.4055 45.6279 27.4041 45.6279 28.7236C45.6279 31.6481 47.7463 35.2145 50.4223 36.6767C51.6488 37.3543 52.7637 37.4613 53.6185 36.9977C54.4362 36.534 54.9195 35.5355 54.9195 34.2159C54.9195 31.2914 52.8009 27.725 50.1249 26.2628C49.3816 25.8705 48.6754 25.6565 48.0436 25.6565Z" fill="#231F20"/>
<path d="M64.109 33.6454C66.8593 35.179 69.0522 38.8524 69.0522 41.8838C69.0522 44.9153 66.8221 46.1278 64.0718 44.5943C61.3215 43.0607 59.1289 39.3873 59.1289 36.3559C59.1289 33.3601 61.3587 32.1475 64.109 33.6454Z" fill="#231F20"/>
<path d="M66.3006 45.5928C65.5573 45.5928 64.7396 45.3432 63.9219 44.8795C61.0973 43.3103 58.793 39.4942 58.793 36.3914C58.793 34.8222 59.3876 33.6453 60.4283 33.0747C61.4689 32.5041 62.844 32.6111 64.2935 33.3957C67.1181 34.9649 69.4224 38.781 69.4224 41.8837C69.4224 43.453 68.8277 44.6299 67.7871 45.2362C67.3411 45.4502 66.8209 45.5928 66.3006 45.5928ZM61.8778 33.3243C61.469 33.3243 61.0974 33.4313 60.7629 33.6096C59.9452 34.0733 59.4619 35.0719 59.4619 36.3914C59.4619 39.3159 61.6177 42.8823 64.2565 44.3446C65.483 45.0222 66.5979 45.1292 67.4527 44.6655C68.2704 44.2019 68.7534 43.2033 68.7534 41.8837C68.7534 38.9593 66.6351 35.3929 63.9591 33.9307C63.2158 33.5384 62.5096 33.3243 61.8778 33.3243Z" fill="#231F20"/>
<path d="M77.9296 41.313C80.6799 42.8465 82.8725 46.5199 82.8725 49.5514C82.8725 52.5828 80.6427 53.7954 77.8924 52.2619C75.1421 50.7283 72.9492 47.0549 72.9492 44.0234C72.9492 41.0276 75.1793 39.7794 77.9296 41.313Z" fill="#231F20"/>
<path d="M80.1207 53.2248C79.3774 53.2248 78.5596 52.9751 77.742 52.5115C74.9174 50.9423 72.6133 47.1262 72.6133 44.0234C72.6133 42.4542 73.2077 41.2773 74.2484 40.7067C75.289 40.1361 76.6643 40.243 78.1138 41.0276C80.9384 42.5969 83.2427 46.4129 83.2427 49.5157C83.2427 51.0849 82.6481 52.2619 81.6074 52.8682C81.1242 53.1178 80.641 53.2248 80.1207 53.2248ZM75.6979 40.9563C75.2891 40.9563 74.9175 41.0633 74.583 41.2416C73.7653 41.7053 73.2822 42.7038 73.2822 44.0234C73.2822 46.9479 75.4378 50.5143 78.0766 51.9766C79.3031 52.6542 80.418 52.7611 81.2728 52.2975C82.0905 51.8339 82.5738 50.8353 82.5738 49.5157C82.5738 46.5913 80.4551 43.0249 77.7792 41.5626C76.9987 41.1703 76.3297 40.9563 75.6979 40.9563Z" fill="#231F20"/>
<path d="M292.11 345.849L45.9961 209.79V76.9773H46.6651V209.434L292.407 345.314L292.11 345.849Z" fill="#231F20"/>
<path d="M44.3984 78.2255L46.3311 71.3423L48.2264 78.2255H44.3984Z" fill="#231F20"/>
<path d="M290.182 346.562L297.317 348.381L292.077 343.352L290.182 346.562Z" fill="#231F20"/>
<path d="M123.203 114.817C153.382 131.543 177.8 172.093 177.689 205.368C177.577 238.643 153.047 252.088 122.831 235.362C92.6526 218.635 68.2346 178.085 68.3461 144.81C68.4576 111.536 92.9872 98.0904 123.203 114.817Z" fill="#231F20"/>
<path d="M147.36 242.922C139.778 242.922 131.378 240.497 122.681 235.647C92.4281 218.885 67.9356 178.156 68.0099 144.81C68.0471 128.655 73.808 116.564 84.2145 110.823C94.6953 105.045 108.595 106.364 123.35 114.532C153.603 131.294 178.096 172.022 178.022 205.368C177.984 221.524 172.224 233.614 161.817 239.356C157.506 241.745 152.637 242.922 147.36 242.922ZM98.6719 107.934C93.5059 107.934 88.7486 109.075 84.5489 111.393C74.3654 117.028 68.7161 128.904 68.6789 144.81C68.5674 177.942 92.9485 218.457 123.016 235.112C137.548 243.172 151.225 244.492 161.483 238.821C171.666 233.186 177.315 221.31 177.353 205.404C177.464 172.272 153.083 131.757 123.016 115.102C114.431 110.323 106.142 107.934 98.6719 107.934Z" fill="#231F20"/>
<path d="M156.835 131.115L116.547 177.978L186.754 212.964C186.716 212.964 185.416 163.712 156.835 131.115Z" fill="#F4EEE9"/>
<path d="M186.718 213.285C186.569 213.25 116.362 178.227 116.362 178.227C116.288 178.192 116.214 178.12 116.177 178.013C116.14 177.906 116.177 177.835 116.251 177.764L156.539 130.901C156.613 130.83 156.688 130.794 156.799 130.794C156.911 130.759 156.985 130.83 157.059 130.901C185.417 163.249 187.052 212.465 187.052 212.964C187.052 213.071 186.978 213.178 186.904 213.25C186.867 213.285 186.792 213.285 186.718 213.285ZM117.031 177.871L186.383 212.429C186.123 206.973 183.187 161.929 156.836 131.579L117.031 177.871Z" fill="#231F20"/>
<path d="M247.257 181.758C260.302 188.998 270.857 206.509 270.82 220.918C270.783 235.326 260.153 241.103 247.108 233.899C234.063 226.659 223.508 209.148 223.545 194.74C223.582 180.332 234.175 174.554 247.257 181.758Z" fill="#1FA84F"/>
<path d="M257.7 237.323C254.392 237.323 250.712 236.253 246.921 234.149C233.802 226.873 223.135 209.184 223.209 194.704C223.247 187.643 225.737 182.365 230.308 179.868C234.88 177.336 240.975 177.907 247.405 181.473C260.524 188.748 271.191 206.438 271.116 220.917C271.079 227.979 268.589 233.257 264.018 235.754C262.122 236.824 260.004 237.323 257.7 237.323ZM236.626 178.976C234.433 178.976 232.389 179.476 230.605 180.439C226.257 182.828 223.841 187.928 223.841 194.74C223.804 209.006 234.285 226.445 247.219 233.614C253.463 237.073 259.298 237.644 263.683 235.219C268.032 232.829 270.448 227.729 270.448 220.917C270.485 206.652 260.004 189.212 247.07 182.044C243.39 180.011 239.823 178.976 236.626 178.976Z" fill="#231F20"/>
<path d="M263.424 187.785L244.283 207.793L274.797 225.019C274.759 225.019 275.391 202.978 263.424 187.785Z" fill="#F4EEE9"/>
<path d="M274.758 225.34C274.572 225.304 244.096 208.078 244.096 208.078C244.022 208.043 243.947 207.936 243.947 207.864C243.947 207.757 243.947 207.686 244.022 207.615L263.162 187.607C263.236 187.536 263.311 187.5 263.422 187.5C263.534 187.5 263.608 187.536 263.682 187.643C275.576 202.764 275.092 224.84 275.092 225.09C275.092 225.197 275.018 225.304 274.907 225.375C274.869 225.304 274.832 225.34 274.758 225.34ZM244.765 207.722L274.423 224.448C274.423 220.989 273.866 201.873 263.385 188.249L244.765 207.722Z" fill="#231F20"/>
<path d="M247.265 250.34C260.31 257.58 270.865 275.091 270.828 289.499C270.791 303.908 260.161 309.685 247.116 302.481C234.071 295.241 223.516 277.73 223.553 263.322C223.59 248.914 234.182 243.1 247.265 250.34Z" fill="#F4EEE9"/>
<path d="M257.707 305.905C254.4 305.905 250.72 304.835 246.929 302.731C233.81 295.455 223.143 277.766 223.217 263.286C223.254 256.225 225.745 250.947 230.316 248.45C234.887 245.918 240.983 246.489 247.412 250.055C260.532 257.33 271.199 275.02 271.124 289.499C271.087 296.561 268.597 301.839 264.026 304.336C262.13 305.406 260.012 305.905 257.707 305.905ZM236.634 247.523C234.441 247.523 232.397 248.022 230.613 248.985C226.265 251.375 223.849 256.475 223.849 263.286C223.812 277.552 234.293 294.992 247.227 302.16C253.47 305.62 259.305 306.19 263.691 303.765C268.04 301.376 270.455 296.276 270.455 289.464C270.492 275.198 260.012 257.758 247.078 250.59C243.398 248.557 239.83 247.523 236.634 247.523Z" fill="#231F20"/>
<path d="M231.576 295.598L249.044 274.592L217.713 259.613C217.713 259.577 218.679 281.368 231.576 295.598Z" fill="#231F20"/>
<path d="M231.574 295.883C231.463 295.883 231.389 295.848 231.314 295.776C218.492 281.618 217.377 259.827 217.377 259.577C217.377 259.47 217.414 259.363 217.526 259.292C217.637 259.221 217.749 259.221 217.86 259.292L249.191 274.271C249.265 274.307 249.34 274.378 249.377 274.485C249.414 274.592 249.377 274.663 249.303 274.735L231.835 295.741C231.76 295.848 231.686 295.883 231.574 295.883ZM218.083 260.112C218.343 263.536 220.239 282.331 231.574 295.063L248.522 274.663L218.083 260.112Z" fill="#231F20"/>
</g>
<defs>
<filter id="filter0_f_3468_15912" x="17" y="205.927" width="316" height="184.073" filterUnits="userSpaceOnUse" color-interpolation-filters="sRGB">
<feFlood flood-opacity="0" result="BackgroundImageFix"/>
<feBlend mode="normal" in="SourceGraphic" in2="BackgroundImageFix" result="shape"/>
<feGaussianBlur stdDeviation="5" result="effect1_foregroundBlur_3468_15912"/>
</filter>
<clipPath id="clip0_3468_15912">
<rect width="350" height="380" fill="white"/>
</clipPath>
</defs>
</svg>
