<svg width="48" height="48" viewBox="0 0 48 48" fill="none" xmlns="http://www.w3.org/2000/svg">
<rect width="48" height="48" rx="8" fill="#172849"/>
<path d="M29.586 10.6666H18.4127C13.5593 10.6666 10.666 13.56 10.666 18.4133V29.5866C10.666 34.44 13.5593 37.3333 18.4127 37.3333H29.586C34.4394 37.3333 37.3327 34.44 37.3327 29.5866V18.4133C37.3327 13.56 34.4394 10.6666 29.586 10.6666ZM21.2927 27.8666L18.2927 30.8666C18.0927 31.0666 17.8393 31.16 17.586 31.16C17.3327 31.16 17.066 31.0666 16.8793 30.8666L15.8793 29.8666C15.4793 29.48 15.4793 28.84 15.8793 28.4533C16.266 28.0666 16.8927 28.0666 17.2927 28.4533L17.586 28.7466L19.8793 26.4533C20.266 26.0666 20.8927 26.0666 21.2927 26.4533C21.6793 26.84 21.6793 27.48 21.2927 27.8666ZM21.2927 18.5333L18.2927 21.5333C18.0927 21.7333 17.8393 21.8266 17.586 21.8266C17.3327 21.8266 17.066 21.7333 16.8793 21.5333L15.8793 20.5333C15.4793 20.1466 15.4793 19.5066 15.8793 19.12C16.266 18.7333 16.8927 18.7333 17.2927 19.12L17.586 19.4133L19.8793 17.12C20.266 16.7333 20.8927 16.7333 21.2927 17.12C21.6793 17.5066 21.6793 18.1466 21.2927 18.5333ZM31.4127 30.16H24.4127C23.866 30.16 23.4127 29.7066 23.4127 29.16C23.4127 28.6133 23.866 28.16 24.4127 28.16H31.4127C31.9727 28.16 32.4127 28.6133 32.4127 29.16C32.4127 29.7066 31.9727 30.16 31.4127 30.16ZM31.4127 20.8266H24.4127C23.866 20.8266 23.4127 20.3733 23.4127 19.8266C23.4127 19.28 23.866 18.8266 24.4127 18.8266H31.4127C31.9727 18.8266 32.4127 19.28 32.4127 19.8266C32.4127 20.3733 31.9727 20.8266 31.4127 20.8266Z" fill="#29D6E6"/>
</svg>
