<svg width="48" height="48" viewBox="0 0 48 48" fill="none" xmlns="http://www.w3.org/2000/svg">
<rect width="48" height="48" rx="8" fill="#172849"/>
<path d="M17.3327 10.6666H15.9993C11.9993 10.6666 10.666 13.0533 10.666 16V17.3333V36C10.666 37.1066 11.9193 37.7333 12.7993 37.0666L15.0793 35.36C15.6127 34.96 16.3593 35.0133 16.8393 35.4933L19.0527 37.72C19.5727 38.24 20.426 38.24 20.946 37.72L23.186 35.48C23.6527 35.0133 24.3993 34.96 24.9193 35.36L27.1993 37.0666C28.0793 37.72 29.3327 37.0933 29.3327 36V13.3333C29.3327 11.8666 30.5327 10.6666 31.9993 10.6666H17.3327ZM15.9593 26.68C15.226 26.68 14.626 26.08 14.626 25.3466C14.626 24.6133 15.226 24.0133 15.9593 24.0133C16.6927 24.0133 17.2927 24.6133 17.2927 25.3466C17.2927 26.08 16.6927 26.68 15.9593 26.68ZM15.9593 21.3466C15.226 21.3466 14.626 20.7466 14.626 20.0133C14.626 19.28 15.226 18.68 15.9593 18.68C16.6927 18.68 17.2927 19.28 17.2927 20.0133C17.2927 20.7466 16.6927 21.3466 15.9593 21.3466ZM23.9993 26.3466H19.9993C19.4527 26.3466 18.9993 25.8933 18.9993 25.3466C18.9993 24.8 19.4527 24.3466 19.9993 24.3466H23.9993C24.546 24.3466 24.9993 24.8 24.9993 25.3466C24.9993 25.8933 24.546 26.3466 23.9993 26.3466ZM23.9993 21.0133H19.9993C19.4527 21.0133 18.9993 20.56 18.9993 20.0133C18.9993 19.4666 19.4527 19.0133 19.9993 19.0133H23.9993C24.546 19.0133 24.9993 19.4666 24.9993 20.0133C24.9993 20.56 24.546 21.0133 23.9993 21.0133Z" fill="#29D6E6"/>
<path d="M32.014 10.6666V12.6666C32.894 12.6666 33.734 13.0266 34.3473 13.6266C34.9873 14.28 35.334 15.12 35.334 16V19.2266C35.334 20.2133 34.894 20.6666 33.894 20.6666H31.334V13.3466C31.334 12.9733 31.6407 12.6666 32.014 12.6666V10.6666ZM32.014 10.6666C30.534 10.6666 29.334 11.8666 29.334 13.3466V22.6666H33.894C36.0007 22.6666 37.334 21.3333 37.334 19.2266V16C37.334 14.5333 36.734 13.2 35.774 12.2266C34.8007 11.2666 33.4807 10.68 32.014 10.6666C32.014 10.6666 32.0273 10.6666 32.014 10.6666Z" fill="#29D6E6"/>
</svg>
