<svg width="48" height="48" viewBox="0 0 48 48" fill="none" xmlns="http://www.w3.org/2000/svg">
<rect width="48" height="48" rx="8" fill="#172849"/>
<path d="M27.9071 11.3334V19.2001C27.9071 19.7867 27.2138 20.0801 26.7871 19.6934L24.4538 17.5467C24.2004 17.3067 23.8004 17.3067 23.5471 17.5467L21.2138 19.6801C20.7871 20.0801 20.0938 19.7734 20.0938 19.2001V11.3334C20.0938 10.9601 20.3871 10.6667 20.7604 10.6667H27.2404C27.6138 10.6667 27.9071 10.9601 27.9071 11.3334Z" fill="#29D6E6"/>
<path d="M30.64 10.7466C30.2533 10.6933 29.9067 11.0266 29.9067 11.4133V19.4399C29.9067 20.4533 29.3067 21.3733 28.3733 21.7866C27.44 22.1866 26.36 22.0133 25.6133 21.3199L24.4533 20.2533C24.2 20.0133 23.8133 20.0133 23.5467 20.2533L22.3867 21.3199C21.9067 21.7733 21.28 21.9999 20.6533 21.9999C20.3067 21.9999 19.96 21.9333 19.6267 21.7866C18.6933 21.3733 18.0933 20.4533 18.0933 19.4399V11.4133C18.0933 11.0266 17.7467 10.6933 17.36 10.7466C13.6267 11.2133 12 13.7333 12 17.3333V30.6666C12 34.6666 14 37.3333 18.6667 37.3333H29.3333C34 37.3333 36 34.6666 36 30.6666V17.3333C36 13.7333 34.3733 11.2133 30.64 10.7466ZM31.3333 32.9999H20C19.4533 32.9999 19 32.5466 19 31.9999C19 31.4533 19.4533 30.9999 20 30.9999H31.3333C31.88 30.9999 32.3333 31.4533 32.3333 31.9999C32.3333 32.5466 31.88 32.9999 31.3333 32.9999ZM31.3333 27.6666H25.6667C25.12 27.6666 24.6667 27.2133 24.6667 26.6666C24.6667 26.1199 25.12 25.6666 25.6667 25.6666H31.3333C31.88 25.6666 32.3333 26.1199 32.3333 26.6666C32.3333 27.2133 31.88 27.6666 31.3333 27.6666Z" fill="#29D6E6"/>
</svg>
