<svg width="48" height="48" viewBox="0 0 48 48" fill="none" xmlns="http://www.w3.org/2000/svg">
<rect width="48" height="48" rx="8" fill="#172849"/>
<path d="M36.8935 17.2667C36.0402 14.3734 33.6269 11.96 30.7335 11.1067C28.5335 10.4667 27.0135 10.52 25.9602 11.3067C24.6935 12.2534 24.5469 13.96 24.5469 15.1734V18.4934C24.5469 21.7734 26.0402 23.44 28.9735 23.44H32.8002C34.0002 23.44 35.7202 23.2934 36.6669 22.0267C37.4802 20.9867 37.5469 19.4667 36.8935 17.2667Z" fill="#29D6E6"/>
<path d="M33.2132 25.8133C32.8665 25.4133 32.3599 25.1866 31.8399 25.1866H27.0665C24.7199 25.1866 22.8132 23.28 22.8132 20.9333V16.16C22.8132 15.64 22.5865 15.1333 22.1865 14.7866C21.7999 14.44 21.2665 14.28 20.7599 14.3466C17.6265 14.7466 14.7465 16.4666 12.8665 19.0533C10.9732 21.6533 10.2799 24.8266 10.8799 28C11.7465 32.5866 15.4132 36.2533 20.0132 37.12C20.7465 37.2666 21.4799 37.3333 22.2132 37.3333C24.6265 37.3333 26.9599 36.5866 28.9465 35.1333C31.5332 33.2533 33.2532 30.3733 33.6532 27.24C33.7199 26.72 33.5599 26.2 33.2132 25.8133Z" fill="#29D6E6"/>
</svg>
