<svg width="48" height="48" viewBox="0 0 48 48" fill="none" xmlns="http://www.w3.org/2000/svg">
<rect width="48" height="48" rx="8" fill="#172849"/>
<path d="M30.666 11.24H17.3327C13.3327 11.24 10.666 13.9067 10.666 17.9067V25.9067C10.666 29.9067 13.3327 32.5733 17.3327 32.5733V35.4133C17.3327 36.48 18.5193 37.12 19.3993 36.52L25.3327 32.5733H30.666C34.666 32.5733 37.3327 29.9067 37.3327 25.9067V17.9067C37.3327 13.9067 34.666 11.24 30.666 11.24ZM23.9993 27.4667C23.4393 27.4667 22.9993 27.0133 22.9993 26.4667C22.9993 25.92 23.4393 25.4667 23.9993 25.4667C24.5593 25.4667 24.9993 25.92 24.9993 26.4667C24.9993 27.0133 24.5593 27.4667 23.9993 27.4667ZM25.6793 21.9333C25.1593 22.28 24.9993 22.5067 24.9993 22.88V23.16C24.9993 23.7067 24.546 24.16 23.9993 24.16C23.4527 24.16 22.9993 23.7067 22.9993 23.16V22.88C22.9993 21.3333 24.1327 20.5733 24.5593 20.28C25.0527 19.9467 25.2127 19.72 25.2127 19.3733C25.2127 18.7067 24.666 18.16 23.9993 18.16C23.3327 18.16 22.786 18.7067 22.786 19.3733C22.786 19.92 22.3327 20.3733 21.786 20.3733C21.2393 20.3733 20.786 19.92 20.786 19.3733C20.786 17.6 22.226 16.16 23.9993 16.16C25.7727 16.16 27.2127 17.6 27.2127 19.3733C27.2127 20.8933 26.0927 21.6533 25.6793 21.9333Z" fill="#29D6E6"/>
</svg>
