<svg width="48" height="48" viewBox="0 0 48 48" fill="none" xmlns="http://www.w3.org/2000/svg">
<rect width="48" height="48" rx="8" fill="#172849"/>
<path d="M24.0007 23.3733C20.3207 23.3733 17.334 26.36 17.334 30.04C17.334 31.0266 17.5473 31.96 17.9473 32.7866C18.054 33.0266 18.174 33.2533 18.3073 33.4666C19.454 35.4 21.574 36.7066 24.0007 36.7066C26.4273 36.7066 28.5473 35.4 29.694 33.4666C29.8273 33.2533 29.9473 33.0266 30.054 32.7866C30.454 31.96 30.6673 31.0266 30.6673 30.04C30.6673 26.36 27.6807 23.3733 24.0007 23.3733ZM26.7607 29.4666L23.9207 32.0933C23.734 32.2666 23.4807 32.36 23.2407 32.36C22.9873 32.36 22.734 32.2666 22.534 32.0666L21.214 30.7466C20.8273 30.36 20.8273 29.72 21.214 29.3333C21.6007 28.9466 22.2407 28.9466 22.6273 29.3333L23.2673 29.9733L25.4007 28C25.814 27.6266 26.4407 27.6533 26.814 28.0533C27.1873 28.4533 27.1607 29.08 26.7607 29.4666Z" fill="#29D6E6"/>
<path d="M34.9325 30.76C34.4525 31.1867 33.9325 31.5467 33.3725 31.84C32.8925 32.08 32.4125 31.6133 32.4925 31.08C32.5458 30.6933 32.5724 30.2933 32.5724 29.88C32.5724 25.1067 28.6791 21.2133 23.9058 21.2133C19.1325 21.2133 15.2391 25.1067 15.2391 29.88C15.2391 30.4933 15.3058 31.08 15.4258 31.6533C15.5191 32.12 15.1591 32.5867 14.6925 32.4667C9.42578 31.1867 9.39912 23.08 15.2925 22.6667H15.3591C11.0791 10.76 29.1324 6 31.1991 18.5067C36.9724 19.24 39.3058 26.9333 34.9325 30.76Z" fill="#29D6E6"/>
</svg>
