<svg width="48" height="48" viewBox="0 0 48 48" fill="none" xmlns="http://www.w3.org/2000/svg">
<rect width="48" height="48" rx="8" fill="#172849"/>
<path d="M25.5327 28.4933C25.2393 28.0666 24.7193 27.8266 24.1193 27.8266H21.0127C20.8127 27.8266 20.6127 27.7466 20.4927 27.5866C20.3593 27.4266 20.306 27.2266 20.3327 26.9999L20.7193 24.5199C20.8793 23.7866 20.386 22.9466 19.6527 22.6933C18.9593 22.4399 18.1593 22.7866 17.826 23.2799L14.746 27.8666V27.2933C14.746 26.1733 14.266 25.7199 13.0927 25.7199H12.3193C11.146 25.7333 10.666 26.1866 10.666 27.3066V34.9199C10.666 36.0399 11.146 36.4933 12.3193 36.4933H13.0927C14.2127 36.4933 14.6793 36.0533 14.7193 35.0399L17.0527 36.8399C17.386 37.1599 18.0927 37.3333 18.5993 37.3333H21.546C22.5593 37.3333 23.5727 36.5733 23.8127 35.6399L25.6793 29.9733C25.8793 29.4266 25.826 28.9066 25.5327 28.4933Z" fill="#29D6E6"/>
<path d="M36.147 11.4799H35.3737C34.2537 11.4799 33.787 11.9199 33.7337 12.9332L31.4004 11.1332C31.0804 10.8132 30.3604 10.6399 29.8537 10.6399H26.907C25.8937 10.6399 24.8804 11.3999 24.6404 12.3332L22.7737 17.9999C22.5737 18.5466 22.6404 19.0666 22.9204 19.4799C23.2137 19.9066 23.7337 20.1466 24.3337 20.1466H27.4404C27.6404 20.1466 27.8404 20.2266 27.9604 20.3866C28.0937 20.5466 28.147 20.7466 28.1204 20.9732L27.7337 23.4532C27.5737 24.1866 28.067 25.0266 28.8004 25.2799C29.4937 25.5332 30.2937 25.1866 30.627 24.6932L33.707 20.1066V20.6799C33.707 21.7999 34.187 22.2532 35.3604 22.2532H36.1337C37.307 22.2532 37.787 21.7999 37.787 20.6799V13.0399C37.8004 11.9332 37.3204 11.4799 36.147 11.4799Z" fill="#29D6E6"/>
</svg>
