<svg width="48" height="48" viewBox="0 0 48 48" fill="none" xmlns="http://www.w3.org/2000/svg">
<rect width="48" height="48" rx="8" fill="#172849"/>
<path d="M32.7191 13.4933L25.3858 10.7466C24.6258 10.4666 23.3858 10.4666 22.6258 10.7466L15.2924 13.4933C13.8791 14.0266 12.7324 15.68 12.7324 17.1866V27.9866C12.7324 29.0666 13.4391 30.4933 14.3058 31.1333L21.6391 36.6133C22.9324 37.5866 25.0524 37.5866 26.3458 36.6133L33.6791 31.1333C34.5458 30.48 35.2524 29.0666 35.2524 27.9866V17.1866C35.2658 15.68 34.1191 14.0266 32.7191 13.4933ZM28.6391 20.96L22.9058 26.6933C22.7058 26.8933 22.4524 26.9866 22.1991 26.9866C21.9458 26.9866 21.6924 26.8933 21.4924 26.6933L19.3591 24.5333C18.9724 24.1466 18.9724 23.5066 19.3591 23.12C19.7458 22.7333 20.3858 22.7333 20.7724 23.12L22.2124 24.56L27.2391 19.5333C27.6258 19.1466 28.2658 19.1466 28.6524 19.5333C29.0391 19.92 29.0391 20.5733 28.6391 20.96Z" fill="#29D6E6"/>
</svg>
