<svg width="32" height="32" viewBox="0 0 32 32" fill="none" xmlns="http://www.w3.org/2000/svg">
<path d="M27.3874 25.3866C27.1874 25.5866 26.934 25.68 26.6807 25.68C26.4274 25.68 26.174 25.5866 25.974 25.3866L19.374 18.7866L20.0807 18.08L20.7874 17.3733L27.3874 23.9733C27.774 24.36 27.774 25 27.3874 25.3866Z" fill="white"/>
<path d="M8.62714 12.3734L16.3605 20.1067C16.8805 20.6267 16.8805 21.4667 16.3605 21.9867L15.1605 23.2C14.0805 24.2667 12.3738 24.2667 11.3071 23.2L5.52047 17.4134C4.46714 16.36 4.46714 14.64 5.52047 13.5734L6.7338 12.36C7.2538 11.8534 8.10714 11.8534 8.62714 12.3734Z" fill="white"/>
<path d="M24.7873 13.5867L19.7073 18.6534C19.174 19.1867 18.3207 19.1867 17.7873 18.6534L10.0807 10.9467C9.54733 10.4134 9.54733 9.56007 10.0807 9.02674L15.1607 3.94674C16.214 2.8934 17.934 2.8934 19.0007 3.94674L24.7873 9.73341C25.8407 10.8001 25.8407 12.5067 24.7873 13.5867Z" fill="white"/>
<path d="M10.667 29H2.66699C2.12033 29 1.66699 28.5467 1.66699 28C1.66699 27.4533 2.12033 27 2.66699 27H10.667C11.2137 27 11.667 27.4533 11.667 28C11.667 28.5467 11.2137 29 10.667 29Z" fill="white"/>
</svg>
