<svg width="32" height="32" viewBox="0 0 32 32" fill="none" xmlns="http://www.w3.org/2000/svg">
<path d="M23.1863 20.8933L17.7996 16H14.1863L8.79965 20.8933C7.29298 22.2533 6.79965 24.3467 7.53298 26.24C8.26631 28.12 10.053 29.3333 12.0663 29.3333H19.9196C21.9463 29.3333 23.7196 28.12 24.453 26.24C25.1863 24.3467 24.693 22.2533 23.1863 20.8933ZM18.4263 24.1867H13.573C13.0663 24.1867 12.6663 23.7733 12.6663 23.28C12.6663 22.7867 13.0796 22.3733 13.573 22.3733H18.4263C18.933 22.3733 19.333 22.7867 19.333 23.28C19.333 23.7733 18.9196 24.1867 18.4263 24.1867Z" fill="white"/>
<path d="M24.4662 5.76008C23.7329 3.88008 21.9462 2.66675 19.9329 2.66675H12.0662C10.0529 2.66675 8.26623 3.88008 7.5329 5.76008C6.8129 7.65341 7.30623 9.74675 8.8129 11.1067L14.1996 16.0001H17.8129L23.1996 11.1067C24.6929 9.74675 25.1862 7.65341 24.4662 5.76008ZM18.4262 9.64008H13.5729C13.0662 9.64008 12.6662 9.22675 12.6662 8.73341C12.6662 8.24008 13.0796 7.82675 13.5729 7.82675H18.4262C18.9329 7.82675 19.3329 8.24008 19.3329 8.73341C19.3329 9.22675 18.9196 9.64008 18.4262 9.64008Z" fill="white"/>
</svg>
