<svg width="32" height="32" viewBox="0 0 32 32" fill="none" xmlns="http://www.w3.org/2000/svg">
<path d="M15 24.3334H12C10.5333 24.3334 9.33333 25.5334 9.33333 27V27.3334H8C7.45333 27.3334 7 27.7867 7 28.3334C7 28.88 7.45333 29.3334 8 29.3334H24C24.5467 29.3334 25 28.88 25 28.3334C25 27.7867 24.5467 27.3334 24 27.3334H22.6667V27C22.6667 25.5334 21.4667 24.3334 20 24.3334H17V21.28C16.6667 21.32 16.3333 21.3334 16 21.3334C15.6667 21.3334 15.3333 21.32 15 21.28V24.3334Z" fill="white"/>
<path d="M24.64 15.5201C25.52 15.1867 26.2934 14.6401 26.9067 14.0267C28.1467 12.6534 28.96 11.0134 28.96 9.09341C28.96 7.17341 27.4534 5.66675 25.5334 5.66675H24.7867C23.92 3.89341 22.1067 2.66675 20 2.66675H12C9.89337 2.66675 8.08004 3.89341 7.21337 5.66675H6.46671C4.54671 5.66675 3.04004 7.17341 3.04004 9.09341C3.04004 11.0134 3.85337 12.6534 5.09337 14.0267C5.70671 14.6401 6.48004 15.1867 7.36004 15.5201C8.74671 18.9334 12.08 21.3334 16 21.3334C19.92 21.3334 23.2534 18.9334 24.64 15.5201ZM19.7867 11.2667L18.96 12.2801C18.8267 12.4267 18.7334 12.7201 18.7467 12.9201L18.8267 14.2267C18.88 15.0267 18.3067 15.4401 17.56 15.1467L16.3467 14.6667C16.16 14.6001 15.84 14.6001 15.6534 14.6667L14.44 15.1467C13.6934 15.4401 13.12 15.0267 13.1734 14.2267L13.2534 12.9201C13.2667 12.7201 13.1734 12.4267 13.04 12.2801L12.2134 11.2667C11.6934 10.6534 11.92 9.97341 12.6934 9.77341L13.96 9.45341C14.16 9.40008 14.4 9.21341 14.5067 9.04008L15.2134 7.94675C15.6534 7.26675 16.3467 7.26675 16.7867 7.94675L17.4934 9.04008C17.6 9.21341 17.84 9.40008 18.04 9.45341L19.3067 9.77341C20.08 9.97341 20.3067 10.6534 19.7867 11.2667Z" fill="white"/>
</svg>
