<svg width="16" height="15" viewBox="0 0 16 15" fill="none" xmlns="http://www.w3.org/2000/svg">
<path d="M14.8203 4.57684C13.9614 3.37835 12.7615 2.57755 11.4455 2.21619V2.218C11.1402 1.87299 10.7955 1.55521 10.4098 1.27193C7.4868 -0.88897 3.38348 -0.229805 1.24969 2.74279C-0.469852 5.15792 -0.396642 8.40653 1.35682 10.7145L1.37111 13.1224C1.37111 13.1805 1.38003 13.2386 1.39789 13.2931C1.49253 13.6 1.81394 13.7688 2.11392 13.6726L4.37449 12.9481C4.97267 13.1641 5.59049 13.2876 6.20474 13.3221L6.19581 13.3294C7.78678 14.5079 9.87237 14.862 11.7848 14.2192L14.0543 14.9709C14.1114 14.9891 14.1703 15 14.231 15C14.5471 15 14.8024 14.7403 14.8024 14.4189V11.9856C16.3755 9.81384 16.4166 6.81219 14.8203 4.57684ZM4.62448 11.6588L4.41021 11.568L2.64246 12.1309L2.6246 10.2424L2.48175 10.079C0.971131 8.20497 0.871137 5.50475 2.28534 3.52362C4.00666 1.12303 7.30646 0.59279 9.65988 2.32514C12.0205 4.0702 12.5436 7.42051 10.8384 9.80658C9.40811 11.8022 6.84756 12.5395 4.62448 11.6588ZM13.6418 11.3501L13.4989 11.5317L13.5168 13.4202L11.7669 12.8209L11.5526 12.9117C10.5527 13.2894 9.48668 13.3203 8.49924 13.0388L8.49567 13.037C9.81523 12.6248 11.0116 11.7895 11.874 10.5874C13.2382 8.67528 13.4597 6.27287 12.6668 4.22456L12.6776 4.23182C13.0882 4.53144 13.465 4.90551 13.7846 5.35767C15.081 7.16628 15.0078 9.62862 13.6418 11.3501Z" fill="#CCCCCC"/>
</svg>
