<svg width="15" height="16" viewBox="0 0 15 16" fill="none" xmlns="http://www.w3.org/2000/svg">
<path d="M14.5106 7.57763C14.5781 7.34459 14.6119 7.10378 14.6119 6.85909C14.6119 6.30951 14.4375 5.78129 14.1225 5.35017C14.19 5.11714 14.2238 4.87633 14.2238 4.63164C14.2238 4.08206 14.0494 3.55384 13.7344 3.12272C13.8019 2.88968 13.8356 2.64888 13.8356 2.40419C13.8356 1.40213 13.26 0.499105 12.3675 0.104883C12.2106 0.0348331 12.0415 -0.000869735 11.8706 1.60885e-05H0.6C0.268125 1.60885e-05 0 0.27772 0 0.62145V7.69026C0 8.03399 0.268125 8.3117 0.6 8.3117H3.02437L4.63313 14.3474C4.89188 15.3203 5.75438 16 6.72938 16C7.28625 16 7.80563 15.7708 8.19 15.3514C8.57438 14.9339 8.77125 14.3862 8.74312 13.8094L8.63062 11.4227H13.1288C13.3556 11.4227 13.5769 11.3606 13.7719 11.2421C14.5294 10.7858 15 9.9585 15 9.08655C15 8.53697 14.8256 8.00875 14.5106 7.57763ZM1.35 6.91153V1.3963H2.86875V6.91153H1.35ZM13.11 10.0265H7.215L7.395 13.8794C7.40625 14.1105 7.30688 14.328 7.12125 14.4717C7.00688 14.559 6.86625 14.6037 6.72563 14.6018C6.54597 14.6 6.37172 14.5379 6.22905 14.4248C6.08637 14.3116 5.98298 14.1537 5.93438 13.9745L4.06875 6.97367V1.3963H11.8575C12.0449 1.48329 12.2041 1.62451 12.3158 1.80297C12.4276 1.98143 12.4872 2.18953 12.4875 2.40225C12.4875 2.59062 12.4444 2.76928 12.3581 2.93241L12.0975 3.42567L12.5081 3.79465C12.6237 3.89833 12.7164 4.02658 12.7798 4.17068C12.8432 4.31478 12.8759 4.47134 12.8756 4.6297C12.8756 4.81807 12.8325 4.99673 12.7463 5.15986L12.4856 5.65312L12.8963 6.0221C13.0118 6.12578 13.1045 6.25403 13.1679 6.39813C13.2313 6.54223 13.264 6.69879 13.2638 6.85715C13.2638 7.04552 13.2206 7.22419 13.1344 7.38731L12.8719 7.88252L13.2825 8.25149C13.3981 8.35517 13.4907 8.48343 13.5541 8.62752C13.6176 8.77162 13.6503 8.92818 13.65 9.08655C13.65 9.45747 13.4438 9.81479 13.11 10.0265Z" fill="#CCCCCC"/>
</svg>
