<svg width="58" height="54" viewBox="0 0 58 54" fill="none" xmlns="http://www.w3.org/2000/svg">
<path fill-rule="evenodd" clip-rule="evenodd" d="M4.84211 4C4.60857 4 4.3909 4.09161 4.23534 4.2447C4.08086 4.39675 4 4.59614 4 4.7972V49.2028C4 49.4039 4.08086 49.6033 4.23534 49.7553C4.3909 49.9084 4.60857 50 4.84211 50H53.1579C53.3914 50 53.6091 49.9084 53.7647 49.7553C53.9191 49.6033 54 49.4039 54 49.2028V4.7972C54 4.59614 53.9191 4.39675 53.7647 4.24471C53.6091 4.0916 53.3914 4 53.1579 4H4.84211ZM1.42952 1.39385C2.33996 0.497794 3.5681 0 4.84211 0H53.1579C54.4319 0 55.66 0.497795 56.5705 1.39385C57.482 2.29096 58 3.51454 58 4.7972V49.2028C58 50.4855 57.482 51.709 56.5705 52.6062C55.66 53.5022 54.4319 54 53.1579 54H4.84211C3.56809 54 2.33996 53.5022 1.42952 52.6062C0.518014 51.709 0 50.4855 0 49.2028V4.7972C0 3.51453 0.518016 2.29096 1.42952 1.39385Z" fill="url(#paint0_linear_557_409)"/>
<path d="M13.8833 29.7151C14.0379 30.5524 14.5144 30.971 15.313 30.971C15.8926 30.971 16.2854 30.7124 16.4915 30.1953C16.7104 29.6658 16.8199 28.8224 16.8199 27.6649C16.5623 28.022 16.2017 28.3052 15.738 28.5145C15.2743 28.7239 14.7527 28.8285 14.1731 28.8285C12.9366 28.8285 11.932 28.4591 11.1592 27.7203C10.3864 26.9816 10 25.9165 10 24.5251C10 23.6139 10.1996 22.8197 10.5989 22.1425C10.9982 21.453 11.5649 20.9235 12.2991 20.5541C13.0461 20.1847 13.9155 20 14.9073 20C16.8779 20 18.2496 20.5726 19.0224 21.7177C19.8081 22.8505 20.2009 24.5005 20.2009 26.6676C20.2009 29.0933 19.821 30.9033 19.061 32.0977C18.314 33.292 17.026 33.8892 15.1971 33.8892C14.2053 33.8892 13.3488 33.6984 12.6275 33.3166C11.9191 32.9226 11.3717 32.4116 10.9853 31.7837C10.6118 31.1434 10.3993 30.4539 10.3478 29.7151H13.8833ZM15.0811 26.0211C15.5319 26.0211 15.8861 25.898 16.1437 25.6517C16.4013 25.3932 16.5301 25.0484 16.5301 24.6174C16.5301 24.1249 16.3949 23.7555 16.1244 23.5093C15.8668 23.263 15.5062 23.1399 15.0425 23.1399C14.5788 23.1399 14.2117 23.2692 13.9413 23.5277C13.6837 23.774 13.5549 24.1311 13.5549 24.599C13.5549 25.0299 13.6837 25.3747 13.9413 25.6333C14.2117 25.8918 14.5917 26.0211 15.0811 26.0211Z" fill="url(#paint1_linear_557_409)"/>
<path d="M30.7195 22.9921L26.0828 33.7969H22.1995L26.8749 23.4169H21.3687V20.314H30.7195V22.9921Z" fill="url(#paint2_linear_557_409)"/>
<path d="M31.5394 23.7678C31.5394 22.7212 31.8486 21.9209 32.4668 21.3668C33.085 20.8127 33.8965 20.5356 34.9011 20.5356C35.8929 20.5356 36.6978 20.8127 37.3161 21.3668C37.9343 21.9209 38.2434 22.7212 38.2434 23.7678C38.2434 24.8021 37.9343 25.6025 37.3161 26.1689C36.6978 26.723 35.8929 27 34.9011 27C33.9093 27 33.0979 26.723 32.4668 26.1689C31.8486 25.6025 31.5394 24.8021 31.5394 23.7678ZM45.2566 20.7388L37.9343 33.7969H34.3022L41.6244 20.7388H45.2566ZM34.8818 22.6597C34.3537 22.6597 34.0897 23.029 34.0897 23.7678C34.0897 24.5066 34.3537 24.876 34.8818 24.876C35.1394 24.876 35.339 24.7837 35.4807 24.599C35.6353 24.4143 35.7125 24.1372 35.7125 23.7678C35.7125 23.3984 35.6353 23.1214 35.4807 22.9367C35.339 22.752 35.1394 22.6597 34.8818 22.6597ZM41.3153 30.7494C41.3153 29.7151 41.6244 28.9209 42.2427 28.3668C42.8738 27.8004 43.6852 27.5172 44.677 27.5172C45.6687 27.5172 46.4673 27.8004 47.0726 28.3668C47.6909 28.9209 48 29.7151 48 30.7494C48 31.796 47.6909 32.6025 47.0726 33.1689C46.4673 33.723 45.6687 34 44.677 34C43.6852 34 42.8738 33.723 42.2427 33.1689C41.6244 32.6025 41.3153 31.796 41.3153 30.7494ZM44.6576 29.6412C44.1167 29.6412 43.8462 30.0106 43.8462 30.7494C43.8462 31.5005 44.1167 31.876 44.6576 31.876C44.9024 31.876 45.0956 31.7837 45.2373 31.599C45.3918 31.402 45.4691 31.1188 45.4691 30.7494C45.4691 30.3923 45.3918 30.1214 45.2373 29.9367C45.0956 29.7397 44.9024 29.6412 44.6576 29.6412Z" fill="url(#paint3_linear_557_409)"/>
<defs>
<linearGradient id="paint0_linear_557_409" x1="29.152" y1="33.8702" x2="35.5946" y2="109.036" gradientUnits="userSpaceOnUse">
<stop stop-color="#50E7B7"/>
<stop offset="0.9964" stop-color="#323992"/>
</linearGradient>
<linearGradient id="paint1_linear_557_409" x1="29.152" y1="33.8702" x2="35.5946" y2="109.036" gradientUnits="userSpaceOnUse">
<stop stop-color="#50E7B7"/>
<stop offset="0.9964" stop-color="#323992"/>
</linearGradient>
<linearGradient id="paint2_linear_557_409" x1="29.152" y1="33.8702" x2="35.5946" y2="109.036" gradientUnits="userSpaceOnUse">
<stop stop-color="#50E7B7"/>
<stop offset="0.9964" stop-color="#323992"/>
</linearGradient>
<linearGradient id="paint3_linear_557_409" x1="29.152" y1="33.8702" x2="35.5946" y2="109.036" gradientUnits="userSpaceOnUse">
<stop stop-color="#50E7B7"/>
<stop offset="0.9964" stop-color="#323992"/>
</linearGradient>
</defs>
</svg>
