<svg width="56" height="58" viewBox="0 0 56 58" fill="none" xmlns="http://www.w3.org/2000/svg">
<path fill-rule="evenodd" clip-rule="evenodd" d="M26.7938 0.3887C27.5125 -0.129567 28.4875 -0.129567 29.2062 0.3887L35.8329 5.16753L44.0367 5.15256C44.9262 5.15094 45.715 5.71754 45.9882 6.55442L48.5074 14.2712L55.153 19.0251C55.8736 19.5406 56.1749 20.4572 55.8985 21.2931L53.3489 29L55.8985 36.7069C56.1749 37.5428 55.8736 38.4594 55.153 38.9749L48.5074 43.7288L45.9882 51.4456C45.715 52.2825 44.9262 52.8491 44.0367 52.8474L35.8329 52.8325L29.2062 57.6113C28.4875 58.1296 27.5125 58.1296 26.7938 57.6113L20.167 52.8325L11.9633 52.8474C11.0737 52.8491 10.285 52.2825 10.0118 51.4456L7.49254 43.7288L0.846961 38.9749C0.126293 38.4594 -0.175007 37.5428 0.101488 36.7069L2.651 29L0.101489 21.2931C-0.175007 20.4572 0.126293 19.5406 0.846961 19.0251L7.49254 14.2712L10.0118 6.55442C10.285 5.71754 11.0737 5.15094 11.9633 5.15256L20.167 5.16753L26.7938 0.3887ZM28 4.52764L22.0387 8.82656C21.6874 9.0799 21.2636 9.21605 20.8287 9.21525L13.4487 9.20179L11.1825 16.1438C11.0489 16.553 10.7869 16.9095 10.4345 17.1615L4.45613 21.4381L6.74963 28.3711C6.8848 28.7797 6.8848 29.2203 6.74963 29.6289L4.45614 36.5619L10.4345 40.8385C10.7869 41.0905 11.0489 41.447 11.1825 41.8562L13.4487 48.7982L20.8287 48.7847C21.2636 48.784 21.6874 48.9201 22.0387 49.1734L28 53.4724L33.9612 49.1734C34.3125 48.9201 34.7363 48.784 35.1712 48.7847L42.5512 48.7982L44.8175 41.8562C44.9511 41.447 45.213 41.0905 45.5654 40.8385L51.5438 36.5619L49.2503 29.6289C49.1151 29.2203 49.1151 28.7797 49.2503 28.3711L51.5438 21.4381L45.5654 17.1615C45.213 16.9095 44.9511 16.553 44.8175 16.1438L42.5512 9.20179L35.1712 9.21525C34.7363 9.21605 34.3125 9.0799 33.9612 8.82656L28 4.52764ZM40.3628 20.8252C41.1621 21.6153 41.1621 22.8963 40.3628 23.6865L26.7183 37.1749C25.919 37.965 24.6231 37.965 23.8239 37.1749L17.0016 30.4307C16.2023 29.6405 16.2023 28.3595 17.0016 27.5693C17.8009 26.7792 19.0968 26.7792 19.896 27.5693L25.2711 32.8829L37.4683 20.8252C38.2676 20.035 39.5635 20.035 40.3628 20.8252Z" fill="url(#paint0_linear_557_390)"/>
<defs>
<linearGradient id="paint0_linear_557_390" x1="28.1468" y1="36.3791" x2="35.8313" y2="116.973" gradientUnits="userSpaceOnUse">
<stop stop-color="#50E7B7"/>
<stop offset="0.9964" stop-color="#323992"/>
</linearGradient>
</defs>
</svg>
