<svg width="58" height="46" viewBox="0 0 58 46" fill="none" xmlns="http://www.w3.org/2000/svg">
<path fill-rule="evenodd" clip-rule="evenodd" d="M6.06974 3.94286C5.53314 3.94286 5.01852 4.15056 4.63908 4.52027C4.25965 4.88999 4.04648 5.39143 4.04648 5.91429V8.21433H53.9761L53.9536 5.93324L53.9535 5.91429C53.9535 5.39143 53.7403 4.88999 53.3609 4.52027C52.9814 4.15056 52.4668 3.94286 51.9302 3.94286H6.06974ZM53.9535 12.1572H4.04648V16.1H53.9535V12.1572ZM4.04648 20.0429H54.0928L54.2907 40.0936C54.2885 40.6136 54.0756 41.1118 53.6981 41.4797C53.3186 41.8494 52.804 42.0571 52.2674 42.0571L6.06974 42.0571C5.53314 42.0571 5.01852 41.8494 4.63908 41.4797C4.25965 41.11 4.04648 40.6086 4.04648 40.0857V20.0429ZM-3.05176e-05 5.91429C-3.05176e-05 4.34572 0.639463 2.8414 1.77776 1.73225C2.91607 0.62311 4.45994 0 6.06974 0H51.9302C53.54 0 55.0839 0.623108 56.2222 1.73225C57.3579 2.83891 57.9971 4.33898 58 5.90374V40.0857C58 41.6542 57.6977 43.1586 56.5594 44.2677C55.4211 45.3768 53.8772 46 52.2674 46L6.06974 46C4.45993 46 2.91607 45.3769 1.77776 44.2677C0.639463 43.1586 -3.05176e-05 41.6543 -3.05176e-05 40.0857V5.91429ZM35.0697 28.9143C35.0697 26.1923 37.3343 23.9857 40.1279 23.9857H44.1744C46.9679 23.9857 49.2325 26.1923 49.2325 28.9143V32.8571C49.2325 35.5791 46.9679 37.7857 44.1744 37.7857H40.1279C37.3343 37.7857 35.0697 35.5791 35.0697 32.8571V28.9143ZM40.1279 27.9286C39.5692 27.9286 39.1163 28.3699 39.1163 28.9143V32.8571C39.1163 33.4015 39.5692 33.8429 40.1279 33.8429H44.1744C44.7331 33.8429 45.186 33.4015 45.186 32.8571V28.9143C45.186 28.3699 44.7331 27.9286 44.1744 27.9286H40.1279ZM7.75578 27.9286C7.75578 26.8398 8.66163 25.9571 9.77904 25.9571H22.9302C24.0476 25.9571 24.9535 26.8398 24.9535 27.9286C24.9535 29.0174 24.0476 29.9 22.9302 29.9H9.77904C8.66163 29.9 7.75578 29.0174 7.75578 27.9286ZM7.75578 33.8429C7.75578 32.7541 8.66163 31.8714 9.77904 31.8714H22.9302C24.0476 31.8714 24.9535 32.7541 24.9535 33.8429C24.9535 34.9316 24.0476 35.8143 22.9302 35.8143H9.77904C8.66163 35.8143 7.75578 34.9316 7.75578 33.8429Z" fill="url(#paint0_linear_557_383)"/>
<defs>
<linearGradient id="paint0_linear_557_383" x1="29.152" y1="28.8524" x2="33.8364" y2="93.0105" gradientUnits="userSpaceOnUse">
<stop stop-color="#50E7B7"/>
<stop offset="0.9964" stop-color="#323992"/>
</linearGradient>
</defs>
</svg>
