<svg width="48" height="58" viewBox="0 0 48 58" fill="none" xmlns="http://www.w3.org/2000/svg">
<path fill-rule="evenodd" clip-rule="evenodd" d="M16.4572 2.02326C16.4572 0.905842 17.3782 0 18.5143 0H29.4857C30.6219 0 31.5429 0.905842 31.5429 2.02326C31.5429 3.14067 30.6219 4.04651 29.4857 4.04651H26.0572L26.0572 10.8762C30.7965 11.2719 35.1432 13.0221 38.6956 15.7317L41.7454 12.7321C42.5488 11.942 43.8513 11.942 44.6546 12.7321C45.458 13.5223 45.458 14.8033 44.6546 15.5934L41.7222 18.4776C45.6215 22.6748 48 28.2619 48 34.3953C48 47.4318 37.2549 58 24 58C10.7452 58 3.05176e-05 47.4318 3.05176e-05 34.3953C3.05176e-05 22.0404 9.65104 11.9025 21.9429 10.8762L21.9429 4.04651H18.5143C17.3782 4.04651 16.4572 3.14067 16.4572 2.02326ZM24 14.8372C13.0175 14.8372 4.11432 23.5937 4.11432 34.3953C4.11432 45.197 13.0175 53.9535 24 53.9535C34.9826 53.9535 43.8857 45.197 43.8857 34.3953C43.8857 23.5937 34.9826 14.8372 24 14.8372ZM24 24.2791C25.1362 24.2791 26.0572 25.1849 26.0572 26.3023V34.3953C26.0572 35.5128 25.1362 36.4186 24 36.4186H15.7715C14.6353 36.4186 13.7143 35.5128 13.7143 34.3953C13.7143 33.2779 14.6353 32.3721 15.7715 32.3721H21.9429V26.3023C21.9429 25.1849 22.8639 24.2791 24 24.2791Z" fill="url(#paint0_linear_557_385)"/>
<defs>
<linearGradient id="paint0_linear_557_385" x1="24.1258" y1="36.3791" x2="33.062" y2="116.711" gradientUnits="userSpaceOnUse">
<stop stop-color="#50E7B7"/>
<stop offset="0.9964" stop-color="#323992"/>
</linearGradient>
</defs>
</svg>
