<svg width="58" height="58" viewBox="0 0 58 58" fill="none" xmlns="http://www.w3.org/2000/svg">
<path fill-rule="evenodd" clip-rule="evenodd" d="M26.9767 2.02319C26.9767 0.905781 27.8826 -6.10352e-05 29 -6.10352e-05C37.4456 -6.10352e-05 45.0459 3.61073 50.344 9.368V5.63268C50.344 4.51527 51.2498 3.60943 52.3672 3.60943C53.4846 3.60943 54.3905 4.51527 54.3905 5.63268V15.5116C54.3905 16.629 53.4846 17.5348 52.3672 17.5348H42.4883C41.3709 17.5348 40.4651 16.629 40.4651 15.5116C40.4651 14.3942 41.3709 13.4883 42.4883 13.4883H48.5476C43.9745 7.73257 36.9171 4.04645 29 4.04645C27.8826 4.04645 26.9767 3.14061 26.9767 2.02319ZM3.60946 5.63268C3.60946 4.51527 4.5153 3.60943 5.63271 3.60943H15.5116C16.629 3.60943 17.5349 4.51527 17.5349 5.63268V15.5116C17.5349 16.629 16.629 17.5348 15.5116 17.5348C14.3942 17.5348 13.4883 16.629 13.4883 15.5116V9.4523C7.7326 14.0254 4.04648 21.0828 4.04648 28.9999C4.04648 30.1174 3.14064 31.0232 2.02323 31.0232C0.905812 31.0232 -3.05176e-05 30.1174 -3.05176e-05 28.9999C-3.05176e-05 20.5543 3.61076 12.954 9.36803 7.65594H5.63271C4.5153 7.65594 3.60946 6.7501 3.60946 5.63268ZM29.0002 13.8255C30.1176 13.8255 31.0234 14.7314 31.0234 15.8488V16.2167H34.9921C36.1095 16.2167 37.0154 17.1225 37.0154 18.2399C37.0154 19.3573 36.1095 20.2632 34.9921 20.2632H31.0234V26.9767H31.179C32.1161 26.9767 33.0387 27.1795 33.8924 27.5676C34.7455 27.9554 35.5077 28.5179 36.1411 29.213C36.7742 29.9077 37.2676 30.7225 37.6013 31.6067C37.9349 32.4907 38.1048 33.4326 38.1048 34.38C38.1048 35.3274 37.9349 36.2693 37.6013 37.1533C37.2676 38.0374 36.7742 38.8523 36.1411 39.547C35.5077 40.2421 34.7455 40.8046 33.8924 41.1924C33.0387 41.5804 32.1161 41.7833 31.179 41.7833H31.0234V42.1511C31.0234 43.2685 30.1176 44.1744 29.0002 44.1744C27.8827 44.1744 26.9769 43.2685 26.9769 42.1511V41.7833H23.0082C21.8908 41.7833 20.9849 40.8774 20.9849 39.76C20.9849 38.6426 21.8908 37.7367 23.0082 37.7367H26.9769V31.0232H26.8213C24.9205 31.0232 23.1404 30.1929 21.8592 28.7869C20.5837 27.3872 19.8955 25.5259 19.8955 23.6199C19.8955 21.714 20.5837 19.8527 21.8592 18.4529C23.1404 17.0469 24.9205 16.2167 26.8213 16.2167H26.9769V15.8488C26.9769 14.7314 27.8827 13.8255 29.0002 13.8255ZM26.9769 20.2632H26.8213C26.1215 20.2632 25.4077 20.5665 24.8502 21.1784C24.2868 21.7966 23.942 22.6721 23.942 23.6199C23.942 24.5678 24.2868 25.4433 24.8502 26.0614C25.4077 26.6733 26.1215 26.9767 26.8213 26.9767H26.9769V20.2632ZM31.0234 31.0232V37.7367H31.179C31.5296 37.7367 31.882 37.6613 32.2179 37.5086C32.5544 37.3556 32.8731 37.1255 33.1501 36.8215C33.4276 36.517 33.6564 36.1457 33.8155 35.7243C33.9745 35.3029 34.0583 34.8456 34.0583 34.38C34.0583 33.9144 33.9745 33.4571 33.8155 33.0356C33.6564 32.6143 33.4276 32.2429 33.1501 31.9385C32.8731 31.6344 32.5544 31.4044 32.2179 31.2514C31.882 31.0987 31.5296 31.0232 31.179 31.0232H31.0234ZM55.9767 26.9767C57.0941 26.9767 58 27.8825 58 28.9999C58 37.4456 54.3892 45.0459 48.6319 50.3439H52.3672C53.4846 50.3439 54.3905 51.2498 54.3905 52.3672C54.3905 53.4846 53.4846 54.3905 52.3672 54.3905H42.4883C41.3709 54.3905 40.4651 53.4846 40.4651 52.3672V42.4883C40.4651 41.3709 41.3709 40.4651 42.4883 40.4651C43.6058 40.4651 44.5116 41.3709 44.5116 42.4883V48.5476C50.2673 43.9744 53.9535 36.9171 53.9535 28.9999C53.9535 27.8825 54.8593 26.9767 55.9767 26.9767ZM3.60946 42.4883C3.60946 41.3709 4.5153 40.4651 5.63271 40.4651H15.5116C16.629 40.4651 17.5349 41.3709 17.5349 42.4883C17.5349 43.6057 16.629 44.5116 15.5116 44.5116H9.45233C14.0255 50.2673 21.0828 53.9534 29 53.9534C30.1174 53.9534 31.0232 54.8593 31.0232 55.9767C31.0232 57.0941 30.1174 57.9999 29 57.9999C20.5543 57.9999 12.954 54.3891 7.65597 48.6319V52.3672C7.65597 53.4846 6.75013 54.3905 5.63271 54.3905C4.5153 54.3905 3.60946 53.4846 3.60946 52.3672V42.4883Z" fill="url(#paint0_linear_543_15101)"/>
<defs>
<linearGradient id="paint0_linear_543_15101" x1="29.152" y1="36.3791" x2="36.5761" y2="117.022" gradientUnits="userSpaceOnUse">
<stop stop-color="#50E7B7"/>
<stop offset="0.9964" stop-color="#323992"/>
</linearGradient>
</defs>
</svg>
