<svg width="58" height="44" viewBox="0 0 58 44" fill="none" xmlns="http://www.w3.org/2000/svg">
<path fill-rule="evenodd" clip-rule="evenodd" d="M-3.05176e-05 2C-3.05176e-05 0.89543 0.905812 0 2.02323 0H55.9767C57.0941 0 58 0.89543 58 2V22C58 23.1046 57.0941 24 55.9767 24C54.8593 24 53.9535 23.1046 53.9535 22V6L30.2139 23.6C29.4945 24.1333 28.5054 24.1333 27.786 23.6L4.04648 6V40H29C30.1174 40 31.0232 40.8954 31.0232 42C31.0232 43.1046 30.1174 44 29 44H2.02323C0.905812 44 -3.05176e-05 43.1046 -3.05176e-05 42V2ZM8.09299 4H49.9069L29 19.5L8.09299 4ZM38.36 29.9191C39.1501 29.1381 40.4312 29.1381 41.2213 29.9191L45.186 33.8382L49.1507 29.9191C49.9408 29.1381 51.2219 29.1381 52.012 29.9191C52.8022 30.7002 52.8022 31.9665 52.012 32.7475L48.0473 36.6667L52.012 40.5858C52.8022 41.3668 52.8022 42.6332 52.012 43.4142C51.2219 44.1953 49.9408 44.1953 49.1507 43.4142L45.186 39.4951L41.2213 43.4142C40.4312 44.1953 39.1501 44.1953 38.36 43.4142C37.5699 42.6332 37.5699 41.3668 38.36 40.5858L42.3247 36.6667L38.36 32.7475C37.5699 31.9665 37.5699 30.7002 38.36 29.9191Z" fill="url(#paint0_linear_543_15106)"/>
<defs>
<linearGradient id="paint0_linear_543_15106" x1="29.152" y1="27.598" x2="33.4399" y2="88.9943" gradientUnits="userSpaceOnUse">
<stop stop-color="#50E7B7"/>
<stop offset="0.9964" stop-color="#323992"/>
</linearGradient>
</defs>
</svg>
