<svg width="58" height="48" viewBox="0 0 58 48" fill="none" xmlns="http://www.w3.org/2000/svg">
<path d="M48.5581 27.3333C48.5581 26.2288 47.6523 25.3333 46.5349 25.3333C45.4174 25.3333 44.5116 26.2288 44.5116 27.3333V32.6667C44.5116 32.8391 44.5337 33.0065 44.5752 33.1662C44.6179 33.3304 44.6812 33.4864 44.7621 33.6314C44.6756 33.4896 44.5705 33.3575 44.4481 33.2389C44.329 33.1235 44.1933 33.0209 44.0422 32.9346L39.3699 30.268C38.4021 29.7157 37.1647 30.0434 36.606 31C36.0473 31.9566 36.3789 33.1797 37.3466 33.732L42.0189 36.3987C42.1702 36.4851 42.3281 36.5499 42.489 36.5942C42.6548 36.6398 42.8237 36.6636 42.9918 36.6667C42.8237 36.6697 42.6548 36.6935 42.489 36.7391C42.3281 36.7834 42.1702 36.8483 42.0189 36.9346L37.3466 39.6013C36.3789 40.1536 36.0473 41.3768 36.606 42.3334C37.1647 43.2899 38.4021 43.6177 39.3699 43.0654L44.0422 40.3987C44.1933 40.3125 44.329 40.2098 44.4481 40.0944C44.5705 39.9758 44.6756 39.8437 44.7621 39.7019C44.6812 39.8469 44.6179 40.003 44.5752 40.1672C44.5337 40.3268 44.5116 40.4942 44.5116 40.6667V46C44.5116 47.1046 45.4174 48 46.5349 48C47.6523 48 48.5581 47.1046 48.5581 46V40.6667C48.5581 40.4942 48.536 40.3268 48.4945 40.1672C48.4518 40.003 48.3885 39.8469 48.3076 39.7019C48.3941 39.8437 48.4992 39.9758 48.6216 40.0944C48.7408 40.2098 48.8764 40.3125 49.0275 40.3987L53.6999 43.0654C54.6676 43.6177 55.905 43.2899 56.4637 42.3334C57.0224 41.3768 56.6909 40.1536 55.7232 39.6013L51.0508 36.9346C50.8995 36.8483 50.7416 36.7834 50.5807 36.7391C50.4149 36.6935 50.246 36.6697 50.0779 36.6667C50.246 36.6636 50.4149 36.6398 50.5807 36.5942C50.7416 36.5499 50.8995 36.4851 51.0508 36.3987L55.7232 33.732C56.6909 33.1797 57.0224 31.9566 56.4637 31C55.905 30.0434 54.6676 29.7157 53.6999 30.268L49.0275 32.9346C48.8764 33.0209 48.7408 33.1235 48.6216 33.2389C48.4992 33.3575 48.3942 33.4896 48.3076 33.6314C48.3885 33.4864 48.4518 33.3304 48.4945 33.1662C48.536 33.0065 48.5581 32.8391 48.5581 32.6667V27.3333Z" fill="url(#paint0_linear_543_15099)"/>
<path fill-rule="evenodd" clip-rule="evenodd" d="M4.63908 42.0809C4.25964 41.7058 4.04648 41.1971 4.04648 40.6667V20H53.9535V22.0787C53.9535 23.1832 54.8593 24.0787 55.9767 24.0787C57.0941 24.0787 58 23.1832 58 22.0787V20V6C58 4.4087 57.3605 2.88258 56.2222 1.75736C55.0839 0.632141 53.54 0 51.9302 0H6.06974C4.45994 0 2.91607 0.63214 1.77776 1.75736C0.639461 2.88258 -3.05176e-05 4.4087 -3.05176e-05 6V20V40.6667C-3.05176e-05 42.258 0.639462 43.7841 1.77776 44.9093C2.91606 46.0345 4.45993 46.6667 6.06974 46.6667H29C30.1174 46.6667 31.0232 45.7712 31.0232 44.6667C31.0232 43.5621 30.1174 42.6667 29 42.6667H6.06974C5.53314 42.6667 5.01852 42.456 4.63908 42.0809ZM6.06974 4C5.53314 4 5.01851 4.21071 4.63908 4.58579C4.25965 4.96086 4.04648 5.46957 4.04648 6V16H53.9535V6C53.9535 5.46957 53.7403 4.96086 53.3609 4.58579C52.9814 4.21071 52.4668 4 51.9302 4H6.06974Z" fill="url(#paint1_linear_543_15099)"/>
<path d="M18.2093 7.33333C16.7194 7.33333 15.5116 8.52724 15.5116 10C15.5116 11.4728 16.7194 12.6667 18.2093 12.6667C19.6992 12.6667 20.9069 11.4728 20.9069 10C20.9069 8.52724 19.6992 7.33333 18.2093 7.33333Z" fill="url(#paint2_linear_543_15099)"/>
<path d="M10.1162 7.33333C8.62636 7.33333 7.41857 8.52724 7.41857 10C7.41857 11.4728 8.62636 12.6667 10.1162 12.6667C11.6061 12.6667 12.8139 11.4728 12.8139 10C12.8139 8.52724 11.6061 7.33333 10.1162 7.33333Z" fill="url(#paint3_linear_543_15099)"/>
<defs>
<linearGradient id="paint0_linear_543_15099" x1="29.152" y1="30.1069" x2="34.2502" y2="97.0229" gradientUnits="userSpaceOnUse">
<stop stop-color="#50E7B7"/>
<stop offset="0.9964" stop-color="#323992"/>
</linearGradient>
<linearGradient id="paint1_linear_543_15099" x1="29.152" y1="30.1069" x2="34.2502" y2="97.0229" gradientUnits="userSpaceOnUse">
<stop stop-color="#50E7B7"/>
<stop offset="0.9964" stop-color="#323992"/>
</linearGradient>
<linearGradient id="paint2_linear_543_15099" x1="29.152" y1="30.1069" x2="34.2502" y2="97.0229" gradientUnits="userSpaceOnUse">
<stop stop-color="#50E7B7"/>
<stop offset="0.9964" stop-color="#323992"/>
</linearGradient>
<linearGradient id="paint3_linear_543_15099" x1="29.152" y1="30.1069" x2="34.2502" y2="97.0229" gradientUnits="userSpaceOnUse">
<stop stop-color="#50E7B7"/>
<stop offset="0.9964" stop-color="#323992"/>
</linearGradient>
</defs>
</svg>
