<svg width="56" height="58" viewBox="0 0 56 58" fill="none" xmlns="http://www.w3.org/2000/svg">
<path fill-rule="evenodd" clip-rule="evenodd" d="M12.5492 3.66117C14.8727 1.31696 18.0239 1.19209e-07 21.3098 0C22.9368 0 24.5479 0.323322 26.051 0.951506C27.5542 1.57969 28.92 2.50043 30.0704 3.66117C31.2209 4.8219 32.1335 6.19988 32.7561 7.71646C33.3787 9.23303 33.6992 10.8585 33.6992 12.5C33.6992 14.1415 33.3787 15.767 32.7561 17.2835C32.1335 18.8001 31.2209 20.1781 30.0704 21.3388C28.92 22.4996 27.5542 23.4203 26.051 24.0485C24.5479 24.6767 22.9368 25 21.3098 25C18.0239 25 14.8727 23.683 12.5492 21.3388C10.2257 18.9946 8.92044 15.8152 8.92044 12.5C8.92044 9.18479 10.2257 6.00537 12.5492 3.66117ZM21.3098 4C19.0754 4 16.9326 4.89553 15.3526 6.48959C13.7726 8.08365 12.885 10.2457 12.885 12.5C12.885 14.7543 13.7726 16.9163 15.3526 18.5104C16.9326 20.1045 19.0754 21 21.3098 21C22.4162 21 23.5117 20.7801 24.5338 20.353C25.556 19.9258 26.4847 19.2997 27.267 18.5104C28.0494 17.7211 28.6699 16.7841 29.0933 15.7528C29.5167 14.7215 29.7346 13.6162 29.7346 12.5C29.7346 11.3838 29.5167 10.2785 29.0933 9.24719C28.6699 8.21593 28.0494 7.27889 27.267 6.48959C26.4847 5.70029 25.556 5.07419 24.5338 4.64702C23.5117 4.21986 22.4162 4 21.3098 4ZM20.9243 32.9999H33.2035C34.2983 32.9999 35.1858 33.8953 35.1858 34.9999C35.1858 36.1044 34.2983 36.9999 33.2035 36.9999H21.0124C17.6494 36.9999 15.2464 37.0014 13.3626 37.1567C11.5019 37.3101 10.3228 37.6035 9.37601 38.09C7.51134 39.0487 5.9953 40.5783 5.0451 42.4596C4.56286 43.4148 4.2721 44.6045 4.12007 46.4817C3.96919 48.3448 3.96472 50.7113 3.96461 53.9999H33.2035C34.2983 53.9999 35.1858 54.8953 35.1858 55.9999C35.1858 57.1044 34.2983 57.9999 33.2035 57.9999H1.9823C0.887507 57.9999 7.06491e-07 57.1044 7.06491e-07 55.9999L2.33874e-07 54.1111C-1.29994e-05 50.8263 -2.38672e-05 48.2386 0.168638 46.156C0.340713 44.0312 0.698167 42.2569 1.51236 40.6441C2.84268 38.01 4.96551 35.8681 7.57635 34.5259C9.17485 33.7044 10.9338 33.3436 13.0397 33.17C15.1039 32.9998 17.6686 32.9999 20.9243 32.9999ZM40.7222 38.0857C41.4963 37.3046 42.7515 37.3046 43.5256 38.0857L48.0708 42.6714L52.616 38.0857C53.3901 37.3046 54.6453 37.3046 55.4194 38.0857C56.1935 38.8667 56.1935 40.133 55.4194 40.9141L50.8742 45.4999L55.4194 50.0857C56.1935 50.8667 56.1935 52.133 55.4194 52.9141C54.6453 53.6951 53.3901 53.6951 52.616 52.9141L48.0708 48.3283L43.5256 52.9141C42.7515 53.6951 41.4963 53.6951 40.7222 52.9141C39.9481 52.133 39.9481 50.8667 40.7222 50.0857L45.2674 45.4999L40.7222 40.9141C39.9481 40.133 39.9481 38.8667 40.7222 38.0857Z" fill="url(#paint0_linear_543_15121)"/>
<defs>
<linearGradient id="paint0_linear_543_15121" x1="28.1468" y1="36.3791" x2="35.8313" y2="116.972" gradientUnits="userSpaceOnUse">
<stop stop-color="#50E7B7"/>
<stop offset="0.9964" stop-color="#323992"/>
</linearGradient>
</defs>
</svg>
