<svg width="58" height="54" viewBox="0 0 58 54" fill="none" xmlns="http://www.w3.org/2000/svg">
<path fill-rule="evenodd" clip-rule="evenodd" d="M13.4885 1.97567C13.4885 0.884572 14.3943 6.10352e-05 15.5117 6.10352e-05H42.4883C43.6057 6.10352e-05 44.5116 0.884572 44.5116 1.97567V16.6005L57.1248 25.0889C57.7373 25.5011 58.0448 26.1842 57.9948 26.8599C57.9981 26.9063 57.9998 26.9531 57.9998 27.0001V49.1506C57.9998 51.6629 56.0494 54.0001 53.2789 54.0001H4.72112C1.95067 54.0001 0.000217341 51.6629 0.000217341 49.1506V27.0001C0.000217341 26.9531 0.00192556 26.9063 0.00529848 26.8599C-0.0447264 26.1842 0.262756 25.5011 0.875313 25.0889L13.4885 16.6005V1.97567ZM17.535 17.6634C17.5352 17.6455 17.5352 17.6276 17.535 17.6097V3.95128H40.4651V17.6095C40.4648 17.6275 40.4648 17.6456 40.4651 17.6636V34.132C40.4651 34.2417 40.437 34.3498 40.3834 34.4463C40.3342 34.5348 40.265 34.611 40.1811 34.6691L29.3441 41.5474C29.2401 41.6076 29.1213 41.6395 29 41.6395C28.8788 41.6395 28.7599 41.6076 28.6559 41.5473L17.819 34.6692C17.7351 34.611 17.6658 34.5348 17.6166 34.4463C17.563 34.3498 17.535 34.2418 17.535 34.1321V17.6634ZM13.4885 21.3993L5.44264 26.8139L13.4885 31.9206V21.3993ZM4.0467 30.6405V49.1506C4.0467 49.8124 4.51065 50.0488 4.72112 50.0488H53.2789C53.4894 50.0488 53.9534 49.8124 53.9534 49.1506V30.6405L42.4245 37.9578C42.4043 37.9711 42.384 37.9842 42.3636 37.9972L31.5729 44.846C31.5524 44.8589 31.5319 44.8718 31.5113 44.8844L30.1027 45.7785C29.4322 46.204 28.5679 46.204 27.8974 45.7785L26.4887 44.8843C26.4681 44.8717 26.4476 44.8589 26.4272 44.846L15.6365 37.9972C15.6162 37.9842 15.5959 37.9711 15.5757 37.9579L4.0467 30.6405ZM44.5116 31.9206L52.5574 26.8139L44.5116 21.3993V31.9206ZM21.5815 12.5123C21.5815 11.4212 22.4873 10.5366 23.6047 10.5366H29C30.1174 10.5366 31.0233 11.4212 31.0233 12.5123C31.0233 13.6034 30.1174 14.4879 29 14.4879H23.6047C22.4873 14.4879 21.5815 13.6034 21.5815 12.5123ZM21.5815 20.4147C21.5815 19.3236 22.4873 18.4391 23.6047 18.4391H34.3954C35.5128 18.4391 36.4186 19.3236 36.4186 20.4147C36.4186 21.5058 35.5128 22.3903 34.3954 22.3903H23.6047C22.4873 22.3903 21.5815 21.5058 21.5815 20.4147Z" fill="url(#paint0_linear_543_15111)"/>
<defs>
<linearGradient id="paint0_linear_543_15111" x1="29.1521" y1="33.8703" x2="35.5946" y2="109.036" gradientUnits="userSpaceOnUse">
<stop stop-color="#50E7B7"/>
<stop offset="0.9964" stop-color="#323992"/>
</linearGradient>
</defs>
</svg>
