<svg width="58" height="40" viewBox="0 0 58 40" fill="none" xmlns="http://www.w3.org/2000/svg">
<path d="M44.3248 24.4393C43.7288 23.8536 42.7624 23.8536 42.1663 24.4393C41.5702 25.0251 41.5702 25.9749 42.1663 26.5607L44.1397 28.5L42.1663 30.4393C41.5702 31.0251 41.5702 31.9749 42.1663 32.5607C42.7624 33.1464 43.7288 33.1464 44.3248 32.5607L46.2982 30.6213L48.2716 32.5607C48.8676 33.1464 49.834 33.1464 50.4301 32.5607C51.0262 31.9749 51.0262 31.0251 50.4301 30.4393L48.4567 28.5L50.4301 26.5607C51.0262 25.9749 51.0262 25.0251 50.4301 24.4393C49.834 23.8536 48.8676 23.8536 48.2716 24.4393L46.2982 26.3787L44.3248 24.4393Z" fill="url(#paint0_linear_543_15116)"/>
<path fill-rule="evenodd" clip-rule="evenodd" d="M28.4912 6C28.4912 5.17157 27.8079 4.5 26.9649 4.5C26.122 4.5 25.4386 5.17157 25.4386 6V7.13636H25.3995C24.029 7.13636 22.7353 7.70627 21.7968 8.68728C20.8613 9.66515 20.3509 10.9727 20.3509 12.3182C20.3509 13.6636 20.8613 14.9712 21.7968 15.9491C22.7353 16.9301 24.029 17.5 25.3995 17.5H25.4386V21.8636H21.8772C21.0342 21.8636 20.3509 22.5352 20.3509 23.3636C20.3509 24.1921 21.0342 24.8636 21.8772 24.8636H25.4386V26C25.4386 26.8284 26.122 27.5 26.9649 27.5C27.8079 27.5 28.4912 26.8284 28.4912 26V24.8636H28.5304C29.2069 24.8636 29.8743 24.7242 30.4937 24.4561C31.1127 24.188 31.6689 23.7979 32.133 23.3127C32.597 22.8278 32.9604 22.257 33.2068 21.6351C33.4532 21.0134 33.5789 20.3499 33.5789 19.6818C33.5789 19.0137 33.4532 18.3503 33.2068 17.7285C32.9604 17.1067 32.597 16.5359 32.133 16.0509C31.6689 15.5658 31.1127 15.1756 30.4937 14.9076C29.8743 14.6394 29.2069 14.5 28.5304 14.5H28.4912V10.1364H31.2699C32.1129 10.1364 32.7962 9.46479 32.7962 8.63636C32.7962 7.80794 32.1129 7.13636 31.2699 7.13636H28.4912V6ZM25.4386 10.1364H25.3995C24.9016 10.1364 24.4035 10.3423 24.0209 10.7422C23.6353 11.1453 23.4035 11.7107 23.4035 12.3182C23.4035 12.9257 23.6353 13.4911 24.0209 13.8942C24.4035 14.2941 24.9016 14.5 25.3995 14.5H25.4386V10.1364ZM28.4912 17.5V21.8636H28.5304C28.7789 21.8636 29.0276 21.8126 29.2629 21.7107C29.4985 21.6087 29.7189 21.4564 29.909 21.2578C30.0992 21.059 30.2546 20.818 30.3622 20.5465C30.4699 20.2748 30.5263 19.9807 30.5263 19.6818C30.5263 19.3829 30.4699 19.0888 30.3622 18.8172C30.2546 18.5456 30.0992 18.3047 29.909 18.1058C29.7189 17.9072 29.4985 17.755 29.2629 17.6529C29.0276 17.551 28.7789 17.5 28.5304 17.5H28.4912Z" fill="url(#paint1_linear_543_15116)"/>
<path fill-rule="evenodd" clip-rule="evenodd" d="M0 1.5C0 0.671573 0.683355 0 1.52632 0H51.9811C52.8241 0 53.5074 0.671573 53.5074 1.5V19.4409C56.2424 21.5459 58 24.8212 58 28.5C58 34.8514 52.7611 40 46.2982 40C44.2069 40 42.2368 39.4598 40.5332 38.51C38.7315 37.5064 37.2328 36.0512 36.1899 34.2928C35.7945 33.6261 35.4699 32.9247 35.2193 32.2H1.52632C0.683355 32.2 0 31.5284 0 30.7V1.5ZM9.94762 3H3.05263V9.60157C4.76396 9.30361 6.35119 8.50935 7.59256 7.31197C8.82229 6.12583 9.63552 4.61905 9.94762 3ZM43.5598 3C43.8719 4.61905 44.6851 6.12583 45.9148 7.31197C47.1562 8.50935 48.7435 9.30361 50.4548 9.60157L50.4548 3H43.5598ZM9.94762 29.2C9.63552 27.5809 8.82229 26.0741 7.59256 24.888C6.35119 23.6906 4.76396 22.8964 3.05263 22.5984V29.2H9.94762ZM46.2965 20C45.0825 19.9986 43.8818 20.2492 42.7731 20.7353C41.6644 21.2213 40.6726 21.932 39.8627 22.8208L39.8611 22.8224C38.4853 24.3276 37.6493 26.3158 37.6491 28.4995C37.6497 30.0041 38.0562 31.4822 38.8272 32.7821C39.5983 34.0821 40.7064 35.158 42.0385 35.9C43.2938 36.6 44.7471 37 46.2982 37C51.0752 37 54.9474 33.1946 54.9474 28.5C54.9474 23.8054 51.0752 20 46.2982 20L46.2965 20ZM3.05263 12.636V19.564C5.5629 19.8857 7.91434 20.9948 9.73083 22.7469C11.5441 24.496 12.7007 26.7671 13.0396 29.2H34.6184C34.6039 28.9675 34.5966 28.7343 34.5965 28.5005C34.5965 25.5488 35.7301 22.853 37.5895 20.8184C38.686 19.6155 40.0286 18.6535 41.5294 17.9955C43.0306 17.3374 44.6562 16.9981 46.3 17C47.7632 17.0002 49.1637 17.2643 50.4548 17.7466V12.636C47.9445 12.3143 45.5931 11.2051 43.7766 9.45303C41.9633 7.704 40.8067 5.43288 40.4678 3H13.0396C12.7007 5.43288 11.5441 7.704 9.73083 9.45303C7.91434 11.2051 5.5629 12.3143 3.05263 12.636Z" fill="url(#paint2_linear_543_15116)"/>
<defs>
<linearGradient id="paint0_linear_543_15116" x1="29.152" y1="25.0891" x2="32.6987" y2="80.9509" gradientUnits="userSpaceOnUse">
<stop stop-color="#50E7B7"/>
<stop offset="0.9964" stop-color="#323992"/>
</linearGradient>
<linearGradient id="paint1_linear_543_15116" x1="29.152" y1="25.0891" x2="32.6987" y2="80.9509" gradientUnits="userSpaceOnUse">
<stop stop-color="#50E7B7"/>
<stop offset="0.9964" stop-color="#323992"/>
</linearGradient>
<linearGradient id="paint2_linear_543_15116" x1="29.152" y1="25.0891" x2="32.6987" y2="80.9509" gradientUnits="userSpaceOnUse">
<stop stop-color="#50E7B7"/>
<stop offset="0.9964" stop-color="#323992"/>
</linearGradient>
</defs>
</svg>
