<svg width="1784" height="585" viewBox="0 0 1784 585" fill="none" xmlns="http://www.w3.org/2000/svg">
<path d="M340.774 527.134L362.912 548.307L399 495.453L340.774 527.134Z" fill="#CCCCCC"/>
<path d="M330.985 565.675L399 495.453L340.774 527.134L330.985 565.675Z" fill="white"/>
<path d="M342.022 508.928L353.515 520.201L399 495.453L342.022 508.928Z" fill="#CCCCCC"/>
<path d="M399 495.453L349.773 516.527L305.703 506.548L399 495.453Z" fill="white"/>
<path d="M-0.790039 584.862C-0.790039 584.862 0.0538025 584.579 1.63129 584.018L1.41119 583.395C-0.161041 583.95 -0.999634 584.228 -0.999634 584.228L-0.790039 584.862ZM4.02112 583.164L6.39511 582.294L6.1698 581.671L3.79044 582.54L4.02112 583.164ZM8.76398 581.398L11.1223 580.502L10.8865 579.883L8.52817 580.785L8.76398 581.398ZM13.4807 579.59L15.8339 578.662L15.5876 578.044L13.2449 578.971L13.4807 579.59ZM18.1975 577.719L20.535 576.77L20.2833 576.157L17.9459 577.106L18.1975 577.719ZM22.8671 575.806C23.627 575.492 24.4079 575.167 25.194 574.831L24.9372 574.223L22.6156 575.193L22.8671 575.806ZM27.5157 573.851C28.2756 573.526 29.0513 573.196 29.8322 572.845L29.5702 572.242L27.2589 573.238L27.5157 573.851ZM32.1486 571.844L34.4545 570.822L34.1872 570.219L31.8813 571.236L32.1486 571.844ZM36.7501 569.79L39.0508 568.741L38.7729 568.139L36.4828 569.187L36.7501 569.79ZM41.341 567.693L43.626 566.645L43.343 566.048L41.0633 567.096L41.341 567.693ZM45.9058 565.55C46.6605 565.193 47.4257 564.832 48.1856 564.465L47.8973 563.867L45.6228 564.952L45.9058 565.55ZM50.4496 563.37L52.7136 562.258L52.4201 561.666L50.1613 562.772L50.4496 563.37ZM54.9724 561.137L57.226 560.005L56.922 559.413L54.6737 560.545L54.9724 561.137ZM59.469 558.857L61.7121 557.699L61.403 557.112L59.1703 558.265L59.469 558.857ZM63.9447 556.53L66.172 555.346L65.8577 554.759L63.6355 555.943L63.9447 556.53ZM68.3941 554.156L70.6057 552.951L70.2914 552.369L68.0798 553.569L68.3941 554.156ZM72.807 551.73C73.5407 551.326 74.2796 550.917 75.0081 550.503L74.6831 549.922L72.4872 551.153L72.807 551.73ZM77.1987 549.251C77.9272 548.837 78.6609 548.417 79.3894 547.993L79.054 547.422L76.8739 548.679L77.1987 549.251ZM81.5592 546.725L83.7288 545.441L83.3882 544.869L81.2289 546.153L81.5592 546.725ZM224.959 546.421H227.438L227.469 545.76H224.959V546.421ZM222.443 546.421V545.76C221.605 545.76 220.766 545.76 219.933 545.76V546.426C220.724 546.405 221.563 546.415 222.412 546.415L222.443 546.421ZM230 546.379L232.516 546.321V545.661L230.006 545.718L230 546.379ZM217.422 546.347V545.687L214.912 545.614V546.274C215.688 546.3 216.526 546.321 217.375 546.342L217.422 546.347ZM235.053 546.243L237.573 546.148L237.542 545.483C236.703 545.525 235.865 545.556 235.032 545.582L235.053 546.243ZM212.375 546.174L212.407 545.514C211.568 545.477 210.73 545.435 209.897 545.388L209.86 546.054L212.375 546.174ZM240.089 546.028C240.927 545.991 241.766 545.944 242.605 545.891L242.568 545.231C241.729 545.283 240.891 545.325 240.057 545.367L240.089 546.028ZM207.344 545.907L207.386 545.247L204.881 545.069L204.829 545.729C205.61 545.787 206.453 545.849 207.297 545.902L207.344 545.907ZM245.12 545.745L247.631 545.577L247.589 544.917L245.078 545.084L245.12 545.745ZM202.324 545.525L202.376 544.864C201.537 544.791 200.704 544.712 199.871 544.628L199.808 545.294L202.324 545.525ZM250.146 545.388L252.662 545.184L252.604 544.518L250.094 544.723L250.146 545.388ZM197.298 545.032L197.376 544.372L194.876 544.083L194.792 544.738C195.579 544.838 196.412 544.932 197.224 545.027L197.298 545.032ZM255.167 544.964L257.677 544.723L257.614 544.062L255.104 544.298L255.167 544.964ZM260.182 544.471L262.693 544.204L262.614 543.543C261.781 543.638 260.942 543.727 260.114 543.811L260.182 544.471ZM192.293 544.408L192.382 543.753C191.548 543.643 190.72 543.523 189.892 543.402L189.798 544.057C190.579 544.172 191.412 544.293 192.245 544.403L192.293 544.408ZM85.9037 544.151L88.0525 542.841L87.7014 542.275L85.5526 543.585L85.9037 544.151ZM265.177 543.926L267.677 543.622L267.593 542.967L265.098 543.266L265.177 543.926ZM187.298 543.669L187.408 543.014C186.573 542.878 185.745 542.736 184.924 542.59L184.814 543.25L187.298 543.669ZM270.182 543.313H270.339L272.682 543.004L272.593 542.349L270.26 542.653H270.098L270.182 543.313ZM182.33 542.789L182.456 542.139L179.992 541.615L179.861 542.265C180.642 542.464 181.46 542.621 182.293 542.784L182.33 542.789ZM275.176 542.647L277.671 542.301L277.577 541.646L275.087 541.992L275.176 542.647ZM280.16 541.929C280.994 541.809 281.822 541.683 282.655 541.552L282.55 540.897L280.066 541.274L280.16 541.929ZM177.393 541.756L177.54 541.106C176.722 540.918 175.905 540.729 175.097 540.53L174.94 541.175C175.726 541.37 176.532 541.562 177.356 541.751L177.393 541.756ZM90.1908 541.51C90.9035 541.07 91.6163 540.619 92.3238 540.174L91.9727 539.613C91.2652 540.058 90.5524 540.509 89.8396 540.949L90.1908 541.51ZM285.15 541.154L287.634 540.75L287.529 540.095L285.045 540.499L285.15 541.154ZM172.503 540.556L172.671 539.917C171.86 539.704 171.053 539.484 170.25 539.257L170.066 539.896C170.842 540.123 171.638 540.341 172.456 540.551L172.503 540.556ZM290.123 540.336L292.602 539.906L292.487 539.251L290.008 539.681L290.123 540.336ZM295.081 539.466L297.56 539.015L297.439 538.36L294.966 538.811L295.081 539.466ZM167.64 539.194L167.839 538.559L165.439 537.815L165.239 538.444C165.984 538.69 166.785 538.947 167.593 539.188L167.64 539.194ZM94.4621 538.811C95.1696 538.355 95.8771 537.899 96.5584 537.438L96.1967 536.882L94.1004 538.25L94.4621 538.811ZM300.034 538.549L302.507 538.072L302.381 537.427L299.908 537.899L300.034 538.549ZM162.844 537.642L163.059 537.013C162.263 536.741 161.475 536.46 160.696 536.17L160.465 536.793C161.213 537.08 161.99 537.361 162.797 537.637L162.844 537.642ZM304.986 537.585L307.455 537.087L307.323 536.437L304.855 536.961L304.986 537.585ZM309.918 536.584L312.381 536.06L312.245 535.41L309.781 535.934L309.918 536.584ZM98.6756 536.06L100.772 534.66L100.4 534.11C99.7011 534.575 99.0023 535.039 98.3036 535.504L98.6756 536.06ZM158.107 535.887L158.353 535.268C157.567 534.964 156.781 534.645 156.031 534.325L155.775 534.933C156.498 535.253 157.279 535.572 158.059 535.881L158.107 535.887ZM314.839 535.536L315.625 535.363L315.483 534.718L314.703 534.886L314.839 535.536ZM153.463 533.921L153.731 533.319C152.965 532.973 152.206 532.616 151.461 532.27L151.173 532.868C151.889 533.221 152.637 533.57 153.416 533.916L153.463 533.921ZM102.837 533.245C103.534 532.774 104.22 532.291 104.933 531.809L104.556 531.285L102.491 532.711L102.837 533.245ZM148.914 531.731L149.218 531.138C148.469 530.756 147.735 530.363 147.007 529.965L146.687 530.541C147.373 530.934 148.112 531.338 148.867 531.725L148.914 531.731ZM106.988 530.363C107.674 529.875 108.361 529.388 109.042 528.89L108.649 528.366L106.605 529.828L106.988 530.363ZM144.507 529.315L144.842 528.743C144.119 528.324 143.406 527.884 142.704 527.444L142.348 528.004C142.997 528.418 143.715 528.838 144.444 529.283L144.507 529.315ZM111.081 527.433C111.779 526.937 112.456 526.434 113.109 525.924L112.711 525.4C112.04 525.924 111.364 526.406 110.693 526.904L111.081 527.433ZM140.23 526.626L140.602 526.076C139.905 525.604 139.224 525.127 138.548 524.64L138.16 525.164C138.779 525.636 139.465 526.118 140.167 526.595L140.23 526.626ZM115.127 524.404L117.134 522.832L116.725 522.308C116.061 522.828 115.394 523.342 114.723 523.848L115.127 524.404ZM136.142 523.66L136.546 523.136C135.882 522.622 135.23 522.098 134.591 521.563L134.172 522.088C134.773 522.601 135.409 523.115 136.079 523.628L136.142 523.66ZM119.115 521.296C119.775 520.772 120.43 520.248 121.08 519.724L120.666 519.2C120.016 519.724 119.361 520.248 118.706 520.772L119.115 521.296ZM132.254 520.421L132.694 519.928C132.075 519.373 131.462 518.802 130.865 518.225L130.404 518.702C130.97 519.264 131.565 519.827 132.191 520.39L132.254 520.421ZM123.035 518.125C123.685 517.591 124.33 517.053 124.969 516.511L124.544 515.987C123.905 516.511 123.26 517.062 122.611 517.596L123.035 518.125ZM128.569 516.883L129.046 516.427C128.465 515.82 127.899 515.212 127.348 514.588L126.824 515.028C127.395 515.657 127.972 516.26 128.569 516.883ZM126.835 514.845L128.737 513.189L128.297 512.691C127.668 513.246 127.034 513.791 126.4 514.342L126.835 514.845ZM125.21 513.105L125.734 512.685C125.203 512.036 124.679 511.379 124.162 510.715L123.638 511.113C124.13 511.784 124.651 512.451 125.199 513.115L125.21 513.105ZM130.624 511.506C131.247 510.946 131.866 510.374 132.484 509.808L132.028 509.321C131.42 509.892 130.797 510.453 130.173 511.019L130.624 511.506ZM122.176 509.075L122.7 508.692C122.233 508.021 121.772 507.324 121.321 506.596L120.76 506.947C121.232 507.686 121.693 508.399 122.165 509.075H122.176ZM134.334 508.089C134.953 507.508 135.561 506.931 136.163 506.339L135.702 505.867C135.099 506.449 134.492 507.031 133.884 507.602L134.334 508.089ZM119.482 504.803L120.058 504.468C119.639 503.748 119.235 503.016 118.848 502.272L118.261 502.581C118.612 503.331 119.042 504.075 119.461 504.803H119.482ZM137.961 504.578C138.558 503.98 139.151 503.388 139.738 502.786L139.266 502.319C138.679 502.922 138.087 503.514 137.494 504.106L137.961 504.578ZM141.493 500.977C142.077 500.366 142.653 499.753 143.223 499.138L142.735 498.687C142.164 499.3 141.593 499.914 141.011 500.516L141.493 500.977ZM117.134 500.317L117.731 500.034C117.38 499.295 117.034 498.53 116.683 497.754L116.07 498.011C116.405 498.797 116.757 499.573 117.113 500.317H117.134ZM144.91 497.277C145.476 496.649 146.032 496.025 146.582 495.386L146.089 494.951C145.534 495.585 144.978 496.208 144.418 496.832L144.91 497.277ZM115.148 495.663L115.766 495.433C115.472 494.657 115.193 493.871 114.927 493.074L114.299 493.284C114.561 494.091 114.838 494.882 115.137 495.663H115.148ZM148.228 493.478C148.773 492.835 149.311 492.189 149.842 491.539L149.318 491.119C148.794 491.764 148.27 492.409 147.709 493.048L148.228 493.478ZM113.539 490.857L114.178 490.674C113.942 489.877 113.727 489.07 113.518 488.258L112.873 488.42C113.072 489.264 113.298 490.056 113.528 490.878L113.539 490.857ZM151.425 489.552C151.949 488.897 152.473 488.232 152.997 487.561L152.473 487.157C151.949 487.828 151.425 488.483 150.932 489.144L151.425 489.552ZM112.302 485.957L112.952 485.816C112.773 485.009 112.611 484.186 112.464 483.363L111.809 483.478C111.951 484.333 112.113 485.161 112.291 485.978L112.302 485.957ZM154.49 485.548C154.99 484.867 155.483 484.184 155.968 483.499L155.444 483.117C154.962 483.798 154.471 484.478 153.972 485.155L154.49 485.548ZM157.41 481.429C157.881 480.732 158.353 480.03 158.809 479.333L158.253 478.971C157.797 479.668 157.336 480.365 156.859 481.068L157.41 481.429ZM111.411 480.978L112.066 480.884C111.945 480.067 111.841 479.239 111.746 478.405L111.086 478.479C111.175 479.343 111.275 480.177 111.4 480.999L111.411 480.978ZM160.151 477.205C160.601 476.487 161.036 475.769 161.466 475.046L160.895 474.71C160.469 475.43 160.034 476.143 159.59 476.849L160.151 477.205ZM110.829 475.963L111.49 475.911C111.427 475.088 111.369 474.249 111.327 473.411L110.667 473.442C110.709 474.333 110.751 475.151 110.829 475.984V475.963ZM162.713 472.866C163.122 472.132 163.527 471.397 163.929 470.659L163.347 470.34C162.949 471.077 162.544 471.809 162.132 472.536L162.713 472.866ZM110.551 470.916H111.212C111.212 470.224 111.212 469.533 111.212 468.82V468.395H110.546V468.82C110.546 469.548 110.557 470.251 110.572 470.937L110.551 470.916ZM165.098 468.421C165.48 467.667 165.858 466.912 166.214 466.157L165.617 465.869C165.255 466.619 164.888 467.373 164.506 468.118L165.098 468.421ZM111.275 465.916C111.275 465.083 111.337 464.25 111.385 463.406L110.724 463.369C110.677 464.218 110.635 465.057 110.609 465.895L111.275 465.916ZM167.31 463.883C167.659 463.111 167.993 462.337 168.311 461.561L167.703 461.304C167.378 462.075 167.048 462.845 166.702 463.61L167.31 463.883ZM111.552 460.901C111.621 460.073 111.694 459.24 111.783 458.401L111.123 458.333C111.034 459.177 110.96 460.015 110.892 460.848L111.552 460.901ZM169.254 459.208C169.558 458.427 169.851 457.636 170.134 456.844L169.511 456.624C169.228 457.41 168.936 458.193 168.635 458.972L169.254 459.208ZM112.066 455.901C112.166 455.078 112.281 454.25 112.407 453.412L111.752 453.317C111.626 454.156 111.51 454.994 111.411 455.817L112.066 455.901ZM170.947 454.465C171.209 453.663 171.471 452.893 171.696 452.06L171.062 451.871C170.821 452.668 170.58 453.443 170.318 454.256L170.947 454.465ZM112.773 450.933C112.91 450.1 113.051 449.271 113.193 448.454L112.538 448.344C112.396 449.161 112.255 449.995 112.118 450.828L112.773 450.933ZM172.362 449.628C172.577 448.816 172.776 448.003 172.97 447.186L172.325 447.034C172.131 447.846 171.932 448.653 171.717 449.46L172.362 449.628ZM113.664 445.985C113.827 445.157 113.989 444.335 114.157 443.522L113.507 443.391C113.34 444.204 113.177 445.032 113.015 445.86L113.664 445.985ZM173.525 444.722C173.688 443.905 173.85 443.077 173.992 442.244L173.337 442.133C173.19 442.956 173.043 443.774 172.875 444.591L173.525 444.722ZM114.686 441.054C114.87 440.226 115.058 439.413 115.247 438.606L114.608 438.46C114.414 439.262 114.22 440.084 114.037 440.912L114.686 441.054ZM174.364 439.744L174.034 439.707H174.369C174.489 438.858 174.589 438.051 174.689 437.249L174.028 437.176C173.934 437.972 173.834 438.748 173.719 439.581V439.67L174.364 439.744ZM115.839 436.19C116.054 435.368 116.274 434.56 116.489 433.764L115.855 433.586C115.63 434.382 115.415 435.195 115.2 436.017L115.839 436.19ZM174.945 434.733C175.024 433.884 175.087 433.046 175.139 432.218L174.479 432.171C174.427 432.993 174.364 433.832 174.285 434.676L174.945 434.733ZM117.181 431.358C117.422 430.546 117.668 429.749 117.92 428.963L117.291 428.759C117.04 429.549 116.79 430.352 116.542 431.17L117.181 431.358ZM175.26 429.702C175.286 428.848 175.302 428.004 175.302 427.171H174.641C174.641 427.999 174.641 428.832 174.6 429.676L175.26 429.702ZM118.711 426.558C118.984 425.761 119.235 424.985 119.55 424.199L118.926 423.969C118.638 424.744 118.36 425.541 118.082 426.343L118.711 426.558ZM174.605 424.65H175.27C175.27 423.791 175.202 422.952 175.145 422.124L174.484 422.171C174.542 422.973 174.584 423.801 174.605 424.65ZM120.446 421.851C120.761 421.062 121.077 420.29 121.395 419.535L120.787 419.273C120.462 420.038 120.142 420.814 119.828 421.61L120.446 421.851ZM174.275 419.656L174.94 419.582C174.851 418.728 174.741 417.895 174.62 417.072L173.965 417.166C174.086 417.979 174.165 418.807 174.275 419.656ZM122.39 417.24C122.74 416.467 123.089 415.713 123.439 414.976L122.846 414.677C122.474 415.421 122.118 416.186 121.762 416.962L122.39 417.24ZM173.541 414.703L174.191 414.577C174.034 413.744 173.855 412.911 173.667 412.104L173.027 412.261C173.221 413.052 173.399 413.875 173.557 414.703H173.541ZM124.602 412.738C125 411.99 125.404 411.26 125.813 410.547L125.241 410.217C124.829 410.933 124.42 411.67 124.015 412.428L124.602 412.738ZM172.388 409.871L173.022 409.682C172.781 408.854 172.498 408.047 172.231 407.272L171.607 407.497C171.885 408.231 172.147 409.032 172.388 409.871ZM127.112 408.424C127.568 407.701 128.019 407.004 128.48 406.328L127.956 405.956C127.491 406.655 127.03 407.354 126.573 408.052L127.112 408.424ZM170.69 405.154L171.298 404.887C170.952 404.09 170.585 403.315 170.208 402.591L169.621 402.901C169.972 403.613 170.349 404.368 170.69 405.154ZM129.927 404.258C130.451 403.571 130.975 402.906 131.468 402.293L130.943 401.868C130.419 402.492 129.895 403.163 129.371 403.865L129.927 404.258ZM168.4 400.741L168.96 400.39C168.51 399.672 168.028 398.965 167.519 398.294L166.995 398.692C167.472 399.347 167.949 400.039 168.4 400.741ZM133.113 400.401C133.679 399.788 134.261 399.18 134.848 398.603L134.381 398.132C133.789 398.713 133.197 399.332 132.62 399.955L133.113 400.401ZM136.687 396.926C137.348 396.36 138.008 395.841 138.637 395.354L138.244 394.83C137.599 395.307 136.934 395.836 136.258 396.402L136.687 396.926ZM165.402 396.785L165.889 396.339C165.314 395.713 164.703 395.12 164.06 394.562L163.625 395.055C164.244 395.595 164.834 396.167 165.391 396.769L165.402 396.785ZM140.697 393.981C141.401 393.542 142.127 393.14 142.872 392.775L142.573 392.183C141.823 392.555 141.069 392.969 140.345 393.42L140.697 393.981ZM161.66 393.551L162.032 393.001C161.323 392.525 160.584 392.095 159.82 391.711L159.527 392.304C160.262 392.671 160.971 393.088 161.649 393.551H161.66ZM145.141 391.79C145.917 391.506 146.708 391.263 147.51 391.062L147.352 390.422C146.526 390.622 145.712 390.871 144.915 391.166L145.141 391.79ZM157.247 391.371L157.452 390.742C156.639 390.475 155.809 390.267 154.967 390.118L154.852 390.773C155.661 390.914 156.458 391.113 157.237 391.371H157.247ZM149.91 390.637C150.729 390.541 151.554 390.504 152.378 390.527V389.867C151.525 389.85 150.671 389.885 149.821 389.972L149.91 390.637Z" fill="white"/>
<path d="M1721 180.664L1726.24 209.481L1783.87 188.825L1721 180.664Z" fill="#CCCCCC"/>
<path d="M1691.78 205.003L1783.87 188.825L1721 180.664L1691.78 205.003Z" fill="white"/>
<path d="M1732.18 167.263L1734.75 182.45L1783.87 188.825L1732.18 167.263Z" fill="#CCCCCC"/>
<path d="M1783.87 188.825L1733.91 177.503L1705.4 145.032L1783.87 188.825Z" fill="white"/>
<path d="M1378.68 264.381L1379.24 264.929L1379.69 264.473C1379.41 264.232 1379.15 263.977 1378.9 263.708L1377.97 262.807L1377.53 263.263C1377.9 263.619 1378.28 264.007 1378.68 264.381ZM1381.06 266.558C1381.66 267.067 1382.28 267.594 1382.91 268.105L1383.31 267.621C1382.68 267.109 1382.07 266.59 1381.47 266.074L1381.06 266.558ZM1375.85 261.498L1376.32 261.072C1375.78 260.474 1375.25 259.865 1374.76 259.262L1374.28 259.663C1374.79 260.251 1375.33 260.871 1375.87 261.48L1375.85 261.498ZM1384.79 269.624C1385.42 270.1 1386.07 270.584 1386.72 271.063L1387.1 270.551C1386.44 270.076 1385.8 269.6 1385.17 269.122L1384.79 269.624ZM1372.8 257.738L1373.32 257.366C1372.83 256.703 1372.39 256.043 1371.99 255.379L1371.45 255.716C1371.87 256.376 1372.33 257.054 1372.82 257.72L1372.8 257.738ZM1388.69 272.474C1389.34 272.922 1390 273.369 1390.69 273.82L1391.04 273.287C1390.36 272.843 1389.7 272.399 1389.05 271.951L1388.69 272.474ZM1370.2 253.65L1370.76 253.348C1370.38 252.644 1370.03 251.94 1369.72 251.211L1369.14 251.468C1369.49 252.157 1369.85 252.893 1370.23 253.618L1370.2 253.65ZM1392.73 275.113C1393.45 275.563 1394.14 275.957 1394.83 276.334L1395.13 275.769C1394.45 275.407 1393.77 275.013 1393.06 274.576L1392.73 275.113ZM1397 277.405C1397.74 277.738 1398.48 278.035 1399.24 278.329L1399.46 277.738C1398.72 277.458 1397.99 277.153 1397.26 276.823L1397 277.405ZM1368.24 249.205L1368.84 249.001C1368.57 248.218 1368.35 247.452 1368.17 246.718L1367.55 246.875C1367.77 247.588 1368 248.376 1368.27 249.173L1368.24 249.205ZM1401.54 279.097C1402.28 279.327 1403.05 279.54 1403.88 279.73L1404.03 279.111C1403.21 278.921 1402.45 278.719 1401.73 278.488L1401.54 279.097ZM1367.1 244.475L1367.73 244.385C1367.62 243.602 1367.54 242.814 1367.51 242.023L1366.88 242.047C1366.92 242.854 1367 243.658 1367.12 244.457L1367.1 244.475ZM1406.25 280.209C1407 280.337 1407.78 280.446 1408.65 280.547L1408.72 279.915C1407.86 279.824 1407.08 279.719 1406.36 279.584L1406.25 280.209ZM1366.9 239.608L1367.54 239.662C1367.59 238.871 1367.67 238.084 1367.8 237.301L1367.19 237.211C1367.06 237.999 1366.96 238.793 1366.91 239.59L1366.9 239.608ZM1411.07 280.742C1411.89 280.783 1412.71 280.803 1413.48 280.803L1413.49 280.172C1412.71 280.169 1411.91 280.145 1411.1 280.107L1411.07 280.742ZM1367.65 234.797L1368.26 234.959C1368.46 234.205 1368.69 233.436 1368.95 232.68L1368.35 232.469C1368.11 233.235 1367.87 234.018 1367.67 234.787L1367.65 234.797ZM1415.9 280.732C1416.7 280.689 1417.5 280.635 1418.31 280.556L1418.24 279.912C1417.44 279.987 1416.65 280.045 1415.86 280.084L1415.9 280.732ZM1420.72 280.266C1421.52 280.166 1422.31 280.026 1423.1 279.884L1423.01 279.265C1422.21 279.421 1421.42 279.549 1420.64 279.65L1420.72 280.266ZM1369.25 230.209L1369.83 230.47C1370.14 229.763 1370.52 229.042 1370.87 228.324L1370.31 228.031C1369.95 228.749 1369.59 229.484 1369.27 230.198L1369.25 230.209ZM1425.47 279.41C1426.25 279.239 1427.03 279.051 1427.82 278.844L1427.66 278.233C1426.88 278.436 1426.11 278.617 1425.34 278.777L1425.47 279.41ZM1371.52 225.922L1372.06 226.262C1372.47 225.583 1372.91 224.913 1373.37 224.269L1372.86 223.9C1372.41 224.548 1371.97 225.218 1371.54 225.911L1371.52 225.922ZM1430.15 278.215C1430.92 277.981 1431.69 277.746 1432.46 277.494L1432.27 276.891C1431.5 277.139 1430.73 277.377 1429.97 277.601L1430.15 278.215ZM1374.29 221.955L1374.8 222.341C1375.26 221.749 1375.77 221.125 1376.31 220.494L1375.83 220.082C1375.3 220.71 1374.78 221.331 1374.32 221.944L1374.29 221.955ZM1434.75 276.716C1435.49 276.439 1436.24 276.161 1437.02 275.883L1436.79 275.287C1436.03 275.581 1435.28 275.854 1434.56 276.141L1434.75 276.716ZM1377.46 218.265L1377.92 218.705C1378.19 218.421 1378.47 218.133 1378.74 217.853C1379.02 217.573 1379.3 217.278 1379.58 216.99L1379.13 216.547C1378.84 216.838 1378.56 217.133 1378.28 217.42C1378 217.708 1377.74 217.977 1377.47 218.268L1377.46 218.265ZM1439.27 274.978C1440 274.677 1440.74 274.358 1441.49 274.031L1441.23 273.443C1440.49 273.776 1439.75 274.096 1439.02 274.39L1439.27 274.978ZM1381.32 215.32C1381.9 214.784 1382.5 214.251 1383.11 213.717L1382.69 213.241C1382.08 213.775 1381.47 214.318 1380.89 214.855L1381.32 215.32ZM1443.69 273.028C1444.42 272.692 1445.14 272.346 1445.87 271.99L1445.59 271.42C1444.87 271.774 1444.15 272.114 1443.43 272.451L1443.69 273.028ZM1384.94 212.181C1385.55 211.675 1386.17 211.177 1386.81 210.682L1386.42 210.185C1385.78 210.68 1385.15 211.185 1384.53 211.687L1384.94 212.181ZM1448.02 270.92C1448.73 270.553 1449.44 270.178 1450.16 269.794L1449.86 269.235C1449.15 269.616 1448.44 269.988 1447.73 270.35L1448.02 270.92ZM1388.73 209.23C1389.37 208.76 1390.01 208.289 1390.68 207.823L1390.31 207.303C1389.64 207.774 1388.99 208.248 1388.35 208.718L1388.73 209.23ZM1452.29 268.633C1452.98 268.249 1453.68 267.853 1454.39 267.443L1454.07 266.902C1453.37 267.302 1452.67 267.695 1451.98 268.08L1452.29 268.633ZM1392.65 206.461C1393.3 206.016 1393.98 205.577 1394.64 205.128L1394.29 204.594C1393.61 205.037 1392.94 205.482 1392.29 205.935L1392.65 206.461ZM1456.47 266.222C1457.15 265.822 1457.84 265.397 1458.53 264.976L1458.19 264.435C1457.51 264.856 1456.82 265.27 1456.14 265.674L1456.47 266.222ZM1396.68 203.854C1397.36 203.433 1398.04 203.016 1398.74 202.598L1398.41 202.057C1397.71 202.478 1397.02 202.892 1396.35 203.313L1396.68 203.854ZM1460.57 263.706C1461.24 263.282 1461.92 262.843 1462.6 262.404L1462.26 261.867C1461.58 262.309 1460.9 262.748 1460.24 263.161L1460.57 263.706ZM1400.81 201.384C1401.49 200.988 1402.17 200.613 1402.89 200.202L1402.58 199.65C1401.88 200.043 1401.18 200.432 1400.49 200.836L1400.81 201.384ZM1464.61 261.074C1465.28 260.625 1465.94 260.179 1466.62 259.727L1466.26 259.207C1465.59 259.66 1464.93 260.109 1464.26 260.544L1464.61 261.074ZM1405.01 199.044C1405.71 198.669 1406.42 198.315 1407.13 197.922L1406.84 197.355C1406.12 197.734 1405.41 198.106 1404.71 198.485L1405.01 199.044ZM1468.59 258.347C1469.24 257.891 1469.9 257.428 1470.56 256.954L1470.19 256.442C1469.53 256.905 1468.88 257.372 1468.23 257.828L1468.59 258.347ZM1409.27 196.824C1409.98 196.463 1410.68 196.094 1411.42 195.754L1411.14 195.184C1410.42 195.535 1409.71 195.885 1408.98 196.254L1409.27 196.824ZM1472.51 255.54C1473.16 255.066 1473.8 254.589 1474.45 254.105L1474.07 253.6C1473.43 254.081 1472.78 254.554 1472.14 255.024L1472.51 255.54ZM1413.59 194.702C1414.3 194.362 1415.04 194.011 1415.77 193.685L1415.5 193.108C1414.77 193.441 1414.04 193.781 1413.31 194.132L1413.59 194.702ZM1476.37 252.656C1477.01 252.171 1477.65 251.684 1478.29 251.185L1477.9 250.687C1477.26 251.179 1476.63 251.666 1475.99 252.151L1476.37 252.656ZM1417.95 192.672C1418.67 192.353 1419.42 192.005 1420.14 191.7L1419.89 191.119C1419.15 191.44 1418.41 191.766 1417.68 192.098L1417.95 192.672ZM1480.17 249.697C1480.8 249.199 1481.43 248.704 1482.07 248.192L1481.67 247.705C1481.04 248.207 1480.41 248.701 1479.78 249.2L1480.17 249.697ZM1422.36 190.736C1423.08 190.431 1423.83 190.119 1424.57 189.814L1424.33 189.226C1423.59 189.527 1422.85 189.843 1422.11 190.158L1422.36 190.736ZM1483.95 246.665C1484.58 246.164 1485.19 245.658 1485.82 245.146L1485.41 244.648C1484.79 245.164 1484.17 245.673 1483.55 246.178L1483.95 246.665ZM1426.81 188.889L1429.05 188.013L1428.83 187.42C1428.07 187.718 1427.32 188.02 1426.57 188.304L1426.81 188.889ZM1487.67 243.602C1488.28 243.09 1488.9 242.57 1489.51 242.048L1489.1 241.561C1488.48 242.084 1487.87 242.607 1487.26 243.119L1487.67 243.602ZM1431.28 187.13C1432.03 186.842 1432.77 186.554 1433.52 186.264L1433.3 185.668L1431.04 186.524L1431.28 187.13ZM1491.33 240.486C1491.94 239.957 1492.55 239.43 1493.15 238.9L1492.74 238.424C1492.13 238.954 1491.52 239.481 1490.92 240L1491.33 240.486ZM1435.79 185.441C1436.54 185.168 1437.3 184.898 1438.05 184.625L1437.84 184.029C1437.08 184.302 1436.32 184.572 1435.58 184.845L1435.79 185.441ZM1494.98 237.314C1495.58 236.785 1496.18 236.248 1496.78 235.714L1496.36 235.242C1495.76 235.775 1495.16 236.312 1494.56 236.838L1494.98 237.314ZM1440.32 183.833L1442.59 183.046L1442.39 182.442L1440.11 183.23L1440.32 183.833ZM1444.88 182.279C1445.64 182.024 1446.4 181.773 1447.16 181.526L1446.97 180.923C1446.2 181.171 1445.43 181.423 1444.67 181.676L1444.88 182.279ZM1498.57 234.101C1499.16 233.564 1499.75 233.02 1500.35 232.48L1499.92 232.014C1499.33 232.555 1498.73 233.099 1498.14 233.628L1498.57 234.101ZM1449.45 180.791C1450.18 180.557 1450.91 180.33 1451.66 180.096L1451.75 180.07L1451.56 179.463L1451.47 179.493C1450.72 179.727 1449.99 179.954 1449.26 180.188L1449.45 180.791ZM1502.12 230.845C1502.7 230.305 1503.29 229.757 1503.88 229.207L1503.45 228.738C1502.86 229.292 1502.27 229.836 1501.69 230.38L1502.12 230.845ZM1454.05 179.367L1456.35 178.678L1456.18 178.064L1453.87 178.756L1454.05 179.367ZM1505.63 227.554C1506.21 227.003 1506.79 226.449 1507.38 225.891L1506.93 225.451C1506.34 226.009 1505.76 226.56 1505.18 227.114L1505.63 227.554ZM1458.67 177.992C1459.43 177.768 1460.21 177.544 1460.98 177.328L1460.8 176.724C1460.03 176.941 1459.26 177.161 1458.49 177.385L1458.67 177.992ZM1509.12 224.211C1509.7 223.66 1510.28 223.102 1510.86 222.53L1510.41 222.09C1509.83 222.648 1509.26 223.209 1508.68 223.763L1509.12 224.211ZM1463.31 176.667C1464.08 176.457 1464.85 176.24 1465.62 176.034L1465.46 175.423C1464.69 175.629 1463.91 175.839 1463.14 176.063L1463.31 176.667ZM1512.58 220.853L1514.29 219.156L1513.84 218.716C1513.28 219.294 1512.7 219.849 1512.12 220.41L1512.58 220.853ZM1467.97 175.419C1468.75 175.209 1469.52 175.004 1470.3 174.804L1470.14 174.193L1467.8 174.804L1467.97 175.419ZM1516.01 217.451C1516.57 216.875 1517.13 216.3 1517.72 215.739L1517.26 215.299C1516.71 215.874 1516.15 216.449 1515.57 217L1516.01 217.451ZM1472.63 174.214L1474.97 173.634L1474.81 173.019L1472.48 173.595L1472.63 174.214ZM1519.4 214.023C1519.96 213.448 1520.52 212.873 1521.08 212.294L1520.63 211.851C1520.07 212.429 1519.51 213.005 1518.95 213.58L1519.4 214.023ZM1477.31 173.058L1479.63 172.521L1479.48 171.906L1477.16 172.443L1477.31 173.058ZM1481.99 171.955C1482.76 171.777 1483.55 171.595 1484.33 171.432L1484.19 170.81C1483.41 170.982 1482.63 171.155 1481.85 171.329L1481.99 171.955ZM1522.31 210.132L1522.76 210.572C1523.32 210 1523.88 209.425 1524.44 208.846L1523.98 208.403C1523.4 209.014 1522.84 209.589 1522.29 210.164L1522.31 210.132ZM1486.69 170.905L1489.04 170.399L1488.91 169.777L1486.55 170.283L1486.69 170.905ZM1525.64 206.652L1526.1 207.092C1526.65 206.517 1527.21 205.942 1527.75 205.342L1527.3 204.902C1526.72 205.531 1526.16 206.11 1525.61 206.692L1525.64 206.652ZM1491.4 169.894L1493.77 169.399L1493.64 168.773L1491.27 169.268L1491.4 169.894ZM1528.96 203.162L1529.42 203.603L1531.06 201.842L1530.6 201.398L1528.96 203.162ZM1496.13 168.957L1498.51 168.472L1498.4 167.864L1496.04 168.32L1496.13 168.957ZM1532.24 199.634L1532.7 200.074C1533.26 199.499 1533.79 198.892 1534.33 198.3L1533.86 197.874C1533.26 198.464 1532.74 199.067 1532.2 199.66L1532.24 199.634ZM1500.86 168.045C1501.65 167.895 1502.44 167.749 1503.23 167.61L1503.13 166.995C1502.34 167.137 1501.54 167.287 1500.75 167.437L1500.86 168.045ZM1505.59 167.182L1507.97 166.762L1507.86 166.146L1505.49 166.56L1505.59 167.182ZM1535.51 196.095L1535.96 196.539C1536.5 195.943 1537.04 195.354 1537.58 194.758L1537.12 194.317C1536.53 194.922 1535.99 195.514 1535.45 196.107L1535.51 196.095ZM1510.35 166.38L1512.73 165.987L1512.63 165.368L1510.25 165.764L1510.35 166.38ZM1538.73 192.554L1539.18 192.994L1540.79 191.202L1540.34 190.758L1538.73 192.554ZM1515.1 165.627L1517.48 165.263L1517.39 164.637L1515.01 165.008L1515.1 165.627ZM1541.94 188.956L1542.4 189.399C1542.93 188.796 1543.46 188.189 1543.99 187.59L1543.51 187.171C1542.94 187.75 1542.4 188.336 1541.88 188.946L1541.94 188.956ZM1519.87 164.916C1520.68 164.805 1521.46 164.677 1522.25 164.566L1522.16 163.94C1521.36 164.044 1520.58 164.169 1519.78 164.287L1519.87 164.916ZM1545.13 185.361L1545.61 185.776C1546.14 185.173 1546.67 184.566 1547.19 183.96L1546.71 183.545C1546.12 184.131 1545.59 184.738 1545.06 185.341L1545.13 185.361ZM1524.63 164.231L1527.03 163.919L1526.95 163.286L1524.54 163.604L1524.63 164.231ZM1529.4 163.587L1531.8 163.28L1531.71 162.646L1529.32 162.95L1529.4 163.587ZM1548.28 181.728L1548.76 182.147C1549.29 181.54 1549.81 180.93 1550.34 180.32L1549.86 179.905C1549.26 180.495 1548.73 181.098 1548.21 181.708L1548.28 181.728ZM1534.18 162.997L1536.56 162.707L1536.47 162.074L1534.1 162.36L1534.18 162.997ZM1551.43 178.074L1551.91 178.489L1553.48 176.655L1552.99 176.251L1551.43 178.074ZM1538.94 162.446L1541.33 162.188L1541.26 161.544L1538.87 161.802L1538.94 162.446ZM1554.56 174.424L1555.05 174.832L1556.6 172.991L1556.11 172.587L1554.56 174.424ZM1543.73 161.948C1544.52 161.858 1545.31 161.766 1546.13 161.708L1546.05 161.067L1543.66 161.3L1543.73 161.948ZM1557.66 170.739L1558.15 171.143L1559.69 169.299L1559.2 168.891L1557.66 170.739ZM1548.49 161.471L1550.89 161.259L1550.82 160.615L1548.42 160.834L1548.49 161.471ZM1553.28 161.058L1555.68 160.871L1555.61 160.22L1553.22 160.407L1553.28 161.058ZM1560.72 167.026L1561.21 167.43L1562.74 165.575L1562.25 165.171L1560.72 167.026ZM1558.08 160.687L1560.48 160.518L1560.44 159.888L1558.03 160.054L1558.08 160.687ZM1563.78 163.309L1564.28 163.71L1565.8 161.845L1565.3 161.448L1563.78 163.309ZM1562.89 160.352C1563.69 160.298 1564.49 160.25 1565.29 160.207L1565.26 159.577C1564.46 159.613 1563.65 159.671 1562.85 159.722L1562.89 160.352ZM1566.83 159.568L1567.33 159.969L1567.67 159.531L1567.7 160.073C1568.5 160.031 1569.31 159.99 1570.11 159.95L1570.08 159.316C1569.3 159.355 1568.53 159.391 1567.75 159.434L1568.83 158.1L1568.34 157.703L1566.83 159.568ZM1572.52 159.84L1574.93 159.735L1574.91 159.108L1572.49 159.206L1572.52 159.84ZM1569.84 155.835L1570.33 156.232L1571.84 154.352L1571.34 153.956L1569.84 155.835ZM1577.34 159.625L1579.75 159.548L1579.73 158.906L1577.32 158.987L1577.34 159.625ZM1572.84 152.03L1573.33 152.427L1574.83 150.541L1574.33 150.144L1572.84 152.03ZM1582.15 159.478C1582.95 159.455 1583.76 159.44 1584.55 159.425L1584.54 158.791C1583.74 158.802 1582.94 158.82 1582.14 158.843L1582.15 159.478ZM1586.96 159.38L1589.37 159.352L1589.36 158.721L1586.95 158.749L1586.96 159.38ZM1575.82 148.262L1576.32 148.648L1577.81 146.751L1577.31 146.362L1575.82 148.262ZM1591.77 159.342L1594.18 159.339L1594.18 158.704L1591.77 158.704L1591.77 159.342ZM1578.74 144.459L1579.25 144.848L1580.73 142.941L1580.23 142.551L1578.74 144.459ZM1596.53 159.34L1598.94 159.362L1598.94 158.728L1596.54 158.709L1596.53 159.34ZM1581.7 140.651L1582.21 141.038C1582.7 140.399 1583.19 139.765 1583.68 139.123L1583.18 138.734C1582.69 139.4 1582.2 140.042 1581.71 140.683L1581.7 140.651ZM1601.35 159.395L1603.76 159.438L1603.77 158.81L1601.36 158.76L1601.35 159.395ZM1606.14 159.495C1606.94 159.519 1607.75 159.54 1608.55 159.57L1608.57 158.936C1607.77 158.908 1606.96 158.881 1606.17 158.861L1606.14 159.495ZM1584.65 136.802L1585.15 137.192L1586.62 135.27L1586.11 134.884L1584.65 136.802ZM1610.97 159.695L1613.37 159.798L1613.4 159.171C1612.6 159.13 1611.8 159.096 1610.99 159.067L1610.97 159.695ZM1587.59 133.002L1588.09 133.395C1588.58 132.757 1589.07 132.112 1589.56 131.467L1589.05 131.084C1588.56 131.726 1588.08 132.371 1587.59 133.002ZM1615.77 159.92L1618.18 160.051L1618.23 159.402C1617.45 159.339 1616.63 159.312 1615.82 159.27L1615.77 159.92ZM1620.59 160.194L1622.99 160.35L1623.04 159.705C1622.25 159.638 1621.44 159.593 1620.64 159.544L1620.59 160.194ZM1590.5 129.163L1591.01 129.539L1592.46 127.604L1591.95 127.228L1590.5 129.163ZM1625.38 160.525L1627.78 160.714L1627.84 160.075L1625.43 159.886L1625.38 160.525ZM1593.42 125.282L1593.93 125.658L1595.37 123.723L1594.87 123.344L1593.42 125.282ZM1630.19 160.895L1632.58 161.122L1632.65 160.487L1630.26 160.259L1630.19 160.895ZM1634.98 161.354L1637.38 161.592L1637.45 160.96L1635.05 160.722L1634.98 161.354ZM1596.29 121.409L1596.8 121.784C1597.29 121.136 1597.76 120.494 1598.24 119.846L1597.73 119.471C1597.24 120.13 1596.78 120.757 1596.28 121.42L1596.29 121.409ZM1639.76 161.869L1642.15 162.154L1642.22 161.525L1639.83 161.241L1639.76 161.869ZM1644.54 162.449C1645.35 162.536 1646.13 162.649 1646.92 162.769L1647 162.147L1644.6 161.835L1644.54 162.449ZM1599.16 117.532L1599.67 117.908L1601.1 115.962L1600.59 115.583L1599.16 117.532ZM1649.31 163.092C1650.1 163.208 1650.9 163.321 1651.68 163.444L1651.77 162.83C1650.98 162.71 1650.18 162.591 1649.38 162.482L1649.31 163.092ZM1602.01 113.645L1602.51 114.024C1602.99 113.369 1603.46 112.717 1603.94 112.065L1603.42 111.696C1602.95 112.345 1602.47 113.004 1602 113.649L1602.01 113.645ZM1654.05 163.818C1654.85 163.941 1655.64 164.071 1656.43 164.202L1656.52 163.591L1654.16 163.217L1654.05 163.818ZM1658.8 164.6C1659.59 164.744 1660.38 164.878 1661.18 165.033L1661.29 164.404C1660.5 164.26 1659.71 164.122 1658.91 163.978L1658.8 164.6ZM1604.84 109.744L1605.35 110.116C1605.82 109.464 1606.3 108.812 1606.76 108.156L1606.25 107.785C1605.78 108.444 1605.31 109.096 1604.83 109.748L1604.84 109.744ZM1663.54 165.463C1664.33 165.615 1665.12 165.767 1665.89 165.918L1666.01 165.296C1665.23 165.137 1664.44 164.982 1663.66 164.841L1663.54 165.463ZM1668.26 166.402L1670.61 166.899L1670.75 166.281C1669.97 166.122 1669.18 165.955 1668.39 165.779L1668.26 166.402ZM1607.66 105.829L1608.18 106.201C1608.65 105.549 1609.12 104.893 1609.58 104.241L1609.07 103.873C1608.59 104.532 1608.13 105.184 1607.66 105.832L1607.66 105.829ZM1672.95 167.425L1675.3 167.962L1675.44 167.347L1673.09 166.807L1672.95 167.425ZM1677.63 168.549C1678.41 168.736 1679.19 168.934 1679.96 169.128L1680.12 168.516C1679.34 168.315 1678.56 168.124 1677.78 167.93L1677.63 168.549ZM1610.47 101.914L1610.99 102.282L1612.39 100.312L1611.87 99.944L1610.47 101.914ZM1682.31 169.725C1683.09 169.93 1683.86 170.142 1684.63 170.354L1684.79 169.739C1684.02 169.527 1683.25 169.315 1682.47 169.11L1682.31 169.725ZM1686.94 171.005L1689.25 171.684L1689.43 171.075L1687.11 170.396L1686.94 171.005ZM1613.25 97.9604L1613.76 98.3286C1614.23 97.6732 1614.69 97.0178 1615.16 96.3518L1614.63 95.9907C1614.18 96.6636 1613.72 97.3226 1613.25 97.9744L1613.25 97.9604ZM1691.53 172.367C1692.29 172.599 1693.06 172.84 1693.82 173.089L1694.01 172.487C1693.25 172.238 1692.49 171.995 1691.71 171.758L1691.53 172.367ZM1696.1 173.843C1696.86 174.098 1697.63 174.356 1698.38 174.618L1698.58 174.02C1697.83 173.756 1697.08 173.491 1696.32 173.223L1696.1 173.843ZM1700.63 175.44L1702.9 176.251L1703.12 175.663C1702.36 175.39 1701.6 175.119 1700.84 174.848L1700.63 175.44ZM1705.13 177.129L1705.26 177.177L1705.49 176.585L1705.36 176.538L1705.13 177.129Z" fill="white"/>
</svg>
