<svg width="1920" height="1026" viewBox="0 0 1920 1026" fill="none" xmlns="http://www.w3.org/2000/svg">
<rect width="1920" height="1026" fill="white"/>
<rect width="1920" height="1026" fill="#03314B"/>
<path d="M402.503 713.485L433.108 742.757L483 669.687L402.503 713.485Z" fill="#CCCCCC"/>
<path d="M388.969 766.768L483 669.687L402.503 713.485L388.969 766.768Z" fill="white"/>
<path d="M404.228 688.315L420.117 703.9L483 669.687L404.228 688.315Z" fill="#CCCCCC"/>
<path d="M483 669.687L414.943 698.82L354.017 685.025L483 669.687Z" fill="white"/>
<path d="M-69.7095 793.294C-69.7095 793.294 -68.5429 792.903 -66.3621 792.128L-66.6663 791.265C-68.8399 792.033 -69.9993 792.417 -69.9993 792.417L-69.7095 793.294ZM-63.0581 790.947L-59.7761 789.744L-60.0876 788.882L-63.377 790.084L-63.0581 790.947ZM-56.5011 788.505L-53.2407 787.266L-53.5667 786.411L-56.8271 787.657L-56.5011 788.505ZM-49.9802 786.005L-46.727 784.723L-47.0675 783.868L-50.3062 785.15L-49.9802 786.005ZM-43.4593 783.419L-40.2277 782.107L-40.5756 781.259L-43.8071 782.571L-43.4593 783.419ZM-37.0035 780.774C-35.9529 780.339 -34.8734 779.89 -33.7866 779.426L-34.1416 778.586L-37.3513 779.926L-37.0035 780.774ZM-30.5769 778.071C-29.5263 777.622 -28.4538 777.166 -27.3743 776.68L-27.7365 775.847L-30.9319 777.224L-30.5769 778.071ZM-24.1718 775.296L-20.9839 773.884L-21.3534 773.05L-24.5414 774.456L-24.1718 775.296ZM-17.8103 772.456L-14.6296 771.007L-15.0137 770.174L-18.1798 771.623L-17.8103 772.456ZM-11.4633 769.558L-8.30438 768.109L-8.69567 767.283L-11.8473 768.732L-11.4633 769.558ZM-5.15254 766.595C-4.1092 766.102 -3.05129 765.602 -2.0007 765.095L-2.39924 764.269L-5.54383 765.769L-5.15254 766.595ZM1.1292 763.581L4.25928 762.044L3.8535 761.226L0.730667 762.755L1.1292 763.581ZM7.38211 760.494L10.4977 758.929L10.0774 758.11L6.96907 759.675L7.38211 760.494ZM13.5986 757.342L16.6997 755.741L16.2723 754.929L13.1857 756.523L13.5986 757.342ZM19.7862 754.125L22.8655 752.488L22.4309 751.676L19.3589 753.314L19.7862 754.125ZM25.9376 750.843L28.9952 749.177L28.5605 748.372L25.503 750.032L25.9376 750.843ZM32.0384 747.488C33.0528 746.93 34.0743 746.365 35.0814 745.793L34.6321 744.989L31.5963 746.691L32.0384 747.488ZM38.11 744.061C39.1171 743.489 40.1314 742.909 41.1385 742.322L40.6749 741.533L37.6609 743.272L38.11 744.061ZM44.1382 740.569L47.1378 738.794L46.6669 738.004L43.6817 739.779L44.1382 740.569ZM242.388 740.149H245.815L245.859 739.236H242.388V740.149ZM238.91 740.149V739.236C237.751 739.236 236.592 739.236 235.44 739.236V740.156C236.534 740.127 237.693 740.141 238.867 740.141L238.91 740.149ZM249.358 740.091L252.836 740.011V739.098L249.366 739.178L249.358 740.091ZM231.969 740.047V739.134L228.499 739.033V739.946C229.571 739.982 230.73 740.011 231.904 740.04L231.969 740.047ZM256.343 739.902L259.828 739.772L259.784 738.852C258.625 738.91 257.466 738.953 256.314 738.989L256.343 739.902ZM224.992 739.808L225.035 738.895C223.876 738.845 222.717 738.787 221.565 738.721L221.514 739.642L224.992 739.808ZM263.306 739.605C264.465 739.555 265.624 739.489 266.784 739.417L266.733 738.504C265.574 738.576 264.414 738.634 263.262 738.692L263.306 739.605ZM218.036 739.439L218.094 738.526L214.631 738.279L214.558 739.192C215.638 739.272 216.804 739.359 217.971 739.431L218.036 739.439ZM270.261 739.214L273.732 738.982L273.674 738.069L270.203 738.301L270.261 739.214ZM211.095 738.91L211.167 737.997C210.008 737.895 208.856 737.787 207.704 737.671L207.617 738.591L211.095 738.91ZM277.21 738.721L280.688 738.439L280.608 737.519L277.137 737.801L277.21 738.721ZM204.147 738.229L204.255 737.316L200.799 736.917L200.683 737.823C201.77 737.961 202.922 738.091 204.045 738.221L204.147 738.229ZM284.151 738.135L287.621 737.801L287.534 736.888L284.064 737.214L284.151 738.135ZM291.085 737.453L294.555 737.084L294.447 736.171C293.295 736.301 292.135 736.425 290.991 736.541L291.085 737.453ZM197.227 737.366L197.35 736.461C196.198 736.309 195.054 736.142 193.909 735.975L193.778 736.881C194.858 737.04 196.01 737.207 197.162 737.359L197.227 737.366ZM50.1447 737.011L53.1153 735.2L52.6299 734.418L49.6592 736.229L50.1447 737.011ZM297.99 736.7L301.446 736.28L301.33 735.374L297.881 735.787L297.99 736.7ZM190.322 736.345L190.475 735.439C189.32 735.251 188.175 735.055 187.04 734.852L186.888 735.765L190.322 736.345ZM304.909 735.852H305.126L308.365 735.425L308.242 734.519L305.018 734.939H304.793L304.909 735.852ZM183.454 735.128L183.628 734.229L180.222 733.505L180.041 734.403C181.121 734.678 182.251 734.896 183.403 735.12L183.454 735.128ZM311.814 734.932L315.263 734.454L315.132 733.548L311.691 734.026L311.814 734.932ZM318.704 733.939C319.856 733.773 321.001 733.599 322.153 733.418L322.008 732.512L318.574 733.034L318.704 733.939ZM176.628 733.7L176.831 732.802C175.701 732.541 174.571 732.28 173.455 732.005L173.238 732.896C174.324 733.167 175.438 733.432 176.578 733.693L176.628 733.7ZM56.0715 733.36C57.0569 732.751 58.0422 732.128 59.0203 731.512L58.5349 730.737C57.5568 731.353 56.5714 731.976 55.586 732.584L56.0715 733.36ZM325.602 732.867L329.036 732.309L328.892 731.403L325.457 731.961L325.602 732.867ZM169.868 732.041L170.1 731.157C168.98 730.862 167.864 730.558 166.753 730.244L166.499 731.128C167.572 731.442 168.673 731.744 169.803 732.034L169.868 732.041ZM332.478 731.737L335.905 731.143L335.746 730.237L332.319 730.831L332.478 731.737ZM339.332 730.534L342.759 729.911L342.593 729.005L339.173 729.628L339.332 730.534ZM163.145 730.157L163.42 729.281L160.102 728.252L159.826 729.121C160.855 729.462 161.964 729.817 163.079 730.15L163.145 730.157ZM61.9765 729.628C62.9547 728.998 63.9328 728.368 64.8747 727.73L64.3747 726.962L61.4766 728.853L61.9765 729.628ZM346.179 729.266L349.599 728.607L349.425 727.716L346.005 728.368L346.179 729.266ZM156.515 728.013L156.812 727.143C155.711 726.766 154.622 726.378 153.544 725.977L153.226 726.839C154.259 727.235 155.334 727.624 156.45 728.005L156.515 728.013ZM353.026 727.933L356.439 727.245L356.258 726.346L352.845 727.071L353.026 727.933ZM359.844 726.549L363.249 725.825L363.061 724.926L359.656 725.651L359.844 726.549ZM67.8018 725.825L70.7 723.89L70.1856 723.129C69.2195 723.772 68.2535 724.414 67.2874 725.056L67.8018 725.825ZM149.965 725.585L150.306 724.73C149.219 724.31 148.132 723.868 147.096 723.426L146.741 724.267C147.741 724.709 148.82 725.151 149.9 725.578L149.965 725.585ZM366.648 725.1L367.734 724.861L367.539 723.97L366.459 724.201L366.648 725.1ZM143.546 722.868L143.915 722.035C142.857 721.557 141.807 721.064 140.778 720.586L140.379 721.412C141.37 721.9 142.403 722.383 143.481 722.861L143.546 722.868ZM73.5547 721.934C74.5184 721.282 75.4675 720.615 76.4529 719.948L75.9313 719.224L73.0765 721.195L73.5547 721.934ZM137.257 719.84L137.677 719.021C136.641 718.492 135.627 717.949 134.619 717.398L134.177 718.195C135.126 718.738 136.148 719.296 137.191 719.833L137.257 719.84ZM79.2931 717.949C80.2422 717.275 81.1914 716.601 82.1333 715.913L81.5899 715.188L78.7642 717.21L79.2931 717.949ZM131.163 716.5L131.627 715.71C130.627 715.13 129.642 714.522 128.671 713.913L128.178 714.688C129.077 715.261 130.069 715.84 131.076 716.456L131.163 716.5ZM84.9518 713.898C85.9179 713.213 86.8525 712.517 87.7558 711.812L87.2051 711.087C86.2777 711.812 85.3431 712.478 84.4157 713.167L84.9518 713.898ZM125.251 712.783L125.765 712.022C124.802 711.37 123.86 710.71 122.925 710.037L122.389 710.761C123.244 711.413 124.193 712.08 125.164 712.739L125.251 712.783ZM90.5453 709.711L93.3203 707.537L92.7552 706.812C91.8374 707.532 90.9148 708.242 89.9874 708.943L90.5453 709.711ZM119.6 708.682L120.157 707.957C119.24 707.247 118.339 706.523 117.455 705.784L116.875 706.508C117.706 707.218 118.585 707.928 119.513 708.638L119.6 708.682ZM96.0591 705.414C96.972 704.69 97.8777 703.965 98.7761 703.24L98.2038 702.516C97.3053 703.24 96.3997 703.965 95.494 704.69L96.0591 705.414ZM114.223 704.204L114.832 703.523C113.977 702.755 113.129 701.965 112.303 701.168L111.666 701.828C112.448 702.605 113.272 703.383 114.136 704.161L114.223 704.204ZM101.479 701.031C102.377 700.292 103.268 699.548 104.152 698.799L103.565 698.074C102.681 698.799 101.79 699.56 100.892 700.299L101.479 701.031ZM109.13 699.313L109.789 698.683C108.985 697.843 108.202 697.002 107.442 696.14L106.717 696.749C107.507 697.618 108.304 698.451 109.13 699.313ZM106.732 696.495L109.362 694.205L108.753 693.517C107.884 694.285 107.007 695.039 106.13 695.799L106.732 696.495ZM104.486 694.089L105.21 693.51C104.476 692.611 103.751 691.703 103.036 690.786L102.312 691.336C102.993 692.264 103.713 693.186 104.471 694.104L104.486 694.089ZM111.97 691.88C112.832 691.104 113.687 690.315 114.542 689.532L113.912 688.858C113.071 689.648 112.209 690.423 111.347 691.206L111.97 691.88ZM100.29 688.518L101.015 687.989C100.37 687.061 99.7326 686.098 99.1094 685.091L98.3341 685.576C98.9862 686.598 99.6239 687.583 100.276 688.518H100.29ZM117.1 687.156C117.955 686.351 118.795 685.554 119.629 684.736L118.991 684.083C118.158 684.888 117.317 685.692 116.477 686.482L117.1 687.156ZM96.5663 682.613L97.3633 682.149C96.7836 681.154 96.2257 680.142 95.6895 679.113L94.878 679.541C95.3635 680.577 95.9576 681.606 96.5373 682.613H96.5663ZM122.114 682.301C122.94 681.475 123.758 680.656 124.57 679.823L123.918 679.178C123.106 680.012 122.288 680.83 121.469 681.649L122.114 682.301ZM126.997 677.323C127.804 676.478 128.601 675.63 129.388 674.78L128.714 674.157C127.925 675.005 127.135 675.853 126.331 676.686L126.997 677.323ZM93.3203 676.411L94.1462 676.019C93.6608 674.998 93.1826 673.94 92.6972 672.868L91.8495 673.223C92.3132 674.309 92.7986 675.382 93.2913 676.411H93.3203ZM131.721 672.208C132.504 671.339 133.272 670.477 134.032 669.593L133.351 668.991C132.583 669.868 131.815 670.73 131.04 671.592L131.721 672.208ZM90.5743 669.977L91.4292 669.658C91.0235 668.585 90.6371 667.499 90.27 666.397L89.4005 666.687C89.7628 667.803 90.1468 668.897 90.5598 669.977H90.5743ZM136.308 666.955C137.061 666.066 137.805 665.173 138.539 664.274L137.815 663.695C137.09 664.586 136.366 665.477 135.59 666.361L136.308 666.955ZM88.3499 663.333L89.2339 663.079C88.9079 661.978 88.6108 660.862 88.321 659.739L87.4298 659.963C87.7051 661.13 88.0167 662.224 88.3355 663.362L88.3499 663.333ZM140.727 661.528C141.452 660.623 142.176 659.703 142.901 658.775L142.176 658.217C141.452 659.145 140.727 660.05 140.046 660.963L140.727 661.528ZM86.64 656.558L87.5384 656.362C87.2921 655.247 87.0675 654.109 86.8646 652.972L85.9589 653.131C86.1546 654.312 86.3791 655.457 86.6255 656.587L86.64 656.558ZM144.966 655.993C145.657 655.051 146.338 654.107 147.009 653.16L146.285 652.631C145.618 653.573 144.939 654.512 144.249 655.449L144.966 655.993ZM149.002 650.298C149.654 649.334 150.306 648.363 150.936 647.4L150.168 646.9C149.538 647.863 148.9 648.827 148.241 649.798L149.002 650.298ZM85.4083 649.675L86.314 649.544C86.1473 648.414 86.0024 647.269 85.872 646.117L84.9591 646.219C85.0822 647.414 85.2199 648.566 85.3938 649.704L85.4083 649.675ZM152.791 644.458C153.414 643.466 154.015 642.473 154.61 641.473L153.82 641.009C153.231 642.004 152.629 642.99 152.016 643.965L152.791 644.458ZM84.6041 642.741L85.517 642.669C85.43 641.531 85.3503 640.372 85.2923 639.212L84.3794 639.256C84.4374 640.488 84.4954 641.618 84.6041 642.77V642.741ZM156.334 638.459C156.899 637.445 157.459 636.428 158.015 635.409L157.211 634.967C156.66 635.986 156.1 636.998 155.53 638.002L156.334 638.459ZM84.22 635.764H85.133C85.133 634.807 85.133 633.851 85.133 632.865V632.279H84.2128V632.865C84.2128 633.873 84.2273 634.843 84.249 635.793L84.22 635.764ZM159.631 632.315C160.16 631.271 160.681 630.228 161.174 629.185L160.348 628.786C159.848 629.822 159.341 630.866 158.812 631.895L159.631 632.315ZM85.2199 628.851C85.2199 627.699 85.3068 626.547 85.372 625.381L84.4591 625.33C84.3939 626.504 84.3359 627.663 84.2997 628.822L85.2199 628.851ZM162.688 626.04C163.171 624.973 163.633 623.903 164.072 622.83L163.232 622.475C162.782 623.541 162.326 624.606 161.848 625.663L162.688 626.04ZM85.6039 621.918C85.6981 620.773 85.7995 619.621 85.9227 618.461L85.0097 618.367C84.8866 619.534 84.7852 620.693 84.691 621.845L85.6039 621.918ZM165.376 619.577C165.797 618.498 166.202 617.404 166.594 616.31L165.731 616.005C165.34 617.092 164.937 618.174 164.521 619.251L165.376 619.577ZM86.314 615.005C86.4516 613.868 86.611 612.723 86.7849 611.564L85.8793 611.433C85.7054 612.593 85.5459 613.752 85.4083 614.889L86.314 615.005ZM167.717 613.02C168.079 611.912 168.441 610.847 168.753 609.694L167.876 609.434C167.543 610.535 167.209 611.607 166.847 612.73L167.717 613.02ZM87.2921 608.137C87.4805 606.985 87.6761 605.84 87.8718 604.71L86.9661 604.557C86.7704 605.688 86.5748 606.84 86.3864 607.992L87.2921 608.137ZM169.673 606.333C169.97 605.21 170.245 604.087 170.513 602.956L169.622 602.746C169.354 603.869 169.079 604.985 168.782 606.101L169.673 606.333ZM88.5239 601.297C88.7485 600.152 88.973 599.015 89.2049 597.892L88.3065 597.711C88.0746 598.834 87.85 599.978 87.6253 601.123L88.5239 601.297ZM171.281 599.551C171.506 598.421 171.731 597.276 171.926 596.124L171.021 595.972C170.818 597.109 170.615 598.239 170.383 599.37L171.281 599.551ZM89.9367 594.479C90.1903 593.334 90.4511 592.211 90.7119 591.095L89.828 590.893C89.5599 592.001 89.2919 593.139 89.0383 594.283L89.9367 594.479ZM172.441 592.668L171.984 592.617H172.448C172.614 591.443 172.752 590.327 172.89 589.219L171.977 589.117C171.846 590.219 171.709 591.291 171.549 592.443V592.566L172.441 592.668ZM91.5307 587.755C91.8277 586.618 92.132 585.502 92.4291 584.401L91.5524 584.154C91.2409 585.256 90.9438 586.379 90.6467 587.516L91.5307 587.755ZM173.245 585.741C173.353 584.567 173.44 583.408 173.513 582.263L172.6 582.198C172.528 583.336 172.441 584.495 172.332 585.661L173.245 585.741ZM93.3855 581.075C93.7188 579.952 94.0594 578.851 94.4072 577.764L93.5377 577.481C93.1899 578.573 92.8446 579.684 92.5016 580.814L93.3855 581.075ZM173.68 578.785C173.716 577.604 173.738 576.438 173.738 575.286H172.825C172.825 576.431 172.825 577.583 172.767 578.749L173.68 578.785ZM95.5011 574.438C95.8779 573.337 96.2258 572.265 96.6605 571.178L95.7982 570.859C95.3997 571.931 95.0157 573.033 94.6317 574.141L95.5011 574.438ZM172.774 571.801H173.694C173.694 570.613 173.6 569.453 173.52 568.309L172.607 568.374C172.687 569.482 172.745 570.627 172.774 571.801ZM97.8994 567.932C98.3342 566.84 98.7713 565.773 99.2109 564.729L98.3704 564.367C97.9212 565.425 97.4792 566.497 97.0444 567.598L97.8994 567.932ZM172.317 564.896L173.238 564.794C173.114 563.613 172.962 562.461 172.796 561.324L171.89 561.454C172.057 562.577 172.165 563.722 172.317 564.896ZM100.587 561.556C101.07 560.488 101.554 559.445 102.037 558.426L101.218 558.013C100.703 559.042 100.211 560.099 99.718 561.172L100.587 561.556ZM171.303 558.049L172.202 557.875C171.984 556.723 171.738 555.571 171.477 554.455L170.593 554.673C170.861 555.767 171.107 556.904 171.325 558.049H171.303ZM103.645 555.332C104.196 554.298 104.754 553.289 105.319 552.303L104.529 551.847C103.959 552.837 103.394 553.856 102.834 554.904L103.645 555.332ZM169.709 551.369L170.586 551.108C170.252 549.963 169.861 548.847 169.492 547.775L168.629 548.086C169.013 549.101 169.376 550.209 169.709 551.369ZM107.116 549.369C107.746 548.369 108.369 547.405 109.007 546.471L108.282 545.956C107.64 546.922 107.002 547.888 106.369 548.854L107.116 549.369ZM167.362 544.848L168.202 544.478C167.724 543.377 167.217 542.305 166.695 541.305L165.883 541.732C166.369 542.718 166.891 543.761 167.362 544.848ZM111.006 543.609C111.731 542.66 112.456 541.739 113.137 540.892L112.412 540.305C111.688 541.167 110.963 542.094 110.238 543.065L111.006 543.609ZM164.195 538.747L164.97 538.262C164.347 537.269 163.681 536.291 162.978 535.363L162.253 535.914C162.913 536.82 163.572 537.776 164.195 538.747ZM115.412 538.276C116.194 537.428 116.998 536.588 117.81 535.791L117.165 535.139C116.346 535.943 115.528 536.798 114.731 537.66L115.412 538.276ZM120.353 533.472C121.266 532.69 122.179 531.973 123.048 531.299L122.505 530.574C121.614 531.234 120.694 531.965 119.759 532.748L120.353 533.472ZM160.051 533.277L160.725 532.661C159.929 531.795 159.085 530.975 158.196 530.205L157.595 530.886C158.45 531.632 159.265 532.422 160.036 533.255L160.051 533.277ZM125.896 529.4C126.869 528.795 127.873 528.238 128.903 527.734L128.49 526.915C127.454 527.43 126.41 528.002 125.41 528.625L125.896 529.4ZM154.878 528.806L155.392 528.046C154.411 527.388 153.39 526.793 152.334 526.263L151.929 527.082C152.945 527.59 153.925 528.166 154.863 528.806H154.878ZM132.04 526.372C133.113 525.979 134.206 525.643 135.315 525.365L135.098 524.481C133.955 524.757 132.83 525.101 131.728 525.51L132.04 526.372ZM148.777 525.792L149.06 524.923C147.937 524.554 146.789 524.266 145.625 524.061L145.466 524.966C146.584 525.16 147.685 525.436 148.762 525.792H148.777ZM138.633 524.778C139.766 524.645 140.906 524.594 142.046 524.626V523.713C140.866 523.689 139.685 523.738 138.51 523.858L138.633 524.778Z" fill="white"/>
<path d="M1677.32 143.28L1681.45 179.799L1755.33 158.807L1677.32 143.28Z" fill="#CCCCCC"/>
<path d="M1638.68 171.282L1755.33 158.807L1677.32 143.28L1638.68 171.282Z" fill="white"/>
<path d="M1692.45 127.449L1694.39 146.678L1755.33 158.807L1692.45 127.449Z" fill="#CCCCCC"/>
<path d="M1755.33 158.807L1693.75 140.414L1660.8 97.3558L1755.33 158.807Z" fill="white"/>
<path d="M1241.7 219.17L1242.36 219.904L1242.96 219.37C1242.63 219.046 1242.32 218.704 1242.04 218.346L1240.95 217.139L1240.36 217.674C1240.79 218.151 1241.23 218.669 1241.7 219.17ZM1244.5 222.097C1245.21 222.785 1245.93 223.495 1246.68 224.19L1247.22 223.617C1246.47 222.923 1245.76 222.222 1245.06 221.525L1244.5 222.097ZM1238.4 215.321L1239.03 214.829C1238.4 214.034 1237.8 213.227 1237.23 212.431L1236.59 212.892C1237.18 213.671 1237.8 214.492 1238.42 215.3L1238.4 215.321ZM1248.91 226.249C1249.65 226.899 1250.42 227.559 1251.21 228.215L1251.72 227.605C1250.93 226.955 1250.17 226.304 1249.43 225.653L1248.91 226.249ZM1234.9 210.357L1235.58 209.935C1235.03 209.064 1234.53 208.2 1234.09 207.335L1233.38 207.712C1233.86 208.574 1234.37 209.461 1234.92 210.336L1234.9 210.357ZM1253.55 230.147C1254.32 230.762 1255.12 231.379 1255.94 232.001L1256.43 231.364C1255.61 230.75 1254.82 230.138 1254.04 229.523L1253.55 230.147ZM1231.99 205.02L1232.72 204.689C1232.31 203.776 1231.93 202.865 1231.6 201.926L1230.84 202.198C1231.23 203.091 1231.61 204.042 1232.04 204.982L1231.99 205.02ZM1258.38 233.792C1259.25 234.416 1260.07 234.968 1260.9 235.497L1261.33 234.816C1260.52 234.306 1259.69 233.754 1258.84 233.148L1258.38 233.792ZM1263.54 237.022C1264.43 237.501 1265.34 237.937 1266.26 238.368L1266.59 237.647C1265.69 237.234 1264.79 236.79 1263.92 236.316L1263.54 237.022ZM1229.91 199.289L1230.68 199.085C1230.42 198.082 1230.2 197.104 1230.04 196.17L1229.25 196.315C1229.46 197.226 1229.68 198.23 1229.95 199.251L1229.91 199.289ZM1269.08 239.524C1269.98 239.875 1270.92 240.205 1271.96 240.514L1272.19 239.751C1271.18 239.444 1270.25 239.127 1269.36 238.777L1269.08 239.524ZM1228.89 193.272L1229.68 193.212C1229.6 192.222 1229.58 191.229 1229.61 190.238L1228.81 190.213C1228.79 191.227 1228.83 192.241 1228.91 193.251L1228.89 193.272ZM1274.88 241.314C1275.8 241.537 1276.77 241.739 1277.86 241.939L1278 241.154C1276.92 240.968 1275.96 240.77 1275.08 240.541L1274.88 241.314ZM1229.04 187.161L1229.85 187.284C1229.97 186.298 1230.14 185.318 1230.36 184.35L1229.61 184.185C1229.38 185.16 1229.2 186.147 1229.07 187.14L1229.04 187.161ZM1280.86 242.388C1281.9 242.509 1282.91 242.603 1283.88 242.668L1283.94 241.879C1282.98 241.81 1281.97 241.712 1280.96 241.596L1280.86 242.388ZM1230.39 181.203L1231.15 181.457C1231.45 180.529 1231.81 179.585 1232.2 178.662L1231.47 178.348C1231.1 179.285 1230.73 180.246 1230.42 181.191L1230.39 181.203ZM1286.91 242.784C1287.92 242.797 1288.93 242.797 1289.95 242.767L1289.91 241.954C1288.91 241.981 1287.91 241.986 1286.92 241.969L1286.91 242.784ZM1292.99 242.607C1293.99 242.549 1295 242.442 1296.01 242.33L1295.94 241.547C1294.92 241.675 1293.92 241.769 1292.94 241.829L1292.99 242.607ZM1232.78 175.594L1233.48 175.969C1233.94 175.112 1234.47 174.24 1234.97 173.371L1234.29 172.957C1233.78 173.825 1233.27 174.715 1232.81 175.582L1232.78 175.594ZM1299.01 241.937C1300 241.789 1300.99 241.619 1302 241.428L1301.85 240.649C1300.85 240.837 1299.87 240.998 1298.91 241.134L1299.01 241.937ZM1235.99 170.419L1236.63 170.89C1237.21 170.074 1237.82 169.273 1238.44 168.505L1237.83 168.001C1237.22 168.775 1236.61 169.575 1236.02 170.407L1235.99 170.419ZM1304.97 240.837C1305.95 240.608 1306.94 240.38 1307.92 240.129L1307.74 239.357C1306.75 239.604 1305.77 239.836 1304.8 240.053L1304.97 240.837ZM1239.79 165.686L1240.39 166.212C1241.02 165.511 1241.71 164.772 1242.44 164.028L1241.88 163.472C1241.17 164.214 1240.45 164.946 1239.82 165.675L1239.79 165.686ZM1310.86 239.349C1311.8 239.064 1312.77 238.779 1313.76 238.496L1313.52 237.731C1312.55 238.036 1311.6 238.315 1310.66 238.613L1310.86 239.349ZM1244.07 161.335L1244.6 161.924C1244.97 161.592 1245.35 161.255 1245.71 160.927C1246.08 160.599 1246.46 160.254 1246.83 159.918L1246.3 159.324C1245.92 159.665 1245.54 160.01 1245.16 160.346C1244.79 160.683 1244.45 160.999 1244.09 161.34L1244.07 161.335ZM1316.65 237.554C1317.6 237.239 1318.55 236.902 1319.51 236.556L1319.25 235.798C1318.29 236.153 1317.33 236.49 1316.4 236.797L1316.65 237.554ZM1249.16 157.974C1249.92 157.352 1250.71 156.734 1251.53 156.118L1251.05 155.487C1250.23 156.103 1249.43 156.733 1248.66 157.356L1249.16 157.974ZM1322.36 235.487C1323.3 235.127 1324.23 234.755 1325.17 234.371L1324.87 233.633C1323.94 234.016 1323 234.381 1322.08 234.741L1322.36 235.487ZM1253.95 154.349C1254.75 153.769 1255.58 153.197 1256.42 152.632L1255.97 151.976C1255.13 152.541 1254.3 153.121 1253.48 153.697L1253.95 154.349ZM1327.96 233.214C1328.87 232.814 1329.8 232.404 1330.73 231.984L1330.41 231.259C1329.48 231.676 1328.56 232.082 1327.64 232.476L1327.96 233.214ZM1258.94 150.975C1259.78 150.441 1260.63 149.907 1261.5 149.378L1261.09 148.697C1260.2 149.23 1259.35 149.768 1258.51 150.302L1258.94 150.975ZM1333.49 230.71C1334.39 230.288 1335.3 229.851 1336.22 229.398L1335.86 228.693C1334.96 229.135 1334.05 229.568 1333.15 229.993L1333.49 230.71ZM1264.08 147.841C1264.94 147.338 1265.82 146.846 1266.69 146.34L1266.3 145.642C1265.41 146.138 1264.53 146.64 1263.68 147.151L1264.08 147.841ZM1338.93 228.045C1339.81 227.602 1340.72 227.129 1341.61 226.66L1341.24 225.954C1340.34 226.423 1339.45 226.884 1338.56 227.331L1338.93 228.045ZM1269.35 144.918C1270.23 144.448 1271.13 143.983 1272.03 143.519L1271.66 142.813C1270.76 143.282 1269.86 143.742 1268.98 144.212L1269.35 144.918ZM1344.27 225.242C1345.16 224.768 1346.04 224.276 1346.93 223.784L1346.54 223.082C1345.66 223.579 1344.77 224.071 1343.9 224.532L1344.27 225.242ZM1274.73 142.174C1275.62 141.736 1276.5 141.324 1277.44 140.87L1277.1 140.153C1276.18 140.585 1275.27 141.014 1274.37 141.461L1274.73 142.174ZM1349.56 222.289C1350.43 221.783 1351.3 221.281 1352.19 220.771L1351.78 220.09C1350.91 220.601 1350.04 221.108 1349.16 221.595L1349.56 222.289ZM1280.18 139.599C1281.09 139.189 1282.01 138.805 1282.93 138.373L1282.62 137.64C1281.69 138.054 1280.77 138.459 1279.85 138.874L1280.18 139.599ZM1354.77 219.211C1355.62 218.695 1356.49 218.171 1357.36 217.634L1356.93 216.961C1356.07 217.486 1355.21 218.014 1354.36 218.53L1354.77 219.211ZM1285.71 137.18C1286.62 136.787 1287.53 136.385 1288.49 136.022L1288.19 135.285C1287.25 135.663 1286.33 136.042 1285.39 136.441L1285.71 137.18ZM1359.91 216.028C1360.77 215.49 1361.61 214.947 1362.46 214.395L1362.03 213.73C1361.18 214.278 1360.34 214.817 1359.49 215.351L1359.91 216.028ZM1291.29 134.888C1292.21 134.523 1293.16 134.145 1294.1 133.799L1293.82 133.054C1292.87 133.408 1291.93 133.773 1290.99 134.151L1291.29 134.888ZM1365 212.743C1365.84 212.191 1366.67 211.634 1367.52 211.064L1367.07 210.408C1366.23 210.969 1365.4 211.526 1364.56 212.079L1365 212.743ZM1296.91 132.714C1297.85 132.376 1298.81 132.004 1299.74 131.684L1299.48 130.935C1298.52 131.273 1297.57 131.619 1296.63 131.973L1296.91 132.714ZM1370 209.361C1370.83 208.79 1371.66 208.224 1372.5 207.636L1372.04 206.992C1371.21 207.568 1370.38 208.134 1369.55 208.705L1370 209.361ZM1302.6 130.664C1303.54 130.344 1304.49 130.016 1305.45 129.697L1305.19 128.94C1304.24 129.254 1303.29 129.587 1302.34 129.919L1302.6 130.664ZM1374.98 205.884C1375.81 205.308 1376.62 204.728 1377.45 204.139L1376.98 203.482C1376.16 204.076 1375.35 204.66 1374.52 205.24L1374.98 205.884ZM1308.33 128.727L1311.22 127.82L1310.98 127.059C1310.01 127.369 1309.04 127.683 1308.08 127.975L1308.33 128.727ZM1379.9 202.363C1380.71 201.774 1381.52 201.175 1382.34 200.573L1381.86 199.928C1381.05 200.531 1380.24 201.134 1379.43 201.724L1379.9 202.363ZM1314.08 126.903C1315.04 126.606 1315.99 126.308 1316.95 126.008L1316.73 125.244L1313.83 126.123L1314.08 126.903ZM1384.75 198.772C1385.55 198.16 1386.36 197.553 1387.16 196.94L1386.68 196.309C1385.88 196.921 1385.07 197.529 1384.27 198.128L1384.75 198.772ZM1319.87 125.17C1320.83 124.891 1321.8 124.617 1322.77 124.339L1322.55 123.575C1321.58 123.853 1320.61 124.127 1319.65 124.405L1319.87 125.17ZM1389.59 195.109C1390.38 194.497 1391.17 193.875 1391.97 193.258L1391.48 192.631C1390.69 193.248 1389.89 193.87 1389.1 194.478L1389.59 195.109ZM1325.67 123.54L1328.58 122.745L1328.38 121.973L1325.47 122.767L1325.67 123.54ZM1331.51 121.978C1332.48 121.724 1333.45 121.474 1334.43 121.229L1334.24 120.457C1333.25 120.703 1332.28 120.955 1331.3 121.206L1331.51 121.978ZM1394.35 191.389C1395.14 190.767 1395.92 190.136 1396.71 189.51L1396.22 188.892C1395.43 189.518 1394.64 190.149 1393.85 190.762L1394.35 191.389ZM1337.36 120.502C1338.29 120.271 1339.23 120.049 1340.18 119.819L1340.3 119.794L1340.11 119.018L1339.99 119.048C1339.04 119.278 1338.11 119.5 1337.17 119.731L1337.36 120.502ZM1399.07 187.613C1399.84 186.986 1400.62 186.35 1401.41 185.711L1400.92 185.088C1400.12 185.732 1399.35 186.363 1398.57 186.994L1399.07 187.613ZM1343.24 119.108L1346.18 118.44L1346.01 117.656L1343.06 118.328L1343.24 119.108ZM1403.74 183.79C1404.52 183.15 1405.29 182.505 1406.07 181.856L1405.54 181.267C1404.76 181.916 1403.98 182.556 1403.21 183.201L1403.74 183.79ZM1349.14 117.777C1350.11 117.561 1351.1 117.347 1352.08 117.14L1351.92 116.37C1350.93 116.576 1349.95 116.787 1348.96 117.002L1349.14 117.777ZM1408.4 179.899C1409.16 179.259 1409.93 178.609 1410.71 177.942L1410.18 177.353C1409.41 178.003 1408.65 178.657 1407.88 179.302L1408.4 179.899ZM1355.06 116.51C1356.04 116.312 1357.02 116.106 1358.01 115.913L1357.86 115.135C1356.87 115.327 1355.88 115.525 1354.89 115.739L1355.06 116.51ZM1413.01 175.989L1415.29 174.008L1414.76 173.418C1414.01 174.096 1413.24 174.74 1412.47 175.395L1413.01 175.989ZM1361 115.341C1361.99 115.144 1362.98 114.953 1363.97 114.768L1363.82 113.989L1360.84 114.558L1361 115.341ZM1417.59 172.018C1418.34 171.345 1419.09 170.672 1419.87 170.019L1419.34 169.43C1418.59 170.103 1417.84 170.776 1417.07 171.416L1417.59 172.018ZM1366.93 114.226L1369.91 113.697L1369.77 112.915L1366.8 113.439L1366.93 114.226ZM1422.13 168.014C1422.88 167.342 1423.62 166.669 1424.38 165.991L1423.84 165.398C1423.09 166.075 1422.34 166.748 1421.59 167.421L1422.13 168.014ZM1372.89 113.174L1375.84 112.698L1375.7 111.916L1372.75 112.392L1372.89 113.174ZM1378.84 112.189C1379.83 112.032 1380.82 111.871 1381.82 111.732L1381.7 110.942C1380.7 111.091 1379.71 111.242 1378.72 111.394L1378.84 112.189ZM1426.09 163.388L1426.62 163.977C1427.37 163.309 1428.12 162.636 1428.87 161.959L1428.34 161.365C1427.55 162.08 1426.8 162.753 1426.06 163.427L1426.09 163.388ZM1384.81 111.271L1387.8 110.837L1387.69 110.047L1384.69 110.481L1384.81 111.271ZM1430.56 159.314L1431.09 159.903C1431.84 159.23 1432.59 158.557 1433.31 157.852L1432.78 157.263C1432 158.001 1431.26 158.678 1430.52 159.36L1430.56 159.314ZM1390.8 110.403L1393.8 109.984L1393.7 109.19L1390.69 109.61L1390.8 110.403ZM1435.01 155.225L1435.54 155.814L1437.74 153.749L1437.21 153.155L1435.01 155.225ZM1396.8 109.63L1399.82 109.225L1399.74 108.454L1396.74 108.825L1396.8 109.63ZM1439.42 151.085L1439.95 151.674C1440.69 151.001 1441.41 150.287 1442.14 149.591L1441.58 149.018C1440.79 149.706 1440.08 150.417 1439.36 151.113L1439.42 151.085ZM1402.8 108.888C1403.8 108.767 1404.79 108.651 1405.8 108.543L1405.72 107.765C1404.72 107.876 1403.71 107.997 1402.72 108.118L1402.8 108.888ZM1408.79 108.208L1411.8 107.882L1411.72 107.103L1408.72 107.42L1408.79 108.208ZM1443.8 146.931L1444.33 147.525C1445.06 146.824 1445.78 146.131 1446.5 145.43L1445.97 144.841C1445.18 145.547 1444.45 146.244 1443.72 146.94L1443.8 146.931ZM1414.82 107.605L1417.83 107.314L1417.76 106.531L1414.74 106.826L1414.82 107.605ZM1448.14 142.769L1448.67 143.358L1450.83 141.251L1450.3 140.657L1448.14 142.769ZM1420.82 107.064L1423.84 106.809L1423.77 106.017L1420.76 106.281L1420.82 107.064ZM1452.46 138.536L1452.99 139.13C1453.71 138.419 1454.42 137.705 1455.14 136.999L1454.58 136.435C1453.81 137.111 1453.09 137.799 1452.38 138.518L1452.46 138.536ZM1426.86 106.577C1427.88 106.506 1428.87 106.412 1429.87 106.34L1429.81 105.548C1428.8 105.611 1427.8 105.701 1426.79 105.781L1426.86 106.577ZM1456.76 134.306L1457.32 134.865C1458.03 134.155 1458.74 133.44 1459.45 132.725L1458.89 132.165C1458.09 132.849 1457.38 133.564 1456.67 134.274L1456.76 134.306ZM1432.88 106.121L1435.91 105.934L1435.85 105.134L1432.82 105.329L1432.88 106.121ZM1438.9 105.718L1441.93 105.535L1441.87 104.736L1438.85 104.914L1438.9 105.718ZM1461.01 130.024L1461.57 130.588C1462.28 129.873 1462.99 129.154 1463.7 128.434L1463.13 127.874C1462.34 128.562 1461.63 129.273 1460.92 129.993L1461.01 130.024ZM1444.94 105.383L1447.94 105.221L1447.89 104.421L1444.89 104.579L1444.94 105.383ZM1465.26 125.716L1465.82 126.275L1467.94 124.112L1467.36 123.564L1465.26 125.716ZM1450.94 105.096L1453.96 104.974L1453.92 104.162L1450.91 104.283L1450.94 105.096ZM1469.48 121.41L1470.06 121.961L1472.15 119.788L1471.58 119.241L1469.48 121.41ZM1456.98 104.876C1457.97 104.831 1458.97 104.781 1460 104.778L1459.96 103.969L1456.94 104.059L1456.98 104.876ZM1473.67 117.058L1474.25 117.605L1476.33 115.427L1475.75 114.875L1473.67 117.058ZM1462.98 104.682L1466 104.619L1465.97 103.807L1462.94 103.878L1462.98 104.682ZM1469.01 104.569L1472.03 104.537L1472 103.716L1468.99 103.748L1469.01 104.569ZM1477.82 112.669L1478.4 113.216L1480.47 111.023L1479.89 110.476L1477.82 112.669ZM1475.05 104.51L1478.07 104.501L1478.07 103.708L1475.04 103.713L1475.05 104.51ZM1481.96 108.274L1482.55 108.818L1484.61 106.611L1484.03 106.072L1481.96 108.274ZM1481.1 104.497C1482.11 104.497 1483.11 104.504 1484.12 104.518L1484.13 103.726C1483.13 103.705 1482.11 103.709 1481.1 103.704L1481.1 104.497ZM1486.09 103.848L1486.68 104.392L1487.16 103.873L1487.14 104.554C1488.16 104.569 1489.17 104.585 1490.17 104.603L1490.18 103.806C1489.21 103.791 1488.24 103.77 1487.27 103.759L1488.73 102.18L1488.14 101.641L1486.09 103.848ZM1493.2 104.67L1496.23 104.741L1496.25 103.954L1493.21 103.873L1493.2 104.67ZM1490.18 99.4285L1490.77 99.9672L1492.81 97.7418L1492.22 97.203L1490.18 99.4285ZM1499.25 104.807L1502.28 104.914L1502.31 104.11L1499.28 104.007L1499.25 104.807ZM1494.25 94.9191L1494.84 95.4578L1496.87 93.223L1496.29 92.6843L1494.25 94.9191ZM1505.28 105.029C1506.29 105.069 1507.3 105.118 1508.3 105.166L1508.34 104.371C1507.33 104.318 1506.33 104.272 1505.32 104.234L1505.28 105.029ZM1511.32 105.313L1514.34 105.481L1514.38 104.691L1511.36 104.522L1511.32 105.313ZM1498.31 90.4532L1498.91 90.9793L1500.93 88.7305L1500.33 88.2002L1498.31 90.4532ZM1517.34 105.672L1520.35 105.871L1520.41 105.077L1517.39 104.873L1517.34 105.672ZM1502.28 85.9387L1502.89 86.4695L1504.9 84.2071L1504.31 83.6767L1502.28 85.9387ZM1523.3 106.072L1526.32 106.303L1526.37 105.509L1523.36 105.282L1523.3 106.072ZM1506.32 81.4228L1506.92 81.9489C1507.59 81.1918 1508.26 80.4389 1508.92 79.6771L1508.33 79.1468C1507.65 79.9394 1506.99 80.7012 1506.32 81.463L1506.32 81.4228ZM1529.33 106.547L1532.34 106.804L1532.41 106.02L1529.39 105.753L1529.33 106.547ZM1535.32 107.078C1536.32 107.175 1537.33 107.269 1538.33 107.375L1538.4 106.582C1537.4 106.48 1536.4 106.378 1535.4 106.285L1535.32 107.078ZM1510.33 76.8521L1510.92 77.3824L1512.92 75.1013L1512.32 74.5753L1510.33 76.8521ZM1541.34 107.735L1544.35 108.068L1544.43 107.284C1543.43 107.166 1542.43 107.055 1541.42 106.951L1541.34 107.735ZM1514.33 72.3437L1514.93 72.8787C1515.59 72.1211 1516.26 71.3547 1516.92 70.5882L1516.33 70.0668C1515.66 70.8286 1514.99 71.595 1514.33 72.3437ZM1547.34 108.422L1550.34 108.791L1550.46 107.982C1549.49 107.837 1548.46 107.734 1547.46 107.614L1547.34 108.422ZM1553.34 109.172L1556.33 109.571L1556.46 108.767C1555.47 108.617 1554.47 108.492 1553.46 108.364L1553.34 109.172ZM1518.3 67.7842L1518.91 68.2972L1520.89 65.9975L1520.28 65.4844L1518.3 67.7842ZM1559.32 109.992L1562.3 110.43L1562.43 109.636L1559.44 109.197L1559.32 109.992ZM1522.28 63.172L1522.89 63.685L1524.86 61.3847L1524.26 60.8675L1522.28 63.172ZM1565.31 110.861L1568.29 111.348L1568.42 110.558L1565.44 110.071L1565.31 110.861ZM1571.27 111.84L1574.25 112.341L1574.39 111.556L1571.4 111.055L1571.27 111.84ZM1526.21 58.5658L1526.81 59.0788C1527.47 58.3077 1528.12 57.545 1528.77 56.7734L1528.17 56.2604C1527.5 57.0446 1526.87 57.7905 1526.19 58.5784L1526.21 58.5658ZM1577.2 112.889L1580.17 113.447L1580.32 112.667L1577.34 112.108L1577.2 112.889ZM1583.14 114.019C1584.14 114.196 1585.12 114.404 1586.09 114.62L1586.24 113.849L1583.27 113.255L1583.14 114.019ZM1530.12 53.9545L1530.73 54.4675L1532.68 52.1527L1532.08 51.6355L1530.12 53.9545ZM1589.06 115.227C1590.04 115.439 1591.02 115.647 1592 115.868L1592.16 115.106C1591.18 114.89 1590.19 114.672 1589.19 114.468L1589.06 115.227ZM1534.01 49.3287L1534.61 49.8459C1535.27 49.0654 1535.91 48.2891 1536.57 47.5134L1535.95 47.0088C1535.3 47.7804 1534.65 48.565 1534.01 49.3328L1534.01 49.3287ZM1594.94 116.536C1595.92 116.757 1596.9 116.987 1597.87 117.217L1598.04 116.46L1595.11 115.793L1594.94 116.536ZM1600.81 117.916C1601.79 118.163 1602.77 118.398 1603.75 118.659L1603.94 117.881C1602.97 117.634 1601.99 117.395 1601 117.146L1600.81 117.916ZM1537.89 44.6841L1538.5 45.1929C1539.15 44.4167 1539.79 43.6404 1540.43 42.8595L1539.83 42.3507C1539.18 43.1358 1538.53 43.9121 1537.88 44.6884L1537.89 44.6841ZM1606.67 119.397C1607.65 119.654 1608.62 119.91 1609.58 120.166L1609.78 119.397C1608.82 119.132 1607.84 118.871 1606.88 118.629L1606.67 119.397ZM1612.5 120.971L1615.41 121.792L1615.62 121.029C1614.66 120.765 1613.69 120.489 1612.72 120.203L1612.5 120.971ZM1541.76 40.0214L1542.37 40.5301C1543.01 39.7539 1543.66 38.9729 1544.29 38.1962L1543.68 37.6916C1543.03 38.4768 1542.39 39.2535 1541.75 40.0256L1541.76 40.0214ZM1618.29 122.649L1621.18 123.519L1621.41 122.761L1618.52 121.886L1618.29 122.649ZM1624.05 124.45C1625.01 124.75 1625.97 125.064 1626.92 125.373L1627.17 124.62C1626.21 124.302 1625.26 123.997 1624.29 123.688L1624.05 124.45ZM1545.61 35.3577L1546.22 35.8623L1548.14 33.5143L1547.52 33.0097L1545.61 35.3577ZM1629.8 126.318C1630.76 126.64 1631.71 126.971 1632.66 127.302L1632.92 126.545C1631.97 126.214 1631.02 125.883 1630.06 125.561L1629.8 126.318ZM1635.5 128.312L1638.33 129.357L1638.61 128.61L1635.76 127.564L1635.5 128.312ZM1549.41 30.6425L1550.02 31.1471C1550.67 30.3662 1551.3 29.5848 1551.94 28.7903L1551.32 28.2941C1550.69 29.0984 1550.06 29.884 1549.42 30.6608L1549.41 30.6425ZM1641.13 130.404C1642.07 130.76 1643 131.126 1643.93 131.501L1644.22 130.764C1643.29 130.389 1642.36 130.02 1641.41 129.658L1641.13 130.404ZM1646.73 132.638C1647.66 133.021 1648.59 133.409 1649.51 133.801L1649.82 133.069C1648.9 132.676 1647.98 132.28 1647.06 131.881L1646.73 132.638ZM1652.26 135.019L1655.03 136.226L1655.36 135.509C1654.43 135.103 1653.51 134.7 1652.58 134.297L1652.26 135.019ZM1657.75 137.515L1657.91 137.585L1658.25 136.864L1658.09 136.793L1657.75 137.515Z" fill="white"/>
</svg>
