<svg width="1920" height="486" viewBox="0 0 1920 486" fill="none" xmlns="http://www.w3.org/2000/svg">
<rect width="1920" height="486" fill="white"/>
<rect width="1920" height="486" fill="#03314B"/>
<path d="M340.788 411.134L362.925 432.307L399.014 379.453L340.788 411.134Z" fill="#CCCCCC"/>
<path d="M330.998 449.675L399.014 379.453L340.788 411.134L330.998 449.675Z" fill="white"/>
<path d="M342.035 392.928L353.529 404.201L399.014 379.453L342.035 392.928Z" fill="#CCCCCC"/>
<path d="M399.014 379.453L349.787 400.527L305.716 390.548L399.014 379.453Z" fill="white"/>
<path d="M-0.77637 468.862C-0.77637 468.862 0.0674642 468.579 1.64495 468.018L1.42488 467.395C-0.147369 467.95 -0.985952 468.228 -0.985952 468.228L-0.77637 468.862ZM4.0348 467.164L6.40878 466.294L6.18346 465.671L3.80411 466.54L4.0348 467.164ZM8.77765 465.398L11.136 464.502L10.9002 463.883L8.54184 464.785L8.77765 465.398ZM13.4944 463.59L15.8475 462.662L15.6012 462.044L13.2586 462.971L13.4944 463.59ZM18.2111 461.719L20.5487 460.77L20.297 460.157L17.9596 461.106L18.2111 461.719ZM22.8808 459.806C23.6407 459.492 24.4216 459.167 25.2077 458.831L24.9509 458.223L22.6292 459.193L22.8808 459.806ZM27.5293 457.851C28.2893 457.526 29.065 457.196 29.8459 456.845L29.5838 456.242L27.2726 457.238L27.5293 457.851ZM32.1623 455.844L34.4682 454.822L34.2009 454.219L31.895 455.236L32.1623 455.844ZM36.7637 453.79L39.0644 452.741L38.7866 452.139L36.4965 453.187L36.7637 453.79ZM41.3547 451.693L43.6396 450.645L43.3566 450.048L41.0769 451.096L41.3547 451.693ZM45.9195 449.55C46.6741 449.193 47.4393 448.832 48.1993 448.465L47.911 447.867L45.6364 448.952L45.9195 449.55ZM50.4632 447.37L52.7273 446.258L52.4338 445.666L50.1749 446.772L50.4632 447.37ZM54.9861 445.137L57.2397 444.005L56.9357 443.413L54.6874 444.545L54.9861 445.137ZM59.4827 442.857L61.7257 441.699L61.4166 441.112L59.184 442.265L59.4827 442.857ZM63.9583 440.53L66.1857 439.346L65.8713 438.759L63.6492 439.943L63.9583 440.53ZM68.4078 438.156L70.6194 436.951L70.305 436.369L68.0934 437.569L68.4078 438.156ZM72.8207 435.73C73.5544 435.326 74.2933 434.917 75.0218 434.503L74.6968 433.922L72.5009 435.153L72.8207 435.73ZM77.2124 433.251C77.9409 432.837 78.6746 432.417 79.403 431.993L79.0677 431.422L76.8876 432.679L77.2124 433.251ZM81.5728 430.725L83.7425 429.441L83.4019 428.869L81.2426 430.153L81.5728 430.725ZM224.972 430.421H227.451L227.483 429.76H224.972V430.421ZM222.457 430.421V429.76C221.618 429.76 220.78 429.76 219.946 429.76V430.426C220.738 430.405 221.576 430.415 222.425 430.415L222.457 430.421ZM230.014 430.379L232.53 430.321V429.661L230.019 429.718L230.014 430.379ZM217.436 430.347V429.687L214.926 429.614V430.274C215.701 430.3 216.54 430.321 217.389 430.342L217.436 430.347ZM235.066 430.243L237.587 430.148L237.556 429.483C236.717 429.525 235.878 429.556 235.045 429.582L235.066 430.243ZM212.389 430.174L212.421 429.514C211.582 429.477 210.744 429.435 209.91 429.388L209.873 430.054L212.389 430.174ZM240.103 430.028C240.941 429.991 241.78 429.944 242.618 429.891L242.582 429.231C241.743 429.283 240.904 429.325 240.071 429.367L240.103 430.028ZM207.358 429.907L207.4 429.247L204.895 429.069L204.842 429.729C205.623 429.787 206.467 429.849 207.311 429.902L207.358 429.907ZM245.134 429.745L247.644 429.577L247.602 428.917L245.092 429.084L245.134 429.745ZM202.337 429.525L202.39 428.864C201.551 428.791 200.718 428.712 199.885 428.628L199.822 429.294L202.337 429.525ZM250.16 429.388L252.675 429.184L252.618 428.518L250.107 428.723L250.16 429.388ZM197.311 429.032L197.39 428.372L194.89 428.083L194.806 428.738C195.592 428.838 196.426 428.932 197.238 429.027L197.311 429.032ZM255.18 428.964L257.691 428.723L257.628 428.062L255.118 428.298L255.18 428.964ZM260.196 428.471L262.706 428.204L262.628 427.543C261.794 427.638 260.956 427.727 260.128 427.811L260.196 428.471ZM192.306 428.408L192.395 427.753C191.562 427.643 190.734 427.523 189.906 427.402L189.812 428.057C190.592 428.172 191.426 428.293 192.259 428.403L192.306 428.408ZM85.9174 428.151L88.0662 426.841L87.7151 426.275L85.5663 427.585L85.9174 428.151ZM265.19 427.926L267.69 427.622L267.606 426.967L265.112 427.266L265.19 427.926ZM187.312 427.669L187.422 427.014C186.587 426.878 185.759 426.736 184.938 426.59L184.828 427.25L187.312 427.669ZM270.195 427.313H270.353L272.695 427.004L272.606 426.349L270.274 426.653H270.112L270.195 427.313ZM182.343 426.789L182.469 426.139L180.006 425.615L179.875 426.265C180.656 426.464 181.473 426.621 182.307 426.784L182.343 426.789ZM275.19 426.647L277.685 426.301L277.59 425.646L275.101 425.992L275.19 426.647ZM280.174 425.929C281.007 425.809 281.835 425.683 282.669 425.552L282.564 424.897L280.08 425.274L280.174 425.929ZM177.407 425.756L177.553 425.106C176.736 424.918 175.918 424.729 175.111 424.53L174.954 425.175C175.74 425.37 176.545 425.562 177.37 425.751L177.407 425.756ZM90.2045 425.51C90.9172 425.07 91.6299 424.619 92.3374 424.174L91.9863 423.613C91.2788 424.058 90.566 424.509 89.8533 424.949L90.2045 425.51ZM285.163 425.154L287.647 424.75L287.543 424.095L285.058 424.499L285.163 425.154ZM172.517 424.556L172.685 423.917C171.874 423.704 171.067 423.484 170.263 423.256L170.08 423.896C170.856 424.123 171.652 424.341 172.47 424.551L172.517 424.556ZM290.137 424.336L292.616 423.906L292.5 423.251L290.022 423.681L290.137 424.336ZM295.095 423.466L297.573 423.015L297.453 422.36L294.979 422.811L295.095 423.466ZM167.653 423.194L167.853 422.559L165.452 421.815L165.253 422.444C165.997 422.69 166.799 422.947 167.606 423.188L167.653 423.194ZM94.4757 422.811C95.1833 422.355 95.8908 421.899 96.5721 421.438L96.2104 420.882L94.1141 422.25L94.4757 422.811ZM300.047 422.549L302.521 422.072L302.395 421.427L299.921 421.899L300.047 422.549ZM162.858 421.642L163.073 421.013C162.276 420.741 161.488 420.46 160.709 420.17L160.479 420.793C161.226 421.08 162.004 421.361 162.811 421.637L162.858 421.642ZM305 421.585L307.468 421.087L307.337 420.437L304.869 420.961L305 421.585ZM309.931 420.584L312.395 420.06L312.258 419.41L309.795 419.934L309.931 420.584ZM98.6893 420.06L100.786 418.66L100.414 418.11C99.7148 418.575 99.016 419.039 98.3172 419.504L98.6893 420.06ZM158.12 419.887L158.367 419.268C157.581 418.964 156.794 418.645 156.045 418.325L155.788 418.933C156.511 419.253 157.292 419.572 158.073 419.881L158.12 419.887ZM314.853 419.536L315.639 419.363L315.497 418.718L314.716 418.886L314.853 419.536ZM153.477 417.921L153.744 417.319C152.979 416.973 152.219 416.616 151.475 416.27L151.187 416.868C151.903 417.221 152.651 417.57 153.43 417.916L153.477 417.921ZM102.851 417.245C103.548 416.774 104.234 416.291 104.947 415.809L104.57 415.285L102.505 416.711L102.851 417.245ZM148.928 415.731L149.232 415.138C148.482 414.756 147.749 414.363 147.02 413.965L146.701 414.541C147.387 414.934 148.126 415.338 148.881 415.725L148.928 415.731ZM107.001 414.363C107.688 413.875 108.374 413.388 109.056 412.89L108.663 412.366L106.619 413.828L107.001 414.363ZM144.52 413.315L144.856 412.743C144.133 412.324 143.42 411.884 142.718 411.444L142.361 412.004C143.011 412.418 143.729 412.838 144.458 413.283L144.52 413.315ZM111.094 411.433C111.793 410.937 112.469 410.434 113.123 409.924L112.724 409.4C112.053 409.924 111.377 410.406 110.707 410.904L111.094 411.433ZM140.244 410.626L140.616 410.076C139.919 409.604 139.238 409.127 138.562 408.64L138.174 409.164C138.792 409.636 139.479 410.118 140.181 410.595L140.244 410.626ZM115.14 408.404L117.148 406.832L116.739 406.308C116.075 406.828 115.408 407.342 114.737 407.848L115.14 408.404ZM136.156 407.66L136.56 407.136C135.896 406.622 135.244 406.098 134.605 405.563L134.185 406.088C134.786 406.601 135.422 407.115 136.093 407.628L136.156 407.66ZM119.129 405.296C119.789 404.772 120.444 404.248 121.094 403.724L120.68 403.2C120.03 403.724 119.375 404.248 118.72 404.772L119.129 405.296ZM132.267 404.421L132.708 403.928C132.089 403.373 131.476 402.802 130.879 402.225L130.417 402.702C130.983 403.264 131.579 403.827 132.204 404.39L132.267 404.421ZM123.049 402.125C123.699 401.591 124.343 401.053 124.983 400.511L124.558 399.987C123.919 400.511 123.274 401.062 122.624 401.596L123.049 402.125ZM128.583 400.883L129.06 400.427C128.478 399.82 127.912 399.212 127.362 398.588L126.838 399.028C127.409 399.657 127.986 400.26 128.583 400.883ZM126.848 398.845L128.751 397.189L128.31 396.691C127.682 397.246 127.047 397.791 126.413 398.342L126.848 398.845ZM125.224 397.105L125.748 396.685C125.217 396.036 124.693 395.379 124.175 394.715L123.651 395.113C124.144 395.784 124.665 396.451 125.213 397.115L125.224 397.105ZM130.637 395.506C131.261 394.946 131.879 394.374 132.498 393.808L132.042 393.321C131.434 393.892 130.81 394.453 130.187 395.019L130.637 395.506ZM122.189 393.075L122.713 392.692C122.247 392.021 121.786 391.324 121.335 390.596L120.774 390.947C121.246 391.686 121.707 392.399 122.179 393.075H122.189ZM134.348 392.089C134.966 391.508 135.574 390.931 136.177 390.339L135.716 389.867C135.113 390.449 134.505 391.031 133.897 391.602L134.348 392.089ZM119.495 388.803L120.072 388.468C119.653 387.748 119.249 387.016 118.861 386.272L118.274 386.581C118.625 387.331 119.055 388.075 119.474 388.803H119.495ZM137.975 388.578C138.572 387.98 139.164 387.388 139.751 386.786L139.28 386.319C138.693 386.922 138.1 387.514 137.508 388.106L137.975 388.578ZM141.507 384.977C142.09 384.366 142.667 383.753 143.236 383.138L142.749 382.687C142.178 383.3 141.606 383.914 141.025 384.516L141.507 384.977ZM117.148 384.317L117.745 384.034C117.394 383.295 117.048 382.53 116.697 381.754L116.084 382.011C116.419 382.797 116.77 383.573 117.127 384.317H117.148ZM144.924 381.277C145.49 380.649 146.045 380.025 146.596 379.386L146.103 378.951C145.548 379.585 144.992 380.208 144.431 380.832L144.924 381.277ZM115.161 379.663L115.78 379.433C115.486 378.657 115.207 377.871 114.941 377.074L114.312 377.284C114.574 378.091 114.852 378.882 115.151 379.663H115.161ZM148.241 377.478C148.786 376.835 149.324 376.189 149.856 375.539L149.331 375.119C148.807 375.764 148.283 376.409 147.723 377.048L148.241 377.478ZM113.552 374.857L114.192 374.674C113.956 373.877 113.741 373.07 113.531 372.258L112.887 372.42C113.086 373.264 113.311 374.056 113.542 374.878L113.552 374.857ZM151.438 373.552C151.962 372.897 152.486 372.232 153.011 371.561L152.486 371.157C151.962 371.828 151.438 372.483 150.946 373.144L151.438 373.552ZM112.315 369.957L112.965 369.816C112.787 369.009 112.625 368.186 112.478 367.363L111.823 367.478C111.964 368.333 112.127 369.161 112.305 369.978L112.315 369.957ZM154.504 369.548C155.004 368.867 155.496 368.184 155.982 367.499L155.458 367.117C154.976 367.798 154.485 368.478 153.985 369.155L154.504 369.548ZM157.423 365.429C157.895 364.732 158.367 364.03 158.823 363.333L158.267 362.971C157.811 363.668 157.35 364.365 156.873 365.068L157.423 365.429ZM111.425 364.978L112.08 364.884C111.959 364.067 111.854 363.239 111.76 362.405L111.1 362.479C111.189 363.343 111.288 364.177 111.414 364.999L111.425 364.978ZM160.164 361.205C160.615 360.487 161.05 359.769 161.48 359.046L160.908 358.71C160.482 359.43 160.047 360.143 159.603 360.849L160.164 361.205ZM110.843 359.963L111.503 359.911C111.44 359.088 111.383 358.249 111.341 357.411L110.68 357.442C110.722 358.333 110.764 359.151 110.843 359.984V359.963ZM162.727 356.866C163.136 356.132 163.541 355.397 163.943 354.659L163.361 354.34C162.963 355.077 162.558 355.809 162.145 356.536L162.727 356.866ZM110.565 354.916H111.225C111.225 354.224 111.225 353.533 111.225 352.82V352.395H110.56V352.82C110.56 353.548 110.57 354.251 110.586 354.937L110.565 354.916ZM165.112 352.421C165.494 351.667 165.871 350.912 166.228 350.157L165.63 349.869C165.269 350.619 164.902 351.373 164.519 352.118L165.112 352.421ZM111.288 349.916C111.288 349.083 111.351 348.25 111.398 347.406L110.738 347.369C110.691 348.218 110.649 349.057 110.623 349.895L111.288 349.916ZM167.323 347.883C167.673 347.111 168.006 346.337 168.324 345.561L167.716 345.304C167.391 346.075 167.061 346.845 166.715 347.61L167.323 347.883ZM111.566 344.901C111.634 344.073 111.708 343.24 111.797 342.401L111.136 342.333C111.047 343.177 110.974 344.015 110.906 344.848L111.566 344.901ZM169.268 343.208C169.572 342.427 169.865 341.636 170.148 340.844L169.524 340.624C169.241 341.41 168.95 342.193 168.649 342.972L169.268 343.208ZM112.08 339.901C112.179 339.078 112.295 338.25 112.42 337.412L111.765 337.317C111.639 338.156 111.524 338.994 111.425 339.817L112.08 339.901ZM170.96 338.465C171.222 337.663 171.484 336.893 171.71 336.06L171.076 335.871C170.835 336.668 170.594 337.443 170.331 338.256L170.96 338.465ZM112.787 334.933C112.923 334.1 113.065 333.271 113.206 332.454L112.551 332.344C112.41 333.161 112.268 333.995 112.132 334.828L112.787 334.933ZM172.375 333.628C172.59 332.816 172.789 332.003 172.983 331.186L172.339 331.034C172.145 331.846 171.946 332.653 171.731 333.46L172.375 333.628ZM113.678 329.985C113.841 329.157 114.003 328.335 114.171 327.522L113.521 327.391C113.353 328.204 113.191 329.032 113.028 329.86L113.678 329.985ZM173.539 328.722C173.701 327.905 173.864 327.077 174.005 326.244L173.35 326.133C173.203 326.956 173.057 327.774 172.889 328.591L173.539 328.722ZM114.7 325.054C114.884 324.226 115.072 323.413 115.261 322.606L114.621 322.46C114.428 323.262 114.234 324.084 114.05 324.912L114.7 325.054ZM174.377 323.744L174.047 323.707H174.383C174.503 322.858 174.603 322.051 174.702 321.249L174.042 321.176C173.948 321.972 173.848 322.748 173.733 323.581V323.67L174.377 323.744ZM115.853 320.19C116.068 319.368 116.288 318.56 116.503 317.764L115.869 317.586C115.643 318.382 115.429 319.195 115.214 320.017L115.853 320.19ZM174.959 318.733C175.038 317.884 175.101 317.046 175.153 316.218L174.493 316.171C174.44 316.993 174.377 317.832 174.299 318.676L174.959 318.733ZM117.195 315.358C117.436 314.546 117.682 313.749 117.934 312.963L117.305 312.759C117.053 313.549 116.803 314.352 116.555 315.17L117.195 315.358ZM175.274 313.702C175.3 312.848 175.316 312.004 175.316 311.171H174.655C174.655 311.999 174.655 312.832 174.613 313.676L175.274 313.702ZM118.725 310.558C118.998 309.761 119.249 308.985 119.564 308.199L118.94 307.969C118.652 308.744 118.374 309.541 118.096 310.343L118.725 310.558ZM174.618 308.65H175.284C175.284 307.791 175.216 306.952 175.158 306.124L174.498 306.171C174.556 306.973 174.597 307.801 174.618 308.65ZM120.46 305.851C120.774 305.062 121.09 304.29 121.408 303.535L120.8 303.273C120.475 304.038 120.156 304.814 119.841 305.61L120.46 305.851ZM174.288 303.656L174.954 303.582C174.865 302.728 174.755 301.895 174.634 301.072L173.979 301.166C174.1 301.979 174.178 302.807 174.288 303.656ZM122.404 301.24C122.753 300.467 123.103 299.713 123.452 298.976L122.86 298.677C122.488 299.421 122.132 300.186 121.775 300.962L122.404 301.24ZM173.555 298.703L174.204 298.577C174.047 297.744 173.869 296.911 173.68 296.104L173.041 296.261C173.235 297.052 173.413 297.875 173.57 298.703H173.555ZM124.616 296.738C125.014 295.99 125.418 295.26 125.826 294.547L125.255 294.217C124.843 294.933 124.434 295.67 124.029 296.428L124.616 296.738ZM172.402 293.871L173.036 293.682C172.795 292.854 172.512 292.047 172.244 291.272L171.621 291.497C171.898 292.231 172.16 293.032 172.402 293.871ZM127.126 292.424C127.582 291.701 128.033 291.004 128.494 290.328L127.97 289.956C127.505 290.655 127.044 291.354 126.586 292.052L127.126 292.424ZM170.704 289.154L171.312 288.887C170.966 288.09 170.599 287.315 170.221 286.591L169.634 286.901C169.986 287.613 170.363 288.368 170.704 289.154ZM129.94 288.258C130.464 287.571 130.989 286.906 131.481 286.293L130.957 285.868C130.433 286.492 129.909 287.163 129.385 287.865L129.94 288.258ZM168.413 284.741L168.974 284.39C168.523 283.672 168.041 282.965 167.533 282.294L167.009 282.692C167.486 283.347 167.963 284.039 168.413 284.741ZM133.127 284.401C133.693 283.788 134.275 283.18 134.862 282.603L134.395 282.132C133.803 282.713 133.211 283.332 132.634 283.955L133.127 284.401ZM136.701 280.926C137.361 280.36 138.022 279.841 138.651 279.354L138.258 278.83C137.613 279.307 136.947 279.836 136.271 280.402L136.701 280.926ZM165.416 280.785L165.903 280.339C165.327 279.713 164.717 279.12 164.074 278.562L163.639 279.055C164.258 279.595 164.847 280.167 165.405 280.769L165.416 280.785ZM140.71 277.981C141.414 277.542 142.14 277.14 142.885 276.775L142.586 276.183C141.837 276.555 141.082 276.969 140.359 277.42L140.71 277.981ZM161.674 277.551L162.046 277.001C161.336 276.525 160.598 276.095 159.834 275.711L159.541 276.304C160.275 276.671 160.984 277.088 161.663 277.551H161.674ZM145.155 275.79C145.931 275.506 146.722 275.263 147.523 275.062L147.366 274.422C146.54 274.622 145.726 274.871 144.929 275.166L145.155 275.79ZM157.261 275.371L157.465 274.742C156.653 274.475 155.823 274.267 154.981 274.118L154.866 274.773C155.674 274.914 156.471 275.113 157.25 275.371H157.261ZM149.924 274.637C150.743 274.541 151.568 274.504 152.392 274.527V273.867C151.538 273.85 150.684 273.885 149.835 273.972L149.924 274.637Z" fill="white"/>
<path d="M1705 102.665L1710.25 131.481L1767.87 110.825L1705 102.665Z" fill="#CCCCCC"/>
<path d="M1675.78 127.003L1767.87 110.825L1705 102.665L1675.78 127.003Z" fill="white"/>
<path d="M1716.19 89.2634L1718.76 104.45L1767.87 110.825L1716.19 89.2634Z" fill="#CCCCCC"/>
<path d="M1767.87 110.825L1717.91 99.5037L1689.4 67.0327L1767.87 110.825Z" fill="white"/>
<path d="M1362.68 186.381L1363.25 186.93L1363.69 186.473C1363.41 186.233 1363.15 185.977 1362.9 185.708L1361.97 184.807L1361.53 185.264C1361.9 185.62 1362.28 186.008 1362.68 186.381ZM1365.06 188.559C1365.66 189.068 1366.28 189.594 1366.91 190.106L1367.31 189.621C1366.68 189.11 1366.07 188.59 1365.47 188.074L1365.06 188.559ZM1359.85 183.498L1360.33 183.073C1359.78 182.475 1359.26 181.865 1358.76 181.263L1358.28 181.663C1358.79 182.251 1359.33 182.871 1359.87 183.48L1359.85 183.498ZM1368.79 191.624C1369.42 192.101 1370.07 192.584 1370.73 193.064L1371.1 192.551C1370.44 192.076 1369.8 191.6 1369.17 191.122L1368.79 191.624ZM1356.8 179.739L1357.32 179.366C1356.84 178.703 1356.39 178.043 1355.99 177.379L1355.45 177.717C1355.87 178.377 1356.33 179.054 1356.82 179.721L1356.8 179.739ZM1372.69 194.474C1373.34 194.922 1374.01 195.37 1374.69 195.821L1375.04 195.287C1374.36 194.843 1373.7 194.399 1373.05 193.951L1372.69 194.474ZM1354.2 175.65L1354.76 175.348C1354.38 174.645 1354.03 173.941 1353.72 173.211L1353.14 173.468C1353.49 174.158 1353.85 174.893 1354.23 175.618L1354.2 175.65ZM1376.73 197.113C1377.45 197.564 1378.14 197.958 1378.83 198.334L1379.13 197.77C1378.46 197.407 1377.77 197.013 1377.06 196.577L1376.73 197.113ZM1381 199.405C1381.74 199.738 1382.48 200.036 1383.24 200.33L1383.47 199.738C1382.72 199.458 1381.99 199.153 1381.27 198.823L1381 199.405ZM1352.24 171.205L1352.84 171.002C1352.58 170.219 1352.35 169.453 1352.17 168.718L1351.55 168.876C1351.77 169.589 1352 170.376 1352.27 171.173L1352.24 171.205ZM1385.54 201.097C1386.28 201.328 1387.05 201.54 1387.88 201.73L1388.03 201.111C1387.21 200.921 1386.45 200.719 1385.73 200.489L1385.54 201.097ZM1351.1 166.476L1351.73 166.385C1351.62 165.602 1351.54 164.814 1351.51 164.024L1350.88 164.047C1350.92 164.854 1351 165.659 1351.12 166.458L1351.1 166.476ZM1390.25 202.21C1391 202.337 1391.78 202.446 1392.65 202.547L1392.72 201.915C1391.86 201.825 1391.08 201.719 1390.37 201.584L1390.25 202.21ZM1350.9 161.608L1351.54 161.663C1351.59 160.872 1351.67 160.084 1351.8 159.302L1351.19 159.211C1351.06 159.999 1350.97 160.793 1350.92 161.59L1350.9 161.608ZM1395.07 202.742C1395.89 202.784 1396.71 202.804 1397.48 202.803L1397.49 202.172C1396.72 202.169 1395.91 202.145 1395.11 202.107L1395.07 202.742ZM1351.65 156.798L1352.26 156.959C1352.46 156.205 1352.69 155.436 1352.95 154.681L1352.35 154.47C1352.11 155.235 1351.87 156.018 1351.68 156.787L1351.65 156.798ZM1399.9 202.733C1400.7 202.689 1401.5 202.635 1402.31 202.556L1402.24 201.912C1401.44 201.987 1400.65 202.045 1399.86 202.085L1399.9 202.733ZM1404.72 202.266C1405.52 202.166 1406.31 202.027 1407.1 201.884L1407.01 201.265C1406.21 201.421 1405.42 201.549 1404.64 201.65L1404.72 202.266ZM1353.25 152.209L1353.83 152.47C1354.14 151.764 1354.52 151.042 1354.87 150.325L1354.31 150.032C1353.95 150.749 1353.59 151.485 1353.28 152.198L1353.25 152.209ZM1409.47 201.41C1410.25 201.24 1411.03 201.051 1411.82 200.845L1411.66 200.234C1410.88 200.436 1410.11 200.618 1409.35 200.778L1409.47 201.41ZM1355.52 147.923L1356.06 148.262C1356.47 147.583 1356.91 146.914 1357.37 146.269L1356.86 145.901C1356.42 146.549 1355.98 147.218 1355.55 147.912L1355.52 147.923ZM1414.15 200.215C1414.92 199.981 1415.69 199.746 1416.46 199.494L1416.27 198.891C1415.5 199.14 1414.73 199.378 1413.98 199.601L1414.15 200.215ZM1358.29 143.955L1358.8 144.341C1359.26 143.75 1359.77 143.126 1360.31 142.494L1359.83 142.083C1359.31 142.711 1358.78 143.331 1358.32 143.944L1358.29 143.955ZM1418.76 198.717C1419.49 198.439 1420.25 198.161 1421.02 197.883L1420.79 197.287C1420.03 197.582 1419.29 197.855 1418.56 198.142L1418.76 198.717ZM1361.46 140.265L1361.92 140.705C1362.19 140.421 1362.47 140.134 1362.75 139.853C1363.02 139.573 1363.3 139.278 1363.58 138.991L1363.13 138.547C1362.84 138.838 1362.56 139.133 1362.28 139.421C1362 139.708 1361.74 139.978 1361.48 140.269L1361.46 140.265ZM1423.27 196.978C1424 196.677 1424.74 196.358 1425.49 196.032L1425.23 195.443C1424.49 195.777 1423.75 196.096 1423.02 196.39L1423.27 196.978ZM1365.32 137.321C1365.9 136.784 1366.5 136.251 1367.11 135.717L1366.69 135.241C1366.08 135.775 1365.47 136.319 1364.9 136.855L1365.32 137.321ZM1427.69 195.029C1428.42 194.692 1429.14 194.346 1429.87 193.99L1429.59 193.42C1428.87 193.774 1428.15 194.115 1427.43 194.451L1427.69 195.029ZM1368.94 134.181C1369.55 133.676 1370.17 133.178 1370.82 132.683L1370.43 132.185C1369.78 132.68 1369.15 133.185 1368.53 133.687L1368.94 134.181ZM1432.02 192.921C1432.73 192.554 1433.44 192.178 1434.16 191.794L1433.86 191.235C1433.15 191.616 1432.44 191.988 1431.73 192.351L1432.02 192.921ZM1372.73 131.23C1373.37 130.76 1374.01 130.29 1374.68 129.823L1374.31 129.304C1373.64 129.774 1372.99 130.248 1372.35 130.718L1372.73 131.23ZM1436.29 190.633C1436.98 190.249 1437.68 189.853 1438.39 189.443L1438.07 188.902C1437.37 189.302 1436.67 189.695 1435.98 190.081L1436.29 190.633ZM1376.65 128.462C1377.31 128.016 1377.98 127.578 1378.64 127.128L1378.3 126.595C1377.61 127.037 1376.94 127.483 1376.29 127.935L1376.65 128.462ZM1440.47 188.222C1441.15 187.822 1441.84 187.398 1442.53 186.977L1442.2 186.436C1441.51 186.857 1440.83 187.271 1440.14 187.674L1440.47 188.222ZM1380.68 125.855C1381.36 125.434 1382.04 125.016 1382.74 124.599L1382.41 124.057C1381.71 124.479 1381.02 124.893 1380.35 125.314L1380.68 125.855ZM1444.57 185.707C1445.25 185.282 1445.92 184.843 1446.6 184.405L1446.26 183.867C1445.58 184.309 1444.9 184.748 1444.24 185.162L1444.57 185.707ZM1384.81 123.385C1385.5 122.988 1386.17 122.613 1386.89 122.202L1386.59 121.65C1385.88 122.043 1385.18 122.433 1384.49 122.836L1384.81 123.385ZM1448.61 183.075C1449.28 182.625 1449.94 182.18 1450.62 181.727L1450.26 181.207C1449.6 181.66 1448.94 182.109 1448.26 182.544L1448.61 183.075ZM1389.01 121.045C1389.71 120.669 1390.42 120.315 1391.13 119.922L1390.84 119.356C1390.12 119.735 1389.41 120.107 1388.71 120.485L1389.01 121.045ZM1452.59 180.348C1453.24 179.892 1453.9 179.428 1454.56 178.955L1454.19 178.442C1453.54 178.906 1452.88 179.372 1452.23 179.828L1452.59 180.348ZM1393.27 118.824C1393.98 118.463 1394.68 118.095 1395.42 117.754L1395.14 117.184C1394.42 117.535 1393.71 117.886 1392.98 118.254L1393.27 118.824ZM1456.51 177.54C1457.16 177.067 1457.81 176.589 1458.45 176.105L1458.07 175.6C1457.43 176.081 1456.78 176.555 1456.14 177.025L1456.51 177.54ZM1397.59 116.702C1398.31 116.362 1399.04 116.011 1399.77 115.685L1399.5 115.108C1398.77 115.441 1398.04 115.781 1397.31 116.132L1397.59 116.702ZM1460.38 174.656C1461.01 174.172 1461.65 173.684 1462.29 173.185L1461.9 172.688C1461.27 173.179 1460.63 173.667 1459.99 174.151L1460.38 174.656ZM1401.95 114.672C1402.67 114.353 1403.42 114.005 1404.14 113.701L1403.89 113.12C1403.15 113.44 1402.41 113.766 1401.68 114.098L1401.95 114.672ZM1464.17 171.698C1464.8 171.2 1465.43 170.705 1466.07 170.192L1465.67 169.705C1465.04 170.207 1464.41 170.702 1463.78 171.2L1464.17 171.698ZM1406.36 112.737C1407.09 112.432 1407.83 112.12 1408.57 111.815L1408.33 111.226C1407.59 111.528 1406.85 111.843 1406.11 112.159L1406.36 112.737ZM1467.95 168.666C1468.58 168.164 1469.19 167.659 1469.82 167.146L1469.41 166.649C1468.79 167.165 1468.17 167.673 1467.55 168.179L1467.95 168.666ZM1410.81 110.889L1413.05 110.013L1412.83 109.421C1412.08 109.719 1411.32 110.02 1410.57 110.304L1410.81 110.889ZM1471.67 165.602C1472.28 165.09 1472.9 164.571 1473.51 164.048L1473.1 163.561C1472.48 164.084 1471.87 164.607 1471.26 165.119L1471.67 165.602ZM1415.28 109.13C1416.03 108.843 1416.77 108.554 1417.52 108.265L1417.3 107.669L1415.04 108.524L1415.28 109.13ZM1475.34 162.487C1475.94 161.957 1476.55 161.431 1477.16 160.901L1476.74 160.425C1476.13 160.955 1475.52 161.481 1474.92 162L1475.34 162.487ZM1419.8 107.441C1420.54 107.168 1421.3 106.898 1422.06 106.625L1421.84 106.029C1421.08 106.302 1420.32 106.572 1419.58 106.845L1419.8 107.441ZM1478.98 159.315C1479.58 158.785 1480.18 158.248 1480.78 157.715L1480.36 157.242C1479.76 157.776 1479.16 158.313 1478.56 158.839L1478.98 159.315ZM1424.32 105.834L1426.59 105.046L1426.39 104.443L1424.12 105.231L1424.32 105.834ZM1428.88 104.279C1429.64 104.025 1430.4 103.774 1431.16 103.527L1430.97 102.923C1430.2 103.172 1429.44 103.424 1428.67 103.676L1428.88 104.279ZM1482.57 156.101C1483.16 155.564 1483.76 155.02 1484.35 154.48L1483.92 154.015C1483.33 154.555 1482.74 155.099 1482.14 155.629L1482.57 156.101ZM1433.45 102.791C1434.18 102.558 1434.91 102.331 1435.66 102.097L1435.75 102.071L1435.56 101.464L1435.47 101.493C1434.72 101.727 1433.99 101.954 1433.26 102.188L1433.45 102.791ZM1486.12 152.845C1486.7 152.305 1487.29 151.758 1487.88 151.207L1487.45 150.738C1486.86 151.293 1486.28 151.836 1485.69 152.38L1486.12 152.845ZM1438.05 101.367L1440.36 100.678L1440.18 100.064L1437.87 100.757L1438.05 101.367ZM1489.63 149.555C1490.22 149.004 1490.8 148.449 1491.38 147.892L1490.93 147.452C1490.34 148.009 1489.76 148.56 1489.18 149.115L1489.63 149.555ZM1442.67 99.9925C1443.43 99.7688 1444.21 99.5448 1444.98 99.3281L1444.8 98.7246C1444.03 98.9413 1443.26 99.1615 1442.49 99.3854L1442.67 99.9925ZM1493.12 146.211C1493.7 145.66 1494.28 145.103 1494.86 144.531L1494.41 144.09C1493.83 144.648 1493.26 145.209 1492.68 145.764L1493.12 146.211ZM1447.31 98.667C1448.08 98.4574 1448.85 98.2406 1449.63 98.0345L1449.46 97.4235C1448.69 97.6297 1447.91 97.8395 1447.14 98.0634L1447.31 98.667ZM1496.58 142.854L1498.29 141.156L1497.84 140.716C1497.28 141.295 1496.7 141.849 1496.12 142.41L1496.58 142.854ZM1451.97 97.4192C1452.75 97.2094 1453.52 97.0044 1454.3 96.8041L1454.14 96.1932L1451.81 96.8048L1451.97 97.4192ZM1500.01 139.451C1500.57 138.876 1501.13 138.3 1501.72 137.739L1501.26 137.299C1500.71 137.874 1500.15 138.449 1499.57 139L1500.01 139.451ZM1456.63 96.2139L1458.97 95.6342L1458.82 95.0196L1456.48 95.5957L1456.63 96.2139ZM1503.41 136.024C1503.96 135.449 1504.52 134.873 1505.09 134.294L1504.63 133.851C1504.07 134.43 1503.51 135.005 1502.95 135.58L1503.41 136.024ZM1461.31 95.058L1463.63 94.521L1463.48 93.9064L1461.16 94.4434L1461.31 95.058ZM1465.99 93.9551C1466.77 93.7773 1467.55 93.5958 1468.33 93.4321L1468.19 92.8103C1467.41 92.9823 1466.63 93.1554 1465.85 93.3297L1465.99 93.9551ZM1506.31 132.132L1506.77 132.572C1507.32 132.001 1507.88 131.425 1508.44 130.847L1507.99 130.403C1507.4 131.014 1506.84 131.589 1506.29 132.164L1506.31 132.132ZM1470.69 92.9053L1473.04 92.3998L1472.91 91.7778L1470.55 92.2834L1470.69 92.9053ZM1509.64 128.653L1510.1 129.093C1510.66 128.518 1511.21 127.942 1511.75 127.343L1511.3 126.903C1510.72 127.531 1510.16 128.11 1509.61 128.692L1509.64 128.653ZM1475.4 91.8942L1477.77 91.3992L1477.64 90.7735L1475.28 91.2686L1475.4 91.8942ZM1512.96 125.163L1513.42 125.603L1515.06 123.842L1514.6 123.399L1512.96 125.163ZM1480.13 90.9573L1482.51 90.4727L1482.4 89.8646L1480.04 90.3206L1480.13 90.9573ZM1516.24 121.635L1516.7 122.075C1517.26 121.499 1517.79 120.893 1518.33 120.3L1517.86 119.874C1517.26 120.464 1516.74 121.067 1516.2 121.66L1516.24 121.635ZM1484.86 90.0452C1485.65 89.8955 1486.44 89.7494 1487.23 89.6103L1487.13 88.995C1486.34 89.1376 1485.54 89.2874 1484.76 89.4371L1484.86 90.0452ZM1489.59 89.1827L1491.97 88.762L1491.87 88.1467L1489.49 88.5603L1489.59 89.1827ZM1519.51 118.096L1519.96 118.539C1520.5 117.943 1521.04 117.354 1521.58 116.758L1521.12 116.318C1520.53 116.922 1519.99 117.515 1519.45 118.107L1519.51 118.096ZM1494.35 88.3801L1496.73 87.9876L1496.63 87.3687L1494.25 87.7648L1494.35 88.3801ZM1522.73 114.554L1523.18 114.994L1524.79 113.202L1524.34 112.759L1522.73 114.554ZM1499.1 87.6273L1501.48 87.2632L1501.39 86.6371L1499.01 87.0083L1499.1 87.6273ZM1525.94 110.956L1526.4 111.399C1526.93 110.796 1527.46 110.19 1527.99 109.59L1527.51 109.171C1526.94 109.751 1526.4 110.336 1525.88 110.946L1525.94 110.956ZM1503.87 86.9166C1504.68 86.8057 1505.46 86.6775 1506.25 86.5667L1506.16 85.9406C1505.36 86.0444 1504.58 86.1691 1503.78 86.287L1503.87 86.9166ZM1529.13 107.362L1529.61 107.777C1530.14 107.173 1530.67 106.567 1531.19 105.96L1530.72 105.545C1530.12 106.131 1529.59 106.738 1529.06 107.341L1529.13 107.362ZM1508.63 86.2309L1511.03 85.9197L1510.95 85.2864L1508.54 85.6048L1508.63 86.2309ZM1513.4 85.5876L1515.8 85.28L1515.71 84.6468L1513.32 84.9508L1513.4 85.5876ZM1532.28 103.729L1532.76 104.147C1533.29 103.54 1533.81 102.93 1534.34 102.32L1533.86 101.905C1533.27 102.495 1532.74 103.098 1532.21 103.709L1532.28 103.729ZM1518.18 84.9974L1520.56 84.7078L1520.48 84.0745L1518.1 84.3605L1518.18 84.9974ZM1535.44 100.075L1535.91 100.49L1537.48 98.6556L1536.99 98.2515L1535.44 100.075ZM1522.94 84.4464L1525.33 84.1885L1525.26 83.5444L1522.87 83.8023L1522.94 84.4464ZM1538.56 96.4246L1539.05 96.8322L1540.6 94.9914L1540.11 94.5873L1538.56 96.4246ZM1527.73 83.9481C1528.52 83.8588 1529.31 83.7659 1530.13 83.708L1530.05 83.0675L1527.66 83.3006L1527.73 83.9481ZM1541.66 92.7394L1542.15 93.1435L1543.69 91.2993L1543.2 90.8916L1541.66 92.7394ZM1532.49 83.4716L1534.89 83.2597L1534.82 82.6156L1532.42 82.8346L1532.49 83.4716ZM1537.28 83.0585L1539.68 82.8713L1539.61 82.2201L1537.22 82.4072L1537.28 83.0585ZM1544.72 89.0263L1545.21 89.4304L1546.74 87.5757L1546.25 87.1716L1544.72 89.0263ZM1542.08 82.6877L1544.48 82.5183L1544.44 81.888L1542.03 82.0539L1542.08 82.6877ZM1547.78 85.3098L1548.28 85.7102L1549.8 83.845L1549.3 83.4481L1547.78 85.3098ZM1546.89 82.3522C1547.69 82.2982 1548.49 82.2499 1549.29 82.2076L1549.26 81.5771C1548.46 81.6135 1547.65 81.6713 1546.85 81.7219L1546.89 82.3522ZM1550.83 81.5686L1551.33 81.9691L1551.67 81.5315L1551.7 82.0735C1552.51 82.0311 1553.31 81.99 1554.11 81.95L1554.08 81.316C1553.31 81.3555 1552.53 81.3915 1551.75 81.4347L1552.83 80.1005L1552.34 79.7036L1550.83 81.5686ZM1556.52 81.8406L1558.93 81.7349L1558.91 81.1079L1556.49 81.2067L1556.52 81.8406ZM1553.84 77.835L1554.33 78.232L1555.84 76.3528L1555.34 75.9559L1553.84 77.835ZM1561.34 81.6256L1563.75 81.5482L1563.73 80.9068L1561.32 80.9878L1561.34 81.6256ZM1556.84 74.0308L1557.33 74.4277L1558.83 72.5416L1558.33 72.1447L1556.84 74.0308ZM1566.15 81.478C1566.95 81.4557 1567.76 81.4405 1568.56 81.4254L1568.54 80.7911C1567.74 80.8027 1566.94 80.8203 1566.14 80.8437L1566.15 81.478ZM1570.96 81.38L1573.37 81.3522L1573.36 80.7214L1570.95 80.7492L1570.96 81.38ZM1559.82 70.2622L1560.33 70.6483L1561.81 68.7517L1561.31 68.362L1559.82 70.2622ZM1575.77 81.3423L1578.18 81.3393L1578.18 80.7049L1575.77 80.7043L1575.77 81.3423ZM1562.74 66.4591L1563.25 66.8487L1564.73 64.9415L1564.23 64.5517L1562.74 66.4591ZM1580.53 81.3407L1582.94 81.3625L1582.94 80.728L1580.54 80.7097L1580.53 81.3407ZM1565.7 62.6518L1566.21 63.0379C1566.7 62.3998 1567.19 61.7653 1567.68 61.1237L1567.18 60.734C1566.69 61.4004 1566.2 62.042 1565.71 62.6836L1565.7 62.6518ZM1585.35 81.395L1587.76 81.4381L1587.77 80.8106L1585.36 80.7604L1585.35 81.395ZM1590.14 81.4958C1590.95 81.5197 1591.75 81.5399 1592.55 81.5709L1592.57 80.9361C1591.77 80.9087 1590.96 80.8813 1590.17 80.861L1590.14 81.4958ZM1568.65 58.8022L1569.15 59.1919L1570.62 57.2708L1570.11 56.8846L1568.65 58.8022ZM1594.97 81.6954L1597.38 81.7988L1597.4 81.171C1596.6 81.1306 1595.8 81.0961 1594.99 81.0676L1594.97 81.6954ZM1571.59 55.0023L1572.1 55.3955C1572.58 54.7575 1573.07 54.1124 1573.56 53.4673L1573.06 53.0847C1572.56 53.7263 1572.08 54.3714 1571.59 55.0023ZM1599.77 81.92L1602.18 82.0517L1602.23 81.4023C1601.45 81.3393 1600.63 81.3121 1599.82 81.2706L1599.77 81.92ZM1604.59 82.1941L1606.99 82.3509L1607.04 81.7049C1606.25 81.6383 1605.44 81.5934 1604.64 81.5448L1604.59 82.1941ZM1574.5 51.1638L1575.01 51.5392L1576.46 49.6041L1575.96 49.2286L1574.5 51.1638ZM1609.38 82.5253L1611.78 82.7139L1611.84 82.075L1609.44 81.8865L1609.38 82.5253ZM1577.42 47.2827L1577.93 47.6582L1579.37 45.7231L1578.87 45.3441L1577.42 47.2827ZM1614.19 82.8952L1616.59 83.1229L1616.65 82.4875L1614.26 82.2597L1614.19 82.8952ZM1618.98 83.354L1621.38 83.5922L1621.45 82.9602L1619.05 82.7221L1618.98 83.354ZM1580.29 43.4093L1580.8 43.7848C1581.29 43.1362 1581.76 42.4948 1582.24 41.8464L1581.73 41.4709C1581.24 42.1301 1580.78 42.7572 1580.28 43.4201L1580.29 43.4093ZM1623.76 83.8698L1626.15 84.1542L1626.22 83.5257L1623.83 83.2413L1623.76 83.8698ZM1628.54 84.4493C1629.35 84.5368 1630.13 84.6495 1630.92 84.7693L1631 84.1478L1628.61 83.8351L1628.54 84.4493ZM1583.16 39.5326L1583.67 39.9081L1585.1 37.9626L1584.59 37.5836L1583.16 39.5326ZM1633.31 85.0927C1634.11 85.2088 1634.9 85.3214 1635.69 85.4446L1635.77 84.8302C1634.98 84.7105 1634.18 84.5909 1633.38 84.482L1633.31 85.0927ZM1586.01 35.6454L1586.51 36.0245C1586.99 35.3689 1587.46 34.717 1587.94 34.0649L1587.42 33.6966C1586.95 34.3451 1586.47 35.0042 1586 35.649L1586.01 35.6454ZM1638.06 85.8179C1638.85 85.9411 1639.64 86.0715 1640.43 86.2019L1640.52 85.5909L1638.16 85.2175L1638.06 85.8179ZM1642.8 86.6C1643.59 86.7445 1644.38 86.8783 1645.18 87.0335L1645.29 86.4044C1644.5 86.2599 1643.71 86.1224 1642.91 85.9781L1642.8 86.6ZM1588.84 31.7443L1589.35 32.1162C1589.82 31.4642 1590.3 30.8122 1590.77 30.1568L1590.25 29.7849C1589.78 30.444 1589.31 31.0959 1588.84 31.7479L1588.84 31.7443ZM1647.54 87.4637C1648.33 87.6153 1649.12 87.7669 1649.89 87.9188L1650.02 87.2967C1649.23 87.1378 1648.44 86.9827 1647.66 86.8415L1647.54 87.4637ZM1652.26 88.402L1654.61 88.8996L1654.75 88.2809C1653.97 88.122 1653.18 87.955 1652.39 87.7798L1652.26 88.402ZM1591.66 27.8291L1592.18 28.2009C1592.65 27.549 1593.12 26.8935 1593.58 26.2417L1593.07 25.8734C1592.6 26.5325 1592.13 27.1843 1591.66 27.8327L1591.66 27.8291ZM1656.95 89.4258L1659.3 89.9626L1659.44 89.3472L1657.09 88.807L1656.95 89.4258ZM1661.63 90.5491C1662.41 90.7363 1663.19 90.9342 1663.97 91.1285L1664.12 90.5166C1663.34 90.3152 1662.57 90.1244 1661.78 89.9302L1661.63 90.5491ZM1594.47 23.9141L1594.99 24.2824L1596.39 22.3127L1595.87 21.9444L1594.47 23.9141ZM1666.31 91.7256C1667.09 91.9305 1667.86 92.1427 1668.63 92.3548L1668.8 91.7392C1668.02 91.5271 1667.25 91.3149 1666.47 91.11L1666.31 91.7256ZM1670.94 93.0055L1673.25 93.6845L1673.43 93.0758L1671.11 92.3969L1670.94 93.0055ZM1597.25 19.9607L1597.76 20.329C1598.23 19.6736 1598.69 19.0182 1599.16 18.3521L1598.64 17.9911C1598.18 18.664 1597.72 19.3229 1597.25 19.9748L1597.25 19.9607ZM1675.53 94.3676C1676.3 94.5999 1677.06 94.8405 1677.82 95.0894L1678.01 94.4876C1677.25 94.2387 1676.49 93.9957 1675.72 93.7587L1675.53 94.3676ZM1680.11 95.8433C1680.86 96.0981 1681.63 96.3565 1682.38 96.6185L1682.58 96.02C1681.83 95.7568 1681.08 95.4912 1680.32 95.2233L1680.11 95.8433ZM1684.63 97.4402L1686.9 98.251L1687.12 97.6629C1686.36 97.3903 1685.6 97.1189 1684.85 96.8487L1684.63 97.4402ZM1689.13 99.1297L1689.26 99.1774L1689.49 98.5857L1689.36 98.5379L1689.13 99.1297Z" fill="white"/>
</svg>
