<svg width="207" height="643" viewBox="0 0 207 643" fill="none" xmlns="http://www.w3.org/2000/svg">
<path d="M170.027 606.168L184.084 619.612L207 586.05L170.027 606.168Z" fill="#CCCCCC"/>
<path d="M163.81 630.641L207 586.05L170.027 606.168L163.81 630.641Z" fill="white"/>
<path d="M170.819 594.606L178.117 601.765L207 586.05L170.819 594.606Z" fill="#CCCCCC"/>
<path d="M207 586.05L175.741 599.432L147.756 593.096L207 586.05Z" fill="white"/>
<path d="M-46.8671 642.825C-46.8671 642.825 -46.3313 642.645 -45.3296 642.289L-45.4693 641.893C-46.4677 642.246 -47.0002 642.422 -47.0002 642.422L-46.8671 642.825ZM-43.812 641.747L-42.3045 641.194L-42.4476 640.798L-43.9585 641.351L-43.812 641.747ZM-40.8003 640.625L-39.3027 640.056L-39.4525 639.663L-40.95 640.236L-40.8003 640.625ZM-37.8052 639.477L-36.3109 638.888L-36.4673 638.495L-37.9549 639.084L-37.8052 639.477ZM-34.81 638.289L-33.3257 637.687L-33.4855 637.297L-34.9698 637.9L-34.81 638.289ZM-31.8448 637.074C-31.3622 636.875 -30.8664 636.668 -30.3672 636.455L-30.5303 636.069L-32.0045 636.685L-31.8448 637.074ZM-28.893 635.833C-28.4104 635.627 -27.9178 635.417 -27.422 635.194L-27.5883 634.811L-29.056 635.444L-28.893 635.833ZM-25.951 634.558L-24.4868 633.909L-24.6565 633.527L-26.1208 634.172L-25.951 634.558ZM-23.0291 633.254L-21.5682 632.588L-21.7446 632.205L-23.1988 632.871L-23.0291 633.254ZM-20.1138 631.923L-18.6629 631.257L-18.8426 630.878L-20.2902 631.543L-20.1138 631.923ZM-17.2152 630.561C-16.736 630.335 -16.2501 630.106 -15.7675 629.873L-15.9506 629.493L-17.3949 630.182L-17.2152 630.561ZM-14.3299 629.177L-12.8922 628.472L-13.0786 628.095L-14.513 628.798L-14.3299 629.177ZM-11.4579 627.759L-10.0269 627.04L-10.2199 626.664L-11.6476 627.383L-11.4579 627.759ZM-8.60258 626.312L-7.17822 625.576L-7.37451 625.203L-8.79222 625.936L-8.60258 626.312ZM-5.76051 624.834L-4.34615 624.082L-4.54578 623.709L-5.95682 624.461L-5.76051 624.834ZM-2.9351 623.327L-1.53073 622.561L-1.73036 622.192L-3.13474 622.954L-2.9351 623.327ZM-0.132935 621.786C0.332977 621.529 0.8022 621.27 1.26477 621.007L1.05841 620.638L-0.335983 621.42L-0.132935 621.786ZM2.65582 620.212C3.11841 619.949 3.58429 619.682 4.04688 619.413L3.83392 619.05L2.44954 619.849L2.65582 620.212ZM5.42468 618.608L6.80241 617.792L6.58614 617.429L5.21498 618.245L5.42468 618.608ZM96.4835 618.415H98.0576L98.0775 617.995H96.4835V618.415ZM94.8861 618.415V617.995C94.3536 617.995 93.8211 617.995 93.292 617.995V618.418C93.7945 618.405 94.327 618.411 94.8661 618.411L94.8861 618.415ZM99.6849 618.388L101.282 618.351V617.932L99.6883 617.969L99.6849 618.388ZM91.6979 618.368V617.949L90.1038 617.902V618.321C90.5964 618.338 91.1288 618.351 91.6679 618.365L91.6979 618.368ZM102.893 618.301L104.494 618.241L104.474 617.819C103.941 617.845 103.409 617.865 102.88 617.882L102.893 618.301ZM88.4931 618.258L88.5131 617.839C87.9806 617.815 87.4482 617.789 86.919 617.759L86.8957 618.182L88.4931 618.258ZM106.091 618.165C106.624 618.142 107.156 618.112 107.689 618.078L107.665 617.659C107.133 617.692 106.6 617.719 106.071 617.746L106.091 618.165ZM85.2983 618.088L85.3249 617.669L83.7342 617.556L83.7009 617.975C84.1967 618.012 84.7325 618.052 85.2683 618.085L85.2983 618.088ZM109.286 617.985L110.88 617.879L110.853 617.459L109.259 617.566L109.286 617.985ZM82.1101 617.845L82.1434 617.426C81.6109 617.38 81.0818 617.33 80.5527 617.276L80.5127 617.699L82.1101 617.845ZM112.477 617.759L114.075 617.629L114.038 617.206L112.444 617.336L112.477 617.759ZM78.9187 617.533L78.9686 617.113L77.3812 616.93L77.3279 617.346C77.8271 617.409 78.3562 617.469 78.8721 617.529L78.9187 617.533ZM115.666 617.489L117.26 617.336L117.22 616.917L115.626 617.067L115.666 617.489ZM118.85 617.177L120.445 617.007L120.395 616.587C119.865 616.647 119.333 616.704 118.807 616.757L118.85 617.177ZM75.7405 617.137L75.7971 616.721C75.2679 616.651 74.7421 616.574 74.2163 616.498L74.1564 616.914C74.6522 616.987 75.1814 617.063 75.7105 617.133L75.7405 617.137ZM8.18352 616.974L9.54796 616.142L9.32501 615.782L7.96053 616.614L8.18352 616.974ZM122.022 616.83L123.609 616.637L123.556 616.221L121.972 616.411L122.022 616.83ZM72.569 616.667L72.6389 616.251C72.1086 616.165 71.5828 616.075 71.0614 615.982L70.9915 616.401L72.569 616.667ZM125.2 616.441H125.3L126.788 616.245L126.731 615.829L125.25 616.022H125.147L125.2 616.441ZM69.4141 616.108L69.4939 615.696L67.9298 615.363L67.8466 615.775C68.3425 615.902 68.8617 616.002 69.3908 616.105L69.4141 616.108ZM128.372 616.018L129.956 615.799L129.896 615.383L128.315 615.602L128.372 616.018ZM131.537 615.562C132.066 615.486 132.591 615.406 133.121 615.323L133.054 614.907L131.477 615.146L131.537 615.562ZM66.2792 615.453L66.3723 615.04C65.8532 614.92 65.3341 614.8 64.8216 614.674L64.7217 615.083C65.2209 615.207 65.7323 615.33 66.2559 615.449L66.2792 615.453ZM10.9058 615.296C11.3584 615.017 11.811 614.73 12.2602 614.448L12.0373 614.092C11.588 614.374 11.1354 614.661 10.6828 614.94L10.9058 615.296ZM134.705 615.07L136.282 614.814L136.216 614.398L134.638 614.654L134.705 615.07ZM63.1742 614.691L63.2807 614.285C62.766 614.149 62.2535 614.009 61.7432 613.865L61.6267 614.271C62.1193 614.415 62.6251 614.554 63.1443 614.687L63.1742 614.691ZM137.863 614.551L139.437 614.278L139.364 613.862L137.79 614.135L137.863 614.551ZM141.011 613.998L142.585 613.712L142.509 613.296L140.938 613.582L141.011 613.998ZM60.0859 613.825L60.2124 613.423L58.6882 612.95L58.5617 613.349C59.0343 613.506 59.5434 613.669 60.0559 613.822L60.0859 613.825ZM13.618 613.582C14.0673 613.293 14.5166 613.003 14.9492 612.71L14.7196 612.358L13.3884 613.226L13.618 613.582ZM144.156 613.416L145.727 613.113L145.647 612.704L144.076 613.003L144.156 613.416ZM57.0409 612.84L57.1773 612.441C56.6715 612.268 56.1712 612.089 55.6764 611.905L55.53 612.301C56.0047 612.483 56.4984 612.662 57.0109 612.837L57.0409 612.84ZM147.301 612.804L148.868 612.487L148.785 612.075L147.218 612.408L147.301 612.804ZM150.433 612.168L151.997 611.835L151.91 611.423L150.346 611.755L150.433 612.168ZM16.2937 611.835L17.6248 610.947L17.3886 610.597C16.9449 610.892 16.5011 611.187 16.0574 611.482L16.2937 611.835ZM54.0324 611.725L54.1888 611.333C53.6896 611.14 53.1904 610.937 52.7145 610.734L52.5515 611.12C53.0107 611.323 53.5066 611.526 54.0025 611.722L54.0324 611.725ZM153.557 611.502L154.057 611.393L153.967 610.983L153.471 611.09L153.557 611.502ZM51.0839 610.477L51.2536 610.095C50.7677 609.875 50.2852 609.649 49.8126 609.429L49.6295 609.808C50.0844 610.033 50.5592 610.254 51.0539 610.474L51.0839 610.477ZM18.9361 610.048C19.3787 609.749 19.8146 609.442 20.2672 609.136L20.0276 608.803L18.7164 609.709L18.9361 610.048ZM48.1952 609.086L48.3882 608.71C47.9123 608.467 47.4464 608.218 46.9839 607.965L46.7808 608.331C47.2168 608.58 47.686 608.837 48.1653 609.083L48.1952 609.086ZM21.5718 608.218C22.0077 607.908 22.4437 607.599 22.8763 607.283L22.6267 606.95L21.3288 607.878L21.5718 608.218ZM45.3964 607.552L45.6094 607.189C45.1502 606.923 44.6975 606.644 44.2516 606.364L44.0253 606.72C44.438 606.983 44.8939 607.249 45.3565 607.532L45.3964 607.552ZM24.1709 606.357C24.6146 606.042 25.0439 605.723 25.4588 605.399L25.2059 605.066C24.7799 605.399 24.3506 605.705 23.9246 606.021L24.1709 606.357ZM42.6808 605.845L42.9171 605.495C42.4745 605.196 42.0419 604.893 41.6126 604.584L41.3663 604.916C41.759 605.216 42.195 605.522 42.6409 605.825L42.6808 605.845ZM26.74 604.434L28.0147 603.436L27.7551 603.103C27.3335 603.433 26.9098 603.759 26.4838 604.081L26.74 604.434ZM40.085 603.961L40.3413 603.629C39.9198 603.302 39.506 602.97 39.1 602.63L38.8337 602.963C39.2153 603.289 39.6191 603.615 40.0451 603.941L40.085 603.961ZM29.2726 602.46C29.6919 602.128 30.1079 601.795 30.5206 601.462L30.2577 601.129C29.845 601.462 29.429 601.795 29.013 602.128L29.2726 602.46ZM37.6157 601.905L37.8953 601.592C37.5026 601.239 37.1132 600.876 36.7338 600.51L36.441 600.813C36.8004 601.17 37.1787 601.528 37.5758 601.885L37.6157 601.905ZM31.7619 600.447C32.1745 600.108 32.5839 599.766 32.9899 599.422L32.7203 599.089C32.3143 599.422 31.905 599.771 31.4923 600.111L31.7619 600.447ZM35.2762 599.658L35.579 599.369C35.2096 598.983 34.8502 598.597 34.5008 598.201L34.168 598.48C34.5308 598.88 34.8968 599.262 35.2762 599.658ZM34.1746 598.364L35.3827 597.312L35.1031 596.996C34.7038 597.349 34.3011 597.695 33.8984 598.044L34.1746 598.364ZM33.143 597.259L33.4758 596.993C33.1385 596.58 32.8057 596.163 32.4774 595.741L32.1446 595.994C32.4574 596.42 32.788 596.844 33.1363 597.266L33.143 597.259ZM36.5808 596.244C36.9768 595.888 37.3694 595.525 37.7621 595.166L37.4726 594.856C37.0866 595.219 36.6906 595.575 36.2946 595.934L36.5808 596.244ZM31.2161 594.7L31.5489 594.457C31.2527 594.031 30.9599 593.588 30.6737 593.126L30.3176 593.349C30.6171 593.818 30.91 594.27 31.2095 594.7H31.2161ZM38.9369 594.074C39.3296 593.705 39.7156 593.339 40.0984 592.963L39.8055 592.663C39.4228 593.032 39.0368 593.402 38.6507 593.765L38.9369 594.074ZM29.5056 591.987L29.8716 591.774C29.6054 591.317 29.3491 590.853 29.1029 590.38L28.7301 590.576C28.9531 591.052 29.226 591.525 29.4922 591.987H29.5056ZM41.2399 591.844C41.6192 591.465 41.9953 591.089 42.368 590.706L42.0685 590.41C41.6958 590.793 41.3197 591.169 40.9437 591.545L41.2399 591.844ZM43.4829 589.558C43.8534 589.17 44.2194 588.78 44.5811 588.39L44.2716 588.104C43.9089 588.493 43.5461 588.882 43.1767 589.265L43.4829 589.558ZM28.0147 589.139L28.394 588.959C28.171 588.49 27.9514 588.004 27.7284 587.511L27.3391 587.674C27.5521 588.174 27.775 588.666 28.0013 589.139H28.0147ZM45.6527 587.209C46.0121 586.809 46.3648 586.413 46.7143 586.007L46.4015 585.731C46.0487 586.134 45.6959 586.53 45.3398 586.926L45.6527 587.209ZM26.7534 586.184L27.146 586.037C26.9597 585.545 26.7822 585.045 26.6136 584.54L26.2142 584.673C26.3806 585.185 26.557 585.688 26.7467 586.184H26.7534ZM47.7593 584.796C48.1054 584.388 48.447 583.977 48.7842 583.564L48.4515 583.298C48.1187 583.708 47.7859 584.117 47.4298 584.523L47.7593 584.796ZM25.7317 583.132L26.1377 583.015C25.988 582.509 25.8515 581.997 25.7184 581.481L25.3091 581.584C25.4355 582.12 25.5786 582.623 25.7251 583.145L25.7317 583.132ZM49.7893 582.303C50.1221 581.887 50.4549 581.465 50.7877 581.039L50.4549 580.782C50.1221 581.208 49.7893 581.624 49.4765 582.044L49.7893 582.303ZM24.9463 580.02L25.3589 579.93C25.2458 579.418 25.1427 578.895 25.0495 578.373L24.6335 578.446C24.7233 578.989 24.8265 579.514 24.9396 580.034L24.9463 580.02ZM51.7361 579.761C52.0534 579.328 52.3662 578.894 52.6746 578.459L52.3418 578.216C52.0357 578.649 51.7239 579.081 51.4067 579.511L51.7361 579.761ZM53.5898 577.145C53.8893 576.702 54.1888 576.256 54.4783 575.814L54.1256 575.584C53.8361 576.027 53.5432 576.469 53.2403 576.915L53.5898 577.145ZM24.3806 576.859L24.7966 576.799C24.72 576.28 24.6535 575.754 24.5936 575.225L24.1742 575.271C24.2308 575.82 24.294 576.35 24.3739 576.872L24.3806 576.859ZM55.3303 574.463C55.6165 574.007 55.8927 573.551 56.1656 573.091L55.8029 572.878C55.5322 573.336 55.256 573.788 54.9742 574.236L55.3303 574.463ZM24.0112 573.674L24.4305 573.641C24.3905 573.118 24.3539 572.586 24.3273 572.053L23.908 572.073C23.9346 572.639 23.9612 573.158 24.0112 573.687V573.674ZM56.9577 571.707C57.2172 571.241 57.4746 570.774 57.7297 570.306L57.3603 570.103C57.1074 570.571 56.8501 571.036 56.5883 571.497L56.9577 571.707ZM23.8348 570.469H24.2541C24.2541 570.03 24.2541 569.59 24.2541 569.138V568.868H23.8314V569.138C23.8314 569.6 23.8381 570.046 23.8481 570.482L23.8348 570.469ZM58.4718 568.885C58.7148 568.406 58.9544 567.927 59.1807 567.447L58.8013 567.264C58.5717 567.74 58.3387 568.219 58.0958 568.692L58.4718 568.885ZM24.294 567.294C24.294 566.765 24.334 566.236 24.3639 565.7L23.9446 565.677C23.9146 566.216 23.888 566.748 23.8714 567.281L24.294 567.294ZM59.8763 566.003C60.0981 565.513 60.31 565.021 60.5119 564.529L60.1259 564.366C59.9195 564.855 59.7098 565.344 59.4902 565.83L59.8763 566.003ZM24.4704 564.109C24.5137 563.584 24.5603 563.054 24.6168 562.522L24.1975 562.479C24.1409 563.014 24.0944 563.547 24.0511 564.076L24.4704 564.109ZM61.1109 563.034C61.3039 562.539 61.4903 562.036 61.67 561.534L61.274 561.394C61.0943 561.893 60.909 562.39 60.7182 562.885L61.1109 563.034ZM24.7966 560.935C24.8598 560.412 24.933 559.886 25.0129 559.354L24.5969 559.294C24.517 559.826 24.4438 560.359 24.3806 560.881L24.7966 560.935ZM62.1858 560.023C62.3522 559.514 62.5186 559.024 62.6617 558.495L62.259 558.375C62.1059 558.881 61.9529 559.374 61.7865 559.89L62.1858 560.023ZM25.2458 557.78C25.3323 557.251 25.4222 556.725 25.5121 556.206L25.0961 556.136C25.0062 556.655 24.9164 557.184 24.8298 557.713L25.2458 557.78ZM63.0844 556.951C63.2208 556.435 63.3473 555.919 63.4704 555.4L63.0611 555.304C62.9379 555.82 62.8115 556.332 62.675 556.845L63.0844 556.951ZM25.8116 554.638C25.9147 554.112 26.0179 553.59 26.1244 553.074L25.7117 552.991C25.6052 553.507 25.502 554.032 25.3989 554.558L25.8116 554.638ZM63.8232 553.836C63.9263 553.317 64.0295 552.791 64.1194 552.262L63.7034 552.192C63.6102 552.715 63.517 553.234 63.4105 553.753L63.8232 553.836ZM26.4605 551.507C26.577 550.981 26.6968 550.465 26.8166 549.952L26.4106 549.859C26.2875 550.368 26.1643 550.891 26.0479 551.417L26.4605 551.507ZM64.3556 550.675L64.146 550.651H64.359C64.4355 550.112 64.4987 549.6 64.562 549.09L64.1426 549.044C64.0827 549.55 64.0195 550.042 63.9463 550.571V550.628L64.3556 550.675ZM27.1926 548.418C27.3291 547.896 27.4689 547.383 27.6053 546.877L27.2026 546.764C27.0595 547.27 26.9231 547.786 26.7866 548.308L27.1926 548.418ZM64.725 547.493C64.7749 546.954 64.8149 546.421 64.8482 545.896L64.4288 545.866C64.3956 546.388 64.3556 546.921 64.3057 547.456L64.725 547.493ZM28.0446 545.35C28.1977 544.834 28.3541 544.328 28.5139 543.829L28.1145 543.699C27.9547 544.201 27.7961 544.711 27.6386 545.23L28.0446 545.35ZM64.9247 544.298C64.9413 543.756 64.9513 543.22 64.9513 542.691H64.532C64.532 543.217 64.532 543.746 64.5054 544.282L64.9247 544.298ZM29.0163 542.301C29.1894 541.796 29.3492 541.303 29.5488 540.804L29.1528 540.657C28.9698 541.15 28.7934 541.656 28.617 542.165L29.0163 542.301ZM64.5087 541.09H64.9314C64.9314 540.544 64.8881 540.012 64.8515 539.486L64.4322 539.516C64.4688 540.025 64.4954 540.551 64.5087 541.09ZM30.1179 539.313C30.3176 538.812 30.5184 538.321 30.7203 537.842L30.3342 537.676C30.1279 538.162 29.9249 538.654 29.7252 539.16L30.1179 539.313ZM64.299 537.919L64.7217 537.872C64.6651 537.33 64.5952 536.8 64.5187 536.278L64.1027 536.338C64.1793 536.854 64.2292 537.379 64.299 537.919ZM31.3526 536.384C31.5744 535.894 31.7963 535.415 32.0181 534.947L31.6421 534.757C31.4058 535.23 31.1795 535.715 30.9532 536.208L31.3526 536.384ZM63.8332 534.774L64.2458 534.694C64.146 534.165 64.0328 533.636 63.913 533.123L63.507 533.223C63.6301 533.725 63.7433 534.248 63.8431 534.774H63.8332ZM32.757 533.526C33.0099 533.051 33.2661 532.587 33.5257 532.135L33.163 531.925C32.9012 532.38 32.6416 532.848 32.3842 533.329L32.757 533.526ZM63.101 531.705L63.5037 531.586C63.3506 531.06 63.1709 530.547 63.0012 530.055L62.6051 530.198C62.7815 530.664 62.9479 531.173 63.101 531.705ZM34.351 530.787C34.6405 530.328 34.9267 529.885 35.2196 529.456L34.8868 529.219C34.5917 529.663 34.2989 530.107 34.0082 530.551L34.351 530.787ZM62.0228 528.71L62.4088 528.54C62.1892 528.035 61.9562 527.542 61.7166 527.083L61.3438 527.279C61.5668 527.732 61.8064 528.211 62.0228 528.71ZM36.1381 528.141C36.4709 527.705 36.8037 527.283 37.1165 526.893L36.7838 526.624C36.451 527.02 36.1182 527.446 35.7854 527.892L36.1381 528.141ZM60.5685 525.908L60.9245 525.685C60.6383 525.229 60.3322 524.78 60.0093 524.354L59.6765 524.607C59.9794 525.023 60.2822 525.462 60.5685 525.908ZM38.1615 525.692C38.5209 525.302 38.8903 524.916 39.263 524.55L38.9669 524.251C38.5908 524.62 38.2147 525.013 37.8487 525.409L38.1615 525.692ZM40.4312 523.485C40.8505 523.126 41.2698 522.796 41.6691 522.487L41.4195 522.154C41.0102 522.457 40.5876 522.793 40.1583 523.153L40.4312 523.485ZM58.6649 523.396L58.9744 523.113C58.6089 522.715 58.2211 522.338 57.8129 521.984L57.5367 522.297C57.9297 522.64 58.304 523.003 58.6582 523.386L58.6649 523.396ZM42.977 521.615C43.4242 521.337 43.8851 521.081 44.3581 520.85L44.1684 520.474C43.6925 520.71 43.2133 520.973 42.754 521.259L42.977 521.615ZM56.2887 521.342L56.525 520.993C56.0745 520.691 55.6054 520.417 55.1206 520.174L54.9342 520.55C55.4008 520.784 55.8512 521.048 56.2821 521.342H56.2887ZM45.7991 520.224C46.292 520.043 46.7941 519.889 47.3033 519.761L47.2035 519.355C46.6788 519.482 46.1621 519.64 45.656 519.828L45.7991 520.224ZM53.4866 519.958L53.6164 519.558C53.1007 519.389 52.5735 519.257 52.039 519.162L51.9658 519.578C52.4791 519.667 52.9852 519.794 53.4799 519.958H53.4866ZM48.8275 519.492C49.3476 519.431 49.8715 519.408 50.395 519.422V519.003C49.8528 518.992 49.3104 519.014 48.771 519.069L48.8275 519.492Z" fill="white"/>
<path d="M171.674 31.9158L175.298 44.3311L199.658 32.6205L171.674 31.9158Z" fill="#CCCCCC"/>
<path d="M159.955 43.9431L199.658 32.6205L171.674 31.9158L159.955 43.9431Z" fill="white"/>
<path d="M175.973 25.5178L177.797 32.07L199.658 32.6205L175.973 25.5178Z" fill="#CCCCCC"/>
<path d="M199.658 32.6205L177.202 29.936L163.193 16.9811L199.658 32.6205Z" fill="white"/>
<path d="M25.1693 84.3599L25.4423 84.5749L25.6162 84.3541C25.4839 84.2612 25.3568 84.1611 25.2354 84.0542L24.7867 83.701L24.6129 83.9218C24.7933 84.0611 24.977 84.2142 25.1693 84.3599ZM26.3134 85.2074C26.6015 85.4032 26.8951 85.6062 27.1974 85.802L27.3512 85.5709C27.0489 85.3752 26.7587 85.1749 26.4734 84.9756L26.3134 85.2074ZM23.7938 83.2233L23.9833 83.0148C23.717 82.777 23.458 82.5335 23.2148 82.2914L23.0193 82.4896C23.2711 82.7244 23.5353 82.972 23.8006 83.2146L23.7938 83.2233ZM28.0923 86.3827C28.3896 86.5633 28.6966 86.7458 29.008 86.9263L29.1479 86.6843C28.8377 86.5058 28.5342 86.3259 28.2374 86.1448L28.0923 86.3827ZM22.2822 81.712L22.4917 81.5247C22.25 81.2556 22.0226 80.9864 21.8183 80.7128L21.5977 80.8856C21.8127 81.1563 22.0426 81.4332 22.2891 81.7033L22.2822 81.712ZM29.9347 87.456C30.2398 87.623 30.5543 87.7889 30.8767 87.9554L31.0061 87.7052C30.6872 87.5414 30.3745 87.3769 30.0693 87.2098L29.9347 87.456ZM20.9544 80.0354L21.1861 79.877C20.9876 79.5854 20.8014 79.2924 20.631 78.9864L20.386 79.1258C20.5745 79.4123 20.7639 79.7192 20.9667 80.0197L20.9544 80.0354ZM31.8299 88.4299C32.1678 88.5946 32.4873 88.7363 32.8074 88.87L32.9149 88.6082C32.6018 88.48 32.2824 88.3383 31.9514 88.1791L31.8299 88.4299ZM33.8113 89.2408C34.1509 89.3533 34.4918 89.4498 34.8372 89.5443L34.909 89.2741C34.5706 89.1851 34.2325 89.0851 33.9009 88.9732L33.8113 89.2408ZM19.8881 78.1732L20.1437 78.0561C19.9908 77.7244 19.8559 77.3985 19.746 77.0838L19.4802 77.1815C19.6077 77.4847 19.7437 77.82 19.9004 78.1576L19.8881 78.1732ZM35.8829 89.7761C36.2187 89.8434 36.5645 89.9015 36.9402 89.9467L36.9764 89.6681C36.6069 89.6222 36.2663 89.5682 35.9367 89.5002L35.8829 89.7761ZM19.1729 76.1479L19.4437 76.0795C19.358 75.7409 19.2904 75.3981 19.2412 75.0524L18.9621 75.0919C19.0168 75.4445 19.0894 75.794 19.1797 76.1393L19.1729 76.1479ZM38.0035 90.0487C38.3355 90.0707 38.6838 90.0829 39.072 90.0871L39.0733 89.8064C38.6903 89.8063 38.3438 89.7955 38.0239 89.7689L38.0035 90.0487ZM18.8598 74.0197L19.146 74.014C19.129 73.6647 19.13 73.3148 19.149 72.9656L18.8765 72.9539C18.8554 73.3058 18.8521 73.6587 18.8667 74.011L18.8598 74.0197ZM40.1423 90.0623C40.5072 90.0425 40.8647 90.0142 41.2056 89.9784L41.1789 89.701C40.8394 89.7351 40.4863 89.7613 40.1294 89.7817L40.1423 90.0623ZM18.9702 71.8726L19.2463 71.9154C19.2973 71.5752 19.363 71.227 19.445 70.8831L19.1725 70.8178C19.0988 71.1654 19.0307 71.5203 18.9805 71.8666L18.9702 71.8726ZM42.2636 89.8368C42.6147 89.7808 42.9637 89.7204 43.3161 89.6485L43.2545 89.369C42.9066 89.4388 42.5604 89.5004 42.2158 89.554L42.2636 89.8368ZM44.3596 89.411C44.7046 89.3305 45.0461 89.2332 45.3889 89.1341L45.3177 88.8668C44.974 88.9717 44.6335 89.0642 44.2963 89.1443L44.3596 89.411ZM19.4625 69.7841L19.7283 69.8723C19.8347 69.5476 19.9652 69.2136 20.0881 68.8822L19.8284 68.7792C19.7024 69.1109 19.5788 69.4503 19.4728 69.7781L19.4625 69.7841ZM46.4072 88.8176C46.7423 88.7068 47.075 88.5884 47.4145 88.4613L47.3157 88.2004C46.9807 88.3254 46.6497 88.4404 46.3228 88.5455L46.4072 88.8176ZM20.2633 67.7976L20.5145 67.9221C20.6659 67.6047 20.8287 67.2906 21.0006 66.9865L20.7572 66.8484C20.5933 67.1531 20.4305 67.4672 20.2736 67.7916L20.2633 67.7976ZM48.4091 88.0783C48.7347 87.9402 49.0634 87.8019 49.3896 87.6559L49.2788 87.3996C48.9508 87.5442 48.6239 87.6839 48.3024 87.8167L48.4091 88.0783ZM21.2986 65.9282L21.5383 66.0746C21.7145 65.7936 21.9092 65.4962 22.1191 65.1939L21.889 65.0353C21.6867 65.3351 21.484 65.6319 21.3089 65.9222L21.2986 65.9282ZM50.361 87.2094C50.6713 87.0538 50.99 86.8971 51.3169 86.7395L51.1878 86.4885C50.87 86.6524 50.5542 86.8066 50.2485 86.9659L50.361 87.2094ZM22.5228 64.1624L22.7419 64.3349C22.8501 64.1976 22.9596 64.0584 23.0664 63.9228C23.1732 63.7872 23.2855 63.6446 23.3951 63.5055L23.1742 63.3316C23.0633 63.4724 22.951 63.615 22.8415 63.7541C22.732 63.8932 22.6324 64.0233 22.5277 64.1634L22.5228 64.1624ZM52.2629 86.2393C52.571 86.0734 52.8829 85.8992 53.1943 85.7219L53.0562 85.4751C52.7451 85.6556 52.4333 85.8298 52.1279 85.9922L52.2629 86.2393ZM24.0832 62.6923C24.3121 62.4303 24.549 62.1689 24.7951 61.9063L24.5897 61.7164C24.3436 61.9789 24.1026 62.2456 23.8737 62.5076L24.0832 62.6923ZM54.1165 85.1804C54.4207 84.9992 54.7233 84.814 55.0245 84.6248L54.8764 84.3871C54.5757 84.5757 54.2744 84.7582 53.9743 84.9388L54.1165 85.1804ZM25.5276 61.1478C25.7721 60.8981 26.0232 60.6507 26.2823 60.404L26.0882 60.2033C25.8291 60.45 25.5753 60.7008 25.3259 60.9496L25.5276 61.1478ZM55.9229 84.0562C56.2162 83.8626 56.5116 83.6652 56.8091 83.4638L56.6539 83.2316C56.3572 83.4319 56.0622 83.6277 55.7687 83.8192L55.9229 84.0562ZM27.0565 59.6783C27.3153 59.4426 27.5773 59.2066 27.8471 58.9712L27.6644 58.7597C27.39 58.9972 27.1267 59.235 26.8679 59.4706L27.0565 59.6783ZM57.6904 82.8562C57.9776 82.656 58.2667 82.4499 58.5577 82.2377L58.3925 82.0146C58.1051 82.2222 57.8174 82.4266 57.5293 82.6279L57.6904 82.8562ZM28.651 58.283C28.9189 58.0573 29.1934 57.8339 29.4657 57.6061L29.2884 57.3876C29.0095 57.6131 28.7354 57.8395 28.471 58.068L28.651 58.283ZM59.4157 81.6061C59.6968 81.3993 59.9813 81.181 60.2645 80.9645L60.0931 80.7422C59.8099 80.9587 59.5295 81.1717 59.2469 81.3803L59.4157 81.6061ZM30.3038 56.9533C30.5807 56.7375 30.8625 56.5227 31.1474 56.3076L30.9791 56.0849C30.6928 56.3018 30.4093 56.5152 30.1323 56.7309L30.3038 56.9533ZM61.1012 80.3134C61.3795 80.0959 61.657 79.8722 61.9346 79.6485L61.7587 79.4283C61.4829 79.6533 61.2053 79.8771 60.9311 80.0893L61.1012 80.3134ZM32.0026 55.6795C32.2855 55.4741 32.5664 55.2783 32.8641 55.0648L32.7029 54.8365C32.4121 55.0413 32.1226 55.2444 31.837 55.4533L32.0026 55.6795ZM62.7573 78.9722C63.0296 78.7444 63.3006 78.5183 63.5774 78.2884L63.3947 78.0769C63.1241 78.3061 62.8548 78.5335 62.5786 78.7555L62.7573 78.9722ZM33.7408 54.4594C34.0311 54.2625 34.3255 54.0746 34.6195 53.8694L34.4669 53.6338C34.1691 53.8332 33.8741 54.029 33.5825 54.2276L33.7408 54.4594ZM64.3788 77.5926C64.6446 77.3624 64.9131 77.1287 65.1826 76.8902L64.994 76.6826C64.7286 76.9159 64.4618 77.1509 64.1961 77.3811L64.3788 77.5926ZM35.5102 53.2891C35.8043 53.0981 36.0949 52.9043 36.4056 52.7208L36.2576 52.4831C35.9552 52.6703 35.659 52.8569 35.356 53.0521L35.5102 53.2891ZM65.9729 76.18C66.2362 75.9422 66.4977 75.7031 66.7589 75.4608L66.5675 75.2566C66.3077 75.4971 66.0475 75.7346 65.7856 75.9706L65.9729 76.18ZM37.3097 52.1594C37.608 51.9773 37.9135 51.7897 38.2187 51.6131L38.0765 51.3716C37.7686 51.5516 37.4641 51.7344 37.1617 51.9217L37.3097 52.1594ZM67.538 74.7362C67.796 74.4943 68.0524 74.251 68.3128 74.0026L68.1187 73.8018C67.861 74.0468 67.6047 74.2901 67.3466 74.532L67.538 74.7362ZM39.1295 51.0682C39.432 50.8951 39.7455 50.7081 40.0487 50.5412L39.911 50.2976C39.6008 50.4721 39.2924 50.6491 38.9859 50.8284L39.1295 51.0682ZM69.0696 73.2632C69.3239 73.0155 69.5767 72.7695 69.8333 72.5152L69.6351 72.3197C69.3826 72.5688 69.1298 72.8148 68.8756 73.0625L69.0696 73.2632ZM40.9776 50.0163C41.284 49.849 41.5962 49.6779 41.9087 49.5099L41.7738 49.2628C41.4626 49.4291 41.1521 49.6015 40.8416 49.774L40.9776 50.0163ZM70.5896 71.7585C70.8421 71.5094 71.0898 71.2593 71.3402 71.0058L71.1399 70.8058C70.8912 71.0607 70.6422 71.3126 70.3915 71.563L70.5896 71.7585ZM42.8474 49.0012L43.795 48.5134L43.6675 48.2637C43.3515 48.429 43.0341 48.596 42.7173 48.755L42.8474 49.0012ZM72.0847 70.2427C72.3289 69.9898 72.5758 69.7335 72.8209 69.4758L72.6165 69.2811C72.3714 69.5387 72.1262 69.7964 71.882 70.0493L72.0847 70.2427ZM44.7328 48.0236C45.0468 47.8633 45.3612 47.7024 45.6762 47.541L45.5532 47.2892L44.5984 47.7685L44.7328 48.0236ZM73.5506 68.7066C73.7923 68.4462 74.0357 68.1871 74.2774 67.9267L74.072 67.7368C73.8303 67.9972 73.5869 68.2563 73.3462 68.5119L73.5506 68.7066ZM46.6373 47.0752C46.9531 46.921 47.2737 46.7679 47.5926 46.6133L47.4697 46.3615C47.1508 46.5161 46.8302 46.6693 46.5144 46.8235L46.6373 47.0752ZM75.0073 67.1465C75.2458 66.8864 75.484 66.6232 75.724 66.3614L75.5172 66.1732C75.2773 66.435 75.0391 66.6982 74.8019 66.9565L75.0073 67.1465ZM48.5508 46.162L49.5138 45.7118L49.3967 45.4562L48.4337 45.9065L48.5508 46.162ZM50.481 45.2705C50.803 45.124 51.1256 44.979 51.449 44.8355L51.3381 44.5791C51.0101 44.7237 50.687 44.8693 50.3639 45.0149L50.481 45.2705ZM76.4369 65.5706C76.672 65.3078 76.9067 65.0419 77.1432 64.7773L76.9337 64.5927C76.6972 64.8572 76.4625 65.1231 76.227 65.3828L76.4369 65.5706ZM52.4225 44.4076C52.7326 44.2715 53.043 44.1384 53.3592 44.0015L53.3999 43.9856L53.2873 43.7279L53.2484 43.7452C52.9321 43.8821 52.6217 44.0151 52.3116 44.1513L52.4225 44.4076ZM77.8456 63.9783C78.0759 63.7145 78.3089 63.4472 78.5432 63.1782L78.3351 62.9918C78.0993 63.2625 77.8677 63.528 77.6361 63.7936L77.8456 63.9783ZM54.3767 43.5716L55.3573 43.1634L55.2506 42.9019L54.2686 43.3118L54.3767 43.5716ZM79.237 62.3723C79.4682 62.1037 79.6977 61.8336 79.9286 61.5619L79.7095 61.3894C79.4786 61.6611 79.2474 61.9298 79.0179 62.1998L79.237 62.3723ZM56.3428 42.7562C56.6674 42.623 56.9981 42.4891 57.3262 42.3587L57.2216 42.1016C56.8935 42.2321 56.5651 42.3641 56.2364 42.4978L56.3428 42.7562ZM80.6178 60.7439C80.8459 60.4756 81.0737 60.2043 81.3038 59.9263L81.0847 59.7538C80.857 60.0251 80.6309 60.2979 80.4014 60.5679L80.6178 60.7439ZM58.3208 41.9615C58.6492 41.8342 58.9773 41.7037 59.3074 41.5778L59.2086 41.3168C58.8784 41.4428 58.5469 41.5705 58.2161 41.7044L58.3208 41.9615ZM81.9823 59.1112L82.6566 58.2871L82.4375 58.1145C82.217 58.3945 81.9875 58.6645 81.7615 58.9373L81.9823 59.1112ZM60.309 41.2002C60.6406 41.0725 60.9724 40.9468 61.3044 40.8233L61.2056 40.5624L60.2085 40.9379L60.309 41.2002ZM83.3335 57.4595C83.5526 57.1813 83.7717 56.903 84.004 56.6296L83.7849 56.457C83.5658 56.7353 83.3467 57.0135 83.1186 57.2818L83.3335 57.4595ZM62.2995 40.4575L63.2998 40.0958L63.2055 39.8328L62.2065 40.1927L62.2995 40.4575ZM84.6664 55.799C84.8855 55.5208 85.1046 55.2426 85.325 54.9626L85.1042 54.7887C84.8837 55.0687 84.6646 55.3469 84.4456 55.6251L84.6664 55.799ZM64.3019 39.7355L65.2982 39.3932L65.2039 39.1302L64.2076 39.4725L64.3019 39.7355ZM66.3086 39.0366C66.6403 38.9231 66.9764 38.8075 67.3119 38.6998L67.2235 38.433C66.8879 38.5443 66.5528 38.6561 66.2184 38.7684L66.3086 39.0366ZM85.7649 53.9568L85.984 54.1293C86.2017 53.8528 86.4208 53.5746 86.6412 53.2946L86.4204 53.1207C86.1907 53.416 85.9717 53.6942 85.7557 53.9721L85.7649 53.9568ZM68.3228 38.3605L69.3348 38.0305L69.2463 37.7637L68.2343 38.0936L68.3228 38.3605ZM87.0685 52.2761L87.2876 52.4486C87.5067 52.1704 87.7258 51.8922 87.9358 51.604L87.7167 51.4315C87.4896 51.7343 87.2722 52.0139 87.0566 52.2949L87.0685 52.2761ZM70.3467 37.7006L71.364 37.3747L71.28 37.1057L70.2628 37.4316L70.3467 37.7006ZM88.367 50.5913L88.5861 50.7638L89.226 49.9155L89.0051 49.7416L88.367 50.5913ZM72.3824 37.0723L73.4048 36.7506L73.3295 36.4885L72.3118 36.797L72.3824 37.0723ZM89.6463 48.8915L89.8654 49.064C90.0845 48.7858 90.291 48.4949 90.5014 48.2098L90.2738 48.0446C90.0399 48.3309 89.8378 48.6197 89.6274 48.9047L89.6463 48.8915ZM74.4177 36.4552C74.7571 36.3533 75.095 36.2532 75.4365 36.1559L75.3639 35.8903C75.0242 35.989 74.6818 36.0912 74.3424 36.193L74.4177 36.4552ZM76.4557 35.8597L77.4783 35.5663L77.4057 35.3007L76.3827 35.591L76.4557 35.8597ZM90.9173 47.1879L91.1382 47.3618C91.3468 47.0753 91.5558 46.792 91.7645 46.5056L91.5454 46.3331C91.3122 46.6256 91.1018 46.9106 90.8915 47.1957L90.9173 47.1879ZM78.5077 35.2894L79.5349 35.0081L79.4637 34.7407L78.4351 35.0238L78.5077 35.2894ZM92.171 45.4848L92.3901 45.6573L93.0143 44.7966L92.7935 44.6228L92.171 45.4848ZM80.5591 34.7413L81.5878 34.4724L81.5193 34.2015L80.491 34.4736L80.5591 34.7413ZM93.4156 43.7576L93.6364 43.9315C93.8416 43.6423 94.0481 43.3514 94.255 43.0636L94.0246 42.9018C93.7979 43.1825 93.5903 43.4641 93.3886 43.7561L93.4156 43.7576ZM82.6221 34.2106C82.9712 34.125 83.3086 34.0329 83.6515 33.948L83.5831 33.6772C83.2367 33.7593 82.8975 33.8501 82.5519 33.9384L82.6221 34.2106ZM94.6525 42.0328L94.8812 42.1932C95.0864 41.904 95.2898 41.6135 95.4933 41.3229L95.2646 41.1626C95.029 41.4475 94.8255 41.738 94.6204 42.0272L94.6525 42.0328ZM84.6817 33.6915L85.7209 33.4449L85.6552 33.1706L84.6132 33.4206L84.6817 33.6915ZM86.7466 33.1905L87.7845 32.9457L87.7188 32.6715L86.6823 32.9145L86.7466 33.1905ZM95.8704 40.293L96.1008 40.4547C96.3042 40.1642 96.5059 39.8723 96.7076 39.5804L96.4789 39.42C96.245 39.7063 96.0399 39.9955 95.8382 40.2874L95.8704 40.293ZM88.819 32.7124L89.85 32.4763L89.7843 32.202L88.7547 32.4364L88.819 32.7124ZM97.0871 38.5439L97.3158 38.7043L97.9191 37.8271L97.6863 37.672L97.0871 38.5439ZM90.8857 32.2523L91.923 32.0296L91.8614 31.7501L90.8241 31.9727L90.8857 32.2523ZM98.2931 36.7976L98.5245 36.9545L99.1213 36.075L98.8885 35.9199L98.2931 36.7976ZM92.966 31.8141C93.3069 31.7389 93.6492 31.662 94.0058 31.5991L93.9428 31.3213L92.9026 31.5332L92.966 31.8141ZM99.4849 35.0373L99.7177 35.1924L100.31 34.3119L100.075 34.1554L99.4849 35.0373ZM95.0349 31.3868L96.0793 31.1838L96.0177 30.9043L94.9737 31.1104L95.0349 31.3868ZM97.1197 30.986L98.1638 30.794L98.1049 30.511L97.0608 30.703L97.1197 30.986ZM100.66 33.2663L100.892 33.4215L101.479 32.5369L101.246 32.3817L100.66 33.2663ZM99.2097 30.6034L100.256 30.4191L100.208 30.1443L99.1595 30.3273L99.2097 30.6034ZM101.833 31.494L102.07 31.6471L102.651 30.7584L102.416 30.6067L101.833 31.494ZM101.308 30.2357C101.656 30.1754 102.005 30.1176 102.354 30.0624L102.312 29.7869C101.964 29.8394 101.61 29.9019 101.259 29.9609L101.308 30.2357ZM103 29.7114L103.237 29.8644L103.37 29.6563L103.406 29.8932C103.757 29.8377 104.109 29.7828 104.459 29.7285L104.416 29.4516C104.078 29.5043 103.739 29.5557 103.4 29.6101L103.814 28.9748L103.578 28.8231L103 29.7114ZM105.514 29.57L106.567 29.4132L106.527 29.1391L105.47 29.2931L105.514 29.57ZM104.151 27.9337L104.387 28.0854L104.962 27.1912L104.726 27.0396L104.151 27.9337ZM107.618 29.2551L108.676 29.1104L108.638 28.8297L107.582 28.9757L107.618 29.2551ZM105.293 26.1257L105.529 26.2774L106.1 25.3805L105.864 25.2288L105.293 26.1257ZM109.725 28.9699C110.077 28.9233 110.43 28.8798 110.779 28.8366L110.744 28.5586C110.392 28.6005 110.041 28.6449 109.69 28.6919L109.725 28.9699ZM111.834 28.7065L112.891 28.5839L112.858 28.3073L111.801 28.4298L111.834 28.7065ZM106.431 24.334L106.671 24.4804L107.236 23.5794L106.998 23.4312L106.431 24.334ZM113.944 28.4696L115.001 28.3581L114.973 28.0794L113.914 28.1895L113.944 28.4696ZM107.539 22.5301L107.78 22.6779L108.344 21.7724L108.106 21.6242L107.539 22.5301ZM116.035 28.2509L117.095 28.1501L117.066 27.8714L116.008 27.9736L116.035 28.2509ZM108.667 20.7222L108.906 20.8686C109.094 20.5657 109.28 20.2646 109.466 19.9604L109.228 19.8122C109.042 20.1275 108.856 20.4317 108.67 20.736L108.667 20.7222ZM118.153 28.0541L119.214 27.9626L119.189 27.6866L118.128 27.775L118.153 28.0541ZM120.263 27.8788C120.616 27.8526 120.971 27.8246 121.324 27.8015L121.302 27.522C120.95 27.5465 120.595 27.5714 120.244 27.599L120.263 27.8788ZM109.783 18.8967L110.021 19.0449L110.578 18.1339L110.338 17.9875L109.783 18.8967ZM122.391 27.7456L123.453 27.6807L123.435 27.404C123.082 27.4228 122.727 27.4444 122.372 27.4688L122.391 27.7456ZM110.902 17.0931L111.142 17.2426C111.326 16.9401 111.511 16.6345 111.695 16.3289L111.457 16.1838C111.271 16.4881 111.087 16.7937 110.902 17.0931ZM124.512 27.6241L125.576 27.5717L125.568 27.2841C125.221 27.2923 124.86 27.3179 124.505 27.3366L124.512 27.6241ZM126.639 27.524L127.699 27.483L127.694 27.1968C127.345 27.2037 126.987 27.221 126.631 27.2365L126.639 27.524ZM112.004 15.2739L112.245 15.4155L112.795 14.4991L112.554 14.3575L112.004 15.2739ZM128.759 27.4499L129.82 27.4231L129.818 27.1397L128.754 27.1669L128.759 27.4499ZM113.108 13.4358L113.349 13.5774L113.895 12.6613L113.656 12.518L113.108 13.4358ZM130.889 27.392L131.951 27.3824L131.95 27.1004L130.889 27.11L130.889 27.392ZM133.013 27.3742L134.08 27.3688L134.081 27.0881L133.015 27.0935L133.013 27.3742ZM114.194 11.603L114.434 11.7446C114.617 11.4376 114.797 11.1341 114.976 10.8275L114.735 10.6859C114.552 10.9977 114.377 11.2943 114.189 11.6082L114.194 11.603ZM135.134 27.3821L136.198 27.3974L136.201 27.118L135.137 27.1027L135.134 27.3821ZM137.261 27.4175C137.621 27.4189 137.971 27.4324 138.321 27.4491L138.327 27.1725L137.262 27.1448L137.261 27.4175ZM115.274 9.76919L115.515 9.91079L116.053 8.99096L115.814 8.84764L115.274 9.76919ZM139.386 27.4816C139.74 27.4962 140.093 27.5094 140.445 27.5274L140.455 27.2535C140.102 27.2373 139.745 27.2213 139.388 27.2103L139.386 27.4816ZM116.346 7.93165L116.586 8.07498C116.765 7.76526 116.942 7.45729 117.123 7.14894L116.88 7.01083C116.7 7.31744 116.52 7.62887 116.345 7.93337L116.346 7.93165ZM141.503 27.5828C141.858 27.6005 142.211 27.6216 142.563 27.6427L142.575 27.3702L141.52 27.3144L141.503 27.5828ZM143.624 27.7088C143.977 27.7362 144.331 27.7587 144.686 27.7905L144.708 27.509C144.355 27.4816 144.002 27.4574 143.643 27.4308L143.624 27.7088ZM117.412 6.08863L117.654 6.22847C117.831 5.9205 118.009 5.61252 118.185 5.30318L117.943 5.16333C117.766 5.47442 117.588 5.78239 117.41 6.09037L117.412 6.08863ZM145.744 27.8712C146.097 27.9017 146.451 27.9321 146.798 27.9633L146.823 27.6845C146.473 27.6506 146.117 27.6187 145.769 27.5924L145.744 27.8712ZM147.86 28.0671L148.917 28.1779L148.947 27.9C148.598 27.8659 148.245 27.8285 147.889 27.7879L147.86 28.0671ZM118.473 4.23975L118.715 4.3796C118.893 4.07162 119.069 3.76228 119.243 3.45467L119 3.31657C118.823 3.62765 118.648 3.93526 118.472 4.24149L118.473 4.23975ZM149.969 28.3018L151.022 28.4302L151.057 28.1533L150.002 28.0236L149.969 28.3018ZM152.073 28.5811C152.425 28.6274 152.776 28.6786 153.126 28.7285L153.165 28.4527C152.816 28.3997 152.465 28.3516 152.112 28.3022L152.073 28.5811ZM119.528 2.39163L119.772 2.52976L120.295 1.60072L120.051 1.46259L119.528 2.39163ZM154.181 28.8835C154.533 28.9378 154.882 28.9956 155.231 29.0534L155.275 28.7755C154.926 28.7177 154.577 28.6599 154.225 28.6056L154.181 28.8835ZM156.275 29.2334L157.321 29.4258L157.371 29.1503L156.322 28.9582L156.275 29.2334ZM120.564 0.528441L120.808 0.666567C120.984 0.35722 121.157 0.0482386 121.33 -0.265586L121.084 -0.400231C120.917 -0.0840371 120.743 0.226683 120.568 0.534292L120.564 0.528441ZM158.353 29.6214C158.7 29.6883 159.046 29.7591 159.391 29.8336L159.449 29.5604C159.103 29.4859 158.756 29.4143 158.406 29.3455L158.353 29.6214ZM160.43 30.06C160.775 30.1371 161.121 30.2157 161.464 30.2963L161.526 30.0242C161.184 29.9429 160.841 29.8608 160.497 29.7777L160.43 30.06ZM162.489 30.5543L163.524 30.8062L163.595 30.5378C163.248 30.4529 162.903 30.3684 162.557 30.2844L162.489 30.5543ZM164.543 31.0901L164.602 31.1052L164.677 30.8346L164.618 30.8195L164.543 31.0901Z" fill="white"/>
</svg>
