<svg width="1110" height="486" viewBox="0 0 1110 486" fill="none" xmlns="http://www.w3.org/2000/svg">
<g clip-path="url(#clip0_2598_27448)">
<rect width="1110" height="486" fill="white"/>
<rect width="1110" height="486" fill="#03314B"/>
<path d="M180.065 396.363L193.347 409.067L215 377.354L180.065 396.363Z" fill="#CCCCCC"/>
<path d="M174.191 419.488L215 377.354L180.065 396.363L174.191 419.488Z" fill="white"/>
<path d="M180.813 385.439L187.709 392.203L215 377.354L180.813 385.439Z" fill="#CCCCCC"/>
<path d="M215 377.354L185.464 389.999L159.022 384.011L215 377.354Z" fill="white"/>
<path d="M-24.8745 431C-24.8745 431 -24.3682 430.83 -23.4217 430.494L-23.5537 430.119C-24.4971 430.453 -25.0002 430.619 -25.0002 430.619L-24.8745 431ZM-21.9878 429.981L-20.5634 429.459L-20.6986 429.085L-22.1262 429.607L-21.9878 429.981ZM-19.1421 428.921L-17.727 428.384L-17.8685 428.013L-19.2835 428.553L-19.1421 428.921ZM-16.312 427.836L-14.9001 427.28L-15.0479 426.909L-16.4535 427.465L-16.312 427.836ZM-13.482 426.714L-12.0795 426.145L-12.2305 425.777L-13.6329 426.346L-13.482 426.714ZM-10.6802 425.566C-10.2242 425.377 -9.7557 425.182 -9.28403 424.981L-9.4381 424.616L-10.8311 425.198L-10.6802 425.566ZM-7.89104 424.393C-7.43508 424.198 -6.96965 424 -6.50112 423.789L-6.65834 423.428L-8.04511 424.025L-7.89104 424.393ZM-5.11127 423.189L-3.72772 422.576L-3.8881 422.214L-5.27164 422.824L-5.11127 423.189ZM-2.35039 421.956L-0.969993 421.327L-1.13666 420.966L-2.51077 421.595L-2.35039 421.956ZM0.404189 420.698L1.77515 420.07L1.60533 419.711L0.237521 420.34L0.404189 420.698ZM3.14303 419.412C3.59584 419.199 4.05497 418.982 4.51092 418.761L4.33796 418.403L2.97322 419.054L3.14303 419.412ZM5.86929 418.104L7.22773 417.438L7.05162 417.082L5.69633 417.746L5.86929 418.104ZM8.58303 416.765L9.93518 416.085L9.75277 415.73L8.40377 416.409L8.58303 416.765ZM11.281 415.397L12.6268 414.702L12.4413 414.35L11.1018 415.041L11.281 415.397ZM13.9664 414.001L15.3028 413.29L15.1142 412.938L13.7809 413.648L13.9664 414.001ZM16.636 412.576L17.963 411.853L17.7744 411.504L16.4474 412.224L16.636 412.576ZM19.2838 411.12C19.724 410.878 20.1674 410.633 20.6044 410.384L20.4094 410.035L19.0919 410.774L19.2838 411.12ZM21.9188 409.633C22.3559 409.385 22.7961 409.133 23.2332 408.878L23.032 408.536L21.7239 409.29L21.9188 409.633ZM24.5351 408.117L25.8368 407.347L25.6325 407.004L24.3369 407.775L24.5351 408.117ZM110.575 407.935H112.062L112.081 407.539H110.575V407.935ZM109.065 407.935V407.539C108.562 407.539 108.059 407.539 107.559 407.539V407.938C108.034 407.925 108.537 407.932 109.047 407.932L109.065 407.935ZM113.6 407.91L115.109 407.875V407.479L113.603 407.514L113.6 407.91ZM106.053 407.891V407.495L104.547 407.451V407.847C105.012 407.863 105.515 407.875 106.025 407.888L106.053 407.891ZM116.631 407.828L118.144 407.771L118.125 407.372C117.622 407.397 117.118 407.416 116.619 407.432L116.631 407.828ZM103.025 407.787L103.044 407.391C102.541 407.369 102.037 407.344 101.538 407.315L101.515 407.715L103.025 407.787ZM119.653 407.699C120.156 407.677 120.659 407.649 121.162 407.617L121.14 407.221C120.637 407.253 120.134 407.278 119.634 407.303L119.653 407.699ZM100.006 407.627L100.031 407.231L98.5282 407.124L98.4968 407.52C98.9653 407.554 99.4716 407.592 99.9778 407.624L100.006 407.627ZM122.672 407.529L124.178 407.429L124.153 407.032L122.647 407.133L122.672 407.529ZM96.9937 407.397L97.0251 407.001C96.522 406.957 96.0221 406.91 95.5221 406.86L95.4844 407.259L96.9937 407.397ZM125.687 407.315L127.197 407.193L127.162 406.793L125.656 406.916L125.687 407.315ZM93.9781 407.102L94.0253 406.705L92.5254 406.532L92.4751 406.926C92.9467 406.985 93.4467 407.042 93.9341 407.098L93.9781 407.102ZM128.7 407.061L130.206 406.916L130.168 406.52L128.662 406.661L128.7 407.061ZM131.709 406.765L133.215 406.605L133.168 406.209C132.668 406.265 132.165 406.319 131.668 406.369L131.709 406.765ZM90.9751 406.727L91.0286 406.334C90.5286 406.268 90.0318 406.196 89.535 406.124L89.4783 406.517C89.9469 406.586 90.4469 406.658 90.9468 406.724L90.9751 406.727ZM27.1418 406.573L28.4311 405.787L28.2204 405.448L26.9311 406.234L27.1418 406.573ZM134.706 406.438L136.206 406.256L136.155 405.863L134.658 406.042L134.706 406.438ZM87.9784 406.284L88.0445 405.891C87.5434 405.809 87.0466 405.724 86.554 405.636L86.4879 406.033L87.9784 406.284ZM137.709 406.07H137.803L139.209 405.885L139.155 405.492L137.756 405.674H137.658L137.709 406.07ZM84.9974 405.756L85.0729 405.366L83.595 405.051L83.5164 405.441C83.9849 405.561 84.4755 405.655 84.9754 405.753L84.9974 405.756ZM140.705 405.671L142.202 405.463L142.146 405.07L140.652 405.278L140.705 405.671ZM143.696 405.24C144.196 405.168 144.693 405.092 145.193 405.014L145.13 404.621L143.639 404.847L143.696 405.24ZM82.0353 405.136L82.1234 404.746C81.6328 404.633 81.1423 404.52 80.658 404.401L80.5637 404.787C81.0354 404.905 81.5186 405.02 82.0133 405.133L82.0353 405.136ZM29.714 404.989C30.1417 404.724 30.5693 404.454 30.9938 404.187L30.7832 403.85C30.3587 404.118 29.931 404.388 29.5033 404.652L29.714 404.989ZM146.689 404.775L148.18 404.533L148.117 404.14L146.626 404.382L146.689 404.775ZM79.1015 404.416L79.2021 404.033C78.7158 403.905 78.2315 403.773 77.7494 403.636L77.6393 404.02C78.1047 404.156 78.5827 404.287 79.0732 404.413L79.1015 404.416ZM149.673 404.284L151.161 404.026L151.092 403.633L149.604 403.891L149.673 404.284ZM152.648 403.762L154.135 403.492L154.063 403.099L152.579 403.369L152.648 403.762ZM76.1834 403.599L76.3029 403.218L74.8627 402.772L74.7432 403.149C75.1897 403.297 75.6709 403.451 76.1551 403.596L76.1834 403.599ZM32.2768 403.369C32.7013 403.096 33.1258 402.822 33.5346 402.545L33.3176 402.212L32.0598 403.033L32.2768 403.369ZM155.62 403.212L157.104 402.926L157.028 402.539L155.544 402.822L155.62 403.212ZM73.3062 402.668L73.4351 402.291C72.9572 402.127 72.4845 401.958 72.017 401.784L71.8786 402.158C72.3272 402.33 72.7937 402.499 73.2779 402.665L73.3062 402.668ZM158.591 402.633L160.072 402.335L159.994 401.945L158.513 402.259L158.591 402.633ZM161.55 402.033L163.028 401.718L162.946 401.328L161.468 401.643L161.55 402.033ZM34.805 401.718L36.0628 400.879L35.8395 400.548C35.4202 400.827 35.001 401.106 34.5817 401.385L34.805 401.718ZM70.4636 401.614L70.6114 401.243C70.1397 401.061 69.668 400.869 69.2184 400.677L69.0643 401.042C69.4982 401.234 69.9668 401.426 70.4353 401.611L70.4636 401.614ZM164.503 401.404L164.975 401.3L164.89 400.913L164.421 401.014L164.503 401.404ZM67.6776 400.435L67.8379 400.074C67.3788 399.866 66.9229 399.652 66.4764 399.445L66.3034 399.803C66.7332 400.015 67.1818 400.225 67.6493 400.432L67.6776 400.435ZM37.3017 400.03C37.7199 399.747 38.1319 399.457 38.5595 399.168L38.3331 398.854L37.0942 399.709L37.3017 400.03ZM64.9481 399.121L65.1305 398.766C64.6809 398.536 64.2406 398.3 63.8035 398.061L63.6117 398.407C64.0236 398.643 64.467 398.885 64.9198 399.118L64.9481 399.121ZM39.7921 398.3C40.2041 398.008 40.616 397.715 41.0248 397.417L40.7889 397.102L39.5626 397.979L39.7921 398.3ZM62.3036 397.671L62.5049 397.329C62.0709 397.077 61.6433 396.813 61.2219 396.549L61.0081 396.885C61.398 397.134 61.8288 397.385 62.2659 397.652L62.3036 397.671ZM42.248 396.542C42.6673 396.245 43.0729 395.943 43.4649 395.637L43.2259 395.322C42.8234 395.637 42.4178 395.926 42.0153 396.225L42.248 396.542ZM59.7377 396.058L59.9609 395.728C59.5427 395.445 59.134 395.159 58.7283 394.866L58.4956 395.181C58.8667 395.464 59.2786 395.753 59.7 396.039L59.7377 396.058ZM44.6755 394.725L45.8799 393.782L45.6346 393.467C45.2363 393.779 44.8359 394.088 44.4334 394.392L44.6755 394.725ZM57.285 394.278L57.5271 393.964C57.1288 393.656 56.7378 393.341 56.3542 393.021L56.1026 393.335C56.4632 393.643 56.8447 393.951 57.2472 394.26L57.285 394.278ZM47.0685 392.86C47.4647 392.546 47.8578 392.231 48.2477 391.917L47.9993 391.602C47.6094 391.917 47.2163 392.231 46.8233 392.546L47.0685 392.86ZM54.9518 392.335L55.2159 392.039C54.8449 391.706 54.477 391.363 54.1185 391.018L53.8418 391.304C54.1814 391.641 54.5388 391.979 54.914 392.316L54.9518 392.335ZM49.4206 390.958C49.8105 390.637 50.1973 390.314 50.5809 389.989L50.3262 389.675C49.9426 389.989 49.5558 390.319 49.1659 390.64L49.4206 390.958ZM52.7412 390.213L53.0273 389.939C52.6783 389.574 52.3387 389.209 52.0085 388.835L51.6941 389.099C52.0368 389.477 52.3827 389.838 52.7412 390.213ZM51.7003 388.989L52.8418 387.996L52.5777 387.697C52.2003 388.03 51.8198 388.357 51.4394 388.687L51.7003 388.989ZM50.7256 387.945L51.04 387.694C50.7214 387.304 50.4069 386.91 50.0967 386.511L49.7822 386.75C50.0778 387.153 50.3901 387.553 50.7193 387.952L50.7256 387.945ZM53.9738 386.986C54.348 386.65 54.7191 386.307 55.0901 385.967L54.8165 385.675C54.4518 386.018 54.0776 386.354 53.7034 386.694L53.9738 386.986ZM48.9049 385.527L49.2194 385.298C48.9395 384.895 48.6628 384.477 48.3924 384.04L48.0559 384.251C48.3389 384.694 48.6156 385.122 48.8986 385.527H48.9049ZM56.2001 384.936C56.5712 384.587 56.9359 384.241 57.2976 383.886L57.0208 383.603C56.6592 383.952 56.2945 384.301 55.9297 384.644L56.2001 384.936ZM47.2886 382.964L47.6345 382.763C47.383 382.331 47.1408 381.892 46.9081 381.446L46.5559 381.631C46.7666 382.081 47.0245 382.527 47.276 382.964H47.2886ZM58.3761 382.829C58.7346 382.471 59.0899 382.115 59.4421 381.754L59.1591 381.474C58.8069 381.836 58.4516 382.191 58.0963 382.546L58.3761 382.829ZM60.4955 380.669C60.8456 380.302 61.1915 379.934 61.5332 379.565L61.2408 379.295C60.898 379.663 60.5553 380.031 60.2062 380.392L60.4955 380.669ZM45.8799 380.273L46.2384 380.103C46.0277 379.66 45.8201 379.201 45.6095 378.735L45.2416 378.889C45.4428 379.361 45.6535 379.826 45.8673 380.273H45.8799ZM62.5457 378.449C62.8854 378.072 63.2187 377.697 63.5488 377.314L63.2533 377.053C62.9199 377.433 62.5866 377.807 62.2501 378.182L62.5457 378.449ZM44.6881 377.48L45.0592 377.342C44.8831 376.877 44.7154 376.405 44.5561 375.927L44.1787 376.053C44.336 376.537 44.5026 377.012 44.6818 377.48H44.6881ZM64.5362 376.169C64.8632 375.783 65.1861 375.396 65.5047 375.006L65.1902 374.754C64.8758 375.141 64.5614 375.528 64.2249 375.911L64.5362 376.169ZM43.7228 374.597L44.1064 374.487C43.9649 374.009 43.836 373.525 43.7102 373.037L43.3234 373.135C43.4429 373.641 43.5781 374.116 43.7165 374.61L43.7228 374.597ZM66.4543 373.814C66.7688 373.421 67.0832 373.022 67.3977 372.619L67.0832 372.377C66.7688 372.779 66.4544 373.173 66.1588 373.569L66.4543 373.814ZM42.9807 371.657L43.3706 371.572C43.2637 371.088 43.1662 370.594 43.0782 370.1L42.6851 370.17C42.77 370.682 42.8674 371.179 42.9744 371.669L42.9807 371.657ZM68.2939 371.412C68.5936 371.003 68.8892 370.593 69.1806 370.182L68.8662 369.953C68.5769 370.361 68.2823 370.769 67.9826 371.176L68.2939 371.412ZM70.0454 368.94C70.3284 368.522 70.6114 368.1 70.8849 367.682L70.5516 367.465C70.2781 367.883 70.0013 368.302 69.7152 368.723L70.0454 368.94ZM42.4461 368.67L42.8392 368.613C42.7668 368.122 42.704 367.626 42.6474 367.126L42.2511 367.17C42.3046 367.689 42.3643 368.188 42.4398 368.682L42.4461 368.67ZM71.6899 366.406C71.9604 365.975 72.2214 365.544 72.4792 365.11L72.1365 364.909C71.8807 365.341 71.6197 365.768 71.3535 366.192L71.6899 366.406ZM42.0971 365.66L42.4933 365.629C42.4555 365.135 42.4209 364.632 42.3958 364.129L41.9996 364.148C42.0247 364.682 42.0499 365.173 42.0971 365.673V365.66ZM73.2276 363.802C73.4729 363.362 73.716 362.92 73.9571 362.478L73.6081 362.286C73.3691 362.729 73.1259 363.168 72.8786 363.604L73.2276 363.802ZM41.9304 362.632H42.3266C42.3266 362.217 42.3266 361.802 42.3266 361.374V361.12H41.9273V361.374C41.9273 361.811 41.9336 362.233 41.943 362.645L41.9304 362.632ZM74.6583 361.135C74.8879 360.683 75.1143 360.23 75.3281 359.777L74.9696 359.604C74.7527 360.054 74.5325 360.506 74.303 360.953L74.6583 361.135ZM42.3643 359.632C42.3643 359.132 42.4021 358.632 42.4304 358.126L42.0342 358.104C42.0059 358.613 41.9807 359.117 41.965 359.62L42.3643 359.632ZM75.9853 358.412C76.195 357.949 76.3951 357.485 76.5859 357.019L76.2212 356.865C76.0262 357.327 75.8281 357.79 75.6206 358.249L75.9853 358.412ZM42.531 356.623C42.5719 356.126 42.6159 355.626 42.6694 355.123L42.2731 355.082C42.2197 355.588 42.1757 356.092 42.1348 356.592L42.531 356.623ZM77.1519 355.607C77.3343 355.139 77.5104 354.664 77.6802 354.189L77.306 354.057C77.1362 354.529 76.9611 354.998 76.7809 355.466L77.1519 355.607ZM42.8392 353.623C42.8989 353.129 42.9681 352.633 43.0436 352.13L42.6505 352.073C42.575 352.576 42.5059 353.079 42.4461 353.573L42.8392 353.623ZM78.1676 352.762C78.3248 352.28 78.4821 351.818 78.6173 351.318L78.2368 351.205C78.0921 351.683 77.9475 352.148 77.7903 352.636L78.1676 352.762ZM43.2637 350.642C43.3454 350.142 43.4303 349.645 43.5152 349.155L43.1222 349.089C43.0373 349.579 42.9524 350.079 42.8706 350.579L43.2637 350.642ZM79.0166 349.859C79.1456 349.372 79.265 348.884 79.3814 348.394L78.9946 348.303C78.8782 348.79 78.7587 349.274 78.6298 349.759L79.0166 349.859ZM43.7983 347.674C43.8957 347.177 43.9932 346.683 44.0938 346.196L43.7039 346.117C43.6033 346.605 43.5058 347.101 43.4083 347.598L43.7983 347.674ZM79.7147 346.916C79.8122 346.425 79.9097 345.929 79.9946 345.429L79.6015 345.363C79.5135 345.856 79.4254 346.347 79.3248 346.837L79.7147 346.916ZM44.4114 344.715C44.5215 344.218 44.6347 343.731 44.7479 343.246L44.3642 343.158C44.2479 343.639 44.1316 344.133 44.0215 344.63L44.4114 344.715ZM80.2178 343.929L80.0197 343.907H80.221C80.2933 343.397 80.353 342.913 80.4128 342.432L80.0166 342.388C79.96 342.866 79.9002 343.331 79.831 343.831V343.885L80.2178 343.929ZM45.1032 341.797C45.2321 341.303 45.3642 340.819 45.4931 340.341L45.1126 340.234C44.9774 340.712 44.8485 341.199 44.7196 341.693L45.1032 341.797ZM80.5668 340.923C80.614 340.413 80.6517 339.91 80.6832 339.413L80.287 339.385C80.2555 339.879 80.2178 340.382 80.1706 340.888L80.5668 340.923ZM45.9082 338.897C46.0528 338.41 46.2007 337.932 46.3516 337.46L45.9742 337.338C45.8233 337.812 45.6734 338.294 45.5246 338.784L45.9082 338.897ZM80.7555 337.904C80.7712 337.391 80.7807 336.885 80.7807 336.385H80.3845C80.3845 336.882 80.3845 337.382 80.3593 337.888L80.7555 337.904ZM46.8264 336.017C46.9899 335.539 47.1409 335.074 47.3295 334.602L46.9553 334.464C46.7824 334.929 46.6157 335.407 46.449 335.888L46.8264 336.017ZM80.3624 334.873H80.7618C80.7618 334.357 80.7209 333.854 80.6863 333.357L80.2901 333.385C80.3247 333.866 80.3499 334.363 80.3624 334.873ZM47.8672 333.193C48.0559 332.72 48.2456 332.256 48.4364 331.803L48.0716 331.646C47.8767 332.105 47.6848 332.571 47.4961 333.049L47.8672 333.193ZM80.1643 331.876L80.5637 331.832C80.5102 331.319 80.4442 330.819 80.3719 330.326L79.9788 330.382C80.0511 330.87 80.0983 331.366 80.1643 331.876ZM49.0338 330.426C49.2434 329.963 49.4531 329.51 49.6627 329.068L49.3074 328.889C49.0841 329.335 48.8703 329.794 48.6565 330.26L49.0338 330.426ZM79.7241 328.904L80.1141 328.829C80.0197 328.329 79.9128 327.829 79.7996 327.345L79.4159 327.439C79.5323 327.914 79.6392 328.407 79.7335 328.904H79.7241ZM50.3608 327.725C50.5998 327.276 50.8419 326.838 51.0872 326.411L50.7444 326.213C50.4971 326.642 50.2518 327.085 50.0086 327.54L50.3608 327.725ZM79.0323 326.005L79.4128 325.892C79.2682 325.395 79.0984 324.911 78.938 324.445L78.5638 324.581C78.7305 325.021 78.8877 325.502 79.0323 326.005ZM51.867 325.137C52.1406 324.703 52.411 324.285 52.6877 323.879L52.3733 323.656C52.0945 324.075 51.8177 324.495 51.5431 324.914L51.867 325.137ZM78.0135 323.175L78.3783 323.015C78.1707 322.537 77.9506 322.071 77.7242 321.637L77.372 321.823C77.5827 322.251 77.8091 322.703 78.0135 323.175ZM53.5556 322.637C53.8701 322.225 54.1845 321.826 54.4801 321.458L54.1657 321.203C53.8512 321.578 53.5368 321.98 53.2223 322.401L53.5556 322.637ZM76.6394 320.527L76.9758 320.317C76.7054 319.886 76.4161 319.461 76.1111 319.059L75.7966 319.298C76.0828 319.691 76.3689 320.106 76.6394 320.527ZM55.4675 320.323C55.8071 319.955 56.1561 319.59 56.5083 319.244L56.2284 318.961C55.8731 319.31 55.5178 319.681 55.1719 320.056L55.4675 320.323ZM57.612 318.238C58.0082 317.899 58.4044 317.587 58.7818 317.295L58.5459 316.98C58.1591 317.266 57.7598 317.584 57.3542 317.924L57.612 318.238ZM74.8407 318.153L75.1331 317.886C74.7878 317.51 74.4214 317.154 74.0357 316.82L73.7747 317.116C74.146 317.439 74.4998 317.782 74.8344 318.144L74.8407 318.153ZM60.0176 316.471C60.4401 316.208 60.8756 315.967 61.3225 315.748L61.1433 315.392C60.6936 315.616 60.2408 315.864 59.8069 316.134L60.0176 316.471ZM72.5956 316.213L72.8188 315.883C72.3931 315.598 71.9499 315.339 71.4918 315.109L71.3157 315.465C71.7566 315.685 72.1821 315.935 72.5893 316.213H72.5956ZM62.6841 315.157C63.1498 314.986 63.6243 314.84 64.1054 314.719L64.0111 314.336C63.5153 314.456 63.027 314.605 62.5489 314.782L62.6841 315.157ZM69.9479 314.905L70.0705 314.528C69.5832 314.368 69.0851 314.243 68.58 314.153L68.5109 314.546C68.9959 314.631 69.4741 314.75 69.9416 314.905H69.9479ZM65.5456 314.465C66.037 314.407 66.532 314.385 67.0267 314.399V314.002C66.5144 313.992 66.0019 314.013 65.4921 314.065L65.5456 314.465Z" fill="white"/>
<path d="M1041.13 54.377L1047.01 66.1391L1069.26 50.0098L1041.13 54.377Z" fill="#CCCCCC"/>
<path d="M1031.59 68.532L1069.26 50.0098L1041.13 54.377L1031.59 68.532Z" fill="white"/>
<path d="M1044.28 47.1977L1047.29 53.4213L1069.26 50.0098L1044.28 47.1977Z" fill="#CCCCCC"/>
<path d="M1069.26 50.0098L1046.31 51.3946L1029.94 40.9749L1069.26 50.0098Z" fill="white"/>
<path d="M904.092 133.391L904.404 133.557L904.537 133.304C904.388 133.235 904.243 133.158 904.102 133.073L903.589 132.801L903.455 133.054C903.661 133.16 903.873 133.28 904.092 133.391ZM905.39 134.032C905.713 134.175 906.044 134.325 906.382 134.466L906.494 134.207C906.156 134.066 905.829 133.918 905.508 133.771L905.39 134.032ZM902.51 132.504L902.661 132.261C902.352 132.071 902.049 131.874 901.762 131.676L901.602 131.91C901.896 132.099 902.205 132.299 902.515 132.494L902.51 132.504ZM907.382 134.885C907.712 135.012 908.052 135.139 908.397 135.263L908.493 134.995C908.15 134.873 907.814 134.748 907.484 134.621L907.382 134.885ZM900.724 131.266L900.899 131.04C900.609 130.815 900.332 130.587 900.078 130.35L899.889 130.563C900.153 130.795 900.433 131.03 900.729 131.256L900.724 131.266ZM909.42 135.624C909.755 135.736 910.1 135.845 910.452 135.953L910.536 135.68C910.188 135.574 909.845 135.466 909.51 135.354L909.42 135.624ZM899.091 129.829L899.295 129.629C899.043 129.373 898.804 129.114 898.578 128.839L898.358 129.022C898.599 129.275 898.844 129.548 899.101 129.811L899.091 129.829ZM911.492 136.255C911.86 136.359 912.205 136.443 912.549 136.518L912.61 136.237C912.273 136.165 911.928 136.082 911.568 135.982L911.492 136.255ZM913.621 136.707C913.981 136.758 914.339 136.793 914.702 136.825L914.725 136.542C914.37 136.514 914.014 136.475 913.662 136.423L913.621 136.707ZM897.687 128.16L897.922 127.996C897.709 127.692 897.515 127.391 897.348 127.096L897.1 127.242C897.282 127.522 897.479 127.833 897.697 128.142L897.687 128.16ZM915.79 136.867C916.138 136.874 916.495 136.869 916.879 136.846L916.864 136.561C916.486 136.582 916.136 136.59 915.794 136.581L915.79 136.867ZM896.605 126.264L896.863 126.146C896.716 125.823 896.586 125.492 896.475 125.155L896.203 125.245C896.321 125.588 896.457 125.925 896.61 126.254L896.605 126.264ZM917.961 136.756C918.297 136.717 918.647 136.666 919.036 136.6L918.987 136.319C918.604 136.389 918.255 136.441 917.93 136.472L917.961 136.756ZM895.906 124.191L896.191 124.134C896.111 123.788 896.049 123.437 896.004 123.085L895.729 123.122C895.772 123.478 895.833 123.832 895.911 124.181L895.906 124.191ZM920.103 136.381C920.464 136.296 920.817 136.202 921.151 136.105L921.074 135.832C920.741 135.928 920.392 136.018 920.039 136.103L920.103 136.381ZM895.627 122.024L895.911 122.016C895.901 121.667 895.903 121.307 895.923 120.948L895.638 120.932C895.628 121.293 895.624 121.66 895.636 122.016L895.627 122.024ZM922.184 135.771C922.525 135.652 922.863 135.528 923.202 135.392L923.09 135.124C922.755 135.257 922.42 135.381 922.085 135.497L922.184 135.771ZM924.203 134.966C924.534 134.823 924.858 134.663 925.183 134.502L925.063 134.248C924.738 134.415 924.414 134.569 924.092 134.71L924.203 134.966ZM895.741 119.845L896.023 119.885C896.071 119.541 896.141 119.184 896.203 118.83L895.925 118.774C895.859 119.128 895.797 119.49 895.75 119.837L895.741 119.845ZM926.144 134.001C926.459 133.829 926.77 133.651 927.087 133.462L926.941 133.219C926.628 133.405 926.318 133.58 926.01 133.744L926.144 134.001ZM896.182 117.713L896.456 117.792C896.55 117.447 896.656 117.103 896.773 116.768L896.504 116.674C896.395 117.009 896.289 117.352 896.191 117.705L896.182 117.713ZM928.012 132.898C928.313 132.701 928.617 132.503 928.917 132.298L928.759 132.062C928.457 132.266 928.156 132.465 927.858 132.656L928.012 132.898ZM896.879 115.655L897.145 115.758C897.27 115.445 897.411 115.113 897.567 114.772L897.308 114.655C897.16 114.992 897.011 115.325 896.888 115.648L896.879 115.655ZM929.807 131.676C930.09 131.464 930.38 131.249 930.678 131.032L930.504 130.805C930.216 131.026 929.928 131.238 929.651 131.452L929.807 131.676ZM897.783 113.667L898.034 113.8C898.117 113.643 898.202 113.484 898.284 113.329C898.366 113.174 898.453 113.011 898.537 112.852L898.284 112.718C898.199 112.879 898.113 113.042 898.028 113.201C897.944 113.36 897.868 113.508 897.789 113.667L897.783 113.667ZM931.534 130.36C931.812 130.139 932.092 129.908 932.372 129.674L932.189 129.452C931.911 129.689 931.63 129.92 931.354 130.138L931.534 130.36ZM899.078 111.914C899.259 111.61 899.449 111.306 899.648 110.999L899.408 110.846C899.209 111.153 899.016 111.463 898.835 111.767L899.078 111.914ZM933.196 128.965C933.468 128.729 933.737 128.489 934.004 128.245L933.813 128.034C933.546 128.277 933.278 128.514 933.01 128.749L933.196 128.965ZM900.243 110.107C900.442 109.813 900.648 109.52 900.863 109.226L900.632 109.061C900.418 109.354 900.209 109.651 900.005 109.945L900.243 110.107ZM934.799 127.513C935.058 127.267 935.317 127.015 935.579 126.76L935.381 126.556C935.121 126.81 934.861 127.059 934.602 127.304L934.799 127.513ZM901.506 108.36C901.722 108.077 901.941 107.794 902.168 107.509L901.947 107.331C901.716 107.618 901.496 107.904 901.279 108.186L901.506 108.36ZM936.35 125.993C936.601 125.74 936.853 125.482 937.105 125.217L936.9 125.024C936.65 125.283 936.399 125.54 936.147 125.793L936.35 125.993ZM902.848 106.675C903.075 106.401 903.309 106.128 903.54 105.851L903.323 105.664C903.085 105.94 902.852 106.216 902.629 106.493L902.848 106.675ZM937.849 124.429C938.093 124.172 938.338 123.902 938.582 123.634L938.37 123.442C938.126 123.71 937.884 123.974 937.639 124.234L937.849 124.429ZM904.26 105.046C904.498 104.78 904.741 104.514 904.987 104.247L904.778 104.055C904.531 104.323 904.286 104.588 904.048 104.854L904.26 105.046ZM939.301 122.831C939.54 122.563 939.777 122.289 940.014 122.015L939.798 121.826C939.563 122.101 939.326 122.375 939.09 122.638L939.301 122.831ZM905.729 103.464C905.974 103.207 906.22 102.96 906.479 102.693L906.276 102.493C906.023 102.751 905.77 103.007 905.522 103.267L905.729 103.464ZM940.714 121.189C940.946 120.912 941.176 120.637 941.411 120.356L941.19 120.178C940.961 120.456 940.732 120.733 940.496 121.005L940.714 121.189ZM907.246 101.928C907.501 101.678 907.761 101.437 908.018 101.179L907.823 100.971C907.561 101.224 907.301 101.473 907.046 101.725L907.246 101.928ZM942.086 119.515C942.311 119.237 942.537 118.954 942.763 118.667L942.537 118.493C942.314 118.775 942.089 119.058 941.865 119.337L942.086 119.515ZM908.804 100.437C909.064 100.192 909.319 99.9458 909.597 99.7059L909.406 99.4949C909.137 99.7371 908.875 99.9774 908.607 100.228L908.804 100.437ZM943.425 117.813C943.645 117.528 943.863 117.241 944.081 116.951L943.852 116.782C943.636 117.069 943.419 117.354 943.2 117.638L943.425 117.813ZM910.399 98.9804C910.665 98.7443 910.936 98.5012 911.21 98.2692L911.024 98.0534C910.748 98.2893 910.477 98.5274 910.208 98.7695L910.399 98.9804ZM944.729 116.085C944.943 115.797 945.155 115.507 945.371 115.211L945.14 115.045C944.927 115.337 944.715 115.627 944.5 115.916L944.729 116.085ZM912.022 97.5591C912.293 97.3311 912.573 97.0873 912.846 96.8654L912.664 96.6466C912.385 96.8774 912.109 97.1103 911.835 97.3452L912.022 97.5591ZM945.994 114.334C946.203 114.04 946.412 113.748 946.622 113.448L946.389 113.288C946.181 113.583 945.973 113.875 945.763 114.169L945.994 114.334ZM913.68 96.1719C913.956 95.9491 914.237 95.7213 914.519 95.4966L914.34 95.2739C914.059 95.4966 913.779 95.7254 913.5 95.9541L913.68 96.1719ZM947.242 112.554C947.449 112.259 947.651 111.964 947.856 111.665L947.619 111.501C947.417 111.801 947.213 112.098 947.008 112.394L947.242 112.554ZM915.366 94.8175L916.226 94.1579L916.053 93.9312C915.767 94.1538 915.48 94.3784 915.191 94.5949L915.366 94.8175ZM948.462 110.766C948.661 110.469 948.861 110.168 949.06 109.866L948.82 109.708C948.622 110.01 948.423 110.312 948.225 110.61L948.462 110.766ZM917.075 93.4979C917.36 93.2807 917.645 93.0628 917.931 92.8442L917.763 92.6147L916.894 93.2671L917.075 93.4979ZM949.65 108.964C949.845 108.66 950.041 108.356 950.236 108.052L949.996 107.899C949.802 108.204 949.605 108.507 949.411 108.806L949.65 108.964ZM918.808 92.2041C919.096 91.9926 919.389 91.7813 919.68 91.5689L919.511 91.3393C919.221 91.5517 918.928 91.7631 918.64 91.9746L918.808 92.2041ZM950.825 107.139C951.016 106.836 951.207 106.53 951.399 106.224L951.158 106.073C950.966 106.379 950.775 106.685 950.585 106.987L950.825 107.139ZM920.557 90.9438L921.438 90.3189L921.275 90.0845L920.393 90.7094L920.557 90.9438ZM922.326 89.7022C922.622 89.4973 922.918 89.2937 923.215 89.0916L923.058 88.8552C922.756 89.0593 922.459 89.2635 922.163 89.4678L922.326 89.7022ZM951.969 105.304C952.157 104.998 952.343 104.69 952.532 104.382L952.289 104.236C952.1 104.543 951.914 104.852 951.725 105.154L951.969 105.304ZM924.112 88.4871C924.397 88.2947 924.684 88.1054 924.975 87.9111L925.013 87.8879L924.854 87.6505L924.818 87.6748C924.526 87.8691 924.24 88.0584 923.954 88.2508L924.112 88.4871ZM953.09 103.456C953.272 103.15 953.457 102.841 953.642 102.529L953.4 102.38C953.214 102.694 953.03 103.001 952.847 103.309L953.09 103.456ZM925.915 87.2967L926.822 86.7106L926.668 86.4683L925.76 87.0564L925.915 87.2967ZM954.19 101.597C954.373 101.287 954.554 100.975 954.735 100.661L954.485 100.528C954.303 100.842 954.121 101.153 953.94 101.464L954.19 101.597ZM927.734 86.1247C928.034 85.9326 928.341 85.7387 928.646 85.5488L928.494 85.3106C928.19 85.5005 927.885 85.6921 927.581 85.8854L927.734 86.1247ZM955.276 99.718C955.456 99.4083 955.635 99.0955 955.815 98.7758L955.564 98.6429C955.385 98.9557 955.209 99.2695 955.028 99.5812L955.276 99.718ZM929.568 84.9712C929.874 84.7843 930.178 84.5943 930.486 84.4085L930.34 84.1654C930.032 84.3513 929.724 84.5391 929.417 84.733L929.568 84.9712ZM956.345 97.8375L956.871 96.8909L956.62 96.758C956.45 97.078 956.27 97.3897 956.093 97.7035L956.345 97.8375ZM931.419 83.8493C931.728 83.6614 932.037 83.4756 932.347 83.2919L932.2 83.0488L931.271 83.6051L931.419 83.8493ZM957.398 95.9404C957.566 95.6224 957.735 95.3043 957.918 94.9887L957.668 94.8558C957.499 95.1738 957.33 95.4918 957.15 95.8015L957.398 95.9404ZM933.276 82.7456L934.211 82.2025L934.069 81.9565L933.135 82.4976L933.276 82.7456ZM958.43 94.0378C958.599 93.7198 958.768 93.4017 958.937 93.0817L958.685 92.9478C958.515 93.2678 958.346 93.5859 958.178 93.9039L958.43 94.0378ZM935.148 81.6605L936.082 81.1375L935.94 80.8915L935.006 81.4145L935.148 81.6605ZM937.029 80.5976C937.34 80.424 937.655 80.2474 937.971 80.0789L937.834 79.828C937.519 80.0002 937.204 80.1728 936.89 80.3457L937.029 80.5976ZM959.195 91.9959L959.445 92.1288C959.613 91.8127 959.782 91.4947 959.952 91.1747L959.699 91.0408C959.523 91.3777 959.354 91.6958 959.189 92.0128L959.195 91.9959ZM938.921 79.5563L939.873 79.0428L939.736 78.7918L938.784 79.3053L938.921 79.5563ZM960.194 90.0784L960.445 90.2113C960.614 89.8933 960.782 89.5753 960.94 89.2489L960.69 89.1161C960.517 89.4602 960.351 89.7792 960.186 90.0994L960.194 90.0784ZM940.826 78.5293L941.784 78.0189L941.651 77.7651L940.693 78.2754L940.826 78.5293ZM961.188 88.1578L961.438 88.2906L961.925 87.3261L961.672 87.1921L961.188 88.1578ZM942.748 77.5319L943.713 77.0247L943.59 76.7762L942.628 77.2693L942.748 77.5319ZM962.16 86.2255L962.41 86.3584C962.579 86.0404 962.733 85.712 962.891 85.3887L962.634 85.2647C962.452 85.5934 962.302 85.919 962.143 86.2423L962.16 86.2255ZM944.672 76.5456C944.993 76.3823 945.313 76.2209 945.637 76.0616L945.516 75.8091C945.194 75.9694 944.87 76.1337 944.549 76.2971L944.672 76.5456ZM946.603 75.5806L947.573 75.1018L947.452 74.8493L946.481 75.325L946.603 75.5806ZM963.122 84.2911L963.375 84.425C963.531 84.1007 963.689 83.7794 963.846 83.455L963.595 83.3221C963.415 83.657 963.256 83.9803 963.098 84.3036L963.122 84.2911ZM948.552 74.6383L949.529 74.1706L949.409 73.9161L948.431 74.3857L948.552 74.6383ZM964.068 82.3602L964.318 82.4931L964.786 81.519L964.534 81.3851L964.068 82.3602ZM950.505 73.7181L951.485 73.2627L951.368 73.0042L950.388 73.4627L950.505 73.7181ZM964.999 80.4069L965.252 80.5408C965.405 80.2144 965.559 79.8859 965.713 79.5605L965.454 79.4405C965.278 79.7624 965.121 80.0817 964.972 80.4103L964.999 80.4069ZM952.472 72.8134C952.806 72.6644 953.127 72.5112 953.454 72.3641L953.337 72.1056C953.005 72.2505 952.682 72.4028 952.353 72.5538L952.472 72.8134ZM965.924 78.4575L966.182 78.5764C966.335 78.25 966.486 77.9224 966.636 77.5949L966.379 77.476C966.195 77.8037 966.044 78.1312 965.891 78.4576L965.924 78.4575ZM954.438 71.9208L955.433 71.4858L955.318 71.2233L954.321 71.6623L954.438 71.9208ZM956.413 71.0454L957.407 70.6124L957.292 70.35L956.299 70.781L956.413 71.0454ZM966.827 76.4964L967.087 76.6164C967.238 76.2889 967.386 75.9603 967.535 75.6318L967.277 75.5128C967.095 75.8416 966.943 76.168 966.794 76.4966L966.827 76.4964ZM958.4 70.1915L959.388 69.7685L959.273 69.506L958.285 69.9271L958.4 70.1915ZM967.727 74.5262L967.985 74.6451L968.429 73.6584L968.168 73.5454L967.727 74.5262ZM960.383 69.3567L961.381 68.9459L961.268 68.6775L960.271 69.0882L960.383 69.3567ZM968.617 72.5608L968.877 72.6758L969.314 71.6878L969.053 71.5748L968.617 72.5608ZM962.385 68.5413C962.712 68.4043 963.041 68.2653 963.386 68.1377L963.273 67.8713L962.271 68.2718L962.385 68.5413ZM969.49 70.5839L969.751 70.6969L970.183 69.7089L969.92 69.5948L969.49 70.5839ZM964.377 67.7389L965.385 67.3465L965.273 67.0781L964.266 67.4735L964.377 67.7389ZM966.39 66.9601L967.399 66.5788L967.289 66.3064L966.28 66.6877L966.39 66.9601ZM970.344 68.5995L970.605 68.7125L971.032 67.7213L970.771 67.6083L970.344 68.5995ZM968.411 66.1986L969.425 65.8245L969.326 65.5584L968.311 65.9315L968.411 66.1986ZM971.196 66.6141L971.461 66.7241L971.882 65.7298L971.619 65.6208L971.196 66.6141ZM970.443 65.4505C970.78 65.3271 971.119 65.2061 971.459 65.0875L971.366 64.8195C971.027 64.9351 970.685 65.0618 970.345 65.1844L970.443 65.4505ZM972.04 64.6194L972.306 64.7295L972.401 64.4972L972.48 64.7276C972.821 64.6084 973.163 64.4898 973.504 64.3719L973.41 64.1029C973.082 64.2167 972.752 64.3295 972.423 64.4454L972.721 63.735L972.458 63.626L972.04 64.6194ZM974.53 64.0222L975.555 63.6745L975.465 63.4076L974.436 63.7532L974.53 64.0222ZM972.87 62.6324L973.134 62.7414L973.546 61.7428L973.283 61.6338L972.87 62.6324ZM976.578 63.3258L977.61 62.9893L977.521 62.7154L976.491 63.0529L976.578 63.3258ZM973.685 60.6169L973.948 60.7259L974.357 59.7252L974.094 59.6162L973.685 60.6169ZM978.633 62.6587C978.977 62.5482 979.322 62.4408 979.664 62.3343L979.579 62.0625C979.234 62.1683 978.89 62.2764 978.548 62.3869L978.633 62.6587ZM980.695 62.013L981.73 61.6987L981.647 61.428L980.612 61.7422L980.695 62.013ZM974.498 58.6184L974.765 58.7215L975.167 57.7176L974.902 57.6126L974.498 58.6184ZM982.763 61.3935L983.8 61.0904L983.721 60.8168L982.682 61.1188L982.763 61.3935ZM975.279 56.6131L975.548 56.7172L975.947 55.7093L975.682 55.6042L975.279 56.6131ZM984.815 60.7958L985.857 60.5029L985.778 60.2292L984.738 60.5232L984.815 60.7958ZM976.08 54.6003L976.346 54.7033C976.479 54.3663 976.611 54.0313 976.742 53.6933L976.477 53.5882C976.347 53.9374 976.217 54.2754 976.086 54.6135L976.08 54.6003ZM986.898 60.215L987.943 59.9312L987.868 59.6596L986.822 59.9404L986.898 60.215ZM988.977 59.6572C989.326 59.567 989.675 59.4748 990.024 59.3876L989.952 59.1121C989.604 59.2003 989.254 59.2895 988.907 59.3808L988.977 59.6572ZM976.866 52.572L977.131 52.677L977.523 51.6648L977.256 51.5618L976.866 52.572ZM991.081 59.1383L992.132 58.8808L992.063 58.6074C991.714 58.6902 991.363 58.776 991.012 58.8649L991.081 59.1383ZM977.658 50.565L977.925 50.671C978.055 50.335 978.184 49.9959 978.313 49.6568L978.049 49.5548C977.918 49.8928 977.789 50.2319 977.658 50.565ZM993.181 58.6324L994.236 58.387L994.176 58.1008C993.83 58.1719 993.474 58.263 993.122 58.3461L993.181 58.6324ZM995.29 58.1468L996.344 57.9135L996.286 57.6283C995.938 57.6984 995.584 57.7804 995.231 57.8605L995.29 58.1468ZM978.431 48.5454L978.698 48.6434L979.081 47.627L978.815 47.529L978.431 48.5454ZM997.398 57.6883L998.454 57.4692L998.401 57.1861L997.341 57.4061L997.398 57.6883ZM979.202 46.5067L979.468 46.6047L979.849 45.5892L979.584 45.4892L979.202 46.5067ZM999.518 57.2443L1000.58 57.0424L1000.53 56.7603L999.467 56.9622L999.518 57.2443ZM1001.64 56.8415L1002.71 56.6428L1002.66 56.3618L1001.59 56.5605L1001.64 56.8415ZM979.956 44.4766L980.222 44.5746C980.349 44.2344 980.474 43.8983 980.598 43.559L980.331 43.461C980.204 43.8062 980.084 44.1344 979.952 44.4825L979.956 44.4766ZM1003.76 56.465L1004.83 56.2874L1004.78 56.0074L1003.71 56.185L1003.76 56.465ZM1005.9 56.1149C1006.26 56.0511 1006.61 56.0012 1006.96 55.9544L1006.92 55.6765L1005.85 55.8419L1005.9 56.1149ZM980.704 42.4464L980.971 42.5444L981.342 41.5267L981.077 41.4267L980.704 42.4464ZM1008.03 55.794C1008.39 55.7443 1008.75 55.6934 1009.1 55.6477L1009.06 55.3719C1008.71 55.4197 1008.35 55.4684 1007.99 55.5221L1008.03 55.794ZM981.444 40.4139L981.709 40.5139C981.832 40.1717 981.954 39.8314 982.079 39.4902L981.81 39.3961C981.687 39.7353 981.562 40.0796 981.443 40.4159L981.444 40.4139ZM1010.17 55.5114C1010.53 55.4647 1010.88 55.4219 1011.24 55.3792L1011.2 55.1045L1010.14 55.2399L1010.17 55.5114ZM1012.31 55.2531C1012.67 55.2165 1013.03 55.1748 1013.39 55.1422L1013.36 54.8567C1013 54.8933 1012.65 54.933 1012.28 54.9715L1012.31 55.2531ZM982.175 38.3773L982.443 38.4733C982.565 38.133 982.687 37.7927 982.807 37.4514L982.539 37.3554C982.418 37.6987 982.296 38.039 982.174 38.3792L982.175 38.3773ZM1014.46 55.0312C1014.82 54.9976 1015.18 54.964 1015.54 54.9323L1015.51 54.6488C1015.15 54.6784 1014.79 54.711 1014.44 54.7478L1014.46 55.0312ZM1016.62 54.8436L1017.69 54.7629L1017.67 54.4796C1017.32 54.5086 1016.96 54.5351 1016.59 54.5592L1016.62 54.8436ZM982.902 36.3354L983.169 36.4315C983.291 36.0912 983.411 35.7498 983.53 35.4105L983.262 35.3165C983.141 35.6598 983.022 35.9991 982.901 36.3374L982.902 36.3354ZM1018.77 54.6962L1019.85 54.6336L1019.83 54.3504L1018.75 54.412L1018.77 54.6962ZM1020.92 54.5942C1021.28 54.5768 1021.65 54.5643 1022 54.5508L1021.99 54.2678C1021.63 54.2782 1021.27 54.2937 1020.91 54.3081L1020.92 54.5942ZM983.622 34.2955L983.891 34.3895L984.246 33.3654L983.977 33.2714L983.622 34.2955ZM1023.09 54.5146C1023.45 54.5052 1023.81 54.4998 1024.17 54.4943L1024.16 54.2084C1023.8 54.2138 1023.44 54.2192 1023.08 54.2286L1023.09 54.5146ZM1025.25 54.4851L1026.33 54.488L1026.33 54.2032L1025.24 54.2012L1025.25 54.4851ZM984.321 32.2439L984.59 32.338C984.71 31.9967 984.827 31.6563 984.944 31.3108L984.673 31.2207C984.563 31.5673 984.445 31.9097 984.326 32.2491L984.321 32.2439ZM1027.39 54.4967C1027.75 54.5007 1028.11 54.5087 1028.47 54.5207L1028.48 54.237C1028.12 54.225 1027.76 54.2163 1027.4 54.2109L1027.39 54.4967ZM1029.55 54.5588C1029.91 54.5735 1030.27 54.5893 1030.63 54.6079L1030.64 54.3244C1030.28 54.3051 1029.93 54.285 1029.57 54.2643L1029.55 54.5588ZM1031.7 54.6801L1032.78 54.7445L1032.8 54.4632C1032.44 54.441 1032.08 54.4192 1031.72 54.3978L1031.7 54.6801ZM1033.85 54.8438L1033.91 54.8483L1033.94 54.5641L1033.88 54.5596L1033.85 54.8438Z" fill="white"/>
</g>
<defs>
<clipPath id="clip0_2598_27448">
<rect width="1110" height="486" fill="white"/>
</clipPath>
</defs>
</svg>
