<svg width="530" height="400" viewBox="0 0 530 400" fill="none" xmlns="http://www.w3.org/2000/svg">
<path d="M530 76.1537V329.042C530 368.9 503.268 391.798 463.885 397.433C415.112 397.433 328.947 397.433 235.736 397.433C182.517 393.648 121.695 396.936 68.2822 397.433C29.3437 397.798 0 369.591 0 329.042V76.1537C0 35.6026 31.6362 0.346412 70.5072 2.72997C106.608 4.9478 159.709 13.7166 215.061 8.34759C280.897 1.96017 395.015 -3.46772 459.493 2.72997C498.268 6.45906 530 35.6026 530 76.1537Z" fill="#EBFAF9"/>
<path d="M459.115 310.962L386.961 277.866L312.948 207.596L312.849 207.487L240.218 127.767L165.093 136.279L97.5342 85.3996L102.357 78.9691L167.362 127.926L243.385 119.313L318.678 201.958L391.514 271.108L462.454 303.65L459.115 310.962Z" fill="#F2543C"/>
<path d="M461.023 296.625L470.875 313.434L452.398 313.776L461.023 296.625Z" fill="#F2543C"/>
<path d="M130.105 117.406H92.2002V395.925H130.105V117.406Z" fill="#F2543C"/>
<path d="M216.668 169.12H178.763V395.925H216.668V169.12Z" fill="#F2543C"/>
<path d="M303.228 215.669H265.323V395.925H303.228V215.669Z" fill="#F2543C"/>
<path d="M265.323 372.579C265.225 372.578 265.13 372.539 265.06 372.469C264.99 372.399 264.951 372.304 264.95 372.205V243.511C264.961 243.42 265.004 243.336 265.073 243.275C265.141 243.214 265.229 243.18 265.321 243.18C265.412 243.18 265.501 243.214 265.569 243.275C265.637 243.336 265.681 243.42 265.691 243.511V372.205C265.691 372.303 265.653 372.398 265.584 372.468C265.515 372.538 265.421 372.578 265.323 372.579Z" fill="#21111D"/>
<path d="M389.79 293.825H351.885V395.925H389.79V293.825Z" fill="#F2543C"/>
<path d="M476.356 348.485H438.451V395.926H476.356V348.485Z" fill="#F2543C"/>
<path d="M303.23 376.24C303.18 376.24 303.132 376.23 303.086 376.211C303.041 376.193 302.999 376.165 302.965 376.13C302.93 376.095 302.903 376.053 302.884 376.008C302.865 375.962 302.856 375.913 302.856 375.864V216.013L275.864 215.741C275.766 215.739 275.672 215.698 275.603 215.627C275.534 215.556 275.495 215.461 275.496 215.362C275.498 215.263 275.538 215.169 275.609 215.099C275.679 215.03 275.773 214.991 275.872 214.99L303.603 215.273V375.864C303.603 375.963 303.564 376.059 303.494 376.129C303.424 376.2 303.329 376.24 303.23 376.24Z" fill="#21111D"/>
<path d="M351.675 326.312C351.576 326.312 351.482 326.272 351.412 326.202C351.342 326.132 351.302 326.037 351.302 325.938V293.508L370.621 293.169C370.67 293.168 370.719 293.176 370.765 293.194C370.811 293.212 370.853 293.239 370.888 293.273C370.924 293.307 370.952 293.348 370.971 293.393C370.991 293.438 371.001 293.486 371.002 293.536C371.003 293.635 370.966 293.73 370.897 293.802C370.829 293.873 370.735 293.915 370.636 293.917L352.048 294.244V325.938C352.048 326.037 352.009 326.133 351.939 326.203C351.869 326.273 351.774 326.312 351.675 326.312Z" fill="#21111D"/>
<path d="M389.793 396.299C389.694 396.299 389.599 396.26 389.529 396.19C389.459 396.12 389.42 396.025 389.42 395.925V341.403C389.43 341.311 389.474 341.227 389.542 341.166C389.611 341.105 389.699 341.072 389.791 341.072C389.882 341.072 389.97 341.105 390.039 341.166C390.107 341.227 390.151 341.311 390.161 341.403V395.925C390.16 396.024 390.122 396.118 390.053 396.187C389.984 396.257 389.891 396.298 389.793 396.299Z" fill="#21111D"/>
<path d="M476.355 387.285C476.256 387.285 476.162 387.245 476.092 387.175C476.022 387.105 475.983 387.01 475.982 386.911V348.859H438.824V362.019C438.813 362.11 438.769 362.195 438.701 362.256C438.633 362.317 438.544 362.35 438.453 362.35C438.361 362.35 438.273 362.317 438.205 362.256C438.136 362.195 438.093 362.11 438.082 362.019V348.111H476.733V386.911C476.733 386.961 476.723 387.01 476.704 387.055C476.685 387.101 476.657 387.142 476.622 387.177C476.587 387.212 476.545 387.239 476.499 387.258C476.453 387.276 476.405 387.286 476.355 387.285Z" fill="#21111D"/>
<path d="M216.666 217.752C216.567 217.751 216.473 217.712 216.403 217.642C216.333 217.572 216.293 217.477 216.293 217.378V169.489L194.682 169.09H170.317C170.265 169.096 170.212 169.091 170.162 169.075C170.112 169.059 170.066 169.033 170.026 168.998C169.987 168.963 169.956 168.92 169.934 168.871C169.912 168.823 169.901 168.771 169.901 168.718C169.901 168.666 169.912 168.614 169.934 168.565C169.956 168.517 169.987 168.474 170.026 168.439C170.066 168.404 170.112 168.378 170.162 168.362C170.212 168.346 170.265 168.341 170.317 168.347H194.689L217.039 168.758V217.383C217.038 217.481 216.998 217.575 216.928 217.644C216.858 217.713 216.764 217.752 216.666 217.752Z" fill="#21111D"/>
<path d="M92.2627 187.725C92.1639 187.724 92.0694 187.685 91.9995 187.615C91.9297 187.545 91.8901 187.45 91.8895 187.351L91.8252 116.955H114.281C114.334 116.949 114.387 116.954 114.437 116.97C114.487 116.986 114.533 117.012 114.573 117.047C114.612 117.082 114.643 117.125 114.665 117.174C114.686 117.222 114.698 117.274 114.698 117.327C114.698 117.379 114.686 117.431 114.665 117.48C114.643 117.528 114.612 117.571 114.573 117.606C114.533 117.641 114.487 117.667 114.437 117.683C114.387 117.699 114.334 117.704 114.281 117.698H92.5717L92.6359 187.346C92.6359 187.395 92.6263 187.444 92.6075 187.489C92.5888 187.534 92.5613 187.576 92.5267 187.61C92.492 187.645 92.4508 187.673 92.4055 187.692C92.3603 187.71 92.3117 187.72 92.2627 187.72V187.725Z" fill="#21111D"/>
<path d="M130.103 344.264C130.004 344.263 129.91 344.223 129.84 344.153C129.77 344.083 129.731 343.989 129.73 343.89V126.752C129.724 126.699 129.729 126.646 129.745 126.596C129.761 126.546 129.787 126.499 129.822 126.46C129.857 126.421 129.9 126.389 129.948 126.368C129.996 126.346 130.048 126.335 130.101 126.335C130.153 126.335 130.205 126.346 130.253 126.368C130.301 126.389 130.344 126.421 130.379 126.46C130.414 126.499 130.44 126.546 130.456 126.596C130.472 126.646 130.477 126.699 130.471 126.752V343.885C130.472 343.934 130.463 343.982 130.445 344.028C130.427 344.074 130.4 344.115 130.365 344.151C130.331 344.186 130.29 344.214 130.245 344.233C130.2 344.253 130.152 344.263 130.103 344.264Z" fill="#21111D"/>
<path d="M92.1982 396.299C92.0995 396.299 92.005 396.259 91.9352 396.189C91.8654 396.119 91.8258 396.024 91.8252 395.925V359.22C91.8357 359.129 91.8793 359.045 91.9476 358.984C92.016 358.923 92.1043 358.889 92.1958 358.889C92.2873 358.889 92.3756 358.923 92.444 358.984C92.5123 359.045 92.5558 359.129 92.5664 359.22V395.925C92.5657 396.024 92.5269 396.118 92.4581 396.187C92.3894 396.257 92.2961 396.298 92.1982 396.299Z" fill="#21111D"/>
<path d="M153.508 146.846C153.508 146.846 144.061 141.599 121.644 149.464C99.2276 157.329 83.0349 182.29 76.8084 198.758C70.582 215.225 63.357 262.914 67.3415 267.903C71.326 272.892 159.253 225.124 159.253 225.124L165.076 163.261L153.508 146.846Z" fill="#FFB601"/>
<path d="M232.72 365.388L239.725 379.252L218.616 391.41L213.683 381.657L215.255 373.25L232.72 365.388Z" fill="#FE9F73"/>
<path d="M221.59 395.811H256.457C256.714 395.774 256.967 395.717 257.216 395.643C259.732 394.828 259.653 393.243 259.482 392.554C259.433 392.351 259.309 392.173 259.134 392.059L239.725 379.252L233.358 382.121C231.334 383.047 229.172 383.633 226.959 383.855C222.44 384.296 215.124 384.531 213.683 381.67L213.982 392.653C213.982 392.653 212.953 395.896 221.59 395.811Z" fill="#303030"/>
<path d="M204.59 251.936C204.59 251.936 234.232 333.81 242.69 369.505C242.69 369.505 228.243 383.733 210.063 382.237L184.655 325.572L204.59 251.936Z" fill="#476CA8"/>
<path d="M147.986 301.98L134.431 357.357L133.091 381.657L138.025 391.41L157.702 384.016L184.047 296.367L147.986 301.98Z" fill="#FE9F73"/>
<path d="M181.925 229.533C181.925 229.533 203.062 227.348 207.496 247.138C209.997 258.299 195.706 304.398 184.165 337.898C176.997 358.693 168.909 378.866 168.909 378.866C168.909 378.866 142.678 379.49 129.771 370.255L147.207 292.015C147.207 292.015 100.223 307.35 83.2861 293.372C66.3494 279.394 67.343 267.91 67.343 267.91L101.219 240.697L181.925 229.533Z" fill="#6B85B6"/>
<path d="M96.1153 216.365L130.241 207.866L130.659 226.977C130.659 226.977 152.437 222.33 167.735 219.915L180.574 238.572C177.511 239.392 161.875 243.774 157.46 245.693C157.46 245.693 114.802 263.667 104.841 259.424C94.8794 255.181 96.1153 216.365 96.1153 216.365Z" fill="#FE9F73"/>
<path d="M123.376 233.154C123.312 233.154 123.249 233.134 123.197 233.097C123.145 233.06 123.105 233.008 123.084 232.948C123.062 232.887 123.06 232.822 123.076 232.76C123.093 232.698 123.129 232.643 123.178 232.602L130.307 226.721C130.338 226.692 130.374 226.67 130.415 226.655C130.455 226.641 130.497 226.635 130.54 226.637C130.582 226.64 130.624 226.652 130.662 226.671C130.7 226.69 130.733 226.717 130.76 226.75C130.787 226.783 130.808 226.821 130.819 226.862C130.831 226.903 130.834 226.946 130.829 226.989C130.824 227.031 130.809 227.072 130.788 227.109C130.766 227.145 130.737 227.177 130.702 227.202L123.574 233.083C123.518 233.129 123.448 233.154 123.376 233.154Z" fill="#F07162"/>
<path d="M182.61 143.244C182.61 143.244 183.545 144.163 182.858 146.004C182.17 147.844 177.785 156.923 177.785 156.923C177.785 156.923 184.052 211.047 184.047 219.976C184.042 228.906 155.272 224.656 155.272 224.656C155.272 224.656 160.876 157.75 164.24 154.668C167.604 151.587 182.61 143.244 182.61 143.244Z" fill="#F9956E"/>
<path d="M185.487 139.761L173.931 155.347C173.931 155.347 170.426 160.512 165.586 157.881L161.448 165.176C160.708 166.496 159.53 167.515 158.12 168.058C156.709 168.601 155.153 168.633 153.722 168.149C152.071 167.579 150.518 166.757 149.117 165.714C144.116 161.998 144.195 156.217 145.162 154.027C146.128 151.837 154.04 143.792 154.04 143.792L157.167 139.264L170.406 122.593L185.487 139.761Z" fill="#FE9F73"/>
<path d="M158.601 146.073C158.601 146.073 152.668 154.678 162.533 163.259L165.586 157.879C165.586 157.879 157.797 154.2 158.601 146.073Z" fill="#F07162"/>
<path d="M167.356 138.949C167.302 138.908 167.266 138.849 167.254 138.783C167.243 138.715 167.26 138.646 167.299 138.59C167.339 138.534 167.399 138.495 167.467 138.483C167.519 138.483 172.561 137.671 173.612 141.735C173.622 141.768 173.625 141.802 173.621 141.837C173.617 141.871 173.606 141.904 173.588 141.933C173.571 141.963 173.547 141.988 173.519 142.008C173.492 142.028 173.46 142.042 173.426 142.049C173.393 142.06 173.359 142.063 173.324 142.059C173.29 142.056 173.257 142.045 173.227 142.027C173.197 142.01 173.171 141.986 173.151 141.958C173.131 141.93 173.117 141.898 173.11 141.864C172.178 138.265 167.744 138.966 167.553 138.996C167.519 139.003 167.483 139.002 167.449 138.994C167.415 138.986 167.383 138.97 167.356 138.949Z" fill="black"/>
<path d="M161.801 131.414L165.6 135.699L165.788 137.148C165.788 137.148 171.011 129.303 171.258 127.188C171.505 125.072 161.801 131.414 161.801 131.414Z" fill="black"/>
<path d="M176.87 144.091C176.841 144.069 176.816 144.041 176.798 144.008C176.781 143.976 176.77 143.94 176.766 143.903C176.764 143.868 176.768 143.834 176.78 143.801C176.791 143.768 176.808 143.737 176.831 143.711C176.854 143.685 176.882 143.664 176.914 143.649C176.945 143.634 176.979 143.625 177.013 143.623C177.152 143.623 180.402 143.39 180.857 145.404C180.858 145.463 180.839 145.522 180.803 145.569C180.766 145.616 180.715 145.649 180.657 145.663C180.599 145.676 180.538 145.67 180.485 145.644C180.431 145.618 180.388 145.574 180.363 145.52C180.007 143.94 177.095 144.141 177.065 144.143C177.031 144.149 176.996 144.147 176.962 144.138C176.928 144.129 176.897 144.113 176.87 144.091Z" fill="black"/>
<path d="M170.943 142.929C170.851 143.053 170.724 143.147 170.579 143.198C170.434 143.25 170.277 143.258 170.128 143.22C169.979 143.182 169.844 143.101 169.741 142.987C169.638 142.872 169.571 142.73 169.548 142.577C169.526 142.425 169.549 142.269 169.615 142.13C169.681 141.99 169.787 141.873 169.919 141.794C170.051 141.715 170.203 141.677 170.357 141.684C170.511 141.692 170.658 141.745 170.782 141.837C170.947 141.961 171.057 142.145 171.087 142.35C171.117 142.555 171.065 142.763 170.943 142.929Z" fill="black"/>
<path d="M178.049 147.247C177.958 147.371 177.831 147.465 177.686 147.517C177.541 147.569 177.384 147.577 177.235 147.54C177.085 147.502 176.95 147.421 176.847 147.307C176.744 147.192 176.676 147.05 176.654 146.897C176.631 146.744 176.655 146.588 176.721 146.449C176.787 146.309 176.892 146.192 177.025 146.113C177.157 146.034 177.309 145.996 177.463 146.004C177.617 146.012 177.765 146.065 177.889 146.157C178.054 146.281 178.163 146.465 178.194 146.669C178.224 146.873 178.172 147.081 178.049 147.247Z" fill="black"/>
<path d="M165.943 138.87C165.393 139.613 164.634 140.176 163.764 140.488C162.894 140.799 161.951 140.846 161.055 140.62C160.159 140.395 159.35 139.908 158.729 139.222C158.109 138.535 157.706 137.68 157.571 136.764C157.436 135.848 157.575 134.913 157.97 134.076C158.365 133.239 159 132.538 159.792 132.063C160.585 131.587 161.501 131.357 162.424 131.403C163.347 131.449 164.235 131.768 164.977 132.32C165.971 133.061 166.631 134.166 166.813 135.395C166.994 136.623 166.681 137.872 165.943 138.87Z" fill="#FE9F73"/>
<path d="M159.987 137.676C159.656 137.414 159.418 137.051 159.309 136.642C159.201 136.232 159.228 135.799 159.387 135.407C159.51 135.015 159.761 134.676 160.1 134.445C160.438 134.214 160.844 134.103 161.253 134.131C161.688 134.166 162.103 134.331 162.445 134.604C162.786 134.877 163.038 135.247 163.169 135.664C163.326 135.177 163.302 134.649 163.099 134.178C162.662 133.222 161.525 132.836 161.515 132.833C161.482 132.823 161.455 132.799 161.439 132.769C161.423 132.738 161.421 132.702 161.431 132.67C161.441 132.637 161.465 132.609 161.495 132.594C161.526 132.578 161.561 132.575 161.594 132.585C161.646 132.603 162.847 133.009 163.324 134.072C163.604 134.683 163.584 135.384 163.265 136.152L163.087 136.583L163.018 136.123C163.018 136.056 162.771 134.525 161.221 134.389C160.87 134.369 160.522 134.468 160.232 134.668C159.943 134.869 159.728 135.16 159.622 135.496C159.477 135.836 159.448 136.216 159.541 136.574C159.633 136.932 159.842 137.25 160.133 137.478L160.153 137.492C160.169 137.501 160.183 137.514 160.195 137.529C160.206 137.544 160.213 137.561 160.217 137.579C160.221 137.597 160.221 137.616 160.218 137.634C160.214 137.652 160.206 137.669 160.195 137.684C160.184 137.7 160.17 137.712 160.154 137.721C160.138 137.73 160.12 137.736 160.102 137.738C160.083 137.74 160.065 137.737 160.047 137.731C160.029 137.725 160.013 137.716 160 137.703L159.987 137.676Z" fill="#F07162"/>
<path d="M170.02 148.798C169.998 148.781 169.982 148.759 169.973 148.732C169.965 148.706 169.965 148.678 169.973 148.652C169.984 148.619 170.008 148.593 170.038 148.578C170.069 148.562 170.104 148.56 170.136 148.57L172.739 149.432L175.73 144.017C175.738 144.002 175.749 143.989 175.762 143.978C175.775 143.967 175.791 143.959 175.807 143.954C175.823 143.949 175.84 143.948 175.857 143.95C175.874 143.952 175.891 143.957 175.905 143.965C175.921 143.973 175.934 143.985 175.945 143.998C175.955 144.011 175.963 144.027 175.968 144.043C175.973 144.06 175.975 144.077 175.973 144.094C175.971 144.112 175.966 144.128 175.957 144.143L172.86 149.747L170.055 148.818L170.02 148.798Z" fill="#F07162"/>
<path d="M168.932 150.727C168.973 150.727 169.013 150.715 169.047 150.692C169.082 150.669 169.109 150.637 169.125 150.599C169.141 150.561 169.145 150.519 169.138 150.478C169.13 150.437 169.111 150.4 169.082 150.37C168.206 149.522 167.215 148.8 166.139 148.226C166.09 148.199 166.032 148.193 165.979 148.209C165.926 148.225 165.881 148.261 165.854 148.31C165.841 148.334 165.832 148.361 165.829 148.388C165.826 148.416 165.829 148.443 165.837 148.47C165.844 148.496 165.857 148.521 165.875 148.542C165.892 148.564 165.914 148.582 165.938 148.595C166.975 149.152 167.931 149.847 168.781 150.663C168.821 150.703 168.875 150.726 168.932 150.727Z" fill="#F07162"/>
<path d="M156.144 168.716C160.131 168.716 161.627 165.293 161.641 165.248L165.255 158.176C170.107 160.628 174.06 155.518 174.099 155.464L185.655 139.88C185.683 139.835 185.694 139.781 185.684 139.728C185.674 139.676 185.644 139.629 185.601 139.598C185.558 139.566 185.505 139.552 185.452 139.559C185.399 139.565 185.35 139.592 185.316 139.633L173.763 155.218C173.61 155.424 169.887 160.227 165.265 157.713L165.075 157.611L161.261 165.077C160.777 166.109 159.99 166.969 159.005 167.541C158.021 168.113 156.886 168.371 155.751 168.28C155.723 168.277 155.695 168.28 155.668 168.288C155.642 168.297 155.617 168.311 155.596 168.329C155.575 168.348 155.558 168.371 155.547 168.397C155.535 168.422 155.529 168.45 155.529 168.478C155.527 168.506 155.531 168.534 155.54 168.56C155.549 168.586 155.563 168.61 155.581 168.631C155.6 168.651 155.622 168.668 155.647 168.68C155.672 168.692 155.699 168.699 155.726 168.701C155.867 168.711 156.008 168.716 156.144 168.716Z" fill="#F07162"/>
<path d="M161.801 131.414C161.801 131.414 165.958 123.153 170.205 122.09C174.451 121.027 190.832 125.806 191.376 128.327C191.92 130.849 189.136 131.347 189.136 131.347C189.136 131.347 195.516 133.527 193.289 138.974C191.062 144.421 178.537 138.119 173.515 131.047C173.524 131.054 168.208 129.078 161.801 131.414Z" fill="black"/>
<path d="M149.505 168.914C149.605 168.914 149.703 168.879 149.779 168.813C149.855 168.748 149.906 168.658 149.921 168.558C149.937 168.459 149.916 168.357 149.864 168.272C149.811 168.186 149.729 168.122 149.633 168.092C140.883 165.258 144.267 153.006 144.302 152.883C144.322 152.828 144.331 152.77 144.327 152.712C144.324 152.654 144.309 152.598 144.283 152.546C144.256 152.494 144.22 152.448 144.175 152.412C144.13 152.375 144.079 152.347 144.023 152.331C143.967 152.316 143.909 152.311 143.852 152.319C143.794 152.327 143.739 152.346 143.69 152.376C143.64 152.407 143.597 152.447 143.564 152.494C143.531 152.541 143.508 152.595 143.496 152.652C143.456 152.783 139.85 165.808 149.374 168.894C149.417 168.907 149.461 168.913 149.505 168.914Z" fill="#21111D"/>
<path d="M93.7363 217.378L135.262 207.049L135.317 206.801C135.371 206.553 140.742 180.688 140.557 167.131C140.369 153.328 135.262 151.369 135.045 151.295C134.941 151.263 134.829 151.272 134.733 151.32C134.636 151.369 134.561 151.453 134.525 151.556C134.488 151.658 134.493 151.77 134.537 151.869C134.582 151.969 134.663 152.047 134.763 152.087C134.84 152.117 139.539 154.069 139.707 167.14C139.88 179.878 135.099 203.625 134.538 206.367L94.6311 216.286C94.8338 212.139 96.1142 186.395 97.2191 177.098C97.2256 177.043 97.2212 176.988 97.2062 176.934C97.1913 176.881 97.1659 176.831 97.1317 176.788C97.0975 176.744 97.0551 176.708 97.0069 176.681C96.9587 176.654 96.9057 176.637 96.8508 176.63C96.796 176.624 96.7404 176.628 96.6872 176.643C96.634 176.658 96.5843 176.683 96.5409 176.718C96.4975 176.752 96.4613 176.794 96.4344 176.843C96.4074 176.891 96.3902 176.944 96.3837 176.999C95.1799 187.101 93.7784 216.516 93.766 216.811L93.7363 217.378Z" fill="#21111D"/>
<path d="M95.6812 189.199C95.7774 189.198 95.8705 189.165 95.9457 189.105C96.0322 189.034 96.0873 188.932 96.0989 188.821C96.1105 188.71 96.0776 188.599 96.0075 188.513C94.8532 187.086 93.0908 182.848 93.071 182.815C93.0262 182.716 92.9443 182.637 92.8428 182.597C92.7412 182.556 92.628 182.557 92.5271 182.599C92.4261 182.641 92.3454 182.721 92.302 182.821C92.2587 182.922 92.2562 183.035 92.2949 183.137C92.3691 183.316 94.124 187.532 95.355 189.053C95.3952 189.1 95.4453 189.137 95.5017 189.162C95.5581 189.188 95.6195 189.2 95.6812 189.199Z" fill="#21111D"/>
<path d="M94.6626 207.898C94.7414 207.899 94.8187 207.876 94.8851 207.834C102.412 203.155 137.012 194.567 137.36 194.48C137.466 194.453 137.557 194.387 137.614 194.294C137.671 194.202 137.69 194.091 137.667 193.985C137.64 193.876 137.571 193.783 137.476 193.725C137.381 193.667 137.266 193.649 137.158 193.675C135.729 194.029 102.08 202.382 94.4401 207.13C94.3618 207.178 94.3013 207.251 94.268 207.337C94.2346 207.422 94.2302 207.517 94.2554 207.605C94.2806 207.694 94.3341 207.772 94.4077 207.827C94.4812 207.882 94.5708 207.911 94.6626 207.911V207.898Z" fill="#21111D"/>
<path d="M168.814 379.287H169.193L169.299 379.039C180.266 352.237 212.157 259.726 207.584 245.599C203.753 233.769 193.54 230.737 193.436 230.695C193.383 230.679 193.327 230.674 193.271 230.679C193.216 230.685 193.162 230.702 193.113 230.729C193.065 230.756 193.022 230.792 192.987 230.836C192.952 230.879 192.926 230.929 192.911 230.983C192.896 231.037 192.891 231.093 192.898 231.148C192.905 231.204 192.922 231.257 192.95 231.306C192.977 231.354 193.014 231.397 193.058 231.431C193.102 231.465 193.152 231.49 193.206 231.505C193.302 231.532 203.093 234.477 206.784 245.872C211.282 259.766 179.666 351.395 168.627 378.469C166.429 378.469 151.774 378.279 141.207 375.046C141.1 375.013 140.985 375.024 140.887 375.076C140.788 375.129 140.714 375.218 140.682 375.325C140.649 375.432 140.66 375.547 140.712 375.646C140.764 375.744 140.853 375.818 140.96 375.851C152.011 379.208 167.438 379.287 168.814 379.287Z" fill="#21111D"/>
<path d="M142.035 313.986C142.13 313.987 142.222 313.954 142.297 313.895C142.371 313.836 142.424 313.752 142.445 313.659L148.933 284.844C148.951 284.738 148.927 284.629 148.867 284.54C148.808 284.451 148.716 284.388 148.612 284.365C148.507 284.341 148.398 284.358 148.305 284.413C148.213 284.467 148.145 284.555 148.115 284.658L141.624 313.474C141.603 313.582 141.624 313.694 141.684 313.786C141.743 313.879 141.836 313.944 141.943 313.969C141.973 313.979 142.004 313.984 142.035 313.986Z" fill="#21111D"/>
<path d="M121.492 298.123C132.964 296.622 146.786 292.674 146.952 292.612C147.008 292.599 147.061 292.576 147.107 292.542C147.154 292.508 147.193 292.465 147.223 292.416C147.252 292.366 147.271 292.311 147.278 292.254C147.286 292.197 147.281 292.139 147.265 292.084C147.249 292.028 147.222 291.977 147.186 291.932C147.149 291.888 147.104 291.851 147.053 291.825C147.002 291.799 146.946 291.784 146.888 291.78C146.831 291.776 146.773 291.785 146.719 291.804C146.517 291.861 126.411 297.623 114.692 297.843C114.637 297.844 114.582 297.855 114.532 297.877C114.481 297.899 114.435 297.931 114.396 297.971C114.358 298.011 114.328 298.058 114.308 298.11C114.288 298.161 114.278 298.216 114.279 298.272C114.282 298.383 114.328 298.489 114.408 298.567C114.488 298.644 114.596 298.687 114.707 298.685C116.977 298.621 119.242 298.434 121.492 298.123Z" fill="#21111D"/>
<path d="M183.07 238.626C181.698 238.213 173.049 239.233 169.875 239.818L169.858 239.796L153.893 243.105L153.51 222.404C153.51 222.404 172.328 218.817 175.106 218.535C177.884 218.252 187.519 220.415 190.592 222.558C196.165 226.447 192.987 227.016 192.987 227.016C198.397 231.599 193.13 231.904 193.13 231.904C198.341 235.584 193.434 236.833 193.434 236.833C196.027 239.095 195.617 240.328 194.821 240.962C194.53 241.186 194.19 241.339 193.83 241.408C193.469 241.478 193.098 241.461 192.744 241.361C191.069 240.91 186.874 239.768 183.07 238.621V238.626Z" fill="#FE9F73"/>
<path d="M187.217 233.791C187.138 233.794 187.062 233.826 187.003 233.879C186.945 233.933 186.907 234.006 186.897 234.085C186.887 234.164 186.905 234.244 186.948 234.311C186.992 234.377 187.057 234.427 187.133 234.45C189.627 235.178 193.243 237.112 193.278 237.132C193.356 237.169 193.444 237.174 193.526 237.147C193.608 237.12 193.676 237.063 193.717 236.987C193.758 236.911 193.768 236.823 193.746 236.74C193.723 236.656 193.67 236.585 193.597 236.54C193.446 236.458 189.889 234.559 187.321 233.816C187.287 233.803 187.252 233.795 187.217 233.791Z" fill="#F07162"/>
<path d="M187.076 229.535C186.991 229.536 186.909 229.568 186.848 229.627C186.786 229.685 186.749 229.765 186.744 229.85C186.739 229.935 186.766 230.019 186.821 230.084C186.875 230.149 186.952 230.191 187.036 230.202C189.103 230.566 191.103 231.24 192.969 232.203C193.007 232.228 193.051 232.245 193.097 232.253C193.142 232.26 193.189 232.258 193.234 232.247C193.279 232.236 193.321 232.215 193.358 232.187C193.394 232.158 193.425 232.123 193.447 232.082C193.469 232.041 193.483 231.996 193.487 231.95C193.491 231.904 193.486 231.857 193.471 231.813C193.456 231.769 193.432 231.729 193.401 231.694C193.37 231.66 193.332 231.632 193.29 231.613C191.362 230.608 189.29 229.908 187.148 229.538C187.124 229.534 187.1 229.533 187.076 229.535Z" fill="#F07162"/>
<path d="M187.689 224.658C187.607 224.662 187.53 224.696 187.471 224.753C187.412 224.81 187.377 224.887 187.37 224.968C187.364 225.05 187.387 225.131 187.437 225.197C187.486 225.262 187.557 225.308 187.637 225.324C190.321 225.82 192.788 227.306 192.813 227.306C192.889 227.348 192.979 227.359 193.063 227.336C193.147 227.314 193.219 227.259 193.264 227.184C193.309 227.11 193.323 227.02 193.303 226.935C193.284 226.85 193.232 226.776 193.159 226.729C191.479 225.758 189.656 225.06 187.758 224.661C187.735 224.656 187.712 224.655 187.689 224.658Z" fill="#F07162"/>
<path d="M199.126 263.613C199.237 263.612 199.342 263.568 199.421 263.49C199.499 263.413 199.544 263.307 199.546 263.196C199.591 259.581 198.843 256 197.354 252.706C197.296 252.624 197.21 252.565 197.112 252.541C197.014 252.517 196.911 252.528 196.821 252.574C196.731 252.62 196.661 252.696 196.622 252.789C196.584 252.883 196.581 252.987 196.612 253.083C198.029 256.26 198.747 259.705 198.718 263.184C198.717 263.239 198.727 263.294 198.747 263.346C198.768 263.397 198.798 263.444 198.836 263.484C198.874 263.524 198.92 263.556 198.971 263.578C199.021 263.6 199.076 263.612 199.131 263.613H199.126Z" fill="#21111D"/>
<path d="M196.979 266.513C197.085 266.514 197.187 266.474 197.265 266.401C197.342 266.329 197.39 266.23 197.397 266.124C197.681 262.424 195.59 256.907 195.501 256.674C195.483 256.62 195.455 256.571 195.417 256.528C195.379 256.486 195.333 256.451 195.282 256.427C195.231 256.403 195.175 256.389 195.118 256.387C195.061 256.385 195.005 256.395 194.952 256.415C194.899 256.435 194.851 256.466 194.81 256.506C194.769 256.546 194.737 256.593 194.715 256.646C194.693 256.698 194.682 256.754 194.683 256.811C194.683 256.868 194.695 256.924 194.718 256.977C194.737 257.031 196.829 262.547 196.559 266.06C196.555 266.115 196.561 266.171 196.578 266.223C196.595 266.276 196.623 266.325 196.658 266.367C196.694 266.409 196.738 266.443 196.787 266.469C196.836 266.494 196.89 266.509 196.945 266.513H196.979Z" fill="#21111D"/>
<path d="M211.753 382.688C231.93 382.688 242.912 369.909 243.023 369.777L243.159 369.616L243.112 369.411C236.211 339.285 207.672 259.275 207.385 258.478C207.366 258.426 207.338 258.378 207.301 258.337C207.263 258.296 207.219 258.263 207.169 258.239C207.119 258.215 207.065 258.202 207.01 258.199C206.954 258.197 206.899 258.205 206.847 258.224C206.796 258.242 206.748 258.271 206.707 258.308C206.666 258.346 206.633 258.39 206.609 258.441C206.586 258.491 206.572 258.545 206.57 258.6C206.567 258.655 206.575 258.71 206.594 258.762C206.878 259.563 235.267 339.148 242.245 369.389C240.895 370.875 229.686 382.517 210.087 381.816C210.031 381.812 209.975 381.82 209.923 381.839C209.87 381.857 209.822 381.887 209.782 381.925C209.741 381.963 209.708 382.009 209.686 382.06C209.664 382.111 209.652 382.166 209.652 382.222C209.65 382.278 209.659 382.333 209.678 382.385C209.697 382.436 209.727 382.484 209.764 382.524C209.802 382.565 209.847 382.598 209.897 382.621C209.948 382.644 210.002 382.656 210.057 382.658C210.628 382.678 211.197 382.688 211.753 382.688Z" fill="#21111D"/>
<path d="M140.972 395.811H175.861C176.118 395.774 176.371 395.717 176.62 395.643C178.845 394.917 179.045 393.582 178.939 392.812C178.915 392.643 178.856 392.481 178.764 392.337C178.673 392.193 178.552 392.07 178.41 391.977L159.13 379.252L152.762 382.121C150.739 383.047 148.577 383.633 146.363 383.855C141.844 384.296 134.528 384.531 133.087 381.67L133.384 392.653C133.384 392.653 132.335 395.896 140.972 395.811Z" fill="#303030"/>
<path d="M64.2725 395.19H67.0705L73.6282 301.103H70.8301L64.2725 395.19Z" fill="#1C1A1A"/>
<path d="M128.381 395.19H125.583L119.025 301.103H121.823L128.381 395.19Z" fill="#1C1A1A"/>
<path d="M63.0331 302.277H129.621C129.959 302.277 130.293 302.211 130.605 302.081C130.918 301.951 131.201 301.761 131.44 301.522C131.679 301.283 131.869 300.998 131.998 300.685C132.127 300.373 132.194 300.037 132.194 299.699C132.194 299.015 131.923 298.358 131.44 297.874C130.958 297.39 130.303 297.118 129.621 297.118H63.0331C62.3504 297.118 61.696 297.39 61.2135 297.874C60.731 298.358 60.46 299.015 60.46 299.699C60.4606 300.382 60.7319 301.038 61.2144 301.521C61.6968 302.005 62.3509 302.277 63.0331 302.277Z" fill="#303030"/>
<path d="M70.4414 336.976H122.673V334.306H70.4414V336.976Z" fill="#1C1A1A"/>
<path d="M500.858 397H51.902C51.3705 397 50.9404 396.47 50.9404 395.819C50.9404 395.165 51.3705 394.635 51.902 394.635H500.858C501.39 394.635 501.82 395.165 501.82 395.819C501.82 396.465 501.39 397 500.858 397Z" fill="#21111D"/>
</svg>
