<svg width="64" height="64" viewBox="0 0 64 64" fill="none" xmlns="http://www.w3.org/2000/svg">
<path d="M28.6667 6.53327C30.5333 4.95994 33.5467 4.95994 35.36 6.53327L39.5733 10.1333C40.3733 10.7999 41.8933 11.3599 42.96 11.3599H47.4933C50.32 11.3599 52.64 13.6799 52.64 16.5066V21.0399C52.64 22.1066 53.2 23.5999 53.8667 24.3999L57.4667 28.6133C59.04 30.4799 59.04 33.4933 57.4667 35.3066L53.8667 39.5199C53.2 40.3199 52.64 41.8133 52.64 42.8799V47.4133C52.64 50.2399 50.32 52.5599 47.4933 52.5599H42.96C41.8933 52.5599 40.4 53.1199 39.6 53.7866L35.3867 57.3866C33.52 58.9599 30.5067 58.9599 28.6933 57.3866L24.48 53.7866C23.68 53.1199 22.16 52.5599 21.12 52.5599H16.4533C13.6267 52.5599 11.3067 50.2399 11.3067 47.4133V42.8533C11.3067 41.8133 10.7733 40.2933 10.1067 39.5199L6.50668 35.2799C4.96001 33.4399 4.96001 30.4533 6.50668 28.6133L10.1067 24.3733C10.7733 23.5733 11.3067 22.0799 11.3067 21.0399V16.5333C11.3067 13.7066 13.6267 11.3866 16.4533 11.3866H21.0667C22.1333 11.3866 23.6267 10.8266 24.4267 10.1599L28.6667 6.53327Z" stroke="black" stroke-width="2" stroke-linecap="round" stroke-linejoin="round"/>
<path d="M32 21.6797V34.5597" stroke="#01C2B1" stroke-width="2" stroke-linecap="round" stroke-linejoin="round"/>
<path d="M31.9844 42.6667H32.0083" stroke="#01C2B1" stroke-width="2" stroke-linecap="round" stroke-linejoin="round"/>
</svg>
