<svg width="64" height="64" viewBox="0 0 64 64" fill="none" xmlns="http://www.w3.org/2000/svg">
<path d="M32 15L32 56" stroke="#01C2B1" stroke-width="2" stroke-linecap="round" stroke-linejoin="round"/>
<path d="M58.6663 44.6398V12.4532C58.6663 9.25319 56.053 6.87985 52.8797 7.14652H52.7197C47.1197 7.62652 38.613 10.4799 33.8663 13.4665L33.413 13.7599C32.6397 14.2399 31.3597 14.2399 30.5863 13.7599L29.9197 13.3599C25.173 10.3999 16.693 7.57319 11.093 7.11985C7.91967 6.85319 5.33301 9.25319 5.33301 12.4265V44.6398C5.33301 47.1998 7.41301 49.5998 9.97301 49.9198L10.7463 50.0265C16.533 50.7999 25.4663 53.7332 30.5863 56.5332L30.693 56.5865C31.413 56.9865 32.5597 56.9865 33.253 56.5865C38.373 53.7598 47.333 50.7999 53.1463 50.0265L54.0263 49.9198C56.5863 49.5998 58.6663 47.1998 58.6663 44.6398Z" stroke="black" stroke-width="2" stroke-linecap="round" stroke-linejoin="round"/>
<path d="M20.667 22.6396H14.667" stroke="#01C2B1" stroke-width="2" stroke-linecap="round" stroke-linejoin="round"/>
<path d="M22.667 30.6396H14.667" stroke="#01C2B1" stroke-width="2" stroke-linecap="round" stroke-linejoin="round"/>
</svg>
