<svg width="64" height="64" viewBox="0 0 64 64" fill="none" xmlns="http://www.w3.org/2000/svg">
<path d="M40.1599 51.7068C38.5066 52.8268 36.4266 53.7601 33.8933 54.5868L29.6799 55.9734C19.0933 59.3868 13.5199 56.5334 10.0799 45.9468L6.6666 35.4134C3.25327 24.8268 6.07993 19.2268 16.6666 15.8134L20.8799 14.4268C21.9733 14.0801 23.0133 13.7868 23.9999 13.6001C23.1999 15.2268 22.5599 17.2001 22.0266 19.4668L19.4133 30.6401C16.7999 41.7868 20.2399 47.2801 31.3599 49.9201L35.8399 50.9868C37.3866 51.3601 38.8266 51.6001 40.1599 51.7068Z" stroke="#01C2B1" stroke-width="2" stroke-linecap="round" stroke-linejoin="round"/>
<path d="M33.707 22.7466L46.6404 26.0266" stroke="#01C2B1" stroke-width="2" stroke-linecap="round" stroke-linejoin="round"/>
<path d="M31.0938 33.0664L38.8271 35.0397" stroke="#01C2B1" stroke-width="2" stroke-linecap="round" stroke-linejoin="round"/>
<path d="M57.7602 27.8399L55.1468 38.9865C52.9068 48.6132 48.4802 52.5065 40.1602 51.7065C38.8268 51.5999 37.3868 51.3599 35.8402 50.9865L31.3602 49.9199C20.2402 47.2799 16.8002 41.7865 19.4135 30.6399L22.0268 19.4665C22.5602 17.1999 23.2002 15.2265 24.0002 13.5999C27.1202 7.14653 32.4268 5.41319 41.3335 7.51986L45.7868 8.55986C56.9602 11.1732 60.3735 16.6932 57.7602 27.8399Z" stroke="black" stroke-width="2" stroke-linecap="round" stroke-linejoin="round"/>
</svg>
