<svg width="860" height="173" viewBox="0 0 860 173" fill="none" xmlns="http://www.w3.org/2000/svg">
<path fill-rule="evenodd" clip-rule="evenodd" d="M3.90253 28.2249C3.90253 12.6367 16.4783 0 31.9914 0H176.911C192.424 0 205 12.6367 205 28.2249V126.702C205 142.29 192.424 154.927 176.911 154.927H38.9091L0 173L3.9867 128.903C3.93093 128.177 3.90253 127.443 3.90253 126.702V28.2249ZM191.727 77.5413C191.727 93.3661 184.301 107.885 171.928 119.232L173.978 143.273L151.736 132.802C138.091 139.442 121.831 143.296 104.374 143.296C56.1303 143.296 17.021 113.857 17.021 77.5413C17.021 41.2259 56.1303 11.7865 104.374 11.7865C152.618 11.7865 191.727 41.2259 191.727 77.5413Z" fill="white"/>
<path d="M62.5 57L67.3394 71.5147H83L70.3303 80.4853L75.1697 95L62.5 86.0294L49.8303 95L54.6697 80.4853L42 71.5147H57.6606L62.5 57Z" fill="#FFD521"/>
<path d="M107.5 57L112.339 71.5147H128L115.33 80.4853L120.17 95L107.5 86.0294L94.8303 95L99.6697 80.4853L87 71.5147H102.661L107.5 57Z" fill="#FFD521"/>
<path d="M152.5 57L157.339 71.5147H173L160.33 80.4853L165.17 95L152.5 86.0294L139.83 95L144.67 80.4853L132 71.5147H147.661L152.5 57Z" fill="#FFD521"/>
<path d="M269 125.955V66.0034H313.898V75.619H279.604V91.9656H310.027V101.539H279.604V125.955H269Z" fill="white"/>
<path d="M326.185 125.955V66.0034H336.789V125.955H326.185Z" fill="white"/>
<path d="M352.906 125.955V66.0034H362.752L395.069 107.476V66.0034H405.504V125.955H396.626L363.341 83.3115V125.955H352.906Z" fill="white"/>
<path d="M415.814 125.955L442.366 65.5853H452.212L478.722 125.955H467.529L461.427 111.49H432.898L426.67 125.955H415.814ZM436.769 102.167H457.556L447.121 78.1693L436.769 102.167Z" fill="white"/>
<path d="M489.073 125.955V66.0034H498.92L531.237 107.476V66.0034H541.672V125.955H532.793L499.509 83.3115V125.955H489.073Z" fill="white"/>
<path d="M554.506 95.9791C554.506 91.7426 555.278 87.7292 556.821 83.9386C558.363 80.1481 560.481 76.8593 563.174 74.0722C565.868 71.285 569.164 69.0832 573.063 67.4666C576.962 65.8222 581.142 65 585.603 65C590.792 65 595.225 65.8083 598.9 67.4248C602.603 69.0135 606.039 71.3129 609.209 74.323L602.434 82.0991C599.797 79.7022 597.132 77.8627 594.439 76.5806C591.746 75.2985 588.773 74.6575 585.518 74.6575C581.759 74.6575 578.351 75.6051 575.293 77.5003C572.236 79.3956 569.851 81.9737 568.14 85.2347C566.457 88.4677 565.615 92.0492 565.615 95.9791C565.615 101.916 567.509 106.96 571.296 111.113C575.083 115.238 579.824 117.301 585.518 117.301C588.997 117.301 592.041 116.66 594.65 115.378C597.287 114.096 600.022 112.145 602.855 109.525L609.672 116.381C607.428 118.694 605.197 120.59 602.981 122.067C600.793 123.544 598.184 124.742 595.155 125.662C592.153 126.554 588.829 127 585.182 127C579.431 127 574.199 125.634 569.486 122.903C564.802 120.171 561.127 116.437 558.462 111.699C555.825 106.96 554.506 101.721 554.506 95.9791Z" fill="white"/>
<path d="M620.781 125.955V66.0034H665.511V75.4518H631.385V91.004H661.639V100.452H631.385V116.548H665.932V125.955H620.781Z" fill="white"/>
<path d="M678.513 125.955V66.0034H705.57C712.527 66.0034 717.787 67.7732 721.35 71.3129C724.043 73.9885 725.389 77.361 725.389 81.4302C725.389 87.3947 722.528 91.8541 716.805 94.8085C720.648 96.0906 723.594 97.8883 725.642 100.202C727.718 102.487 728.755 105.595 728.755 109.525C728.755 114.792 726.75 118.848 722.738 121.69C718.727 124.533 713.298 125.955 706.454 125.955H678.513ZM688.949 116.632H706.538C710.213 116.632 713.06 115.921 715.08 114.5C717.128 113.05 718.152 110.96 718.152 108.229C718.152 105.664 717.114 103.686 715.038 102.292C712.962 100.898 709.862 100.202 705.738 100.202H688.949V116.632ZM688.949 91.2967H703.424C706.959 91.2967 709.736 90.5999 711.756 89.2063C713.803 87.7849 714.827 85.7085 714.827 82.9771C714.827 80.608 713.902 78.7546 712.05 77.4167C710.199 76.051 707.59 75.3682 704.223 75.3682H688.949V91.2967Z" fill="white"/>
<path d="M735.53 125.955L762.082 65.5853H771.929L798.438 125.955H787.245L781.144 111.49H752.614L746.387 125.955H735.53ZM756.486 102.167H777.273L766.837 78.1693L756.486 102.167Z" fill="white"/>
<path d="M808.79 125.955V66.0034H835.678C842.663 66.0034 848.148 67.7314 852.131 71.1875C856.115 74.6435 858.106 79.2841 858.106 85.1092C858.106 89.8474 856.816 93.7494 854.235 96.8152C851.654 99.8532 848.148 101.999 843.715 103.254L860 125.955H847.503L832.522 105.051H819.394V125.955H808.79ZM819.394 95.7283H834.921C838.708 95.7283 841.724 94.8085 843.968 92.969C846.212 91.1295 847.334 88.6489 847.334 85.5273C847.334 82.35 846.24 79.9112 844.052 78.2111C841.864 76.483 838.792 75.619 834.837 75.619H819.394V95.7283Z" fill="white"/>
</svg>
