<svg width="510" height="400" viewBox="0 0 510 400" fill="none" xmlns="http://www.w3.org/2000/svg">
<path d="M510 77.423V324.645C510 363.609 478.924 390.91 439.602 396.419C392.609 403.028 360.753 399.564 273.704 393.503C220.568 389.802 123.728 395.933 70.3979 396.419C31.5198 396.775 0 364.285 0 324.645V77.423C0 37.7805 31.5871 3.31433 70.3979 5.64448C106.442 7.81261 157.734 9.05493 213 3.80623C278.734 -2.43807 375.224 -0.414345 439.602 5.64448C478.317 9.29 510 37.7805 510 77.423Z" fill="white"/>
<g clip-path="url(#clip0_2584_27673)">
<path d="M413.86 154.06V152.62H413.5L413.08 153.58L412.66 152.62H412.3V154.06H412.54V152.98L412.96 153.94H413.26L413.68 152.98V154.06H413.86ZM411.46 154.06V152.86H411.94V152.62H410.74V152.86H411.22V154.06H411.46Z" fill="#00A2E5"/>
<path d="M371.2 160.24H338.74V101.92H371.2V160.24Z" fill="#7375CF"/>
<path d="M340.84 131.08C340.84 119.26 346.36 108.7 355 101.92C348.7 96.94 340.72 94 332.08 94C311.62 94 295 110.62 295 131.08C295 151.54 311.62 168.16 332.08 168.16C340.72 168.16 348.7 165.22 355 160.24C346.36 153.46 340.84 142.9 340.84 131.08Z" fill="#EB001B"/>
<path d="M415 131.08C415 151.54 398.38 168.16 377.92 168.16C369.28 168.16 361.3 165.22 355 160.24C363.64 153.46 369.16 142.9 369.16 131.08C369.16 119.26 363.64 108.7 355 101.92C361.3 96.94 369.28 94 377.92 94C398.38 94 415 110.62 415 131.08Z" fill="#00A2E5"/>
<path d="M382.119 176.74C382.539 176.74 383.199 176.8 383.619 176.98L382.959 179.02C382.479 178.84 382.059 178.78 381.639 178.78C380.259 178.78 379.539 179.68 379.539 181.3V186.82H377.379V176.98H379.479V178.18C380.079 177.28 380.919 176.74 382.119 176.74ZM374.199 178.9H370.719V183.34C370.719 184.3 371.079 184.96 372.159 184.96C372.699 184.96 373.419 184.78 374.079 184.42L374.679 186.28C374.019 186.76 372.939 187.06 371.979 187.06C369.459 187.06 368.559 185.68 368.559 183.4V178.9H366.579V176.92H368.559V173.92H370.719V176.92H374.199V178.9ZM346.779 181C347.019 179.56 347.859 178.6 349.419 178.6C350.799 178.6 351.699 179.44 351.939 181H346.779ZM354.159 181.9C354.159 178.84 352.239 176.74 349.479 176.74C346.599 176.74 344.559 178.84 344.559 181.9C344.559 185.02 346.659 187.06 349.599 187.06C351.099 187.06 352.419 186.7 353.619 185.68L352.539 184.12C351.699 184.78 350.679 185.14 349.659 185.14C348.279 185.14 347.019 184.48 346.719 182.74H354.039C354.099 182.44 354.159 182.2 354.159 181.9ZM363.579 179.5C362.979 179.14 361.779 178.66 360.519 178.66C359.319 178.66 358.659 179.08 358.659 179.8C358.659 180.46 359.379 180.64 360.339 180.76L361.359 180.88C363.519 181.18 364.779 182.08 364.779 183.82C364.779 185.68 363.159 187.06 360.279 187.06C358.659 187.06 357.159 186.64 356.019 185.8L357.039 184.12C357.759 184.66 358.839 185.14 360.339 185.14C361.779 185.14 362.559 184.72 362.559 183.94C362.559 183.4 362.019 183.1 360.819 182.92L359.799 182.8C357.579 182.5 356.379 181.48 356.379 179.92C356.379 177.94 357.999 176.74 360.459 176.74C362.019 176.74 363.459 177.1 364.479 177.76L363.579 179.5ZM389.979 178.72C389.559 178.72 389.139 178.78 388.779 178.96C388.419 179.14 388.059 179.32 387.819 179.62C387.579 179.92 387.339 180.22 387.159 180.64C386.979 181 386.919 181.48 386.919 181.9C386.919 182.38 386.979 182.8 387.159 183.16C387.339 183.52 387.519 183.88 387.819 184.18C388.119 184.48 388.419 184.66 388.779 184.84C389.139 185.02 389.559 185.08 389.979 185.08C390.399 185.08 390.819 185.02 391.179 184.84C391.539 184.66 391.899 184.48 392.139 184.18C392.439 183.88 392.619 183.58 392.799 183.16C392.979 182.8 393.039 182.32 393.039 181.9C393.039 181.42 392.979 181 392.799 180.64C392.619 180.28 392.439 179.92 392.139 179.62C391.839 179.32 391.539 179.14 391.179 178.96C390.819 178.84 390.399 178.72 389.979 178.72ZM389.979 176.74C390.759 176.74 391.479 176.86 392.079 177.16C392.739 177.4 393.279 177.76 393.759 178.24C394.239 178.72 394.599 179.26 394.899 179.86C395.139 180.52 395.319 181.18 395.319 181.9C395.319 182.62 395.199 183.34 394.899 183.94C394.659 184.6 394.239 185.14 393.759 185.56C393.279 186.04 392.739 186.4 392.079 186.64C391.419 186.88 390.699 187.06 389.979 187.06C389.199 187.06 388.479 186.94 387.879 186.64C387.219 186.4 386.679 186.04 386.199 185.56C385.719 185.08 385.359 184.54 385.059 183.94C384.819 183.28 384.639 182.62 384.639 181.9C384.639 181.18 384.759 180.46 385.059 179.86C385.299 179.2 385.719 178.66 386.199 178.24C386.679 177.76 387.219 177.4 387.879 177.16C388.479 176.86 389.199 176.74 389.979 176.74ZM334.299 181.9C334.299 180.16 335.439 178.72 337.299 178.72C339.099 178.72 340.239 180.1 340.239 181.9C340.239 183.7 339.039 185.02 337.299 185.02C335.439 185.02 334.299 183.64 334.299 181.9ZM342.279 181.9V176.98H340.119V178.18C339.459 177.28 338.439 176.74 336.999 176.74C334.239 176.74 332.079 178.9 332.079 181.9C332.079 184.9 334.239 187.06 336.999 187.06C338.379 187.06 339.399 186.52 340.119 185.62V186.82H342.279V181.9ZM330.219 186.82V180.64C330.219 178.3 328.719 176.74 326.319 176.74C325.059 176.74 323.739 177.1 322.839 178.48C322.179 177.4 321.099 176.74 319.599 176.74C318.579 176.74 317.499 177.04 316.719 178.18V176.98H314.559V186.82H316.719V181.36C316.719 179.68 317.679 178.72 319.119 178.72C320.559 178.72 321.279 179.62 321.279 181.3V186.76H323.439V181.3C323.439 179.62 324.459 178.66 325.839 178.66C327.279 178.66 327.999 179.56 327.999 181.24V186.7H330.219V186.82Z" fill="black"/>
<path d="M397.599 186.041V186.281H397.839C397.899 186.281 397.959 186.281 397.959 186.221C398.019 186.221 398.019 186.161 398.019 186.101C398.019 186.041 398.019 186.041 397.959 186.041C397.959 186.041 397.899 185.981 397.839 185.981H397.599V186.041ZM397.839 185.921C397.959 185.921 398.019 185.921 398.079 185.981C398.139 186.041 398.199 186.101 398.199 186.221C398.199 186.281 398.199 186.341 398.139 186.401C398.079 186.461 398.019 186.461 397.899 186.461L398.199 186.821H397.959L397.659 186.461H397.599V186.821H397.419V185.921H397.839ZM397.779 187.121C397.899 187.121 397.959 187.121 398.079 187.061C398.199 187.001 398.259 186.941 398.319 186.881C398.379 186.821 398.439 186.761 398.499 186.641C398.559 186.521 398.559 186.461 398.559 186.341C398.559 186.221 398.559 186.161 398.499 186.041C398.439 185.921 398.379 185.861 398.319 185.801C398.259 185.741 398.199 185.681 398.079 185.621C398.019 185.561 397.899 185.561 397.779 185.561C397.659 185.561 397.599 185.561 397.479 185.621C397.359 185.681 397.299 185.741 397.239 185.801C397.179 185.861 397.119 185.981 397.059 186.041C396.999 186.161 396.999 186.221 396.999 186.341C396.999 186.461 396.999 186.521 397.059 186.641C397.119 186.761 397.179 186.821 397.239 186.881C397.299 186.941 397.419 187.001 397.479 187.061C397.599 187.121 397.659 187.121 397.779 187.121ZM397.779 185.381C397.899 185.381 398.019 185.381 398.139 185.441C398.259 185.501 398.379 185.561 398.439 185.621C398.499 185.681 398.619 185.801 398.679 185.921C398.739 186.041 398.739 186.161 398.739 186.281C398.739 186.401 398.739 186.521 398.679 186.641C398.619 186.761 398.559 186.881 398.439 186.941C398.319 187.001 398.259 187.121 398.139 187.181C398.019 187.241 397.899 187.241 397.779 187.241C397.659 187.241 397.479 187.241 397.359 187.181C397.239 187.121 397.119 187.061 397.059 186.941C396.999 186.881 396.879 186.761 396.819 186.641C396.759 186.521 396.759 186.401 396.759 186.281C396.759 186.161 396.759 186.041 396.819 185.921C396.879 185.801 396.939 185.681 397.059 185.621C397.119 185.561 397.239 185.441 397.359 185.441C397.479 185.381 397.659 185.381 397.779 185.381Z" fill="black"/>
</g>
<path d="M173.143 268.06C164.631 268.06 157.024 272.472 157.024 280.623C157.024 289.971 170.515 290.617 170.515 295.313C170.515 297.291 168.249 299.061 164.378 299.061C158.886 299.061 154.78 296.587 154.78 296.587L153.024 304.813C153.024 304.813 157.753 306.902 164.032 306.902C173.338 306.902 180.661 302.274 180.661 293.983C180.661 284.105 167.114 283.478 167.114 279.12C167.114 277.571 168.974 275.873 172.834 275.873C177.188 275.873 180.741 277.672 180.741 277.672L182.46 269.728C182.46 269.728 178.594 268.06 173.143 268.06ZM95.2667 268.66L95.0605 269.859C95.0605 269.859 98.6415 270.514 101.867 271.822C106.02 273.321 106.315 274.193 107.015 276.904L114.636 306.284H124.853L140.592 268.66H130.399L120.285 294.24L116.159 272.557C115.78 270.075 113.863 268.66 111.516 268.66H95.2667ZM144.69 268.66L136.694 306.284H146.414L154.382 268.66H144.69ZM198.902 268.66C196.558 268.66 195.316 269.914 194.405 272.107L180.164 306.284H190.357L192.33 300.588H204.748L205.947 306.284H214.941L207.094 268.66H198.902ZM200.227 278.825L203.249 292.943H195.154L200.227 278.825Z" fill="url(#paint0_linear_2584_27673)"/>
<g clip-path="url(#clip1_2584_27673)">
<path d="M116.749 186.99V180.805C116.749 178.439 115.308 176.89 112.834 176.89C111.597 176.89 110.252 177.298 109.327 178.644C108.607 177.515 107.574 176.89 106.025 176.89C104.992 176.89 103.959 177.202 103.142 178.331V177.094H100.98V186.99H103.142V181.526C103.142 179.772 104.067 178.944 105.508 178.944C106.949 178.944 107.67 179.869 107.67 181.526V186.99H109.832V181.526C109.832 179.772 110.864 178.944 112.197 178.944C113.639 178.944 114.359 179.869 114.359 181.526V186.99H116.749ZM148.815 177.094H145.308V174.104H143.146V177.094H141.189V179.052H143.146V183.592C143.146 185.861 144.071 187.194 146.545 187.194C147.47 187.194 148.502 186.882 149.223 186.474L148.599 184.612C147.974 185.021 147.253 185.129 146.737 185.129C145.704 185.129 145.296 184.504 145.296 183.483V179.052H148.803V177.094H148.815ZM167.165 176.878C165.928 176.878 165.1 177.503 164.583 178.319V177.082H162.422V186.978H164.583V181.406C164.583 179.76 165.304 178.824 166.649 178.824C167.057 178.824 167.574 178.932 167.994 179.028L168.619 176.962C168.186 176.878 167.574 176.878 167.165 176.878ZM139.435 177.911C138.402 177.19 136.961 176.878 135.412 176.878C132.938 176.878 131.293 178.115 131.293 180.073C131.293 181.718 132.53 182.655 134.691 182.955L135.724 183.063C136.853 183.267 137.478 183.58 137.478 184.096C137.478 184.817 136.649 185.333 135.208 185.333C133.767 185.333 132.626 184.817 131.905 184.3L130.872 185.945C132.001 186.774 133.551 187.182 135.1 187.182C137.982 187.182 139.639 185.837 139.639 183.988C139.639 182.234 138.294 181.31 136.241 180.997L135.208 180.889C134.283 180.781 133.563 180.577 133.563 179.965C133.563 179.244 134.283 178.836 135.424 178.836C136.661 178.836 137.898 179.352 138.523 179.664L139.435 177.911ZM196.949 176.878C195.712 176.878 194.884 177.503 194.367 178.319V177.082H192.205V186.978H194.367V181.406C194.367 179.76 195.088 178.824 196.433 178.824C196.841 178.824 197.358 178.932 197.778 179.028L198.402 176.986C197.982 176.878 197.37 176.878 196.949 176.878ZM169.327 182.042C169.327 185.033 171.393 187.194 174.587 187.194C176.029 187.194 177.061 186.882 178.094 186.066L177.061 184.312C176.233 184.937 175.416 185.237 174.479 185.237C172.726 185.237 171.489 184 171.489 182.042C171.489 180.181 172.726 178.944 174.479 178.848C175.404 178.848 176.233 179.16 177.061 179.772L178.094 178.019C177.061 177.19 176.029 176.89 174.587 176.89C171.393 176.878 169.327 179.052 169.327 182.042ZM189.323 182.042V177.094H187.161V178.331C186.441 177.407 185.408 176.89 184.063 176.89C181.277 176.89 179.115 179.052 179.115 182.042C179.115 185.033 181.277 187.194 184.063 187.194C185.504 187.194 186.537 186.678 187.161 185.753V186.99H189.323V182.042ZM181.385 182.042C181.385 180.289 182.514 178.848 184.375 178.848C186.129 178.848 187.366 180.193 187.366 182.042C187.366 183.796 186.129 185.237 184.375 185.237C182.526 185.129 181.385 183.784 181.385 182.042ZM155.516 176.878C152.634 176.878 150.568 178.944 150.568 182.03C150.568 185.129 152.634 187.182 155.624 187.182C157.065 187.182 158.506 186.774 159.647 185.837L158.615 184.288C157.786 184.913 156.753 185.321 155.732 185.321C154.387 185.321 153.054 184.696 152.742 182.955H160.056C160.056 182.643 160.056 182.439 160.056 182.126C160.152 178.944 158.29 176.878 155.516 176.878ZM155.516 178.74C156.861 178.74 157.786 179.568 157.99 181.106H152.838C153.042 179.772 153.967 178.74 155.516 178.74ZM209.223 182.042V173.179H207.061V178.331C206.341 177.407 205.308 176.89 203.963 176.89C201.177 176.89 199.015 179.052 199.015 182.042C199.015 185.033 201.177 187.194 203.963 187.194C205.404 187.194 206.437 186.678 207.061 185.753V186.99H209.223V182.042ZM201.285 182.042C201.285 180.289 202.414 178.848 204.275 178.848C206.029 178.848 207.265 180.193 207.265 182.042C207.265 183.796 206.029 185.237 204.275 185.237C202.414 185.129 201.285 183.784 201.285 182.042ZM128.915 182.042V177.094H126.753V178.331C126.033 177.407 125 176.89 123.655 176.89C120.868 176.89 118.707 179.052 118.707 182.042C118.707 185.033 120.868 187.194 123.655 187.194C125.096 187.194 126.129 186.678 126.753 185.753V186.99H128.915V182.042ZM120.88 182.042C120.88 180.289 122.009 178.848 123.871 178.848C125.624 178.848 126.861 180.193 126.861 182.042C126.861 183.796 125.624 185.237 123.871 185.237C122.009 185.129 120.88 183.784 120.88 182.042Z" fill="black"/>
<path d="M171.189 101.938H138.715V160.281H171.189V101.938Z" fill="#FF5A00"/>
<path d="M140.877 131.11C140.877 119.256 146.449 108.736 155 101.938C148.707 96.9904 140.769 94 132.11 94C111.597 94 95 110.597 95 131.11C95 151.622 111.597 168.219 132.11 168.219C140.769 168.219 148.707 165.229 155 160.281C146.437 153.58 140.877 142.963 140.877 131.11Z" fill="#EB001B"/>
<path d="M215 131.11C215 151.622 198.403 168.219 177.89 168.219C169.231 168.219 161.293 165.229 155 160.281C163.659 153.472 169.123 142.963 169.123 131.11C169.123 119.256 163.551 108.736 155 101.938C161.281 96.9904 169.219 94 177.878 94C198.403 94 215 110.705 215 131.11Z" fill="#F79E1B"/>
</g>
<path d="M402.663 270H379.561C380.906 277.626 388.308 284.804 396.383 284.804H414.776C415 284.131 415 283.009 415 282.336C415 275.607 409.392 270 402.663 270Z" fill="url(#paint1_linear_2584_27673)"/>
<path d="M381.579 286.149V304.766H392.794V294.897H402.663C408.046 294.897 412.757 291.084 414.327 286.149H381.579Z" fill="#4FAD50"/>
<path d="M342.103 270V304.542H351.972C351.972 304.542 354.439 304.542 355.785 302.075C362.514 288.841 364.532 284.804 364.532 284.804H365.878V304.542H377.093V270H367.224C367.224 270 364.757 270.224 363.411 272.467C357.803 283.907 354.663 289.738 354.663 289.738H353.317V270H342.103Z" fill="#4FAD50"/>
<path d="M295 304.766V270.224H306.215C306.215 270.224 309.355 270.224 311.15 275.159C315.636 288.168 316.084 289.962 316.084 289.962C316.084 289.962 316.981 286.822 321.019 275.159C322.813 270.224 325.953 270.224 325.953 270.224H337.168V304.766H325.953V286.149H324.608L318.327 304.766H313.393L307.112 286.149H305.766V304.766H295Z" fill="#4FAD50"/>
<defs>
<linearGradient id="paint0_linear_2584_27673" x1="95.0158" y1="281.333" x2="214.948" y2="281.333" gradientUnits="userSpaceOnUse">
<stop stop-color="#20225F"/>
<stop offset="0.2" stop-color="#1A1F61"/>
<stop offset="0.410233" stop-color="#172272"/>
<stop offset="0.595197" stop-color="#152682"/>
<stop offset="0.802083" stop-color="#12288E"/>
<stop offset="1" stop-color="#0E2C9A"/>
</linearGradient>
<linearGradient id="paint1_linear_2584_27673" x1="379.521" y1="277.508" x2="414.92" y2="277.508" gradientUnits="userSpaceOnUse">
<stop stop-color="#27B1E6"/>
<stop offset="1" stop-color="#148ACA"/>
</linearGradient>
<clipPath id="clip0_2584_27673">
<rect width="120" height="94" fill="white" transform="translate(295 94)"/>
</clipPath>
<clipPath id="clip1_2584_27673">
<rect width="120" height="94" fill="white" transform="translate(95 94)"/>
</clipPath>
</defs>
</svg>
