<svg width="81" height="80" viewBox="0 0 81 80" fill="none" xmlns="http://www.w3.org/2000/svg">
<path d="M30.4045 78C29.9223 78 29.459 77.786 29.148 77.4084L23.7695 70.8989L15.4256 72.4595C14.8544 72.5697 14.2643 72.359 13.8867 71.9182C13.5076 71.4778 13.3981 70.8705 13.5979 70.3264L19.7459 53.5758C20.0519 52.7388 20.9864 52.3142 21.8274 52.6132C22.6715 52.9183 23.1063 53.8403 22.7982 54.677L17.626 68.769L24.1136 67.5544C24.6991 67.4506 25.2973 67.6613 25.6716 68.1175L29.8538 73.1799L34.7228 59.9153C35.0289 59.0783 35.965 58.6504 36.8043 58.9526C37.6485 59.2577 38.0832 60.1798 37.7752 61.0165L31.9304 76.9397C31.7305 77.4838 31.2529 77.8804 30.6771 77.978C30.5852 77.9938 30.4948 78 30.4045 78Z" fill="#052A24"/>
<path d="M50.6823 78C50.5936 78 50.5013 77.9935 50.4093 77.9781C49.8349 77.8805 49.3559 77.4842 49.1561 76.9397L43.3113 61.0165C43.0036 60.1795 43.4383 59.2577 44.2822 58.9526C45.1292 58.6475 46.0559 59.0786 46.3636 59.9153L51.2343 73.1799L55.4165 68.1176C55.7941 67.6614 56.3939 67.4442 56.9745 67.5544L63.4604 68.769L58.2882 54.6771C57.9805 53.84 58.4153 52.9183 59.2591 52.6132C60.1094 52.311 61.0329 52.7392 61.3406 53.5759L67.4902 70.3264C67.69 70.8706 67.5789 71.4779 67.2013 71.9183C66.8238 72.3587 66.2334 72.5633 65.6625 72.4595L57.3203 70.8957L51.9388 77.4085C51.6278 77.7861 51.1645 78 50.6823 78Z" fill="#052A24"/>
<path d="M47.5662 57.5245C47.2838 57.5245 47.0014 57.452 46.7538 57.3073L40.4996 53.7267L34.2454 57.307C33.8727 57.5209 33.4252 57.5712 33.0126 57.4707C32.597 57.3573 32.2415 57.0898 32.0258 56.7187L28.4148 50.5175H21.191C20.2929 50.5175 19.5664 49.7971 19.5664 48.9066V41.7459L13.3121 38.164C12.9394 37.9501 12.6665 37.5976 12.5554 37.1855C12.4443 36.7735 12.5014 36.3331 12.7172 35.9632L16.3298 29.762L12.7172 23.5591C12.5014 23.1896 12.4443 22.7488 12.5554 22.3368C12.6665 21.9247 12.9394 21.5723 13.3121 21.3583L19.5664 17.7793V10.617C19.5664 9.72652 20.2929 9.00614 21.191 9.00614H28.4145L32.0255 2.8049C32.2412 2.43537 32.5967 2.16474 33.0123 2.05456C33.4249 1.94598 33.872 2.00269 34.245 2.215L40.4996 5.79695L46.7538 2.215C47.1252 2.00269 47.5727 1.94437 47.985 2.05456C48.4038 2.16474 48.7561 2.43537 48.9718 2.8049L52.586 9.00614H59.8082C60.7063 9.00614 61.4328 9.72652 61.4328 10.617V17.7793L67.6871 21.358C68.0614 21.5719 68.3311 21.9244 68.4454 22.3365C68.5566 22.7485 68.4961 23.1889 68.2804 23.5588L64.6694 29.7616L68.2804 35.9629C68.4961 36.3324 68.5566 36.7731 68.4454 37.1852C68.3311 37.5973 68.0614 37.9497 67.6871 38.1637L61.4328 41.7456V48.9066C61.4328 49.7971 60.7063 50.5175 59.8082 50.5175H52.586L48.9718 56.7187C48.7561 57.0898 48.4038 57.3573 47.985 57.4707C47.8485 57.5055 47.7059 57.5245 47.5662 57.5245ZM40.4996 50.2565C40.7787 50.2565 41.0614 50.329 41.3119 50.4737L46.9728 53.7144L50.2413 48.1015C50.5302 47.6044 51.0663 47.296 51.6469 47.296H58.1835V40.8148C58.1835 40.2391 58.4945 39.7072 58.9959 39.4195L64.6568 36.1787L61.3883 30.5674C61.0965 30.0687 61.0965 29.4553 61.3883 28.9565L64.6568 23.3436L58.9959 20.1044C58.4945 19.8164 58.1835 19.2848 58.1835 18.7091V12.2279H51.6469C51.0663 12.2279 50.5298 11.9212 50.2413 11.4225L46.9728 5.81112L41.3119 9.05156C40.8073 9.33637 40.187 9.33475 39.6873 9.05156L34.028 5.8108L30.7595 11.4225C30.469 11.9212 29.9329 12.2279 29.3523 12.2279H22.8157V18.7091C22.8157 19.2848 22.5063 19.8167 22.0033 20.1044L16.3441 23.3436L19.6125 28.9565C19.903 29.4553 19.903 30.0687 19.6125 30.5674L16.3441 36.1787L22.0033 39.4195C22.5063 39.7075 22.8157 40.2391 22.8157 40.8148V47.296H29.3523C29.9329 47.296 30.4694 47.6044 30.7595 48.1015L34.028 53.7144L39.6873 50.4737C39.9378 50.329 40.2189 50.2565 40.4996 50.2565Z" fill="#052A24"/>
<path d="M40.4998 46.1476C31.3881 46.1476 23.9742 38.7965 23.9742 29.7621C23.9742 20.7276 31.3881 13.3762 40.4998 13.3762C49.613 13.3762 57.0253 20.7273 57.0253 29.7617C57.0253 38.7962 49.613 46.1476 40.4998 46.1476ZM40.4998 16.598C33.1794 16.598 27.2235 22.5035 27.2235 29.7617C27.2235 37.02 33.1794 42.9258 40.4998 42.9258C47.8201 42.9258 53.776 37.0204 53.776 29.7621C53.776 22.5038 47.8201 16.598 40.4998 16.598Z" fill="#052A24"/>
</svg>
