<svg width="81" height="80" viewBox="0 0 81 80" fill="none" xmlns="http://www.w3.org/2000/svg">
<path d="M29.4457 34.9595H13.6307C12.7554 34.9595 12.0474 34.2619 12.0474 33.3995C12.0474 32.5372 12.7557 31.8396 13.6307 31.8396H29.4453C30.3206 31.8396 31.0287 32.5372 31.0287 33.3995C31.0287 34.2619 30.3206 34.9595 29.4457 34.9595Z" fill="#052A24"/>
<path d="M29.4457 44.3192H13.6307C12.7554 44.3192 12.0474 43.6215 12.0474 42.7592C12.0474 41.8969 12.7554 41.1993 13.6307 41.1993H29.4453C30.3206 41.1993 31.0287 41.8969 31.0287 42.7592C31.0287 43.6215 30.3206 44.3192 29.4457 44.3192Z" fill="#052A24"/>
<path d="M29.4457 53.6788H13.6307C12.7554 53.6788 12.0474 52.9812 12.0474 52.1189C12.0474 51.2566 12.7554 50.559 13.6307 50.559H29.4453C30.3206 50.559 31.0287 51.2566 31.0287 52.1189C31.0287 52.9812 30.3206 53.6788 29.4457 53.6788Z" fill="#052A24"/>
<path d="M38.9167 70.0002C38.7697 70.0002 38.6212 69.979 38.4775 69.9394C35.713 69.1532 28.5724 68.5807 21.4984 68.5807C15.2655 68.5807 10.9889 69.0346 4.30912 69.9852C3.86705 70.0401 3.39363 69.915 3.04752 69.6196C2.6995 69.3238 2.5 68.8945 2.5 68.4403V22.0427C2.5 17.3644 12.0418 15.2713 21.4984 15.2713C30.9566 15.2713 40.5 17.3644 40.5 22.0427V68.4406C40.5 68.931 40.2666 69.3943 39.8676 69.6867C39.5909 69.8938 39.2552 70.0002 38.9167 70.0002ZM21.4984 18.3912C11.0538 18.3912 5.66667 20.9504 5.66667 22.0427V66.6429C11.5038 65.8445 15.6569 65.4608 21.4984 65.4608C26.6271 65.4608 33.2373 65.7899 37.3333 66.4997V22.0427C37.3333 20.9504 31.9462 18.3912 21.4984 18.3912Z" fill="#052A24"/>
<path d="M38.9167 70.0002C38.5256 70.0002 38.1451 69.857 37.8531 69.5949C37.5222 69.2994 37.3335 68.8792 37.3335 68.4402L37.3333 22.0427C37.3333 18.3257 43.2308 16.6668 48.1787 15.9292C49.0445 15.8135 49.8516 16.3863 49.9815 17.2377C50.1145 18.0891 49.5176 18.8844 48.655 19.0123C42.4331 19.9402 40.5 21.5582 40.5 22.0427L40.5002 66.719C42.0772 66.5667 43.4597 66.4235 44.709 66.2956C49.9691 65.7562 52.8638 65.4607 57.9168 65.4607C63.6007 65.4607 69.1826 65.8386 75.3335 66.6491V22.0427C75.2499 21.5703 73.1564 19.9601 67.1664 19.0111C66.3034 18.8741 65.716 18.0742 65.855 17.2227C65.9912 16.3726 66.8107 15.7954 67.6673 15.9308C71.7121 16.5719 78.5002 18.2189 78.5002 22.0427V68.4405C78.5002 68.8945 78.2991 69.3241 77.9527 69.6195C77.6062 69.915 77.1518 70.0429 76.691 69.9852C69.965 69.0255 63.9997 68.5806 57.9168 68.5806C53.0278 68.5806 50.1889 68.8702 45.0367 69.4002C43.3451 69.574 41.4061 69.7718 39.0682 69.9943C39.0172 69.9974 38.9677 70.0002 38.9167 70.0002Z" fill="#052A24"/>
<path d="M50.0836 48.8007C49.3568 48.8007 48.6364 48.5814 48.0519 48.1852C47.2786 47.6582 46.8333 46.8661 46.8333 46.0131V11.5601C46.8333 10.6977 47.5414 10.0001 48.4167 10.0001H67.4167C68.2919 10.0001 69 10.6977 69 11.5601V45.9794C69 47.515 67.593 48.7673 65.8612 48.7673C65.1284 48.7673 64.4387 48.5237 63.9222 48.0788L58.0807 43.213L51.9823 48.1702C51.5216 48.5602 50.8287 48.8007 50.0836 48.8007ZM50 45.6565C50.0462 45.6687 50.0836 45.6808 50.0836 45.6808L50.1146 45.6777L56.3954 40.786C57.3232 40.0014 59.12 39.9633 60.1435 40.8469L65.8333 45.5835V13.12H50V45.6565Z" fill="#052A24"/>
</svg>
