<svg width="81" height="80" viewBox="0 0 81 80" fill="none" xmlns="http://www.w3.org/2000/svg">
<path d="M51.8756 10.1084C50.9774 10.1084 50.2507 9.38315 50.2507 8.48669V3.62167C50.2507 2.72521 50.9774 2 51.8756 2C52.7739 2 53.5006 2.72521 53.5006 3.62167V8.48669C53.5006 9.38283 52.7739 10.1084 51.8756 10.1084Z" fill="#052A24"/>
<path d="M29.1225 10.1084C28.2242 10.1084 27.4975 9.38315 27.4975 8.48669V3.62167C27.4975 2.72521 28.2242 2 29.1225 2C30.0208 2 30.7475 2.72521 30.7475 3.62167V8.48669C30.7475 9.38283 30.0208 10.1084 29.1225 10.1084Z" fill="#052A24"/>
<path d="M23.7564 78C23.6325 78 23.5058 77.9874 23.3803 77.9556C22.5061 77.7496 21.9663 76.8755 22.1743 76.0044L24.4577 66.3914C24.6641 65.5174 25.5448 64.966 26.4128 65.1878C27.2858 65.3938 27.8269 66.2679 27.6189 67.139L25.3355 76.752C25.159 77.4996 24.4925 78 23.7564 78Z" fill="#052A24"/>
<path d="M57.2359 78C56.4994 78 55.8332 77.4996 55.6554 76.752L53.3737 67.139C53.1673 66.2679 53.7068 65.3938 54.5797 65.1878C55.4588 64.966 56.3285 65.5174 56.5349 66.3914L58.8166 76.0044C59.023 76.8755 58.4835 77.7496 57.6106 77.9556C57.4835 77.9874 57.3597 78 57.2359 78Z" fill="#052A24"/>
<path d="M77.875 62.0019H3.12497C2.22668 62.0019 1.5 61.2766 1.5 60.3802V8.48666C1.5 7.5902 2.22668 6.86499 3.12497 6.86499H77.875C78.7733 6.86499 79.5 7.5902 79.5 8.48666V60.3802C79.5 61.2763 78.7733 62.0019 77.875 62.0019ZM4.74993 58.7585H76.2501V10.1083H4.74993V58.7585Z" fill="#052A24"/>
<path d="M29.0339 52.1006C24.8272 52.1006 20.8155 50.2983 18.029 47.1565C15.236 44.0114 13.927 39.821 14.4346 35.6608C15.5246 26.7179 23.5624 22.6952 28.9228 22.6952C30.5621 22.6952 31.7967 23.11 32.4932 23.8972C32.9628 24.4278 33.1757 25.1056 33.0882 25.8023L31.0538 34.666C39.5991 30.3394 39.7642 30.3394 40.2147 30.3394C41.281 30.3394 42.2365 30.9745 42.6489 31.9562C44.4705 36.5044 43.9183 41.6165 41.1763 45.6548C38.4409 49.6905 33.9007 52.1006 29.0339 52.1006ZM28.9228 25.9385C25.6508 25.9385 18.5922 28.4106 17.6592 36.0536C17.264 39.292 18.2861 42.5545 20.4616 45.0062C22.6325 47.4546 25.757 48.8576 29.0339 48.8576C32.8773 48.8576 36.3226 47.0268 38.487 43.8373C40.5134 40.8472 41.0148 37.2588 39.8962 33.8825C37.8474 34.8723 32.7457 37.4427 29.4324 39.1276C28.8721 39.4127 28.1916 39.3524 27.6946 38.9596C27.1964 38.5717 26.9696 37.9318 27.1106 37.3188L29.7177 25.9972C29.5244 25.9638 29.2608 25.9385 28.9228 25.9385Z" fill="#052A24"/>
<path d="M35.523 30.8161C35.1707 30.8161 34.7677 30.6893 34.4853 30.4772C33.6124 29.8074 33.3806 29.63 34.6692 20.2976L34.7216 19.9207C34.8262 19.0752 35.5197 18.0853 37.1255 18.0853C39.509 18.0853 43.9413 20.3943 45.7183 24.5704C45.9406 25.1072 45.9406 25.6965 45.731 26.2096C45.0554 27.8549 35.6068 30.8161 35.523 30.8161ZM37.7937 21.4441C37.4222 24.1679 37.224 25.8927 37.1194 26.9854C38.6998 26.3805 40.9072 25.4604 42.2117 24.8555C41.0056 22.9471 39.0092 21.7941 37.7937 21.4441Z" fill="#052A24"/>
<path d="M64.7769 45.7851H51.8756C50.9774 45.7851 50.2507 45.0599 50.2507 44.1634C50.2507 43.267 50.9774 42.5417 51.8756 42.5417H64.7769C65.6752 42.5417 66.4019 43.267 66.4019 44.1634C66.4019 45.0599 65.6752 45.7851 64.7769 45.7851Z" fill="#052A24"/>
<path d="M64.7769 36.0535H51.8756C50.9774 36.0535 50.2507 35.3283 50.2507 34.4319C50.2507 33.5354 50.9774 32.8102 51.8756 32.8102H64.7769C65.6752 32.8102 66.4019 33.5354 66.4019 34.4319C66.4019 35.3283 65.6752 36.0535 64.7769 36.0535Z" fill="#052A24"/>
<path d="M64.7769 26.3235H51.8756C50.9774 26.3235 50.2507 25.5983 50.2507 24.7019C50.2507 23.8054 50.9774 23.0802 51.8756 23.0802H64.7769C65.6752 23.0802 66.4019 23.8054 66.4019 24.7019C66.4019 25.5983 65.6752 26.3235 64.7769 26.3235Z" fill="#052A24"/>
</svg>
