<svg width="81" height="80" viewBox="0 0 81 80" fill="none" xmlns="http://www.w3.org/2000/svg">
<path d="M69.3573 78H11.6417C9.35742 78 7.5 76.1219 7.5 73.8117V71.9778C7.5 70.2325 8.54276 68.6986 10.156 68.0703C22.5023 63.2852 29.1503 58.1628 30.1427 55.8713V53.201C27.8762 50.8403 25.7903 48.2867 24.6356 44.1458C24.5962 44.0039 24.5756 43.8585 24.5756 43.7101V25.7856C24.5756 15.7582 30.083 10.457 40.5026 10.457C51.108 10.457 56.4864 15.6143 56.4864 25.7856V43.7101C56.4864 43.8585 56.4673 44.0036 56.4264 44.1458C55.292 48.211 53.1684 50.7928 50.8557 53.2013V55.8745C51.9775 58.529 59.6021 63.718 70.8408 68.0674C72.4321 68.6827 73.5 70.2548 73.5 71.9781V73.812C73.5006 76.1222 71.6416 78 69.3573 78ZM27.802 43.4829C28.8434 47.0462 30.7322 49.1861 32.9093 51.4146C33.2039 51.7178 33.3694 52.1218 33.3694 52.5445V56.1586C33.3694 56.3228 33.3442 56.4837 33.2968 56.6382C31.7465 61.6156 20.4907 67.5305 11.322 71.0845C10.9674 71.2202 10.7264 71.5799 10.7264 71.9778V73.8117C10.7264 74.3388 11.1374 74.768 11.6417 74.768H69.3573C69.8613 74.768 70.2743 74.3388 70.2743 73.8117V71.9778C70.2743 71.5803 70.0349 71.2202 69.6787 71.0845C60.5132 67.5338 49.2586 61.622 47.7022 56.6411C47.6551 56.4834 47.6296 56.3225 47.6296 56.1583V52.5442C47.6296 52.1211 47.7935 51.7171 48.0897 51.4143C50.393 49.0565 52.2424 46.9638 53.26 43.4826V25.7856C53.26 17.4198 49.3248 13.689 40.5026 13.689C31.8382 13.689 27.802 17.5335 27.802 25.7856V43.4829Z" fill="#052A24"/>
<path d="M43.6915 55.199C42.8123 55.199 42.0941 54.4951 42.0783 53.6147C42.0625 52.7214 42.7713 51.9828 43.6599 51.967C54.6089 51.7618 57.9453 49.7165 57.9453 43.2082C57.9453 42.3148 58.6667 41.5922 59.5585 41.5922C60.4502 41.5922 61.1717 42.3148 61.1717 43.2082C61.1717 53.9712 52.5511 55.0348 43.7228 55.199C43.7105 55.199 43.7012 55.199 43.6915 55.199Z" fill="#052A24"/>
<path d="M26.1888 45.3261H23.306C20.4594 45.3261 18.1435 43.0062 18.1435 40.1529V29.3411C18.1435 26.4895 20.4594 24.1696 23.306 24.1696H26.1891C27.0808 24.1696 27.802 24.8922 27.802 25.7856C27.802 26.6789 27.0808 27.4016 26.1891 27.4016H23.306C22.2377 27.4016 21.3698 28.271 21.3698 29.3411V40.1529C21.3698 41.2231 22.2377 42.0941 23.306 42.0941H26.1891C27.0808 42.0941 27.8023 42.8168 27.8023 43.7101C27.8023 44.6034 27.0805 45.3261 26.1888 45.3261Z" fill="#052A24"/>
<path d="M57.7564 45.3261H54.8733C53.9815 45.3261 53.2601 44.6034 53.2601 43.7101C53.2601 42.8168 53.9815 42.0941 54.8733 42.0941H57.7564C58.8246 42.0941 59.6941 41.2231 59.6941 40.1529V29.3411C59.6941 28.271 58.8246 27.4016 57.7564 27.4016H54.8733C53.9815 27.4016 53.26 26.6789 53.26 25.7856C53.26 24.8922 53.9815 24.1696 54.8733 24.1696H57.7564C60.6046 24.1696 62.9205 26.4895 62.9205 29.3411V40.1529C62.9205 43.0065 60.6046 45.3261 57.7564 45.3261Z" fill="#052A24"/>
<path d="M57.6083 27.4015C56.7166 27.4015 55.9951 26.6788 55.9951 25.7855V20.7468C55.9951 12.1916 49.0478 5.23203 40.5092 5.23203C31.969 5.23203 25.0216 12.1916 25.0216 20.7468V25.7858C25.0216 26.6792 24.3002 27.4019 23.4085 27.4019C22.5167 27.4019 21.7953 26.6792 21.7953 25.7858V20.7468C21.7953 10.4101 30.1906 2 40.5092 2C50.8278 2 59.2215 10.4101 59.2215 20.7468V25.7858C59.2215 26.6788 58.5001 27.4015 57.6083 27.4015Z" fill="#052A24"/>
<path d="M41.0948 57.7937C38.7744 57.7937 36.8869 55.9029 36.8869 53.5768C36.8869 51.2507 38.7744 49.36 41.0948 49.36C43.4168 49.36 45.3042 51.2507 45.3042 53.5768C45.3042 55.9029 43.4171 57.7937 41.0948 57.7937ZM41.0948 52.592C40.5528 52.592 40.1133 53.0338 40.1133 53.5768C40.1133 54.1198 40.5528 54.5616 41.0948 54.5616C41.6368 54.5616 42.0779 54.1198 42.0779 53.5768C42.0779 53.0338 41.6368 52.592 41.0948 52.592Z" fill="#052A24"/>
</svg>
