<svg width="81" height="80" viewBox="0 0 81 80" fill="none" xmlns="http://www.w3.org/2000/svg">
<path d="M13.1446 45.8251C13.5561 45.8251 13.9677 45.6714 14.2886 45.3641L23.711 36.3156C24.3755 35.6782 24.4014 34.6174 23.7694 33.9489C23.1341 33.2821 22.084 33.256 21.4229 33.89L13.203 41.7847L5.36245 33.4846C4.72718 32.8128 3.67704 32.79 3.01589 33.4274C2.35142 34.0647 2.3255 35.1239 2.95745 35.7923L11.9421 45.3052C12.2693 45.6517 12.7068 45.8251 13.1446 45.8251Z" fill="#052A24"/>
<path d="M42.6995 72C43.9976 72 45.304 71.9217 46.6183 71.758C63.9801 69.6233 76.3827 53.6378 74.2645 36.1275C73.2402 27.6443 69.0008 20.0733 62.3269 14.8071C55.6563 9.53752 47.3508 7.19696 38.9381 8.24472C21.6689 10.368 9.3586 26.5674 11.4977 44.3542C11.6046 45.2728 12.4343 45.9429 13.3451 45.8121C14.2525 45.7009 14.901 44.8674 14.7905 43.9489C12.8751 27.9945 23.8853 13.4685 39.3397 11.5661C54.8687 9.66472 69.0735 20.8546 70.9713 36.5329C71.8887 44.1283 69.819 51.631 65.1435 57.6558C60.4679 63.6805 53.7472 67.5087 46.2164 68.437C34.5948 69.8556 23.4582 64.0956 17.841 53.7328C17.4036 52.9221 16.389 52.6215 15.5884 53.0694C14.7845 53.5106 14.4895 54.5272 14.9306 55.3413C20.567 65.7399 31.1852 72 42.6995 72Z" fill="#052A24"/>
<path d="M36.2931 56.7175H49.5254C51.8623 56.7175 53.7648 54.8215 53.7648 52.4873L54.8976 40.8595C54.9055 38.3636 53.0031 36.4659 50.6661 36.4659H35.152C32.8151 36.4659 30.9126 38.3636 30.9126 40.6961L32.06 52.651C32.0533 54.8215 33.9561 56.7175 36.2931 56.7175ZM50.6661 39.8134C51.1733 39.8134 51.5865 40.2091 51.5865 40.6961L50.4537 52.3239C50.4457 52.9743 50.0322 53.37 49.525 53.37H36.2927C35.7839 53.37 35.3724 52.9743 35.3724 52.4873L34.225 40.5324C34.2316 40.2087 34.6432 39.8134 35.152 39.8134H50.6661Z" fill="#052A24"/>
<path d="M36.2479 39.8134C37.1653 39.8134 37.9074 39.0649 37.9074 38.1396V31.6669C37.9074 29.1727 40.1504 27.1442 42.9085 27.1442C45.6666 27.1442 47.9113 29.1727 47.9113 31.6669V38.1396C47.9113 39.0649 48.6534 39.8134 49.5708 39.8134C50.4882 39.8134 51.2303 39.0649 51.2303 38.1396V31.6669C51.2303 27.3273 47.4964 23.7967 42.9085 23.7967C38.3223 23.7967 34.5884 27.3273 34.5884 31.6669V38.1396C34.5884 39.0649 35.3305 39.8134 36.2479 39.8134Z" fill="#052A24"/>
<path d="M42.9103 50.4671C43.8277 50.4671 44.5698 49.7186 44.5698 48.7934V45.7662C44.5698 44.841 43.8277 44.0925 42.9103 44.0925C41.9929 44.0925 41.2524 44.841 41.2524 45.7662V48.7934C41.2524 49.7186 41.9929 50.4671 42.9103 50.4671Z" fill="#052A24"/>
</svg>
