<svg width="81" height="80" viewBox="0 0 81 80" fill="none" xmlns="http://www.w3.org/2000/svg">
<path d="M53.4109 57.5465C52.9988 57.5465 52.5864 57.392 52.2719 57.0826L26.3563 31.6119C25.727 30.9934 25.727 29.9915 26.3563 29.373C26.9856 28.7546 28.0051 28.7546 28.6343 29.373L54.55 54.8441C55.1792 55.4625 55.1792 56.4645 54.55 57.0829C54.2352 57.392 53.823 57.5465 53.4109 57.5465Z" fill="#052A24"/>
<path d="M27.4953 57.5465C27.0832 57.5465 26.6708 57.392 26.3563 57.0826C25.727 56.4641 25.727 55.4622 26.3563 54.8437L52.2719 29.3727C52.9012 28.7542 53.9207 28.7542 54.55 29.3727C55.1792 29.9911 55.1792 30.993 54.55 31.6115L28.6343 57.0826C28.3199 57.392 27.9074 57.5465 27.4953 57.5465Z" fill="#052A24"/>
<path d="M67.8881 17.8333H54.9996C54.109 17.8333 53.3886 17.1253 53.3886 16.25V3.58333C53.3886 2.70807 54.109 2 54.9996 2C55.8902 2 56.6107 2.70807 56.6107 3.58333V14.6667H67.8881C68.7787 14.6667 69.4992 15.3747 69.4992 16.25C69.4992 17.1253 68.7787 17.8333 67.8881 17.8333Z" fill="#052A24"/>
<path d="M65.337 78H15.6488C13.3611 78 11.5 76.1538 11.5 73.884V6.13472C11.5 3.85535 13.3611 2 15.6488 2H54.9996C56.3465 2 57.0645 2.69413 57.5868 3.19985L68.2601 13.5517C68.8359 14.11 69.4992 14.9216 69.4992 16.25L69.5 73.884C69.4997 76.1538 67.6337 78 65.337 78ZM54.9782 5.14513L15.6488 5.16667C15.1468 5.16667 14.7221 5.61032 14.7221 6.13472V73.884C14.7221 74.3973 15.1468 74.8333 15.6488 74.8333H65.337C65.8467 74.8333 66.2779 74.3973 66.2779 73.884V16.25C66.2779 16.1401 66.2779 16.0784 65.9979 15.8079L55.3213 5.45452C55.233 5.36617 55.0442 5.18377 54.9782 5.14513Z" fill="#052A24"/>
<path d="M53.4109 57.5465C52.9988 57.5465 52.5864 57.392 52.2719 57.0826L26.3563 31.6119C25.727 30.9934 25.727 29.9915 26.3563 29.373C26.9856 28.7546 28.0051 28.7546 28.6343 29.373L54.55 54.8441C55.1792 55.4625 55.1792 56.4645 54.55 57.0829C54.2352 57.392 53.823 57.5465 53.4109 57.5465Z" fill="#052A24"/>
<path d="M27.4953 57.5465C27.0832 57.5465 26.6708 57.392 26.3563 57.0826C25.727 56.4641 25.727 55.4622 26.3563 54.8437L52.2719 29.3727C52.9012 28.7542 53.9207 28.7542 54.55 29.3727C55.1792 29.9911 55.1792 30.993 54.55 31.6115L28.6343 57.0826C28.3199 57.392 27.9074 57.5465 27.4953 57.5465Z" fill="#052A24"/>
</svg>
