<svg width="81" height="80" viewBox="0 0 81 80" fill="none" xmlns="http://www.w3.org/2000/svg">
<path d="M69.3835 78H11.6165C6.58975 78 2.5 73.9118 2.5 68.8835V11.1149C2.5 6.08817 6.58975 2 11.6165 2H69.3835C74.4118 2 78.5 6.08817 78.5 11.1149V68.8835C78.5 73.9118 74.4118 78 69.3835 78ZM11.6165 5.16667C8.33553 5.16667 5.66667 7.83553 5.66667 11.1149V68.8835C5.66667 72.1645 8.33553 74.8333 11.6165 74.8333H69.3835C72.6645 74.8333 75.3333 72.1645 75.3333 68.8835V11.1149C75.3333 7.83553 72.6645 5.16667 69.3835 5.16667H11.6165Z" fill="#052A24"/>
<path d="M76.9167 24.1667H4.08333C3.20807 24.1667 2.5 23.4586 2.5 22.5833C2.5 21.7081 3.20807 21 4.08333 21H76.9167C77.7919 21 78.5 21.7081 78.5 22.5833C78.5 23.4586 77.7919 24.1667 76.9167 24.1667Z" fill="#052A24"/>
<path d="M26.2812 14.951C25.8376 14.951 25.4262 14.7607 25.1416 14.4763C24.8572 14.1904 24.6979 13.779 24.6979 13.3677C24.6979 12.9563 24.8572 12.5437 25.1416 12.2283C25.7106 11.6577 26.7882 11.627 27.3899 12.2283C27.6743 12.5437 27.8646 12.9567 27.8646 13.368C27.8646 13.7794 27.6743 14.1904 27.3899 14.4763C27.0729 14.7933 26.6923 14.951 26.2812 14.951Z" fill="#052A24"/>
<path d="M54.7812 14.951C54.3392 14.951 53.9278 14.7607 53.64 14.4763C53.3556 14.1904 53.1979 13.779 53.1979 13.3677C53.1979 12.9563 53.3556 12.5434 53.64 12.228C54.2429 11.6573 55.2882 11.6573 55.8883 12.228C56.2069 12.5434 56.3646 12.9563 56.3646 13.3677C56.3646 13.779 56.2069 14.1593 55.8883 14.4763C55.6036 14.7933 55.1923 14.951 54.7812 14.951Z" fill="#052A24"/>
<path d="M54.7745 65.0892C53.8992 65.0892 53.1912 64.3811 53.1912 63.5058V37.5477L48.7721 39.1789C47.9589 39.4819 47.0403 39.0614 46.7404 38.2419C46.4373 37.4207 46.8547 36.51 47.6774 36.207L54.2273 33.7886C54.7036 33.6093 55.254 33.6771 55.6808 33.9757C56.1045 34.2712 56.3582 34.7566 56.3582 35.2747V63.5055C56.3579 64.3808 55.6498 65.0892 54.7745 65.0892Z" fill="#052A24"/>
<path d="M32.4349 65.4448C27.8087 65.4448 23.0245 63.1534 21.217 59.8135C20.7996 59.0434 21.0856 58.0817 21.8541 57.6675C22.6242 57.2529 23.586 57.5344 24.0002 58.3046C25.4505 60.9795 30.4263 62.8288 34.2468 62.1144C36.1703 61.7525 38.5516 60.6115 38.9753 57.2254C39.2226 55.2399 38.83 53.7341 37.7739 52.6271C35.651 50.4038 31.2148 50.2429 29.6732 50.3449C29.0146 50.3851 28.4408 50.0633 28.1472 49.5038C27.8533 48.9411 27.9214 48.2574 28.322 47.7688L37.2127 36.8587H23.623C22.7477 36.8587 22.0397 36.1506 22.0397 35.2753C22.0397 34.4001 22.7477 33.692 23.623 33.692H40.5463C41.1587 33.692 41.7151 34.0444 41.9751 34.5964C42.2379 35.1483 42.1607 35.8026 41.774 36.2757L32.7905 47.2988C35.0898 47.574 38.0693 48.3502 40.064 50.4408C41.7959 52.2559 42.4853 54.6683 42.1173 57.6184C41.61 61.6787 38.9554 64.4527 34.833 65.2257C34.0508 65.3735 33.2436 65.4448 32.4349 65.4448Z" fill="#052A24"/>
</svg>
