<svg width="81" height="80" viewBox="0 0 81 80" fill="none" xmlns="http://www.w3.org/2000/svg">
<g clip-path="url(#clip0_1456_598)">
<path d="M55.4725 59.0604H23.3001C22.4145 59.0604 21.6981 58.3516 21.6981 57.4754C21.6981 56.5992 22.4145 55.8904 23.3001 55.8904H55.4725C56.358 55.8904 57.0744 56.5992 57.0744 57.4754C57.0744 58.3516 56.358 59.0604 55.4725 59.0604Z" fill="#052A24"/>
<path d="M55.4725 49.5503H23.3001C22.4145 49.5503 21.6981 48.8415 21.6981 47.9653C21.6981 47.0891 22.4145 46.3802 23.3001 46.3802H55.4725C56.358 46.3802 57.0744 47.0891 57.0744 47.9653C57.0744 48.8415 56.358 49.5503 55.4725 49.5503Z" fill="#052A24"/>
<path d="M55.4725 40.0403H23.3001C22.4145 40.0403 21.6981 39.3314 21.6981 38.4552C21.6981 37.5791 22.4145 36.8702 23.3001 36.8702H55.4725C56.358 36.8702 57.0744 37.5791 57.0744 38.4552C57.0744 39.3314 56.358 40.0403 55.4725 40.0403Z" fill="#052A24"/>
<path d="M41.1736 30.5301H23.3001C22.4145 30.5301 21.6981 29.8213 21.6981 28.9451C21.6981 28.0689 22.4145 27.3601 23.3001 27.3601H41.1736C42.0592 27.3601 42.7756 28.0689 42.7756 28.9451C42.7756 29.8213 42.0592 30.5301 41.1736 30.5301Z" fill="#052A24"/>
<path d="M20.2399 5.17161C19.3543 5.17161 18.6379 4.46279 18.6379 3.5866C18.6379 2.7104 19.3543 2.00159 20.2399 2.00159L70.6129 2C71.4984 2 72.2148 2.70882 72.2148 3.58501C72.2148 4.46121 71.4984 5.17002 70.6129 5.17002L20.2399 5.17161Z" fill="#052A24"/>
<path d="M70.6129 20.9827H20.2399C19.3543 20.9827 18.6379 20.2739 18.6379 19.3977C18.6379 18.5215 19.3543 17.8127 20.2399 17.8127C23.9257 17.8127 26.9246 14.9771 26.9246 11.4914C26.9246 8.00561 23.9257 5.17002 20.2399 5.17002C19.3543 5.17002 18.6379 4.46121 18.6379 3.58501C18.6379 2.70882 19.3543 2 20.2399 2H70.6129C76.0634 2 80.4999 6.25829 80.4999 11.4914C80.4999 16.7244 76.0634 20.9827 70.6129 20.9827ZM27.6099 17.8127H70.6129C74.2987 17.8127 77.296 14.9771 77.296 11.4914C77.296 8.00561 74.2987 5.17002 70.6129 5.17002H27.6099C29.176 6.8495 30.1285 9.06598 30.1285 11.4914C30.1285 13.9167 29.176 16.1335 27.6099 17.8127Z" fill="#052A24"/>
<path d="M59.0769 78C59.0736 78 59.0704 78 59.0704 78C58.6293 77.9968 58.207 77.8174 57.9065 77.4985L49.1895 68.2794L40.4693 77.4985C40.1659 77.8174 39.7417 78 39.2993 78C38.8565 78 38.4326 77.8174 38.1292 77.4985L29.4106 68.2794L20.9862 77.1888C20.379 77.8266 19.2528 77.8266 18.6457 77.1888L11.0899 69.1988C10.7317 68.9077 10.5 68.4744 10.5 67.9884V11.4914C10.4968 8.95915 11.4919 6.57688 13.3003 4.78296C15.1118 2.98905 17.5227 2 20.0868 2C20.9724 2 21.6888 2.70882 21.6888 3.58501C21.6888 4.4612 20.9724 5.17002 20.0868 5.17002C16.5638 5.17002 13.6979 8.00561 13.6979 11.4914L13.7043 67.3227L19.8164 73.7867L28.2409 64.8774C28.848 64.2396 29.9742 64.2396 30.5813 64.8774L39.2999 74.0964L48.0201 64.8774C48.3235 64.5585 48.7461 64.3759 49.1901 64.3759C49.6345 64.3759 50.0568 64.5585 50.3602 64.8774L59.0865 74.1056L64.9657 68.004V19.3977C64.9657 18.5215 65.6821 17.8127 66.5677 17.8127C67.4532 17.8127 68.1696 18.5215 68.1696 19.3977V68.6383C68.1696 69.0469 68.0101 69.4371 67.7284 69.731L60.238 77.5074C59.9342 77.8234 59.5148 78 59.0769 78Z" fill="#052A24"/>
</g>
<defs>
<clipPath id="clip0_1456_598">
<rect width="80" height="80" fill="white" transform="translate(0.5)"/>
</clipPath>
</defs>
</svg>
