<svg width="81" height="80" viewBox="0 0 81 80" fill="none" xmlns="http://www.w3.org/2000/svg">
<path d="M18.4591 65.9628C17.497 65.9628 16.5549 65.5722 15.8755 64.8883C14.8341 63.8418 14.5198 62.2797 15.0763 60.9112L15.2986 60.352C22.2723 42.7788 22.5974 42.4541 22.9409 42.1073C23.2271 41.8229 61.8255 3.03894 61.8255 3.03894C63.1936 1.65822 65.6094 1.65023 66.9899 3.03574L77.4304 13.5249C78.1238 14.2293 78.4998 15.1478 78.4998 16.1193C78.4998 17.0941 78.1207 18.0141 77.4365 18.7093C77.1442 18.9998 38.8241 57.5029 38.541 57.787C38.2023 58.1401 37.9208 58.4306 20.6011 65.3848L19.83 65.6941C19.3888 65.8723 18.93 65.9628 18.4591 65.9628ZM25.3255 44.2347C25.038 44.8032 23.7741 47.6305 18.2553 61.5392L18.0271 62.1172C17.9526 62.2983 17.993 62.489 18.128 62.6265C18.2585 62.7577 18.4667 62.7983 18.6348 62.7295L19.42 62.4141C32.8516 57.0221 35.8068 55.7066 36.4254 55.3912C39.0714 52.7295 74.9089 16.7227 75.1824 16.4491C75.2632 16.3663 75.3161 16.2428 75.3161 16.1196C75.3161 15.9965 75.2632 15.873 75.1731 15.7805L64.7418 5.30069C64.4776 5.03677 64.2878 5.08987 64.0796 5.29589C31.4196 38.1146 26.1807 43.3786 25.3255 44.2347Z" fill="#052A24"/>
<path d="M32.5855 53.4136C32.1783 53.4136 31.7695 53.2575 31.4584 52.9449C30.8382 52.3201 30.8382 51.3079 31.46 50.6832L66.2528 15.7633C66.8746 15.1418 67.882 15.1402 68.5038 15.7649C69.1255 16.3897 69.1255 17.4035 68.5038 18.0283L33.7109 52.9449C33.4002 53.2571 32.9927 53.4136 32.5855 53.4136Z" fill="#052A24"/>
<path d="M37.416 58.2556C37.0088 58.2556 36.6013 58.0995 36.2905 57.7869L22.9397 44.3719C22.3179 43.7472 22.3179 42.735 22.9397 42.1102C23.5615 41.4854 24.5689 41.4854 25.1907 42.1102L38.5415 55.5252C39.1633 56.15 39.1628 57.1622 38.541 57.787C38.2303 58.0995 37.8232 58.2556 37.416 58.2556Z" fill="#052A24"/>
<path d="M22.3019 64.585C21.8947 64.585 21.4872 64.4289 21.1765 64.1163L16.6574 59.574C16.0357 58.9492 16.0357 57.937 16.6574 57.3122C17.2792 56.6874 18.2866 56.6874 18.9084 57.3122L23.4274 61.8546C24.0492 62.4794 24.0492 63.4916 23.4274 64.1163C23.1167 64.4289 22.7095 64.585 22.3019 64.585Z" fill="#052A24"/>
<path d="M57.7278 78H8.86753C5.1785 78 2.5 75.3102 2.5 71.6018V22.8393C2.5 21.1492 3.15299 17.2176 9.19864 17.2176H37.5214C38.4014 17.2176 39.1133 17.9329 39.1133 18.8171C39.1133 19.7013 38.4014 20.4166 37.5214 20.4166H9.19864C5.68377 20.4166 5.68377 21.9333 5.68377 22.8393V71.6018C5.68377 73.545 6.93371 74.8009 8.86753 74.8009H57.7278C58.6543 74.8009 59.8078 74.8009 59.8078 71.6018V42.8102C59.8078 41.9259 60.5197 41.2106 61.3997 41.2106C62.2797 41.2106 62.9916 41.9259 62.9916 42.8102V71.6018C62.9916 77.1689 59.6929 78 57.7278 78Z" fill="#052A24"/>
</svg>
