<svg width="81" height="80" viewBox="0 0 81 80" fill="none" xmlns="http://www.w3.org/2000/svg">
<path d="M40.3268 78C39.9879 78 39.6502 77.8968 39.3645 77.6898C39.2273 77.5929 25.4623 67.9016 8.87159 67.9016L8.16922 67.9082C8.15963 67.9082 8.14971 67.9082 8.14177 67.9082C7.28762 67.9082 6.5707 67.2558 6.49497 66.4L2.50661 21.645C2.44047 20.9056 2.87631 20.2112 3.5724 19.9496C3.75163 19.8835 5.43414 19.2876 8.91855 19.2876C14.6714 19.2876 24.9134 20.8845 41.0325 28.4862C41.6105 28.759 41.9802 29.342 41.9802 29.9812V76.3463C41.9802 76.9663 41.633 77.5314 41.0824 77.8155C40.845 77.9388 40.5851 78 40.3268 78ZM9.65465 64.6017C22.7642 64.818 33.8213 70.4307 38.6734 73.3241V31.0344C23.6604 24.0736 14.2227 22.5947 8.91855 22.5947C7.60739 22.5947 6.61766 22.69 5.92984 22.7948L9.65465 64.6017Z" fill="#052A24"/>
<path d="M40.3268 78C40.0669 78 39.807 77.9385 39.5663 77.8158C39.0174 77.5318 38.6734 76.9633 38.6734 76.3466V29.9816C38.6734 29.342 39.0432 28.7594 39.6212 28.4866C55.7403 20.8848 66.1099 19.2879 71.9676 19.2879C75.5036 19.2879 77.2281 19.8772 77.4123 19.945C78.1196 20.2016 78.5621 20.9027 78.4939 21.6517L74.3313 66.407C74.2506 67.2595 73.537 67.9086 72.6845 67.9086C72.6749 67.9086 72.665 67.9086 72.6587 67.9086L71.9547 67.902C55.3141 67.902 41.4198 77.5996 41.2809 77.6965C40.9968 77.8969 40.6625 78 40.3268 78ZM41.9803 31.0345V73.3404C46.8631 70.4535 58.0333 64.8184 71.1766 64.6018L75.0648 22.7998C74.3574 22.6933 73.3307 22.5948 71.9679 22.5948C66.5586 22.5944 56.9999 24.0736 41.9803 31.0345Z" fill="#052A24"/>
<path d="M40.3445 31.6333C40.1653 31.6333 39.9827 31.6042 39.8052 31.5431C39.0737 31.2894 38.6134 30.5646 38.7023 29.7944C38.7992 28.9403 41.4295 8.80861 70.637 2.04151C71.5411 1.84145 72.4164 2.39204 72.6231 3.27992C72.8298 4.16946 72.2742 5.05767 71.3864 5.26435C56.2665 8.76661 48.8682 16.1134 45.2806 21.9245C50.8285 17.0079 60.2066 11.2563 74.1862 10.4862C75.1227 10.4263 75.8784 11.1369 75.927 12.046C75.9786 12.9567 75.2811 13.7364 74.3671 13.7867C51.72 15.0364 41.8527 30.6873 41.7542 30.844C41.4473 31.3443 40.9063 31.6333 40.3445 31.6333Z" fill="#052A24"/>
<path d="M40.5703 31.6333C40.0085 31.6333 39.4675 31.3459 39.1606 30.8436C39.0621 30.6869 29.1918 15.036 6.54602 13.7863C5.63367 13.7364 4.93461 12.9563 4.98619 12.0456C5.03613 11.1316 5.80794 10.4068 6.72691 10.4858C20.8553 11.2642 30.2831 17.1302 35.8101 22.0792C32.3016 16.2552 24.9241 8.8294 9.52978 5.26398C8.64024 5.0573 8.08635 4.16909 8.29137 3.27955C8.4997 2.39134 9.39585 1.84075 10.2758 2.04115C39.4834 8.80824 42.1153 28.9399 42.2122 29.794C42.2995 30.5625 41.8408 31.2891 41.1093 31.5427C40.9321 31.6042 40.7495 31.6333 40.5703 31.6333Z" fill="#052A24"/>
</svg>
