<svg width="34" height="28" viewBox="0 0 34 28" fill="none" xmlns="http://www.w3.org/2000/svg">
<path d="M18.002 14.1504C18.002 18.6152 17.2812 21.9316 15.8398 24.0996C14.4102 26.2676 12.2188 27.3516 9.26562 27.3516C6.40625 27.3516 4.23828 26.2324 2.76172 23.9941C1.28516 21.7559 0.546875 18.4746 0.546875 14.1504C0.546875 9.61523 1.26172 6.27539 2.69141 4.13086C4.13281 1.97461 6.32422 0.896484 9.26562 0.896484C12.1367 0.896484 14.3105 2.02148 15.7871 4.27148C17.2637 6.52148 18.002 9.81445 18.002 14.1504ZM4.73047 14.1504C4.73047 17.6543 5.08789 20.1562 5.80273 21.6562C6.5293 23.1562 7.68359 23.9062 9.26562 23.9062C10.8477 23.9062 12.002 23.1445 12.7285 21.6211C13.4668 20.0977 13.8359 17.6074 13.8359 14.1504C13.8359 10.7051 13.4668 8.21484 12.7285 6.67969C12.002 5.13281 10.8477 4.35938 9.26562 4.35938C7.68359 4.35938 6.5293 5.11523 5.80273 6.62695C5.08789 8.13867 4.73047 10.6465 4.73047 14.1504ZM33.2773 27H29.1465V10.4062C29.1465 8.42578 29.1934 6.85547 29.2871 5.69531C29.0176 5.97656 28.6836 6.28711 28.2852 6.62695C27.8984 6.9668 26.5859 8.04492 24.3477 9.86133L22.2734 7.24219L29.832 1.30078H33.2773V27Z" fill="#CCCCCC"/>
</svg>
