<svg width="39" height="28" viewBox="0 0 39 28" fill="none" xmlns="http://www.w3.org/2000/svg">
<path d="M18.002 14.1504C18.002 18.6152 17.2812 21.9316 15.8398 24.0996C14.4102 26.2676 12.2188 27.3516 9.26562 27.3516C6.40625 27.3516 4.23828 26.2324 2.76172 23.9941C1.28516 21.7559 0.546875 18.4746 0.546875 14.1504C0.546875 9.61523 1.26172 6.27539 2.69141 4.13086C4.13281 1.97461 6.32422 0.896484 9.26562 0.896484C12.1367 0.896484 14.3105 2.02148 15.7871 4.27148C17.2637 6.52148 18.002 9.81445 18.002 14.1504ZM4.73047 14.1504C4.73047 17.6543 5.08789 20.1562 5.80273 21.6562C6.5293 23.1562 7.68359 23.9062 9.26562 23.9062C10.8477 23.9062 12.002 23.1445 12.7285 21.6211C13.4668 20.0977 13.8359 17.6074 13.8359 14.1504C13.8359 10.7051 13.4668 8.21484 12.7285 6.67969C12.002 5.13281 10.8477 4.35938 9.26562 4.35938C7.68359 4.35938 6.5293 5.11523 5.80273 6.62695C5.08789 8.13867 4.73047 10.6465 4.73047 14.1504ZM38.5684 27H21.1484V23.8711L27.7754 17.209C29.7324 15.2051 31.0273 13.7871 31.6602 12.9551C32.3047 12.1113 32.7734 11.3203 33.0664 10.582C33.3594 9.84375 33.5059 9.05273 33.5059 8.20898C33.5059 7.04883 33.1543 6.13477 32.4512 5.4668C31.7598 4.79883 30.7988 4.46484 29.5684 4.46484C28.584 4.46484 27.6289 4.64648 26.7031 5.00977C25.7891 5.37305 24.7285 6.0293 23.5215 6.97852L21.2891 4.25391C22.7188 3.04687 24.1074 2.19141 25.4551 1.6875C26.8027 1.18359 28.2383 0.931641 29.7617 0.931641C32.1523 0.931641 34.0684 1.55859 35.5098 2.8125C36.9512 4.05469 37.6719 5.73047 37.6719 7.83984C37.6719 9 37.4609 10.1016 37.0391 11.1445C36.6289 12.1875 35.9902 13.2656 35.123 14.3789C34.2676 15.4805 32.8379 16.9746 30.834 18.8613L26.3691 23.1855V23.3613H38.5684V27Z" fill="#CCCCCC"/>
</svg>
