<svg width="39" height="28" viewBox="0 0 39 28" fill="none" xmlns="http://www.w3.org/2000/svg">
<path d="M18.002 14.1504C18.002 18.6152 17.2812 21.9316 15.8398 24.0996C14.4102 26.2676 12.2188 27.3516 9.26562 27.3516C6.40625 27.3516 4.23828 26.2324 2.76172 23.9941C1.28516 21.7559 0.546875 18.4746 0.546875 14.1504C0.546875 9.61523 1.26172 6.27539 2.69141 4.13086C4.13281 1.97461 6.32422 0.896484 9.26562 0.896484C12.1367 0.896484 14.3105 2.02148 15.7871 4.27148C17.2637 6.52148 18.002 9.81445 18.002 14.1504ZM4.73047 14.1504C4.73047 17.6543 5.08789 20.1562 5.80273 21.6562C6.5293 23.1562 7.68359 23.9062 9.26562 23.9062C10.8477 23.9062 12.002 23.1445 12.7285 21.6211C13.4668 20.0977 13.8359 17.6074 13.8359 14.1504C13.8359 10.7051 13.4668 8.21484 12.7285 6.67969C12.002 5.13281 10.8477 4.35938 9.26562 4.35938C7.68359 4.35938 6.5293 5.11523 5.80273 6.62695C5.08789 8.13867 4.73047 10.6465 4.73047 14.1504ZM37.6016 7.20703C37.6016 8.83594 37.127 10.1953 36.1777 11.2852C35.2285 12.3633 33.8926 13.0898 32.1699 13.4648V13.6055C34.2324 13.8633 35.7793 14.5078 36.8105 15.5391C37.8418 16.5586 38.3574 17.918 38.3574 19.6172C38.3574 22.0898 37.4844 24 35.7383 25.3477C33.9922 26.6836 31.5078 27.3516 28.2852 27.3516C25.4375 27.3516 23.0352 26.8887 21.0781 25.9629V22.2891C22.168 22.8281 23.3223 23.2441 24.541 23.5371C25.7598 23.8301 26.9316 23.9766 28.0566 23.9766C30.0488 23.9766 31.5371 23.6074 32.5215 22.8691C33.5059 22.1309 33.998 20.9883 33.998 19.4414C33.998 18.0703 33.4531 17.0625 32.3633 16.418C31.2734 15.7734 29.5625 15.4512 27.2305 15.4512H24.998V12.0938H27.2656C31.3672 12.0938 33.418 10.6758 33.418 7.83984C33.418 6.73828 33.0605 5.88867 32.3457 5.29102C31.6309 4.69336 30.5762 4.39453 29.1816 4.39453C28.209 4.39453 27.2715 4.53516 26.3691 4.81641C25.4668 5.08594 24.4004 5.61914 23.1699 6.41602L21.1484 3.5332C23.5039 1.79883 26.2402 0.931641 29.3574 0.931641C31.9473 0.931641 33.9688 1.48828 35.4219 2.60156C36.875 3.71484 37.6016 5.25 37.6016 7.20703Z" fill="#CCCCCC"/>
</svg>
