<svg width="170" height="170" viewBox="0 0 131 157" fill="none" xmlns="http://www.w3.org/2000/svg">
<path d="M130.714 152.475C128.546 148.714 126.403 147.618 125.832 147.189C124.546 146.189 123.403 146.047 121.975 145.332C118.689 143.618 115.403 141.904 111.832 140.618C107.975 139.332 98.689 136.904 98.1175 136.761C95.2604 136.047 92.5461 135.189 89.689 134.332C87.4032 133.475 81.5461 132.475 79.5461 123.332C79.2604 121.904 79.5461 120.332 79.4032 118.761C79.2604 116.475 78.9747 114.189 80.2604 112.618C85.5461 105.904 88.8318 98.1894 91.5461 90.1894C92.4032 87.7608 93.1175 85.3322 94.1175 83.0465C94.2604 82.6179 94.9747 82.0465 95.5461 81.9036C98.4032 81.0465 99.2604 79.3322 100.689 76.9036C103.975 71.3322 106.975 61.0465 100.403 56.6179C101.832 52.1894 99.8318 47.7608 98.6889 43.4751C98.4032 42.4751 99.1175 42.1894 99.689 41.6179C100.118 41.1894 100.26 40.3322 100.689 39.9036C101.403 39.0465 101.832 39.7608 102.689 39.7608C103.26 39.7608 103.546 39.3322 103.975 38.9037C104.975 38.0465 106.26 37.3322 107.26 36.4751C109.403 34.9036 111.832 33.1894 113.26 30.9037C114.832 28.4751 114.975 25.6179 115.118 22.7608C115.26 19.4751 114.832 16.3322 113.118 13.4751C111.689 11.0465 109.832 8.90363 107.832 6.90363C105.975 5.04649 104.118 3.33224 101.689 2.47509C98.689 1.47509 95.2604 1.18937 92.1175 1.61794C90.8318 1.7608 89.5461 2.04652 88.4032 2.47509C86.1175 3.18938 83.8318 4.18937 82.1175 5.90365C81.2604 6.7608 80.6889 7.47507 80.5461 8.61793C80.4032 9.76079 80.5461 11.3322 79.4032 12.0465C77.8318 13.0465 76.1175 12.6179 75.6889 14.9036C72.6889 14.3322 69.8318 14.0465 67.4032 16.1893C67.2604 16.3322 66.5461 16.0465 66.1175 15.7608C63.2604 14.3322 59.5461 13.4751 55.4032 14.4751C53.6889 14.9037 54.9747 12.7608 52.5461 11.7608C51.8318 11.4751 52.2604 11.0465 52.2604 10.7608C52.4032 9.76079 51.6889 7.76078 51.2604 7.04649C50.5461 5.90364 49.5461 5.04649 48.5461 4.18935C46.8318 2.76078 44.8318 1.90364 42.6889 1.33221C41.6889 1.04649 40.6889 0.903655 39.6889 0.903655C34.1175 0.475084 29.1175 3.04649 25.5461 7.04649C23.6889 9.18935 21.6889 11.6179 20.4032 14.1894C18.5461 17.4751 17.1175 20.7608 17.2604 24.6179C17.4032 28.4751 19.8318 31.9036 21.8318 35.0465C22.5461 36.0465 23.5461 35.0465 23.6889 36.1893C23.9747 38.7608 25.5461 39.0465 26.5461 39.6179C26.9747 39.9037 27.6889 40.4751 27.6889 40.9037C27.6889 41.7608 27.2604 42.6179 26.9747 43.6179C26.4032 45.9036 25.4032 48.1893 25.1175 50.4751C24.4032 55.6179 26.2604 58.9037 24.6889 58.9037C18.8318 59.0465 22.1175 77.3322 23.5461 81.1893C24.1175 82.9036 27.2604 84.9036 29.1175 84.7608C29.9747 84.6179 30.2604 84.9036 30.5461 85.7608C30.9747 87.6179 39.4032 106.761 47.1175 113.047C47.6889 113.475 50.5461 116.189 50.6889 117.046C51.2604 119.904 51.5461 124.618 51.1175 127.761C50.5461 131.761 46.6889 134.904 42.1175 137.332C37.4032 139.761 31.9747 141.475 28.1175 142.475C27.8318 142.761 20.8318 144.475 17.6889 145.189C16.9747 145.332 16.4032 145.618 15.689 145.761C10.1175 147.904 2.85707 150.143 0.713867 153.714L1.4285 154.429C1.4285 154.429 2.14279 152.286 5.54609 150.761C11.8318 146.904 17.8318 149.189 24.2604 151.475C31.6889 154.046 57.6889 157.761 65.2604 156.618C72.9747 155.618 80.689 154.047 88.2604 152.475C91.5461 151.761 96.6889 146.761 99.1175 145.618C101.118 144.618 104.403 141.904 106.546 142.332C110.975 143.047 115.118 144.618 118.975 147.046C120.26 147.761 121.403 148.618 122.689 149.618C124.546 151.047 126.832 152.047 128.546 153.761H129.285C129.285 153.761 130.777 152.584 130.714 152.475ZM83.2604 7.90365C84.8318 4.18936 93.6889 2.33224 96.5461 2.47509C98.9747 2.61795 104.975 4.76081 109.403 9.61795C110.832 11.1894 112.118 13.4751 112.832 15.7608C114.689 21.7608 113.832 29.1894 108.832 33.4751C107.26 34.9036 105.26 36.4751 103.403 37.4751C102.26 38.0465 102.118 37.0465 100.689 35.9037C99.689 35.0465 99.2604 33.6179 98.6889 32.4751C95.1175 26.3322 92.1175 20.9036 87.4032 15.6179C86.2604 14.4751 82.1175 11.7608 81.9747 10.0465C81.9747 9.47507 83.1175 8.33222 83.2604 7.90365ZM77.4032 13.7608C77.6889 13.3322 80.1175 12.3322 80.5461 12.1894C82.1175 11.4751 84.2604 15.4751 85.1175 16.3322C86.2604 17.6179 87.4032 18.7608 88.5461 19.9036C92.4032 24.3322 94.9747 29.9036 97.9747 34.9036C98.5461 35.9036 99.1175 37.0465 99.8318 37.9036C100.403 38.6179 100.832 38.3322 98.8318 40.3322C97.9747 41.1894 97.8318 40.3322 97.4032 39.6179C96.689 38.1894 94.9747 34.3322 94.2604 32.9036C90.4032 26.4751 84.2604 19.1894 77.6889 15.0465C77.2604 15.0465 77.2604 14.0465 77.4032 13.7608ZM67.1175 23.7608C67.6889 19.1894 67.6889 15.1894 72.8318 15.7608C73.6889 15.9036 77.1175 16.6179 77.9747 17.0465C84.9747 20.4751 88.2604 28.7608 92.6889 34.6179C94.1175 36.4751 95.4032 38.4751 96.1175 40.7608C97.2604 45.0465 101.546 50.1893 99.2604 54.9036C98.8318 55.7608 97.2604 57.4751 96.5461 58.1894C95.9747 58.7608 96.1175 59.6179 95.689 60.1894C94.9747 61.1894 93.2604 59.1893 92.5461 58.4751C91.689 57.6179 91.2604 56.3322 90.5461 55.3322C88.4032 52.3322 85.2604 50.4751 82.1175 48.6179C76.5461 45.4751 71.8318 41.4751 68.9747 35.4751C67.4032 32.7608 66.5461 27.9037 67.1175 23.7608ZM23.1175 33.6179C22.6889 33.4751 20.9747 30.0465 20.1175 29.0465C17.9747 26.0465 18.1175 22.0465 19.4032 18.7608C21.1175 13.7608 25.4032 9.33221 29.8318 6.33221C29.9747 6.47507 33.2604 0.61795 41.4032 1.76081C44.2604 2.18938 46.5461 2.90363 48.6889 4.76077C49.6889 5.61791 50.9747 7.04651 51.4032 8.7608C51.9747 11.6179 47.6889 12.6179 45.6889 14.1894C39.4032 19.3322 32.6889 22.1894 28.4032 28.0465C27.5461 28.7608 24.2604 34.0465 23.1175 33.6179ZM24.8318 35.4751C24.6889 34.6179 26.5461 31.9036 27.8318 30.0465C30.4032 26.0465 34.1175 23.1894 38.1175 20.6179C40.2604 19.1894 47.8318 13.0465 51.4032 12.3322C52.4032 12.1894 54.2604 15.0465 53.5461 15.3322C51.5461 16.3322 41.2604 22.4751 39.6889 24.3322C37.9747 26.1894 31.9747 31.6179 29.4032 36.4751C28.1175 38.4751 26.4032 39.0465 24.8318 35.4751ZM28.2604 44.0465C28.9747 42.1893 29.5461 40.1893 30.4032 38.3322C31.5461 35.6179 32.9747 33.0465 34.8318 30.9037C39.8318 25.1894 45.2604 20.7608 52.1175 17.6179C54.1175 16.7608 57.5461 15.3322 59.6889 15.0465C62.6889 14.6179 66.2604 16.7608 66.1175 17.6179C64.4032 24.3322 65.8318 28.6179 64.4032 32.4751C63.1175 36.1894 61.8318 39.9036 58.9747 42.6179C56.5461 45.0465 53.8318 47.3322 50.9747 49.3322C47.5461 51.6179 38.1175 56.7608 35.4032 62.4751C34.8318 63.7608 33.5461 67.0465 33.2604 65.7608C30.5461 56.3322 27.5461 59.6179 26.9747 57.9036C25.6889 48.3322 27.9747 44.6179 28.2604 44.0465ZM49.2604 111.189C46.4032 108.761 43.9746 105.904 42.2604 102.475C40.4032 98.9037 38.1175 95.4751 36.2604 91.9036C34.8318 89.0465 33.5461 86.0465 32.2604 83.0465C31.8318 82.0465 31.4032 81.7608 30.1175 81.6179C24.6889 81.3322 23.4032 73.4751 22.9747 69.1893C22.8318 67.0465 22.8318 64.7608 23.2604 62.6179C23.9747 59.4751 26.6889 58.9036 28.9747 60.0465C30.8318 61.0465 31.9747 65.9036 32.6889 67.1894C34.1175 69.6179 38.6889 60.0465 40.5461 58.1894C46.1175 52.9037 53.5461 50.1894 58.8318 44.6179C61.9747 41.4751 64.6889 36.3322 66.2604 32.0465C66.9747 33.7608 67.8318 35.3322 68.4032 37.0465C69.8318 40.9036 72.6889 43.9036 75.9747 46.3322C79.5461 49.0465 83.8318 50.4751 86.9747 53.7608C89.689 56.7608 91.4032 60.7608 94.9747 63.0465C95.8318 63.6179 96.6889 62.9036 96.9747 61.9036C97.2604 61.0465 97.2604 60.0465 97.5461 59.1893C97.689 58.6179 98.1175 58.0465 98.5461 57.9036C99.1175 57.7608 99.9747 57.9037 100.26 58.1894C102.118 59.9037 102.689 62.3322 102.546 64.6179C102.403 67.4751 101.689 78.1893 95.8318 79.1893C94.689 79.3322 94.1175 77.1894 93.5461 78.1894C92.8318 79.3322 92.8318 80.7608 92.4032 82.0465C90.1175 87.7608 87.9747 93.4751 85.4032 99.0465C83.6889 102.618 81.6889 106.189 79.2604 109.332C76.1175 113.332 72.1175 116.475 66.9747 117.475C65.6889 117.761 64.1175 117.475 62.8318 117.189C57.6889 116.618 53.1175 114.475 49.2604 111.189ZM86.5461 149.904C59.5461 159.761 17.5461 146.904 17.4032 146.189C18.4032 145.904 21.1175 144.904 22.1175 144.761C27.4032 143.618 38.8318 140.475 39.5461 139.904C42.5461 138.618 45.4032 136.904 48.4032 135.332C56.1175 131.047 53.1175 117.761 53.1175 116.904C65.9747 125.475 70.8318 120.332 77.5461 115.189C77.4032 116.475 77.4032 117.475 77.2604 118.475C76.5461 124.618 78.5461 129.904 83.2604 133.618C85.4032 135.332 88.2604 136.332 90.9747 137.332C91.1175 137.904 100.832 139.761 101.975 140.189C101.403 141.475 96.9747 146.046 86.5461 149.904Z" fill="black"/>
<path d="M83.2603 7.90365C84.8318 4.18937 93.6889 2.33224 96.546 2.4751C98.9746 2.61795 104.975 4.76081 109.403 9.61795C110.832 11.1894 112.117 13.4751 112.832 15.7608C114.689 21.7608 113.832 29.1894 108.832 33.4751C107.26 34.9036 105.26 36.4751 103.403 37.4751C102.26 38.0465 102.117 37.0465 100.689 35.9037C99.6889 35.0465 99.2603 33.618 98.6889 32.4751C95.1175 26.3322 92.1175 20.9036 87.4032 15.6179C86.2603 14.4751 82.1175 11.7608 81.9746 10.0465C81.9746 9.47508 83.1175 8.33222 83.2603 7.90365Z" fill="#009C77"/>
<path d="M67.1176 23.7608C67.689 19.1894 67.689 15.1894 72.8318 15.7608C73.689 15.9037 77.1176 16.6179 77.9747 17.0465C84.9747 20.4751 88.2604 28.7608 92.689 34.618C94.1175 36.4751 95.4033 38.4751 96.1176 40.7608C97.2604 45.0465 101.546 50.1894 99.2604 54.9036C98.8318 55.7608 97.2604 57.4751 96.5461 58.1894C95.9747 58.7608 96.1176 59.618 95.689 60.1894C94.9747 61.1894 93.2604 59.1894 92.5461 58.4751C91.689 57.6179 91.2604 56.3322 90.5461 55.3322C88.4033 52.3322 85.2604 50.4751 82.1176 48.6179C76.5461 45.4751 71.8318 41.4751 68.9747 35.4751C67.4033 32.7608 66.5461 27.9037 67.1176 23.7608Z" fill="#009C77"/>
<path d="M23.1177 33.6179C22.6891 33.4751 20.9748 30.0465 20.1177 29.0465C17.9748 26.0465 18.1177 22.0465 19.4034 18.7608C21.1177 13.7608 25.832 8.76081 30.2605 5.90366C30.4034 6.04652 33.2606 0.760815 41.4034 1.76081C44.2606 2.18939 46.5463 2.90364 48.6891 4.76078C49.6891 5.61792 50.9748 7.04652 51.4034 8.76081C51.9748 11.6179 47.6891 12.6179 45.6891 14.1894C39.4034 19.3322 32.6891 22.1894 28.4034 28.0465C27.5463 28.7608 24.2605 34.0465 23.1177 33.6179Z" fill="#009C77"/>
<path d="M28.2606 44.0465C28.9749 42.1893 29.5463 40.1893 30.4034 38.3322C31.5463 35.6179 32.9749 33.0465 34.832 30.9036C39.832 25.1894 45.2606 20.7608 52.1177 17.6179C54.1177 16.7608 57.5463 15.3322 59.6891 15.0465C62.6891 14.6179 66.2606 16.7608 66.1177 17.6179C64.4034 24.3322 65.832 28.6179 64.4034 32.4751C63.1177 36.1894 61.832 39.9036 58.9749 42.6179C56.5463 45.0465 53.832 47.3322 50.9749 49.3322C47.5463 51.6179 38.1177 56.7608 35.4034 62.4751C34.832 63.7608 33.5463 67.0465 33.2606 65.7608C30.5463 56.3322 27.5463 59.6179 26.9749 57.9036C25.6891 48.3322 27.9749 44.6179 28.2606 44.0465Z" fill="#009C77"/>
<path d="M64.6888 59.618C65.2602 59.9037 65.2602 62.4751 65.2602 63.1894C65.8317 67.9037 64.6888 73.9036 63.4031 79.0465C62.9745 80.9036 60.1174 86.7608 64.9745 85.9037C65.9745 85.7608 66.8317 85.1894 67.6888 84.9036C67.9745 84.9036 68.4031 85.1894 68.546 85.3322C68.6888 85.4751 68.4031 86.0465 68.2602 86.0465C66.9745 86.618 65.6888 87.3322 64.2602 87.7608C57.8317 89.6179 62.546 78.6179 62.8317 76.6179C63.8317 71.4751 64.1174 66.0465 64.1174 60.7608C64.1174 59.7608 64.2602 59.4751 64.6888 59.618Z" fill="black"/>
<path d="M95.9748 72.0465C95.832 72.0465 95.832 72.0465 95.9748 72.0465C94.6891 72.0465 95.6891 74.3322 95.2605 74.9036C94.5462 76.0465 94.2605 72.4751 94.4034 71.9036C94.6891 70.9036 95.2605 70.6179 95.9748 70.1894C96.6891 69.9036 100.118 68.0465 98.5463 66.3322C97.9748 65.7608 96.9748 66.3322 96.4034 66.4751C95.9748 66.6179 95.4034 67.0465 95.4034 66.3322C95.4034 65.4751 96.832 64.4751 97.4034 64.1893C98.4034 63.7608 99.4034 64.0465 99.9748 65.1894C100.832 66.7608 100.403 68.6179 99.6891 70.0465C99.1177 71.3322 97.9748 73.0465 97.1177 73.7608C96.832 73.3322 96.5462 72.1893 95.9748 72.0465Z" fill="black"/>
<path d="M27.6888 73.4751C27.8316 74.4751 28.5459 75.1894 28.6888 76.0465C27.8316 76.1894 27.1173 74.9036 26.6888 74.0465C25.9745 72.6179 25.5459 70.618 25.5459 68.9037C25.5459 67.3322 26.1173 65.4751 27.1173 64.9036C27.8316 64.4751 28.403 65.3322 28.8316 65.9037C27.403 67.0465 26.2602 67.6179 27.8316 69.7608C28.9745 71.1893 33.4031 74.1894 31.4031 77.4751C30.9745 76.9037 30.8316 76.0465 30.5459 75.3322C30.1173 74.3322 29.6888 73.4751 28.8316 73.1894C27.9745 72.618 27.6888 72.9036 27.6888 73.4751Z" fill="black"/>
<path d="M83.5463 55.7608C83.1178 55.9036 82.4035 55.3322 81.832 54.9036C80.2606 53.4751 75.2606 52.1893 74.832 49.9036C74.9749 49.7608 75.1177 49.7608 75.4035 49.7608C77.6892 49.6179 79.9749 50.9036 81.5463 52.3322C82.1177 52.7608 83.5463 54.1893 83.6892 54.9036C83.832 55.4751 83.6892 55.6179 83.5463 55.7608Z" fill="black"/>
<path d="M45.8318 56.9036C45.1175 56.3322 49.8318 52.4751 50.4032 52.1894C51.2604 51.6179 55.2604 48.9037 55.5461 50.9037C55.8318 52.3322 52.1175 53.7608 51.2604 54.3322C50.4032 54.6179 46.5461 57.4751 45.8318 56.9036Z" fill="black"/>
<path d="M70.9747 108.332C69.8318 109.618 65.4033 110.904 64.2604 110.332C63.9747 110.189 63.689 109.761 63.689 109.618C63.8318 109.332 64.1175 108.761 64.4033 108.761C66.1175 108.475 67.9747 108.332 69.689 108.047C70.1175 108.047 70.4032 108.189 70.9747 108.332Z" fill="black"/>
<path d="M76.1885 93.867C76.1885 94.0098 76.1885 94.1527 76.1885 94.4384C75.9028 95.7241 73.4742 97.4384 72.1885 98.1527C69.7599 99.5813 66.9028 100.438 64.1885 100.581C63.4742 100.581 59.3314 100.438 61.1885 99.1527C62.0457 98.5813 63.6171 98.4384 64.6171 98.2955C66.0456 98.0098 67.4742 97.7241 68.7599 97.2955C70.0457 96.867 71.3313 96.2955 72.6171 95.5813C73.3313 95.1527 75.9028 93.1527 76.1885 93.867Z" fill="black"/>
<path d="M56.9749 65.9037C54.6892 64.618 52.4035 63.9036 49.9749 64.0465C48.832 64.1894 47.6892 64.3322 46.4035 64.7608C45.832 64.9036 45.2606 65.1894 44.6892 65.3323C44.1177 65.618 43.5463 65.9037 42.832 66.0465C43.2606 65.4751 43.6892 65.0465 44.2606 64.618C44.832 64.1894 45.2606 63.7608 45.9749 63.4751C47.1177 62.7608 48.5463 62.4751 49.9749 62.3322C51.4035 62.3322 52.832 62.618 53.9749 63.1894C55.2606 63.7608 56.2606 64.7608 56.9749 65.9037Z" fill="#06021F"/>
<path d="M45.5463 63.9037C45.5463 63.9037 43.4035 64.7608 41.832 62.9037C41.832 62.9037 41.9749 64.9036 43.4035 65.6179C43.4035 65.6179 43.5463 65.3322 45.5463 63.9037Z" fill="#06021F"/>
<path d="M46.6891 63.9037C46.6891 63.9037 44.6891 64.0465 43.6891 62.0465C43.6891 62.0465 43.4034 63.9036 44.4034 64.7608C44.4034 64.9036 44.6891 64.618 46.6891 63.9037Z" fill="#06021F"/>
<path d="M52.2604 67.618C52.2604 69.9037 51.2604 71.9037 49.9747 71.9037C48.689 71.9037 47.689 70.0465 47.689 67.7608C47.689 65.4751 48.689 63.4751 49.9747 63.4751C51.2604 63.3323 52.2604 65.3322 52.2604 67.618Z" fill="#06021F"/>
<path d="M71.832 65.9037C72.5463 64.7608 73.5463 63.7608 74.832 63.1894C76.1177 62.618 77.5463 62.3322 78.832 62.3322C80.2606 62.4751 81.5463 62.7608 82.832 63.4751C83.4035 63.7608 83.9749 64.1894 84.5463 64.618C84.9749 65.0465 85.5463 65.4751 85.9749 66.0465C85.2606 65.9037 84.6892 65.618 84.1177 65.3323C83.5463 65.1894 82.9749 64.9036 82.4035 64.7608C81.2606 64.3322 80.1177 64.1894 78.832 64.0465C76.4035 63.9036 74.1177 64.618 71.832 65.9037Z" fill="#06021F"/>
<path d="M83.2607 63.9037C83.2607 63.9037 85.4036 64.7608 86.975 62.9037C86.975 62.9037 86.8322 64.9036 85.4036 65.6179C85.4036 65.6179 85.2607 65.3322 83.2607 63.9037Z" fill="#06021F"/>
<path d="M82.1177 63.9037C82.1177 63.9037 84.1177 64.0465 85.1177 62.0465C85.1177 62.0465 85.4034 63.9036 84.4034 64.7608C84.4034 64.9036 84.1177 64.618 82.1177 63.9037Z" fill="#06021F"/>
<path d="M76.5464 67.618C76.5464 69.9037 77.5464 71.9037 78.8321 71.9037C80.1178 71.9037 81.1178 70.0465 81.1178 67.7608C81.1178 65.4751 80.1178 63.4751 78.8321 63.4751C77.6892 63.3323 76.5464 65.3322 76.5464 67.618Z" fill="#06021F"/>
</svg>
