<svg width="11" height="19" viewBox="0 0 11 19" fill="none" xmlns="http://www.w3.org/2000/svg">
<path d="M10.609 0.00392879L8.11718 0C5.3177 0 3.50856 1.82394 3.50856 4.64697V6.78954H1.00314C0.786645 6.78954 0.611328 6.96201 0.611328 7.17475V10.2791C0.611328 10.4918 0.786845 10.6641 1.00314 10.6641H3.50856V18.4973C3.50856 18.7101 3.68387 18.8823 3.90037 18.8823H7.16923C7.38572 18.8823 7.56104 18.7099 7.56104 18.4973V10.6641H10.4905C10.707 10.6641 10.8823 10.4918 10.8823 10.2791L10.8835 7.17475C10.8835 7.07261 10.8421 6.97478 10.7687 6.90249C10.6954 6.8302 10.5954 6.78954 10.4915 6.78954H7.56104V4.97326C7.56104 4.10028 7.77274 3.65711 8.92999 3.65711L10.6086 3.65652C10.8249 3.65652 11.0002 3.48405 11.0002 3.2715V0.38895C11.0002 0.176599 10.8251 0.00432167 10.609 0.00392879Z" fill="#6281C8"/>
</svg>
