<svg width="21" height="13" viewBox="0 0 21 13" fill="none" xmlns="http://www.w3.org/2000/svg">
<path d="M0.00384757 6.37218C-0.118848 3.09107 2.71074 0.058912 5.94444 0.0195727C7.59258 -0.123204 9.19602 0.526857 10.4433 1.58709C9.93165 2.15848 9.41108 2.72326 8.85502 3.252C7.75698 2.57443 6.43495 2.05806 5.15166 2.51666C3.08181 3.11527 1.82831 5.5975 2.59427 7.65415C3.22861 9.80213 5.80089 10.9809 7.81684 10.0786C8.8607 9.69897 9.54894 8.72071 9.85094 7.66956C8.65459 7.64535 7.45796 7.66048 6.26161 7.62692C6.25863 6.90395 6.25565 6.18374 6.25863 5.46078C8.25373 5.45775 10.2518 5.4517 12.2499 5.46986C12.3726 7.24123 12.1153 9.13694 10.9815 10.5587C9.42895 12.5881 6.56063 13.1837 4.22724 12.3875C1.75084 11.5614 -0.050052 9.02745 0.00384757 6.37218Z" fill="#6281C8"/>
<path d="M17.0096 2.93726C17.633 2.93726 18.2561 2.93726 18.8824 2.93726C18.8858 3.58683 18.8918 4.23965 18.8952 4.88892C19.5215 4.89543 20.1512 4.89868 20.7778 4.90193C20.7778 5.5515 20.7778 6.19752 20.7778 6.8471C20.1515 6.85035 19.5218 6.8536 18.8952 6.85685C18.889 7.50967 18.8858 8.15895 18.8824 8.81177C18.2561 8.80852 17.6293 8.81177 17.0062 8.81177C17.0002 8.15895 17.0002 7.50967 16.9936 6.8601C16.3673 6.8533 15.7376 6.85035 15.1111 6.8468C15.1111 6.19723 15.1111 5.5512 15.1111 4.90163C15.7376 4.89838 16.3642 4.89513 16.9936 4.88863C16.9967 4.23965 17.003 3.58683 17.0096 2.93726Z" fill="#6281C8"/>
</svg>
