<svg width="20" height="20" viewBox="0 0 20 20" fill="none" xmlns="http://www.w3.org/2000/svg">
<path fill-rule="evenodd" clip-rule="evenodd" d="M6.06928 0H13.1526C16.4121 0 19.0554 2.66904 19.0554 5.96034V13.1127C19.0554 16.404 16.4121 19.0731 13.1526 19.0731H6.06928C2.80977 19.0731 0.166504 16.404 0.166504 13.1127V5.96034C0.166504 2.66904 2.80977 0 6.06928 0ZM13.1526 17.285C15.4311 17.285 17.2846 15.4134 17.2846 13.1127V5.96033C17.2846 3.65964 15.4311 1.7881 13.1526 1.7881H6.06928C3.79081 1.7881 1.93734 3.65964 1.93734 5.96033V13.1127C1.93734 15.4134 3.79081 17.285 6.06928 17.285H13.1526Z" fill="#6281C8"/>
<path fill-rule="evenodd" clip-rule="evenodd" d="M5 9.76826C5 7.13499 7.11437 5 9.72222 5C12.3301 5 14.4444 7.13499 14.4444 9.76826C14.4444 12.4015 12.3301 14.5365 9.72222 14.5365C7.11437 14.5365 5 12.4015 5 9.76826ZM6.77083 9.76826C6.77083 11.4109 8.09541 12.7484 9.72222 12.7484C11.349 12.7484 12.6736 11.4109 12.6736 9.76826C12.6736 8.12441 11.349 6.78812 9.72222 6.78812C8.09541 6.78812 6.77083 8.12441 6.77083 9.76826Z" fill="#6281C8"/>
<path d="M14.3331 4.76825C14.8547 4.76825 15.2776 4.34129 15.2776 3.81461C15.2776 3.28792 14.8547 2.86096 14.3331 2.86096C13.8115 2.86096 13.3887 3.28792 13.3887 3.81461C13.3887 4.34129 13.8115 4.76825 14.3331 4.76825Z" fill="#6281C8"/>
</svg>
