<svg width="32" height="32" viewBox="0 0 32 32" fill="none" xmlns="http://www.w3.org/2000/svg">
<g clip-path="url(#clip0_3003_6694)">
<circle cx="16" cy="16" r="16" fill="#34AADF"/>
<path d="M7.98093 15.1092C7.98093 15.1092 15.0574 12.2051 17.5116 11.1824C18.4524 10.7734 21.6429 9.46444 21.6429 9.46444C21.6429 9.46444 23.1155 8.89182 22.9927 10.2825C22.9518 10.8552 22.6246 12.8595 22.2974 15.0274C21.8065 18.0952 21.2747 21.4493 21.2747 21.4493C21.2747 21.4493 21.1929 22.3902 20.4976 22.5538C19.8022 22.7174 18.6569 21.9812 18.4524 21.8175C18.2887 21.6948 15.3846 19.8541 14.3211 18.9542C14.0347 18.7088 13.7075 18.218 14.3619 17.6453C15.8345 16.2954 17.5934 14.6184 18.6569 13.5549C19.1477 13.064 19.6386 11.9187 17.5934 13.3094C14.6892 15.3137 11.8259 17.1953 11.8259 17.1953C11.8259 17.1953 11.1714 17.6044 9.94433 17.2362C8.71716 16.8681 7.28552 16.3773 7.28552 16.3773C7.28552 16.3773 6.30388 15.7637 7.98093 15.1092Z" fill="white"/>
</g>
<defs>
<clipPath id="clip0_3003_6694">
<rect width="32" height="32" fill="white"/>
</clipPath>
</defs>
</svg>
