<svg width="19" height="16" viewBox="0 0 19 16" fill="none" xmlns="http://www.w3.org/2000/svg">
<path d="M18.8889 1.87662C18.1941 2.19476 17.4467 2.40994 16.663 2.50604C17.4632 2.01092 18.0774 1.2275 18.3672 0.292475C17.6184 0.751184 16.7887 1.08395 15.9063 1.26331C15.1994 0.485867 14.1922 0 13.077 0C10.9372 0 9.20168 1.79216 9.20168 4.00184C9.20168 4.3155 9.23607 4.62081 9.30254 4.91389C6.08185 4.74706 3.22618 3.15396 1.31469 0.732084C0.981177 1.323 0.789855 2.01092 0.789855 2.7442C0.789855 4.13226 1.47451 5.35767 2.51378 6.07513C1.87883 6.05454 1.28088 5.87458 0.758642 5.57404C0.758353 5.59105 0.758353 5.60807 0.758353 5.62478C0.758353 7.56377 2.09472 9.18104 3.8672 9.54843C3.54235 9.64035 3.1993 9.68899 2.84642 9.68899C2.59615 9.68899 2.35367 9.66422 2.11726 9.61767C2.61031 11.2072 4.04118 12.3642 5.73736 12.3968C4.41082 13.4703 2.74007 14.1098 0.923954 14.1098C0.611827 14.1098 0.30259 14.091 0 14.0537C1.7141 15.1896 3.75159 15.8519 5.93995 15.8519C13.068 15.8519 16.9661 9.75405 16.9661 4.46532C16.9661 4.29193 16.9624 4.11913 16.9549 3.94782C17.7126 3.38376 18.3695 2.67913 18.8889 1.87662Z" fill="#6281C8"/>
</svg>
