<svg width="32" height="32" viewBox="0 0 32 32" fill="none" xmlns="http://www.w3.org/2000/svg">
<g clip-path="url(#clip0_3003_6691)">
<circle cx="16" cy="16" r="16" fill="#40C351"/>
<path fill-rule="evenodd" clip-rule="evenodd" d="M16.0335 8C18.1645 8.00088 20.1648 8.82656 21.6688 10.3252C23.173 11.8237 24.0009 13.8156 24 15.9342C23.9983 20.3057 20.4242 23.8625 16.0336 23.8625H16.0302C14.697 23.8621 13.3869 23.5292 12.2232 22.8975L8 24L9.13021 19.8916C8.43303 18.6893 8.06623 17.3252 8.06682 15.9278C8.06859 11.5565 11.6423 8 16.0335 8ZM16.0307 22.5235H16.0335C19.6832 22.5235 22.6534 19.5673 22.655 15.9337C22.6556 14.1729 21.9675 12.5172 20.7174 11.2716C19.4673 10.026 17.8047 9.33965 16.0361 9.33906C12.3838 9.33906 9.41331 12.295 9.41193 15.9283C9.41134 17.1734 9.76136 18.3861 10.4242 19.4354L10.5817 19.6847L9.91277 22.1164L12.4189 21.4621L12.6606 21.605C13.6774 22.2053 14.8426 22.523 16.0307 22.5235Z" fill="white"/>
<path d="M19.6655 17.5881C19.4665 17.4889 18.4878 17.0098 18.3053 16.9436C18.123 16.8774 17.9901 16.8445 17.8575 17.0428C17.7248 17.241 17.3433 17.6873 17.2272 17.8194C17.111 17.9517 16.995 17.9683 16.7959 17.869C16.5968 17.7699 15.9555 17.5606 15.1951 16.8857C14.6034 16.3604 14.2039 15.7117 14.0877 15.5135C13.9717 15.315 14.0867 15.2182 14.1751 15.1092C14.3905 14.8429 14.6063 14.5637 14.6727 14.4315C14.7391 14.2993 14.7058 14.1836 14.656 14.0845C14.6063 13.9854 14.2082 13.0103 14.0424 12.6135C13.8807 12.2273 13.7167 12.2795 13.5944 12.2734C13.4785 12.2677 13.3457 12.2665 13.2129 12.2665C13.0803 12.2665 12.8646 12.316 12.6821 12.5145C12.4997 12.7128 11.9855 13.192 11.9855 14.1671C11.9855 15.1366 12.6905 16.0733 12.7965 16.214L12.7983 16.2164C12.8978 16.3486 14.2019 18.3496 16.1987 19.2076C16.6736 19.4119 17.0444 19.5337 17.3335 19.625C17.8104 19.7758 18.2442 19.7545 18.5873 19.7035C18.9698 19.6466 19.7649 19.2242 19.9309 18.7615C20.0968 18.2987 20.0968 17.9021 20.0469 17.8194C19.9973 17.7368 19.8645 17.6873 19.6655 17.5881Z" fill="white"/>
</g>
<defs>
<clipPath id="clip0_3003_6691">
<rect width="32" height="32" fill="white"/>
</clipPath>
</defs>
</svg>
