<svg width="16" height="19" viewBox="0 0 16 19" fill="none" xmlns="http://www.w3.org/2000/svg">
<path fill-rule="evenodd" clip-rule="evenodd" d="M4.7685 7.09377H3.66318L3.66149 3.27865L2.2725 0H3.46822L4.17236 2.43569L4.86653 0.00631361H6.07515L4.76947 3.27644L4.7685 7.09377ZM6.10661 2.65908C6.02767 2.92796 5.98767 3.30085 5.98767 3.77867H5.98787V5.09653C5.98787 5.53295 6.00884 5.86002 6.0532 6.078C6.09684 6.29572 6.16921 6.48253 6.27304 6.63594C6.37517 6.7891 6.51899 6.90457 6.7047 6.98105C6.88969 7.05824 7.11493 7.09502 7.38154 7.09502C7.62092 7.09502 7.83222 7.05121 8.01695 6.96132C8.20025 6.87267 8.35136 6.73364 8.46835 6.54755C8.58683 6.35977 8.6633 6.15936 8.69867 5.94307C8.7345 5.72724 8.753 5.38773 8.753 4.92599V3.66711C8.753 3.30255 8.73398 3.03145 8.69451 2.85219C8.65575 2.67515 8.5841 2.50202 8.47734 2.3337C8.37351 2.1659 8.22265 2.03025 8.02841 1.92552C7.83418 1.82151 7.6019 1.7682 7.33112 1.7682C7.00941 1.7682 6.74417 1.84976 6.53704 2.0132C6.32984 2.1754 6.18608 2.39091 6.10661 2.65908ZM9.53681 6.58966C9.59067 6.72166 9.67476 6.82808 9.78954 6.90892C9.9019 6.98781 10.0467 7.02803 10.2194 7.02803C10.3708 7.02803 10.5051 6.98709 10.6216 6.9026C10.7383 6.81857 10.8368 6.69341 10.9167 6.52587L10.8967 6.93795H12.0678V1.9608H11.1458V5.83443C11.1458 6.04389 10.9726 6.21559 10.7612 6.21559C10.5513 6.21559 10.3775 6.04389 10.3775 5.83443V1.9608H9.41552V5.31763C9.41552 5.74533 9.42308 6.03048 9.43597 6.17517C9.44978 6.31882 9.48268 6.45642 9.53681 6.58966ZM15.1111 15.7887V10.4447C15.1111 9.16294 13.9987 8.11351 12.6388 8.11351H2.47261C1.11215 8.11351 0 9.16268 0 10.4447V15.7887C0 17.0705 1.11209 18.1194 2.47261 18.1194H12.6385C13.9988 18.1194 15.1111 17.0707 15.1111 15.7887ZM9.04885 12.0159C8.79709 12.0159 8.5904 12.1856 8.5904 12.3931V15.2024C8.5904 15.4099 8.79709 15.5787 9.04885 15.5787C9.30257 15.5787 9.50925 15.4099 9.50925 15.2024V12.3928C9.50925 12.1856 9.30257 12.0159 9.04885 12.0159ZM12.7825 13.2538H11.7866L11.7915 12.6762C11.7915 12.4192 12.0024 12.2095 12.2604 12.2095H12.3243C12.5824 12.2095 12.7942 12.4193 12.7942 12.6762L12.7825 13.2538ZM3.15042 16.3688L3.14996 10.7397L4.41004 10.7402V9.90582L1.05072 9.90068V10.7205L2.09949 10.7237V16.3688H3.15042ZM5.87744 11.5785H6.92791V16.3673L6.08438 16.3661L6.08634 15.7455C5.85966 16.2319 4.95354 16.6233 4.48117 16.2826C4.2583 16.1235 4.23811 15.8589 4.21928 15.6119C4.21663 15.5772 4.214 15.5428 4.21085 15.5091C4.20179 15.408 4.20331 15.2278 4.20533 14.9879V14.9879V14.9879V14.9878V14.9877V14.9877L4.20533 14.9876C4.2064 14.86 4.20762 14.7155 4.20746 14.557L4.20355 11.5782H5.24842L5.2533 14.6048C5.25347 14.7619 5.25034 14.8941 5.24779 15.002V15.002C5.24362 15.1778 5.24098 15.2891 5.25669 15.3386C5.40611 15.7938 5.79023 15.5464 5.87601 15.3133C5.89258 15.2672 5.88969 15.1698 5.88479 15.0044V15.0044C5.88155 14.8955 5.87744 14.7571 5.87744 14.5843V11.5785ZM10.2894 15.0205L10.2875 12.5185C10.2865 11.5648 9.57288 10.9937 8.60331 11.7653L8.60767 9.90501L7.55793 9.90671L7.55278 16.3269L8.41585 16.3142L8.49434 15.914C9.59769 16.9263 10.2913 16.2332 10.2894 15.0205ZM12.7901 14.6932L13.5783 14.6891C13.9373 16.822 10.9231 17.1725 10.9225 14.6928V13.2011C10.9225 12.7534 10.9668 12.4015 11.0563 12.1436C11.1454 11.8854 11.2978 11.6935 11.4976 11.55C12.1342 11.0909 13.3938 11.2332 13.5227 12.1302C13.5637 12.4136 13.5766 12.9093 13.5766 13.4049V14.0834H11.7725V14.7069V15.1906V15.2393C11.7725 15.4743 11.9667 15.6657 12.2034 15.6657H12.3577C12.5939 15.6657 12.7881 15.4743 12.7881 15.2393V14.7999L12.7887 14.7683L12.7891 14.7513L12.7891 14.7512L12.7897 14.7226L12.79 14.7067L12.7901 14.6932ZM6.90454 5.75599C6.90454 6.0375 7.11487 6.26765 7.37053 6.26765C7.62619 6.26765 7.83508 6.03776 7.83508 5.75599V3.10622C7.83508 2.82471 7.62619 2.59456 7.37053 2.59456C7.11487 2.59456 6.90454 2.82445 6.90454 3.10622V5.75599Z" fill="#6281C8"/>
</svg>
