<svg width="40" height="40" viewBox="0 0 40 40" fill="none" xmlns="http://www.w3.org/2000/svg">
<g clip-path="url(#clip0_3279_8971)">
<path d="M21.409 20.0791C20.9444 19.9871 20.4718 19.9413 19.9982 19.9424C19.7002 19.9421 19.4026 19.9615 19.1071 20.0003C17.8963 20.1532 16.7449 20.6135 15.7622 21.3373C14.7796 22.0611 13.9986 23.0243 13.4934 24.1352C13.07 25.0608 12.8524 26.0672 12.8555 27.0851C12.858 30.8458 15.7757 33.9606 19.5281 34.2082C23.2807 34.4555 26.5825 31.7511 27.0785 28.0235C27.5748 24.2957 25.0958 20.8217 21.409 20.0791ZM22.8434 29.1501C22.8504 29.2149 22.8482 29.2803 22.8368 29.3444C22.8368 29.3681 22.8312 29.3908 22.8253 29.4158C22.803 29.5 22.7655 29.5794 22.7147 29.6502V29.6551L20.5719 32.5122C20.5054 32.6009 20.4191 32.6729 20.3199 32.7225C20.2208 32.7721 20.1114 32.7979 20.0005 32.7979C19.8896 32.7979 19.7803 32.7721 19.6811 32.7225C19.5819 32.6729 19.4956 32.6009 19.4291 32.5122L17.2863 29.6551V29.6502C17.2356 29.5794 17.1981 29.5 17.1757 29.4158C17.1698 29.3929 17.1676 29.3702 17.1641 29.3444C17.1527 29.2803 17.1505 29.2148 17.1579 29.1501C17.1579 29.1344 17.1533 29.1194 17.1579 29.1037C17.161 29.093 17.1652 29.0824 17.1698 29.0724C17.1698 29.0545 17.1698 29.0367 17.1771 29.0193L19.3199 21.8766C19.3639 21.7294 19.4543 21.6003 19.5776 21.5086C19.7009 21.4169 19.8505 21.3674 20.0042 21.3675C20.1578 21.3674 20.3074 21.4169 20.4307 21.5087C20.5539 21.6004 20.6443 21.7294 20.6884 21.8766L22.8312 29.0193C22.8361 29.0367 22.8347 29.0546 22.8382 29.0724C22.8431 29.0824 22.847 29.0929 22.8504 29.1037C22.8476 29.1229 22.842 29.1379 22.8434 29.1567V29.1501Z" fill="white"/>
<path d="M29.2973 23.4305C29.2561 23.3241 29.2161 23.216 29.1703 23.1103C29.0608 22.8589 28.9429 22.6106 28.8132 22.3719C28.8031 22.3539 28.7953 22.3347 28.786 22.3169C28.643 22.0511 28.4833 21.7948 28.3159 21.544C28.2632 21.4655 28.2039 21.3899 28.1488 21.3118C28.0337 21.1506 27.9176 20.9912 27.7917 20.8378C27.7202 20.7506 27.649 20.6669 27.5775 20.5824C27.4515 20.4356 27.3209 20.2928 27.1858 20.1542C27.1204 20.084 27.0533 20.0154 26.9846 19.9484C26.7969 19.7634 26.602 19.5859 26.4004 19.4163C26.3809 19.4006 26.3632 19.3827 26.3446 19.3671C26.1159 19.1797 25.879 19.0026 25.6345 18.8362C25.5738 18.7947 25.5118 18.7571 25.4504 18.7169C25.2659 18.5959 25.0772 18.4813 24.8847 18.3735C24.6113 18.2176 24.3297 18.0767 24.041 17.9514C23.9696 17.9197 23.9033 17.8855 23.8318 17.8562C23.5575 17.7416 23.2782 17.6391 22.9948 17.5493C22.9533 17.5364 22.9117 17.5262 22.8702 17.5141C22.6318 17.4426 22.3897 17.3805 22.1442 17.3271C22.0576 17.3076 21.9719 17.2898 21.8846 17.2727C21.6315 17.2241 21.3766 17.1851 21.1205 17.1555C21.071 17.1506 21.0218 17.1427 20.9727 17.1377C20.6492 17.1029 20.3242 17.0855 19.9989 17.0854L19.9277 17.099L19.8964 17.0928C19.8556 17.0928 19.8148 17.0928 19.774 17.097C19.5504 17.1018 19.3283 17.1113 19.1085 17.1304C18.7672 17.1606 18.4276 17.2081 18.0911 17.2728C18.0154 17.2871 17.94 17.3028 17.8648 17.3198C17.6458 17.3681 17.4284 17.4241 17.2133 17.4876C17.0505 17.535 16.8907 17.5891 16.7314 17.6442C16.5719 17.6993 16.4307 17.7491 16.2828 17.8085C16.1534 17.8597 16.0261 17.9162 15.8991 17.9727C15.7235 18.0517 15.5501 18.1355 15.3792 18.2242C15.2843 18.2733 15.1905 18.325 15.0977 18.3768C14.902 18.4878 14.7099 18.6033 14.5264 18.7264C14.4591 18.7707 14.3921 18.815 14.3262 18.8607C14.1256 18.9997 13.93 19.1459 13.74 19.2991C13.687 19.3419 13.6336 19.3841 13.5806 19.4285C13.3949 19.5852 13.2151 19.7486 13.0414 19.9184C12.9856 19.9732 12.9284 20.0262 12.8737 20.0827C12.7226 20.2355 12.5799 20.397 12.4391 20.5598C12.368 20.6471 12.2877 20.7318 12.2162 20.8218C12.1171 20.9448 12.0251 21.0746 11.9306 21.2026C11.827 21.3456 11.7213 21.4883 11.6251 21.6375C11.5253 21.792 11.4299 21.9492 11.3391 22.1091C11.2798 22.2119 11.2191 22.3141 11.1636 22.4184C11.0449 22.6425 10.9345 22.871 10.8327 23.1033C10.7902 23.2017 10.7521 23.3018 10.7127 23.4019C10.6456 23.5695 10.5835 23.7391 10.5265 23.9104C10.483 24.0375 10.4426 24.1657 10.4051 24.2947C9.17396 28.4914 10.8131 33.0017 14.4514 35.4284C18.0901 37.8554 22.8839 37.636 26.2857 34.8871C29.6872 32.138 30.9079 27.4974 29.2986 23.4305H29.2973ZM19.9989 35.6564C15.2676 35.6515 11.4329 31.8169 11.4277 27.0852C11.4241 25.8638 11.6851 24.6561 12.1928 23.5452C13.9545 19.6607 18.3043 17.6627 22.3991 18.8572C26.4939 20.0514 29.0873 24.075 28.4839 28.2975C27.8806 32.52 24.2643 35.6564 19.9989 35.6564Z" fill="white"/>
<path d="M18.8809 29.4038L19.9988 30.8944L21.1168 29.4038L19.9987 28.6581L18.8809 29.4038ZM9.41267 22.0553C9.27491 22.0462 9.13786 22.0382 9.00179 22.0225C8.85322 22.0054 8.7085 21.9797 8.5627 21.9556C8.42913 21.9325 8.29485 21.9113 8.16342 21.884C8.02039 21.8526 7.87771 21.8126 7.73995 21.7745C7.61058 21.7397 7.4812 21.7034 7.35424 21.6647C7.22693 21.6263 7.08327 21.5677 6.94899 21.5161C6.8147 21.4649 6.69997 21.4233 6.57935 21.3734C6.45828 21.3233 6.32195 21.2511 6.19427 21.1875C6.06624 21.1242 5.95642 21.0717 5.84133 21.0076C5.72625 20.9435 5.59857 20.8646 5.47929 20.7876C5.36001 20.7104 5.2543 20.6505 5.14555 20.5734C5.03707 20.4963 4.91921 20.4053 4.80627 20.3198C4.69351 20.2341 4.5969 20.1633 4.49717 20.0799C4.39717 19.9961 4.28646 19.8898 4.18227 19.7939C4.07799 19.6984 3.98942 19.6205 3.89629 19.5274C3.80344 19.4346 3.70344 19.3175 3.61059 19.2104C3.52487 19.1149 3.43622 19.0211 3.35497 18.9213C3.26363 18.809 3.1806 18.6911 3.0948 18.5739C3.01917 18.471 2.94069 18.3713 2.86918 18.2649C2.78793 18.1432 2.7157 18.0149 2.6407 17.889C2.57588 17.7805 2.50713 17.6748 2.44713 17.5632C2.37571 17.4314 2.31571 17.2933 2.25151 17.1569C2.19776 17.045 2.13991 16.9347 2.09214 16.82C2.03214 16.677 1.98366 16.5277 1.93063 16.3805C1.8909 16.2669 1.84411 16.1555 1.80858 16.0398C1.7601 15.8818 1.72349 15.7193 1.68447 15.5579C1.65724 15.4469 1.62376 15.3384 1.60073 15.2262C1.56305 15.0414 1.54001 14.8519 1.51421 14.6629C1.50126 14.5691 1.48207 14.4784 1.47269 14.3842C1.44305 14.0951 1.42803 13.8047 1.42769 13.5141C1.42769 8.78026 5.2651 4.94285 9.99891 4.94285C14.7327 4.94285 18.5701 8.78026 18.5701 13.5141C18.5677 13.8662 18.5439 14.2178 18.499 14.567C18.4854 14.6755 18.4645 14.7815 18.4466 14.8893C18.4083 15.1317 18.3592 15.3724 18.2995 15.6104C18.2845 15.6691 18.2796 15.7304 18.2633 15.7897C18.3902 15.7699 18.5168 15.7597 18.6431 15.7447C18.7382 15.7336 18.8317 15.72 18.929 15.7113C19.2051 15.6849 19.4821 15.6697 19.7594 15.6656C19.7639 15.6471 19.7688 15.6283 19.773 15.6098C19.8389 15.3063 19.8881 14.9991 19.9244 14.6898C19.9331 14.6186 19.9394 14.5471 19.9467 14.4756C19.9774 14.1572 19.9987 13.8377 19.9987 13.514C20.003 12.1723 19.7335 10.8439 19.2067 9.60997C17.2939 5.09767 12.3928 2.63684 7.63147 3.79752C2.8698 4.95821 -0.348602 9.39899 0.0302282 14.2851C0.408612 19.1713 4.27298 23.0631 9.15634 23.4768C9.24337 23.2169 9.3398 22.9603 9.44544 22.7074C9.47821 22.6297 9.51687 22.5539 9.54901 22.4769C9.60758 22.3447 9.66338 22.2111 9.72686 22.081C9.62053 22.0775 9.51767 22.0625 9.41259 22.0552L9.41267 22.0553ZM19.9987 27.0852C20.1398 27.0852 20.2778 27.127 20.3953 27.2052L20.8873 27.533L19.9987 24.5709L19.1104 27.533L19.6025 27.2052C19.7198 27.127 19.8577 27.0852 19.9987 27.0852ZM29.9984 2.80005C25.822 2.80041 22.0857 5.39624 20.6282 9.31007C20.6889 9.4614 20.7339 9.61872 20.7872 9.7722C20.841 9.92568 20.8961 10.0686 20.9411 10.2193C21.006 10.4334 21.0558 10.6479 21.1074 10.8669C21.1409 11.0099 21.1789 11.1484 21.2096 11.2921C21.2574 11.5348 21.2887 11.7821 21.3209 12.0294C21.3366 12.1508 21.3602 12.27 21.3718 12.3921C21.408 12.7628 21.4272 13.1363 21.4272 13.5141C21.4272 13.8458 21.4074 14.1764 21.3787 14.5049C21.3718 14.5928 21.3617 14.6806 21.3522 14.7686C21.3209 15.0478 21.2798 15.3258 21.2288 15.6021C21.2218 15.6419 21.2186 15.6827 21.211 15.7221C21.2752 15.729 21.3386 15.7447 21.4025 15.7528C21.6044 15.7769 21.8039 15.8093 22.0024 15.8442C20.6738 12.3395 21.7792 8.37786 24.7307 6.06729C27.6823 3.75708 31.7932 3.63494 34.8766 5.76596C37.96 7.89716 39.2985 11.7863 38.1804 15.3636C37.062 18.9412 33.747 21.3756 29.9985 21.371C29.9628 21.371 29.9273 21.3661 29.8914 21.3661C29.9287 21.4303 29.9628 21.4976 29.9971 21.5625C30.0315 21.6277 30.0685 21.6932 30.1014 21.7581C30.2308 22.0027 30.3513 22.252 30.4623 22.5055C30.4909 22.5711 30.5222 22.6353 30.5498 22.702C30.5613 22.7291 30.5749 22.7553 30.5857 22.7824C35.9856 22.4658 40.1548 17.913 39.9958 12.5062C39.8371 7.09959 35.4077 2.79898 29.9984 2.80005Z" fill="white"/>
<path d="M24.0823 16.4175C24.1831 16.457 24.285 16.4936 24.385 16.5347C24.4115 16.5462 24.4395 16.5563 24.4666 16.5679C24.6016 16.6254 24.7324 16.6906 24.8649 16.7527C24.958 16.797 25.0522 16.8378 25.1436 16.8842C25.2151 16.9211 25.2866 16.9605 25.3581 16.9994C25.4292 17.0377 25.4924 17.0743 25.56 17.1119L25.641 17.1569C25.712 17.1985 25.7877 17.2364 25.8593 17.279C26.0022 17.3655 26.1414 17.4583 26.2809 17.5507C26.3294 17.5828 26.3779 17.612 26.4235 17.6449C26.6884 17.825 26.946 18.0155 27.1957 18.2161L27.2578 18.2677L27.2644 18.2733C27.3101 18.3113 27.353 18.3528 27.398 18.3912C27.5389 18.5083 27.6763 18.6296 27.8099 18.7549C27.8723 18.8142 27.9322 18.8757 27.993 18.9363C28.0537 18.997 28.0965 19.0392 28.1479 19.0912C28.2277 19.1735 28.3086 19.2548 28.3864 19.3391C28.4641 19.4231 28.5405 19.5142 28.6173 19.6028C28.6578 19.6499 28.7006 19.6956 28.7407 19.7455C28.7679 19.7776 28.7972 19.8075 28.8234 19.8396L28.8342 19.8525C29.2192 19.9138 29.6086 19.9439 29.9984 19.9425C33.2175 19.9383 36.0348 17.7788 36.8753 14.6716C37.7158 11.5641 36.371 8.27877 33.5927 6.65283C30.8145 5.02697 27.2916 5.46286 24.9937 7.71727C22.6959 9.97132 22.1924 13.4855 23.7653 16.2941C23.8731 16.3321 23.9767 16.3771 24.0823 16.4175ZM30.7126 13.514H29.2841C28.1007 13.514 27.1413 12.555 27.1413 11.3712C27.1413 10.1879 28.1007 9.22839 29.2841 9.22839V8.51412H30.7126V9.22839C31.8963 9.22839 32.8554 10.1879 32.8554 11.3712H31.4269C31.4269 10.9768 31.1074 10.6569 30.7126 10.6569H29.2841C29.0947 10.6569 28.913 10.7322 28.779 10.8661C28.6451 11.0001 28.5698 11.1818 28.5698 11.3712C28.5698 11.5606 28.6451 11.7423 28.779 11.8763C28.913 12.0102 29.0947 12.0855 29.2841 12.0855H30.7126C31.8963 12.0855 32.8554 13.045 32.8554 14.2283C32.8554 15.4121 31.8963 16.3711 30.7126 16.3711V17.0853H29.2841V16.3711C28.1007 16.3711 27.1413 15.4121 27.1413 14.2283H28.5698C28.5698 14.4177 28.6451 14.5994 28.779 14.7333C28.913 14.8673 29.0947 14.9425 29.2841 14.9425H30.7126C31.1074 14.9425 31.4269 14.6228 31.4269 14.2283C31.4269 13.8339 31.1074 13.514 30.7126 13.514ZM11.4274 12.0856C11.4274 11.6911 11.1079 11.3713 10.7131 11.3713H8.57031V12.7998H10.7131C11.1079 12.7998 11.4274 12.48 11.4274 12.0856Z" fill="white"/>
<path d="M10.5842 20.619C10.9758 20.047 11.4193 19.5124 11.9092 19.022C11.9262 19.0046 11.9447 18.989 11.9619 18.9718C12.1971 18.738 12.4427 18.5147 12.6977 18.3026C12.7312 18.2746 12.7692 18.2475 12.8006 18.2199C13.0385 18.026 13.2844 17.842 13.5375 17.6685L13.6991 17.559C13.934 17.4044 14.1744 17.2584 14.4199 17.1213C14.4956 17.0784 14.5699 17.0355 14.6463 16.9946C14.8733 16.8747 15.1062 16.7641 15.3418 16.6591C15.4383 16.6163 15.5325 16.5692 15.6277 16.5284C15.8561 16.4349 16.0905 16.3525 16.3262 16.2727C16.4239 16.2389 16.5191 16.2013 16.6182 16.1671C16.6496 16.0897 16.682 16.0126 16.7102 15.9348C16.7448 15.8399 16.7817 15.7447 16.8097 15.6491C16.854 15.5061 16.8906 15.367 16.9254 15.2247C16.9474 15.1347 16.9725 15.0461 16.991 14.9561C17.0232 14.7971 17.0461 14.635 17.0681 14.4735C17.0782 14.3964 17.0932 14.3208 17.1012 14.2426C17.1246 14.002 17.1389 13.7599 17.1389 13.514C17.1389 9.56912 13.9404 6.37098 9.99548 6.37134C6.05031 6.37205 2.85244 9.5709 2.85352 13.5161C2.85459 17.4612 6.05415 20.6584 9.99896 20.6567C10.1964 20.6567 10.39 20.6355 10.5842 20.619ZM9.2847 17.7996H7.85616V17.0854C7.66673 17.0854 7.48505 17.0101 7.3511 16.8762C7.21715 16.7422 7.14189 16.5605 7.14189 16.3711V10.6569C7.14189 10.4675 7.21715 10.2858 7.3511 10.1519C7.48505 10.0179 7.66673 9.94268 7.85616 9.94268V9.22841H9.2847V9.94268H9.99896V9.22841H11.4275V10.0742C11.7601 10.1892 12.059 10.3852 12.2971 10.6444C12.5352 10.9036 12.7051 11.218 12.7916 11.5592C12.8779 11.9003 12.8781 12.2575 12.7922 12.5988C12.7062 12.94 12.5368 13.2545 12.2991 13.514C12.5367 13.7736 12.7061 14.0882 12.7921 14.4294C12.8781 14.7707 12.8779 15.128 12.7916 15.4691C12.7051 15.8103 12.5351 16.1247 12.297 16.3839C12.0589 16.6431 11.7601 16.8391 11.4275 16.9542V17.7996H9.99896V17.0854H9.2847V17.7996Z" fill="white"/>
<path d="M11.4274 14.9425C11.4274 14.5481 11.1079 14.2283 10.7131 14.2283H8.57031V15.6568H10.7131C11.1079 15.6568 11.4274 15.337 11.4274 14.9425Z" fill="white"/>
</g>
<defs>
<clipPath id="clip0_3279_8971">
<rect width="40" height="40" fill="white"/>
</clipPath>
</defs>
</svg>
