<svg width="40" height="40" viewBox="0 0 40 40" fill="none" xmlns="http://www.w3.org/2000/svg">
<g clip-path="url(#clip0_3279_8965)">
<path d="M23.7683 28.7294L29.0322 27.1051V21.1644L23.7683 22.7887V28.7294ZM11.8193 26.3908C10.9301 26.4536 10.0469 26.2036 9.32267 25.6839C0.0281127 18.9686 1.12601 19.5853 0.546982 19.7658C0.413268 19.8076 0.293901 19.8859 0.202338 19.992C0.110775 20.098 0.050659 20.2276 0.0287677 20.3659C0.00687639 20.5043 0.0240806 20.6461 0.0784404 20.7752C0.1328 20.9043 0.222154 21.0157 0.336426 21.0968C1.96072 22.2999 0.246188 21.0366 10.2326 28.2106C10.5177 28.4167 10.847 28.5533 11.1944 28.6094C11.5417 28.6656 11.8973 28.6397 12.2329 28.5339L22.2644 25.4357V23.255C11.9997 26.4359 12.4885 26.3156 11.8193 26.3908Z" fill="white"/>
<path d="M11.8192 30.1508C9.99189 30.2936 9.68358 29.7071 0.953012 23.3829L0.54694 23.5107C0.413924 23.552 0.294979 23.6294 0.203364 23.7343C0.111749 23.8392 0.0510626 23.9674 0.028069 24.1048C-0.0772092 24.759 -0.400564 24.3078 10.2024 31.9706C10.4876 32.1767 10.8169 32.3133 11.1642 32.3695C11.5116 32.4256 11.8672 32.3997 12.2027 32.2939L22.2643 29.1957V27.0075C11.7365 30.2861 12.4133 30.1056 11.8192 30.1508ZM39.4698 16.3518C39.6035 16.31 39.7228 16.2316 39.8144 16.1256C39.906 16.0195 39.9661 15.89 39.988 15.7516C40.0099 15.6132 39.9927 15.4715 39.9383 15.3424C39.8839 15.2132 39.7946 15.1019 39.6803 15.0208C29.0773 7.35805 29.4984 7.50093 28.4832 7.50093C28.0095 7.50093 28.6261 7.35805 18.0983 10.6142L19.6023 11.7121L26.8214 9.45609C27.5733 9.23802 27.9644 10.3585 29.4608 9.89225C29.9571 9.74185 29.8218 9.78697 35.1233 13.6146C35.2374 13.6962 35.3265 13.8081 35.3803 13.9377C35.4342 14.0673 35.4507 14.2094 35.428 14.3479C35.4053 14.4864 35.3443 14.6157 35.2519 14.7214C35.1595 14.827 35.0394 14.9047 34.9052 14.9456C35.0174 15.0272 35.1048 15.1382 35.1578 15.2664C35.2108 15.3946 35.2273 15.5349 35.2055 15.6719C35.1837 15.8088 35.1245 15.9371 35.0343 16.0425C34.9441 16.1479 34.8266 16.2263 34.6946 16.2691L28.5735 18.1641L30.0775 19.262L39.4698 16.3518ZM39.6803 18.7807L38.808 18.134L30.5362 20.6908V22.8715C45.4105 18.2543 32.0401 22.3903 39.4698 20.1042C39.6017 20.0615 39.7193 19.9831 39.8094 19.8777C39.8996 19.7723 39.9588 19.644 39.9806 19.507C40.0024 19.37 39.9859 19.2297 39.9329 19.1015C39.8799 18.9733 39.7925 18.8623 39.6803 18.7807ZM38.808 21.894L30.5362 24.4507V26.6315C40.1014 23.6987 39.8683 23.9243 39.9886 23.2776C40.109 22.6309 39.2442 22.3451 38.808 21.894ZM28.3178 19.811C28.2351 19.7282 16.3687 11.1932 16.286 11.1255L11.1575 12.7122C11.2327 12.7874 11.8042 13.1859 23.1893 21.3901L28.3178 19.811ZM0.336384 17.3369C1.96067 18.5401 0.246145 17.2768 10.2325 24.4507C10.5176 24.6568 10.847 24.7934 11.1943 24.8496C11.5416 24.9057 11.8973 24.8799 12.2328 24.7741L21.4221 21.9316L19.9181 20.8337C12.8269 23.0295 13.0149 23.0896 12.5712 22.7888C12.2911 22.5813 11.9655 22.4437 11.6215 22.3874C11.2775 22.3312 10.9251 22.3579 10.5935 22.4655C10.482 22.4992 10.3642 22.5066 10.2493 22.487C10.1345 22.4674 10.0258 22.4214 9.93173 22.3527C4.73551 18.5927 4.51743 18.6529 4.62271 18.0137C4.64502 17.8741 4.70624 17.7436 4.79935 17.6372C4.89245 17.5308 5.01367 17.4528 5.1491 17.4121C5.03106 17.3295 4.93926 17.2147 4.8846 17.0814C4.82994 16.948 4.81473 16.8018 4.84078 16.6601C4.93854 16.0435 4.91598 16.1939 10.9544 14.3214L9.45046 13.2311L0.55446 16.0059C0.420225 16.0468 0.30012 16.1245 0.207729 16.2301C0.115338 16.3358 0.0543481 16.4651 0.0316579 16.6036C0.00896783 16.7421 0.025483 16.8842 0.0793348 17.0138C0.133187 17.1434 0.222227 17.2553 0.336384 17.3369Z" fill="white"/>
<path d="M6.47266 18.0512C11.3681 21.5855 10.0972 20.8711 11.2027 20.8711C11.8627 20.8712 12.511 21.0449 13.0826 21.375L18.3465 19.7432L12.4359 15.4719L6.60049 17.2842C6.62379 17.5466 6.57979 17.8105 6.47266 18.0512ZM27.062 17.0511L33.4239 15.0733C33.4031 14.8159 33.4471 14.5574 33.5517 14.3213L29.5436 11.4262C28.653 11.6021 27.7288 11.4499 26.9417 10.9976L21.1514 12.7873L27.062 17.0511Z" fill="white"/>
</g>
<defs>
<clipPath id="clip0_3279_8965">
<rect width="40" height="40" fill="white"/>
</clipPath>
</defs>
</svg>
