<svg width="540" height="500" viewBox="0 0 540 500" fill="none" xmlns="http://www.w3.org/2000/svg">
<g clip-path="url(#clip0_474_13791)">
<path d="M240 85C107.452 85 0 192.452 0 325C0 383.054 20.6125 436.294 54.9181 477.8C59.8373 483.752 65.0381 489.462 70.5 494.911L436.381 463C463.863 423.964 480 376.367 480 325C480 192.452 372.548 85 240 85Z" fill="#4263a3"/>
<path d="M166 94.5L188.5 67.5L196 58L221.5 44L254 36.5L270.5 47L275.5 65L280 79L283.5 93.5L288 113.5V132.5L283.5 144L277 149.5L269.5 153.5V158L274 184.5L279 186.5L286 189.5L300.5 192.5L309 194.5L319.5 197L334.5 204L352 221L371 249L390 283L419.5 335L428.5 350L433.5 352.5L437 351.5L441 345L449 326L455.5 310L463 286C465.167 280.167 469.6 268.3 470 267.5C470.5 266.5 479.5 232.5 479.5 230.5C479.5 228.9 481.833 219.5 483 215V195L484.5 185L487.5 176L490 170L494 165.5L498 162L503.5 160.5L505.5 162.5L505 164L501.5 169L496 176L494 179.5L497.5 178.5L504 173.5L511.5 170L519 168L533 165.5L536.5 166L538.5 168L536.5 171L521.5 176L523 178.5L524.5 183L520 188L523 191L513.5 197.5L519 201.5L513.5 208.5L514.5 212.5L511.5 217L510 223.5V241.5L507.5 269.5L503.5 293.5L493.5 329L481 365.5L466 395.5L452 411.5L441.5 418.5L428.5 421L420.5 418.5L411 413L397.5 399.5L385 378.5L372.5 358.5L364.5 343L356 328L349.5 317.5L352 348V377L356 441V452L362.5 455.5L377.5 465L387 468H380L381.5 473L380 474L375.5 473L369.5 470L375.5 479L374 482.5L366.5 479L368 485.5L356 482.5L355.5 487.5L342.5 485.5L331.5 483.5H322.5L312 485.5L304.5 487.5L285 489H267L244 491L223 493L203.5 496L183.5 497H160.5H134.5L114 494.5L96 489L88.5 483.5C87 480.333 83.9 473.9 83.5 473.5C83.1 473.1 81.6667 469.333 81 467.5L79 453L77 428L75.5 404.5L72.5 362.5C72 352.667 71 332.6 71 331V314.5V301L77 275.5L81.5 261.5L91 246L105.5 233L129 220L171 203.5L188.5 194L186 170.5L181.5 157.5L166 94.5Z" fill="white"/>
<path d="M252.386 110.458C250.302 110.585 247.445 108.77 249.977 106.958C260.074 105.689 266.844 100.867 252.765 97.3219C247.947 95.8395 247.655 89.9716 246.942 85.7838C246.95 85.8167 246.959 85.8455 246.967 85.8785C246.946 85.7961 246.926 85.7138 246.905 85.6314C246.905 85.6355 246.909 85.6438 246.909 85.6479C246.815 84.3878 245.217 82.0859 246.93 81.4394C247.115 76.4157 250.624 89.461 251.089 90.3052C251.579 92.1458 252.143 93.9577 254.342 94.1141C254.325 94.11 254.309 94.1059 254.293 94.1018C267.799 97.2107 264.628 109.338 252.386 110.458Z" fill="#231F20"/>
<path d="M221.519 119.085C221.305 119.011 221.21 118.788 221.226 118.578C222.832 115.21 225.204 112.171 227.955 109.643C229.561 109.19 228.321 110.94 227.667 111.347L227.671 111.343C226.835 112.171 226.019 113.019 225.291 113.942C225.307 113.921 225.324 113.9 225.34 113.88C225.332 113.892 225.319 113.904 225.311 113.917C225.311 113.917 225.311 113.917 225.315 113.913C225.175 114.09 225.039 114.271 224.899 114.448C224.904 114.444 224.904 114.44 224.908 114.436C224.891 114.456 224.875 114.477 224.858 114.497C224.862 114.493 224.866 114.485 224.871 114.481C224.051 115.572 223.302 116.717 222.61 117.895C222.622 117.874 222.635 117.849 222.647 117.829C222.589 117.928 222.536 118.022 222.478 118.121C222.478 118.121 222.478 118.121 222.478 118.117C222.206 118.467 222.095 119.241 221.519 119.085Z" fill="#231F20"/>
<path d="M229.009 116.853C227.185 116.219 234.823 107.896 235.766 106.636C239.168 105.636 233.819 110.734 233.382 111.549C233.39 111.541 233.395 111.533 233.403 111.524C233.382 111.549 233.362 111.578 233.341 111.603C233.345 111.598 233.349 111.594 233.353 111.59C231.883 112.924 230.751 116.4 229.009 116.853Z" fill="#231F20"/>
<path d="M214.955 121.444C213.085 121.189 219.736 110.108 220.868 111.895C221.078 113.554 218.298 115.111 217.644 116.779C216.861 118.109 215.795 119.443 215.445 120.946C215.424 121.189 215.222 121.452 214.955 121.444Z" fill="#231F20"/>
<path d="M266.395 105.364C266.741 103.997 271.13 95.4236 272.53 96.4777C273.024 98.0219 269.17 101.267 268.536 103.182C268.54 103.177 268.54 103.173 268.544 103.169C267.935 103.705 267.243 107.225 266.395 105.364Z" fill="#231F20"/>
<path d="M272.04 105.039C269.981 104.363 273.58 101.518 273.939 100.328C274.919 99.422 275.528 96.6219 277.089 97.079C277.484 97.3878 277.431 97.989 277.13 98.3432C275.088 100.241 274.153 103.441 272.04 105.039Z" fill="#231F20"/>
<path d="M210.125 104.475C207.843 101.782 210.018 98.1949 211.574 95.6913C214.943 90.8322 221.21 89.8645 226.682 90.8322C230.981 91.1493 236.042 95.5636 234.041 100.122C231.443 102.127 227.457 102.197 224.286 103.021C220.333 103.787 216.466 104.8 212.422 103.927C212.122 104.882 210.825 105.195 210.125 104.475ZM211.965 102.313C218.768 102.012 225.179 99.6197 231.842 98.3967C229.211 89.9675 210.845 92.9323 211.784 102.222C211.85 102.247 211.908 102.276 211.965 102.313Z" fill="#231F20"/>
<path d="M211.327 104.915C209.869 104.903 209.766 102.881 211.187 102.675C216.96 102.251 223.075 100.509 228.667 98.6725C234.478 100.904 218.525 104.351 216.837 104.425C216.837 104.425 216.837 104.425 216.841 104.425C215.041 104.919 213.192 105.253 211.327 104.915Z" fill="#231F20"/>
<path d="M208.049 95.8807C207.786 95.5883 208.008 95.226 208.247 95.0077C208.243 95.0159 208.234 95.0201 208.23 95.0283C212.245 87.9662 222.19 84.7914 229.4 88.7363C230.158 89.008 230.314 90.091 229.499 90.3875C228.251 90.1446 227.115 89.0945 225.756 88.9051C225.789 88.9133 225.818 88.9215 225.851 88.9298C223.528 88.308 221.057 88.4439 218.714 88.9051C218.743 88.8968 218.772 88.8927 218.801 88.8845C214.72 89.6875 211.323 92.1088 208.976 95.5019C208.77 95.7736 208.391 96.2307 208.049 95.8807Z" fill="#231F20"/>
<path d="M259.736 91.8081C256.425 90.964 257.582 86.6485 258.212 84.2437C259.291 80.3976 263.207 77.7581 266.88 76.6957C271.925 75.5056 280.465 78.9646 277.908 85.2525C275.857 87.8056 271.847 87.6903 269.059 89.2057C266.007 90.1116 262.94 91.8905 259.736 91.8081ZM260.798 89.0574C261.128 89.0945 261.379 89.2921 261.544 89.5598C265.97 87.3979 270.418 85.2979 275.166 83.9596C275.137 83.9719 275.108 83.9842 275.079 83.9925C275.141 83.9678 275.198 83.9431 275.26 83.9184C275.248 83.9225 275.24 83.9266 275.227 83.9307C275.359 83.8772 275.491 83.8237 275.623 83.766C275.001 79.4052 268.12 78.8823 264.949 80.7394C262.326 81.9953 260.358 84.0995 260.168 87.1097C260.152 87.7809 259.752 89.1233 260.798 89.0574Z" fill="#231F20"/>
<path d="M266.806 86.2244C263.623 84.8779 264.257 79.743 267.511 78.94C269.475 76.5764 273.103 78.0753 273.51 80.9207C274.19 84.5155 270.187 87.9498 266.806 86.2244Z" fill="#231F20"/>
<path d="M222.165 99.5332C218.681 97.0295 221.399 90.7375 225.62 92.0099C231.858 94.0441 227.704 103.05 222.165 99.5332Z" fill="#231F20"/>
<path d="M196.243 93.9783C194.992 94.143 193.497 93.6777 193.155 92.327C192.673 88.1351 197.775 85.9815 200.666 83.9431C206.859 80.2824 213.781 78.0546 220.802 76.6381C233.423 74.4145 246.32 80.4018 225.233 83.5519C225.291 83.5396 225.352 83.5231 225.41 83.5108C215.77 85.8579 206.917 90.7787 197.495 93.793C197.314 94.3159 196.54 94.5095 196.243 93.9783Z" fill="#231F20"/>
<path d="M233.847 81.0937C232.604 80.8837 232.192 79.3024 232.769 78.2977C227.465 77.2559 221.572 78.3018 216.417 79.7554C217.837 82.3373 209.54 79.7183 220.539 76.8276C220.51 76.8358 220.485 76.8399 220.46 76.8441C225.398 75.8064 232.056 72.5698 236.396 76.3911C237.607 78.24 236.092 81.2048 233.847 81.0937Z" fill="#231F20"/>
<path d="M202.375 153.864C202.346 153.695 202.325 153.526 202.309 153.362C202.313 153.399 202.317 153.436 202.321 153.473C202.21 152.48 202.144 151.48 202.041 150.487C202.041 150.524 202.045 150.557 202.05 150.594C201.975 149.429 201.568 148.28 201.559 147.119C201.555 147.131 201.551 147.148 201.547 147.16C201.555 147.045 201.597 146.938 201.642 146.831C201.642 146.839 201.638 146.843 201.638 146.851C203.19 145.146 203.046 148.766 203.347 149.668C203.285 151.113 204.59 153.448 203.248 154.432C202.848 154.556 202.445 154.276 202.375 153.864Z" fill="#231F20"/>
<path d="M205.685 155.178C205.64 153.213 204.022 148.713 205.615 147.465C206.344 147.382 206.357 148.21 206.303 148.725C206.303 148.717 206.303 148.708 206.303 148.704C206.291 149.713 206.344 150.714 206.447 151.719V151.714C206.558 152.509 207.485 157.175 205.685 155.178Z" fill="#231F20"/>
<path d="M252.757 158.365C251.505 158.006 248.626 156.244 250.628 155.033C251.727 155.029 252.242 156.553 253.432 156.779C254.235 157.216 253.63 158.665 252.757 158.365Z" fill="#231F20"/>
<path d="M255.124 156.199C254.651 155.375 253.502 154.939 253.288 154.074C253.839 152.336 255.375 154.576 256.038 155.157C256.586 155.713 255.738 156.808 255.124 156.199Z" fill="#231F20"/>
<path d="M480.721 224.372C483.548 219.842 491.224 225.985 495.143 226.467C499.503 227.447 503.582 229.275 507.8 230.653C509.048 230.743 510.452 231.733 509.776 233.11C510.646 238.079 495.045 230.323 492.424 230.056C489.873 228.206 479.752 228.047 480.721 224.372Z" fill="#231F20"/>
<path d="M135.592 444.171C135.398 442.627 137.297 442.705 138.342 442.466C138.334 442.466 138.33 442.47 138.322 442.47C138.359 442.462 138.396 442.458 138.433 442.45C138.429 442.45 138.425 442.45 138.421 442.45C138.45 442.446 138.478 442.437 138.507 442.433C138.507 442.433 138.507 442.433 138.503 442.433C138.54 442.425 138.577 442.421 138.614 442.413C138.606 442.413 138.598 442.417 138.59 442.417C138.643 442.408 138.697 442.396 138.75 442.388C140.088 442.425 142.3 440.852 143.206 442.153C143.111 442.668 142.987 443.582 142.419 443.755C141.917 443.792 141.88 443.211 142.044 442.866C140.405 443.113 136.535 446.189 135.592 444.171Z" fill="#231F20"/>
<path d="M138.705 431.418C136.551 430.936 125.8 429.133 127.488 426.024C127.871 425.287 128.736 424.85 129.518 425.221C132.697 426.662 135.781 428.581 139.323 428.935C140.83 429.248 140.109 431.682 138.705 431.418Z" fill="#231F20"/>
<path d="M351.436 301.694C349.398 300.73 352.659 298.396 353.347 297.329C354.57 296.444 355.834 293.405 357.551 294.385C358.754 296.427 353.293 299.009 352.354 300.978C352.359 300.969 352.367 300.961 352.371 300.957C352.173 301.319 351.901 301.719 351.436 301.694Z" fill="#231F20"/>
<path d="M361.685 313.113C361.566 311.622 364.79 306.928 366.384 308.155C367.492 309.827 364.77 310.918 364.057 312.199C363.563 312.726 363.654 313.693 362.801 313.866C362.303 313.994 361.751 313.656 361.685 313.113Z" fill="#231F20"/>
<path d="M424.433 377.68C423.412 375.144 426.45 372.652 427.62 370.561C427.616 370.569 427.612 370.573 427.604 370.581C427.686 370.474 427.768 370.367 427.851 370.26C427.846 370.264 427.842 370.268 427.838 370.276C427.859 370.248 427.879 370.223 427.9 370.198C427.896 370.202 427.892 370.206 427.888 370.215C427.904 370.194 427.921 370.169 427.937 370.149C427.933 370.153 427.933 370.157 427.929 370.161C427.958 370.124 427.986 370.087 428.015 370.05C428.011 370.058 428.007 370.062 428.003 370.071C430.951 365.492 433.154 369.058 430.688 369.638C430.671 369.655 430.655 369.671 430.638 369.688C430.655 369.671 430.667 369.655 430.684 369.642C430.655 369.671 430.626 369.704 430.597 369.733C430.605 369.725 430.61 369.721 430.618 369.712C428.917 371.808 427.299 374.197 426.422 376.741C426.401 377.66 425.149 378.434 424.433 377.68Z" fill="#231F20"/>
<path d="M435.287 379.439C432.623 378.104 436.44 374.09 437.14 372.257C437.132 372.269 437.124 372.282 437.12 372.294C438.244 371.014 439.323 367.563 441.407 368.345C442.016 368.806 441.95 369.758 441.477 370.289C438.8 372.175 437.33 379.805 435.287 379.439Z" fill="#231F20"/>
<path d="M55.2077 496.838C53.4041 496.809 52.2429 494.775 53.577 493.379C55.6812 491.621 58.8684 492.37 61.4256 491.93C67.5159 491.123 73.602 492.078 79.6841 491.617C87.195 490.9 94.7471 491.015 102.237 490.035C105.453 489.261 105.832 492.934 102.752 493.404C102.835 493.379 102.917 493.354 102.995 493.334C87.3762 497.155 71.0943 495.483 55.2077 496.838Z" fill="#231F20"/>
<path d="M382.015 469.516C381.822 469.442 381.657 469.356 381.521 469.179C378.886 470.109 377.527 466.387 380.035 465.254C384.782 464.167 389.843 464.188 394.686 463.344C413.97 461.96 433.369 462.829 452.665 461.573C452.652 461.573 452.64 461.573 452.628 461.573C452.69 461.569 452.755 461.569 452.817 461.565C452.788 461.565 452.764 461.565 452.735 461.569C452.788 461.569 452.842 461.565 452.895 461.565C452.875 461.565 452.854 461.565 452.834 461.569C462.243 461.499 471.594 460.391 481 460.206C483.586 460.725 490.631 458.406 490.788 462.191C489.75 466.045 481.436 464.34 478.162 465.172C456.087 467.956 433.801 467.091 411.655 469.067C411.762 469.063 411.865 469.059 411.968 469.055C402.847 469.224 393.722 469.52 384.597 469.475C384.095 470.673 382.814 469.94 382.015 469.516Z" fill="#231F20"/>
<path d="M157.82 104.388C155.234 101.769 151.812 98.1496 152.504 94.2006V94.2047C152.656 93.554 153.698 93.657 153.513 94.3735C153.356 94.7606 153.418 95.1847 153.504 95.58C153.5 95.5553 153.496 95.5265 153.488 95.5018C154.386 98.5819 156.889 100.863 159.166 102.984C159.92 103.775 158.648 105.183 157.82 104.388Z" fill="white"/>
<path d="M165.99 74.3156C162.284 73.3767 166.554 67.5088 168.386 66.257C169.828 65.7299 172.331 62.8968 173.637 64.3875C173.896 64.9352 173.616 65.6352 173.109 65.9358C170.902 67.3029 168.259 68.25 166.986 70.6796C167.015 70.6384 167.04 70.5972 167.069 70.5519C166.698 71.1943 166.323 71.8778 166.282 72.6314C167.307 72.7673 166.92 74.3691 165.99 74.3156Z" fill="white"/>
<path d="M195.914 55.4889C194.366 55.2418 190.24 54.6324 190.108 52.8576C190.108 52.8617 190.108 52.87 190.104 52.8741C190.878 50.9634 193.114 53.2735 194.506 53.257C195.399 53.5494 197.335 53.2076 197.059 54.6612C196.931 55.1677 196.437 55.5466 195.914 55.4889Z" fill="white"/>
<path d="M204.578 42.2583C202.449 40.0923 209.911 33.6808 212.348 33.7302C214.63 33.6479 213.369 36.1721 211.731 36.2215C211.78 36.2051 211.829 36.1845 211.879 36.1639C209.33 36.9174 207.502 39.0628 206.04 41.1835C206.085 41.9247 205.27 42.5671 204.578 42.2583Z" fill="white"/>
<path d="M240.041 29.2007C238.179 27.7348 245.904 24.9635 247.099 24.5599C248.161 24.4487 250.578 25.1405 249.952 26.5488C249.738 26.9359 249.182 27.2571 248.754 27.0059C245.991 25.3094 242.503 28.0642 240.041 29.2007Z" fill="white"/>
<path d="M260.095 35.0438C258.748 34.8832 256.714 34.5579 256.117 33.232C256.199 32.9643 256.475 33.022 256.57 33.2361C256.607 33.2649 256.648 33.2937 256.689 33.3184L256.685 33.3143C257.126 33.5737 257.611 33.7385 258.101 33.862C258.093 33.862 258.085 33.8579 258.081 33.8579C258.097 33.862 258.11 33.8661 258.126 33.8661C258.406 33.9279 258.69 33.9608 258.979 33.9855C258.974 33.9855 258.97 33.9855 258.97 33.9855C258.991 33.9855 259.007 33.9896 259.028 33.9896C259.02 33.9896 259.012 33.9896 258.999 33.9855C260.729 34.2491 262.458 33.0631 264.093 33.3267C265.234 35.3362 261.248 34.9985 260.095 35.0438Z" fill="white"/>
<path d="M271.221 23.0692C270.937 21.7515 272.662 21.6773 273.486 21.2038C274.902 20.7385 276.084 19.5278 277.529 19.2808C278.547 19.4496 278.382 20.895 277.55 21.2203C275.956 21.5579 272.357 24.5392 271.221 23.0692Z" fill="white"/>
<path d="M227.049 45.2479C223.993 42.9995 226.938 40.1294 227.584 42.6042C227.86 42.9995 228.243 43.3125 228.589 43.646C229.458 44.5355 227.975 46.1579 227.049 45.2479Z" fill="white"/>
<path d="M259.099 138.496C255.952 138.967 253.9 136.467 251.849 134.528C249.127 134.095 250.933 129.756 253.377 132.424C256.453 136.439 263.8 136.401 265.727 131.379C267.318 125.171 271.211 137.077 259.099 138.496Z" fill="#231F20"/>
<path fill-rule="evenodd" clip-rule="evenodd" d="M159.285 433.152C159.74 434.199 160.286 435.204 160.954 436.154C160.93 436.13 160.903 436.107 160.879 436.088C160.929 436.133 160.974 436.178 161.024 436.223C160.995 436.195 160.966 436.166 160.933 436.137L160.954 436.154L160.956 436.156C160.288 435.206 159.741 434.199 159.285 433.152ZM156.676 421.701C156.707 421.91 156.738 422.12 156.769 422.33C156.733 422.087 156.697 421.843 156.661 421.601C156.659 421.591 156.658 421.581 156.656 421.571C156.656 421.568 156.655 421.564 156.655 421.56C156.648 421.517 156.642 421.474 156.635 421.431L156.655 421.56L156.656 421.571L156.661 421.601L156.676 421.701ZM104.818 236.439C107.254 234.697 109.87 233.118 112.682 231.725C112.68 231.726 112.679 231.728 112.676 231.728C109.867 233.12 107.252 234.698 104.818 236.439ZM112.866 231.617L112.828 231.637C112.841 231.631 112.853 231.625 112.866 231.617ZM252.336 358.825L252.342 358.865L252.344 358.882L252.345 358.891L252.348 358.917L252.354 358.968C252.347 358.918 252.34 358.872 252.336 358.825ZM116.675 492.273L116.677 492.273C116.683 492.274 116.689 492.275 116.695 492.275C116.683 492.275 116.67 492.275 116.662 492.271C116.666 492.272 116.671 492.272 116.675 492.273ZM319.888 451.594L319.939 451.258C319.929 451.319 319.919 451.381 319.91 451.442C319.903 451.493 319.895 451.544 319.888 451.594Z" fill="#231F20"/>
<path fill-rule="evenodd" clip-rule="evenodd" d="M167.913 499.996C151.771 500.066 135.678 499.152 119.771 496.344C111.733 495.808 103.963 493.869 96.633 490.521C82.373 485.049 79.1034 468.203 77.2257 454.7C77.2257 454.725 77.2298 454.75 77.2298 454.77C77.2125 454.618 77.1962 454.466 77.1799 454.314L77.1797 454.311C77.1652 454.176 77.1506 454.038 77.1351 453.901L77.1722 454.21C74.5899 429.648 72.8283 405.026 71.0662 380.397C70.7545 376.041 70.4428 371.684 70.1266 367.328C70.0152 365.507 69.9004 363.674 69.7849 361.83L69.7847 361.827C67.2109 320.732 64.311 274.429 91.7122 240.832C103.417 228.234 119.806 221.476 135.459 215.02L135.469 215.016C136.118 214.749 136.766 214.482 137.412 214.215C144.384 211.309 151.43 208.59 158.476 205.872C168.503 202.003 178.528 198.135 188.337 193.729C187.371 189.255 186.845 184.704 186.318 180.153C185.974 177.177 185.63 174.2 185.162 171.245C185.166 171.274 185.166 171.303 185.17 171.332C184.796 168.087 184.4 164.813 183.61 161.642C183.565 161.618 183.523 161.589 183.482 161.556C172.887 165.385 167.147 152.558 165.92 144.047C150.453 145.727 144.26 127.963 153.039 117.055C151.763 115.499 150.378 113.993 148.987 112.481C144.87 108.002 140.704 103.472 139.162 97.466C136.494 88.8844 141.344 79.8499 151.034 80.5911C149.016 69.0694 155.963 56.6789 167.867 54.4923C169.362 35.4679 185.158 18.6631 205.134 24.6627C211.035 13.2728 227.218 0.21518 238.435 12.6799C242.721 -2.8979 272.366 -5.85862 271.69 13.6723C283.661 6.3384 300.301 14.6935 291.588 29.2747C299.189 30.7901 298.749 41.3564 294.853 46.3431C290.402 53.4175 282.1 56.8724 273.93 56.6706C274.512 57.9181 274.968 59.2086 275.425 60.5016L275.427 60.5053C275.617 61.0422 275.807 61.5796 276.006 62.1144C276.006 62.1103 276.006 62.1103 276.002 62.1062C278.398 68.0856 280.037 74.3186 281.674 80.5477C282.424 83.4042 283.175 86.2602 283.998 89.0903C284.611 91.1092 285.097 92.5128 285.553 93.8312C286.281 95.9333 286.934 97.8191 287.906 101.638C290.384 111.368 290.956 121.464 290.448 130.107C290.227 133.866 288.756 140.331 284.856 145.358C281.328 149.906 276.599 152.69 271.633 154.807C271.812 160.151 272.758 165.404 273.705 170.659C274.477 174.944 275.249 179.231 275.606 183.57C282.895 186.407 290.629 187.876 298.374 189.347C307.039 190.993 315.717 192.641 323.801 196.212C347.205 204.414 362.932 231.457 375.861 253.689C377.887 257.173 379.844 260.538 381.752 263.695C381.752 263.695 381.752 263.69 381.748 263.69C384.17 268.152 386.603 272.608 389.045 277.06C388.679 279.676 388.38 282.299 388.095 284.926C386.855 282.658 385.618 280.388 384.381 278.118L384.379 278.114L384.377 278.11L384.374 278.106L384.372 278.102L384.37 278.098L384.368 278.094L384.365 278.09L384.363 278.086L384.361 278.082L384.359 278.078L384.357 278.074L384.352 278.066C381.873 273.517 379.394 268.969 376.888 264.436V264.44C376.113 263.102 375.328 261.769 374.542 260.435L374.54 260.432C373.022 257.857 371.504 255.281 370.061 252.667C370.058 252.661 370.056 252.655 370.053 252.651C370.049 252.644 370.046 252.638 370.043 252.632C370.039 252.626 370.036 252.62 370.032 252.613L370.032 252.612L370.032 252.611L370.028 252.609C370.022 252.603 370.018 252.594 370.015 252.587L370.012 252.581L370.016 252.585C370.015 252.582 370.014 252.578 370.012 252.576C361.782 238.289 352.816 224.154 340.784 212.736C340.779 212.729 340.773 212.724 340.767 212.72L340.767 212.719L340.763 212.716L340.76 212.713L340.759 212.712C340.567 212.535 340.378 212.357 340.188 212.178L340.16 212.152C339.989 211.991 339.817 211.829 339.644 211.669L339.672 211.695C330.677 202.002 317.915 198.916 305.419 195.894C302.067 195.083 298.735 194.277 295.5 193.35C293.443 200.206 291.033 206.942 288.622 213.678L288.622 213.68L288.621 213.682C287.754 216.104 286.887 218.527 286.037 220.956C285.252 222.69 284.671 224.575 284.089 226.464C283.096 229.688 282.098 232.928 280.07 235.467C278.441 236.438 277.242 235.054 276.154 233.799C275.799 233.388 275.455 232.992 275.112 232.696C271.699 229.018 268.116 225.535 264.505 222.059C264.184 221.663 263.647 221.156 263.069 220.612C261.066 218.727 258.578 216.385 262.969 216.558C263.685 216.228 264.208 217.13 263.825 217.719C269.203 221.211 274.309 225.111 278.621 229.883C280.263 224.908 281.997 219.963 283.73 215.018C286.373 207.479 289.016 199.939 291.336 192.296C288.981 191.807 286.637 191.237 284.345 190.51C283.429 190.22 282.521 189.905 281.625 189.559C281.231 189.408 280.839 189.25 280.449 189.086L280.445 189.085C280.057 188.922 279.671 188.752 279.287 188.576L279.362 188.61C279.339 188.599 279.313 188.588 279.287 188.576C278.373 188.163 277.457 187.74 276.599 187.231C274.024 191.81 271.249 196.282 268.383 200.706C266.024 204.347 263.604 207.956 261.183 211.566L261.18 211.57L261.175 211.577C259.563 213.98 257.951 216.384 256.356 218.799C255.22 220.518 254.093 222.243 252.982 223.977C252.954 224.02 252.926 224.064 252.899 224.107C252.573 224.615 252.249 225.125 251.926 225.635C251.65 226.072 251.374 226.51 251.1 226.948C250.255 228.297 249.423 229.653 248.605 231.017L248.604 231.019L248.603 231.02L248.585 231.051L248.582 231.055L248.582 231.056C248.561 231.091 248.54 231.126 248.52 231.161C248.515 231.171 248.509 231.181 248.504 231.19C248.448 231.285 248.393 231.379 248.337 231.476C247.502 232.798 246.74 234.204 245.974 235.618C244.083 239.109 242.167 242.645 239.061 245.07C244.201 266.885 246.303 289.205 248.401 311.478L248.575 313.323C248.651 314.13 248.727 314.937 248.803 315.744C248.803 315.731 248.802 315.717 248.801 315.704C249.612 322.484 250.552 329.251 251.493 336.019C253.557 350.876 255.622 365.734 256.314 380.727C256.47 390.543 257.194 400.322 257.918 410.099C258.72 420.941 259.523 431.781 259.551 442.668C272.028 442.577 284.46 443.088 296.887 444.167C299.711 444.629 302.627 444.738 305.543 444.846C310.187 445.02 314.833 445.193 319.115 446.794C319.484 446.743 319.691 447.041 319.888 447.323C319.947 447.407 320.005 447.49 320.066 447.562C320.064 447.558 320.061 447.555 320.058 447.552L320.057 447.55L320.051 447.543L320.046 447.535C320.05 447.54 320.054 447.544 320.058 447.549C320.06 447.551 320.062 447.553 320.064 447.555L320.079 447.574L320.096 447.594C320.138 447.647 320.181 447.701 320.244 447.725C320.487 447.737 320.68 447.869 320.787 448.058C324.389 448.123 328.027 447.827 331.667 447.531C339.423 446.901 347.189 446.27 354.644 449.121C350.55 418.505 349.927 387.602 349.305 356.754L349.262 354.624C348.799 345.646 347.853 336.709 346.907 327.771L346.742 326.217C346.666 325.499 346.591 324.78 346.515 324.062C346.581 322.875 346.279 321.505 345.971 320.112C345.335 317.232 344.679 314.257 347.215 312.623C349.711 311.563 350.774 313.861 351.741 315.952L351.742 315.953C352.086 316.698 352.419 317.416 352.799 317.947C354.731 321.388 356.816 324.734 358.903 328.082L358.903 328.083L359.111 328.416C359.297 328.714 359.482 329.012 359.667 329.31C359.905 329.692 360.143 330.074 360.38 330.457C363.986 336.631 367.454 342.909 370.924 349.19L370.925 349.192L370.926 349.194L370.928 349.196C371.084 349.479 371.24 349.761 371.396 350.043C373.741 354.289 376.091 358.534 378.488 362.749C386.732 377.245 395.537 391.377 406.669 403.903C411.042 408.617 415.958 413.427 421.876 416.083L424.602 419.775L427.328 423.466C421.365 422.886 416.298 420.419 411.791 416.982C406.192 412.714 401.456 406.95 396.936 401.45C395.706 399.954 394.493 398.477 393.282 397.055C387.969 390.066 383.207 382.725 378.713 375.213C374.467 368.115 370.46 360.865 366.454 353.616C361.694 345.003 356.934 336.391 351.774 328.036C353.766 344.077 354.163 360.198 354.559 376.323V376.324C354.832 387.427 355.106 398.532 355.9 409.614C356.109 412.215 356.312 414.816 356.516 417.417L356.517 417.431C357.11 425.021 357.704 432.611 358.437 440.189C358.417 441.188 358.617 442.303 358.821 443.44C359.273 445.959 359.744 448.586 357.897 450.302C367.055 454.35 377.037 459.382 382.373 468.211C386.118 476.251 379.966 477.544 374.626 473.982C374.198 473.606 373.722 473.241 373.199 472.893C373.663 473.295 374.141 473.659 374.626 473.982C380.376 479.037 377.673 486.171 369.192 481.454C373.578 490.34 362.385 486.659 358.107 484.748C360.662 490.751 354.469 489.312 349.54 488.166C347.747 487.749 346.121 487.371 345.144 487.404C343.132 487.178 341.121 486.918 339.11 486.657C331.668 485.693 324.223 484.729 316.698 485.51C311.953 489.883 296.657 490.139 284.259 490.347C278.796 490.438 273.897 490.521 270.71 490.941H270.706C269.452 491.034 268.198 491.131 266.944 491.227C265.198 491.362 263.452 491.496 261.705 491.621L261.859 491.608L262.009 491.596C253.66 492.141 245.359 493.108 237.06 494.075C232.446 494.612 227.832 495.15 223.211 495.615C222.183 495.665 221.155 495.708 220.125 495.75L220.118 495.75C214.984 495.962 209.843 496.175 204.817 497.34C197.217 499.138 189.423 499.277 181.622 499.416H181.621C177.041 499.497 172.459 499.579 167.913 499.996ZM248.52 231.161C248.54 231.126 248.561 231.091 248.582 231.056L248.582 231.055C248.561 231.09 248.54 231.125 248.52 231.161ZM248.618 230.995L248.605 231.017C248.608 231.01 248.612 231.001 248.618 230.995ZM122.176 492.761C147.484 496.648 173.179 495.796 198.607 494.149C205.274 492.379 212.08 491.871 218.892 491.363L218.894 491.362L218.895 491.362C223.652 491.007 228.413 490.652 233.131 489.866C246.783 487.579 260.591 486.928 274.392 486.277C286.425 485.71 298.452 485.143 310.365 483.492C310.518 482.098 310.666 480.705 310.813 479.311C311.419 473.589 312.024 467.87 313.021 462.195V462.199C313.128 461.512 313.229 460.823 313.33 460.134C313.78 457.077 314.231 454.014 315.162 451.06C290.437 448.355 265.6 448.172 240.761 447.99H240.76C228.323 447.899 215.886 447.807 203.462 447.399H203.478C200.387 447.111 197.305 446.739 194.222 446.366L194.22 446.366C190.387 445.903 186.554 445.44 182.704 445.139C180.608 444.915 178.311 444.859 175.954 444.801H175.953C166.714 444.576 156.543 444.328 153.863 433.889C149.259 418.27 147.686 401.963 146.949 385.751C146.341 366.703 144.766 347.728 143.192 328.745L143.191 328.737C142.964 326.005 142.738 323.274 142.514 320.541C142.302 318.893 142.055 317.247 141.809 315.6C141.095 310.827 140.381 306.049 140.488 301.212C140.467 299.05 143.906 298.153 144.28 300.636C144.356 301.28 144.428 301.927 144.5 302.572C144.538 302.913 144.576 303.253 144.614 303.592L144.716 304.497L144.713 304.478C144.717 304.515 144.721 304.548 144.725 304.581L144.716 304.497C148.375 328.337 151.853 352.329 152.347 376.498C152.557 379.806 152.716 383.121 152.875 386.436C153.371 396.798 153.868 407.168 155.917 417.36C156.2 418.662 156.42 420.005 156.625 421.362L156.635 421.431L156.655 421.56L156.656 421.571C156.71 421.927 156.762 422.283 156.814 422.64L156.814 422.641L156.816 422.65L156.826 422.722L156.826 422.724L156.827 422.729C156.87 423.023 156.913 423.317 156.957 423.612C157.108 424.627 157.264 425.643 157.447 426.65C157.525 427.075 157.607 427.498 157.695 427.919C157.822 428.53 157.963 429.135 158.121 429.733C158.241 430.188 158.371 430.639 158.513 431.085C158.631 431.452 158.757 431.817 158.892 432.177L158.892 432.179C158.958 432.354 159.026 432.528 159.096 432.701C159.157 432.852 159.22 433.002 159.285 433.152C159.74 434.199 160.286 435.204 160.954 436.154C160.93 436.13 160.903 436.107 160.879 436.088C160.929 436.133 160.974 436.178 161.024 436.223C160.995 436.195 160.966 436.166 160.933 436.137L160.954 436.154L160.956 436.156C165.404 439.706 171.18 439.634 176.931 439.562C180.098 439.523 183.257 439.484 186.183 440.049C205.881 442.942 225.718 442.818 245.568 442.693C249.367 442.67 253.166 442.646 256.965 442.643C257.113 430.063 256.38 417.52 255.272 404.994C254.954 399.921 254.743 394.841 254.532 389.762L254.532 389.76C254.105 379.459 253.677 369.158 252.348 358.917L252.345 358.891L252.344 358.882L252.342 358.865C251.329 350.661 250.11 342.487 248.891 334.313L248.891 334.311C247.176 322.81 245.461 311.31 244.322 299.728C244.324 299.745 244.326 299.761 244.328 299.777C244.331 299.798 244.334 299.82 244.335 299.841C244.306 299.573 244.276 299.304 244.247 299.035L244.223 298.819C244.203 298.635 244.183 298.451 244.163 298.268L244.187 298.49C243.393 290.753 242.323 283.041 241.253 275.329L241.252 275.328C239.875 265.403 238.498 255.479 237.71 245.506C235.565 245.203 234.008 243.518 232.494 241.881C231.804 241.135 231.124 240.398 230.401 239.807C228.15 237.626 226.029 235.319 223.909 233.012C222.487 231.465 221.065 229.918 219.604 228.409C218.921 227.7 218.238 226.991 217.555 226.282C208.293 216.669 199.056 207.082 190.734 196.632C190.17 196.755 189.56 196.504 189.231 196.03C186.829 197.899 184.202 199.466 181.583 201.027C180.964 201.396 180.346 201.765 179.731 202.137C185.022 213.77 190.272 225.456 194.67 237.468C195.302 236.818 196.398 235.084 197.715 232.999C201.105 227.634 205.963 219.946 208.16 222.422C208.996 223.332 208.79 224.723 208.062 225.621C204.821 229.739 201.951 234.12 199.109 238.518C198.58 239.16 198.147 239.947 197.709 240.74C196.824 242.343 195.924 243.975 194.189 244.51C191.764 244.433 190.963 241.698 190.225 239.181C189.887 238.025 189.562 236.915 189.099 236.13C188.574 234.714 188.046 233.299 187.517 231.884L187.516 231.88C183.975 222.403 180.435 212.926 178.067 203.064C168.428 207.874 158.395 211.851 148.363 215.828L148.351 215.832C136.298 220.61 124.244 225.388 112.871 231.613L112.878 231.608C112.866 231.615 112.853 231.622 112.841 231.629C112.828 231.636 112.816 231.643 112.804 231.65H112.808L112.803 231.652L112.798 231.656L112.793 231.659C112.791 231.66 112.789 231.662 112.787 231.663L112.728 231.697L112.682 231.725C109.87 233.118 107.254 234.697 104.818 236.439C104.126 236.934 103.449 237.442 102.786 237.963C101.876 238.679 100.992 239.418 100.135 240.18C99.6097 240.647 99.0941 241.123 98.5881 241.607C97.5009 242.647 96.4584 243.725 95.4587 244.839C94.7842 245.59 94.1291 246.357 93.4931 247.14C92.7661 248.034 92.064 248.948 91.3858 249.881C89.5456 252.411 87.8818 255.077 86.3779 257.853C76.4826 276.114 73.5119 299.111 72.799 319.281V319.071L72.7867 319.907C72.7867 319.965 72.7867 320.026 72.7826 320.084V320.051C72.6717 343.575 74.3966 367.068 76.1201 390.544C76.7653 399.331 77.4102 408.116 77.9587 416.898C78.7696 421.793 79.1486 427.976 79.5578 434.653C80.738 453.91 82.1695 477.269 94.9447 485.629C94.9062 485.601 94.8661 485.574 94.8253 485.547C94.8008 485.531 94.776 485.514 94.7512 485.497C95.8918 486.202 97.086 486.782 98.309 487.326C98.239 487.293 98.169 487.26 98.0949 487.227C103.563 489.504 109.139 491.781 115.114 492.135C115.122 492.135 115.13 492.136 115.138 492.136L115.151 492.137L115.167 492.139L115.176 492.139L115.18 492.139L115.184 492.139L115.187 492.139C115.67 492.185 116.154 492.226 116.637 492.267H116.609C116.619 492.267 116.63 492.269 116.641 492.27C116.648 492.271 116.655 492.271 116.662 492.271C116.67 492.275 116.683 492.275 116.695 492.275C116.689 492.275 116.683 492.274 116.677 492.273C118.508 492.417 120.344 492.568 122.176 492.761ZM324.39 480.297C334.318 480.651 344.271 482.566 353.808 485.254C351.646 483.595 349.299 482.207 346.923 480.98C345.947 479.905 346.767 477.912 348.245 477.9C351.459 478.59 354.535 479.733 357.614 480.878C360.582 481.981 363.553 483.085 366.652 483.784C363.04 479.222 356.703 476.714 351.218 475.034C349.678 474.202 350.497 471.443 352.219 471.497C355.727 472.213 359.289 472.992 362.591 474.412C364.274 474.931 365.858 475.896 367.439 476.859C369.762 478.275 372.078 479.686 374.685 479.667C370.83 473.763 364.021 470.383 357.811 467.3C357.528 467.16 357.247 467.02 356.966 466.881C353.495 465.184 355.999 461.729 359.157 463.397C363.501 464.793 367.825 466.304 371.996 468.149C373.136 468.624 374.165 469.331 375.192 470.036C376.674 471.054 378.152 472.068 379.952 472.382C374.583 461.445 361.002 456.64 350.032 453.094C345.346 451.87 340.514 451.891 335.689 451.913C330.419 451.936 325.155 451.959 320.095 450.36L320.079 450.453L320.079 450.456C320.013 450.836 319.948 451.214 319.888 451.594L319.939 451.258C319.929 451.319 319.919 451.381 319.91 451.442C319.9 451.509 319.89 451.575 319.881 451.641L319.888 451.594C319.763 452.431 319.636 453.269 319.508 454.107L319.508 454.112C318.185 462.826 316.854 471.599 316.966 480.408C319.441 480.206 321.92 480.251 324.39 480.297ZM253.304 76.4815C253.424 77.581 252.172 77.2804 252.312 76.3127C243.265 70.0577 269.693 60.1708 273.902 64.3669C273.469 63.0945 273.148 61.785 272.843 60.4796C272.764 60.1406 272.681 59.8019 272.599 59.4631L272.598 59.4584C272.366 58.5024 272.134 57.5457 271.958 56.58C265.681 54.9822 260.529 49.9424 255.95 45.4637L255.496 45.0197L255.388 44.9142C252.468 55.9953 239.892 59.6314 231.01 52.767C229.285 65.5281 214.255 70.1195 203.701 64.7251C203.68 71.8819 197.248 78.0751 189.988 76.1768C191.294 81.3159 187.122 86.1337 181.814 85.0796C185.599 96.4201 190.211 107.538 194.917 118.529C195.404 119.997 196.067 121.451 196.733 122.912C198.175 126.075 199.632 129.273 199.356 132.723C195.388 139.693 187.968 126.176 185.81 122.245L185.711 122.064L185.666 121.985C185.659 121.971 185.652 121.957 185.645 121.944C185.64 121.935 185.635 121.925 185.63 121.916C185.629 121.915 185.628 121.914 185.628 121.914L185.632 121.922L185.626 121.911L185.621 121.902L185.615 121.891L185.609 121.879C185.606 121.874 185.604 121.868 185.601 121.863C184.497 119.421 181.422 120.807 179.154 121.829C178.681 122.042 178.243 122.239 177.865 122.383C172.026 125.941 182.041 134.415 185.331 136.828C189.074 142.013 191.174 154.271 186.657 159.431C188.41 167.023 189.471 174.732 190.534 182.445C191.076 186.383 191.618 190.322 192.253 194.247H192.249C192.274 194.408 192.286 194.581 192.27 194.758C205.031 206.076 216.821 218.43 228.605 230.778L228.606 230.78L228.607 230.781L228.613 230.787C231.725 234.047 234.836 237.308 237.965 240.548C246.263 228.361 254.147 215.843 262.019 203.345L262.022 203.34L262.024 203.337L262.025 203.336L262.026 203.334L262.027 203.333L262.028 203.331L262.029 203.33C265.346 198.064 268.661 192.801 272.003 187.568C271.619 182.636 270.707 177.753 269.795 172.871C268.545 166.182 267.296 159.494 267.408 152.69C267.671 152.587 267.939 152.484 268.211 152.379C272.55 150.704 277.919 148.633 283.331 140.274C287.773 133.412 287.906 117.906 286.037 109.263C283.433 97.2269 280.716 87.7767 277.979 78.257C277.026 74.9424 276.07 71.6194 275.116 68.1759C274.42 71.2662 271.27 71.6159 268.269 71.949C266.94 72.0966 265.64 72.241 264.595 72.619C262.441 72.6443 260.609 73.6074 258.785 74.5663C257.042 75.4826 255.306 76.395 253.304 76.4815Z" fill="#231F20"/>
<path d="M396.034 299.257C396.06 299.304 396.086 299.349 396.111 299.396L396.11 299.391L396.106 299.384C396.109 299.386 396.11 299.388 396.11 299.391C396.129 299.425 396.149 299.463 396.172 299.497L396.164 299.483C396.166 299.484 396.168 299.487 396.169 299.49L396.171 299.493L396.172 299.497C403.639 313.048 411.284 326.517 419.776 339.459C420.761 340.896 421.645 342.445 422.532 344.001C424.435 347.339 426.428 350.584 429.334 353.06C430.955 354.441 432.862 355.6 434.281 355.354C435.951 355.063 437.822 353.714 438.856 352.303C444.448 344.678 446.309 338.55 449.023 332.816L444.334 331.901L438.43 345.06C437.477 347.171 435.297 349.761 435.297 349.761C435.297 349.761 433.541 351.683 431.836 350.151C430.089 348.776 428.168 345.569 427.01 343.634L427.002 343.622C427.004 343.624 427.006 343.627 427.008 343.63C424.643 339.592 422.256 335.567 419.87 331.543C412.963 319.896 406.057 308.251 399.681 296.295C396.412 290.396 392.288 282.972 389.045 277.06C388.679 279.676 388.38 282.299 388.095 284.926C390.716 289.717 393.352 294.501 396.034 299.257Z" fill="#231F20"/>
<path d="M490.656 173.293C490.436 170.595 504.107 158.366 504.051 163.201C503.816 164.542 501.751 166.79 499.578 169.155C497.145 171.803 494.288 176.435 494.288 176.435C494.288 176.435 492.704 178.515 492.704 179.735C492.704 180.074 492.806 180.854 493.212 181.261C493.721 181.769 494.737 181.769 495.246 181.261C496.94 180.074 500.533 177.6 501.346 177.194C504.833 174.143 519.38 169.19 527.821 167.764C529.226 167.526 534.939 166.747 536.464 167.764C537.684 168.577 536.66 169.704 535.916 170.076C534.899 170.585 533.645 171.097 530.838 171.781C525.197 173.155 517.399 175.055 517.454 177.832C518.166 179.153 519.657 179.549 521.159 179.949C522.189 180.222 523.225 180.498 524.021 181.074H527.457C527.68 179.356 526.647 177.761 523.461 176.818C543.541 173.293 544.558 164.455 532.039 164.29C531.296 164.33 530.556 164.386 529.821 164.455C514.629 165.889 501.455 173.309 496.588 177.005C498.1 174.479 500.066 172.32 502.032 170.163C503.311 168.759 504.589 167.356 505.741 165.852C511.079 156.257 499.134 158.817 494.738 162.959C485.005 169.924 481.221 183.262 480.543 194.707C480.543 194.707 480.543 207.417 479.359 217.318C478.175 227.218 475.57 233.313 473.426 241.256C472.282 245.497 471.137 249.738 470.069 253.993C462.552 280.263 454.679 306.587 444.334 331.901L449.023 332.816L464.275 291.298C472.335 267.037 479.455 242.242 484.477 217.172C484.867 211.981 485.036 206.777 485.205 201.576V201.575L485.231 200.771C485.362 196.756 485.5 192.743 485.746 188.74C486.263 184.402 487.87 180.357 489.472 176.323L489.472 176.322L489.622 175.944C489.973 175.061 490.321 174.179 490.656 173.293Z" fill="#231F20"/>
<path d="M506.878 255.789C505.604 272.236 501.596 288.374 497.207 304.229C497.224 304.174 497.24 304.12 497.256 304.066C497.273 304.012 497.289 303.958 497.306 303.903C496.633 306.296 495.973 308.692 495.312 311.088L495.312 311.09L495.311 311.091L495.311 311.093L495.31 311.095L495.31 311.097L495.31 311.098C495.033 312.101 494.757 313.104 494.479 314.107C493.36 318.153 492.227 322.195 491.023 326.217L496.302 327.393C502.776 305.282 508.7 283.063 511.245 260.138C512.291 250.57 512.142 240.949 511.994 231.348C511.944 228.169 511.895 224.992 511.889 221.821C512.281 220.335 512.569 218.828 512.798 217.31C516.587 214.978 519.805 211.137 514.673 208.63C519.394 206.248 524.006 200.56 516.582 198.104C516.95 197.939 517.304 197.767 517.644 197.589C519.333 196.846 521.291 195.608 522.707 194.199C524.999 191.919 525.872 189.192 521.888 187.4C524.557 185.944 527.156 183.397 527.457 181.074H524.021C523.79 182.915 521.853 183.875 519.973 184.807C518.059 185.756 516.203 186.676 516.263 188.467C516.707 189.515 517.769 189.767 518.861 190.026C519.741 190.235 520.641 190.449 521.249 191.088C521.022 191.289 520.801 191.479 520.585 191.657C518.258 193.583 516.569 194.259 515.259 194.783C514.505 195.085 513.326 195.747 513.326 195.747C513.326 195.747 509.874 197.419 510.546 198.926C510.696 199.263 510.881 199.475 511.1 199.694C511.869 200.465 513.022 200.811 514.182 201.159C514.477 201.248 514.772 201.336 515.061 201.432C515.775 201.668 516.453 201.947 517.006 202.375C516.789 203.752 515.624 204.601 514.249 205.308C513.794 205.542 513.316 205.761 512.841 205.978C511.38 206.645 509.952 207.297 509.335 208.342C509.131 208.686 509.016 209.073 509.017 209.517C509.053 209.611 509.095 209.7 509.141 209.782C509.615 210.63 510.577 210.891 511.564 211.158C512.228 211.339 512.903 211.522 513.447 211.889C513.618 212.005 513.776 212.138 513.917 212.296C513.727 212.454 513.54 212.605 513.358 212.748C511.355 214.321 509.507 215.163 508.278 215.638C507.396 215.979 506.887 219.498 506.978 223.176L507.311 231.93C507.509 239.884 507.605 247.848 506.878 255.789Z" fill="#231F20"/>
<path d="M458.174 401.45C454.845 405.521 450.698 410.026 445.465 413.308C442.152 415.386 439.329 416.721 436.314 417.375C430.793 418.573 426.539 417.515 421.876 416.083L424.602 419.775L427.328 423.466C430.027 423.686 436.43 423.659 440.445 421.793C441.106 421.511 441.763 421.22 442.414 420.921C443.972 420.208 445.503 419.452 447.002 418.682C461.753 409.755 471.954 392.311 479.526 377.214C487.098 362.117 496.302 327.393 496.302 327.393L491.023 326.217C483.65 350.846 477.999 377.214 458.174 401.45Z" fill="#231F20"/>
</g>
<defs>
<clipPath id="clip0_474_13791">
<rect width="540" height="500" fill="white"/>
</clipPath>
</defs>
</svg>
