<svg width="570" height="450" viewBox="0 0 570 450" fill="none" xmlns="http://www.w3.org/2000/svg">
<g clip-path="url(#clip0_471_13790)">
<path fill-rule="evenodd" clip-rule="evenodd" d="M339 49C234.066 49 149 134.066 149 239C149 277.605 160.513 313.52 180.293 343.5L493.581 349.5C515.877 318.365 529 280.215 529 239C529 134.066 443.934 49 339 49Z" fill="white"/>
<path d="M99.8923 165.611H115.352L123.082 167.395L135.569 172.747L149.84 182.261L161.732 190.585L164.111 195.342L148.056 219.721L105.244 191.775L100.487 191.18L94.5408 188.207L93.3515 185.234L94.5408 182.855L90.3785 180.477L88.5946 178.693L89.7838 176.315L92.1623 175.125L91.5677 173.341L88.5946 170.368C88.1189 169.893 88 168.585 88 167.99L90.9731 166.801L99.8923 165.611Z" fill="white"/>
<path d="M283.034 45.4992L284.818 34.2015L291.953 27.6607L303.251 19.9307L307.413 15.7684L311.575 16.9577L337.144 26.4715L354.387 32.4177L367.469 38.9584L376.388 55.6076L378.172 61.5538L375.199 68.6892L369.253 72.8515C368.658 76.6174 367.469 84.2681 367.469 84.7438V116.258C367.469 116.734 369.055 123.592 369.847 126.961L369.253 133.502L360.928 140.638C358.352 144.998 352.96 153.838 352.009 154.314C351.058 154.789 336.549 171.954 329.414 180.477L310.981 133.502L311.575 97.8253L300.278 95.4468L289.574 91.8791L286.007 74.0407L284.223 59.1753L283.034 45.4992Z" fill="white"/>
<path d="M231.897 326.157C229.994 327.109 227.933 331.311 227.14 333.293L227.735 335.077H230.708L235.465 333.293L243.194 330.32L241.411 333.293L236.95 336.266C236.455 337.257 235.346 339.239 234.87 339.239C234.394 339.239 234.672 340.428 234.87 341.023L236.315 342.212L242.005 339.239L250.924 336.266C250.132 337.257 248.427 339.239 247.951 339.239C247.476 339.239 245.771 341.221 244.978 342.212L243.789 344.59L243.194 345.78L244.978 346.969L248.546 346.374L250.924 345.185L256.276 342.807L259.249 341.617L258.06 343.996L255.681 346.969V349.942L256.276 351.131H258.06L261.033 349.942L265.195 346.969L273.52 346.374L284.818 346.969L302.061 348.158L300.872 319.022L293.142 318.427L283.628 316.644L274.114 315.454H264.601C263.411 315.454 255.681 316.644 252.708 316.644C249.735 316.644 246.762 319.022 243.789 320.211C240.816 321.4 234.275 324.968 231.897 326.157Z" fill="white"/>
<path d="M372.909 355.424C394.507 354.745 416.156 356.254 437.688 354.158C446.017 353.254 455.489 355.783 463.029 351.405C470.894 351.582 467.592 334.118 467.634 328.94C466.834 315.561 465.631 302.197 463.516 288.957C463.501 288.86 463.489 288.767 463.474 288.671C463.478 288.694 463.482 288.713 463.485 288.737C463.431 288.362 463.373 287.987 463.319 287.613C463.319 287.601 463.319 287.59 463.315 287.578C463.315 287.582 463.315 287.59 463.315 287.594C463.308 287.52 463.292 287.439 463.28 287.362C463.28 287.362 463.28 287.362 463.28 287.366C462.472 278.608 460.122 270.183 458.223 261.634C456.974 252.904 454.554 244.425 453.204 235.725C452.427 225.536 448.607 216.006 445.158 206.484C441.964 197.959 439.378 189.12 434.077 181.587C430.083 174.617 425.66 167.729 419.755 162.207C419.86 162.308 419.96 162.408 420.061 162.509C411.319 152.574 400.732 144.438 389.392 137.65C384.624 135.21 377.104 126.499 376.103 137.032C374.989 156.296 370.075 175.197 369.928 194.568C366.672 193.066 363.432 191.526 360.494 189.456C358.143 187.545 355.51 190.275 356.492 192.831C356.867 205.739 355.56 218.84 355.862 231.833C355.359 246.421 355.425 261.048 354.211 275.601C352.513 288.837 350.244 301.981 348.453 315.201C348.345 315.561 348.31 315.939 348.341 316.31C337.098 314.557 325.78 314.561 314.428 314.53C311.254 314.935 299.453 313.02 298.974 316.526C298.912 316.487 298.85 316.453 298.785 316.414C298.796 315.981 298.711 315.553 298.545 315.167C308.246 307.101 309.638 298.224 309.591 286.223C309.754 277.543 310.167 268.87 310.256 260.19C310.488 232.034 309.661 203.778 304.975 175.957C304.994 176.077 305.013 176.201 305.029 176.32C303.776 163.995 299.975 152.129 298.715 139.808C298.603 133.595 298.58 124.58 289.996 130.387C287.672 131.684 284.776 131.256 282.352 132.526C255.604 142.225 246.769 163.586 235.417 187.336C227.351 206.141 218.578 235.702 213.501 255.761C212.767 254.823 207.215 248.244 206.484 247.305C206.538 247.375 206.592 247.444 206.646 247.514C195.704 232.204 185.354 216.423 172.985 202.202C170.935 199.526 168.581 197.121 166.385 194.568C164.293 191.518 161.903 192.87 159.966 195.229C160.047 195.155 160.125 195.082 160.206 195.009C154.487 200.314 147.342 204.106 142.698 210.55C138.786 214.342 142.053 218.103 144.779 221.35C149.252 227.563 152.581 234.451 157.182 240.583C157.178 240.575 157.175 240.567 157.171 240.56C166.965 255.958 178.827 269.897 188.949 285.103C192.708 290.756 197.289 295.791 201.167 301.355C206.697 307.911 213.846 312.997 224.161 310.213C235.138 306.39 237.621 294.115 242.477 284.883C248.346 272.191 253.264 259.044 260.789 247.19C260.789 247.193 260.785 247.193 260.785 247.197C260.912 246.973 261.036 246.749 261.156 246.525C263.603 250.923 268.208 253.823 270.451 258.345C270.397 268.183 269.755 278.037 270.029 287.887C270.029 287.763 270.026 287.644 270.026 287.524C270.722 296.432 269.786 305.711 271.495 314.418C272.659 316.105 274.994 315.337 276.734 315.619C283.67 316.707 290.723 317.414 297.582 318.785C297.768 320.36 298.17 321.912 298.363 323.492C298.348 323.395 298.332 323.295 298.321 323.198C299.709 328.426 297.207 353.107 304.89 352.073C315.271 351.856 325.525 353.632 335.86 354.254C348.194 354.972 360.556 355.173 372.909 355.424ZM402.144 252.086C406.261 272.531 407.495 293.447 411.481 313.869C406.029 313.893 400.597 312.723 395.234 311.842C395.427 300.027 398.01 288.478 399.24 276.771C399.228 276.871 399.217 276.971 399.205 277.072C400.369 267.596 400.624 258.055 401.482 248.545C401.703 249.73 401.923 250.908 402.144 252.086Z" fill="#4263a3"/>
<path d="M313.438 84.801C315.31 84.5694 316.083 82.8163 316.945 81.3838C318.43 80.7042 316.709 78.5149 315.739 80.4262C314.622 83.2063 310.422 84.3531 308.524 81.7931C306.629 78.5033 306.301 85.9169 313.438 84.801Z" fill="#231F20"/>
<path d="M333.579 61.1239C335.771 61.2436 344.614 56.8418 342.348 54.2509C342.39 53.915 342.054 53.5327 341.706 53.6679C338.257 51.1619 334.147 49.8568 329.875 50.4592C326.855 50.6291 324.133 51.9612 321.465 53.2624C319.617 54.1621 320.897 56.6063 322.138 57.4828C322.103 57.4558 322.068 57.4326 322.033 57.4056C325.413 59.7841 329.407 61.3402 333.579 61.1239ZM332.628 58.9694C329.051 58.8497 324.686 57.8071 322.308 55.027C325.018 53.6833 327.752 52.2276 330.853 52.1427C330.814 52.1465 330.775 52.1504 330.741 52.1543C332.693 52.0114 334.665 52.0693 336.567 52.5558C336.533 52.5481 336.502 52.5404 336.467 52.5327C338.041 52.942 339.487 53.7258 340.956 54.4054C339.413 56.4209 337.136 58.0349 334.677 58.6991C334.688 58.6952 334.696 58.6952 334.708 58.6914C334.023 58.8535 333.331 59.0118 332.628 58.9694Z" fill="#231F20"/>
<path d="M330.273 58.1084C333.123 56.533 331.031 51.4091 327.934 52.2933C324.265 54.1506 326.206 60.0853 330.273 58.1084ZM329.071 55.8611C328.943 55.7491 328.82 55.6256 328.746 55.4711C328.8 55.4866 328.85 55.5097 328.901 55.5329C328.928 55.6526 328.994 55.7646 329.094 55.8418C329.086 55.8495 329.079 55.8534 329.071 55.8611Z" fill="#231F20"/>
<path d="M296.848 58.7569C298.777 58.6835 300.896 58.4248 302.311 56.9691C302.899 56.1737 303.83 55.6138 304.279 54.745C304.588 53.8647 303.78 52.687 302.802 52.9534C301.739 50.9456 299.33 50.351 297.288 49.822C297.323 49.8297 297.358 49.8374 297.393 49.8451C293.847 48.9763 287.359 48.6983 285.755 52.5248C287.746 56.6332 292.239 59.3399 296.848 58.7569ZM296.55 56.4015C292.942 56.7568 289.776 55.4748 287.475 52.6522C290.708 50.6328 294.597 50.9147 298.182 51.7024C298.174 51.7024 298.166 51.6985 298.158 51.6947C298.193 51.7024 298.228 51.7101 298.263 51.7178C298.243 51.714 298.224 51.7101 298.205 51.7062C299.546 52.0846 301.135 52.3704 301.932 53.633C300.726 55.5366 298.827 56.5791 296.55 56.4015Z" fill="#231F20"/>
<path d="M293.054 56.9999C297.137 56.7991 297.029 51.7177 292.842 51.9996C289.346 51.9957 289.748 57.1119 293.054 56.9999ZM292.776 54.7874C292.772 54.7874 292.768 54.7874 292.764 54.7874C292.788 54.7372 292.807 54.687 292.818 54.633C292.977 54.6098 293.135 54.5789 293.294 54.5828C293.309 54.6252 293.325 54.6677 293.34 54.7102C293.155 54.7449 292.965 54.7951 292.776 54.7874Z" fill="#231F20"/>
<path d="M304.001 55.2006C305.721 54.4129 300.822 49.8837 300.25 52.0267C300.192 53.4051 302.222 53.2816 302.891 54.2971C302.74 54.9303 303.475 55.2392 304.001 55.2006Z" fill="#231F20"/>
<path d="M346.818 50.5903C347.417 48.5554 344.517 48.9029 343.377 48.1924C338.25 45.5861 332.465 45.5089 326.844 45.5938C323.874 45.8873 319.547 45.0262 317.564 47.6789C317.216 48.9531 318.604 49.6867 319.609 48.9261C326.279 48.2079 333.312 48.5979 339.986 49.4551C341.834 49.6443 345.383 51.8568 346.818 50.5903Z" fill="#231F20"/>
<path d="M304.724 48.4938C309.897 43.4085 285.19 43.5128 284.97 46.9724C285.349 48.6598 287.39 47.0921 288.446 46.9763C293.615 46.1307 298.955 47.1462 303.908 48.6173C303.889 48.6135 303.869 48.6096 303.85 48.6057C304.152 48.6637 304.445 48.6482 304.724 48.4938Z" fill="#231F20"/>
<path d="M344.691 59.3323C344.861 58.1894 343.439 58.2048 342.7 57.838C342.704 57.838 342.708 57.8419 342.712 57.8419C342.337 57.6913 341.965 57.5291 341.614 57.3283C341.617 57.3322 341.621 57.3322 341.625 57.3361C341.567 57.3013 341.509 57.2704 341.451 57.2357C341.478 57.2511 341.505 57.2666 341.532 57.2782C339.197 55.4132 338.482 57.95 340.067 57.8573C341.2 58.34 343.821 61.0158 344.691 59.3323Z" fill="#231F20"/>
<path d="M342.046 61.1353C342.603 59.9229 340.705 59.6951 340.086 59.0193C340.09 59.0232 340.094 59.0271 340.102 59.0309C340.082 59.0155 340.059 59.0001 340.04 58.9846C340.051 58.9923 340.063 59 340.075 59.0078C339.583 58.6564 337.991 56.9265 338.164 58.4865C338.942 59.251 340.933 61.9925 342.046 61.1353Z" fill="#231F20"/>
<path d="M338.822 62.4445C339.027 62.0121 338.83 61.514 338.443 61.2707L338.447 61.2746C337.829 60.9425 337.438 60.3131 337.334 59.6297C337.338 59.6645 337.345 59.6954 337.349 59.7301C337.5 58.981 336.452 58.313 336.112 59.1857C335.861 60.4097 337.407 63.8114 338.822 62.4445Z" fill="#231F20"/>
<path d="M290.962 60.6799C291.387 59.9386 292.729 58.7686 291.987 57.9346C291.198 57.6798 290.684 59.2088 290.023 59.6143C289.466 60.1857 290.336 61.3093 290.962 60.6799Z" fill="#231F20"/>
<path d="M287.993 59.3476C288.825 58.6912 291.388 57.4981 290.224 56.2818C289.2 56.0038 288.357 57.4556 287.344 57.722C287.351 57.7182 287.359 57.7143 287.367 57.7104C286.478 58.0966 287.077 59.6681 287.993 59.3476Z" fill="#231F20"/>
<path d="M286.902 57.1277C287.672 56.5755 289.13 53.9305 287.158 54.4364C287.181 54.4209 287.204 54.4016 287.231 54.39C287.061 54.475 286.964 54.6372 286.933 54.8148C286.624 55.1893 286.214 55.4519 285.82 55.7338C284.969 56.3709 286.071 57.9462 286.902 57.1277Z" fill="#231F20"/>
<path d="M257.78 352.408C260.819 352.092 263.22 349.802 265.997 348.671C272.593 347.42 279.495 348.964 286.18 349.03C286.176 349.03 286.172 349.03 286.168 349.03C288.268 349.192 290.355 349.435 292.455 349.59C292.374 349.586 292.296 349.578 292.219 349.574C292.44 349.59 292.664 349.609 292.884 349.624C292.807 349.621 292.726 349.613 292.648 349.609C295.235 349.609 305.048 352.343 301.657 346.821C301.305 346.516 300.756 346.277 300.281 346.4C297.118 346.81 293.944 345.844 290.765 345.844C290.843 345.848 290.92 345.856 290.997 345.86C282.692 345.304 274.236 344.759 265.946 345.555C262.555 346.327 260.038 350.184 256.47 349.887C255.719 347.296 261.747 342.651 262.374 340.029C261.825 334.658 251.834 344.331 249.135 344.782C249.181 344.759 249.232 344.74 249.278 344.717C247.878 345.215 245.976 346.254 244.654 345.111C246.22 342.582 248.408 340.269 250.736 338.404C252.073 337.427 253.933 336.786 254.668 335.21C255.155 328.133 239.275 341.168 235.869 340.547C238.2 335.6 244.244 333.894 247.592 330.029C248.041 323.159 231.759 335.635 227.877 333.685C230.75 327.905 236.867 323.731 242.573 320.908C242.512 320.939 242.446 320.966 242.384 320.993C261.496 312.533 282.452 320.051 302.253 319.136C302.523 319.46 302.999 319.41 303.324 319.194C312.967 319.279 322.741 318.565 332.38 319.387C338.161 320.009 344.177 319.619 349.88 318.553C352.127 318.456 351.257 315.761 351.806 314.252C355.436 289.142 355.974 263.673 357.721 238.382C358.309 222.941 360.699 207.662 361.982 192.29C365.385 194.283 373.667 202.469 373.284 193.522C373.284 188.008 373.655 182.506 374.185 177.015C375.886 163.551 380.019 150.411 379.606 136.723C416.009 150.342 435.36 182.371 447.169 217.616C448.251 220.844 449.291 224.091 450.045 227.412C450.347 232.606 454.6 232.548 458.54 231.049C470.963 226.509 472.49 213.407 466.923 202.747C464.854 198.82 461.888 195.418 459.909 191.433C458.842 188.912 459.766 186.143 459.507 183.514C458.784 180.046 458.246 175.88 455.486 173.413C451.901 161.771 433.721 160.829 436.157 149.156C436.149 149.23 436.142 149.303 436.13 149.376C440.186 129.831 424.441 119.429 410.549 109.64C408.566 107.335 408.589 104.076 407.935 101.25C407.189 97.7168 406.056 94.2571 404.367 91.06C399.746 81.9667 390.513 76.0513 386.619 66.5719C386.639 66.6144 386.658 66.6569 386.677 66.7032C383.229 57.6795 382.146 47.8256 377.143 39.4004C363.015 11.1631 337.774 -0.00364971 307.364 8.72277C307.391 8.71118 307.414 8.6996 307.442 8.68802C307.442 8.68802 307.457 8.68415 307.465 8.68415C307.229 8.75752 307.09 8.98919 307.086 9.23631C296.171 14.2096 282.139 21.0556 280.983 34.4966C280.384 35.848 281.211 37.4659 281.32 38.8791C279.29 39.2729 276.556 38.269 274.936 39.7131C273.695 39.9989 273.884 41.6206 273.846 42.6091C273.846 42.5897 273.846 42.5704 273.846 42.555C273.846 42.6013 273.846 42.6477 273.846 42.6979C273.846 42.6901 273.846 42.6824 273.846 42.6786C273.908 45.4278 273.656 48.2001 274.105 50.9223C274.097 50.8605 274.085 50.7988 274.078 50.737C274.116 56.9266 277.175 63.1934 283.462 65.0815C284.548 71.4062 285.43 77.8043 284.892 84.2372C283.721 87.8088 281.76 91.3573 282.367 95.3073C283.504 100.682 287.367 105.08 288.585 110.443C290.63 117.228 274.766 115.911 272.318 129.638C271.112 131.205 270.374 133.07 269.581 134.866C268.773 136.6 266.174 140.291 269.43 140.916C271.92 139.994 274.294 138.522 276.788 137.488C283.543 134.943 290.545 133.055 297.655 131.769C292.803 146.82 292.73 162.709 290.727 178.239C288.415 197.167 288.531 193.862 302.771 184.498C300.13 195.233 300.323 206.307 300.47 217.284C300.47 217.18 300.466 217.076 300.463 216.971C300.466 217.288 300.474 217.605 300.482 217.921C300.482 217.902 300.482 217.883 300.482 217.863C301.39 234.857 300.231 251.788 299.446 268.755C299.105 284.562 299.005 300.405 297.288 316.136C290.348 314.634 283.214 314.642 276.158 314.398C268.943 314.078 261.655 313.112 254.49 314.421C231.31 315.557 211.058 344.933 238.382 333.836C236.047 335.705 230.935 340.18 234.752 342.856C238.823 343.925 242.628 340.551 246.308 339.222C244.944 341.037 242.662 342.551 242.473 344.979C242.659 347.802 246.15 348.458 248.369 347.613C248.335 347.62 248.3 347.632 248.265 347.644C251.575 346.802 254.366 344.786 257.301 343.134C254.919 345.848 251.501 352.401 257.78 352.408ZM370.276 194.29C370.268 193.854 370.26 193.414 370.253 192.97C370.26 193.402 370.272 193.839 370.28 194.271C370.28 194.267 370.28 194.259 370.28 194.256C370.284 194.271 370.28 194.279 370.276 194.29ZM372.789 58.39C379.787 69.6223 365.907 68.2709 366.054 72.3407C365.373 82.515 365.4 92.7087 365.122 102.899C365.273 111.938 363.734 121.873 367.163 130.344C363.799 134.175 359.593 137.167 356.395 141.133C347.742 152.601 340.106 164.845 330.629 175.668C328.699 168.242 325.765 161.126 323.039 153.967C320.379 145.09 316.941 136.572 313.156 128.124C314.382 126.58 313.145 124.02 313.361 122.12C313.214 113.108 312.831 104.034 313.423 95.0409C313.415 95.1104 313.408 95.1799 313.4 95.2494C313.771 93.7744 313.04 91.9596 311.265 92.2724C285.101 92.5774 290.932 88.3957 286.029 66.0005C286.037 66.0661 286.048 66.1279 286.056 66.1974C286.037 66.0584 286.013 65.9155 285.998 65.7765C292.053 67.3249 299.89 67.0662 303.981 61.6759C303.583 64.7842 302.373 67.7535 302.032 70.8386C303.741 75.1207 310.094 72.3561 312.758 70.3483C312.715 70.3753 312.677 70.4023 312.634 70.4332C314.293 69.854 315.31 67.7535 313.446 66.7187C311.528 65.6182 307.318 73.3175 303.525 70.8155C304.128 68.2014 305.083 65.68 305.562 63.0273C305.551 63.0698 305.539 63.1123 305.528 63.1586C306.007 61.3631 306.382 59.5445 306.784 57.7297V57.7336C306.788 57.722 306.784 57.7142 306.792 57.7027C306.792 57.6988 306.796 57.6911 306.796 57.6872V57.6911C306.8 57.6795 306.8 57.6641 306.804 57.6525C306.811 57.6332 306.815 57.6139 306.819 57.5946C306.819 57.6061 306.815 57.6177 306.811 57.6332C307.527 54.8994 308.203 52.1154 309.452 49.5632C310.109 49.4512 310.774 49.2967 311.443 49.3276C310.573 62.201 322.08 73.387 334.909 72.3831C334.886 72.3831 334.863 72.387 334.839 72.3908C334.89 72.387 334.94 72.3793 334.99 72.3793C335.01 72.3793 335.029 72.3754 335.048 72.3754C335.044 72.3754 335.041 72.3754 335.037 72.3754C344.042 70.7962 349.826 61.8188 351.848 53.4785C353.337 53.8646 354.845 54.1851 356.345 54.5249C356.271 54.5094 356.202 54.4901 356.128 54.4747C360.169 55.4747 364.244 56.3474 368.312 57.22C368.408 57.4092 368.671 57.5212 368.861 57.3938C368.919 57.3938 368.981 57.3976 369.039 57.4015C369.015 57.4015 368.996 57.3976 368.973 57.3976C370.086 57.5057 371.196 57.6641 372.302 57.8108C372.464 58 372.631 58.193 372.789 58.39ZM331.282 41.7905C337.534 41.5627 343.524 42.7056 349.637 43.7829C349.076 54.6059 343.415 70.0857 330.378 69.3521C317.924 67.8964 310.79 55.3705 314.525 43.7365C319.95 42.0917 325.641 41.6824 331.282 41.7905ZM305.559 48.0071C305.651 48.5824 305.837 49.1693 306.297 49.5439C305.825 61.255 296.198 65.514 285.693 63.1123C285.31 58.0772 284.695 53.0615 284.649 47.9994C285.012 47.5553 284.969 46.8796 284.649 46.424C284.656 45.0803 284.645 43.7481 284.625 42.4044C291.465 42.7365 298.378 43.3002 305.129 44.4161C305.164 44.7019 305.203 44.9837 305.242 45.2695C305.234 45.2115 305.222 45.1536 305.214 45.0957C305.257 45.3814 305.299 45.6633 305.342 45.949C305.33 45.868 305.319 45.7869 305.303 45.7058C305.416 46.4703 305.439 47.2464 305.559 48.0071ZM277.407 49.1693C278.965 49.7253 280.554 50.1887 282.166 50.5594C282.34 54.5712 282.986 58.5367 283.226 62.5408C281.861 62.1006 280.682 61.2859 279.56 60.4171C279.599 60.448 279.641 60.4789 279.68 60.5098C278.764 59.9036 278.164 59.0039 277.65 58.054C276.057 55.2392 276.633 51.8683 276.301 48.7716C276.672 48.8913 277.035 49.038 277.407 49.1693ZM344.544 33.3073C349.261 33.6587 352.335 37.8443 356.793 39.0722C362.462 40.7132 363.885 46.8757 365.686 51.7757C361.418 50.4474 357.304 48.6133 352.904 47.6905C352.892 45.5475 354.829 41.7403 351.535 41.246C349.443 39.69 346.721 39.5973 344.212 39.4776C344.239 39.4776 344.27 39.4814 344.297 39.4853C336.189 38.7594 327.404 38.2652 319.466 39.4969C313.017 40.7518 311.207 40.578 311.412 47.899C310.426 47.4935 309.367 47.3931 308.354 47.0881C308.679 41.3117 306.425 40.7981 301.255 40.5626C295.753 40.0915 290.263 39.4197 284.761 38.937C284.939 37.9756 285.055 36.9987 285.178 36.0295C292.811 28.0715 305.207 32.1991 309.077 21.5151C313.744 25.2914 319.362 27.7394 324.953 29.8361C324.883 29.809 324.818 29.782 324.748 29.755C330.988 32.5351 337.72 33.9135 344.544 33.3073ZM307.376 49.9995C307.372 49.957 307.368 49.9145 307.364 49.8721C307.391 49.8721 307.422 49.8682 307.449 49.8682C307.426 49.9107 307.399 49.957 307.376 49.9995ZM282.054 42.8716C282.043 43.7713 282.039 44.671 282.039 45.5668C280.191 45.505 278.203 44.5242 276.432 44.8216C276.452 44.169 276.471 43.5164 276.513 42.8639C278.366 42.7983 280.21 42.6168 282.058 42.4855C282.058 42.6129 282.058 42.7442 282.054 42.8716Z" fill="#231F20"/>
<path d="M401.516 248.857C401.782 248.842 401.804 248.221 401.792 247.805C401.792 242.297 401.985 236.795 401.953 231.287C401.953 231.302 401.953 231.317 401.953 231.337C401.951 231.227 401.951 231.112 401.951 231.001C401.951 231.042 401.951 231.077 401.951 231.117C401.951 231.001 401.948 230.886 401.948 230.766C401.948 230.821 401.948 230.876 401.951 230.931C401.738 229.172 402.307 225.689 401.243 225.073C400.204 225.223 401.229 233.197 400.975 235.236C400.975 235.226 400.975 235.216 400.975 235.211C400.99 236.945 401.009 238.679 401.026 240.418C401.026 240.398 401.026 240.378 401.026 240.358C401.026 240.363 401.026 240.373 401.026 240.378C401.026 240.358 401.026 240.343 401.026 240.323C401.026 240.368 401.026 240.413 401.026 240.458C401.026 240.438 401.026 240.413 401.026 240.393C401.026 240.478 401.029 240.563 401.029 240.644C401.029 240.634 401.029 240.629 401.029 240.619C401.031 240.824 401.033 241.029 401.033 241.235C401.033 241.23 401.033 241.225 401.033 241.22C401.033 241.245 401.033 241.27 401.033 241.295C401.033 241.29 401.033 241.28 401.033 241.275C401.033 241.3 401.033 241.33 401.033 241.355C401.033 241.35 401.033 241.345 401.033 241.34C401.216 243.235 400.77 247.845 401.516 248.857Z" fill="white"/>
<path d="M360.153 316.333C370.864 315.723 381.585 316.02 392.284 315.464C392.28 315.464 392.28 315.464 392.276 315.464C392.288 315.464 392.295 315.464 392.307 315.46H392.303C393.158 315.507 394.932 315.113 393.537 314.225C393.537 314.221 393.537 314.221 393.537 314.221C384.694 314.19 375.913 312.553 367.059 313.476C365.18 313.997 358.665 312.356 358.808 314.958C358.858 315.638 359.423 316.352 360.153 316.333Z" fill="white"/>
<path d="M260.425 240.305C262.857 239.266 259.578 234.467 259.98 232.331C259.98 232.351 259.98 232.37 259.98 232.393C260.046 224.458 262.373 216.57 266.391 209.743C268.977 204.924 268.471 199.376 268.138 194.117C268.007 193.449 268.332 191.132 267.16 191.827C266.87 194.781 266.951 197.862 266.611 200.851C266.615 200.82 266.619 200.789 266.623 200.758C266.313 204.542 264.763 207.99 262.625 211.083C260.676 215.763 258.58 220.558 257.985 225.632C257.695 228.93 257.069 232.343 258.031 235.583C258.739 237.054 258.271 240.247 260.425 240.305Z" fill="white"/>
<path d="M357.783 188.684C361.584 187.333 353.646 184.151 352.691 182.892C350.29 180.9 347.78 179.066 345.074 177.51C343.875 176.981 342.213 174.471 341.057 176.193C340.415 178.834 346.029 180.432 347.726 181.95C350.704 184.077 353.661 186.213 356.863 188.001C357.014 188.383 357.358 188.696 357.783 188.684Z" fill="white"/>
<path d="M308.238 180.568C312.951 178.737 317.796 177.239 322.567 175.563C323.51 175.965 323.94 174.278 322.996 174.019C321.585 174.127 320.193 174.783 318.797 175.096C315.024 176.641 310.538 176.953 307.124 179.112C306.769 179.803 307.437 180.842 308.238 180.568Z" fill="white"/>
<path d="M324.087 310.989C325.166 294.162 326.248 277.292 325.514 260.426C325.514 260.434 325.514 260.438 325.514 260.445C325.514 260.414 325.514 260.38 325.514 260.349C325.514 260.356 325.514 260.36 325.514 260.368C324.899 239.394 327.25 218.539 327.926 197.6C328.22 191.391 329.21 185.24 329.74 179.054C327.679 175.266 327.961 185.159 327.59 186.143C327.594 186.109 327.598 186.074 327.602 186.039C327.509 186.861 327.416 187.688 327.323 188.514C327.327 188.479 327.331 188.445 327.335 188.41C325.73 214.608 323.24 240.853 324.559 267.121C324.559 267.11 324.559 267.098 324.559 267.087C324.559 267.117 324.559 267.148 324.559 267.179C324.559 267.175 324.559 267.172 324.559 267.168C324.837 279.203 324.265 291.231 323.611 303.247C323.789 304.139 322.084 313.634 324.087 310.989Z" fill="white"/>
<path d="M411.748 125.738C412.773 123.421 406.834 120.298 405.237 118.892C398.138 113.448 395.957 110.725 395.841 101.567C395.567 90.5968 384.513 91.1721 383.047 81.3414C383.051 81.3762 383.055 81.407 383.059 81.4379C382.827 79.7197 382.576 77.9898 382.081 76.3218C382.088 76.3527 382.096 76.3797 382.108 76.4106C382.065 76.2677 382.026 76.121 381.984 75.9781C381.992 76.009 381.999 76.0361 382.007 76.067C380.584 70.611 377.41 73.9471 379.757 74.0977C379.838 74.1247 379.908 74.1827 379.973 74.2329C379.973 74.2329 379.973 74.2329 379.97 74.229C379.977 74.2367 379.985 74.2406 379.993 74.2483C379.989 74.2444 379.985 74.2406 379.977 74.2367C379.993 74.2522 380.008 74.2676 380.024 74.2831C379.993 74.2522 379.966 74.2251 379.927 74.202C381.149 75.6229 381.238 77.7118 381.628 79.4803C381.624 79.461 381.624 79.4455 381.62 79.4262C381.624 79.4571 381.628 79.488 381.632 79.5189C381.632 79.5112 381.628 79.5035 381.628 79.4957C381.918 83.7817 383.604 88.2646 387.173 90.871C387.161 90.8632 387.15 90.8555 387.138 90.8478C387.254 90.9366 387.37 91.0215 387.482 91.1104C387.478 91.1065 387.47 91.1026 387.467 91.0988C387.528 91.1451 387.59 91.1914 387.648 91.2378C387.617 91.2146 387.586 91.1915 387.559 91.1683C398.807 97.2806 389.237 110.648 399.816 117.286C402.913 120.278 407.012 121.912 410.097 124.885C410.565 125.294 411.044 126.225 411.748 125.738Z" fill="white"/>
<path d="M399.549 134.105C400.786 133.545 399.831 132.043 399.835 131.055C399.843 131.113 399.851 131.167 399.858 131.225C398.764 120.39 384.837 118.386 385.046 106.768C384.713 103.316 383.956 99.9061 381.458 97.3422C381.265 97.0835 380.909 96.9368 380.627 97.1607C379.923 97.9291 381.187 98.7052 381.554 99.3384C383.731 102.007 383.159 105.663 383.739 108.849C383.731 108.806 383.727 108.76 383.72 108.717C383.751 108.914 383.778 109.115 383.809 109.312C383.809 109.304 383.805 109.297 383.805 109.293C383.658 119.328 396.468 122.008 397.759 131.344C397.979 132.375 398.014 134.445 399.549 134.105Z" fill="white"/>
<path d="M413.979 147.84C415.896 147.438 413.805 143.094 413.874 141.635C413.41 138.943 412.877 136.048 410.804 134.086C410.808 134.09 410.816 134.098 410.82 134.101C410.8 134.082 410.785 134.067 410.766 134.047C410.769 134.051 410.773 134.055 410.777 134.059C410.159 133.665 409.176 132.09 408.461 132.858C408.241 133.325 408.685 133.638 409.033 133.854C414.203 136.866 411.063 146.291 413.979 147.84Z" fill="white"/>
<path d="M428.385 144.558C428.567 139.774 427.446 134.8 423.726 131.511C423.46 131.221 423.007 131.136 422.721 131.449C422.056 133.121 424.917 134.098 425.435 135.607C425.435 135.604 425.431 135.603 425.431 135.6C426.928 138.229 426.816 141.364 426.669 144.291C426.549 145.427 428.308 145.847 428.385 144.558Z" fill="white"/>
<path d="M447.695 186.584C449.902 185.977 447.648 182.367 447.223 180.965C444.481 175.208 438.558 172.644 433.996 168.694C434.026 168.725 434.061 168.76 434.092 168.791C434.019 168.718 433.945 168.644 433.872 168.571C433.88 168.575 433.883 168.582 433.891 168.586C433.814 168.509 433.737 168.432 433.659 168.355C433.671 168.366 433.682 168.378 433.69 168.385C433.655 168.351 433.617 168.312 433.582 168.277C433.613 168.308 433.644 168.339 433.679 168.37C432.089 166.872 431.536 164.706 430.918 162.686C430.918 162.69 430.922 162.694 430.922 162.698C430.914 162.663 430.902 162.628 430.891 162.597C430.898 162.617 430.902 162.632 430.906 162.652C430.121 161.346 430.643 157.041 429.387 156.79C428.366 158.176 429.982 163.988 430.446 165.891C433.025 173.895 444.126 175.251 446.183 183.788C446.566 184.753 446.306 186.487 447.695 186.584Z" fill="white"/>
<path d="M456.746 207.075C457.172 205.507 455.327 197.488 453.239 198.333C452.857 198.638 452.88 199.198 453.116 199.58C454.26 201.608 455.03 203.994 454.921 206.338C454.925 206.291 454.933 206.241 454.937 206.195C454.434 207.45 456.34 208.639 456.746 207.075Z" fill="white"/>
<path d="M305.477 115.633C305.806 112.397 304.549 109.158 303.378 106.192C302.307 103.848 299.828 102.099 300.006 99.2921C299.933 98.6241 300.068 97.5276 299.14 97.4735C298.711 97.4735 298.456 97.8867 298.487 98.2844C298.158 102.304 301.506 104.91 302.488 108.528C303.045 110.633 303.672 112.799 303.42 114.992C303.115 116.309 305.145 117.177 305.477 115.633Z" fill="white"/>
<path d="M294.67 122.085C298.084 118.363 298.274 113.451 296.913 108.791C296.592 106.358 294.38 106.127 295.096 108.115C295.088 108.107 295.084 108.1 295.076 108.092C296.341 111.359 297.041 115.861 294.442 118.649C294.473 118.61 294.5 118.575 294.527 118.54C294.431 118.664 294.334 118.788 294.237 118.911C294.245 118.903 294.249 118.892 294.257 118.884C293.816 119.444 293.371 120.004 292.938 120.575C292.153 121.622 293.793 123.298 294.67 122.085Z" fill="white"/>
<path d="M286.667 125.054C286.698 124.977 286.729 124.904 286.756 124.831C286.744 124.858 286.733 124.885 286.721 124.912C286.733 124.877 286.748 124.846 286.76 124.815C286.756 124.823 286.752 124.831 286.748 124.838C286.76 124.811 286.771 124.784 286.779 124.757C286.779 124.761 286.775 124.765 286.775 124.769C286.814 124.676 286.849 124.583 286.891 124.495C287.661 123.989 286.566 122.888 286.048 123.695C285.097 124.302 285.712 126.097 286.667 125.054Z" fill="white"/>
<path d="M302.121 124.413C302.11 123.483 302.721 121.772 301.592 121.355C300.339 121.432 301.163 123.205 300.791 124C300.583 124.85 301.92 125.406 302.121 124.413Z" fill="white"/>
<path d="M352.865 26.9364C353.005 23.5848 345.372 19.963 342.534 18.9243C341.235 18.7274 339.507 16.4106 338.443 17.7853C337.914 20.8897 347.178 21.4727 349.161 23.9748C349.138 23.9555 349.111 23.9362 349.088 23.9169C350.027 24.6621 351.025 25.3649 351.829 26.2645C351.814 26.2414 351.794 26.2221 351.779 26.1989C351.833 26.2684 351.891 26.3341 351.93 26.4113C351.794 26.921 352.525 27.4499 352.865 26.9364Z" fill="white"/>
<path d="M344.312 26.9055C345.151 25.5309 338.323 22.4805 337.117 21.5963C336.637 21.2642 335.887 21.0557 335.655 21.7739C335.002 23.1639 341.698 25.1679 342.939 26.2452C342.92 26.2336 342.897 26.222 342.878 26.2104C343.376 26.3649 343.775 27.1951 344.312 26.9055Z" fill="white"/>
<path d="M334.167 26.6777C333.401 25.2066 330.981 24.6274 329.712 23.415C329.388 23.1987 328.958 23.303 328.788 23.6582C328.432 25.0985 330.733 25.3649 331.576 26.1333C332.303 26.3457 333.834 27.9867 334.167 26.6777Z" fill="white"/>
<path d="M298.034 21.2061C299.016 20.3682 300.888 19.762 300.98 18.3217C300.911 17.7541 300.049 17.6537 299.994 18.2831C299.283 19.2793 296.747 19.3836 297.149 20.8663C297.288 21.1791 297.713 21.3991 298.034 21.2061Z" fill="white"/>
<path d="M302.326 25.7125C303.254 25.0214 305.029 22.9865 303.265 22.2799C302.365 22.2451 302.307 23.7587 301.282 24.1758C300.455 24.8051 301.433 26.3883 302.326 25.7125Z" fill="white"/>
<path d="M128.54 219.686C130.757 218.859 132.89 217.685 135.119 216.945C137.337 215.843 143.049 215.411 143.097 212.393C139.434 202.095 133.866 192.915 128.085 183.645C131.623 182.992 125.495 178.811 124.521 177.843C121.688 175.471 115.191 176.136 114.81 171.357L114.813 171.357C116.608 169.999 123.258 172 125.713 172.6C131.084 174.14 135.89 175.787 140.609 179.101L140.558 179.063C142.618 180.417 144.634 181.794 146.722 183.136L146.69 183.109C146.701 183.117 146.713 183.124 146.724 183.132C146.709 183.122 146.697 183.114 146.682 183.104C149.841 185.072 155.75 189.848 158.761 192.059C160.065 192.701 161.038 194.333 162.5 194.5C166.807 192.654 142.5 176.5 139.279 175.049C136.34 173.38 132.683 172.146 129.503 170.904C127.216 169.89 125.011 169.264 122.41 168.679C121.79 168.531 121.164 168.386 120.54 168.253C119.998 168.096 119.319 167.762 118.865 168.237C118.837 168.233 118.782 168.222 118.755 168.221C116.329 162.396 112.588 156.779 110.058 151.073C108.793 149.071 107.836 144.803 105.98 143.661C104.958 143.311 103.804 143.901 102.806 144.16C102.489 143.235 102.078 142.336 101.693 141.439L101.696 141.438C100.207 138.01 98.5743 134.859 97.0985 131.322C95.6012 129.025 91.2578 131.197 89.6393 132.617C88.1795 135.56 94.11 143.726 95.0567 147.229C90.5247 148.907 92.4951 151.506 94.0346 154.78C96.5527 159.619 98.7169 165.323 101.48 170.203C94.7925 170.099 96.6442 174.883 100.898 177.341C94.9588 178.655 98.2252 183.464 102.221 184.835C99.4777 187.699 103.603 190.224 105.981 191.212C107.421 191.855 111.319 194.246 110.559 190.826C108.89 188.844 105.587 188.803 103.617 187.08C109.092 182.092 101.595 183.896 99.6062 180.541L99.6093 180.54L99.6024 180.492L99.6055 180.491C100.665 179.24 102.91 179.758 104.091 178.734C105.288 176.072 99.8524 175.087 99.0186 172.924C99.8733 172.022 101.257 171.963 102.448 172.045C104.819 176.912 106.643 182.035 109.201 186.796C113.119 194.145 117.187 201.386 120.891 208.855L120.865 208.797C120.961 208.982 121.158 209.362 121.258 209.55L121.229 209.49C122.056 211.14 123.005 212.78 123.954 214.424C125.078 216.376 125.766 220.628 128.54 219.686Z" fill="#231F20"/>
<path d="M84.1524 136.678C86.4672 136.405 88.7919 136.525 91.1166 136.454C91.006 136.463 90.8987 136.473 90.7882 136.483C92.7714 136.122 96.0129 135.752 96.3576 133.32C106.55 130.599 116.06 124.245 122.299 115.722C128.88 106.794 134.44 96.9005 137.076 86.0657C137.054 86.1567 137.031 86.2476 137.008 86.3385C151.551 30.483 92.1765 -14.265 40.966 7.70312C40.992 7.69337 41.0147 7.68039 41.0407 7.67065C25.6298 14.1059 13.366 27.0056 6.60992 42.1489C3.70006 48.0777 0.98201 54.2824 0.357773 60.9222C-2.66589 87.7833 13.831 114.502 36.6548 127.882C50.9148 136.454 67.8798 137.908 84.1524 136.678ZM72.7242 132.314C54.735 133.531 36.7198 126.255 24.0854 113.508C24.0984 113.521 24.1114 113.534 24.1244 113.547C17.0334 106.628 11.6982 98.144 7.7999 89.0788C7.83891 89.1697 7.87793 89.2639 7.91693 89.3548C5.498 83.2962 3.93091 76.8122 3.57327 70.2926C3.57327 70.3315 3.57327 70.3737 3.57652 70.4127C3.57652 70.3185 3.57326 70.2211 3.57001 70.127C3.57001 70.1594 3.57327 70.1919 3.57327 70.2244C3.56676 69.8737 3.56024 69.5231 3.55049 69.1757C3.55374 69.2276 3.55374 69.2796 3.55374 69.3283C3.11807 60.0228 5.73532 51.0225 10.131 42.8795C13.1059 36.3987 16.9131 30.3531 21.9558 25.2718C44.0806 0.193161 85.1115 -0.154252 110.608 20.0152C133.887 37.0546 142.779 71.0004 128.805 96.6148C120.482 113.31 112.731 122.969 95.2521 130.567C93.5647 129.112 91.666 130.879 89.9721 131.385C84.2336 131.853 78.5017 132.476 72.7242 132.314Z" fill="#231F20"/>
<path d="M80.2083 126.612C81.899 126.473 95.0145 124.869 94.4716 123.281C107.119 118.947 114.915 107.521 119.974 95.7285C124.204 85.6275 127.66 74.8155 126.828 63.7535C126.828 63.7665 126.828 63.7827 126.828 63.7957C126.233 40.3795 107.203 20.6711 85.6672 13.6579C65.4249 7.06033 40.2016 14.7651 26.9267 31.3792C26.9365 31.3662 26.9462 31.3565 26.9527 31.3435C19.2603 40.4249 14.611 52.3668 14.9849 64.3185C14.9849 64.2828 14.9849 64.2438 14.9849 64.2081C14.9881 64.3996 14.9914 64.588 14.9946 64.7795C14.9946 64.7438 14.9946 64.7048 14.9914 64.6691C15.2157 71.1693 16.2236 77.7539 18.649 83.8158C18.6458 83.8093 18.6425 83.8028 18.6425 83.7963C18.6588 83.8353 18.6751 83.871 18.6913 83.9099C18.6881 83.8969 18.6815 83.8872 18.6783 83.8742C18.7076 83.9456 18.7401 84.0138 18.7693 84.0853C18.7661 84.0788 18.7628 84.069 18.7596 84.0625C18.7758 84.1015 18.7921 84.1372 18.8084 84.1762C18.8051 84.1697 18.8051 84.1664 18.8018 84.1599C24.3322 97.3746 31.9369 111.32 45.2801 117.94C56.2043 122.882 68.0584 127.099 80.2083 126.612ZM79.2069 124.707C74.8015 124.713 70.3635 124.476 66.0784 123.398C66.1044 123.405 66.1336 123.411 66.1596 123.418C60.6683 122.106 55.3199 120.317 49.9944 118.466C50.0269 118.479 50.0594 118.492 50.0887 118.502C49.8806 118.421 49.6823 118.339 49.4709 118.258C49.4872 118.265 49.5067 118.271 49.523 118.278C49.4352 118.245 49.3474 118.21 49.2628 118.174C49.2791 118.18 49.2921 118.184 49.3051 118.19C47.2601 117.349 45.267 116.385 43.3293 115.32C43.3358 115.323 43.3391 115.326 43.3456 115.33C29.6968 107.128 20.0503 87.923 17.134 72.6401C17.1372 72.6791 17.1437 72.7148 17.1502 72.7538C16.7308 69.942 16.4187 67.1075 16.3992 64.26C16.3992 64.2957 16.3992 64.3347 16.3992 64.3704C16.1066 53.9383 19.8585 43.4023 26.2082 35.165C26.205 35.1683 26.205 35.1715 26.2017 35.1715C26.2245 35.1423 26.2505 35.1098 26.2732 35.0806C26.2667 35.0903 26.2602 35.1001 26.2505 35.1098C36.2416 21.3822 52.8002 14.0898 69.4792 13.0865C69.4434 13.0897 69.4077 13.093 69.3719 13.0962C71.5795 12.9501 73.8001 12.8722 76.0077 13.041C76.0044 13.041 76.0012 13.041 75.9979 13.041C80.5335 13.4242 84.9259 14.7878 89.1753 16.3658C89.1557 16.3593 89.1363 16.3496 89.1135 16.3431C94.5203 18.4762 99.5728 21.551 104.268 24.9602C104.261 24.9537 104.255 24.9504 104.248 24.944C110.63 29.7882 115.748 36.1878 119.877 43.0094C119.874 43.0062 119.874 43.0029 119.87 43.0029C123.219 49.4771 125.404 56.7598 125.511 64.0717C125.511 64.036 125.511 64.0035 125.508 63.9678C126.331 73.835 123.239 83.3515 119.854 92.5043C119.854 92.5011 119.857 92.5011 119.857 92.4978C118.306 96.0954 116.661 99.6636 114.805 103.112C114.811 103.102 114.818 103.089 114.824 103.079C114.808 103.109 114.792 103.135 114.776 103.164C114.785 103.147 114.792 103.135 114.802 103.118C109.97 111.112 104.915 117.132 96.0647 120.788C94.8975 121.573 90.7912 121.966 90.7521 123.323C86.9254 123.908 83.0824 124.547 79.2069 124.707Z" fill="#231F20"/>
<path d="M31.0606 327.95L30.1074 321.754L48.219 341.772L61.5644 356.071L64.4241 357.024H73.4799L94.4513 357.977L126.862 358.454C129.88 358.771 136.108 359.407 136.871 359.407C137.633 359.407 138.459 360.678 138.777 361.313L140.207 368.463L136.871 373.229L134.487 376.565L147.833 386.574L151.169 388.958C151.328 390.705 151.551 394.391 151.169 395.154C150.788 395.916 149.739 399.284 149.263 400.873C148.151 401.509 145.831 402.78 145.45 402.78H140.207H126.862C103.984 401.191 58.0374 398.013 57.2748 398.013H52.9852L43.9294 386.574C39.0043 380.537 29.0588 368.272 28.6775 367.51C28.2962 366.747 21.8459 357.342 18.6685 352.734L20.0983 351.781L21.0516 349.398L22.0048 346.538L22.958 341.772H32.9671L28.6775 333.669L30.1074 331.286L31.0606 327.95Z" fill="white"/>
<path d="M135.483 359.784C136.394 359.917 137.169 359.059 136.791 358.181C136.351 357.286 135.322 356.881 134.612 356.221C134.622 356.231 134.634 356.237 134.643 356.246C122.435 346.568 111.548 335.116 98.1654 326.93C98.1499 326.469 97.5827 326.413 97.2325 326.336C96.25 325.698 94.9731 325.02 93.8326 325.658C86.1682 324.346 78.3922 323.925 70.6441 323.532C60.1904 322.609 49.7522 321.464 39.3078 320.433C36.3604 319.914 33.3882 319.641 30.4192 319.26C29.102 318.809 27.6082 319.223 28.29 320.901C29.7125 322.167 31.6124 323.027 33.0442 324.42C37.6218 332.798 46.5166 337.97 52.9413 344.894C55.8484 347.899 58.5912 351.05 61.4115 354.132C62.7163 355.287 63.6182 357.193 65.3227 357.756C66.2928 357.908 66.9127 356.782 66.6182 355.937C73.5698 355.519 80.4811 355.68 87.4296 356.212C87.3862 356.209 87.3459 356.206 87.3025 356.203C87.3676 356.206 87.4327 356.215 87.5009 356.218C87.4978 356.218 87.4978 356.218 87.4947 356.218C100.146 357.107 112.797 357.435 125.414 358.849C125.411 358.849 125.408 358.849 125.405 358.849C125.662 358.868 125.916 358.886 126.173 358.905C126.12 358.902 126.071 358.899 126.018 358.895C129.192 359.032 132.322 359.629 135.483 359.784Z" fill="#4263a3"/>
<path d="M96.3339 328.595C100.747 321.455 61.1173 322.161 56.5924 321.405C50.8898 321.214 45.2244 320.57 39.5249 320.356C38.8214 320.335 38.3999 321.056 38.4526 321.684C38.9113 323.928 42.1562 322.863 43.8298 323.29C43.7957 323.287 43.7616 323.287 43.7306 323.284C44.3938 323.337 45.0539 323.396 45.7172 323.445C45.6583 323.442 45.5994 323.436 45.5405 323.433C49.8578 323.888 54.1936 324.117 58.5232 324.423C58.5015 324.42 58.4829 324.42 58.4612 324.417C58.5232 324.423 58.5852 324.426 58.6503 324.432C58.641 324.432 58.6286 324.432 58.6193 324.429C70.9852 325.299 83.5031 325.531 95.7791 327.041C95.8814 327.329 96.0271 327.76 95.8318 328.019C95.5095 328.326 96.024 328.948 96.3339 328.595Z" fill="#4263a3"/>
<path d="M110.798 364.108C110.81 364.105 110.826 364.101 110.835 364.098C111.439 363.863 111.142 362.876 110.531 362.944C109.62 363.136 107.602 362.09 107.426 363.427C107.733 364.631 109.831 363.919 110.798 364.108Z" fill="#231F20"/>
<path d="M143.612 391.824C144.223 391.811 144.837 391.78 145.444 391.725C145.441 391.725 145.435 391.725 145.432 391.725C147.201 391.817 146.21 389.375 145.032 390.338C143.535 390.428 142.057 390.131 140.575 390.004C140.609 390.007 140.643 390.01 140.681 390.013C140.578 390.007 140.476 389.998 140.374 389.988C140.408 389.991 140.445 389.994 140.479 389.998C140.337 389.985 140.191 389.979 140.045 389.967C140.051 389.967 140.058 389.967 140.064 389.967C140.027 389.964 139.993 389.96 139.955 389.96C139.968 389.96 139.98 389.96 139.99 389.964C139.965 389.96 139.94 389.96 139.915 389.957C139.928 389.957 139.94 389.957 139.952 389.96C139.853 389.954 139.754 389.948 139.652 389.939C139.658 389.939 139.667 389.939 139.673 389.939C138.223 389.933 132.595 388.698 132.452 390.629C132.489 391.065 132.846 391.511 133.314 391.505C135.31 391.393 137.293 391.316 139.283 391.604C139.246 391.601 139.208 391.598 139.174 391.595C139.336 391.607 139.494 391.619 139.655 391.629C139.633 391.626 139.611 391.626 139.59 391.626C140.287 391.675 140.987 391.666 141.685 391.722C141.679 391.722 141.669 391.722 141.663 391.722C141.697 391.725 141.731 391.728 141.765 391.728C141.753 391.728 141.741 391.725 141.725 391.725C141.799 391.731 141.877 391.737 141.951 391.74C141.945 391.74 141.939 391.74 141.933 391.74C142.491 391.787 143.052 391.836 143.612 391.824Z" fill="#231F20"/>
<path d="M142.503 395.216C146.334 395.238 145.262 392.817 144.025 393.715C139.792 394.287 135.555 392.7 131.3 393.198C130.311 393.393 130.612 395.024 131.563 394.996C132.105 394.965 132.654 394.974 133.196 394.978C136.305 394.909 139.404 395.488 142.503 395.216Z" fill="#231F20"/>
<path d="M141.465 398.716C145.441 398.667 143.739 396.41 143.417 397.574C142.605 397.757 141.756 397.686 140.932 397.645C140.947 397.645 140.966 397.648 140.981 397.648C139.208 397.828 132.182 395.306 131.987 397.732C132.027 398.237 132.421 398.701 132.948 398.71C135.79 398.54 138.629 399.007 141.465 398.716Z" fill="#231F20"/>
<path d="M145.515 404.318C151.494 403.037 154.392 395.788 152.349 390.347C152.349 390.353 152.352 390.36 152.355 390.366C152.346 390.329 152.334 390.288 152.321 390.248C152.324 390.264 152.331 390.282 152.334 390.298C151.866 388.332 150.632 386.717 149.585 385.058C149.622 385.107 149.659 385.157 149.696 385.203C146.086 381.158 141.688 377.868 138.028 373.86C143.988 370.715 141.979 357.333 134.591 358.19C133.075 358.01 131.553 357.908 130.035 357.797C129.988 357.794 129.942 357.791 129.898 357.787C129.898 357.787 129.901 357.787 129.905 357.787C128.944 357.716 127.983 357.648 127.022 357.58C127.072 357.583 127.121 357.586 127.171 357.593C126.768 357.562 126.362 357.534 125.956 357.503C126.006 357.506 126.055 357.509 126.105 357.515C125.411 357.463 124.716 357.407 124.022 357.354C124.022 357.354 124.022 357.354 124.025 357.354C123.976 357.348 123.917 357.345 123.87 357.342C114.771 356.642 105.631 356.862 96.5165 356.466C85.4709 356.104 74.3942 354.597 63.3516 355.578C62.4559 354.559 61.4208 353.68 60.46 352.73C60.4631 352.733 60.4631 352.733 60.4662 352.736C59.1212 351.344 57.8753 349.858 56.4806 348.512C50.2884 342.349 44.7066 335.621 38.4152 329.548C38.4617 329.595 38.5081 329.641 38.5546 329.688C36.3232 327.122 33.5463 324.909 31.6712 322.105C31.6867 322.13 31.7022 322.158 31.7177 322.182C31.132 321.328 30.6361 320.109 29.5359 319.858C28.2001 319.712 27.9831 321.316 28.4139 322.26C29.5328 325.367 31.2838 330.514 27.822 332.674C26.5172 332.634 26.26 334.349 27.2238 335.014C28.6495 336.166 29.7435 337.651 30.8654 339.084C28.0947 338.728 14.2257 335.352 20.3745 341.715C21.3477 344.884 22.2186 349.935 18.2795 351.325C14.2938 352.47 20.827 357.218 21.5522 359.205C25.5998 364.392 29.2415 369.892 33.351 375.048C33.351 375.048 33.351 375.048 33.351 375.045C33.3789 375.086 33.4099 375.12 33.4378 375.157C37.5908 380.787 42.1436 386.095 46.5507 391.526C47.9577 392.557 53.5859 401.573 54.8256 398.967C73.0584 401.359 91.4741 402.124 109.825 403.399H109.822C109.949 403.408 110.079 403.418 110.206 403.43C110.153 403.427 110.097 403.421 110.045 403.418C110.169 403.427 110.296 403.436 110.423 403.445C110.417 403.445 110.407 403.445 110.401 403.445C110.466 403.449 110.531 403.455 110.596 403.458C110.593 403.458 110.593 403.458 110.59 403.458C122.197 404.25 133.915 404.083 145.515 404.318ZM149.885 388.766C151.286 393.198 150.815 399.103 146.117 401.332C142.112 402.56 137.724 401.291 133.586 401.489C125.569 401.527 117.539 401.65 109.546 400.849C109.602 400.852 109.654 400.858 109.71 400.861C109.347 400.833 108.985 400.805 108.625 400.778C108.678 400.781 108.734 400.787 108.786 400.79C98.2459 399.982 87.6837 399.425 77.1773 398.286C77.2362 398.289 77.2951 398.295 77.354 398.298C77.1525 398.283 76.9479 398.267 76.7434 398.252C76.8023 398.255 76.8643 398.261 76.9232 398.264C72.1906 397.899 67.4457 397.698 62.7132 397.358C62.6171 397.268 62.5024 397.206 62.3784 397.187V397.184C61.8485 397.128 61.3154 397.082 60.7978 396.927C60.7669 395.86 59.6356 395.708 58.7895 395.822C60.739 391.997 60.1563 387.073 58.3556 383.287C64.8361 383.993 71.3445 384.281 77.8436 384.739C77.7941 384.736 77.7445 384.733 77.6949 384.727C83.788 384.971 89.8346 385.745 95.9184 386.129H95.9153C95.9587 386.132 96.002 386.135 96.0454 386.138H96.0423C106.815 387.274 117.579 388.8 128.436 388.837C135.486 388.735 142.528 388.097 149.563 387.85C149.684 388.153 149.792 388.453 149.885 388.766ZM46.749 383.975C46.3864 384.265 46.5414 384.99 46.9412 385.175C49.309 388.883 52.0208 392.359 54.6613 395.872C54.3049 396.082 53.8804 396.259 53.7626 396.698C48.3823 390.883 43.346 384.767 38.3253 378.642C38.3284 378.648 38.3346 378.654 38.3377 378.66C38.3098 378.623 38.2788 378.586 38.2509 378.549C38.2571 378.558 38.2664 378.568 38.2726 378.577C37.1941 377.144 36.1403 375.686 35.0308 374.278C35.0277 374.275 35.0246 374.272 35.0215 374.269C35.0215 374.269 35.0215 374.269 35.0215 374.272C35.0122 374.256 34.9998 374.244 34.9905 374.228C34.9905 374.231 34.9936 374.231 34.9936 374.234C34.9905 374.231 34.9874 374.225 34.9843 374.222C34.9843 374.225 34.9874 374.225 34.9905 374.228C34.9874 374.222 34.9812 374.219 34.9781 374.213C34.9781 374.213 34.9781 374.213 34.975 374.21C34.9688 374.2 34.9626 374.191 34.9564 374.185L34.9595 374.188C34.9006 374.114 34.8449 374.04 34.786 373.962C34.7891 373.965 34.7922 373.971 34.7953 373.975C34.7643 373.937 34.7364 373.9 34.7085 373.863C34.7116 373.869 34.7147 373.872 34.7178 373.875C34.7147 373.872 34.7147 373.872 34.7116 373.869C34.7116 373.869 34.7116 373.872 34.7147 373.872C34.7147 373.869 34.7116 373.869 34.7116 373.866C34.6868 373.832 34.6589 373.798 34.6341 373.764C34.6434 373.776 34.6527 373.789 34.662 373.798C29.5669 367.292 25.0699 360.372 19.9964 353.86C20.0119 353.878 20.0274 353.897 20.0398 353.916C19.9034 353.742 19.7702 353.566 19.6369 353.386C19.795 353.312 19.953 353.235 20.1111 353.164C20.0615 353.185 20.0119 353.207 19.9654 353.229C23.4273 351.817 23.6473 347.37 22.7733 344.234C34.0732 356.376 44.5548 369.286 55.6593 381.616C54.6924 382.068 55.4672 383.343 56.3907 383.062C57.085 383.999 57.3267 385.169 57.5158 386.299C56.0343 384.16 54.0012 382.486 52.4082 380.434C51.8783 380.022 49.9164 376.779 49.4763 378.1C52.0487 381.774 55.2564 385.129 57.7389 388.924C57.7637 389.722 57.7792 390.53 57.6459 391.322C55.6252 388.97 53.8989 386.392 51.9154 384.009C51.9247 384.021 51.9341 384.036 51.9464 384.049C50.8183 382.891 50.1427 380.873 48.5621 380.344C47.592 380.288 47.6137 381.802 48.4691 381.966C49.8111 383.69 51.057 385.488 52.4516 387.172C52.4268 387.141 52.3989 387.107 52.3741 387.073C53.8959 389.199 55.5632 391.211 57.2399 393.216C57.1005 393.869 56.7564 394.457 56.2141 394.857C53.5921 391.245 50.8803 387.713 47.8214 384.457C47.5672 384.17 47.1736 383.671 46.749 383.975ZM106.521 384.702C106.158 384.674 105.796 384.662 105.433 384.628C105.793 384.649 106.155 384.674 106.521 384.702ZM124.682 372.127C128.37 372.365 132.071 372.402 135.762 372.585C131.095 374.42 125.783 372.997 120.88 373.133C113.398 373.176 105.913 373.362 98.4411 372.922C92.0226 372.712 85.632 373.383 79.2135 373.352C72.9283 373.21 66.6864 372.238 60.4229 371.743C65.3909 369.292 65.9085 362.938 63.5996 358.425C73.1173 357.441 82.7032 358.651 92.2272 359.019C106.298 359.595 120.396 359.75 134.473 359.88C134.693 360.087 135.121 360.118 135.347 359.861C137.113 360.239 138.077 362.173 138.843 363.665C136.661 363.628 134.526 363.275 132.362 363.037C132.365 363.037 132.368 363.037 132.372 363.037C130.769 363.21 119.305 361.802 119.903 363.581C120.223 365.144 123.39 364.101 124.636 364.405C129.279 364.38 133.915 364.804 138.551 364.686C138.7 364.866 138.948 364.841 139.147 364.77C139.143 364.77 139.14 364.773 139.134 364.773C139.162 364.767 139.19 364.757 139.215 364.748C139.407 365.479 139.416 366.237 139.391 366.986C135.775 366.899 132.176 366.423 128.556 366.364C128.591 366.367 128.625 366.37 128.662 366.373C128.532 366.364 128.401 366.355 128.271 366.342C128.305 366.345 128.343 366.348 128.377 366.351C128.318 366.348 128.259 366.342 128.2 366.339C128.234 366.342 128.271 366.342 128.305 366.345C128.039 366.324 127.772 366.305 127.509 366.283H127.512C124.701 366.358 121.623 365.615 118.93 366.265C118.472 366.76 118.856 367.729 119.547 367.723C126.13 367.537 132.855 368.818 139.376 367.605C139.274 368.954 139.147 370.524 137.823 371.242C131.646 370.601 125.442 370.022 119.218 370.236C118.713 370.245 118.406 370.719 118.447 371.192C118.794 373.105 123.151 371.712 124.682 372.127ZM51.7481 359.502C50.3317 360.873 56.741 367.642 57.7482 369.304C57.3949 369.44 57.0385 369.58 56.6728 369.688C49.6623 359.976 42.8533 350.127 35.1951 340.889C35.2323 340.938 35.2725 340.988 35.3097 341.04C34.8511 340.449 34.3954 339.855 33.9368 339.264C33.9368 339.267 33.9399 339.27 33.943 339.273C33.9368 339.264 33.9306 339.258 33.9244 339.248C33.9275 339.251 33.9275 339.254 33.9306 339.258C33.9027 339.22 33.8748 339.183 33.8438 339.146C33.8438 339.149 33.8469 339.149 33.8469 339.152C33.8438 339.149 33.8438 339.146 33.8407 339.143L33.8438 339.146C33.8407 339.143 33.8407 339.14 33.8376 339.137C33.8376 339.137 33.8376 339.14 33.8407 339.14C33.819 339.109 33.7942 339.078 33.7725 339.05C33.7818 339.063 33.7911 339.078 33.8035 339.09C32.539 337.5 31.259 335.915 29.8892 334.414C32.6537 332.322 32.4461 328.561 31.9564 325.485C41.0092 336.973 51.37 347.487 61.8454 357.682C62.1119 359.329 62.521 360.969 62.5675 362.641C60.8319 359.239 57.8784 356.698 55.6159 353.687C54.4382 352.374 53.4527 354.352 54.618 355.243C54.6118 355.234 54.6025 355.225 54.5963 355.212C57.1748 358.372 60.0943 361.276 62.2793 364.736C62.1181 365.37 61.9446 366.017 61.5386 366.543C59.0437 362.47 56.4744 358.391 53.3752 354.754C52.3245 353.863 51.2739 355.472 52.1324 356.336C55.0457 359.824 57.4538 363.684 60.4662 367.094C60.5654 367.218 60.6615 367.348 60.7576 367.478C60.1315 368.088 59.4249 368.654 58.6067 368.982C57.3856 366.661 55.8391 364.538 54.5064 362.285C54.5064 362.285 54.5064 362.288 54.5095 362.288C54.4816 362.244 54.4568 362.198 54.4289 362.152C54.4351 362.161 54.4382 362.167 54.4444 362.176C53.682 361.344 53.2016 358.812 51.7481 359.502Z" fill="#231F20"/>
<path d="M333.974 395.367L349.899 394.002L356.724 396.277L371.739 404.922L385.389 412.657L388.119 414.477L385.389 415.842L379.929 418.572L373.104 421.302L364.459 425.397L358.089 427.217L323.509 405.832L313.954 399.462L313.499 397.642L333.974 395.367Z" fill="white"/>
<path d="M361.657 425.877C363.145 425.173 362.278 423.28 360.965 422.934C357.642 420.877 354.414 418.67 351.089 416.614C339.725 409.718 328.159 403.117 317.286 395.45C320.538 395.131 323.789 394.823 327.044 394.522C327.032 394.522 327.023 394.525 327.011 394.525C327.056 394.522 327.1 394.516 327.141 394.513C327.138 394.513 327.136 394.513 327.133 394.513C327.437 394.487 327.742 394.46 328.047 394.433C328.044 394.433 328.041 394.433 328.038 394.433C328.082 394.431 328.124 394.425 328.168 394.422C328.165 394.422 328.165 394.422 328.162 394.422C328.529 394.389 328.893 394.357 329.26 394.327C329.257 394.327 329.257 394.327 329.254 394.327C329.298 394.324 329.34 394.318 329.384 394.315C329.381 394.315 329.381 394.315 329.378 394.315C337.322 393.721 345.275 392.356 353.249 392.548C356.991 393.751 360.29 396.05 363.79 397.814C363.764 397.799 363.74 397.784 363.713 397.769C363.882 397.867 364.051 397.967 364.225 398.059C364.172 398.026 364.119 397.997 364.065 397.967C364.172 398.026 364.278 398.088 364.382 398.147C364.373 398.142 364.367 398.139 364.358 398.133C364.45 398.186 364.542 398.236 364.633 398.289C364.627 398.286 364.619 398.28 364.613 398.277C364.645 398.295 364.678 398.313 364.71 398.334C372.994 403.315 381.569 407.83 390.344 411.884C390.764 412.876 392.595 412.341 391.406 411.251C386.152 407.162 380.178 404.101 374.358 400.898C374.412 400.928 374.468 400.96 374.521 400.99C367.885 397.35 361.571 392.953 354.438 390.318C351.385 389.458 348.148 390.61 345.032 390.66C345.077 390.657 345.124 390.652 345.171 390.649C345.071 390.657 344.973 390.666 344.873 390.675C344.879 390.675 344.884 390.675 344.89 390.675C344.763 390.687 344.636 390.696 344.506 390.708C344.515 390.708 344.523 390.708 344.532 390.705C339.725 391.183 334.929 391.801 330.109 392.197C330.118 392.197 330.13 392.194 330.139 392.194C329.39 392.259 328.644 392.321 327.899 392.389C327.914 392.389 327.928 392.386 327.94 392.386C327.896 392.389 327.852 392.395 327.81 392.398C327.81 392.398 327.81 392.398 327.813 392.398C327.476 392.427 327.136 392.457 326.798 392.486C326.804 392.486 326.81 392.486 326.816 392.486C324.017 392.729 321.227 393.048 318.422 393.234C314.342 393.305 311.212 394.043 316.174 397.294C316.156 397.279 316.138 397.267 316.121 397.252C325.925 404.47 336.384 410.755 346.802 417.039C350.237 419.096 353.609 421.267 356.976 423.43C358.503 424.178 359.914 425.948 361.657 425.877Z" fill="#231F20"/>
<path d="M361.633 425.661C366.358 424.789 370.757 422.358 375.113 420.378C375.08 420.393 375.048 420.408 375.015 420.422C376.163 419.908 377.317 419.409 378.462 418.895C378.411 418.919 378.361 418.939 378.308 418.963C380.264 418.091 382.225 417.234 384.172 416.348C384.166 416.351 384.16 416.354 384.154 416.357C386.489 415.42 388.719 414.286 390.87 412.983C391.643 413.003 392.468 411.99 391.77 411.364C389.947 410.914 387.838 412.634 386.024 413.089C380.509 415.08 375.116 417.412 369.861 420.009C367.062 421.005 364.361 422.603 361.414 423.034C359.828 423.096 360.157 425.702 361.633 425.661Z" fill="#231F20"/>
<path d="M357.663 427.809C357.692 427.809 357.719 427.806 357.746 427.803C357.722 427.803 357.698 427.806 357.675 427.809C360.116 426.997 352.506 422.148 351.704 421.179C351.716 421.188 351.731 421.2 351.743 421.208C351.71 421.185 351.68 421.161 351.648 421.137C351.654 421.14 351.66 421.146 351.663 421.149C351.612 421.111 351.565 421.075 351.515 421.037C351.532 421.049 351.55 421.064 351.568 421.075C351.509 421.031 351.45 420.987 351.39 420.942C351.399 420.951 351.411 420.957 351.42 420.966C351.358 420.919 351.299 420.872 351.237 420.827C351.26 420.845 351.281 420.863 351.305 420.88C351.272 420.857 351.243 420.833 351.21 420.81C351.216 420.812 351.219 420.815 351.225 420.818C343.189 415.086 334.828 409.804 326.331 404.784C326.369 404.807 326.411 404.828 326.449 404.852C321.795 401.802 316.473 399.589 312.233 396.002C310.18 394.927 310.067 397.681 311.967 398.594C327.278 407.67 342.976 416.36 357.112 427.221C357.118 427.499 357.355 427.827 357.663 427.809Z" fill="#231F20"/>
<path d="M356.583 430.444C357.494 430.099 357.361 428.698 356.529 428.326C354.16 427.159 352.02 425.59 349.689 424.361C346.446 422.55 343.71 420.006 340.606 417.991C332.274 412.409 323.967 406.757 315.313 401.669C313.656 400.99 310.857 398.251 309.256 398.623C308.881 398.895 309.25 399.607 309.688 399.365C309.747 399.391 309.807 399.424 309.863 399.456C309.845 399.447 309.827 399.436 309.81 399.427C322.393 408.743 335.733 416.974 348.52 425.989C348.479 425.965 348.438 425.942 348.396 425.921C348.58 426.024 348.76 426.128 348.941 426.228C348.902 426.205 348.861 426.184 348.819 426.16C351.494 427.304 353.81 429.842 356.583 430.444Z" fill="#231F20"/>
<path d="M387.128 420.192C395.51 419.084 387.406 406.234 384.033 411.816C383.548 412.87 385.273 414.504 385.344 412.717C385.385 412.696 385.427 412.675 385.471 412.661C385.453 412.669 385.433 412.678 385.415 412.687C385.436 412.681 385.456 412.675 385.48 412.669C385.439 412.678 385.4 412.69 385.362 412.711C387.368 412.415 389.637 415.846 388.001 417.444C387.314 418.05 385.847 417.722 385.995 419.04C386.042 419.616 386.513 420.201 387.128 420.192Z" fill="#231F20"/>
<path d="M383.181 422.266C387.693 420.354 383.649 409.857 379.231 413.559C378.82 413.961 378.882 414.788 379.518 414.906C379.962 414.941 380.131 414.448 380.598 414.492C382.652 414.383 384.125 419.979 381.447 419.571C378.749 419.95 380.77 423.214 383.181 422.266Z" fill="#231F20"/>
<path d="M375.642 425.153C382.134 425.076 376.193 412.087 373.178 416.082C372.962 416.833 373.793 418.008 374.199 416.862C375.722 417.819 377.622 422.192 374.915 422.57C373.554 423.067 374.246 425.38 375.642 425.153Z" fill="#231F20"/>
<path d="M370.412 427.596C376.607 425.159 370.19 414.989 367.157 418.224C366.864 418.877 367.687 419.858 367.997 418.88C369.704 419.551 371.104 422.42 370.435 424.098C369.557 424.866 367.932 425.927 368.808 427.248C369.142 427.776 369.888 428.004 370.412 427.596Z" fill="#231F20"/>
<path d="M364.66 429.611C368.678 427.472 366.654 418.815 362.766 420.281C362.13 420.611 362.598 421.861 363.198 421.208C364.938 421.725 365.341 424.981 364.009 426.146C364.012 426.143 364.018 426.137 364.021 426.134C361.352 427.581 362.435 430.634 364.66 429.611Z" fill="#231F20"/>
<path d="M508.389 166.107C507.778 164.771 508.109 163.139 508.056 161.698C508.054 161.762 508.052 161.829 508.052 161.893C508.08 159.603 508.102 157.314 508.483 155.047C507.82 154.046 507.894 151.67 509.34 151.359C511.658 151.166 514.127 151.215 516.413 151.581C517.148 152.321 516.698 153.604 516.768 154.548C516.823 157.903 516.763 161.261 516.829 164.614C516.784 165.968 515.183 165.788 514.219 165.97C512.367 165.981 509.998 167.19 508.389 166.107ZM510.308 154.162C510.648 157.526 510.911 160.93 510.513 164.3C512.093 164.395 513.668 164.047 515.255 164.082C515.313 160.417 515.12 156.754 515.302 153.092C513.604 153.182 511.921 153.384 510.225 153.43C510.225 153.673 510.292 153.918 510.308 154.162Z" fill="#231F20"/>
<path d="M522.457 165.112C521.38 163.662 522.094 161.402 521.964 159.67C522.187 156.403 522.243 153.115 522.81 149.884C522.801 149.935 522.795 149.985 522.786 150.037C522.819 149.832 522.849 149.626 522.883 149.419C522.882 149.432 522.878 149.444 522.878 149.456C522.886 149.407 522.892 149.357 522.901 149.305C522.899 149.323 522.894 149.339 522.892 149.357C523.361 147.125 523.196 144.622 524.243 142.572C524.179 140.582 525.867 140.549 527.386 140.838C528.584 141.066 529.808 140.97 531.008 141.154C532.779 141.752 531.371 144.593 531.508 145.998C531.144 151.224 530.974 156.475 530.369 161.685C530.371 161.659 530.37 161.633 530.369 161.607C530.369 161.646 530.366 161.684 530.367 161.72C530.497 164.526 529.652 164.991 526.99 165.028C525.525 165.122 523.857 165.725 522.457 165.112ZM524.053 163.056C524.054 163.12 524.051 163.186 524.052 163.251C525.613 163.274 527.161 163.024 528.723 163.15C529.274 156.466 529.349 149.742 529.932 143.065C528.614 143.039 527.307 142.926 525.997 142.8C525.861 143.389 525.747 144.201 525.025 144.319C525.169 150.576 524.032 156.795 524.053 163.056Z" fill="#231F20"/>
<path d="M537.073 164.157C535.969 163.313 536.742 161.49 536.405 160.268C536.408 160.297 536.412 160.327 536.415 160.356C536.408 160.305 536.404 160.255 536.399 160.207L536.398 160.209C536.288 152.762 537.687 145.353 538.047 137.915C537.468 137.089 537.902 135.869 537.83 134.908C537.725 133.677 537.928 131.68 539.616 131.928C541.809 132.495 544.496 131.82 546.434 133.016C547.202 135.313 546.187 137.815 546.366 140.185C546.529 146.732 545.809 153.313 545.1 159.817C545.101 159.814 545.102 159.812 545.103 159.807C544.778 160.938 545.078 162.472 544.105 163.292C541.895 163.958 539.378 164.445 537.073 164.157ZM538.486 162.241C540.005 162.167 541.49 161.882 542.99 161.666C544.264 152.732 544.183 143.652 544.612 134.671C544.279 134.634 543.946 134.612 543.612 134.598C543.624 134.599 543.638 134.597 543.653 134.599C542.39 134.465 541.117 134.578 539.866 134.346C539.812 135.025 539.69 135.696 539.576 136.366C539.583 136.322 539.591 136.275 539.598 136.23C540.516 144.923 538.399 153.551 538.486 162.241Z" fill="#231F20"/>
<path d="M505.214 145.866C504.42 145.496 504.403 144.444 504.101 143.725C503.26 142.127 502.321 140.596 502.097 138.765C502.098 138.768 502.098 138.771 502.099 138.776C501.641 137.996 501.792 136.662 502.965 137.028C506.865 135.271 510.284 132.499 514.174 130.649C514.168 130.653 514.159 130.658 514.152 130.664C523.323 125.523 531.989 119.227 539.298 111.662C538.576 110.845 537.192 110.296 537.078 109.109C537.123 108.552 537.709 108.005 538.286 108.179C539.153 108.504 540.114 108.483 541.024 108.384C543.429 107.949 545.809 107.371 548.196 106.848C548.612 106.66 549.14 106.787 549.158 107.315C549.11 110 548.456 112.653 548.277 115.333C548.576 117.599 547.594 118.186 545.861 116.613C545.869 116.62 545.88 116.629 545.888 116.636C545.744 116.519 545.605 116.396 545.464 116.28C545.468 116.284 545.472 116.287 545.476 116.291C545.107 115.989 544.692 115.749 544.307 115.468C541.794 118.533 538.792 121.12 535.845 123.754C532.596 127.074 529.328 130.427 525.564 133.177C520.92 136.365 516.535 139.967 511.567 142.622C509.333 143.408 507.502 145.481 505.214 145.866Z" fill="#4263a3"/>
<path d="M550.262 162.084C548.969 161.81 549.283 160.503 549.352 159.524C549.433 157.955 549.643 156.413 549.761 154.851C550.619 147.584 550.579 140.431 551.7 133.111C552.306 129.708 552.383 126.26 552.876 122.846C553.352 120.343 552.723 117.009 556.505 118.333C557.942 118.84 561.016 117.742 560.716 120.198C560.667 128.025 559.877 135.871 558.785 143.617C558.068 148.027 557.996 152.554 557.296 156.922C556.903 158.421 557.222 160.531 556.173 161.719C554.451 162.625 552.132 162.405 550.262 162.084Z" fill="#4263a3"/>
<path d="M473.07 60.4552C500.835 55.7528 498.901 17.9842 475.959 7.48413C475.552 10.5352 474.793 13.5416 474.138 16.552C474.155 16.4871 474.171 16.4181 474.187 16.3492C474.13 16.5764 474.073 16.8076 474.017 17.0348C474.017 17.0308 474.021 17.0226 474.021 17.0145C472.737 23.3032 470.852 29.4256 469.048 35.5763C469.06 35.5195 469.076 35.4627 469.088 35.4059C468.625 36.4405 468.869 38.0715 467.837 38.7004C467.764 39.5118 466.265 39.9094 466.135 38.8992C458.55 32.2656 452.102 24.3825 445.106 17.1281C445.122 17.1444 445.139 17.1606 445.151 17.1728C444.151 16.1828 443.156 15.1726 442.185 14.1542C437.46 19.388 435.973 26.7113 437.505 33.5193C437.505 33.5153 437.505 33.5071 437.505 33.5031C437.513 33.572 437.525 33.6451 437.537 33.7141C437.533 33.6897 437.529 33.6694 437.525 33.6451C438.48 39.8039 441.584 45.7275 445.959 50.1498C445.907 50.0971 445.85 50.0403 445.793 49.9835C452.618 57.7287 462.738 62.0294 473.07 60.4552Z" fill="#4263a3"/>
<path d="M485.973 19.0841C485.237 13.9801 479.647 10.8844 475.942 7.78064C475.865 8.58803 475.67 9.35079 475.499 10.1379C479.009 12.4424 482.865 14.6211 484.945 18.4309C484.526 19.1003 485.57 19.859 485.973 19.0841Z" fill="#F7941D"/>
<path d="M466.658 62.5163C476.324 62.1836 485.347 57.035 489.524 48.1619C492.14 47.5898 493.099 42.2627 493.964 39.9541C493.944 40.0353 493.923 40.1205 493.903 40.2016C498.145 25.3157 489.633 11.9674 476.068 5.91406C476.137 7.29757 475.787 8.75007 475.503 10.1336C482.251 12.5436 486.107 18.7836 488.845 25.0479C490.661 29.5758 489.678 34.7163 489.268 39.4429C485.347 38.457 486.968 44.4576 485.055 46.4051C478.189 59.6113 459.654 61.4128 448.904 51.8418C448.937 51.8661 448.973 51.8945 449.006 51.9189C448.933 51.8661 448.864 51.8093 448.791 51.7566C448.795 51.7566 448.795 51.7606 448.799 51.7647C438.041 43.3703 435.164 26.618 443.615 15.6311C442.567 14.5803 441.518 13.5051 440.828 12.1825C425.727 31.8235 442.03 63.0924 466.658 62.5163Z" fill="#4263a3"/>
<path d="M466.882 39.5201C467.297 39.4511 467.817 39.1509 467.837 38.7005C468.869 38.0676 468.625 36.4406 469.088 35.406C469.076 35.4628 469.06 35.5196 469.048 35.5764C470.855 29.4298 472.737 23.3034 474.02 17.0147C474.02 17.0228 474.016 17.0309 474.016 17.035C474.073 16.8078 474.13 16.5765 474.187 16.3493C474.171 16.4183 474.154 16.4832 474.138 16.5522C474.252 15.0185 478.307 2.37624 474.158 5.19195C472.448 4.54685 470.795 3.94233 468.97 4.11679V4.11273C459.695 1.37005 449.075 3.18767 442.205 10.2675C442.234 10.2756 442.258 10.2878 442.286 10.3C437.886 10.6854 443.932 15.9071 445.151 17.177C445.134 17.1648 445.122 17.1486 445.106 17.1323C452.102 24.3867 458.549 32.2698 466.135 38.9034C466.187 39.2685 466.508 39.5647 466.882 39.5201Z" fill="#231F20"/>
<path d="M442.802 11.3587C444.196 9.78047 445.776 8.21033 447.657 7.23254C447.629 7.24471 447.605 7.25689 447.576 7.26906C455.99 2.74526 465.728 3.78797 474.707 5.79224C474.776 5.95858 474.939 6.07218 475.13 6.05189H475.125C477.539 5.01324 470.921 2.88727 469.978 2.80207C469.994 2.80613 470.015 2.81018 470.031 2.81424C469.986 2.80207 469.946 2.79395 469.901 2.78178C469.901 2.78178 469.901 2.78178 469.905 2.78178C465.594 1.90136 461.138 1.86079 456.766 2.18943C456.811 2.18537 456.855 2.18131 456.9 2.17725C452.281 2.65601 447.385 4.44118 443.851 7.48815C442.973 8.48623 440.653 9.77236 441.596 11.2857C441.901 11.6468 442.469 11.7198 442.802 11.3587Z" fill="#231F20"/>
<path d="M467.739 39.6944C472.042 37.3656 442.051 31.6206 440.109 31.1093C438.744 30.7888 437.362 30.5494 436.05 30.1194C434.701 30.16 434.689 32.1804 435.798 32.6348C435.758 32.6105 435.717 32.5862 435.676 32.5618C436.038 32.7687 436.4 32.8783 436.802 32.9716C436.749 32.9594 436.692 32.9473 436.639 32.9351C437.525 33.1501 438.427 33.3002 439.321 33.5072C439.268 33.495 439.215 33.4828 439.158 33.4666C441.645 34.0671 444.159 34.5499 446.654 35.1057C446.634 35.1016 446.617 35.0976 446.597 35.0935C446.918 35.1665 447.239 35.2436 447.556 35.3167C447.548 35.3126 447.54 35.3126 447.527 35.3086C447.584 35.3207 447.637 35.3329 447.694 35.3491C447.69 35.3491 447.69 35.3491 447.686 35.3491C448.823 35.6169 449.961 35.8806 451.099 36.1403C451.042 36.1281 450.985 36.1159 450.928 36.0997C456.51 37.1303 462.035 40.0961 467.739 39.6944Z" fill="#231F20"/>
<path d="M185.583 414.995C184.9 415.336 199.523 388.11 206.92 374.455L255.995 392.378L279.892 403.046L282.026 406.46L259.835 440.599L256.848 444.013C233.378 434.198 186.266 414.653 185.583 414.995Z" fill="white"/>
<path d="M265.548 407.306C266.367 406.384 265.776 404.876 265.742 403.754C265.554 400.387 263.117 397.976 261.497 395.191C261.516 395.222 261.533 395.252 261.552 395.285C261.1 394.515 260.637 393.753 260.182 392.985C260.184 392.988 260.184 392.991 260.187 392.994C257.906 388.923 255.298 385.027 252.573 381.241C252.578 381.247 252.584 381.255 252.59 381.261C252.334 380.934 252.09 380.601 251.829 380.28C251.863 380.324 251.896 380.366 251.929 380.41C251.79 380.23 251.652 380.05 251.513 379.873C251.546 379.914 251.579 379.958 251.613 380C249.734 377.606 248.103 375.034 246.213 372.648C246.227 372.665 246.238 372.682 246.252 372.698C245.164 371.49 244.468 369.833 243.1 368.918C241.784 366.774 239.107 368.802 239.034 370.756C239.037 371.681 239.614 372.499 239.983 373.319C245.006 382.125 250.93 390.369 255.881 399.209C255.856 399.168 255.831 399.126 255.808 399.085C257.168 400.972 257.629 403.845 259.826 404.94C261.561 405.439 263.864 407.886 265.548 407.306ZM263.997 404.912C262.721 404.1 261.353 403.455 259.987 402.798C258.089 399.578 256.158 396.377 254.332 393.116C249.681 385.944 245.214 378.628 241.224 371.06C241.349 370.85 241.521 370.672 241.698 370.506C241.912 370.62 242.153 370.667 242.378 370.623C242.503 370.756 242.692 370.85 242.864 370.855C248.03 379.038 254.266 386.49 259.155 394.853C261.014 398.162 264.197 400.855 263.997 404.912Z" fill="#231F20"/>
<path d="M264.899 406.35C269.105 405.378 258.089 392.423 256.904 390.084C256.913 390.095 256.921 390.106 256.932 390.117C256.891 390.065 256.849 390.009 256.807 389.957C256.816 389.968 256.824 389.976 256.832 389.987C256.719 389.84 256.602 389.691 256.488 389.544C256.499 389.558 256.508 389.569 256.519 389.582C253.586 386.232 251.629 382.209 248.954 378.659C247.642 376.913 246.171 375.261 245.211 373.283C244.257 371.947 243.038 367.716 240.977 368.594C238.36 370.786 243.052 375.128 244.187 377.284C245.336 379.432 246.579 381.527 247.783 383.644C247.775 383.63 247.767 383.616 247.759 383.602C247.82 383.708 247.881 383.81 247.944 383.916C247.908 383.855 247.872 383.794 247.836 383.733C251.283 389.336 255.048 394.737 258.525 400.326C256.788 401.141 258.475 402.817 259.48 403.455C260.29 403.901 260.947 405.561 261.996 404.749C262.87 405.369 263.714 406.464 264.899 406.35Z" fill="#231F20"/>
<path d="M246.166 387.476C247.711 385.65 239.983 377.487 239.076 375.015C239.414 374.566 239.82 374.178 240.289 373.87C240.258 373.89 240.23 373.909 240.2 373.929C241.018 373.582 242.017 372.679 240.744 372.138C239.894 372.152 239.04 372.587 238.388 373.114C235.316 375.361 240.388 379.856 241.632 382.131C242.858 383.087 244.692 388.632 246.166 387.476Z" fill="#231F20"/>
<path d="M184.73 414.568L207.347 374.455L272.211 399.205L282.453 405.18L256.848 444.439L184.73 414.568Z" fill="white"/>
<path d="M257.351 446.939C260.939 444.337 263.009 439.995 265.77 436.572C269.536 432.075 272.166 426.851 275.307 421.955C277.067 419.466 288.26 404.89 282.633 403.762C282.536 403.361 282.225 403.067 281.82 403.014C281.834 403.014 281.845 403.017 281.859 403.017C281.346 402.917 280.938 403.325 280.957 403.829C277.38 407.991 275.374 413.101 272.247 417.551C268.756 423.18 264.807 428.525 261.602 434.333C261.611 434.319 261.619 434.306 261.625 434.292C261.564 434.4 261.503 434.508 261.441 434.613C261.48 434.547 261.516 434.48 261.555 434.414C260.146 436.866 258.575 439.224 257.188 441.69C257.19 441.685 257.196 441.677 257.199 441.671C256.655 443.046 254.982 444.295 255.476 445.872C255.761 446.659 256.552 447.186 257.351 446.939Z" fill="#231F20"/>
<path d="M282.411 406.561C284.287 406.026 283.726 403.277 282.211 402.587C282.222 402.596 282.233 402.604 282.242 402.61C282.12 402.518 282 402.424 281.878 402.332C281.92 402.366 281.964 402.399 282.006 402.432C272.438 395.881 261.489 391.647 250.658 387.654C250.692 387.668 250.728 387.682 250.761 387.696C239.537 383.181 228.143 379.066 216.583 375.492C213.689 374.541 210.75 373.743 207.867 372.768C206.849 372.089 205.378 372.568 205.381 373.901C205.486 376.739 211.413 377.129 213.558 378.282C218.586 380.172 223.698 381.843 228.695 383.819C228.634 383.794 228.576 383.772 228.515 383.747C238.693 387.748 249.057 391.295 259.074 395.698C266.875 399.204 274.575 403.43 282.411 406.561Z" fill="#231F20"/>
<path d="M183.748 416.806C184.067 416.803 184.336 416.687 184.575 416.499C187.369 419.137 194.584 400.648 196.526 398.207C199.601 392.501 202.57 386.756 205.88 381.178C206.963 378.864 209.735 377.055 209.502 374.306C208.983 371.831 205.75 372.305 204.487 373.915C202.151 376.271 201.241 379.643 199.118 382.198C193.64 389.572 189.237 397.663 185.616 406.093C184.567 408.257 183.892 410.571 182.918 412.766C182.028 414.096 181.537 416.598 183.748 416.806Z" fill="#231F20"/>
<path d="M257.676 446.52C259.233 446.216 260.337 444.004 259.155 442.743C257.765 441.685 255.975 441.194 254.429 440.371C250.633 438.775 246.874 437.101 243.119 435.411C228.72 429.068 214.477 422.362 199.826 416.595C199.848 416.604 199.867 416.612 199.89 416.62C199.751 416.565 199.615 416.512 199.476 416.457C199.543 416.484 199.612 416.509 199.682 416.537C199.596 416.504 199.51 416.471 199.423 416.435C199.44 416.44 199.457 416.448 199.473 416.454C199.36 416.41 199.246 416.365 199.129 416.318C199.199 416.346 199.265 416.371 199.335 416.399C199.299 416.385 199.26 416.368 199.224 416.354C199.154 416.327 199.088 416.302 199.018 416.274C199.029 416.277 199.038 416.282 199.049 416.285C198.949 416.246 198.852 416.207 198.752 416.169C198.763 416.171 198.771 416.177 198.782 416.18C198.713 416.152 198.647 416.127 198.577 416.099C198.597 416.108 198.613 416.113 198.633 416.121C198.61 416.113 198.585 416.102 198.563 416.094C198.574 416.099 198.585 416.102 198.597 416.108C198.139 415.928 197.684 415.745 197.226 415.562C197.231 415.565 197.237 415.564 197.242 415.567C197.173 415.54 197.106 415.515 197.037 415.487C197.045 415.49 197.057 415.495 197.065 415.498C194.948 414.553 192.647 414.09 190.544 413.123C189.564 412.433 188.058 411.114 187.086 412.514C186.828 412.444 186.576 412.35 186.323 412.275C186.323 412.278 186.323 412.281 186.321 412.284C184.647 411.754 183.92 414.262 185.177 415.171C186.454 415.952 187.869 416.543 189.22 417.197C194.753 419.533 200.073 422.354 205.72 424.421C215.773 428.869 226.054 432.773 236.09 437.259C243.189 440.479 250.101 444.642 257.676 446.52Z" fill="#231F20"/>
<path d="M256.244 446.601C256.732 446.709 257.362 446.243 256.801 445.861C256.804 445.858 256.804 445.858 256.807 445.855C236.625 434.491 215.559 424.712 193.535 417.463C190.763 416.626 188.276 414.37 185.335 414.362C183.723 414.683 183.703 417 184.971 417.787C188.651 419.411 192.278 421.253 196.171 422.378C209.343 426.471 221.891 432.116 234.378 437.916C241.523 441.006 248.416 445.589 256.244 446.601Z" fill="#231F20"/>
<path d="M188.468 418.031C188.224 416.864 185.388 416.598 184.456 415.409C184.023 415.126 183.454 415.262 183.229 415.733C182.716 417.834 185.996 417.953 187.38 418.41C187.353 418.405 187.325 418.396 187.297 418.391C187.389 418.413 187.477 418.432 187.569 418.455C187.541 418.449 187.516 418.444 187.489 418.435C187.885 418.613 188.451 418.571 188.468 418.031Z" fill="#231F20"/>
<path d="M251.374 427.738C266.822 425.845 259.926 401.074 246.149 403.344C239.201 404.522 236.809 412.591 237.941 418.723C239.237 424.714 245.392 428.586 251.374 427.738Z" fill="#231F20"/>
<path d="M220.898 414.306C222.213 412.505 222.899 410.316 223.379 408.16C224.444 405.37 221.126 404.175 220.107 407.329C219.439 409.185 217.713 410.826 217.843 412.874C218.101 414.151 219.783 415.531 220.898 414.306Z" fill="#231F20"/>
<path d="M215.051 413.076C217.296 410.989 217.832 407.545 218.276 404.635C219.261 403.277 217.743 401.221 216.153 401.853C214.341 402.925 213.916 405.796 212.712 407.517C211.439 409.512 211.833 414.065 215.051 413.076Z" fill="#231F20"/>
<path d="M210.345 409.789C212.432 406.223 214.055 402.158 214.361 398.007C214.175 396.593 212.798 395.022 211.394 396.239C209.946 397.94 209.546 400.379 208.517 402.357C207.862 404.51 205.709 407.415 207.054 409.551C207.837 410.443 209.516 410.795 210.345 409.789Z" fill="#231F20"/>
<path d="M203.608 407.298C205.952 402.216 209.044 397.286 210.559 391.902C210.728 390.616 209.465 389.2 208.156 389.851C205.941 391.985 205.017 395.302 203.519 397.971C202.6 400.005 201.823 402.097 200.883 404.12C200.078 405.259 200.225 407.273 201.898 407.42C202.351 407.902 203.247 407.897 203.608 407.298Z" fill="#4263a3"/>
<path d="M250.947 417.116C251.355 417.036 251.546 416.623 251.521 416.238C251.829 412.624 252.337 409.011 252.332 405.37C252.423 403.751 250.903 403.89 251.158 405.503C251.161 405.472 251.163 405.442 251.166 405.414C250.678 408.335 250.528 411.294 250.109 414.226C249.149 413.065 248.3 411.818 247.509 410.54C247.528 410.574 247.548 410.607 247.567 410.64C247.09 409.765 246.541 408.939 245.891 408.182C245.902 408.196 245.913 408.21 245.925 408.224C245.911 408.204 245.894 408.185 245.88 408.166C245.883 408.168 245.886 408.174 245.888 408.177C244.906 407.448 244.634 404.907 243.347 405.095C242.653 405.372 242.839 406.218 243.219 406.686C243.197 406.65 243.177 406.617 243.158 406.581C243.841 408.243 245.225 409.424 246.141 410.942C246.141 410.942 246.141 410.939 246.138 410.939C247.198 412.439 249.374 416.631 250.947 417.116Z" fill="#4263a3"/>
<path d="M471.75 415.891C477.827 414.124 484.242 414.017 490.442 412.832C500.872 410.816 511.305 408.923 521.781 407.225C527.656 406.222 533.527 405.111 539.445 404.41C544.039 403.777 548.984 403.572 553.11 401.29C555.324 401.257 555.646 394.835 556.553 393.023C559.31 383.091 561.69 373.075 563.816 362.993C565.829 355.467 567.328 347.811 568.661 340.139C568.592 337.671 571.421 332.716 569.054 331.226C567.5 328.265 555.603 327.865 552.17 327.632C540.098 326.567 527.935 327.047 515.831 326.576C509.15 326.398 502.458 326.512 495.78 326.242C493.222 326.083 490.656 326.09 488.094 326.083C485.37 325.632 483.881 327.044 485.097 329.749C484.44 330.596 483.208 330.866 484.186 332.239C480.945 342.028 479.479 352.337 477.583 362.451C475.662 361.87 472.459 357.987 470.895 360.685C457.835 362.659 444.407 365.269 431.913 368.974C431.88 368.984 431.851 368.99 431.818 368.997C431.831 368.993 431.841 368.99 431.854 368.987C431.838 368.99 431.818 368.997 431.802 369C431.805 369 431.805 369 431.809 369C431.802 369.003 431.792 369.006 431.786 369.006C431.76 369.013 431.737 369.019 431.711 369.026C431.747 369.016 431.783 369.006 431.822 368.993C425.505 370.542 419.23 372.279 412.88 373.666C410.23 374.584 399.735 375.494 402.817 379.929C416.466 389.075 432.01 395.325 446.322 403.449C446.319 403.449 446.316 403.446 446.316 403.446C451.71 406.465 457.227 409.267 462.624 412.29C465.573 413.478 468.476 416.154 471.75 415.891ZM470.274 364.724C470.382 364.701 470.489 364.678 470.596 364.656C470.606 364.662 470.612 364.665 470.619 364.672C470.499 364.685 470.385 364.704 470.274 364.724Z" fill="#231F20"/>
<path d="M479.837 364.087C479.863 363.552 479.225 363.266 478.881 362.944C478.9 362.957 478.917 362.974 478.936 362.987C477.333 361.724 475.473 360.857 473.718 359.844C473.724 359.85 473.731 359.853 473.741 359.86C473.318 359.428 472.528 359.568 472.437 360.217C472.58 362.133 477.206 362.785 478.699 363.938C478.679 363.928 478.663 363.915 478.643 363.906C478.751 363.967 478.858 364.032 478.965 364.097C479.108 364.409 479.765 364.503 479.837 364.087Z" fill="#231F20"/>
<path d="M458.209 364.636C458.693 364.487 459.178 364.328 459.666 364.195C459.653 364.198 459.64 364.201 459.63 364.204C459.669 364.195 459.705 364.185 459.744 364.175C459.734 364.178 459.727 364.178 459.718 364.182C459.727 364.178 459.734 364.178 459.744 364.175C459.737 364.178 459.731 364.178 459.724 364.182C459.763 364.172 459.802 364.162 459.838 364.153C459.825 364.156 459.812 364.159 459.799 364.162C464.025 363.454 468.132 362.402 472.206 361.039C472.732 361.854 474.53 359.591 471.116 360.104C467.319 360.743 463.541 361.523 459.77 362.26C458.882 362.652 456.843 362.688 457.211 364.071C457.354 364.484 457.786 364.773 458.209 364.636Z" fill="#231F20"/>
<path d="M444.414 367.695C449.46 366.26 454.532 364.967 459.653 363.818C459.65 363.818 459.643 363.821 459.64 363.821C460.492 363.594 461.344 363.354 462.199 363.143C462.16 363.152 462.121 363.162 462.082 363.172C462.914 362.967 463.72 362.678 464.546 362.441C464.51 362.451 464.471 362.461 464.435 362.471C467.163 361.906 469.959 361.474 472.671 360.958C473.428 359.678 470.782 360.156 470.102 360.182C470.128 360.178 470.154 360.178 470.18 360.175C467.505 360.376 464.783 360.337 462.212 361.201C462.251 361.191 462.29 361.182 462.329 361.172C459.253 361.974 456.119 362.506 453.056 363.357C453.079 363.351 453.102 363.344 453.128 363.338C449.941 363.951 446.937 365.156 443.826 366.016C442.87 366.37 443.445 368.01 444.414 367.695Z" fill="#231F20"/>
<path d="M483.65 344.509C484.752 339.09 485.25 333.551 486.456 328.155C487.77 327.684 486.147 326.184 485.465 327.252C484.301 328.096 479.238 349.188 483.65 344.509Z" fill="#231F20"/>
<path d="M471.221 411.55C471.903 411.225 471.396 410.092 471.647 409.452C471.643 409.475 471.643 409.495 471.64 409.517C471.881 406.748 472.635 404.059 472.814 401.283C472.814 401.296 472.81 401.306 472.81 401.319C472.941 400.036 473.197 398.767 473.321 397.484C473.321 397.488 473.321 397.488 473.321 397.491C473.321 397.478 473.324 397.465 473.324 397.452C473.324 397.455 473.324 397.455 473.324 397.458C473.337 397.335 473.35 397.215 473.366 397.092C473.363 397.118 473.36 397.14 473.357 397.163C474.225 391.955 475.239 386.767 475.542 381.481C475.538 381.513 475.535 381.542 475.532 381.572C475.555 381.38 475.574 381.185 475.597 380.994C475.597 381.003 475.594 381.016 475.594 381.026C475.594 381.013 475.597 381 475.597 380.987C475.597 380.994 475.597 380.997 475.594 381.003C475.597 380.987 475.597 380.971 475.6 380.955C475.6 380.958 475.6 380.964 475.6 380.968C475.6 380.958 475.603 380.945 475.603 380.935C475.603 380.939 475.603 380.939 475.603 380.942C475.603 380.932 475.607 380.919 475.607 380.909C475.603 380.929 475.603 380.948 475.6 380.968C475.766 379.568 476.032 378.185 476.192 376.786C476.189 376.805 476.185 376.828 476.185 376.847C476.205 376.685 476.221 376.52 476.241 376.357C476.241 376.367 476.237 376.377 476.237 376.386C476.345 375.425 476.423 374.458 476.52 373.497C476.517 373.526 476.514 373.555 476.51 373.584C476.38 371.708 478.429 365.458 477.291 364.581C476.953 364.532 476.842 364.88 476.819 365.152C476.153 368.789 475.307 372.403 475.051 376.104C474.885 377.656 474.579 379.185 474.41 380.737C474.41 380.721 474.413 380.708 474.413 380.692C474.413 380.695 474.413 380.695 474.413 380.698C474.417 380.679 474.417 380.663 474.42 380.643C474.417 380.688 474.41 380.737 474.404 380.783C474.404 380.77 474.407 380.757 474.407 380.744C474.387 380.922 474.368 381.101 474.348 381.283C474.352 381.25 474.355 381.221 474.358 381.192C473.867 388.591 472.333 395.874 471.757 403.267C471.757 403.244 471.76 403.225 471.764 403.202C471.76 404.67 469.777 411.134 471.221 411.55Z" fill="white"/>
<path d="M469.566 412.462C469.875 412.076 469.419 411.686 469.094 411.504C465.492 409.209 461.997 406.738 458.235 404.705C458.258 404.718 458.281 404.731 458.303 404.744C457.282 404.163 456.226 403.641 455.202 403.063C455.205 403.066 455.208 403.066 455.215 403.069C453.498 402.085 451.85 400.985 450.107 400.046C450.123 400.056 450.139 400.066 450.156 400.072C449.827 399.884 449.492 399.699 449.164 399.514C449.167 399.517 449.174 399.52 449.177 399.52C449.08 399.465 448.982 399.41 448.884 399.355C448.888 399.358 448.891 399.358 448.894 399.361C448.871 399.348 448.849 399.335 448.826 399.322C448.826 399.322 448.829 399.322 448.829 399.325C448.819 399.319 448.81 399.316 448.8 399.309C448.803 399.312 448.806 399.312 448.81 399.316C448.608 399.202 448.407 399.088 448.208 398.975C448.231 398.988 448.254 399.001 448.276 399.011C448.218 398.978 448.163 398.946 448.104 398.913C448.127 398.926 448.15 398.939 448.172 398.949C448.133 398.926 448.091 398.903 448.049 398.881C448.055 398.884 448.059 398.887 448.065 398.89C448.055 398.884 448.046 398.881 448.036 398.874C448.039 398.877 448.042 398.877 448.046 398.881C446.908 398.218 445.714 397.657 444.56 397.027C444.577 397.036 444.59 397.043 444.606 397.053C444.485 396.984 444.365 396.916 444.245 396.848C444.268 396.861 444.29 396.874 444.313 396.884C437.251 392.488 429.533 389.286 422.24 385.299C416.694 382.396 411.03 379.698 405.262 377.266C404.963 376.968 404.466 376.737 404.167 377.172C403.273 378.809 409.772 380.344 410.978 381.124C410.952 381.114 410.923 381.101 410.897 381.091C421.265 385.718 431.194 391.251 441.325 396.368C441.322 396.368 441.319 396.364 441.319 396.364C443.764 397.894 446.361 399.157 448.855 400.601C448.852 400.598 448.849 400.598 448.845 400.595C451.073 401.777 453.196 403.131 455.364 404.41C455.361 404.41 455.358 404.407 455.354 404.407C455.426 404.449 455.498 404.488 455.569 404.53C455.569 404.53 455.569 404.53 455.566 404.53C455.582 404.54 455.602 404.55 455.618 404.559C455.611 404.556 455.608 404.553 455.602 404.55C455.624 404.563 455.647 404.576 455.67 404.589C456.392 404.998 457.12 405.394 457.845 405.8C457.829 405.79 457.816 405.783 457.799 405.774C457.952 405.861 458.105 405.949 458.261 406.033C458.258 406.03 458.255 406.03 458.251 406.027C458.274 406.04 458.3 406.053 458.323 406.066C458.32 406.063 458.313 406.063 458.31 406.059C458.804 406.345 459.308 406.618 459.802 406.9C459.789 406.891 459.773 406.884 459.76 406.874C459.922 406.965 460.082 407.059 460.244 407.15C460.222 407.137 460.199 407.124 460.173 407.111C462.992 408.813 465.778 410.586 468.672 412.167C468.75 412.508 469.306 412.709 469.566 412.462Z" fill="white"/>
<path d="M448.325 376.604C449.242 375.169 440.415 370.951 439.056 369.578C444.021 368.214 449.174 367.594 454.197 366.461C454.184 366.461 454.174 366.464 454.161 366.464C454.184 366.461 454.21 366.461 454.233 366.458C454.223 366.458 454.213 366.461 454.2 366.461C457.201 365.938 459.676 367.922 462.377 368.928C462.703 369.042 463.034 369.26 463.385 369.234C463.827 369.117 463.538 368.467 463.154 368.539C460.397 367.396 457.897 365.052 454.786 365.315C449.379 366.136 443.891 367.026 438.588 368.38C435.057 368.727 438.165 370.438 439.511 371.347C441.95 373.016 444.456 374.581 446.905 376.234C446.892 376.224 446.879 376.214 446.866 376.205C446.895 376.227 446.921 376.247 446.95 376.27C446.944 376.263 446.934 376.257 446.927 376.25C447.327 376.546 447.883 377.198 448.325 376.604Z" fill="white"/>
<path d="M449.353 377.098C450.627 376.809 451.892 376.481 453.16 376.162C453.134 376.169 453.105 376.175 453.079 376.185C453.137 376.172 453.193 376.156 453.251 376.14C453.238 376.143 453.225 376.146 453.212 376.149C453.238 376.143 453.267 376.133 453.293 376.127C453.287 376.127 453.284 376.13 453.277 376.13C453.316 376.12 453.358 376.107 453.398 376.098C453.385 376.101 453.375 376.104 453.362 376.107C453.404 376.098 453.446 376.085 453.485 376.075C453.615 376.042 453.742 376.01 453.872 375.974C453.866 375.977 453.859 375.977 453.849 375.981C454.236 375.88 454.613 375.757 454.997 375.649C454.971 375.656 454.942 375.662 454.916 375.669C456.122 375.403 457.289 375.01 458.479 374.688C458.466 374.692 458.453 374.695 458.44 374.698C458.466 374.692 458.492 374.685 458.515 374.679C458.502 374.682 458.492 374.685 458.479 374.688C460.583 374.136 462.696 373.643 464.764 372.971C464.761 372.971 464.761 372.971 464.757 372.971C471.006 371.766 464.042 369.049 461.802 367.815C460.895 367.558 457.969 365.464 457.465 366.467C457.504 366.873 457.998 366.753 458.261 366.922C458.248 366.919 458.232 366.912 458.219 366.906C459.328 367.357 460.352 367.984 461.399 368.558C461.396 368.558 461.396 368.555 461.392 368.555C462.924 369.442 464.468 370.321 465.889 371.38C463.671 372.159 461.389 372.734 459.1 373.286C459.103 373.286 459.107 373.283 459.11 373.283C457.949 373.549 456.798 373.854 455.654 374.185C455.68 374.179 455.706 374.172 455.732 374.162C455.046 374.309 454.36 374.461 453.687 374.662C453.713 374.656 453.742 374.649 453.768 374.643C452.39 374.971 451.018 375.312 449.636 375.614C449.652 375.607 449.672 375.604 449.691 375.598C449.405 375.679 449.122 375.77 448.823 375.789C448.829 375.789 448.836 375.789 448.843 375.789C448.813 375.792 448.787 375.796 448.758 375.796C448.774 375.792 448.794 375.792 448.81 375.789C448.365 375.812 447.883 375.205 447.529 375.747C447.025 376.783 448.579 377.26 449.353 377.098Z" fill="white"/>
<path d="M437.3 386.017C437.291 386.02 437.284 386.02 437.278 386.023C437.466 385.978 437.651 385.922 437.84 385.87C440.298 385.306 442.808 385.01 445.256 384.387C445.224 384.393 445.194 384.403 445.165 384.409C449.385 382.991 453.768 382.37 458.053 381.205C458.024 381.211 457.995 381.221 457.965 381.228C464.026 380.24 469.865 378.029 475.337 375.292C477.001 372.847 469.514 376.838 468.711 376.773C468.724 376.77 468.737 376.766 468.753 376.763C468.724 376.77 468.698 376.776 468.668 376.786C468.675 376.783 468.681 376.783 468.685 376.779C466.149 377.477 463.72 378.542 461.165 379.195C461.181 379.192 461.194 379.188 461.21 379.182C459.614 379.513 457.995 379.679 456.437 380.185C456.46 380.179 456.479 380.176 456.502 380.169C452.633 381.111 448.712 381.666 444.928 382.945C444.941 382.942 444.954 382.939 444.964 382.935C444.915 382.948 444.866 382.961 444.817 382.974C444.85 382.968 444.879 382.958 444.908 382.952C444.843 382.968 444.775 382.984 444.71 383.004C444.742 382.997 444.772 382.987 444.804 382.978C442.857 383.494 440.844 383.698 438.89 384.179C438.9 384.176 438.91 384.172 438.919 384.169C438.289 384.331 437.638 384.409 437.011 384.601C437.043 384.595 437.073 384.585 437.102 384.578C436.104 384.627 436.37 386.231 437.3 386.017Z" fill="white"/>
<path d="M444.04 389.958C444.333 389.868 444.626 389.777 444.925 389.699C444.912 389.702 444.902 389.705 444.889 389.708C444.899 389.705 444.912 389.702 444.921 389.699C444.918 389.699 444.918 389.699 444.915 389.699C454.331 386.754 464.104 384.919 473.282 381.244C473.272 381.247 473.266 381.25 473.256 381.254C473.305 381.231 473.354 381.211 473.402 381.189C473.393 381.192 473.383 381.198 473.376 381.202C474.053 380.877 474.82 380.569 475.369 380.088C475.571 379.468 474.81 379.465 474.433 379.692C471.832 380.689 469.078 381.101 466.464 382.072C466.497 382.062 466.529 382.056 466.562 382.046C465.258 382.351 464 382.809 462.709 383.15C462.745 383.143 462.777 383.134 462.81 383.124C462.595 383.179 462.381 383.234 462.163 383.289C462.199 383.283 462.231 383.273 462.264 383.263C460.882 383.637 459.497 383.978 458.109 384.328C458.112 384.328 458.115 384.328 458.118 384.325C458.092 384.332 458.066 384.338 458.04 384.345C458.056 384.341 458.069 384.338 458.086 384.335C458.053 384.341 458.024 384.351 457.991 384.358C458.004 384.354 458.017 384.351 458.03 384.348C458.027 384.348 458.021 384.351 458.017 384.351H458.021C457.897 384.384 457.774 384.416 457.65 384.448C457.686 384.439 457.718 384.429 457.754 384.419C455.579 385.004 453.384 385.52 451.187 385.994C451.203 385.991 451.222 385.984 451.239 385.981C448.979 386.682 446.758 387.497 444.447 388.036C444.482 388.027 444.518 388.017 444.554 388.007C444.476 388.027 444.401 388.046 444.323 388.069C444.346 388.062 444.369 388.056 444.391 388.053C444.385 388.056 444.378 388.056 444.372 388.059C444.385 388.056 444.398 388.053 444.411 388.049C443.712 388.192 442.704 388.462 443.045 389.39C443.185 389.806 443.618 390.095 444.04 389.958Z" fill="white"/>
<path d="M453.752 393.637C455.966 393.108 458.089 392.293 460.361 392.059C460.329 392.069 460.293 392.079 460.257 392.088C460.309 392.075 460.365 392.059 460.417 392.046C460.397 392.049 460.381 392.056 460.361 392.059C464.822 390.228 469.504 389.199 474.065 387.686C474.488 387.838 475.015 387.423 474.972 386.968C474.384 385.449 471.536 387.426 470.3 387.332C464.923 388.348 459.896 390.585 454.532 391.705C454.568 391.695 454.603 391.686 454.639 391.676C454.597 391.686 454.555 391.699 454.512 391.708C454.519 391.705 454.529 391.705 454.535 391.702C454.499 391.708 454.464 391.718 454.431 391.728C454.454 391.721 454.477 391.715 454.499 391.712C453.752 391.877 452.409 391.991 452.779 393.082C452.916 393.488 453.339 393.767 453.752 393.637Z" fill="white"/>
<path d="M463.018 397.056C466.539 395.952 470.203 394.991 473.415 393.147C473.812 393.215 473.89 392.585 473.597 392.41C473.048 392.231 472.492 392.708 471.939 392.773H471.942C468.685 393.712 464.998 394.247 462.062 395.809C461.756 396.407 462.328 397.277 463.018 397.056Z" fill="white"/>
<path d="M470.073 400.053C470.662 399.793 471.169 399.397 471.699 399.036C471.686 399.046 471.673 399.056 471.66 399.066C471.936 398.809 473.143 398.452 472.434 398.049C472.3 398.069 472.118 398.014 472.024 398.131C471.182 398.53 470.025 398.715 469.397 399.374C469.251 399.764 469.673 400.267 470.073 400.053Z" fill="white"/>
</g>
<defs>
<clipPath id="clip0_471_13790">
<rect width="570" height="450" fill="white" transform="matrix(-1 0 0 1 570 0)"/>
</clipPath>
</defs>
</svg>
