<svg width="48" height="48" viewBox="0 0 48 48" fill="none" xmlns="http://www.w3.org/2000/svg">
<rect x="6" y="11" width="13" height="17" fill="#2C60EA"/>
<path d="M44 9.70011V33.4801C44 35.4201 42.42 37.2001 40.48 37.4401L39.86 37.5201C36.58 37.9601 31.96 39.3201 28.24 40.8801C26.94 41.4201 25.5 40.4401 25.5 39.0201V11.2001C25.5 10.4601 25.92 9.78011 26.58 9.42011C30.24 7.44011 35.78 5.68011 39.54 5.36011H39.66C42.06 5.36011 44 7.30011 44 9.70011Z" fill="white"/>
<path d="M21.4205 9.42011C17.7605 7.44011 12.2205 5.68011 8.46047 5.36011H8.32047C5.92047 5.36011 3.98047 7.30011 3.98047 9.70011V33.4801C3.98047 35.4201 5.56047 37.2001 7.50047 37.4401L8.12047 37.5201C11.4005 37.9601 16.0205 39.3201 19.7405 40.8801C21.0405 41.4201 22.4805 40.4401 22.4805 39.0201V11.2001C22.4805 10.4401 22.0805 9.78011 21.4205 9.42011ZM10.0005 15.4801H14.5005C15.3205 15.4801 16.0005 16.1601 16.0005 16.9801C16.0005 17.8201 15.3205 18.4801 14.5005 18.4801H10.0005C9.18047 18.4801 8.50047 17.8201 8.50047 16.9801C8.50047 16.1601 9.18047 15.4801 10.0005 15.4801ZM16.0005 24.4801H10.0005C9.18047 24.4801 8.50047 23.8201 8.50047 22.9801C8.50047 22.1601 9.18047 21.4801 10.0005 21.4801H16.0005C16.8205 21.4801 17.5005 22.1601 17.5005 22.9801C17.5005 23.8201 16.8205 24.4801 16.0005 24.4801Z" fill="white"/>
</svg>
